<svg width="572" height="255" viewBox="0 0 572 255" fill="none" xmlns="http://www.w3.org/2000/svg">
<path d="M34.348 170.316C33.542 170.316 33.108 169.944 32.922 169.2C32.798 168.642 32.612 166.968 32.364 164.24C28.954 163.248 26.164 162.814 23.808 162.814C21.7 162.814 19.778 163.124 17.98 163.868C16.182 164.612 14.694 165.666 13.454 167.03C12.214 168.394 11.222 170.006 10.478 171.99C9.734 173.974 9.362 176.206 9.362 178.624C9.362 181.166 9.734 183.336 10.478 185.32C11.222 187.304 12.09 188.916 13.33 190.28C14.57 191.644 15.996 192.636 17.67 193.38C19.344 194.124 21.08 194.434 23.002 194.434C24.118 194.434 25.172 194.372 26.102 194.248C27.032 194.124 27.9 193.938 28.644 193.69C29.388 193.442 30.132 193.07 30.814 192.636C31.496 192.202 32.178 191.644 32.86 191.024C33.046 190.838 33.294 190.714 33.542 190.59C33.79 190.466 34.038 190.466 34.286 190.466C34.72 190.466 35.154 190.59 35.464 190.962L38.75 194.558C36.952 196.79 34.72 198.526 32.054 199.704C29.388 200.882 26.164 201.502 22.444 201.502C19.096 201.502 16.182 200.882 13.516 199.766C10.85 198.65 8.556 197.1 6.696 195.054C4.836 193.008 3.348 190.59 2.356 187.8C1.364 185.01 0.868 181.972 0.868 178.624C0.868 175.276 1.426 172.114 2.542 169.324C3.658 166.534 5.208 164.178 7.254 162.132C9.3 160.086 11.656 158.474 14.508 157.358C17.298 156.242 20.46 155.684 23.87 155.684C27.59 155.684 32.302 156.738 37.944 158.908V170.316H34.348ZM56.2166 168.704C58.5726 168.704 60.7426 169.138 62.6646 169.882C64.5866 170.626 66.2606 171.68 67.6246 173.106C68.9886 174.532 69.9806 176.206 70.7246 178.252C71.4686 180.298 71.8406 182.53 71.8406 185.01C71.8406 187.552 71.4686 189.784 70.7246 191.83C69.9806 193.876 68.9886 195.612 67.6246 197.038C66.2606 198.464 64.5866 199.58 62.6646 200.324C60.7426 201.068 58.5726 201.44 56.2166 201.44C53.8606 201.44 51.6286 201.068 49.7066 200.324C47.7846 199.58 46.1106 198.464 44.7466 197.038C43.3826 195.612 42.2666 193.876 41.5226 191.83C40.7786 189.784 40.4066 187.552 40.4066 185.01C40.4066 182.53 40.7786 180.298 41.5226 178.252C42.2666 176.206 43.3826 174.532 44.7466 173.106C46.1106 171.68 47.7846 170.626 49.7066 169.882C51.6286 169.138 53.8606 168.704 56.2166 168.704ZM56.2166 195.55C58.8826 195.55 60.8046 194.682 62.0446 192.884C63.2846 191.086 63.9666 188.482 63.9666 185.072C63.9666 181.662 63.2846 179.058 62.0446 177.26C60.8046 175.462 58.8826 174.532 56.2166 174.532C53.5506 174.532 51.5666 175.462 50.2646 177.26C48.9626 179.058 48.2806 181.724 48.2806 185.134C48.2806 188.544 48.9626 191.086 50.2646 192.884C51.5666 194.682 53.5506 195.55 56.2166 195.55ZM108.28 197.224V200.882H103.94H99.2281C98.7321 200.882 98.3601 200.758 97.9881 200.51C97.6161 200.262 97.4301 199.952 97.3061 199.456L96.6861 196.542C95.3841 198.03 93.9581 199.146 92.2841 200.076C90.6101 201.006 88.6261 201.44 86.3941 201.44C84.6581 201.44 83.1081 201.13 81.6821 200.386C80.2561 199.642 79.0161 198.588 77.9621 197.224C76.9081 195.86 76.1021 194.124 75.5441 192.14C74.9861 190.094 74.6761 187.8 74.6761 185.196C74.6761 182.84 74.9861 180.67 75.6061 178.624C76.2261 176.578 77.2181 174.842 78.3961 173.354C79.5741 171.866 81.0001 170.75 82.6741 169.882C84.3481 169.014 86.2081 168.58 88.3161 168.58C90.1141 168.58 91.6641 168.89 92.9041 169.448C94.1441 170.006 95.2601 170.688 96.2521 171.68V161.078C95.4461 160.954 94.8881 160.83 94.4541 160.768C94.0201 160.706 93.7101 160.582 93.5241 160.582C93.3381 160.582 93.2141 160.52 93.1521 160.52C92.0981 160.272 91.6021 159.652 91.6021 158.598V154.94H96.2521H103.94V194.806C104.622 194.93 105.18 194.992 105.552 195.054C105.924 195.116 106.234 195.24 106.358 195.24C106.482 195.24 106.606 195.302 106.73 195.302C107.784 195.55 108.28 196.17 108.28 197.224ZM96.3141 191.582V177.322C95.4461 176.268 94.4541 175.524 93.4621 175.09C92.4081 174.656 91.2921 174.408 90.1141 174.408C88.9361 174.408 87.9441 174.656 87.0141 175.09C86.0841 175.524 85.2781 176.206 84.5961 177.074C83.9761 177.942 83.4801 179.058 83.1081 180.422C82.7361 181.786 82.6121 183.336 82.6121 185.196C82.6121 187.056 82.7361 188.668 83.0461 189.97C83.3561 191.272 83.7901 192.264 84.3481 193.07C84.9061 193.876 85.5261 194.496 86.3321 194.868C87.1381 195.24 88.0681 195.426 89.0601 195.426C90.6721 195.426 92.0361 195.116 93.1521 194.434C94.2681 193.752 95.3221 192.822 96.3141 191.582ZM125.531 168.704C127.515 168.704 129.375 169.014 131.049 169.634C132.723 170.254 134.149 171.246 135.389 172.486C136.629 173.726 137.559 175.214 138.241 177.012C138.923 178.81 139.295 180.794 139.295 183.088C139.295 183.646 139.233 184.204 139.171 184.576C139.109 184.948 139.047 185.258 138.923 185.444C138.799 185.692 138.613 185.816 138.365 185.94C138.117 186.064 137.869 186.064 137.497 186.064H117.843C118.091 189.35 118.959 191.706 120.509 193.256C122.059 194.806 124.043 195.55 126.585 195.55C127.825 195.55 128.879 195.426 129.747 195.116C130.677 194.806 131.421 194.496 132.103 194.124C132.785 193.752 133.405 193.504 133.901 193.194C134.397 192.884 134.831 192.76 135.327 192.76C135.637 192.76 135.947 192.822 136.195 192.946C136.443 193.07 136.567 193.194 136.753 193.442L138.985 196.232C138.117 197.224 137.187 198.092 136.133 198.774C135.079 199.456 133.963 200.014 132.847 200.386C131.669 200.758 130.491 201.006 129.313 201.192C128.135 201.378 126.957 201.44 125.841 201.44C123.609 201.44 121.625 201.13 119.703 200.386C117.781 199.642 116.169 198.526 114.743 197.1C113.317 195.674 112.201 193.876 111.395 191.768C110.589 189.66 110.217 187.18 110.217 184.39C110.217 182.22 110.589 180.236 111.271 178.314C111.953 176.392 113.007 174.718 114.309 173.292C115.611 171.866 117.223 170.75 119.083 169.944C120.943 169.138 123.175 168.704 125.531 168.704ZM125.655 174.16C123.423 174.16 121.687 174.842 120.447 176.082C119.207 177.322 118.401 179.12 118.029 181.414H132.413C132.413 180.422 132.227 179.492 131.979 178.624C131.731 177.756 131.297 177.012 130.739 176.33C130.181 175.648 129.499 175.152 128.631 174.78C127.763 174.408 126.771 174.16 125.655 174.16ZM183.999 156.18H188.649V159.838C188.649 160.892 188.153 161.512 187.099 161.76C187.037 161.76 186.913 161.822 186.727 161.822C186.541 161.822 186.231 161.946 185.797 162.008C185.363 162.07 184.743 162.194 183.999 162.318V201.006H179.659C178.977 201.006 178.481 200.882 178.047 200.696C177.613 200.51 177.179 200.138 176.745 199.58L153.309 169.758C153.371 170.44 153.433 171.06 153.433 171.68C153.433 172.3 153.495 172.92 153.495 173.478V194.868C156.099 195.24 157.401 195.426 157.525 195.426C158.579 195.674 159.075 196.294 159.075 197.348V201.006H153.495H146.179H141.467V197.348C141.467 196.294 141.963 195.674 143.017 195.426C143.079 195.426 143.203 195.426 143.389 195.364C143.575 195.302 143.885 195.24 144.319 195.178C144.753 195.116 145.435 194.992 146.179 194.868V162.318C145.435 162.194 144.753 162.07 144.319 162.008C143.885 161.946 143.575 161.822 143.389 161.822C143.203 161.822 143.079 161.76 143.017 161.76C141.963 161.512 141.467 160.892 141.467 159.838V156.18H146.179H150.519C150.891 156.18 151.201 156.242 151.449 156.242C151.697 156.242 151.945 156.304 152.131 156.428C152.317 156.49 152.503 156.614 152.689 156.8C152.875 156.986 153.061 157.234 153.309 157.544L176.869 187.49C176.807 186.746 176.745 186.064 176.683 185.382C176.621 184.7 176.621 184.018 176.621 183.398V162.318C174.017 161.946 172.715 161.76 172.591 161.76C171.537 161.512 171.041 160.892 171.041 159.838V156.18H176.621H183.999ZM206.312 168.704C208.668 168.704 210.838 169.138 212.76 169.882C214.682 170.626 216.356 171.68 217.72 173.106C219.084 174.532 220.076 176.206 220.82 178.252C221.564 180.298 221.936 182.53 221.936 185.01C221.936 187.552 221.564 189.784 220.82 191.83C220.076 193.876 219.084 195.612 217.72 197.038C216.356 198.464 214.682 199.58 212.76 200.324C210.838 201.068 208.668 201.44 206.312 201.44C203.956 201.44 201.724 201.068 199.802 200.324C197.88 199.58 196.206 198.464 194.842 197.038C193.478 195.612 192.362 193.876 191.618 191.83C190.874 189.784 190.502 187.552 190.502 185.01C190.502 182.53 190.874 180.298 191.618 178.252C192.362 176.206 193.478 174.532 194.842 173.106C196.206 171.68 197.88 170.626 199.802 169.882C201.724 169.138 203.956 168.704 206.312 168.704ZM206.312 195.55C208.978 195.55 210.9 194.682 212.14 192.884C213.38 191.086 214.062 188.482 214.062 185.072C214.062 181.662 213.38 179.058 212.14 177.26C210.9 175.462 208.978 174.532 206.312 174.532C203.646 174.532 201.662 175.462 200.36 177.26C199.058 179.058 198.376 181.724 198.376 185.134C198.376 188.544 199.058 191.086 200.36 192.884C201.662 194.682 203.646 195.55 206.312 195.55ZM245.192 168.642C246.742 168.642 248.044 168.952 249.098 169.696L248.106 175.462C248.044 175.834 247.92 176.082 247.734 176.206C247.548 176.33 247.238 176.454 246.866 176.454C246.556 176.454 246.184 176.392 245.626 176.268C245.068 176.144 244.324 176.02 243.456 176.02C241.844 176.02 240.48 176.454 239.364 177.322C238.248 178.19 237.318 179.554 236.512 181.228V194.868C239.178 195.364 239.116 195.364 239.612 195.426C240.666 195.674 241.162 196.294 241.162 197.348V201.006H236.512H228.824H224.174V197.348C224.174 196.294 224.67 195.674 225.724 195.426C226.22 195.364 226.158 195.364 228.824 194.868V175.338C226.158 174.842 226.22 174.842 225.724 174.78C224.67 174.532 224.174 173.912 224.174 172.858V169.2H228.824H233.35C234.156 169.2 234.652 169.324 234.962 169.634C235.272 169.944 235.458 170.44 235.582 171.122L236.078 174.966C237.194 172.982 238.496 171.432 240.046 170.316C241.596 169.2 243.27 168.642 245.192 168.642ZM264.074 201.502C261.346 201.502 259.176 200.696 257.688 199.146C256.2 197.596 255.456 195.426 255.456 192.698V174.966H252.232C251.798 174.966 251.488 174.78 251.178 174.532C250.868 174.284 250.682 173.912 250.682 173.354V170.254L255.828 169.448L257.44 160.768C257.502 160.334 257.688 160.086 257.998 159.838C258.308 159.59 258.742 159.466 259.176 159.466H263.144V169.51H271.514V174.966H263.144V192.202C263.144 193.194 263.392 193.938 263.888 194.496C264.384 195.054 265.066 195.302 265.871 195.302C266.368 195.302 266.74 195.302 267.05 195.178C267.36 195.054 267.608 194.93 267.856 194.806C268.104 194.682 268.352 194.558 268.538 194.434C268.724 194.31 268.848 194.31 269.034 194.31C269.282 194.31 269.53 194.31 269.654 194.434C269.778 194.558 269.902 194.682 270.088 194.93L272.382 198.65C271.266 199.58 269.964 200.262 268.538 200.758C267.112 201.254 265.624 201.502 264.074 201.502ZM289.743 195.426C290.797 195.674 291.293 196.294 291.293 197.348V201.006H286.581H278.955H274.243V197.348C274.243 196.294 274.739 195.674 275.793 195.426C275.855 195.426 275.979 195.364 276.165 195.364C276.351 195.302 276.661 195.24 277.095 195.178C277.529 195.116 278.211 194.992 278.955 194.868V175.338C278.211 175.214 277.529 175.09 277.095 175.028C276.661 174.966 276.351 174.842 276.165 174.842C275.979 174.842 275.855 174.78 275.793 174.78C274.739 174.532 274.243 173.912 274.243 172.858V169.2H278.955H286.581V194.868C287.325 194.992 288.007 195.116 288.441 195.178C288.875 195.24 289.185 195.364 289.371 195.364C289.557 195.364 289.681 195.426 289.743 195.426ZM287.759 159.9C287.759 160.582 287.573 161.202 287.325 161.76C287.077 162.318 286.705 162.876 286.271 163.31C285.837 163.744 285.341 164.116 284.721 164.364C284.101 164.612 283.481 164.736 282.799 164.736C282.117 164.736 281.497 164.612 280.877 164.364C280.257 164.116 279.823 163.744 279.389 163.31C278.955 162.876 278.583 162.318 278.335 161.76C278.087 161.202 277.963 160.582 277.963 159.9C277.963 159.218 278.087 158.598 278.335 157.978C278.583 157.358 278.955 156.862 279.389 156.428C279.823 155.994 280.257 155.684 280.877 155.436C281.497 155.188 282.117 155.002 282.799 155.002C283.481 155.002 284.101 155.188 284.721 155.436C285.341 155.684 285.837 155.994 286.271 156.428C286.705 156.862 287.077 157.358 287.325 157.978C287.573 158.598 287.759 159.218 287.759 159.9ZM315.756 187.614C316.19 188.544 316.438 189.598 316.438 190.9C316.438 192.45 316.128 193.876 315.57 195.178C315.012 196.48 314.206 197.596 313.152 198.526C312.098 199.456 310.796 200.2 309.184 200.696C307.634 201.254 305.774 201.502 303.728 201.502C299.76 201.502 295.916 200.634 293.622 199.766V196.666V190.776H293.932H294.676H297.218C298.024 190.776 298.458 191.21 298.644 191.954C298.706 192.264 298.83 193.132 299.078 195.612C300.752 196.108 302.736 196.108 304.1 196.108C305.03 196.108 305.836 195.984 306.456 195.798C307.138 195.55 307.634 195.302 308.068 194.93C308.502 194.558 308.812 194.248 308.998 193.752C309.184 193.256 309.246 192.76 309.246 192.264C309.246 191.52 309.06 190.962 308.626 190.466C308.192 189.97 307.572 189.598 306.828 189.226C306.084 188.854 305.278 188.544 304.348 188.296C303.418 187.986 302.426 187.676 301.434 187.366C300.442 187.056 299.512 186.622 298.582 186.188C297.652 185.754 296.784 185.196 296.04 184.514C295.296 183.832 294.738 183.026 294.304 182.034C293.87 181.042 293.622 179.864 293.622 178.438C293.622 177.136 293.87 175.896 294.366 174.718C294.862 173.54 295.668 172.486 296.66 171.618C297.652 170.75 298.954 170.006 300.442 169.51C301.93 169.014 303.604 168.704 305.588 168.704C308.688 168.704 310.424 169.014 314.888 170.378H314.826V179.368H314.578H313.834H311.292C310.486 179.368 310.052 178.934 309.866 178.19C309.804 177.88 309.68 177.136 309.432 174.718C308.626 174.47 307.138 174.284 305.712 174.284C304.224 174.284 303.046 174.594 302.178 175.214C301.31 175.834 300.876 176.702 300.876 177.756C300.876 178.438 301.124 178.996 301.558 179.492C301.992 179.988 302.55 180.298 303.294 180.67C304.038 181.042 304.844 181.414 305.774 181.662C306.704 181.91 307.634 182.22 308.626 182.53C309.618 182.84 310.61 183.274 311.54 183.708C312.47 184.142 313.276 184.638 314.02 185.32C314.764 185.94 315.322 186.684 315.756 187.614ZM349.037 161.76C348.975 161.76 348.851 161.822 348.665 161.822C348.479 161.822 348.169 161.946 347.735 162.008C347.301 162.07 346.681 162.194 345.937 162.318V194.868C346.681 194.992 347.301 195.116 347.735 195.178C348.169 195.24 348.479 195.364 348.665 195.364C348.851 195.364 348.975 195.426 349.037 195.426C350.091 195.674 350.587 196.294 350.587 197.348V201.006H345.937H337.567H332.855V197.348C332.855 196.294 333.351 195.674 334.405 195.426C334.467 195.426 334.591 195.364 334.777 195.364C334.963 195.302 335.273 195.24 335.707 195.178C336.141 195.116 336.823 194.992 337.567 194.868V162.318C336.823 162.194 336.141 162.07 335.707 162.008C335.273 161.946 334.963 161.822 334.777 161.822C334.591 161.76 334.467 161.76 334.405 161.76C333.351 161.512 332.855 160.892 332.855 159.838V156.18H337.567H345.937H350.587V159.838C350.587 160.892 350.091 161.512 349.037 161.76ZM388.604 195.426C389.658 195.674 390.154 196.294 390.154 197.348V201.006H385.442H377.816V180.794C377.816 178.872 377.32 177.322 376.452 176.268C375.584 175.214 374.22 174.656 372.422 174.656C371.12 174.656 369.88 174.966 368.702 175.586C367.524 176.206 366.47 176.95 365.416 178.004V194.868C366.16 194.992 366.78 195.116 367.214 195.178C367.648 195.24 367.958 195.302 368.144 195.364C368.33 195.426 368.454 195.426 368.516 195.426C369.57 195.674 370.066 196.294 370.066 197.348V201.006H365.416H357.728H353.078V197.348C353.078 196.294 353.574 195.674 354.628 195.426C354.69 195.426 354.814 195.364 355 195.364C355.186 195.302 355.496 195.24 355.93 195.178C356.364 195.116 356.984 194.992 357.728 194.868V175.338C356.984 175.214 356.364 175.09 355.93 175.028C355.496 174.966 355.186 174.842 355 174.842C354.814 174.78 354.69 174.78 354.628 174.78C353.574 174.532 353.078 173.912 353.078 172.858V169.2H357.728H362.44C363.432 169.2 364.052 169.696 364.362 170.626L364.92 173.106C365.54 172.424 366.16 171.866 366.904 171.308C367.586 170.75 368.392 170.316 369.198 169.944C370.004 169.572 370.81 169.2 371.74 169.014C372.67 168.828 373.662 168.704 374.716 168.704C376.452 168.704 378.002 168.952 379.366 169.572C380.73 170.13 381.784 170.998 382.714 172.052C383.582 173.106 384.264 174.408 384.76 175.896C385.256 177.384 385.442 178.996 385.442 180.794V194.868C386.186 194.992 386.868 195.116 387.302 195.178C387.736 195.24 388.046 195.364 388.232 195.364C388.418 195.364 388.542 195.426 388.604 195.426ZM404.894 164.426C404.646 165.232 404.46 166.162 404.46 167.34V169.448H412.768V174.904H404.77V194.868C405.514 194.992 406.134 195.116 406.63 195.178C407.126 195.24 407.498 195.364 407.746 195.364C407.994 195.364 408.18 195.426 408.242 195.426C409.296 195.674 409.792 196.294 409.792 197.348V201.006H404.77H404.708H397.082H392.37V197.348C392.37 196.294 392.866 195.674 393.92 195.426C393.982 195.426 394.168 195.426 394.354 195.364C394.54 195.302 394.85 195.24 395.284 195.178C395.718 195.116 396.338 194.992 397.082 194.868V174.966L394.354 174.532C393.734 174.408 393.238 174.222 392.866 173.912C392.494 173.602 392.37 173.168 392.37 172.61V169.51H397.082V167.154C397.082 165.356 397.33 163.682 397.888 162.256C398.446 160.83 399.19 159.528 400.244 158.536C401.298 157.544 402.476 156.8 403.964 156.242C405.452 155.684 407.064 155.436 408.924 155.436C410.412 155.436 411.776 155.622 413.016 155.994L412.892 159.838C412.83 160.458 412.52 160.83 412.024 160.954C411.528 161.078 410.908 161.202 410.226 161.202C409.296 161.202 408.49 161.264 407.808 161.45C407.126 161.636 406.506 162.008 406.01 162.504C405.514 163 405.142 163.62 404.894 164.426ZM430.82 168.704C433.176 168.704 435.346 169.138 437.268 169.882C439.19 170.626 440.864 171.68 442.228 173.106C443.592 174.532 444.584 176.206 445.328 178.252C446.072 180.298 446.444 182.53 446.444 185.01C446.444 187.552 446.072 189.784 445.328 191.83C444.584 193.876 443.592 195.612 442.228 197.038C440.864 198.464 439.19 199.58 437.268 200.324C435.346 201.068 433.176 201.44 430.82 201.44C428.464 201.44 426.232 201.068 424.31 200.324C422.388 199.58 420.714 198.464 419.35 197.038C417.986 195.612 416.87 193.876 416.126 191.83C415.382 189.784 415.01 187.552 415.01 185.01C415.01 182.53 415.382 180.298 416.126 178.252C416.87 176.206 417.986 174.532 419.35 173.106C420.714 171.68 422.388 170.626 424.31 169.882C426.232 169.138 428.464 168.704 430.82 168.704ZM430.82 195.55C433.486 195.55 435.408 194.682 436.648 192.884C437.888 191.086 438.57 188.482 438.57 185.072C438.57 181.662 437.888 179.058 436.648 177.26C435.408 175.462 433.486 174.532 430.82 174.532C428.154 174.532 426.17 175.462 424.868 177.26C423.566 179.058 422.884 181.724 422.884 185.134C422.884 188.544 423.566 191.086 424.868 192.884C426.17 194.682 428.154 195.55 430.82 195.55ZM461.577 201.502C458.849 201.502 456.679 200.696 455.191 199.146C453.703 197.596 452.959 195.426 452.959 192.698V174.966H449.735C449.301 174.966 448.991 174.78 448.681 174.532C448.371 174.284 448.185 173.912 448.185 173.354V170.254L453.331 169.448L454.943 160.768C455.005 160.334 455.191 160.086 455.501 159.838C455.811 159.59 456.245 159.466 456.679 159.466H460.647V169.51H469.017V174.966H460.647V192.202C460.647 193.194 460.895 193.938 461.391 194.496C461.887 195.054 462.569 195.302 463.375 195.302C463.871 195.302 464.243 195.302 464.553 195.178C464.863 195.054 465.111 194.93 465.359 194.806C465.607 194.682 465.855 194.558 466.041 194.434C466.227 194.31 466.351 194.31 466.537 194.31C466.785 194.31 467.033 194.31 467.157 194.434C467.281 194.558 467.405 194.682 467.591 194.93L469.885 198.65C468.769 199.58 467.467 200.262 466.041 200.758C464.615 201.254 463.127 201.502 461.577 201.502ZM487.965 168.704C489.949 168.704 491.809 169.014 493.483 169.634C495.157 170.254 496.583 171.246 497.823 172.486C499.063 173.726 499.993 175.214 500.675 177.012C501.357 178.81 501.729 180.794 501.729 183.088C501.729 183.646 501.667 184.204 501.605 184.576C501.543 184.948 501.481 185.258 501.357 185.444C501.233 185.692 501.047 185.816 500.799 185.94C500.551 186.064 500.303 186.064 499.931 186.064H480.277C480.525 189.35 481.393 191.706 482.943 193.256C484.493 194.806 486.477 195.55 489.019 195.55C490.259 195.55 491.313 195.426 492.181 195.116C493.111 194.806 493.855 194.496 494.537 194.124C495.219 193.752 495.839 193.504 496.335 193.194C496.831 192.884 497.265 192.76 497.761 192.76C498.071 192.76 498.381 192.822 498.629 192.946C498.877 193.07 499.001 193.194 499.187 193.442L501.419 196.232C500.551 197.224 499.621 198.092 498.567 198.774C497.513 199.456 496.397 200.014 495.281 200.386C494.103 200.758 492.925 201.006 491.747 201.192C490.569 201.378 489.391 201.44 488.275 201.44C486.043 201.44 484.059 201.13 482.137 200.386C480.215 199.642 478.603 198.526 477.177 197.1C475.751 195.674 474.635 193.876 473.829 191.768C473.023 189.66 472.651 187.18 472.651 184.39C472.651 182.22 473.023 180.236 473.705 178.314C474.387 176.392 475.441 174.718 476.743 173.292C478.045 171.866 479.657 170.75 481.517 169.944C483.377 169.138 485.609 168.704 487.965 168.704ZM488.089 174.16C485.857 174.16 484.121 174.842 482.881 176.082C481.641 177.322 480.835 179.12 480.463 181.414H494.847C494.847 180.422 494.661 179.492 494.413 178.624C494.165 177.756 493.731 177.012 493.173 176.33C492.615 175.648 491.933 175.152 491.065 174.78C490.197 174.408 489.205 174.16 488.089 174.16ZM529.294 193.442L531.464 196.232C530.596 197.224 529.728 198.092 528.736 198.774C527.744 199.456 526.69 199.952 525.636 200.386C524.582 200.758 523.466 201.006 522.35 201.192C521.234 201.378 520.056 201.44 518.94 201.44C516.956 201.44 515.158 201.13 513.422 200.386C511.686 199.642 510.198 198.588 508.896 197.162C507.594 195.736 506.54 194.062 505.796 192.016C505.052 189.97 504.68 187.614 504.68 185.01C504.68 182.654 504.99 180.546 505.672 178.562C506.354 176.578 507.346 174.842 508.648 173.354C509.95 171.866 511.562 170.75 513.484 169.944C515.406 169.138 517.638 168.704 520.118 168.704C522.722 168.704 526.07 169.448 530.162 170.998L530.1 180.794H529.852H529.108H526.566C525.76 180.794 525.326 180.36 525.14 179.616C525.078 179.12 524.892 177.632 524.644 175.152C523.032 174.718 521.606 174.532 520.552 174.532C519.188 174.532 518.01 174.78 517.018 175.276C516.026 175.772 515.22 176.392 514.538 177.322C513.856 178.252 513.298 179.368 512.988 180.67C512.678 181.972 512.492 183.398 512.492 185.01C512.492 186.684 512.678 188.234 513.05 189.536C513.422 190.838 513.918 191.954 514.6 192.884C515.282 193.752 516.088 194.434 517.08 194.93C518.072 195.364 519.126 195.612 520.366 195.612C521.606 195.612 522.598 195.488 523.342 195.178C524.086 194.868 524.768 194.558 525.264 194.186C525.76 193.814 526.256 193.504 526.628 193.194C527 192.884 527.372 192.76 527.868 192.76C528.488 192.76 528.984 192.946 529.294 193.442ZM568.911 195.426C569.965 195.674 570.461 196.294 570.461 197.348V201.006H565.811H558.123V180.794C558.123 178.872 557.689 177.322 556.759 176.268C555.891 175.214 554.527 174.656 552.729 174.656C551.427 174.656 550.187 174.966 549.009 175.586C547.831 176.206 546.777 176.95 545.723 178.004V194.868C546.467 194.992 547.149 195.116 547.583 195.178C548.017 195.24 548.327 195.364 548.513 195.364C548.699 195.426 548.823 195.426 548.885 195.426C549.939 195.674 550.435 196.294 550.435 197.348V201.006H545.723H538.097H533.385V197.348C533.385 196.294 533.881 195.674 534.935 195.426C534.997 195.426 535.121 195.364 535.307 195.364C535.493 195.364 535.803 195.24 536.237 195.178C536.671 195.116 537.353 194.992 538.097 194.868V161.078C537.353 160.954 536.671 160.83 536.237 160.768C535.803 160.706 535.493 160.582 535.307 160.582C535.121 160.582 534.997 160.52 534.935 160.52C533.881 160.272 533.385 159.652 533.385 158.598V154.94H538.097H545.723V172.672C546.963 171.494 548.327 170.564 549.815 169.82C551.303 169.076 553.101 168.704 555.085 168.704C556.821 168.704 558.309 169.014 559.673 169.572C561.037 170.13 562.091 170.998 563.021 172.052C563.889 173.106 564.571 174.408 565.067 175.896C565.501 177.384 565.811 178.934 565.811 180.732V194.868C566.555 194.992 567.175 195.116 567.609 195.178C568.043 195.24 568.353 195.302 568.539 195.364C568.725 195.426 568.849 195.426 568.911 195.426Z" fill="#262626"/>
<path d="M17.1587 242.055V247.047H16.4388H16.1509H3.41698H1.11336V245.655C1.11336 245.367 1.30533 245.127 1.59328 245.063C1.86523 245.015 3.41698 244.711 3.41698 244.711V226.442C3.41698 226.442 1.86523 226.138 1.59328 226.09C1.30533 226.026 1.11336 225.786 1.11336 225.498V224.122H3.41698H6.52047H8.82409V225.498C8.82409 225.786 8.61612 226.026 8.32817 226.09C8.05621 226.138 6.56846 226.442 6.52047 226.442V244.423H14.7911C14.8551 243.511 14.9351 242.727 14.9511 242.599C15.0151 242.279 15.303 242.055 15.623 242.055H17.1587ZM30.1401 230.569C31.0999 230.585 31.9958 230.745 32.8276 231.065C33.6435 231.385 34.3474 231.865 34.9553 232.473C35.5472 233.081 36.0111 233.849 36.347 234.745C36.683 235.64 36.859 236.664 36.859 237.816C36.859 238.264 36.811 238.568 36.715 238.712C36.619 238.872 36.427 238.936 36.1711 238.936H25.3889C25.4049 239.96 25.5488 240.856 25.8048 241.607C26.0607 242.375 26.4127 242.999 26.8606 243.511C27.3085 244.023 27.8364 244.391 28.4603 244.647C29.0682 244.903 29.7721 245.015 30.54 245.015C31.2439 245.015 31.8678 244.935 32.3797 244.775C32.8916 244.615 33.3395 244.423 33.7235 244.231C34.0914 244.039 34.3954 243.863 34.6513 243.703C34.9073 243.543 35.1152 243.447 35.3072 243.447C35.5312 243.447 35.7231 243.543 35.8511 243.719L36.651 244.759C36.2991 245.191 35.8671 245.559 35.3872 245.879C34.8913 246.199 34.3634 246.455 33.8035 246.647C33.2436 246.855 32.6677 247.015 32.0758 247.111C31.4679 247.206 30.8759 247.254 30.3 247.254C29.1802 247.254 28.1404 247.079 27.1966 246.695C26.2527 246.311 25.4368 245.767 24.749 245.031C24.0611 244.295 23.5332 243.399 23.1492 242.311C22.7653 241.239 22.5733 240.008 22.5733 238.6C22.5733 237.48 22.7333 236.424 23.0852 235.432C23.4372 234.457 23.9331 233.609 24.589 232.889C25.2289 232.169 26.0287 231.609 26.9726 231.193C27.9004 230.777 28.9563 230.569 30.1401 230.569ZM30.2041 232.665C28.8283 232.665 27.7405 233.065 26.9566 233.865C26.1567 234.665 25.6768 235.752 25.4848 237.16H34.2994C34.2994 236.504 34.2034 235.896 34.0274 235.352C33.8355 234.809 33.5795 234.329 33.2276 233.929C32.8756 233.529 32.4437 233.225 31.9318 233.001C31.4199 232.777 30.844 232.665 30.2041 232.665ZM56.8777 245.031C57.1656 245.095 57.3576 245.335 57.3576 245.623V246.999H55.2939H55.054H54.0301C53.7582 246.999 53.5342 246.967 53.3582 246.871C53.1823 246.791 53.0703 246.615 53.0223 246.327L52.7023 244.823C52.2704 245.207 51.8545 245.559 51.4546 245.863C51.0546 246.167 50.6227 246.423 50.1748 246.631C49.7268 246.839 49.2469 246.999 48.751 247.095C48.2391 247.206 47.6792 247.27 47.0553 247.27C46.4314 247.27 45.8395 247.174 45.2956 246.999C44.7357 246.823 44.2717 246.551 43.8558 246.199C43.4559 245.847 43.1359 245.399 42.896 244.855C42.656 244.327 42.528 243.687 42.528 242.951C42.528 242.295 42.704 241.687 43.0559 241.095C43.4079 240.504 43.9838 239.976 44.7677 239.512C45.5515 239.048 46.5754 238.68 47.8392 238.376C49.1189 238.088 50.6707 237.928 52.4944 237.928V236.664C52.4944 235.4 52.2224 234.441 51.6945 233.785C51.1506 233.145 50.3507 232.809 49.2949 232.809C48.607 232.809 48.0151 232.905 47.5512 233.081C47.0713 233.257 46.6553 233.449 46.3194 233.673C45.9675 233.897 45.6635 234.089 45.4235 234.265C45.1676 234.441 44.9116 234.537 44.6717 234.537C44.4797 234.537 44.3197 234.473 44.1758 234.377C44.0318 234.281 43.9198 234.153 43.8238 233.993L43.3119 233.097C44.2078 232.217 45.1676 231.577 46.2074 231.161C47.2472 230.729 48.3991 230.505 49.6469 230.505C50.5587 230.505 51.3586 230.665 52.0625 230.969C52.7663 231.257 53.3582 231.673 53.8382 232.217C54.3181 232.745 54.686 233.385 54.926 234.153C55.1659 234.905 55.2939 235.736 55.2939 236.632V244.727C55.7418 244.807 56.6697 244.999 56.8777 245.031ZM52.4944 243.095V239.752C51.1826 239.752 50.0628 239.832 49.1509 239.992C48.2391 240.168 47.4872 240.376 46.9113 240.648C46.3354 240.92 45.9195 241.223 45.6635 241.591C45.3916 241.959 45.2636 242.359 45.2636 242.823C45.2636 243.239 45.3276 243.623 45.4715 243.927C45.6155 244.231 45.7915 244.487 46.0314 244.695C46.2714 244.887 46.5434 245.031 46.8633 245.127C47.1833 245.223 47.5352 245.271 47.9031 245.271C48.3991 245.271 48.863 245.207 49.2789 245.111C49.6948 245.015 50.0948 244.871 50.4627 244.679C50.8307 244.487 51.1826 244.263 51.5185 244.007C51.8545 243.735 52.1744 243.431 52.4944 243.095ZM70.113 230.537C71.9047 230.537 73.3764 231.177 74.5442 232.457V225.802C73.4564 225.642 72.7365 225.514 72.4166 225.45C72.0807 225.386 71.9207 225.178 71.9207 224.842V223.466H77.3918V244.695C78.4156 244.903 79.0235 245.031 79.2155 245.063C79.5354 245.127 79.6954 245.335 79.6954 245.655V247.031H75.6961C75.2801 247.031 75.0242 246.839 74.9282 246.439L74.6722 244.471C73.1365 246.327 71.3288 247.254 69.2331 247.254C67.3294 247.254 65.8417 246.551 64.7699 245.143C63.65 243.703 63.1061 241.655 63.1061 238.984C63.1061 236.536 63.73 234.537 64.9778 232.969C66.2576 231.353 67.9693 230.537 70.113 230.537ZM70.177 244.951C71.8567 244.951 73.3124 244.135 74.5282 242.503V234.665C73.6004 233.401 72.3526 232.761 70.8009 232.761C69.2491 232.761 68.0653 233.305 67.2654 234.377C66.4496 235.464 66.0496 237 66.0496 238.984C66.0496 242.055 66.8335 243.927 68.4173 244.615C68.9292 244.839 69.5051 244.951 70.177 244.951ZM87.9325 227.162C87.7566 226.97 87.5966 226.762 87.5006 226.522C87.3886 226.282 87.3406 226.026 87.3406 225.754C87.3406 225.466 87.3886 225.21 87.5006 224.954C87.5966 224.698 87.7566 224.49 87.9325 224.298C88.1245 224.106 88.3325 223.962 88.5724 223.866C88.8124 223.754 89.0684 223.706 89.3563 223.706C89.6283 223.706 89.8842 223.754 90.1402 223.866C90.3801 223.962 90.6041 224.106 90.7801 224.298C90.972 224.49 91.116 224.698 91.228 224.954C91.34 225.21 91.404 225.466 91.404 225.754C91.404 226.026 91.34 226.282 91.228 226.522C91.116 226.762 90.972 226.97 90.7801 227.162C90.6041 227.354 90.3801 227.498 90.1402 227.61C89.8842 227.706 89.6283 227.77 89.3563 227.77C89.0684 227.77 88.8124 227.706 88.5724 227.61C88.3325 227.498 88.1245 227.354 87.9325 227.162ZM92.5878 245.063C92.8597 245.127 93.0677 245.367 93.0677 245.655V247.031H85.6129V245.655C85.6129 245.367 85.8049 245.127 86.0928 245.063C86.3648 245.015 87.9165 244.711 87.9165 244.711V233.161C87.9165 233.161 86.3648 232.857 86.0928 232.809C85.8049 232.745 85.6129 232.505 85.6129 232.217V230.841H90.7641V244.711C90.7641 244.711 92.2998 245.015 92.5878 245.063ZM104.076 233.177C105.644 231.449 107.435 230.569 109.451 230.569C111.195 230.569 112.538 231.145 113.498 232.265C114.41 233.353 114.874 234.841 114.874 236.712V244.695C115.898 244.903 116.506 245.031 116.698 245.063C117.018 245.127 117.194 245.335 117.194 245.655V247.031H112.027V236.712C112.027 234.137 110.891 232.841 108.619 232.841C107.035 232.841 105.58 233.593 104.236 235.096V244.695C104.3 244.711 104.908 244.839 106.06 245.063C106.379 245.127 106.555 245.335 106.555 245.655V247.031H99.0847V245.655C99.0847 245.335 99.2447 245.127 99.5646 245.063L101.388 244.695V233.161C100.364 232.969 99.7566 232.841 99.5646 232.793C99.2447 232.729 99.0847 232.537 99.0847 232.201V230.825H101.388H103.084C103.484 230.825 103.74 231.033 103.852 231.417L104.076 233.177ZM129.591 230.553C130.295 230.569 130.951 230.633 131.559 230.793C132.166 230.953 132.726 231.177 133.238 231.465H137.638V232.521C137.638 232.873 137.414 233.097 136.966 233.193L135.126 233.449C135.478 234.153 135.67 234.921 135.67 235.768C135.67 236.568 135.51 237.288 135.206 237.928C134.902 238.568 134.486 239.128 133.942 239.576C133.398 240.04 132.758 240.392 132.023 240.632C131.287 240.888 130.471 241 129.591 241C128.823 241 128.119 240.92 127.447 240.728C127.095 240.952 126.839 241.175 126.663 241.415C126.487 241.671 126.407 241.911 126.407 242.135C126.407 242.519 126.551 242.823 126.871 243.015C127.175 243.207 127.591 243.351 128.103 243.431C128.615 243.527 129.191 243.575 129.847 243.591C130.487 243.623 131.159 243.655 131.831 243.703C132.502 243.751 133.174 243.831 133.83 243.943C134.47 244.071 135.062 244.263 135.574 244.519C136.086 244.791 136.486 245.159 136.806 245.623C137.11 246.103 137.27 246.711 137.27 247.446C137.27 248.15 137.094 248.822 136.742 249.462C136.39 250.118 135.894 250.694 135.254 251.206C134.598 251.718 133.798 252.118 132.87 252.422C131.927 252.726 130.871 252.87 129.687 252.87C128.503 252.87 127.463 252.758 126.567 252.518C125.672 252.294 124.936 251.974 124.36 251.574C123.768 251.19 123.32 250.726 123.032 250.214C122.744 249.702 122.6 249.158 122.6 248.582C122.6 247.782 122.84 247.111 123.352 246.551C123.864 245.991 124.552 245.543 125.448 245.207C124.984 244.999 124.616 244.711 124.344 244.359C124.072 244.007 123.944 243.527 123.944 242.919C123.944 242.695 123.976 242.455 124.072 242.199C124.152 241.943 124.28 241.703 124.456 241.447C124.632 241.207 124.856 240.968 125.112 240.744C125.368 240.52 125.656 240.328 126.008 240.152C125.208 239.704 124.568 239.112 124.12 238.376C123.672 237.64 123.448 236.76 123.448 235.768C123.448 234.985 123.592 234.265 123.896 233.625C124.2 232.985 124.632 232.425 125.176 231.977C125.72 231.529 126.359 231.177 127.111 230.921C127.863 230.681 128.695 230.553 129.591 230.553ZM134.646 247.91C134.646 247.51 134.534 247.19 134.31 246.935C134.086 246.695 133.782 246.503 133.398 246.375C133.014 246.247 132.566 246.135 132.071 246.071C131.559 246.007 131.031 245.975 130.487 245.943C129.927 245.911 129.367 245.879 128.791 245.847C128.215 245.815 127.655 245.767 127.143 245.671C126.535 245.959 126.04 246.311 125.656 246.727C125.272 247.142 125.096 247.638 125.096 248.214C125.096 248.582 125.176 248.918 125.368 249.238C125.56 249.558 125.848 249.83 126.231 250.054C126.615 250.278 127.095 250.47 127.671 250.598C128.247 250.726 128.935 250.79 129.735 250.79C130.503 250.79 131.191 250.726 131.799 250.582C132.406 250.454 132.918 250.246 133.334 249.99C133.75 249.734 134.086 249.43 134.31 249.078C134.534 248.726 134.646 248.342 134.646 247.91ZM129.591 239.112C130.167 239.112 130.663 239.032 131.111 238.872C131.559 238.712 131.927 238.488 132.23 238.2C132.518 237.912 132.742 237.576 132.902 237.176C133.046 236.776 133.126 236.328 133.126 235.848C133.126 234.857 132.822 234.073 132.214 233.481C131.607 232.905 130.743 232.601 129.591 232.601C128.439 232.601 127.575 232.905 126.967 233.481C126.359 234.073 126.071 234.857 126.071 235.848C126.071 236.328 126.135 236.776 126.295 237.176C126.455 237.576 126.679 237.912 126.983 238.2C127.271 238.488 127.639 238.712 128.087 238.872C128.519 239.032 129.015 239.112 129.591 239.112ZM172.678 224.106L173.109 224.122V229.193H171.558C171.174 229.193 170.966 229.081 170.934 228.858C170.886 228.634 170.79 227.914 170.662 226.73H165.271V244.711C165.271 244.711 165.415 244.727 165.671 244.791C166.487 244.951 167.014 245.047 167.238 245.095C167.462 245.143 167.59 245.335 167.59 245.671V247.047H159.864V245.671C159.864 245.335 160.04 245.127 160.392 245.063C160.744 244.983 161.335 244.871 162.167 244.711V226.73H156.76C156.6 227.93 156.504 228.634 156.472 228.858C156.424 229.081 156.216 229.193 155.864 229.177H154.313V224.106H171.574H172.678ZM184.145 233.001C185.664 231.385 187.408 230.569 189.36 230.569C191.104 230.569 192.447 231.129 193.391 232.249C194.319 233.353 194.783 234.841 194.783 236.712V244.695C195.807 244.903 196.415 245.031 196.607 245.079C196.927 245.143 197.087 245.335 197.087 245.671V247.047H191.935V236.728C191.935 234.137 190.8 232.857 188.528 232.857C186.944 232.857 185.488 233.609 184.145 235.112V244.711L184.545 244.791C185.376 244.951 185.84 245.047 185.968 245.079C186.288 245.143 186.448 245.335 186.448 245.671V247.047H178.994V245.671C178.994 245.335 179.153 245.143 179.473 245.079L181.297 244.711V225.818C180.049 225.61 179.345 225.482 179.153 225.434C178.834 225.37 178.674 225.178 178.674 224.842V223.466H184.145V233.001ZM210.332 230.569C211.291 230.585 212.187 230.745 213.019 231.065C213.835 231.385 214.539 231.865 215.147 232.473C215.739 233.081 216.203 233.849 216.539 234.745C216.875 235.64 217.05 236.664 217.05 237.816C217.05 238.264 217.003 238.568 216.907 238.712C216.811 238.872 216.619 238.936 216.363 238.936H205.58C205.596 239.96 205.74 240.856 205.996 241.607C206.252 242.375 206.604 242.999 207.052 243.511C207.5 244.023 208.028 244.391 208.652 244.647C209.26 244.903 209.964 245.015 210.732 245.015C211.435 245.015 212.059 244.935 212.571 244.775C213.083 244.615 213.531 244.423 213.915 244.231C214.283 244.039 214.587 243.863 214.843 243.703C215.099 243.543 215.307 243.447 215.499 243.447C215.723 243.447 215.915 243.543 216.043 243.719L216.843 244.759C216.491 245.191 216.059 245.559 215.579 245.879C215.083 246.199 214.555 246.455 213.995 246.647C213.435 246.855 212.859 247.015 212.267 247.111C211.659 247.206 211.067 247.254 210.492 247.254C209.372 247.254 208.332 247.079 207.388 246.695C206.444 246.311 205.628 245.767 204.94 245.031C204.253 244.295 203.725 243.399 203.341 242.311C202.957 241.239 202.765 240.008 202.765 238.6C202.765 237.48 202.925 236.424 203.277 235.432C203.629 234.457 204.125 233.609 204.781 232.889C205.42 232.169 206.22 231.609 207.164 231.193C208.092 230.777 209.148 230.569 210.332 230.569ZM210.396 232.665C209.02 232.665 207.932 233.065 207.148 233.865C206.348 234.665 205.868 235.752 205.676 237.16H214.491C214.491 236.504 214.395 235.896 214.219 235.352C214.027 234.809 213.771 234.329 213.419 233.929C213.067 233.529 212.635 233.225 212.123 233.001C211.611 232.777 211.035 232.665 210.396 232.665ZM252.358 241.911C252.294 241.463 252.262 240.936 252.262 240.36V226.458C251.014 226.234 250.31 226.106 250.134 226.09C249.814 226.026 249.654 225.818 249.654 225.498V224.122H252.262H254.981H257.301V225.498C257.301 225.818 257.141 226.026 256.821 226.09L254.997 226.458V247.047H253.429C252.982 247.047 252.614 246.855 252.326 246.487L239.064 229.225C239.096 229.769 239.128 230.265 239.128 230.713V244.711C240.376 244.919 241.096 245.047 241.255 245.079C241.575 245.143 241.735 245.335 241.735 245.671V247.047H234.105V245.671C234.105 245.335 234.265 245.143 234.585 245.079L236.408 244.711V226.458C235.384 226.25 234.777 226.122 234.585 226.09C234.265 226.026 234.105 225.818 234.105 225.498V224.122H238.008C238.28 224.122 238.488 224.154 238.616 224.218C238.744 224.282 238.904 224.426 239.08 224.634L252.358 241.911ZM270.27 230.569C271.23 230.585 272.126 230.745 272.958 231.065C273.774 231.385 274.478 231.865 275.086 232.473C275.678 233.081 276.141 233.849 276.477 234.745C276.813 235.64 276.989 236.664 276.989 237.816C276.989 238.264 276.941 238.568 276.845 238.712C276.749 238.872 276.557 238.936 276.301 238.936H265.519C265.535 239.96 265.679 240.856 265.935 241.607C266.191 242.375 266.543 242.999 266.991 243.511C267.439 244.023 267.967 244.391 268.591 244.647C269.199 244.903 269.903 245.015 270.67 245.015C271.374 245.015 271.998 244.935 272.51 244.775C273.022 244.615 273.47 244.423 273.854 244.231C274.222 244.039 274.526 243.863 274.782 243.703C275.038 243.543 275.246 243.447 275.438 243.447C275.662 243.447 275.854 243.543 275.982 243.719L276.781 244.759C276.429 245.191 275.998 245.559 275.518 245.879C275.022 246.199 274.494 246.455 273.934 246.647C273.374 246.855 272.798 247.015 272.206 247.111C271.598 247.206 271.006 247.254 270.43 247.254C269.311 247.254 268.271 247.079 267.327 246.695C266.383 246.311 265.567 245.767 264.879 245.031C264.191 244.295 263.664 243.399 263.28 242.311C262.896 241.239 262.704 240.008 262.704 238.6C262.704 237.48 262.864 236.424 263.216 235.432C263.568 234.457 264.063 233.609 264.719 232.889C265.359 232.169 266.159 231.609 267.103 231.193C268.031 230.777 269.087 230.569 270.27 230.569ZM270.334 232.665C268.959 232.665 267.871 233.065 267.087 233.865C266.287 234.665 265.807 235.752 265.615 237.16H274.43C274.43 236.504 274.334 235.896 274.158 235.352C273.966 234.809 273.71 234.329 273.358 233.929C273.006 233.529 272.574 233.225 272.062 233.001C271.55 232.777 270.974 232.665 270.334 232.665ZM301.887 230.825H309.118V232.201C309.118 232.537 308.958 232.729 308.638 232.793C308.51 232.825 308.238 232.873 307.822 232.953C307.39 233.049 307.118 233.097 307.038 233.113L302.543 247.031H300.288C300 247.031 299.808 246.855 299.712 246.487L296.128 235.496C296.016 235.256 295.952 235.001 295.904 234.729C295.84 234.457 295.792 234.217 295.76 234.009C295.696 234.297 295.632 234.553 295.584 234.793C295.536 235.032 295.472 235.272 295.392 235.512L291.761 246.487C291.633 246.855 291.409 247.031 291.105 247.031H288.961L284.45 233.113C284.354 233.113 284.178 233.081 283.922 233.017C283.298 232.889 282.946 232.825 282.85 232.793C282.53 232.729 282.37 232.537 282.37 232.201V230.825H289.601V232.201C289.585 232.537 289.425 232.729 289.105 232.793C288.897 232.841 288.305 232.953 287.346 233.145L289.937 241.847C290.145 242.823 290.289 243.559 290.369 244.055C290.465 243.623 290.673 242.887 290.993 241.847L294.416 231.353C294.528 230.985 294.784 230.793 295.184 230.793H296.416C296.832 230.809 297.104 230.985 297.232 231.353L300.575 241.847C300.719 242.311 300.911 243.031 301.151 244.023C301.263 243.287 301.423 242.567 301.631 241.847L304.255 233.161C304.111 233.145 303.487 233.017 302.383 232.793C302.047 232.729 301.871 232.537 301.887 232.201V230.825ZM347.863 235.576C347.863 237.304 347.607 238.872 347.063 240.28C346.519 241.687 345.752 242.887 344.76 243.895C342.68 245.991 339.944 247.047 336.585 247.047H326.011V245.671C326.011 245.335 326.171 245.143 326.491 245.079L328.314 244.711V226.458C327.291 226.25 326.683 226.122 326.491 226.074C326.171 226.01 326.011 225.818 326.011 225.482V224.106H336.585C339.96 224.106 342.68 225.162 344.744 227.258C346.823 229.385 347.863 232.153 347.863 235.576ZM344.696 235.592C344.696 234.185 344.504 232.921 344.12 231.817C343.736 230.697 343.192 229.769 342.488 229.001C341.048 227.418 339.081 226.634 336.585 226.634H331.434V244.535H336.585C339.065 244.535 341.032 243.735 342.488 242.167C343.96 240.568 344.696 238.376 344.696 235.592ZM356.562 227.162C356.386 226.97 356.226 226.762 356.13 226.522C356.018 226.282 355.97 226.026 355.97 225.754C355.97 225.466 356.018 225.21 356.13 224.954C356.226 224.698 356.386 224.49 356.562 224.298C356.754 224.106 356.962 223.962 357.202 223.866C357.442 223.754 357.698 223.706 357.986 223.706C358.258 223.706 358.514 223.754 358.77 223.866C359.01 223.962 359.234 224.106 359.41 224.298C359.601 224.49 359.745 224.698 359.857 224.954C359.969 225.21 360.033 225.466 360.033 225.754C360.033 226.026 359.969 226.282 359.857 226.522C359.745 226.762 359.601 226.97 359.41 227.162C359.234 227.354 359.01 227.498 358.77 227.61C358.514 227.706 358.258 227.77 357.986 227.77C357.698 227.77 357.442 227.706 357.202 227.61C356.962 227.498 356.754 227.354 356.562 227.162ZM361.217 245.063C361.489 245.127 361.697 245.367 361.697 245.655V247.031H354.242V245.655C354.242 245.367 354.434 245.127 354.722 245.063C354.994 245.015 356.546 244.711 356.546 244.711V233.161C356.546 233.161 354.994 232.857 354.722 232.809C354.434 232.745 354.242 232.505 354.242 232.217V230.841H359.394V244.711C359.394 244.711 360.929 245.015 361.217 245.063ZM374.033 230.553C374.737 230.569 375.393 230.633 376.001 230.793C376.609 230.953 377.169 231.177 377.68 231.465H382.08V232.521C382.08 232.873 381.856 233.097 381.408 233.193L379.568 233.449C379.92 234.153 380.112 234.921 380.112 235.768C380.112 236.568 379.952 237.288 379.648 237.928C379.344 238.568 378.928 239.128 378.384 239.576C377.84 240.04 377.201 240.392 376.465 240.632C375.729 240.888 374.913 241 374.033 241C373.265 241 372.561 240.92 371.889 240.728C371.537 240.952 371.282 241.175 371.106 241.415C370.93 241.671 370.85 241.911 370.85 242.135C370.85 242.519 370.994 242.823 371.314 243.015C371.617 243.207 372.033 243.351 372.545 243.431C373.057 243.527 373.633 243.575 374.289 243.591C374.929 243.623 375.601 243.655 376.273 243.703C376.945 243.751 377.616 243.831 378.272 243.943C378.912 244.071 379.504 244.263 380.016 244.519C380.528 244.791 380.928 245.159 381.248 245.623C381.552 246.103 381.712 246.711 381.712 247.446C381.712 248.15 381.536 248.822 381.184 249.462C380.832 250.118 380.336 250.694 379.696 251.206C379.04 251.718 378.24 252.118 377.313 252.422C376.369 252.726 375.313 252.87 374.129 252.87C372.945 252.87 371.905 252.758 371.01 252.518C370.114 252.294 369.378 251.974 368.802 251.574C368.21 251.19 367.762 250.726 367.474 250.214C367.186 249.702 367.042 249.158 367.042 248.582C367.042 247.782 367.282 247.111 367.794 246.551C368.306 245.991 368.994 245.543 369.89 245.207C369.426 244.999 369.058 244.711 368.786 244.359C368.514 244.007 368.386 243.527 368.386 242.919C368.386 242.695 368.418 242.455 368.514 242.199C368.594 241.943 368.722 241.703 368.898 241.447C369.074 241.207 369.298 240.968 369.554 240.744C369.81 240.52 370.098 240.328 370.45 240.152C369.65 239.704 369.01 239.112 368.562 238.376C368.114 237.64 367.89 236.76 367.89 235.768C367.89 234.985 368.034 234.265 368.338 233.625C368.642 232.985 369.074 232.425 369.618 231.977C370.162 231.529 370.802 231.177 371.553 230.921C372.305 230.681 373.137 230.553 374.033 230.553ZM379.088 247.91C379.088 247.51 378.976 247.19 378.752 246.935C378.528 246.695 378.224 246.503 377.84 246.375C377.457 246.247 377.009 246.135 376.513 246.071C376.001 246.007 375.473 245.975 374.929 245.943C374.369 245.911 373.809 245.879 373.233 245.847C372.657 245.815 372.097 245.767 371.585 245.671C370.978 245.959 370.482 246.311 370.098 246.727C369.714 247.142 369.538 247.638 369.538 248.214C369.538 248.582 369.618 248.918 369.81 249.238C370.002 249.558 370.29 249.83 370.674 250.054C371.058 250.278 371.537 250.47 372.113 250.598C372.689 250.726 373.377 250.79 374.177 250.79C374.945 250.79 375.633 250.726 376.241 250.582C376.849 250.454 377.361 250.246 377.776 249.99C378.192 249.734 378.528 249.43 378.752 249.078C378.976 248.726 379.088 248.342 379.088 247.91ZM374.033 239.112C374.609 239.112 375.105 239.032 375.553 238.872C376.001 238.712 376.369 238.488 376.673 238.2C376.961 237.912 377.185 237.576 377.345 237.176C377.489 236.776 377.569 236.328 377.569 235.848C377.569 234.857 377.265 234.073 376.657 233.481C376.049 232.905 375.185 232.601 374.033 232.601C372.881 232.601 372.017 232.905 371.41 233.481C370.802 234.073 370.514 234.857 370.514 235.848C370.514 236.328 370.578 236.776 370.738 237.176C370.898 237.576 371.122 237.912 371.426 238.2C371.713 238.488 372.081 238.712 372.529 238.872C372.961 239.032 373.457 239.112 374.033 239.112ZM390.345 227.162C390.169 226.97 390.009 226.762 389.913 226.522C389.801 226.282 389.753 226.026 389.753 225.754C389.753 225.466 389.801 225.21 389.913 224.954C390.009 224.698 390.169 224.49 390.345 224.298C390.537 224.106 390.745 223.962 390.985 223.866C391.225 223.754 391.481 223.706 391.769 223.706C392.041 223.706 392.297 223.754 392.553 223.866C392.793 223.962 393.017 224.106 393.193 224.298C393.385 224.49 393.529 224.698 393.641 224.954C393.753 225.21 393.817 225.466 393.817 225.754C393.817 226.026 393.753 226.282 393.641 226.522C393.529 226.762 393.385 226.97 393.193 227.162C393.017 227.354 392.793 227.498 392.553 227.61C392.297 227.706 392.041 227.77 391.769 227.77C391.481 227.77 391.225 227.706 390.985 227.61C390.745 227.498 390.537 227.354 390.345 227.162ZM395 245.063C395.272 245.127 395.48 245.367 395.48 245.655V247.031H388.026V245.655C388.026 245.367 388.218 245.127 388.505 245.063C388.777 245.015 390.329 244.711 390.329 244.711V233.161C390.329 233.161 388.777 232.857 388.505 232.809C388.218 232.745 388.026 232.505 388.026 232.217V230.841H393.177V244.711C393.177 244.711 394.712 245.015 395 245.063ZM407.352 247.286C406.073 247.286 405.097 246.935 404.409 246.215C403.721 245.511 403.385 244.471 403.385 243.127V233.209H401.433C401.257 233.209 401.113 233.161 401.001 233.065C400.873 232.969 400.825 232.809 400.825 232.585V231.449L403.481 231.113L404.137 226.106C404.153 225.946 404.217 225.818 404.345 225.722C404.457 225.626 404.601 225.562 404.793 225.562H406.233V231.145H410.872V233.209H406.233V242.935C406.233 243.623 406.392 244.135 406.728 244.455C407.048 244.791 407.48 244.951 408.008 244.951C408.296 244.951 408.552 244.919 408.776 244.839C409 244.759 409.192 244.663 409.352 244.567C409.512 244.471 409.64 244.391 409.752 244.311C409.864 244.231 409.96 244.183 410.056 244.183C410.2 244.183 410.328 244.279 410.456 244.455L411.288 245.815C410.792 246.279 410.2 246.647 409.512 246.903C408.808 247.158 408.088 247.286 407.352 247.286ZM431.293 245.031C431.581 245.095 431.773 245.335 431.773 245.623V246.999H429.71H429.47H428.446C428.174 246.999 427.95 246.967 427.774 246.871C427.598 246.791 427.486 246.615 427.438 246.327L427.118 244.823C426.686 245.207 426.27 245.559 425.87 245.863C425.47 246.167 425.038 246.423 424.591 246.631C424.143 246.839 423.663 246.999 423.167 247.095C422.655 247.206 422.095 247.27 421.471 247.27C420.847 247.27 420.255 247.174 419.711 246.999C419.151 246.823 418.687 246.551 418.272 246.199C417.872 245.847 417.552 245.399 417.312 244.855C417.072 244.327 416.944 243.687 416.944 242.951C416.944 242.295 417.12 241.687 417.472 241.095C417.824 240.504 418.4 239.976 419.183 239.512C419.967 239.048 420.991 238.68 422.255 238.376C423.535 238.088 425.086 237.928 426.91 237.928V236.664C426.91 235.4 426.638 234.441 426.11 233.785C425.566 233.145 424.766 232.809 423.711 232.809C423.023 232.809 422.431 232.905 421.967 233.081C421.487 233.257 421.071 233.449 420.735 233.673C420.383 233.897 420.079 234.089 419.839 234.265C419.583 234.441 419.327 234.537 419.087 234.537C418.895 234.537 418.735 234.473 418.591 234.377C418.448 234.281 418.336 234.153 418.24 233.993L417.728 233.097C418.623 232.217 419.583 231.577 420.623 231.161C421.663 230.729 422.815 230.505 424.063 230.505C424.974 230.505 425.774 230.665 426.478 230.969C427.182 231.257 427.774 231.673 428.254 232.217C428.734 232.745 429.102 233.385 429.342 234.153C429.582 234.905 429.71 235.736 429.71 236.632V244.727C430.158 244.807 431.085 244.999 431.293 245.031ZM426.91 243.095V239.752C425.598 239.752 424.479 239.832 423.567 239.992C422.655 240.168 421.903 240.376 421.327 240.648C420.751 240.92 420.335 241.223 420.079 241.591C419.807 241.959 419.679 242.359 419.679 242.823C419.679 243.239 419.743 243.623 419.887 243.927C420.031 244.231 420.207 244.487 420.447 244.695C420.687 244.887 420.959 245.031 421.279 245.127C421.599 245.223 421.951 245.271 422.319 245.271C422.815 245.271 423.279 245.207 423.695 245.111C424.111 245.015 424.511 244.871 424.878 244.679C425.246 244.487 425.598 244.263 425.934 244.007C426.27 243.735 426.59 243.431 426.91 243.095ZM444.817 245.063C445.137 245.127 445.313 245.335 445.313 245.655V247.031H437.842V245.655C437.842 245.335 438.002 245.127 438.322 245.063L440.145 244.695V225.802C439.122 225.61 438.514 225.482 438.322 225.434C438.002 225.37 437.842 225.178 437.842 224.842V223.466H442.993V244.695C444.017 244.903 444.625 245.031 444.817 245.063ZM495.365 224.106L496.724 224.122V225.498C496.724 225.818 496.564 226.026 496.244 226.09L494.645 226.458L488.214 247.047H485.43L479.623 229.561C479.495 229.225 479.399 228.842 479.303 228.41C479.239 228.602 479.191 228.794 479.143 229.001C479.095 229.209 479.047 229.401 478.999 229.561L473.16 247.047H470.377L463.962 226.458C463.066 226.25 462.538 226.122 462.346 226.074C462.026 226.01 461.866 225.818 461.866 225.482V224.106H469.641V225.482C469.641 225.818 469.481 226.026 469.161 226.074C468.073 226.298 467.465 226.426 467.337 226.442L471.592 240.776C471.72 241.255 471.864 241.911 472.024 242.743C472.216 241.799 472.376 241.143 472.504 240.776L477.895 224.842C477.959 224.666 478.071 224.506 478.263 224.346C478.455 224.186 478.679 224.106 478.951 224.106H479.847C480.375 224.122 480.727 224.362 480.903 224.842L486.262 240.776C486.454 241.335 486.614 241.975 486.774 242.679C486.838 242.343 486.886 242.007 486.95 241.687C486.998 241.367 487.062 241.064 487.158 240.776L491.429 226.442C491.301 226.426 490.693 226.298 489.622 226.074C489.286 226.01 489.11 225.818 489.126 225.482V224.106H495.365ZM509.874 230.569C511.058 230.569 512.114 230.777 513.074 231.161C514.034 231.561 514.833 232.121 515.505 232.841C516.177 233.577 516.689 234.457 517.041 235.48C517.393 236.504 517.585 237.656 517.585 238.92C517.585 240.2 517.393 241.351 517.041 242.375C516.689 243.399 516.177 244.279 515.505 244.999C514.833 245.735 514.034 246.295 513.074 246.679C512.114 247.063 511.058 247.254 509.874 247.254C508.69 247.254 507.619 247.063 506.659 246.679C505.699 246.295 504.899 245.735 504.227 244.999C503.555 244.279 503.027 243.399 502.675 242.375C502.307 241.351 502.131 240.2 502.131 238.92C502.131 237.656 502.307 236.504 502.675 235.48C503.027 234.457 503.555 233.577 504.227 232.841C504.899 232.121 505.699 231.561 506.659 231.161C507.619 230.777 508.69 230.569 509.874 230.569ZM509.874 245.031C511.474 245.031 512.658 244.503 513.458 243.431C514.241 242.359 514.641 240.856 514.641 238.936C514.641 237.016 514.241 235.512 513.458 234.425C512.658 233.353 511.474 232.809 509.874 232.809C509.058 232.825 508.354 232.953 507.763 233.225C507.155 233.513 506.659 233.913 506.259 234.425C505.859 234.953 505.555 235.592 505.363 236.36C505.171 237.128 505.075 237.976 505.075 238.936C505.075 239.896 505.171 240.76 505.363 241.511C505.555 242.279 505.859 242.919 506.259 243.431C506.659 243.943 507.155 244.343 507.763 244.615C508.354 244.903 509.058 245.031 509.874 245.031ZM528.569 234.137C529.753 231.737 531.385 230.537 533.497 230.537C534.328 230.537 535.064 230.729 535.72 231.113L535.352 233.241C535.272 233.513 535.128 233.641 534.936 233.641C534.728 233.641 534.472 233.593 534.168 233.497C533.848 233.401 533.417 233.337 532.873 233.337C531.017 233.337 529.625 234.473 528.713 236.712V244.695C528.969 244.759 529.577 244.871 530.537 245.063C530.857 245.127 531.017 245.335 531.017 245.655V247.031H523.562V245.655C523.562 245.335 523.722 245.127 524.042 245.063L525.866 244.695V233.161C524.842 232.969 524.234 232.841 524.042 232.793C523.722 232.729 523.562 232.537 523.562 232.201V230.825H525.866H527.498C527.801 230.841 528.009 230.889 528.137 231.001C528.249 231.129 528.329 231.337 528.377 231.609L528.569 234.137ZM548.475 245.063C548.794 245.127 548.97 245.335 548.97 245.655V247.031H541.5V245.655C541.5 245.335 541.66 245.127 541.98 245.063L543.803 244.695V225.802C542.779 225.61 542.172 225.482 541.98 225.434C541.66 225.37 541.5 225.178 541.5 224.842V223.466H546.651V244.695C547.675 244.903 548.283 245.031 548.475 245.063ZM561.626 230.537C563.417 230.537 564.889 231.177 566.057 232.457V225.802C564.969 225.642 564.249 225.514 563.929 225.45C563.593 225.386 563.433 225.178 563.433 224.842V223.466H568.904V244.695C569.928 244.903 570.536 245.031 570.728 245.063C571.048 245.127 571.208 245.335 571.208 245.655V247.031H567.209C566.793 247.031 566.537 246.839 566.441 246.439L566.185 244.471C564.649 246.327 562.841 247.254 560.746 247.254C558.842 247.254 557.354 246.551 556.283 245.143C555.163 243.703 554.619 241.655 554.619 238.984C554.619 236.536 555.243 234.537 556.49 232.969C557.77 231.353 559.482 230.537 561.626 230.537ZM561.69 244.951C563.369 244.951 564.825 244.135 566.041 242.503V234.665C565.113 233.401 563.865 232.761 562.314 232.761C560.762 232.761 559.578 233.305 558.778 234.377C557.962 235.464 557.562 237 557.562 238.984C557.562 242.055 558.346 243.927 559.93 244.615C560.442 244.839 561.018 244.951 561.69 244.951Z" fill="#262626"/>
<path d="M328.868 97.5343C326.928 97.5343 325.051 98.1586 323.486 99.2825C315.852 104.84 306.716 107.774 297.142 107.774C272.55 107.774 252.401 87.7939 252.276 63.2558C252.151 38.8425 271.862 18.675 296.329 18.2379C306.153 18.0506 315.602 20.9852 323.486 26.6671C325.113 27.8534 326.991 28.4153 328.93 28.4153C331.371 28.4153 333.623 27.4788 335.376 25.7929C337.253 23.9198 338.254 21.2974 338.004 18.6126C337.816 15.9902 336.439 13.5551 334.312 11.9941C323.236 4.00206 310.158 -0.181288 296.391 0.00602635C261.599 0.443093 233.628 28.9773 234.004 63.7553C234.379 98.0962 262.726 126.006 297.142 126.006C310.596 126.006 323.424 121.885 334.187 114.018C336.377 112.457 337.691 110.022 337.941 107.337C338.129 104.652 337.19 102.092 335.313 100.219C333.623 98.4708 331.308 97.5343 328.868 97.5343ZM246.644 63.3182C246.832 90.9783 269.484 113.456 297.142 113.456C307.905 113.456 318.167 110.147 326.803 103.903C327.429 103.466 328.117 103.216 328.868 103.216C329.806 103.216 330.682 103.591 331.308 104.215C332.059 104.964 332.372 105.901 332.309 106.962C332.247 108.024 331.684 108.898 330.87 109.522C321.046 116.64 309.407 120.449 297.142 120.449C281.936 120.449 267.544 114.58 256.719 103.841C245.893 93.1012 239.823 78.8028 239.636 63.6928C239.448 48.458 245.267 33.9723 256.093 22.9832C266.856 11.9941 281.185 5.81277 296.454 5.62545C296.704 5.62545 296.892 5.62545 297.142 5.62545C309.407 5.62545 321.108 9.43417 330.933 16.5521C332.059 17.3638 332.309 18.4877 332.309 19.0496C332.372 20.1111 332.059 21.0477 331.308 21.7969C330.682 22.4213 329.806 22.7959 328.868 22.7959C328.117 22.7959 327.366 22.5462 326.74 22.1091C317.855 15.678 307.279 12.3688 296.204 12.6185C268.67 13.118 246.456 35.8455 246.644 63.3182Z" fill="#0066FF"/>
<path d="M314.726 79.6769L314.413 79.3647C312.724 77.6789 310.533 76.8047 308.156 76.8047C306.779 76.8047 305.402 77.1169 304.151 77.7413C301.961 78.8027 299.645 79.3022 297.142 79.3022C292.637 79.3022 288.382 77.4915 285.253 74.1823C282.124 70.8731 280.56 66.5649 280.873 62.0693C281.373 53.5778 288.444 46.8345 296.955 46.772H297.142C299.645 46.772 302.023 47.334 304.213 48.3954C305.402 48.9573 306.716 49.2695 308.03 49.2695C310.408 49.2695 312.786 48.2705 314.476 46.5847C316.541 44.5242 317.542 41.5272 317.041 38.5926C316.541 35.658 314.726 33.2854 312.035 31.9742C307.342 29.7264 302.336 28.6025 297.08 28.6025C287.819 28.6025 279.058 32.2864 272.488 38.9048C265.917 45.5857 262.351 54.327 262.538 63.6303C262.851 82.3617 278.307 97.5342 297.08 97.5342C302.524 97.5342 307.655 96.3478 312.473 93.9752C315.039 92.7264 316.728 90.3538 317.229 87.5441C317.73 84.6095 316.791 81.7373 314.726 79.6769ZM275.241 61.6947C274.866 67.8136 276.993 73.5579 281.186 78.0535C285.316 82.4241 291.135 84.9217 297.142 84.9217C300.459 84.9217 303.588 84.2349 306.529 82.7988C307.843 82.1744 309.47 82.3617 310.408 83.3607L310.721 83.6729C311.472 84.4222 311.848 85.4836 311.66 86.5451C311.472 87.5441 310.846 88.4182 309.97 88.8553C305.966 90.8533 301.648 91.8523 297.142 91.8523C289.508 91.8523 282.312 88.9177 276.868 83.548C271.424 78.1784 268.358 71.0604 268.233 63.443C268.107 55.7007 271.049 48.3954 276.555 42.776C282.062 37.219 289.383 34.1595 297.142 34.1595C301.523 34.1595 305.778 35.0961 309.657 36.9692C310.659 37.4687 311.347 38.3429 311.535 39.4668C311.722 40.5906 311.347 41.7145 310.533 42.5262C309.532 43.5252 307.905 43.8374 306.654 43.2755C303.65 41.8394 300.459 41.0902 297.08 41.0902H296.83C285.441 41.2775 275.929 50.2685 275.241 61.6947Z" fill="#262626"/>
<path d="M297.142 59.4471C299.145 59.4471 300.709 61.0705 300.709 63.0061C300.709 65.0041 299.082 66.565 297.142 66.565C295.14 66.565 293.576 64.9416 293.576 63.0061C293.576 61.008 295.14 59.4471 297.142 59.4471ZM297.142 55.0764C292.762 55.0764 289.195 58.6354 289.195 63.0061C289.195 67.3767 292.762 70.9357 297.142 70.9357C301.523 70.9357 305.089 67.3767 305.089 63.0061C305.089 58.6354 301.523 55.0764 297.142 55.0764Z" fill="#0066FF"/>
<path d="M328.867 22.8584C330.768 22.8584 332.309 21.3209 332.309 19.4243C332.309 17.5277 330.768 15.9902 328.867 15.9902C326.967 15.9902 325.426 17.5277 325.426 19.4243C325.426 21.3209 326.967 22.8584 328.867 22.8584Z" fill="#262626"/>
<path d="M328.867 110.084C330.768 110.084 332.309 108.547 332.309 106.65C332.309 104.754 330.768 103.216 328.867 103.216C326.967 103.216 325.426 104.754 325.426 106.65C325.426 108.547 326.967 110.084 328.867 110.084Z" fill="#262626"/>
<path d="M271.674 66.4402C273.575 66.4402 275.116 64.9027 275.116 63.0061C275.116 61.1095 273.575 59.572 271.674 59.572C269.773 59.572 268.232 61.1095 268.232 63.0061C268.232 64.9027 269.773 66.4402 271.674 66.4402Z" fill="#0066FF"/>
</svg>
