<svg width="105" height="126" viewBox="0 0 105 126" fill="none" xmlns="http://www.w3.org/2000/svg">
<path d="M94.8678 97.5343C92.9279 97.5343 91.0507 98.1586 89.4863 99.2825C81.8521 104.84 72.7161 107.774 63.1421 107.774C38.5501 107.774 18.4008 87.7939 18.2757 63.2558C18.1505 38.8425 37.8617 18.675 62.3287 18.2379C72.153 18.0506 81.6018 20.9852 89.4863 26.6671C91.1132 27.8534 92.9905 28.4153 94.9303 28.4153C97.3708 28.4153 99.6235 27.4788 101.376 25.7929C103.253 23.9198 104.254 21.2974 104.004 18.6126C103.816 15.9902 102.439 13.5551 100.312 11.9941C89.236 4.00206 76.1578 -0.181288 62.3912 0.00602635C27.5994 0.443093 -0.371715 28.9773 0.00373592 63.7553C0.379187 98.0962 28.7258 126.006 63.1421 126.006C76.5958 126.006 89.4237 121.885 100.187 114.018C102.377 112.457 103.691 110.022 103.941 107.337C104.129 104.652 103.19 102.092 101.313 100.219C99.6235 98.4708 97.3082 97.5343 94.8678 97.5343ZM12.6439 63.3182C12.8317 90.9783 35.4839 113.456 63.1421 113.456C73.9051 113.456 84.1674 110.147 92.8028 103.903C93.4285 103.466 94.1169 103.216 94.8678 103.216C95.8064 103.216 96.6824 103.591 97.3082 104.215C98.0591 104.964 98.372 105.901 98.3094 106.962C98.2468 108.024 97.6836 108.898 96.8702 109.522C87.0459 116.64 75.4069 120.449 63.1421 120.449C47.9364 120.449 33.5441 114.58 22.7185 103.841C11.893 93.1012 5.82323 78.8028 5.63551 63.6928C5.44778 48.458 11.2673 33.9723 22.0928 22.9832C32.8557 11.9941 47.1855 5.81277 62.4538 5.62545C62.7041 5.62545 62.8918 5.62545 63.1421 5.62545C75.4069 5.62545 87.1084 9.43417 96.9327 16.5521C98.0591 17.3638 98.3094 18.4877 98.3094 19.0496C98.372 20.1111 98.0591 21.0477 97.3082 21.7969C96.6824 22.4213 95.8064 22.7959 94.8678 22.7959C94.1169 22.7959 93.366 22.5462 92.7402 22.1091C83.8545 15.678 73.2793 12.3688 62.2035 12.6185C34.6704 13.118 12.4562 35.8455 12.6439 63.3182Z" fill="#0066FF"/>
<path d="M80.726 79.6769L80.4132 79.3647C78.7236 77.6789 76.5335 76.8047 74.1556 76.8047C72.779 76.8047 71.4023 77.1169 70.1508 77.7413C67.9607 78.8027 65.6454 79.3022 63.1424 79.3022C58.637 79.3022 54.3819 77.4915 51.2531 74.1823C48.1243 70.8731 46.56 66.5649 46.8728 62.0693C47.3734 53.5778 54.4444 46.8345 62.9547 46.772H63.1424C65.6454 46.772 68.0233 47.334 70.2134 48.3954C71.4023 48.9573 72.7164 49.2695 74.0305 49.2695C76.4083 49.2695 78.7862 48.2705 80.4757 46.5847C82.5407 44.5242 83.5419 41.5272 83.0413 38.5926C82.5407 35.658 80.726 33.2854 78.0353 31.9742C73.3422 29.7264 68.3361 28.6025 63.0798 28.6025C53.8187 28.6025 45.0582 32.2864 38.4878 38.9048C31.9174 45.5857 28.3506 54.327 28.5383 63.6303C28.8512 82.3617 44.3073 97.5342 63.0798 97.5342C68.5239 97.5342 73.655 96.3478 78.4733 93.9752C81.0389 92.7264 82.7284 90.3538 83.229 87.5441C83.7296 84.6095 82.791 81.7373 80.726 79.6769ZM41.2411 61.6947C40.8656 67.8136 42.9932 73.5579 47.1857 78.0535C51.3157 82.4241 57.1352 84.9217 63.1424 84.9217C66.4589 84.9217 69.5876 84.2349 72.5287 82.7988C73.8428 82.1744 75.4697 82.3617 76.4083 83.3607L76.7212 83.6729C77.4721 84.4222 77.8476 85.4836 77.6598 86.5451C77.4721 87.5441 76.8464 88.4182 75.9703 88.8553C71.9655 90.8533 67.6478 91.8523 63.1424 91.8523C55.5082 91.8523 48.3121 88.9177 42.868 83.548C37.424 78.1784 34.3578 71.0604 34.2326 63.443C34.1075 55.7007 37.0485 48.3954 42.5552 42.776C48.0618 37.219 55.3831 34.1595 63.1424 34.1595C67.5227 34.1595 71.7778 35.0961 75.6574 36.9692C76.6586 37.4687 77.347 38.3429 77.5347 39.4668C77.7224 40.5906 77.347 41.7145 76.5335 42.5262C75.5323 43.5252 73.9053 43.8374 72.6538 43.2755C69.6502 41.8394 66.4589 41.0902 63.0798 41.0902H62.8295C51.4408 41.2775 41.9294 50.2685 41.2411 61.6947Z" fill="#262626"/>
<path d="M63.1424 59.4471C65.1448 59.4471 66.7092 61.0705 66.7092 63.0061C66.7092 65.0041 65.0822 66.565 63.1424 66.565C61.14 66.565 59.5756 64.9416 59.5756 63.0061C59.5756 61.008 61.14 59.4471 63.1424 59.4471ZM63.1424 55.0764C58.7621 55.0764 55.1953 58.6354 55.1953 63.0061C55.1953 67.3767 58.7621 70.9357 63.1424 70.9357C67.5226 70.9357 71.0894 67.3767 71.0894 63.0061C71.0894 58.6354 67.5226 55.0764 63.1424 55.0764Z" fill="#0066FF"/>
<path d="M94.8674 22.8584C96.7682 22.8584 98.3091 21.3209 98.3091 19.4243C98.3091 17.5277 96.7682 15.9902 94.8674 15.9902C92.9667 15.9902 91.4258 17.5277 91.4258 19.4243C91.4258 21.3209 92.9667 22.8584 94.8674 22.8584Z" fill="#262626"/>
<path d="M94.8674 110.084C96.7682 110.084 98.3091 108.547 98.3091 106.65C98.3091 104.754 96.7682 103.216 94.8674 103.216C92.9667 103.216 91.4258 104.754 91.4258 106.65C91.4258 108.547 92.9667 110.084 94.8674 110.084Z" fill="#262626"/>
<path d="M37.6741 66.4402C39.5748 66.4402 41.1157 64.9027 41.1157 63.0061C41.1157 61.1095 39.5748 59.572 37.6741 59.572C35.7733 59.572 34.2324 61.1095 34.2324 63.0061C34.2324 64.9027 35.7733 66.4402 37.6741 66.4402Z" fill="#0066FF"/>
</svg>
