<svg width="701" height="126" viewBox="0 0 701 126" fill="none" xmlns="http://www.w3.org/2000/svg">
<path d="M163.348 36.31C162.542 36.31 162.108 35.938 161.922 35.194C161.798 34.636 161.612 32.962 161.364 30.234C157.954 29.242 155.164 28.808 152.808 28.808C150.7 28.808 148.778 29.118 146.98 29.862C145.182 30.606 143.694 31.66 142.454 33.024C141.214 34.388 140.222 36 139.478 37.984C138.734 39.968 138.362 42.2 138.362 44.618C138.362 47.16 138.734 49.33 139.478 51.314C140.222 53.298 141.09 54.91 142.33 56.274C143.57 57.638 144.996 58.63 146.67 59.374C148.344 60.118 150.08 60.428 152.002 60.428C153.118 60.428 154.172 60.366 155.102 60.242C156.032 60.118 156.9 59.932 157.644 59.684C158.388 59.436 159.132 59.064 159.814 58.63C160.496 58.196 161.178 57.638 161.86 57.018C162.046 56.832 162.294 56.708 162.542 56.584C162.79 56.46 163.038 56.46 163.286 56.46C163.72 56.46 164.154 56.584 164.464 56.956L167.75 60.552C165.952 62.784 163.72 64.52 161.054 65.698C158.388 66.876 155.164 67.496 151.444 67.496C148.096 67.496 145.182 66.876 142.516 65.76C139.85 64.644 137.556 63.094 135.696 61.048C133.836 59.002 132.348 56.584 131.356 53.794C130.364 51.004 129.868 47.966 129.868 44.618C129.868 41.27 130.426 38.108 131.542 35.318C132.658 32.528 134.208 30.172 136.254 28.126C138.3 26.08 140.656 24.468 143.508 23.352C146.298 22.236 149.46 21.678 152.87 21.678C156.59 21.678 161.302 22.732 166.944 24.902V36.31H163.348ZM185.217 34.698C187.573 34.698 189.743 35.132 191.665 35.876C193.587 36.62 195.261 37.674 196.625 39.1C197.989 40.526 198.981 42.2 199.725 44.246C200.469 46.292 200.841 48.524 200.841 51.004C200.841 53.546 200.469 55.778 199.725 57.824C198.981 59.87 197.989 61.606 196.625 63.032C195.261 64.458 193.587 65.574 191.665 66.318C189.743 67.062 187.573 67.434 185.217 67.434C182.861 67.434 180.629 67.062 178.707 66.318C176.785 65.574 175.111 64.458 173.747 63.032C172.383 61.606 171.267 59.87 170.523 57.824C169.779 55.778 169.407 53.546 169.407 51.004C169.407 48.524 169.779 46.292 170.523 44.246C171.267 42.2 172.383 40.526 173.747 39.1C175.111 37.674 176.785 36.62 178.707 35.876C180.629 35.132 182.861 34.698 185.217 34.698ZM185.217 61.544C187.883 61.544 189.805 60.676 191.045 58.878C192.285 57.08 192.967 54.476 192.967 51.066C192.967 47.656 192.285 45.052 191.045 43.254C189.805 41.456 187.883 40.526 185.217 40.526C182.551 40.526 180.567 41.456 179.265 43.254C177.963 45.052 177.281 47.718 177.281 51.128C177.281 54.538 177.963 57.08 179.265 58.878C180.567 60.676 182.551 61.544 185.217 61.544ZM237.28 63.218V66.876H232.94H228.228C227.732 66.876 227.36 66.752 226.988 66.504C226.616 66.256 226.43 65.946 226.306 65.45L225.686 62.536C224.384 64.024 222.958 65.14 221.284 66.07C219.61 67 217.626 67.434 215.394 67.434C213.658 67.434 212.108 67.124 210.682 66.38C209.256 65.636 208.016 64.582 206.962 63.218C205.908 61.854 205.102 60.118 204.544 58.134C203.986 56.088 203.676 53.794 203.676 51.19C203.676 48.834 203.986 46.664 204.606 44.618C205.226 42.572 206.218 40.836 207.396 39.348C208.574 37.86 210 36.744 211.674 35.876C213.348 35.008 215.208 34.574 217.316 34.574C219.114 34.574 220.664 34.884 221.904 35.442C223.144 36 224.26 36.682 225.252 37.674V27.072C224.446 26.948 223.888 26.824 223.454 26.762C223.02 26.7 222.71 26.576 222.524 26.576C222.338 26.576 222.214 26.514 222.152 26.514C221.098 26.266 220.602 25.646 220.602 24.592V20.934H225.252H232.94V60.8C233.622 60.924 234.18 60.986 234.552 61.048C234.924 61.11 235.234 61.234 235.358 61.234C235.482 61.234 235.606 61.296 235.73 61.296C236.784 61.544 237.28 62.164 237.28 63.218ZM225.314 57.576V43.316C224.446 42.262 223.454 41.518 222.462 41.084C221.408 40.65 220.292 40.402 219.114 40.402C217.936 40.402 216.944 40.65 216.014 41.084C215.084 41.518 214.278 42.2 213.596 43.068C212.976 43.936 212.48 45.052 212.108 46.416C211.736 47.78 211.612 49.33 211.612 51.19C211.612 53.05 211.736 54.662 212.046 55.964C212.356 57.266 212.79 58.258 213.348 59.064C213.906 59.87 214.526 60.49 215.332 60.862C216.138 61.234 217.068 61.42 218.06 61.42C219.672 61.42 221.036 61.11 222.152 60.428C223.268 59.746 224.322 58.816 225.314 57.576ZM254.531 34.698C256.515 34.698 258.375 35.008 260.049 35.628C261.723 36.248 263.149 37.24 264.389 38.48C265.629 39.72 266.559 41.208 267.241 43.006C267.923 44.804 268.295 46.788 268.295 49.082C268.295 49.64 268.233 50.198 268.171 50.57C268.109 50.942 268.047 51.252 267.923 51.438C267.799 51.686 267.613 51.81 267.365 51.934C267.117 52.058 266.869 52.058 266.497 52.058H246.843C247.091 55.344 247.959 57.7 249.509 59.25C251.059 60.8 253.043 61.544 255.585 61.544C256.825 61.544 257.879 61.42 258.747 61.11C259.677 60.8 260.421 60.49 261.103 60.118C261.785 59.746 262.405 59.498 262.901 59.188C263.397 58.878 263.831 58.754 264.327 58.754C264.637 58.754 264.947 58.816 265.195 58.94C265.443 59.064 265.567 59.188 265.753 59.436L267.985 62.226C267.117 63.218 266.187 64.086 265.133 64.768C264.079 65.45 262.963 66.008 261.847 66.38C260.669 66.752 259.491 67 258.313 67.186C257.135 67.372 255.957 67.434 254.841 67.434C252.609 67.434 250.625 67.124 248.703 66.38C246.781 65.636 245.169 64.52 243.743 63.094C242.317 61.668 241.201 59.87 240.395 57.762C239.589 55.654 239.217 53.174 239.217 50.384C239.217 48.214 239.589 46.23 240.271 44.308C240.953 42.386 242.007 40.712 243.309 39.286C244.611 37.86 246.223 36.744 248.083 35.938C249.943 35.132 252.175 34.698 254.531 34.698ZM254.655 40.154C252.423 40.154 250.687 40.836 249.447 42.076C248.207 43.316 247.401 45.114 247.029 47.408H261.413C261.413 46.416 261.227 45.486 260.979 44.618C260.731 43.75 260.297 43.006 259.739 42.324C259.181 41.642 258.499 41.146 257.631 40.774C256.763 40.402 255.771 40.154 254.655 40.154ZM312.999 22.174H317.649V25.832C317.649 26.886 317.153 27.506 316.099 27.754C316.037 27.754 315.913 27.816 315.727 27.816C315.541 27.816 315.231 27.94 314.797 28.002C314.363 28.064 313.743 28.188 312.999 28.312V67H308.659C307.977 67 307.481 66.876 307.047 66.69C306.613 66.504 306.179 66.132 305.745 65.574L282.309 35.752C282.371 36.434 282.433 37.054 282.433 37.674C282.433 38.294 282.495 38.914 282.495 39.472V60.862C285.099 61.234 286.401 61.42 286.525 61.42C287.579 61.668 288.075 62.288 288.075 63.342V67H282.495H275.179H270.467V63.342C270.467 62.288 270.963 61.668 272.017 61.42C272.079 61.42 272.203 61.42 272.389 61.358C272.575 61.296 272.885 61.234 273.319 61.172C273.753 61.11 274.435 60.986 275.179 60.862V28.312C274.435 28.188 273.753 28.064 273.319 28.002C272.885 27.94 272.575 27.816 272.389 27.816C272.203 27.816 272.079 27.754 272.017 27.754C270.963 27.506 270.467 26.886 270.467 25.832V22.174H275.179H279.519C279.891 22.174 280.201 22.236 280.449 22.236C280.697 22.236 280.945 22.298 281.131 22.422C281.317 22.484 281.503 22.608 281.689 22.794C281.875 22.98 282.061 23.228 282.309 23.538L305.869 53.484C305.807 52.74 305.745 52.058 305.683 51.376C305.621 50.694 305.621 50.012 305.621 49.392V28.312C303.017 27.94 301.715 27.754 301.591 27.754C300.537 27.506 300.041 26.886 300.041 25.832V22.174H305.621H312.999ZM335.312 34.698C337.668 34.698 339.838 35.132 341.76 35.876C343.682 36.62 345.356 37.674 346.72 39.1C348.084 40.526 349.076 42.2 349.82 44.246C350.564 46.292 350.936 48.524 350.936 51.004C350.936 53.546 350.564 55.778 349.82 57.824C349.076 59.87 348.084 61.606 346.72 63.032C345.356 64.458 343.682 65.574 341.76 66.318C339.838 67.062 337.668 67.434 335.312 67.434C332.956 67.434 330.724 67.062 328.802 66.318C326.88 65.574 325.206 64.458 323.842 63.032C322.478 61.606 321.362 59.87 320.618 57.824C319.874 55.778 319.502 53.546 319.502 51.004C319.502 48.524 319.874 46.292 320.618 44.246C321.362 42.2 322.478 40.526 323.842 39.1C325.206 37.674 326.88 36.62 328.802 35.876C330.724 35.132 332.956 34.698 335.312 34.698ZM335.312 61.544C337.978 61.544 339.9 60.676 341.14 58.878C342.38 57.08 343.062 54.476 343.062 51.066C343.062 47.656 342.38 45.052 341.14 43.254C339.9 41.456 337.978 40.526 335.312 40.526C332.646 40.526 330.662 41.456 329.36 43.254C328.058 45.052 327.376 47.718 327.376 51.128C327.376 54.538 328.058 57.08 329.36 58.878C330.662 60.676 332.646 61.544 335.312 61.544ZM374.192 34.636C375.742 34.636 377.044 34.946 378.098 35.69L377.106 41.456C377.044 41.828 376.92 42.076 376.734 42.2C376.548 42.324 376.238 42.448 375.866 42.448C375.556 42.448 375.184 42.386 374.626 42.262C374.068 42.138 373.324 42.014 372.456 42.014C370.844 42.014 369.48 42.448 368.364 43.316C367.248 44.184 366.318 45.548 365.512 47.222V60.862C368.178 61.358 368.116 61.358 368.612 61.42C369.666 61.668 370.162 62.288 370.162 63.342V67H365.512H357.824H353.174V63.342C353.174 62.288 353.67 61.668 354.724 61.42C355.22 61.358 355.158 61.358 357.824 60.862V41.332C355.158 40.836 355.22 40.836 354.724 40.774C353.67 40.526 353.174 39.906 353.174 38.852V35.194H357.824H362.35C363.156 35.194 363.652 35.318 363.962 35.628C364.272 35.938 364.458 36.434 364.582 37.116L365.078 40.96C366.194 38.976 367.496 37.426 369.046 36.31C370.596 35.194 372.27 34.636 374.192 34.636ZM393.074 67.496C390.346 67.496 388.176 66.69 386.688 65.14C385.2 63.59 384.456 61.42 384.456 58.692V40.96H381.232C380.798 40.96 380.488 40.774 380.178 40.526C379.868 40.278 379.682 39.906 379.682 39.348V36.248L384.828 35.442L386.44 26.762C386.502 26.328 386.688 26.08 386.998 25.832C387.308 25.584 387.742 25.46 388.176 25.46H392.144V35.504H400.514V40.96H392.144V58.196C392.144 59.188 392.392 59.932 392.888 60.49C393.384 61.048 394.066 61.296 394.871 61.296C395.368 61.296 395.74 61.296 396.05 61.172C396.36 61.048 396.608 60.924 396.856 60.8C397.104 60.676 397.352 60.552 397.538 60.428C397.724 60.304 397.848 60.304 398.034 60.304C398.282 60.304 398.53 60.304 398.654 60.428C398.778 60.552 398.902 60.676 399.088 60.924L401.382 64.644C400.266 65.574 398.964 66.256 397.538 66.752C396.112 67.248 394.624 67.496 393.074 67.496ZM418.743 61.42C419.797 61.668 420.293 62.288 420.293 63.342V67H415.581H407.955H403.243V63.342C403.243 62.288 403.739 61.668 404.793 61.42C404.855 61.42 404.979 61.358 405.165 61.358C405.351 61.296 405.661 61.234 406.095 61.172C406.529 61.11 407.211 60.986 407.955 60.862V41.332C407.211 41.208 406.529 41.084 406.095 41.022C405.661 40.96 405.351 40.836 405.165 40.836C404.979 40.836 404.855 40.774 404.793 40.774C403.739 40.526 403.243 39.906 403.243 38.852V35.194H407.955H415.581V60.862C416.325 60.986 417.007 61.11 417.441 61.172C417.875 61.234 418.185 61.358 418.371 61.358C418.557 61.358 418.681 61.42 418.743 61.42ZM416.759 25.894C416.759 26.576 416.573 27.196 416.325 27.754C416.077 28.312 415.705 28.87 415.271 29.304C414.837 29.738 414.341 30.11 413.721 30.358C413.101 30.606 412.481 30.73 411.799 30.73C411.117 30.73 410.497 30.606 409.877 30.358C409.257 30.11 408.823 29.738 408.389 29.304C407.955 28.87 407.583 28.312 407.335 27.754C407.087 27.196 406.963 26.576 406.963 25.894C406.963 25.212 407.087 24.592 407.335 23.972C407.583 23.352 407.955 22.856 408.389 22.422C408.823 21.988 409.257 21.678 409.877 21.43C410.497 21.182 411.117 20.996 411.799 20.996C412.481 20.996 413.101 21.182 413.721 21.43C414.341 21.678 414.837 21.988 415.271 22.422C415.705 22.856 416.077 23.352 416.325 23.972C416.573 24.592 416.759 25.212 416.759 25.894ZM444.756 53.608C445.19 54.538 445.438 55.592 445.438 56.894C445.438 58.444 445.128 59.87 444.57 61.172C444.012 62.474 443.206 63.59 442.152 64.52C441.098 65.45 439.796 66.194 438.184 66.69C436.634 67.248 434.774 67.496 432.728 67.496C428.76 67.496 424.916 66.628 422.622 65.76V62.66V56.77H422.932H423.676H426.218C427.024 56.77 427.458 57.204 427.644 57.948C427.706 58.258 427.83 59.126 428.078 61.606C429.752 62.102 431.736 62.102 433.1 62.102C434.03 62.102 434.836 61.978 435.456 61.792C436.138 61.544 436.634 61.296 437.068 60.924C437.502 60.552 437.812 60.242 437.998 59.746C438.184 59.25 438.246 58.754 438.246 58.258C438.246 57.514 438.06 56.956 437.626 56.46C437.192 55.964 436.572 55.592 435.828 55.22C435.084 54.848 434.278 54.538 433.348 54.29C432.418 53.98 431.426 53.67 430.434 53.36C429.442 53.05 428.512 52.616 427.582 52.182C426.652 51.748 425.784 51.19 425.04 50.508C424.296 49.826 423.738 49.02 423.304 48.028C422.87 47.036 422.622 45.858 422.622 44.432C422.622 43.13 422.87 41.89 423.366 40.712C423.862 39.534 424.668 38.48 425.66 37.612C426.652 36.744 427.954 36 429.442 35.504C430.93 35.008 432.604 34.698 434.588 34.698C437.688 34.698 439.424 35.008 443.888 36.372H443.826V45.362H443.578H442.834H440.292C439.486 45.362 439.052 44.928 438.866 44.184C438.804 43.874 438.68 43.13 438.432 40.712C437.626 40.464 436.138 40.278 434.712 40.278C433.224 40.278 432.046 40.588 431.178 41.208C430.31 41.828 429.876 42.696 429.876 43.75C429.876 44.432 430.124 44.99 430.558 45.486C430.992 45.982 431.55 46.292 432.294 46.664C433.038 47.036 433.844 47.408 434.774 47.656C435.704 47.904 436.634 48.214 437.626 48.524C438.618 48.834 439.61 49.268 440.54 49.702C441.47 50.136 442.276 50.632 443.02 51.314C443.764 51.934 444.322 52.678 444.756 53.608ZM478.037 27.754C477.975 27.754 477.851 27.816 477.665 27.816C477.479 27.816 477.169 27.94 476.735 28.002C476.301 28.064 475.681 28.188 474.937 28.312V60.862C475.681 60.986 476.301 61.11 476.735 61.172C477.169 61.234 477.479 61.358 477.665 61.358C477.851 61.358 477.975 61.42 478.037 61.42C479.091 61.668 479.587 62.288 479.587 63.342V67H474.937H466.567H461.855V63.342C461.855 62.288 462.351 61.668 463.405 61.42C463.467 61.42 463.591 61.358 463.777 61.358C463.963 61.296 464.273 61.234 464.707 61.172C465.141 61.11 465.823 60.986 466.567 60.862V28.312C465.823 28.188 465.141 28.064 464.707 28.002C464.273 27.94 463.963 27.816 463.777 27.816C463.591 27.754 463.467 27.754 463.405 27.754C462.351 27.506 461.855 26.886 461.855 25.832V22.174H466.567H474.937H479.587V25.832C479.587 26.886 479.091 27.506 478.037 27.754ZM517.604 61.42C518.658 61.668 519.154 62.288 519.154 63.342V67H514.442H506.816V46.788C506.816 44.866 506.32 43.316 505.452 42.262C504.584 41.208 503.22 40.65 501.422 40.65C500.12 40.65 498.88 40.96 497.702 41.58C496.524 42.2 495.47 42.944 494.416 43.998V60.862C495.16 60.986 495.78 61.11 496.214 61.172C496.648 61.234 496.958 61.296 497.144 61.358C497.33 61.42 497.454 61.42 497.516 61.42C498.57 61.668 499.066 62.288 499.066 63.342V67H494.416H486.728H482.078V63.342C482.078 62.288 482.574 61.668 483.628 61.42C483.69 61.42 483.814 61.358 484 61.358C484.186 61.296 484.496 61.234 484.93 61.172C485.364 61.11 485.984 60.986 486.728 60.862V41.332C485.984 41.208 485.364 41.084 484.93 41.022C484.496 40.96 484.186 40.836 484 40.836C483.814 40.774 483.69 40.774 483.628 40.774C482.574 40.526 482.078 39.906 482.078 38.852V35.194H486.728H491.44C492.432 35.194 493.052 35.69 493.362 36.62L493.92 39.1C494.54 38.418 495.16 37.86 495.904 37.302C496.586 36.744 497.392 36.31 498.198 35.938C499.004 35.566 499.81 35.194 500.74 35.008C501.67 34.822 502.662 34.698 503.716 34.698C505.452 34.698 507.002 34.946 508.366 35.566C509.73 36.124 510.784 36.992 511.714 38.046C512.582 39.1 513.264 40.402 513.76 41.89C514.256 43.378 514.442 44.99 514.442 46.788V60.862C515.186 60.986 515.868 61.11 516.302 61.172C516.736 61.234 517.046 61.358 517.232 61.358C517.418 61.358 517.542 61.42 517.604 61.42ZM533.894 30.42C533.646 31.226 533.46 32.156 533.46 33.334V35.442H541.768V40.898H533.77V60.862C534.514 60.986 535.134 61.11 535.63 61.172C536.126 61.234 536.498 61.358 536.746 61.358C536.994 61.358 537.18 61.42 537.242 61.42C538.296 61.668 538.792 62.288 538.792 63.342V67H533.77H533.708H526.082H521.37V63.342C521.37 62.288 521.866 61.668 522.92 61.42C522.982 61.42 523.168 61.42 523.354 61.358C523.54 61.296 523.85 61.234 524.284 61.172C524.718 61.11 525.338 60.986 526.082 60.862V40.96L523.354 40.526C522.734 40.402 522.238 40.216 521.866 39.906C521.494 39.596 521.37 39.162 521.37 38.604V35.504H526.082V33.148C526.082 31.35 526.33 29.676 526.888 28.25C527.446 26.824 528.19 25.522 529.244 24.53C530.298 23.538 531.476 22.794 532.964 22.236C534.452 21.678 536.064 21.43 537.924 21.43C539.412 21.43 540.776 21.616 542.016 21.988L541.892 25.832C541.83 26.452 541.52 26.824 541.024 26.948C540.528 27.072 539.908 27.196 539.226 27.196C538.296 27.196 537.49 27.258 536.808 27.444C536.126 27.63 535.506 28.002 535.01 28.498C534.514 28.994 534.142 29.614 533.894 30.42ZM559.82 34.698C562.176 34.698 564.346 35.132 566.268 35.876C568.19 36.62 569.864 37.674 571.228 39.1C572.592 40.526 573.584 42.2 574.328 44.246C575.072 46.292 575.444 48.524 575.444 51.004C575.444 53.546 575.072 55.778 574.328 57.824C573.584 59.87 572.592 61.606 571.228 63.032C569.864 64.458 568.19 65.574 566.268 66.318C564.346 67.062 562.176 67.434 559.82 67.434C557.464 67.434 555.232 67.062 553.31 66.318C551.388 65.574 549.714 64.458 548.35 63.032C546.986 61.606 545.87 59.87 545.126 57.824C544.382 55.778 544.01 53.546 544.01 51.004C544.01 48.524 544.382 46.292 545.126 44.246C545.87 42.2 546.986 40.526 548.35 39.1C549.714 37.674 551.388 36.62 553.31 35.876C555.232 35.132 557.464 34.698 559.82 34.698ZM559.82 61.544C562.486 61.544 564.408 60.676 565.648 58.878C566.888 57.08 567.57 54.476 567.57 51.066C567.57 47.656 566.888 45.052 565.648 43.254C564.408 41.456 562.486 40.526 559.82 40.526C557.154 40.526 555.17 41.456 553.868 43.254C552.566 45.052 551.884 47.718 551.884 51.128C551.884 54.538 552.566 57.08 553.868 58.878C555.17 60.676 557.154 61.544 559.82 61.544ZM590.577 67.496C587.849 67.496 585.679 66.69 584.191 65.14C582.703 63.59 581.959 61.42 581.959 58.692V40.96H578.735C578.301 40.96 577.991 40.774 577.681 40.526C577.371 40.278 577.185 39.906 577.185 39.348V36.248L582.331 35.442L583.943 26.762C584.005 26.328 584.191 26.08 584.501 25.832C584.811 25.584 585.245 25.46 585.679 25.46H589.647V35.504H598.017V40.96H589.647V58.196C589.647 59.188 589.895 59.932 590.391 60.49C590.887 61.048 591.569 61.296 592.375 61.296C592.871 61.296 593.243 61.296 593.553 61.172C593.863 61.048 594.111 60.924 594.359 60.8C594.607 60.676 594.855 60.552 595.041 60.428C595.227 60.304 595.351 60.304 595.537 60.304C595.785 60.304 596.033 60.304 596.157 60.428C596.281 60.552 596.405 60.676 596.591 60.924L598.885 64.644C597.769 65.574 596.467 66.256 595.041 66.752C593.615 67.248 592.127 67.496 590.577 67.496ZM616.965 34.698C618.949 34.698 620.809 35.008 622.483 35.628C624.157 36.248 625.583 37.24 626.823 38.48C628.063 39.72 628.993 41.208 629.675 43.006C630.357 44.804 630.729 46.788 630.729 49.082C630.729 49.64 630.667 50.198 630.605 50.57C630.543 50.942 630.481 51.252 630.357 51.438C630.233 51.686 630.047 51.81 629.799 51.934C629.551 52.058 629.303 52.058 628.931 52.058H609.277C609.525 55.344 610.393 57.7 611.943 59.25C613.493 60.8 615.477 61.544 618.019 61.544C619.259 61.544 620.313 61.42 621.181 61.11C622.111 60.8 622.855 60.49 623.537 60.118C624.219 59.746 624.839 59.498 625.335 59.188C625.831 58.878 626.265 58.754 626.761 58.754C627.071 58.754 627.381 58.816 627.629 58.94C627.877 59.064 628.001 59.188 628.187 59.436L630.419 62.226C629.551 63.218 628.621 64.086 627.567 64.768C626.513 65.45 625.397 66.008 624.281 66.38C623.103 66.752 621.925 67 620.747 67.186C619.569 67.372 618.391 67.434 617.275 67.434C615.043 67.434 613.059 67.124 611.137 66.38C609.215 65.636 607.603 64.52 606.177 63.094C604.751 61.668 603.635 59.87 602.829 57.762C602.023 55.654 601.651 53.174 601.651 50.384C601.651 48.214 602.023 46.23 602.705 44.308C603.387 42.386 604.441 40.712 605.743 39.286C607.045 37.86 608.657 36.744 610.517 35.938C612.377 35.132 614.609 34.698 616.965 34.698ZM617.089 40.154C614.857 40.154 613.121 40.836 611.881 42.076C610.641 43.316 609.835 45.114 609.463 47.408H623.847C623.847 46.416 623.661 45.486 623.413 44.618C623.165 43.75 622.731 43.006 622.173 42.324C621.615 41.642 620.933 41.146 620.065 40.774C619.197 40.402 618.205 40.154 617.089 40.154ZM658.294 59.436L660.464 62.226C659.596 63.218 658.728 64.086 657.736 64.768C656.744 65.45 655.69 65.946 654.636 66.38C653.582 66.752 652.466 67 651.35 67.186C650.234 67.372 649.056 67.434 647.94 67.434C645.956 67.434 644.158 67.124 642.422 66.38C640.686 65.636 639.198 64.582 637.896 63.156C636.594 61.73 635.54 60.056 634.796 58.01C634.052 55.964 633.68 53.608 633.68 51.004C633.68 48.648 633.99 46.54 634.672 44.556C635.354 42.572 636.346 40.836 637.648 39.348C638.95 37.86 640.562 36.744 642.484 35.938C644.406 35.132 646.638 34.698 649.118 34.698C651.722 34.698 655.07 35.442 659.162 36.992L659.1 46.788H658.852H658.108H655.566C654.76 46.788 654.326 46.354 654.14 45.61C654.078 45.114 653.892 43.626 653.644 41.146C652.032 40.712 650.606 40.526 649.552 40.526C648.188 40.526 647.01 40.774 646.018 41.27C645.026 41.766 644.22 42.386 643.538 43.316C642.856 44.246 642.298 45.362 641.988 46.664C641.678 47.966 641.492 49.392 641.492 51.004C641.492 52.678 641.678 54.228 642.05 55.53C642.422 56.832 642.918 57.948 643.6 58.878C644.282 59.746 645.088 60.428 646.08 60.924C647.072 61.358 648.126 61.606 649.366 61.606C650.606 61.606 651.598 61.482 652.342 61.172C653.086 60.862 653.768 60.552 654.264 60.18C654.76 59.808 655.256 59.498 655.628 59.188C656 58.878 656.372 58.754 656.868 58.754C657.488 58.754 657.984 58.94 658.294 59.436ZM697.911 61.42C698.965 61.668 699.461 62.288 699.461 63.342V67H694.811H687.123V46.788C687.123 44.866 686.689 43.316 685.759 42.262C684.891 41.208 683.527 40.65 681.729 40.65C680.427 40.65 679.187 40.96 678.009 41.58C676.831 42.2 675.777 42.944 674.723 43.998V60.862C675.467 60.986 676.149 61.11 676.583 61.172C677.017 61.234 677.327 61.358 677.513 61.358C677.699 61.42 677.823 61.42 677.885 61.42C678.939 61.668 679.435 62.288 679.435 63.342V67H674.723H667.097H662.385V63.342C662.385 62.288 662.881 61.668 663.935 61.42C663.997 61.42 664.121 61.358 664.307 61.358C664.493 61.358 664.803 61.234 665.237 61.172C665.671 61.11 666.353 60.986 667.097 60.862V27.072C666.353 26.948 665.671 26.824 665.237 26.762C664.803 26.7 664.493 26.576 664.307 26.576C664.121 26.576 663.997 26.514 663.935 26.514C662.881 26.266 662.385 25.646 662.385 24.592V20.934H667.097H674.723V38.666C675.963 37.488 677.327 36.558 678.815 35.814C680.303 35.07 682.101 34.698 684.085 34.698C685.821 34.698 687.309 35.008 688.673 35.566C690.037 36.124 691.091 36.992 692.021 38.046C692.889 39.1 693.571 40.402 694.067 41.89C694.501 43.378 694.811 44.928 694.811 46.726V60.862C695.555 60.986 696.175 61.11 696.609 61.172C697.043 61.234 697.353 61.296 697.539 61.358C697.725 61.42 697.849 61.42 697.911 61.42Z" fill="#262626"/>
<path d="M146.159 108.049V113.04H145.439H145.151H132.417H130.113V111.649C130.113 111.361 130.305 111.121 130.593 111.057C130.865 111.009 132.417 110.705 132.417 110.705V92.4358C132.417 92.4358 130.865 92.1319 130.593 92.0839C130.305 92.0199 130.113 91.7799 130.113 91.492V90.1162H132.417H135.52H137.824V91.492C137.824 91.7799 137.616 92.0199 137.328 92.0839C137.056 92.1319 135.568 92.4358 135.52 92.4358V110.417H143.791C143.855 109.505 143.935 108.721 143.951 108.593C144.015 108.273 144.303 108.049 144.623 108.049H146.159ZM159.14 96.5631C160.1 96.5791 160.996 96.7391 161.828 97.059C162.643 97.379 163.347 97.8589 163.955 98.4668C164.547 99.0747 165.011 99.8426 165.347 100.738C165.683 101.634 165.859 102.658 165.859 103.81C165.859 104.258 165.811 104.562 165.715 104.706C165.619 104.866 165.427 104.93 165.171 104.93H154.389C154.405 105.954 154.549 106.849 154.805 107.601C155.061 108.369 155.413 108.993 155.861 109.505C156.309 110.017 156.836 110.385 157.46 110.641C158.068 110.897 158.772 111.009 159.54 111.009C160.244 111.009 160.868 110.929 161.38 110.769C161.892 110.609 162.34 110.417 162.723 110.225C163.091 110.033 163.395 109.857 163.651 109.697C163.907 109.537 164.115 109.441 164.307 109.441C164.531 109.441 164.723 109.537 164.851 109.713L165.651 110.753C165.299 111.185 164.867 111.553 164.387 111.873C163.891 112.193 163.363 112.449 162.803 112.64C162.244 112.848 161.668 113.008 161.076 113.104C160.468 113.2 159.876 113.248 159.3 113.248C158.18 113.248 157.14 113.072 156.197 112.688C155.253 112.305 154.437 111.761 153.749 111.025C153.061 110.289 152.533 109.393 152.149 108.305C151.765 107.233 151.573 106.002 151.573 104.594C151.573 103.474 151.733 102.418 152.085 101.426C152.437 100.45 152.933 99.6026 153.589 98.8827C154.229 98.1629 155.029 97.603 155.973 97.187C156.9 96.7711 157.956 96.5631 159.14 96.5631ZM159.204 98.6588C157.828 98.6588 156.74 99.0587 155.957 99.8586C155.157 100.658 154.677 101.746 154.485 103.154H163.299C163.299 102.498 163.203 101.89 163.027 101.346C162.835 100.802 162.58 100.323 162.228 99.9226C161.876 99.5226 161.444 99.2187 160.932 98.9947C160.42 98.7708 159.844 98.6588 159.204 98.6588ZM185.878 111.025C186.166 111.089 186.358 111.329 186.358 111.617V112.992H184.294H184.054H183.03C182.758 112.992 182.534 112.96 182.358 112.864C182.182 112.784 182.07 112.608 182.022 112.321L181.702 110.817C181.27 111.201 180.854 111.553 180.455 111.857C180.055 112.161 179.623 112.417 179.175 112.624C178.727 112.832 178.247 112.992 177.751 113.088C177.239 113.2 176.679 113.264 176.055 113.264C175.431 113.264 174.839 113.168 174.296 112.992C173.736 112.816 173.272 112.544 172.856 112.193C172.456 111.841 172.136 111.393 171.896 110.849C171.656 110.321 171.528 109.681 171.528 108.945C171.528 108.289 171.704 107.681 172.056 107.089C172.408 106.497 172.984 105.97 173.768 105.506C174.552 105.042 175.575 104.674 176.839 104.37C178.119 104.082 179.671 103.922 181.494 103.922V102.658C181.494 101.394 181.222 100.434 180.695 99.7786C180.151 99.1387 179.351 98.8028 178.295 98.8028C177.607 98.8028 177.015 98.8987 176.551 99.0747C176.071 99.2507 175.655 99.4427 175.319 99.6666C174.967 99.8906 174.664 100.083 174.424 100.259C174.168 100.434 173.912 100.53 173.672 100.53C173.48 100.53 173.32 100.466 173.176 100.371C173.032 100.275 172.92 100.147 172.824 99.9866L172.312 99.0907C173.208 98.2109 174.168 97.571 175.207 97.155C176.247 96.7231 177.399 96.4991 178.647 96.4991C179.559 96.4991 180.359 96.6591 181.062 96.9631C181.766 97.251 182.358 97.6669 182.838 98.2109C183.318 98.7388 183.686 99.3787 183.926 100.147C184.166 100.898 184.294 101.73 184.294 102.626V110.721C184.742 110.801 185.67 110.993 185.878 111.025ZM181.494 109.089V105.746C180.183 105.746 179.063 105.826 178.151 105.986C177.239 106.162 176.487 106.37 175.911 106.641C175.335 106.913 174.919 107.217 174.664 107.585C174.392 107.953 174.264 108.353 174.264 108.817C174.264 109.233 174.328 109.617 174.472 109.921C174.616 110.225 174.791 110.481 175.031 110.689C175.271 110.881 175.543 111.025 175.863 111.121C176.183 111.217 176.535 111.265 176.903 111.265C177.399 111.265 177.863 111.201 178.279 111.105C178.695 111.009 179.095 110.865 179.463 110.673C179.831 110.481 180.183 110.257 180.519 110.001C180.854 109.729 181.174 109.425 181.494 109.089ZM199.113 96.5311C200.905 96.5311 202.376 97.171 203.544 98.4508V91.7959C202.456 91.6359 201.737 91.508 201.417 91.444C201.081 91.38 200.921 91.172 200.921 90.8361V89.4603H206.392V110.689C207.416 110.897 208.024 111.025 208.215 111.057C208.535 111.121 208.695 111.329 208.695 111.649V113.024H204.696C204.28 113.024 204.024 112.832 203.928 112.433L203.672 110.465C202.136 112.321 200.329 113.248 198.233 113.248C196.329 113.248 194.842 112.544 193.77 111.137C192.65 109.697 192.106 107.649 192.106 104.978C192.106 102.53 192.73 100.53 193.978 98.9627C195.258 97.347 196.969 96.5311 199.113 96.5311ZM199.177 110.945C200.857 110.945 202.312 110.129 203.528 108.497V100.658C202.6 99.3947 201.353 98.7548 199.801 98.7548C198.249 98.7548 197.065 99.2987 196.265 100.371C195.45 101.458 195.05 102.994 195.05 104.978C195.05 108.049 195.834 109.921 197.417 110.609C197.929 110.833 198.505 110.945 199.177 110.945ZM216.933 93.1557C216.757 92.9637 216.597 92.7558 216.501 92.5158C216.389 92.2758 216.341 92.0199 216.341 91.7479C216.341 91.46 216.389 91.204 216.501 90.9481C216.597 90.6921 216.757 90.4841 216.933 90.2922C217.125 90.1002 217.332 89.9562 217.572 89.8602C217.812 89.7483 218.068 89.7003 218.356 89.7003C218.628 89.7003 218.884 89.7483 219.14 89.8602C219.38 89.9562 219.604 90.1002 219.78 90.2922C219.972 90.4841 220.116 90.6921 220.228 90.9481C220.34 91.204 220.404 91.46 220.404 91.7479C220.404 92.0199 220.34 92.2758 220.228 92.5158C220.116 92.7558 219.972 92.9637 219.78 93.1557C219.604 93.3477 219.38 93.4916 219.14 93.6036C218.884 93.6996 218.628 93.7636 218.356 93.7636C218.068 93.7636 217.812 93.6996 217.572 93.6036C217.332 93.4916 217.125 93.3477 216.933 93.1557ZM221.588 111.057C221.86 111.121 222.068 111.361 222.068 111.649V113.024H214.613V111.649C214.613 111.361 214.805 111.121 215.093 111.057C215.365 111.009 216.917 110.705 216.917 110.705V99.1547C216.917 99.1547 215.365 98.8508 215.093 98.8028C214.805 98.7388 214.613 98.4988 214.613 98.2109V96.8351H219.764V110.705C219.764 110.705 221.3 111.009 221.588 111.057ZM233.076 99.1707C234.644 97.443 236.435 96.5631 238.451 96.5631C240.195 96.5631 241.538 97.139 242.498 98.2588C243.41 99.3467 243.874 100.834 243.874 102.706V110.689C244.898 110.897 245.506 111.025 245.698 111.057C246.018 111.121 246.194 111.329 246.194 111.649V113.024H241.027V102.706C241.027 100.131 239.891 98.8348 237.619 98.8348C236.035 98.8348 234.58 99.5866 233.236 101.09V110.689C233.3 110.705 233.908 110.833 235.06 111.057C235.379 111.121 235.555 111.329 235.555 111.649V113.024H228.085V111.649C228.085 111.329 228.245 111.121 228.565 111.057L230.388 110.689V99.1547C229.364 98.9627 228.757 98.8348 228.565 98.7868C228.245 98.7228 228.085 98.5308 228.085 98.1949V96.8191H230.388H232.084C232.484 96.8191 232.74 97.0271 232.852 97.411L233.076 99.1707ZM258.591 96.5471C259.295 96.5631 259.951 96.6271 260.559 96.7871C261.166 96.9471 261.726 97.171 262.238 97.459H266.638V98.5148C266.638 98.8667 266.414 99.0907 265.966 99.1867L264.126 99.4427C264.478 100.147 264.67 100.914 264.67 101.762C264.67 102.562 264.51 103.282 264.206 103.922C263.902 104.562 263.486 105.122 262.942 105.57C262.398 106.034 261.758 106.386 261.023 106.625C260.287 106.881 259.471 106.993 258.591 106.993C257.823 106.993 257.119 106.913 256.447 106.721C256.095 106.945 255.839 107.169 255.663 107.409C255.487 107.665 255.407 107.905 255.407 108.129C255.407 108.513 255.551 108.817 255.871 109.009C256.175 109.201 256.591 109.345 257.103 109.425C257.615 109.521 258.191 109.569 258.847 109.585C259.487 109.617 260.159 109.649 260.831 109.697C261.502 109.745 262.174 109.825 262.83 109.937C263.47 110.065 264.062 110.257 264.574 110.513C265.086 110.785 265.486 111.153 265.806 111.617C266.11 112.097 266.27 112.704 266.27 113.44C266.27 114.144 266.094 114.816 265.742 115.456C265.39 116.112 264.894 116.688 264.254 117.2C263.598 117.712 262.798 118.112 261.87 118.416C260.927 118.719 259.871 118.863 258.687 118.863C257.503 118.863 256.463 118.751 255.567 118.512C254.672 118.288 253.936 117.968 253.36 117.568C252.768 117.184 252.32 116.72 252.032 116.208C251.744 115.696 251.6 115.152 251.6 114.576C251.6 113.776 251.84 113.104 252.352 112.544C252.864 111.985 253.552 111.537 254.448 111.201C253.984 110.993 253.616 110.705 253.344 110.353C253.072 110.001 252.944 109.521 252.944 108.913C252.944 108.689 252.976 108.449 253.072 108.193C253.152 107.937 253.28 107.697 253.456 107.441C253.632 107.201 253.856 106.961 254.112 106.737C254.368 106.513 254.656 106.322 255.008 106.146C254.208 105.698 253.568 105.106 253.12 104.37C252.672 103.634 252.448 102.754 252.448 101.762C252.448 100.978 252.592 100.259 252.896 99.6186C253.2 98.9787 253.632 98.4188 254.176 97.9709C254.72 97.523 255.359 97.171 256.111 96.9151C256.863 96.6751 257.695 96.5471 258.591 96.5471ZM263.646 113.904C263.646 113.504 263.534 113.184 263.31 112.928C263.086 112.688 262.782 112.497 262.398 112.369C262.014 112.241 261.566 112.129 261.071 112.065C260.559 112.001 260.031 111.969 259.487 111.937C258.927 111.905 258.367 111.873 257.791 111.841C257.215 111.809 256.655 111.761 256.143 111.665C255.535 111.953 255.04 112.305 254.656 112.72C254.272 113.136 254.096 113.632 254.096 114.208C254.096 114.576 254.176 114.912 254.368 115.232C254.56 115.552 254.848 115.824 255.231 116.048C255.615 116.272 256.095 116.464 256.671 116.592C257.247 116.72 257.935 116.784 258.735 116.784C259.503 116.784 260.191 116.72 260.799 116.576C261.406 116.448 261.918 116.24 262.334 115.984C262.75 115.728 263.086 115.424 263.31 115.072C263.534 114.72 263.646 114.336 263.646 113.904ZM258.591 105.106C259.167 105.106 259.663 105.026 260.111 104.866C260.559 104.706 260.927 104.482 261.23 104.194C261.518 103.906 261.742 103.57 261.902 103.17C262.046 102.77 262.126 102.322 262.126 101.842C262.126 100.85 261.822 100.067 261.214 99.4746C260.607 98.8987 259.743 98.5948 258.591 98.5948C257.439 98.5948 256.575 98.8987 255.967 99.4746C255.359 100.067 255.071 100.85 255.071 101.842C255.071 102.322 255.135 102.77 255.295 103.17C255.455 103.57 255.679 103.906 255.983 104.194C256.271 104.482 256.639 104.706 257.087 104.866C257.519 105.026 258.015 105.106 258.591 105.106ZM301.678 90.1002L302.109 90.1162V95.1874H300.558C300.174 95.1874 299.966 95.0754 299.934 94.8514C299.886 94.6274 299.79 93.9076 299.662 92.7238H294.271V110.705C294.271 110.705 294.415 110.721 294.671 110.785C295.487 110.945 296.014 111.041 296.238 111.089C296.462 111.137 296.59 111.329 296.59 111.665V113.04H288.864V111.665C288.864 111.329 289.04 111.121 289.392 111.057C289.744 110.977 290.335 110.865 291.167 110.705V92.7238H285.76C285.6 93.9236 285.504 94.6274 285.472 94.8514C285.424 95.0754 285.216 95.1874 284.864 95.1714H283.313V90.1002H300.574H301.678ZM313.145 98.9947C314.664 97.379 316.408 96.5631 318.36 96.5631C320.104 96.5631 321.447 97.123 322.391 98.2429C323.319 99.3467 323.783 100.834 323.783 102.706V110.689C324.807 110.897 325.415 111.025 325.607 111.073C325.927 111.137 326.087 111.329 326.087 111.665V113.04H320.935V102.722C320.935 100.131 319.8 98.8508 317.528 98.8508C315.944 98.8508 314.488 99.6026 313.145 101.106V110.705L313.545 110.785C314.376 110.945 314.84 111.041 314.968 111.073C315.288 111.137 315.448 111.329 315.448 111.665V113.04H307.994V111.665C307.994 111.329 308.153 111.137 308.473 111.073L310.297 110.705V91.8119C309.049 91.6039 308.345 91.476 308.153 91.428C307.834 91.364 307.674 91.172 307.674 90.8361V89.4603H313.145V98.9947ZM339.332 96.5631C340.291 96.5791 341.187 96.7391 342.019 97.059C342.835 97.379 343.539 97.8589 344.147 98.4668C344.739 99.0747 345.203 99.8426 345.539 100.738C345.875 101.634 346.05 102.658 346.05 103.81C346.05 104.258 346.003 104.562 345.907 104.706C345.811 104.866 345.619 104.93 345.363 104.93H334.58C334.596 105.954 334.74 106.849 334.996 107.601C335.252 108.369 335.604 108.993 336.052 109.505C336.5 110.017 337.028 110.385 337.652 110.641C338.26 110.897 338.964 111.009 339.732 111.009C340.435 111.009 341.059 110.929 341.571 110.769C342.083 110.609 342.531 110.417 342.915 110.225C343.283 110.033 343.587 109.857 343.843 109.697C344.099 109.537 344.307 109.441 344.499 109.441C344.723 109.441 344.915 109.537 345.043 109.713L345.843 110.753C345.491 111.185 345.059 111.553 344.579 111.873C344.083 112.193 343.555 112.449 342.995 112.64C342.435 112.848 341.859 113.008 341.267 113.104C340.659 113.2 340.067 113.248 339.492 113.248C338.372 113.248 337.332 113.072 336.388 112.688C335.444 112.305 334.628 111.761 333.94 111.025C333.253 110.289 332.725 109.393 332.341 108.305C331.957 107.233 331.765 106.002 331.765 104.594C331.765 103.474 331.925 102.418 332.277 101.426C332.629 100.45 333.125 99.6026 333.781 98.8827C334.42 98.1629 335.22 97.603 336.164 97.187C337.092 96.7711 338.148 96.5631 339.332 96.5631ZM339.396 98.6588C338.02 98.6588 336.932 99.0587 336.148 99.8586C335.348 100.658 334.868 101.746 334.676 103.154H343.491C343.491 102.498 343.395 101.89 343.219 101.346C343.027 100.802 342.771 100.323 342.419 99.9226C342.067 99.5226 341.635 99.2187 341.123 98.9947C340.611 98.7708 340.035 98.6588 339.396 98.6588ZM381.358 107.905C381.294 107.457 381.262 106.929 381.262 106.354V92.4518C380.014 92.2278 379.31 92.0999 379.134 92.0839C378.814 92.0199 378.654 91.8119 378.654 91.492V90.1162H381.262H383.981H386.301V91.492C386.301 91.8119 386.141 92.0199 385.821 92.0839L383.997 92.4518V113.04H382.429C381.982 113.04 381.614 112.848 381.326 112.481L368.064 95.2194C368.096 95.7633 368.128 96.2592 368.128 96.7071V110.705C369.376 110.913 370.096 111.041 370.255 111.073C370.575 111.137 370.735 111.329 370.735 111.665V113.04H363.105V111.665C363.105 111.329 363.265 111.137 363.585 111.073L365.408 110.705V92.4518C364.384 92.2438 363.777 92.1159 363.585 92.0839C363.265 92.0199 363.105 91.8119 363.105 91.492V90.1162H367.008C367.28 90.1162 367.488 90.1482 367.616 90.2122C367.744 90.2762 367.904 90.4201 368.08 90.6281L381.358 107.905ZM399.27 96.5631C400.23 96.5791 401.126 96.7391 401.958 97.059C402.774 97.379 403.478 97.8589 404.086 98.4668C404.678 99.0747 405.141 99.8426 405.477 100.738C405.813 101.634 405.989 102.658 405.989 103.81C405.989 104.258 405.941 104.562 405.845 104.706C405.749 104.866 405.557 104.93 405.301 104.93H394.519C394.535 105.954 394.679 106.849 394.935 107.601C395.191 108.369 395.543 108.993 395.991 109.505C396.439 110.017 396.967 110.385 397.591 110.641C398.199 110.897 398.903 111.009 399.67 111.009C400.374 111.009 400.998 110.929 401.51 110.769C402.022 110.609 402.47 110.417 402.854 110.225C403.222 110.033 403.526 109.857 403.782 109.697C404.038 109.537 404.246 109.441 404.438 109.441C404.662 109.441 404.854 109.537 404.982 109.713L405.781 110.753C405.429 111.185 404.998 111.553 404.518 111.873C404.022 112.193 403.494 112.449 402.934 112.64C402.374 112.848 401.798 113.008 401.206 113.104C400.598 113.2 400.006 113.248 399.43 113.248C398.311 113.248 397.271 113.072 396.327 112.688C395.383 112.305 394.567 111.761 393.879 111.025C393.191 110.289 392.664 109.393 392.28 108.305C391.896 107.233 391.704 106.002 391.704 104.594C391.704 103.474 391.864 102.418 392.216 101.426C392.568 100.45 393.063 99.6026 393.719 98.8827C394.359 98.1629 395.159 97.603 396.103 97.187C397.031 96.7711 398.087 96.5631 399.27 96.5631ZM399.334 98.6588C397.959 98.6588 396.871 99.0587 396.087 99.8586C395.287 100.658 394.807 101.746 394.615 103.154H403.43C403.43 102.498 403.334 101.89 403.158 101.346C402.966 100.802 402.71 100.323 402.358 99.9226C402.006 99.5226 401.574 99.2187 401.062 98.9947C400.55 98.7708 399.974 98.6588 399.334 98.6588ZM430.887 96.8191H438.118V98.1949C438.118 98.5308 437.958 98.7228 437.638 98.7868C437.51 98.8188 437.238 98.8667 436.822 98.9467C436.39 99.0427 436.118 99.0907 436.038 99.1067L431.543 113.024H429.288C429 113.024 428.808 112.848 428.712 112.481L425.128 101.49C425.016 101.25 424.952 100.994 424.904 100.722C424.84 100.45 424.792 100.211 424.76 100.003C424.696 100.291 424.632 100.546 424.584 100.786C424.536 101.026 424.472 101.266 424.392 101.506L420.761 112.481C420.633 112.848 420.409 113.024 420.105 113.024H417.961L413.45 99.1067C413.354 99.1067 413.178 99.0747 412.922 99.0107C412.298 98.8827 411.946 98.8188 411.85 98.7868C411.53 98.7228 411.37 98.5308 411.37 98.1949V96.8191H418.601V98.1949C418.585 98.5308 418.425 98.7228 418.105 98.7868C417.897 98.8348 417.305 98.9467 416.346 99.1387L418.937 107.841C419.145 108.817 419.289 109.553 419.369 110.049C419.465 109.617 419.673 108.881 419.993 107.841L423.416 97.347C423.528 96.9791 423.784 96.7871 424.184 96.7871H425.416C425.832 96.8031 426.104 96.9791 426.232 97.347L429.575 107.841C429.719 108.305 429.911 109.025 430.151 110.017C430.263 109.281 430.423 108.561 430.631 107.841L433.255 99.1547C433.111 99.1387 432.487 99.0107 431.383 98.7868C431.047 98.7228 430.871 98.5308 430.887 98.1949V96.8191ZM476.863 101.57C476.863 103.298 476.607 104.866 476.063 106.274C475.519 107.681 474.752 108.881 473.76 109.889C471.68 111.985 468.944 113.04 465.585 113.04H455.011V111.665C455.011 111.329 455.171 111.137 455.491 111.073L457.314 110.705V92.4518C456.291 92.2438 455.683 92.1159 455.491 92.0679C455.171 92.0039 455.011 91.8119 455.011 91.476V90.1002H465.585C468.96 90.1002 471.68 91.156 473.744 93.2517C475.823 95.3793 476.863 98.1469 476.863 101.57ZM473.696 101.586C473.696 100.179 473.504 98.9147 473.12 97.8109C472.736 96.6911 472.192 95.7633 471.488 94.9954C470.048 93.4116 468.081 92.6278 465.585 92.6278H460.434V110.529H465.585C468.065 110.529 470.032 109.729 471.488 108.161C472.96 106.561 473.696 104.37 473.696 101.586ZM485.562 93.1557C485.386 92.9637 485.226 92.7558 485.13 92.5158C485.018 92.2758 484.97 92.0199 484.97 91.7479C484.97 91.46 485.018 91.204 485.13 90.9481C485.226 90.6921 485.386 90.4841 485.562 90.2922C485.754 90.1002 485.962 89.9562 486.202 89.8602C486.442 89.7483 486.698 89.7003 486.986 89.7003C487.258 89.7003 487.514 89.7483 487.77 89.8602C488.01 89.9562 488.234 90.1002 488.41 90.2922C488.601 90.4841 488.745 90.6921 488.857 90.9481C488.969 91.204 489.033 91.46 489.033 91.7479C489.033 92.0199 488.969 92.2758 488.857 92.5158C488.745 92.7558 488.601 92.9637 488.41 93.1557C488.234 93.3477 488.01 93.4916 487.77 93.6036C487.514 93.6996 487.258 93.7636 486.986 93.7636C486.698 93.7636 486.442 93.6996 486.202 93.6036C485.962 93.4916 485.754 93.3477 485.562 93.1557ZM490.217 111.057C490.489 111.121 490.697 111.361 490.697 111.649V113.024H483.242V111.649C483.242 111.361 483.434 111.121 483.722 111.057C483.994 111.009 485.546 110.705 485.546 110.705V99.1547C485.546 99.1547 483.994 98.8508 483.722 98.8028C483.434 98.7388 483.242 98.4988 483.242 98.2109V96.8351H488.394V110.705C488.394 110.705 489.929 111.009 490.217 111.057ZM503.033 96.5471C503.737 96.5631 504.393 96.6271 505.001 96.7871C505.609 96.9471 506.169 97.171 506.68 97.459H511.08V98.5148C511.08 98.8667 510.856 99.0907 510.408 99.1867L508.568 99.4427C508.92 100.147 509.112 100.914 509.112 101.762C509.112 102.562 508.952 103.282 508.648 103.922C508.344 104.562 507.928 105.122 507.384 105.57C506.84 106.034 506.201 106.386 505.465 106.625C504.729 106.881 503.913 106.993 503.033 106.993C502.265 106.993 501.561 106.913 500.889 106.721C500.537 106.945 500.282 107.169 500.106 107.409C499.93 107.665 499.85 107.905 499.85 108.129C499.85 108.513 499.994 108.817 500.314 109.009C500.617 109.201 501.033 109.345 501.545 109.425C502.057 109.521 502.633 109.569 503.289 109.585C503.929 109.617 504.601 109.649 505.273 109.697C505.945 109.745 506.616 109.825 507.272 109.937C507.912 110.065 508.504 110.257 509.016 110.513C509.528 110.785 509.928 111.153 510.248 111.617C510.552 112.097 510.712 112.704 510.712 113.44C510.712 114.144 510.536 114.816 510.184 115.456C509.832 116.112 509.336 116.688 508.696 117.2C508.04 117.712 507.24 118.112 506.313 118.416C505.369 118.719 504.313 118.863 503.129 118.863C501.945 118.863 500.905 118.751 500.01 118.512C499.114 118.288 498.378 117.968 497.802 117.568C497.21 117.184 496.762 116.72 496.474 116.208C496.186 115.696 496.042 115.152 496.042 114.576C496.042 113.776 496.282 113.104 496.794 112.544C497.306 111.985 497.994 111.537 498.89 111.201C498.426 110.993 498.058 110.705 497.786 110.353C497.514 110.001 497.386 109.521 497.386 108.913C497.386 108.689 497.418 108.449 497.514 108.193C497.594 107.937 497.722 107.697 497.898 107.441C498.074 107.201 498.298 106.961 498.554 106.737C498.81 106.513 499.098 106.322 499.45 106.146C498.65 105.698 498.01 105.106 497.562 104.37C497.114 103.634 496.89 102.754 496.89 101.762C496.89 100.978 497.034 100.259 497.338 99.6186C497.642 98.9787 498.074 98.4188 498.618 97.9709C499.162 97.523 499.802 97.171 500.553 96.9151C501.305 96.6751 502.137 96.5471 503.033 96.5471ZM508.088 113.904C508.088 113.504 507.976 113.184 507.752 112.928C507.528 112.688 507.224 112.497 506.84 112.369C506.457 112.241 506.009 112.129 505.513 112.065C505.001 112.001 504.473 111.969 503.929 111.937C503.369 111.905 502.809 111.873 502.233 111.841C501.657 111.809 501.097 111.761 500.585 111.665C499.978 111.953 499.482 112.305 499.098 112.72C498.714 113.136 498.538 113.632 498.538 114.208C498.538 114.576 498.618 114.912 498.81 115.232C499.002 115.552 499.29 115.824 499.674 116.048C500.058 116.272 500.537 116.464 501.113 116.592C501.689 116.72 502.377 116.784 503.177 116.784C503.945 116.784 504.633 116.72 505.241 116.576C505.849 116.448 506.361 116.24 506.776 115.984C507.192 115.728 507.528 115.424 507.752 115.072C507.976 114.72 508.088 114.336 508.088 113.904ZM503.033 105.106C503.609 105.106 504.105 105.026 504.553 104.866C505.001 104.706 505.369 104.482 505.673 104.194C505.961 103.906 506.185 103.57 506.345 103.17C506.489 102.77 506.569 102.322 506.569 101.842C506.569 100.85 506.265 100.067 505.657 99.4746C505.049 98.8987 504.185 98.5948 503.033 98.5948C501.881 98.5948 501.017 98.8987 500.41 99.4746C499.802 100.067 499.514 100.85 499.514 101.842C499.514 102.322 499.578 102.77 499.738 103.17C499.898 103.57 500.122 103.906 500.426 104.194C500.713 104.482 501.081 104.706 501.529 104.866C501.961 105.026 502.457 105.106 503.033 105.106ZM519.345 93.1557C519.169 92.9637 519.009 92.7558 518.913 92.5158C518.801 92.2758 518.753 92.0199 518.753 91.7479C518.753 91.46 518.801 91.204 518.913 90.9481C519.009 90.6921 519.169 90.4841 519.345 90.2922C519.537 90.1002 519.745 89.9562 519.985 89.8602C520.225 89.7483 520.481 89.7003 520.769 89.7003C521.041 89.7003 521.297 89.7483 521.553 89.8602C521.793 89.9562 522.017 90.1002 522.193 90.2922C522.385 90.4841 522.529 90.6921 522.641 90.9481C522.753 91.204 522.817 91.46 522.817 91.7479C522.817 92.0199 522.753 92.2758 522.641 92.5158C522.529 92.7558 522.385 92.9637 522.193 93.1557C522.017 93.3477 521.793 93.4916 521.553 93.6036C521.297 93.6996 521.041 93.7636 520.769 93.7636C520.481 93.7636 520.225 93.6996 519.985 93.6036C519.745 93.4916 519.537 93.3477 519.345 93.1557ZM524 111.057C524.272 111.121 524.48 111.361 524.48 111.649V113.024H517.026V111.649C517.026 111.361 517.218 111.121 517.505 111.057C517.777 111.009 519.329 110.705 519.329 110.705V99.1547C519.329 99.1547 517.777 98.8508 517.505 98.8028C517.218 98.7388 517.026 98.4988 517.026 98.2109V96.8351H522.177V110.705C522.177 110.705 523.712 111.009 524 111.057ZM536.352 113.28C535.073 113.28 534.097 112.928 533.409 112.209C532.721 111.505 532.385 110.465 532.385 109.121V99.2027H530.433C530.257 99.2027 530.113 99.1547 530.001 99.0587C529.873 98.9627 529.825 98.8028 529.825 98.5788V97.443L532.481 97.107L533.137 92.0999C533.153 91.9399 533.217 91.8119 533.345 91.7159C533.457 91.6199 533.601 91.556 533.793 91.556H535.233V97.139H539.872V99.2027H535.233V108.929C535.233 109.617 535.392 110.129 535.728 110.449C536.048 110.785 536.48 110.945 537.008 110.945C537.296 110.945 537.552 110.913 537.776 110.833C538 110.753 538.192 110.657 538.352 110.561C538.512 110.465 538.64 110.385 538.752 110.305C538.864 110.225 538.96 110.177 539.056 110.177C539.2 110.177 539.328 110.273 539.456 110.449L540.288 111.809C539.792 112.273 539.2 112.64 538.512 112.896C537.808 113.152 537.088 113.28 536.352 113.28ZM560.293 111.025C560.581 111.089 560.773 111.329 560.773 111.617V112.992H558.71H558.47H557.446C557.174 112.992 556.95 112.96 556.774 112.864C556.598 112.784 556.486 112.608 556.438 112.321L556.118 110.817C555.686 111.201 555.27 111.553 554.87 111.857C554.47 112.161 554.038 112.417 553.591 112.624C553.143 112.832 552.663 112.992 552.167 113.088C551.655 113.2 551.095 113.264 550.471 113.264C549.847 113.264 549.255 113.168 548.711 112.992C548.151 112.816 547.687 112.544 547.272 112.193C546.872 111.841 546.552 111.393 546.312 110.849C546.072 110.321 545.944 109.681 545.944 108.945C545.944 108.289 546.12 107.681 546.472 107.089C546.824 106.497 547.4 105.97 548.183 105.506C548.967 105.042 549.991 104.674 551.255 104.37C552.535 104.082 554.086 103.922 555.91 103.922V102.658C555.91 101.394 555.638 100.434 555.11 99.7786C554.566 99.1387 553.766 98.8028 552.711 98.8028C552.023 98.8028 551.431 98.8987 550.967 99.0747C550.487 99.2507 550.071 99.4427 549.735 99.6666C549.383 99.8906 549.079 100.083 548.839 100.259C548.583 100.434 548.327 100.53 548.087 100.53C547.895 100.53 547.735 100.466 547.591 100.371C547.448 100.275 547.336 100.147 547.24 99.9866L546.728 99.0907C547.623 98.2109 548.583 97.571 549.623 97.155C550.663 96.7231 551.815 96.4991 553.063 96.4991C553.974 96.4991 554.774 96.6591 555.478 96.9631C556.182 97.251 556.774 97.6669 557.254 98.2109C557.734 98.7388 558.102 99.3787 558.342 100.147C558.582 100.898 558.71 101.73 558.71 102.626V110.721C559.158 110.801 560.085 110.993 560.293 111.025ZM555.91 109.089V105.746C554.598 105.746 553.479 105.826 552.567 105.986C551.655 106.162 550.903 106.37 550.327 106.641C549.751 106.913 549.335 107.217 549.079 107.585C548.807 107.953 548.679 108.353 548.679 108.817C548.679 109.233 548.743 109.617 548.887 109.921C549.031 110.225 549.207 110.481 549.447 110.689C549.687 110.881 549.959 111.025 550.279 111.121C550.599 111.217 550.951 111.265 551.319 111.265C551.815 111.265 552.279 111.201 552.695 111.105C553.111 111.009 553.511 110.865 553.878 110.673C554.246 110.481 554.598 110.257 554.934 110.001C555.27 109.729 555.59 109.425 555.91 109.089ZM573.817 111.057C574.137 111.121 574.313 111.329 574.313 111.649V113.024H566.842V111.649C566.842 111.329 567.002 111.121 567.322 111.057L569.145 110.689V91.7959C568.122 91.6039 567.514 91.476 567.322 91.428C567.002 91.364 566.842 91.172 566.842 90.8361V89.4603H571.993V110.689C573.017 110.897 573.625 111.025 573.817 111.057ZM624.365 90.1002L625.724 90.1162V91.492C625.724 91.8119 625.564 92.0199 625.244 92.0839L623.645 92.4518L617.214 113.04H614.43L608.623 95.5553C608.495 95.2194 608.399 94.8354 608.303 94.4035C608.239 94.5955 608.191 94.7874 608.143 94.9954C608.095 95.2034 608.047 95.3953 607.999 95.5553L602.16 113.04H599.377L592.962 92.4518C592.066 92.2438 591.538 92.1159 591.346 92.0679C591.026 92.0039 590.866 91.8119 590.866 91.476V90.1002H598.641V91.476C598.641 91.8119 598.481 92.0199 598.161 92.0679C597.073 92.2918 596.465 92.4198 596.337 92.4358L600.592 106.769C600.72 107.249 600.864 107.905 601.024 108.737C601.216 107.793 601.376 107.137 601.504 106.769L606.895 90.8361C606.959 90.6601 607.071 90.5001 607.263 90.3402C607.455 90.1802 607.679 90.1002 607.951 90.1002H608.847C609.375 90.1162 609.727 90.3562 609.903 90.8361L615.262 106.769C615.454 107.329 615.614 107.969 615.774 108.673C615.838 108.337 615.886 108.001 615.95 107.681C615.998 107.361 616.062 107.057 616.158 106.769L620.429 92.4358C620.301 92.4198 619.693 92.2918 618.622 92.0679C618.286 92.0039 618.11 91.8119 618.126 91.476V90.1002H624.365ZM638.874 96.5631C640.058 96.5631 641.114 96.7711 642.074 97.155C643.034 97.555 643.833 98.1149 644.505 98.8348C645.177 99.5706 645.689 100.45 646.041 101.474C646.393 102.498 646.585 103.65 646.585 104.914C646.585 106.194 646.393 107.345 646.041 108.369C645.689 109.393 645.177 110.273 644.505 110.993C643.833 111.729 643.034 112.289 642.074 112.672C641.114 113.056 640.058 113.248 638.874 113.248C637.69 113.248 636.619 113.056 635.659 112.672C634.699 112.289 633.899 111.729 633.227 110.993C632.555 110.273 632.027 109.393 631.675 108.369C631.307 107.345 631.131 106.194 631.131 104.914C631.131 103.65 631.307 102.498 631.675 101.474C632.027 100.45 632.555 99.5706 633.227 98.8348C633.899 98.1149 634.699 97.555 635.659 97.155C636.619 96.7711 637.69 96.5631 638.874 96.5631ZM638.874 111.025C640.474 111.025 641.658 110.497 642.458 109.425C643.241 108.353 643.641 106.849 643.641 104.93C643.641 103.01 643.241 101.506 642.458 100.418C641.658 99.3467 640.474 98.8028 638.874 98.8028C638.058 98.8188 637.354 98.9467 636.763 99.2187C636.155 99.5066 635.659 99.9066 635.259 100.418C634.859 100.946 634.555 101.586 634.363 102.354C634.171 103.122 634.075 103.97 634.075 104.93C634.075 105.89 634.171 106.753 634.363 107.505C634.555 108.273 634.859 108.913 635.259 109.425C635.659 109.937 636.155 110.337 636.763 110.609C637.354 110.897 638.058 111.025 638.874 111.025ZM657.569 100.131C658.753 97.7309 660.385 96.5311 662.497 96.5311C663.328 96.5311 664.064 96.7231 664.72 97.107L664.352 99.2347C664.272 99.5066 664.128 99.6346 663.936 99.6346C663.728 99.6346 663.472 99.5866 663.168 99.4906C662.848 99.3947 662.417 99.3307 661.873 99.3307C660.017 99.3307 658.625 100.466 657.713 102.706V110.689C657.969 110.753 658.577 110.865 659.537 111.057C659.857 111.121 660.017 111.329 660.017 111.649V113.024H652.562V111.649C652.562 111.329 652.722 111.121 653.042 111.057L654.866 110.689V99.1547C653.842 98.9627 653.234 98.8348 653.042 98.7868C652.722 98.7228 652.562 98.5308 652.562 98.1949V96.8191H654.866H656.498C656.801 96.8351 657.009 96.8831 657.137 96.9951C657.249 97.123 657.329 97.331 657.377 97.603L657.569 100.131ZM677.475 111.057C677.794 111.121 677.97 111.329 677.97 111.649V113.024H670.5V111.649C670.5 111.329 670.66 111.121 670.98 111.057L672.803 110.689V91.7959C671.779 91.6039 671.172 91.476 670.98 91.428C670.66 91.364 670.5 91.172 670.5 90.8361V89.4603H675.651V110.689C676.675 110.897 677.283 111.025 677.475 111.057ZM690.626 96.5311C692.417 96.5311 693.889 97.171 695.057 98.4508V91.7959C693.969 91.6359 693.249 91.508 692.929 91.444C692.593 91.38 692.433 91.172 692.433 90.8361V89.4603H697.904V110.689C698.928 110.897 699.536 111.025 699.728 111.057C700.048 111.121 700.208 111.329 700.208 111.649V113.024H696.209C695.793 113.024 695.537 112.832 695.441 112.433L695.185 110.465C693.649 112.321 691.841 113.248 689.746 113.248C687.842 113.248 686.354 112.544 685.283 111.137C684.163 109.697 683.619 107.649 683.619 104.978C683.619 102.53 684.243 100.53 685.49 98.9627C686.77 97.347 688.482 96.5311 690.626 96.5311ZM690.69 110.945C692.369 110.945 693.825 110.129 695.041 108.497V100.658C694.113 99.3947 692.865 98.7548 691.314 98.7548C689.762 98.7548 688.578 99.2987 687.778 100.371C686.962 101.458 686.562 102.994 686.562 104.978C686.562 108.049 687.346 109.921 688.93 110.609C689.442 110.833 690.018 110.945 690.69 110.945Z" fill="#262626"/>
<path d="M94.8678 97.5343C92.9279 97.5343 91.0507 98.1586 89.4863 99.2825C81.8521 104.84 72.7161 107.774 63.1421 107.774C38.5501 107.774 18.4008 87.7939 18.2757 63.2558C18.1505 38.8425 37.8617 18.675 62.3287 18.2379C72.153 18.0506 81.6018 20.9852 89.4863 26.6671C91.1132 27.8534 92.9905 28.4153 94.9303 28.4153C97.3708 28.4153 99.6235 27.4788 101.376 25.7929C103.253 23.9198 104.254 21.2974 104.004 18.6126C103.816 15.9902 102.439 13.5551 100.312 11.9941C89.236 4.00206 76.1578 -0.181288 62.3912 0.00602635C27.5994 0.443093 -0.371715 28.9773 0.00373592 63.7553C0.379187 98.0962 28.7258 126.006 63.1421 126.006C76.5958 126.006 89.4237 121.885 100.187 114.018C102.377 112.457 103.691 110.022 103.941 107.337C104.129 104.652 103.19 102.092 101.313 100.219C99.6235 98.4708 97.3082 97.5343 94.8678 97.5343ZM12.6439 63.3182C12.8317 90.9783 35.4839 113.456 63.1421 113.456C73.9051 113.456 84.1674 110.147 92.8028 103.903C93.4285 103.466 94.1169 103.216 94.8678 103.216C95.8064 103.216 96.6824 103.591 97.3082 104.215C98.0591 104.964 98.372 105.901 98.3094 106.962C98.2468 108.024 97.6836 108.898 96.8702 109.522C87.0459 116.64 75.4069 120.449 63.1421 120.449C47.9364 120.449 33.5441 114.58 22.7185 103.841C11.893 93.1012 5.82323 78.8028 5.63551 63.6928C5.44778 48.458 11.2673 33.9723 22.0928 22.9832C32.8557 11.9941 47.1855 5.81277 62.4538 5.62545C62.7041 5.62545 62.8918 5.62545 63.1421 5.62545C75.4069 5.62545 87.1084 9.43417 96.9327 16.5521C98.0591 17.3638 98.3094 18.4877 98.3094 19.0496C98.372 20.1111 98.0591 21.0477 97.3082 21.7969C96.6824 22.4213 95.8064 22.7959 94.8678 22.7959C94.1169 22.7959 93.366 22.5462 92.7402 22.1091C83.8545 15.678 73.2793 12.3688 62.2035 12.6185C34.6704 13.118 12.4562 35.8455 12.6439 63.3182Z" fill="#0066FF"/>
<path d="M80.726 79.6769L80.4132 79.3647C78.7236 77.6789 76.5335 76.8047 74.1556 76.8047C72.779 76.8047 71.4023 77.1169 70.1508 77.7413C67.9607 78.8027 65.6454 79.3022 63.1424 79.3022C58.637 79.3022 54.3819 77.4915 51.2531 74.1823C48.1243 70.8731 46.56 66.5649 46.8728 62.0693C47.3734 53.5778 54.4444 46.8345 62.9547 46.772H63.1424C65.6454 46.772 68.0233 47.334 70.2134 48.3954C71.4023 48.9573 72.7164 49.2695 74.0305 49.2695C76.4083 49.2695 78.7862 48.2705 80.4757 46.5847C82.5407 44.5242 83.5419 41.5272 83.0413 38.5926C82.5407 35.658 80.726 33.2854 78.0353 31.9742C73.3422 29.7264 68.3361 28.6025 63.0798 28.6025C53.8187 28.6025 45.0582 32.2864 38.4878 38.9048C31.9174 45.5857 28.3506 54.327 28.5383 63.6303C28.8512 82.3617 44.3073 97.5342 63.0798 97.5342C68.5239 97.5342 73.655 96.3478 78.4733 93.9752C81.0389 92.7264 82.7284 90.3538 83.229 87.5441C83.7296 84.6095 82.791 81.7373 80.726 79.6769ZM41.2411 61.6947C40.8656 67.8136 42.9932 73.5579 47.1857 78.0535C51.3157 82.4241 57.1352 84.9217 63.1424 84.9217C66.4589 84.9217 69.5876 84.2349 72.5287 82.7988C73.8428 82.1744 75.4697 82.3617 76.4083 83.3607L76.7212 83.6729C77.4721 84.4222 77.8476 85.4836 77.6598 86.5451C77.4721 87.5441 76.8464 88.4182 75.9703 88.8553C71.9655 90.8533 67.6478 91.8523 63.1424 91.8523C55.5082 91.8523 48.3121 88.9177 42.868 83.548C37.424 78.1784 34.3578 71.0604 34.2326 63.443C34.1075 55.7007 37.0485 48.3954 42.5552 42.776C48.0618 37.219 55.3831 34.1595 63.1424 34.1595C67.5227 34.1595 71.7778 35.0961 75.6574 36.9692C76.6586 37.4687 77.347 38.3429 77.5347 39.4668C77.7224 40.5906 77.347 41.7145 76.5335 42.5262C75.5323 43.5252 73.9053 43.8374 72.6538 43.2755C69.6502 41.8394 66.4589 41.0902 63.0798 41.0902H62.8295C51.4408 41.2775 41.9294 50.2685 41.2411 61.6947Z" fill="#262626"/>
<path d="M63.1424 59.4471C65.1448 59.4471 66.7092 61.0705 66.7092 63.0061C66.7092 65.0041 65.0822 66.565 63.1424 66.565C61.14 66.565 59.5756 64.9416 59.5756 63.0061C59.5756 61.008 61.14 59.4471 63.1424 59.4471ZM63.1424 55.0764C58.7621 55.0764 55.1953 58.6354 55.1953 63.0061C55.1953 67.3767 58.7621 70.9357 63.1424 70.9357C67.5226 70.9357 71.0894 67.3767 71.0894 63.0061C71.0894 58.6354 67.5226 55.0764 63.1424 55.0764Z" fill="#0066FF"/>
<path d="M94.8674 22.8584C96.7682 22.8584 98.3091 21.3209 98.3091 19.4243C98.3091 17.5277 96.7682 15.9902 94.8674 15.9902C92.9667 15.9902 91.4258 17.5277 91.4258 19.4243C91.4258 21.3209 92.9667 22.8584 94.8674 22.8584Z" fill="#262626"/>
<path d="M94.8674 110.084C96.7682 110.084 98.3091 108.547 98.3091 106.65C98.3091 104.754 96.7682 103.216 94.8674 103.216C92.9667 103.216 91.4258 104.754 91.4258 106.65C91.4258 108.547 92.9667 110.084 94.8674 110.084Z" fill="#262626"/>
<path d="M37.6741 66.4402C39.5748 66.4402 41.1157 64.9027 41.1157 63.0061C41.1157 61.1095 39.5748 59.572 37.6741 59.572C35.7733 59.572 34.2324 61.1095 34.2324 63.0061C34.2324 64.9027 35.7733 66.4402 37.6741 66.4402Z" fill="#0066FF"/>
</svg>
