<svg width="60" height="60" viewBox="0 0 60 60" fill="none" xmlns="http://www.w3.org/2000/svg">
<mask id="path-1-outside-1_4831_1337" maskUnits="userSpaceOnUse" x="10" y="2" width="41" height="55" fill="black">
<rect fill="white" x="10" y="2" width="41" height="55"/>
<path d="M37.2801 28.5696C35.3272 27.5222 32.6425 26.4201 29.7208 25.4666C26.7966 24.513 23.9777 23.8226 21.7774 23.5177C18.44 23.0539 17.7688 23.661 17.5766 24.1795C17.5766 24.1821 17.574 24.1847 17.574 24.1847C17.5714 24.1951 17.5661 24.2029 17.5635 24.2133C17.5161 24.3566 17.4924 24.5312 17.5424 24.737L18.0636 54.2648C18.0767 55.0178 18.5505 55.6614 19.2717 55.9036C19.4638 55.9687 19.6612 56 19.8534 56C20.3824 56 20.8904 55.7629 21.2378 55.333L40.057 31.9389C40.1544 31.8295 40.2123 31.7174 40.2492 31.608C40.4229 31.0817 40.3071 30.1959 37.2776 28.5701L37.2801 28.5696ZM21.9957 24.6224C24.075 24.9428 26.6991 25.602 29.3839 26.4748C32.0686 27.3502 34.5742 28.3637 36.4406 29.3277C38.6147 30.4533 39.0963 31.0734 39.199 31.2609C39.0042 31.3521 38.2435 31.5684 35.8195 31.1958C33.7402 30.8753 31.116 30.2161 28.4313 29.3434C25.7466 28.4679 23.2409 27.4544 21.3746 26.4904C19.2005 25.3649 18.7189 24.7448 18.6162 24.5572C18.8136 24.466 19.5716 24.2498 21.9957 24.6224ZM26.6886 46.8546C24.2118 47.2845 21.6351 47.4538 19.016 47.3704L18.9371 42.8578C20.003 42.9386 21.0637 42.9881 22.1113 42.9881C25.0065 42.9881 27.828 42.6728 30.5472 42.0554L26.6886 46.852L26.6886 46.8546ZM31.6473 40.6901C27.6229 41.7739 23.3461 42.1413 18.9186 41.7921L18.8291 36.6777C20.6215 36.9017 22.3903 37.0216 24.1274 37.0216C28.336 37.0216 32.3706 36.3572 36.187 35.0441L31.6473 40.6901ZM26.1622 29.6874C23.7565 30.1563 21.2614 30.383 18.716 30.3622L18.6397 26.0632C19.0872 26.4071 19.6952 26.8006 20.5348 27.2486C22.0456 28.0589 23.9985 28.9031 26.1594 29.6847L26.1622 29.6874ZM20.4033 54.6709C20.2112 54.908 19.9111 54.9966 19.6216 54.8976C19.3294 54.7986 19.1452 54.5485 19.1399 54.2462L19.0373 48.4335C19.4531 48.4465 19.869 48.4622 20.2822 48.4622C22.1194 48.4622 23.9329 48.3319 25.7042 48.0844L20.4059 54.6735L20.4033 54.6709ZM37.4902 33.4259C31.7524 35.7343 25.4723 36.4664 18.8104 35.6066L18.7367 31.4275C18.8315 31.4275 18.9262 31.4301 19.0184 31.4301C22.1399 31.4301 25.1852 31.0653 28.0884 30.3488C28.091 30.3488 28.0936 30.3514 28.0963 30.3514C31.0204 31.305 33.8393 31.9954 36.0397 32.3003C36.8741 32.415 37.5426 32.4645 38.0795 32.4645C38.1479 32.4645 38.2032 32.4593 38.269 32.4566L37.4926 33.4233L37.4902 33.4259ZM34.6292 10.7114C34.8555 10.7844 34.9766 11.0241 34.9029 11.2481L30.7127 23.8483C30.6521 24.0281 30.4863 24.1401 30.3047 24.1401C30.26 24.1401 30.2152 24.1323 30.1705 24.1193C29.9441 24.0463 29.823 23.8066 29.8967 23.5826L34.087 10.9824C34.1607 10.7583 34.4028 10.6385 34.6292 10.7114ZM46.5972 22.8033C41.8858 21.3391 37.893 22.2145 34.39 25.4791C34.3057 25.5573 34.2004 25.5938 34.0952 25.5938C33.982 25.5938 33.8662 25.5495 33.782 25.4609C33.6188 25.2889 33.6267 25.0206 33.8004 24.8616C37.4984 21.4146 41.8887 20.448 46.8525 21.993C47.0789 22.0634 47.2052 22.3031 47.1342 22.5245C47.0631 22.7486 46.8235 22.8737 46.5972 22.8033ZM21.9664 22.0921C22.0086 22.3239 21.8533 22.5428 21.6217 22.5871C21.5953 22.5923 21.569 22.5949 21.5453 22.5949C21.3427 22.5949 21.161 22.4516 21.1242 22.2458C20.5425 19.062 18.7159 16.988 15.5416 15.9067C15.3179 15.8312 15.1995 15.5889 15.2758 15.3674C15.3521 15.146 15.5969 15.0287 15.8206 15.1043C19.266 16.2793 21.3321 18.6321 21.9664 22.0944L21.9664 22.0921ZM18.6053 8.25196C18.7264 8.05134 18.9896 7.9836 19.1923 8.10345C23.6667 10.7323 25.8724 14.6144 25.7487 19.6404C25.7434 19.8723 25.5513 20.0547 25.3197 20.0547H25.3091C25.0722 20.0495 24.8854 19.8541 24.8906 19.6196C25.0091 14.8568 23.0035 11.3289 18.7554 8.83564C18.5527 8.71578 18.4843 8.45524 18.6053 8.25463L18.6053 8.25196ZM44.0675 15.0206C44.3044 15.044 44.4755 15.2525 44.4518 15.487C44.4281 15.7215 44.2175 15.8908 43.9807 15.8674C40.5143 15.5208 37.8822 16.6907 35.9348 19.4394C35.8506 19.5567 35.719 19.6192 35.5821 19.6192C35.4979 19.6192 35.4111 19.5932 35.3374 19.5411C35.1426 19.4056 35.0952 19.1424 35.2321 18.9496C37.3456 15.9664 40.3172 14.6454 44.0676 15.018L44.0675 15.0206ZM28.591 16.8496C28.9279 13.8638 28.6963 11.2349 27.9015 9.03581C27.8225 8.81435 27.9383 8.57204 28.162 8.49388C28.3858 8.41571 28.6305 8.53035 28.7095 8.75182C29.5491 11.0733 29.7939 13.8298 29.4438 16.9458C29.4201 17.1621 29.2332 17.3236 29.0174 17.3236C29.0016 17.3236 28.9858 17.3236 28.97 17.321C28.7358 17.295 28.5647 17.0839 28.591 16.852L28.591 16.8496ZM16.4209 21.2685L15.7497 21.0496L15.755 20.3487C15.755 20.1637 15.6365 19.9996 15.4602 19.9423C15.2838 19.885 15.0891 19.9475 14.9785 20.096L14.5627 20.6614L13.8915 20.4425C13.7152 20.3852 13.5204 20.4451 13.4099 20.5936C13.2993 20.7421 13.2993 20.9454 13.4072 21.0939L13.8231 21.6619L13.4046 22.2246C13.294 22.3731 13.294 22.5764 13.402 22.7249C13.5099 22.8734 13.7046 22.9385 13.881 22.8812L14.5548 22.6649L14.968 23.2329C15.0496 23.3476 15.1812 23.4101 15.3154 23.4101C15.3602 23.4101 15.4023 23.4023 15.447 23.3893C15.6234 23.3319 15.7445 23.1704 15.7445 22.9854L15.7471 22.2845L16.4209 22.0709C16.5972 22.0162 16.7183 21.852 16.7209 21.667C16.7209 21.4821 16.6025 21.3179 16.4262 21.2606L16.4209 21.2685ZM14.9286 21.7974C14.8812 21.7713 14.8285 21.7531 14.7733 21.7479C14.7838 21.6957 14.7838 21.641 14.7733 21.5863C14.8285 21.5811 14.8812 21.5629 14.9286 21.5368C14.9522 21.5863 14.9838 21.6306 15.0233 21.6671C14.9838 21.7036 14.9496 21.7479 14.9286 21.7974ZM33.6184 9.1872C33.7263 9.33571 33.9211 9.40084 34.0974 9.34352L35.3713 8.93707L36.153 10.0131C36.2346 10.1278 36.3662 10.1903 36.5005 10.1903C36.5452 10.1903 36.5873 10.1825 36.6321 10.1695C36.8084 10.1121 36.9295 9.9506 36.9295 9.76561L36.9321 8.43943L38.2086 8.03819C38.385 7.98348 38.5061 7.81934 38.5087 7.63435C38.5087 7.44937 38.3902 7.28522 38.2139 7.2279L36.94 6.81624L36.9479 5.49005C36.9479 5.30507 36.8295 5.14092 36.6531 5.0836C36.4768 5.02628 36.282 5.08881 36.1715 5.23732L35.3818 6.30818L34.1106 5.89131C33.9342 5.83399 33.7395 5.89392 33.6289 6.04242C33.5184 6.19094 33.5184 6.39416 33.6263 6.54267L34.4107 7.61613L33.6184 8.68438C33.5079 8.83289 33.5079 9.03611 33.6158 9.18463L33.6184 9.1872ZM35.2924 7.37117L35.1029 7.11323L35.4082 7.21484C35.5845 7.27216 35.7793 7.21224 35.8898 7.06112L36.0793 6.80318L36.0767 7.12365C36.0767 7.30864 36.1951 7.47278 36.3715 7.5301L36.6768 7.62911L36.3689 7.72551C36.1899 7.78283 36.0714 7.94437 36.0688 8.12936V8.44983L35.8819 8.18929C35.8004 8.07464 35.6687 8.01212 35.5345 8.01212C35.4898 8.01212 35.445 8.01994 35.4029 8.03296L35.095 8.13197L35.2871 7.87403C35.3976 7.72552 35.3976 7.5223 35.2897 7.37379L35.2924 7.37117ZM45.3913 16.493C45.4992 16.6415 45.694 16.7066 45.8703 16.6493L46.5441 16.433L46.9573 17.001C47.0389 17.1131 47.1705 17.1782 47.3047 17.1782C47.3495 17.1782 47.3916 17.1704 47.4363 17.1573C47.6127 17.1 47.7338 16.9385 47.7338 16.7535L47.7364 16.0526L48.4102 15.839C48.5865 15.7843 48.7076 15.6201 48.7103 15.4351C48.7103 15.2502 48.5918 15.086 48.4155 15.0287L47.7443 14.8098L47.7496 14.109C47.7496 13.924 47.6311 13.7598 47.4548 13.7025C47.2784 13.6452 47.0837 13.7077 46.9731 13.8562L46.5573 14.4216L45.8861 14.2001C45.7097 14.1428 45.515 14.2028 45.4044 14.3513C45.2939 14.4998 45.2939 14.703 45.4018 14.8515L45.8177 15.4195L45.3992 15.9823C45.2886 16.1308 45.2886 16.334 45.3965 16.4825L45.3913 16.493ZM46.7652 15.3518C46.8205 15.3466 46.8731 15.3284 46.9205 15.3023C46.9442 15.3518 46.9758 15.3961 47.0153 15.4326C46.9758 15.4691 46.9415 15.5133 46.9205 15.5628C46.8731 15.5368 46.8205 15.5186 46.7652 15.5133C46.7757 15.4612 46.7757 15.4065 46.7652 15.3518ZM49.6999 24.705L49.0288 24.4862L49.034 23.7853C49.034 23.6003 48.9156 23.4362 48.7393 23.3789C48.5629 23.3215 48.3681 23.3841 48.2576 23.5326L47.8417 24.098L47.1706 23.8765C46.9942 23.8192 46.7995 23.8791 46.6889 24.0276C46.5784 24.1761 46.5784 24.3793 46.6863 24.5279L47.1021 25.0958L46.6837 25.6586C46.5731 25.8071 46.5731 26.0104 46.681 26.1589C46.7889 26.3074 46.9837 26.3725 47.16 26.3152L47.8338 26.0989L48.2471 26.6669C48.3287 26.779 48.4603 26.8441 48.5945 26.8441C48.6392 26.8441 48.6814 26.8363 48.7261 26.8232C48.9024 26.7659 49.0235 26.6044 49.0235 26.4194L49.0261 25.7185L49.6999 25.5049C49.8763 25.4502 49.9974 25.286 50 25.101C50 24.9161 49.8816 24.7519 49.7052 24.6946L49.6999 24.705ZM48.2049 25.2339C48.1575 25.2079 48.1049 25.1897 48.0496 25.1844C48.0602 25.1323 48.0602 25.0776 48.0496 25.0229C48.1049 25.0177 48.1575 24.9995 48.2049 24.9734C48.2286 25.0229 48.2602 25.0672 48.2997 25.1037C48.2602 25.1402 48.226 25.1844 48.2049 25.2339ZM23.2346 9.02003C23.3425 9.16854 23.5373 9.23367 23.7136 9.17636L24.3874 8.9601L24.8007 9.52809C24.8823 9.64012 25.0139 9.70526 25.1481 9.70526C25.1928 9.70526 25.2349 9.69744 25.2797 9.68441C25.456 9.62709 25.5771 9.46556 25.5771 9.28057L25.5797 8.57969L26.2535 8.36605C26.4299 8.31133 26.551 8.14719 26.5536 7.9622C26.5536 7.77722 26.4351 7.61307 26.2588 7.55575L25.5876 7.3369L25.5929 6.63602C25.5929 6.45104 25.4745 6.28689 25.2981 6.22957C25.1218 6.17225 24.927 6.23478 24.8165 6.38329L24.4006 6.94867L23.7294 6.72721C23.5531 6.66989 23.3583 6.72982 23.2478 6.87833C23.1372 7.02684 23.1372 7.23006 23.2451 7.37857L23.661 7.94656L23.2425 8.51194C23.132 8.66045 23.132 8.86367 23.2399 9.01218L23.2346 9.02003ZM24.6085 7.87887C24.6638 7.87366 24.7165 7.85542 24.7638 7.82937C24.7875 7.87887 24.8191 7.92316 24.8586 7.95964C24.8191 7.99611 24.7849 8.0404 24.7638 8.08991C24.7165 8.06385 24.6638 8.04561 24.6085 8.0404C24.6191 7.98829 24.6191 7.93358 24.6085 7.87887ZM15.1147 10.8439C15.2226 10.9924 15.4174 11.0575 15.5938 11.0002L16.2676 10.7839L16.6808 11.3519C16.7624 11.4639 16.894 11.5291 17.0282 11.5291C17.0729 11.5291 17.1151 11.5213 17.1598 11.5082C17.3361 11.4509 17.4572 11.2894 17.4572 11.1044L17.4599 10.4035L18.1337 10.1899C18.31 10.1352 18.4311 9.97101 18.4337 9.78602C18.4337 9.60104 18.3153 9.43689 18.1389 9.37957L17.4678 9.16072L17.473 8.45984C17.473 8.27486 17.3546 8.11071 17.1782 8.05339C17.0019 7.99607 16.8071 8.0586 16.6966 8.20711L16.2807 8.77249L15.6095 8.55103C15.4332 8.49371 15.2384 8.55364 15.1279 8.70214C15.0173 8.85066 15.0173 9.05388 15.1253 9.20239L15.5411 9.77037L15.1226 10.3358C15.0121 10.4843 15.0121 10.6875 15.12 10.836L15.1147 10.8439ZM16.4887 9.70269C16.5439 9.69748 16.5966 9.67924 16.644 9.65319C16.6676 9.70269 16.6992 9.74698 16.7387 9.78346C16.6992 9.81994 16.665 9.86423 16.644 9.91373C16.5966 9.88768 16.5439 9.86944 16.4887 9.86423C16.4992 9.81212 16.4992 9.75741 16.4887 9.70269ZM43.1118 26.789C42.7749 26.6796 42.4143 26.7057 42.0985 26.8646C41.7827 27.0235 41.5458 27.2945 41.4352 27.6254C41.3247 27.9589 41.351 28.3158 41.5115 28.6285C41.6721 28.9411 41.9458 29.1756 42.2801 29.285C42.4169 29.3293 42.5564 29.3528 42.6959 29.3528C42.9012 29.3528 43.1039 29.3059 43.2934 29.2121C43.6092 29.0532 43.8461 28.7822 43.9567 28.4513C44.0672 28.1178 44.0409 27.7608 43.8803 27.4482C43.7198 27.1356 43.4461 26.9011 43.1118 26.7916V26.789ZM43.1408 28.1829C43.1013 28.3002 43.0197 28.3966 42.9065 28.4513C42.796 28.506 42.667 28.5164 42.5485 28.4773C42.3038 28.3966 42.1695 28.1334 42.2511 27.8911C42.3169 27.6957 42.4985 27.5732 42.6959 27.5732C42.7433 27.5732 42.7933 27.5811 42.8433 27.5967C42.9618 27.6358 43.0592 27.7166 43.1144 27.8286C43.1697 27.938 43.1802 28.0657 43.1408 28.1829ZM13.5886 15.4841C13.6992 15.1506 13.6728 14.7936 13.5123 14.481C13.3517 14.1683 13.078 13.9338 12.7438 13.8244C12.0489 13.5977 11.2962 13.9729 11.0671 14.6607C10.9566 14.9942 10.9829 15.3512 11.1435 15.6638C11.304 15.9765 11.5777 16.211 11.912 16.3204C12.0489 16.3647 12.1884 16.3855 12.3252 16.3855C12.8832 16.3855 13.4044 16.0338 13.586 15.4814L13.5886 15.4841ZM12.7727 15.2183C12.6911 15.4606 12.4253 15.5935 12.1805 15.5127C12.0621 15.4736 11.9647 15.3929 11.9094 15.2808C11.8541 15.1714 11.8436 15.0437 11.8831 14.9265C11.9489 14.7311 12.1305 14.6086 12.3279 14.6086C12.3753 14.6086 12.4253 14.6164 12.4753 14.6321C12.5937 14.6712 12.6911 14.7519 12.7464 14.864C12.8017 14.9734 12.8122 15.1011 12.7727 15.2183ZM39.664 12.8603C39.8009 12.9046 39.9404 12.9281 40.0799 12.9281C40.2852 12.9281 40.4879 12.8812 40.6774 12.7874C40.9932 12.6285 41.2301 12.3575 41.3406 12.0266C41.4512 11.6931 41.4249 11.3361 41.2643 11.0235C41.1038 10.7109 40.83 10.4764 40.4958 10.367C40.1589 10.2575 39.7983 10.2836 39.4824 10.4425C39.1666 10.6014 38.9297 10.8724 38.8192 11.2033C38.7086 11.5368 38.7349 11.8938 38.8955 12.2064C39.056 12.519 39.3298 12.7535 39.664 12.8629L39.664 12.8603ZM39.6351 11.4665C39.7009 11.2711 39.8825 11.1486 40.0799 11.1486C40.1273 11.1486 40.1773 11.1564 40.2273 11.172C40.3457 11.2111 40.4431 11.2919 40.4984 11.4039C40.5536 11.5134 40.5642 11.641 40.5247 11.7583C40.4852 11.8755 40.4036 11.9719 40.2904 12.0266C40.1799 12.0813 40.0509 12.0918 39.9325 12.0527C39.814 12.0136 39.7167 11.9328 39.6614 11.8208C39.6061 11.7114 39.5956 11.5837 39.6351 11.4665ZM28.5672 5.56511C28.7041 5.6094 28.8436 5.63025 28.9805 5.63025C29.5385 5.63025 30.057 5.27852 30.2412 4.72614C30.4702 4.03834 30.0912 3.29317 29.3963 3.06646C29.0594 2.95703 28.6988 2.98309 28.383 3.14202C28.0672 3.30095 27.8303 3.57191 27.7197 3.90279C27.4908 4.59059 27.8698 5.33576 28.5646 5.56247L28.5672 5.56511ZM28.5383 4.17123C28.6041 3.97582 28.7857 3.85337 28.9831 3.85337C29.0305 3.85337 29.0805 3.86118 29.1305 3.87682C29.2489 3.9159 29.3463 3.99667 29.4016 4.1087C29.4569 4.21813 29.4674 4.3458 29.4279 4.46304C29.3463 4.70535 29.0805 4.83823 28.8357 4.75746C28.5909 4.67669 28.4567 4.41353 28.5383 4.17123Z"/>
</mask>
<path d="M37.2801 28.5696C35.3272 27.5222 32.6425 26.4201 29.7208 25.4666C26.7966 24.513 23.9777 23.8226 21.7774 23.5177C18.44 23.0539 17.7688 23.661 17.5766 24.1795C17.5766 24.1821 17.574 24.1847 17.574 24.1847C17.5714 24.1951 17.5661 24.2029 17.5635 24.2133C17.5161 24.3566 17.4924 24.5312 17.5424 24.737L18.0636 54.2648C18.0767 55.0178 18.5505 55.6614 19.2717 55.9036C19.4638 55.9687 19.6612 56 19.8534 56C20.3824 56 20.8904 55.7629 21.2378 55.333L40.057 31.9389C40.1544 31.8295 40.2123 31.7174 40.2492 31.608C40.4229 31.0817 40.3071 30.1959 37.2776 28.5701L37.2801 28.5696ZM21.9957 24.6224C24.075 24.9428 26.6991 25.602 29.3839 26.4748C32.0686 27.3502 34.5742 28.3637 36.4406 29.3277C38.6147 30.4533 39.0963 31.0734 39.199 31.2609C39.0042 31.3521 38.2435 31.5684 35.8195 31.1958C33.7402 30.8753 31.116 30.2161 28.4313 29.3434C25.7466 28.4679 23.2409 27.4544 21.3746 26.4904C19.2005 25.3649 18.7189 24.7448 18.6162 24.5572C18.8136 24.466 19.5716 24.2498 21.9957 24.6224ZM26.6886 46.8546C24.2118 47.2845 21.6351 47.4538 19.016 47.3704L18.9371 42.8578C20.003 42.9386 21.0637 42.9881 22.1113 42.9881C25.0065 42.9881 27.828 42.6728 30.5472 42.0554L26.6886 46.852L26.6886 46.8546ZM31.6473 40.6901C27.6229 41.7739 23.3461 42.1413 18.9186 41.7921L18.8291 36.6777C20.6215 36.9017 22.3903 37.0216 24.1274 37.0216C28.336 37.0216 32.3706 36.3572 36.187 35.0441L31.6473 40.6901ZM26.1622 29.6874C23.7565 30.1563 21.2614 30.383 18.716 30.3622L18.6397 26.0632C19.0872 26.4071 19.6952 26.8006 20.5348 27.2486C22.0456 28.0589 23.9985 28.9031 26.1594 29.6847L26.1622 29.6874ZM20.4033 54.6709C20.2112 54.908 19.9111 54.9966 19.6216 54.8976C19.3294 54.7986 19.1452 54.5485 19.1399 54.2462L19.0373 48.4335C19.4531 48.4465 19.869 48.4622 20.2822 48.4622C22.1194 48.4622 23.9329 48.3319 25.7042 48.0844L20.4059 54.6735L20.4033 54.6709ZM37.4902 33.4259C31.7524 35.7343 25.4723 36.4664 18.8104 35.6066L18.7367 31.4275C18.8315 31.4275 18.9262 31.4301 19.0184 31.4301C22.1399 31.4301 25.1852 31.0653 28.0884 30.3488C28.091 30.3488 28.0936 30.3514 28.0963 30.3514C31.0204 31.305 33.8393 31.9954 36.0397 32.3003C36.8741 32.415 37.5426 32.4645 38.0795 32.4645C38.1479 32.4645 38.2032 32.4593 38.269 32.4566L37.4926 33.4233L37.4902 33.4259ZM34.6292 10.7114C34.8555 10.7844 34.9766 11.0241 34.9029 11.2481L30.7127 23.8483C30.6521 24.0281 30.4863 24.1401 30.3047 24.1401C30.26 24.1401 30.2152 24.1323 30.1705 24.1193C29.9441 24.0463 29.823 23.8066 29.8967 23.5826L34.087 10.9824C34.1607 10.7583 34.4028 10.6385 34.6292 10.7114ZM46.5972 22.8033C41.8858 21.3391 37.893 22.2145 34.39 25.4791C34.3057 25.5573 34.2004 25.5938 34.0952 25.5938C33.982 25.5938 33.8662 25.5495 33.782 25.4609C33.6188 25.2889 33.6267 25.0206 33.8004 24.8616C37.4984 21.4146 41.8887 20.448 46.8525 21.993C47.0789 22.0634 47.2052 22.3031 47.1342 22.5245C47.0631 22.7486 46.8235 22.8737 46.5972 22.8033ZM21.9664 22.0921C22.0086 22.3239 21.8533 22.5428 21.6217 22.5871C21.5953 22.5923 21.569 22.5949 21.5453 22.5949C21.3427 22.5949 21.161 22.4516 21.1242 22.2458C20.5425 19.062 18.7159 16.988 15.5416 15.9067C15.3179 15.8312 15.1995 15.5889 15.2758 15.3674C15.3521 15.146 15.5969 15.0287 15.8206 15.1043C19.266 16.2793 21.3321 18.6321 21.9664 22.0944L21.9664 22.0921ZM18.6053 8.25196C18.7264 8.05134 18.9896 7.9836 19.1923 8.10345C23.6667 10.7323 25.8724 14.6144 25.7487 19.6404C25.7434 19.8723 25.5513 20.0547 25.3197 20.0547H25.3091C25.0722 20.0495 24.8854 19.8541 24.8906 19.6196C25.0091 14.8568 23.0035 11.3289 18.7554 8.83564C18.5527 8.71578 18.4843 8.45524 18.6053 8.25463L18.6053 8.25196ZM44.0675 15.0206C44.3044 15.044 44.4755 15.2525 44.4518 15.487C44.4281 15.7215 44.2175 15.8908 43.9807 15.8674C40.5143 15.5208 37.8822 16.6907 35.9348 19.4394C35.8506 19.5567 35.719 19.6192 35.5821 19.6192C35.4979 19.6192 35.4111 19.5932 35.3374 19.5411C35.1426 19.4056 35.0952 19.1424 35.2321 18.9496C37.3456 15.9664 40.3172 14.6454 44.0676 15.018L44.0675 15.0206ZM28.591 16.8496C28.9279 13.8638 28.6963 11.2349 27.9015 9.03581C27.8225 8.81435 27.9383 8.57204 28.162 8.49388C28.3858 8.41571 28.6305 8.53035 28.7095 8.75182C29.5491 11.0733 29.7939 13.8298 29.4438 16.9458C29.4201 17.1621 29.2332 17.3236 29.0174 17.3236C29.0016 17.3236 28.9858 17.3236 28.97 17.321C28.7358 17.295 28.5647 17.0839 28.591 16.852L28.591 16.8496ZM16.4209 21.2685L15.7497 21.0496L15.755 20.3487C15.755 20.1637 15.6365 19.9996 15.4602 19.9423C15.2838 19.885 15.0891 19.9475 14.9785 20.096L14.5627 20.6614L13.8915 20.4425C13.7152 20.3852 13.5204 20.4451 13.4099 20.5936C13.2993 20.7421 13.2993 20.9454 13.4072 21.0939L13.8231 21.6619L13.4046 22.2246C13.294 22.3731 13.294 22.5764 13.402 22.7249C13.5099 22.8734 13.7046 22.9385 13.881 22.8812L14.5548 22.6649L14.968 23.2329C15.0496 23.3476 15.1812 23.4101 15.3154 23.4101C15.3602 23.4101 15.4023 23.4023 15.447 23.3893C15.6234 23.3319 15.7445 23.1704 15.7445 22.9854L15.7471 22.2845L16.4209 22.0709C16.5972 22.0162 16.7183 21.852 16.7209 21.667C16.7209 21.4821 16.6025 21.3179 16.4262 21.2606L16.4209 21.2685ZM14.9286 21.7974C14.8812 21.7713 14.8285 21.7531 14.7733 21.7479C14.7838 21.6957 14.7838 21.641 14.7733 21.5863C14.8285 21.5811 14.8812 21.5629 14.9286 21.5368C14.9522 21.5863 14.9838 21.6306 15.0233 21.6671C14.9838 21.7036 14.9496 21.7479 14.9286 21.7974ZM33.6184 9.1872C33.7263 9.33571 33.9211 9.40084 34.0974 9.34352L35.3713 8.93707L36.153 10.0131C36.2346 10.1278 36.3662 10.1903 36.5005 10.1903C36.5452 10.1903 36.5873 10.1825 36.6321 10.1695C36.8084 10.1121 36.9295 9.9506 36.9295 9.76561L36.9321 8.43943L38.2086 8.03819C38.385 7.98348 38.5061 7.81934 38.5087 7.63435C38.5087 7.44937 38.3902 7.28522 38.2139 7.2279L36.94 6.81624L36.9479 5.49005C36.9479 5.30507 36.8295 5.14092 36.6531 5.0836C36.4768 5.02628 36.282 5.08881 36.1715 5.23732L35.3818 6.30818L34.1106 5.89131C33.9342 5.83399 33.7395 5.89392 33.6289 6.04242C33.5184 6.19094 33.5184 6.39416 33.6263 6.54267L34.4107 7.61613L33.6184 8.68438C33.5079 8.83289 33.5079 9.03611 33.6158 9.18463L33.6184 9.1872ZM35.2924 7.37117L35.1029 7.11323L35.4082 7.21484C35.5845 7.27216 35.7793 7.21224 35.8898 7.06112L36.0793 6.80318L36.0767 7.12365C36.0767 7.30864 36.1951 7.47278 36.3715 7.5301L36.6768 7.62911L36.3689 7.72551C36.1899 7.78283 36.0714 7.94437 36.0688 8.12936V8.44983L35.8819 8.18929C35.8004 8.07464 35.6687 8.01212 35.5345 8.01212C35.4898 8.01212 35.445 8.01994 35.4029 8.03296L35.095 8.13197L35.2871 7.87403C35.3976 7.72552 35.3976 7.5223 35.2897 7.37379L35.2924 7.37117ZM45.3913 16.493C45.4992 16.6415 45.694 16.7066 45.8703 16.6493L46.5441 16.433L46.9573 17.001C47.0389 17.1131 47.1705 17.1782 47.3047 17.1782C47.3495 17.1782 47.3916 17.1704 47.4363 17.1573C47.6127 17.1 47.7338 16.9385 47.7338 16.7535L47.7364 16.0526L48.4102 15.839C48.5865 15.7843 48.7076 15.6201 48.7103 15.4351C48.7103 15.2502 48.5918 15.086 48.4155 15.0287L47.7443 14.8098L47.7496 14.109C47.7496 13.924 47.6311 13.7598 47.4548 13.7025C47.2784 13.6452 47.0837 13.7077 46.9731 13.8562L46.5573 14.4216L45.8861 14.2001C45.7097 14.1428 45.515 14.2028 45.4044 14.3513C45.2939 14.4998 45.2939 14.703 45.4018 14.8515L45.8177 15.4195L45.3992 15.9823C45.2886 16.1308 45.2886 16.334 45.3965 16.4825L45.3913 16.493ZM46.7652 15.3518C46.8205 15.3466 46.8731 15.3284 46.9205 15.3023C46.9442 15.3518 46.9758 15.3961 47.0153 15.4326C46.9758 15.4691 46.9415 15.5133 46.9205 15.5628C46.8731 15.5368 46.8205 15.5186 46.7652 15.5133C46.7757 15.4612 46.7757 15.4065 46.7652 15.3518ZM49.6999 24.705L49.0288 24.4862L49.034 23.7853C49.034 23.6003 48.9156 23.4362 48.7393 23.3789C48.5629 23.3215 48.3681 23.3841 48.2576 23.5326L47.8417 24.098L47.1706 23.8765C46.9942 23.8192 46.7995 23.8791 46.6889 24.0276C46.5784 24.1761 46.5784 24.3793 46.6863 24.5279L47.1021 25.0958L46.6837 25.6586C46.5731 25.8071 46.5731 26.0104 46.681 26.1589C46.7889 26.3074 46.9837 26.3725 47.16 26.3152L47.8338 26.0989L48.2471 26.6669C48.3287 26.779 48.4603 26.8441 48.5945 26.8441C48.6392 26.8441 48.6814 26.8363 48.7261 26.8232C48.9024 26.7659 49.0235 26.6044 49.0235 26.4194L49.0261 25.7185L49.6999 25.5049C49.8763 25.4502 49.9974 25.286 50 25.101C50 24.9161 49.8816 24.7519 49.7052 24.6946L49.6999 24.705ZM48.2049 25.2339C48.1575 25.2079 48.1049 25.1897 48.0496 25.1844C48.0602 25.1323 48.0602 25.0776 48.0496 25.0229C48.1049 25.0177 48.1575 24.9995 48.2049 24.9734C48.2286 25.0229 48.2602 25.0672 48.2997 25.1037C48.2602 25.1402 48.226 25.1844 48.2049 25.2339ZM23.2346 9.02003C23.3425 9.16854 23.5373 9.23367 23.7136 9.17636L24.3874 8.9601L24.8007 9.52809C24.8823 9.64012 25.0139 9.70526 25.1481 9.70526C25.1928 9.70526 25.2349 9.69744 25.2797 9.68441C25.456 9.62709 25.5771 9.46556 25.5771 9.28057L25.5797 8.57969L26.2535 8.36605C26.4299 8.31133 26.551 8.14719 26.5536 7.9622C26.5536 7.77722 26.4351 7.61307 26.2588 7.55575L25.5876 7.3369L25.5929 6.63602C25.5929 6.45104 25.4745 6.28689 25.2981 6.22957C25.1218 6.17225 24.927 6.23478 24.8165 6.38329L24.4006 6.94867L23.7294 6.72721C23.5531 6.66989 23.3583 6.72982 23.2478 6.87833C23.1372 7.02684 23.1372 7.23006 23.2451 7.37857L23.661 7.94656L23.2425 8.51194C23.132 8.66045 23.132 8.86367 23.2399 9.01218L23.2346 9.02003ZM24.6085 7.87887C24.6638 7.87366 24.7165 7.85542 24.7638 7.82937C24.7875 7.87887 24.8191 7.92316 24.8586 7.95964C24.8191 7.99611 24.7849 8.0404 24.7638 8.08991C24.7165 8.06385 24.6638 8.04561 24.6085 8.0404C24.6191 7.98829 24.6191 7.93358 24.6085 7.87887ZM15.1147 10.8439C15.2226 10.9924 15.4174 11.0575 15.5938 11.0002L16.2676 10.7839L16.6808 11.3519C16.7624 11.4639 16.894 11.5291 17.0282 11.5291C17.0729 11.5291 17.1151 11.5213 17.1598 11.5082C17.3361 11.4509 17.4572 11.2894 17.4572 11.1044L17.4599 10.4035L18.1337 10.1899C18.31 10.1352 18.4311 9.97101 18.4337 9.78602C18.4337 9.60104 18.3153 9.43689 18.1389 9.37957L17.4678 9.16072L17.473 8.45984C17.473 8.27486 17.3546 8.11071 17.1782 8.05339C17.0019 7.99607 16.8071 8.0586 16.6966 8.20711L16.2807 8.77249L15.6095 8.55103C15.4332 8.49371 15.2384 8.55364 15.1279 8.70214C15.0173 8.85066 15.0173 9.05388 15.1253 9.20239L15.5411 9.77037L15.1226 10.3358C15.0121 10.4843 15.0121 10.6875 15.12 10.836L15.1147 10.8439ZM16.4887 9.70269C16.5439 9.69748 16.5966 9.67924 16.644 9.65319C16.6676 9.70269 16.6992 9.74698 16.7387 9.78346C16.6992 9.81994 16.665 9.86423 16.644 9.91373C16.5966 9.88768 16.5439 9.86944 16.4887 9.86423C16.4992 9.81212 16.4992 9.75741 16.4887 9.70269ZM43.1118 26.789C42.7749 26.6796 42.4143 26.7057 42.0985 26.8646C41.7827 27.0235 41.5458 27.2945 41.4352 27.6254C41.3247 27.9589 41.351 28.3158 41.5115 28.6285C41.6721 28.9411 41.9458 29.1756 42.2801 29.285C42.4169 29.3293 42.5564 29.3528 42.6959 29.3528C42.9012 29.3528 43.1039 29.3059 43.2934 29.2121C43.6092 29.0532 43.8461 28.7822 43.9567 28.4513C44.0672 28.1178 44.0409 27.7608 43.8803 27.4482C43.7198 27.1356 43.4461 26.9011 43.1118 26.7916V26.789ZM43.1408 28.1829C43.1013 28.3002 43.0197 28.3966 42.9065 28.4513C42.796 28.506 42.667 28.5164 42.5485 28.4773C42.3038 28.3966 42.1695 28.1334 42.2511 27.8911C42.3169 27.6957 42.4985 27.5732 42.6959 27.5732C42.7433 27.5732 42.7933 27.5811 42.8433 27.5967C42.9618 27.6358 43.0592 27.7166 43.1144 27.8286C43.1697 27.938 43.1802 28.0657 43.1408 28.1829ZM13.5886 15.4841C13.6992 15.1506 13.6728 14.7936 13.5123 14.481C13.3517 14.1683 13.078 13.9338 12.7438 13.8244C12.0489 13.5977 11.2962 13.9729 11.0671 14.6607C10.9566 14.9942 10.9829 15.3512 11.1435 15.6638C11.304 15.9765 11.5777 16.211 11.912 16.3204C12.0489 16.3647 12.1884 16.3855 12.3252 16.3855C12.8832 16.3855 13.4044 16.0338 13.586 15.4814L13.5886 15.4841ZM12.7727 15.2183C12.6911 15.4606 12.4253 15.5935 12.1805 15.5127C12.0621 15.4736 11.9647 15.3929 11.9094 15.2808C11.8541 15.1714 11.8436 15.0437 11.8831 14.9265C11.9489 14.7311 12.1305 14.6086 12.3279 14.6086C12.3753 14.6086 12.4253 14.6164 12.4753 14.6321C12.5937 14.6712 12.6911 14.7519 12.7464 14.864C12.8017 14.9734 12.8122 15.1011 12.7727 15.2183ZM39.664 12.8603C39.8009 12.9046 39.9404 12.9281 40.0799 12.9281C40.2852 12.9281 40.4879 12.8812 40.6774 12.7874C40.9932 12.6285 41.2301 12.3575 41.3406 12.0266C41.4512 11.6931 41.4249 11.3361 41.2643 11.0235C41.1038 10.7109 40.83 10.4764 40.4958 10.367C40.1589 10.2575 39.7983 10.2836 39.4824 10.4425C39.1666 10.6014 38.9297 10.8724 38.8192 11.2033C38.7086 11.5368 38.7349 11.8938 38.8955 12.2064C39.056 12.519 39.3298 12.7535 39.664 12.8629L39.664 12.8603ZM39.6351 11.4665C39.7009 11.2711 39.8825 11.1486 40.0799 11.1486C40.1273 11.1486 40.1773 11.1564 40.2273 11.172C40.3457 11.2111 40.4431 11.2919 40.4984 11.4039C40.5536 11.5134 40.5642 11.641 40.5247 11.7583C40.4852 11.8755 40.4036 11.9719 40.2904 12.0266C40.1799 12.0813 40.0509 12.0918 39.9325 12.0527C39.814 12.0136 39.7167 11.9328 39.6614 11.8208C39.6061 11.7114 39.5956 11.5837 39.6351 11.4665ZM28.5672 5.56511C28.7041 5.6094 28.8436 5.63025 28.9805 5.63025C29.5385 5.63025 30.057 5.27852 30.2412 4.72614C30.4702 4.03834 30.0912 3.29317 29.3963 3.06646C29.0594 2.95703 28.6988 2.98309 28.383 3.14202C28.0672 3.30095 27.8303 3.57191 27.7197 3.90279C27.4908 4.59059 27.8698 5.33576 28.5646 5.56247L28.5672 5.56511ZM28.5383 4.17123C28.6041 3.97582 28.7857 3.85337 28.9831 3.85337C29.0305 3.85337 29.0805 3.86118 29.1305 3.87682C29.2489 3.9159 29.3463 3.99667 29.4016 4.1087C29.4569 4.21813 29.4674 4.3458 29.4279 4.46304C29.3463 4.70535 29.0805 4.83823 28.8357 4.75746C28.5909 4.67669 28.4567 4.41353 28.5383 4.17123Z" fill="#0066FF"/>
<path d="M37.2801 28.5696C35.3272 27.5222 32.6425 26.4201 29.7208 25.4666C26.7966 24.513 23.9777 23.8226 21.7774 23.5177C18.44 23.0539 17.7688 23.661 17.5766 24.1795C17.5766 24.1821 17.574 24.1847 17.574 24.1847C17.5714 24.1951 17.5661 24.2029 17.5635 24.2133C17.5161 24.3566 17.4924 24.5312 17.5424 24.737L18.0636 54.2648C18.0767 55.0178 18.5505 55.6614 19.2717 55.9036C19.4638 55.9687 19.6612 56 19.8534 56C20.3824 56 20.8904 55.7629 21.2378 55.333L40.057 31.9389C40.1544 31.8295 40.2123 31.7174 40.2492 31.608C40.4229 31.0817 40.3071 30.1959 37.2776 28.5701L37.2801 28.5696ZM21.9957 24.6224C24.075 24.9428 26.6991 25.602 29.3839 26.4748C32.0686 27.3502 34.5742 28.3637 36.4406 29.3277C38.6147 30.4533 39.0963 31.0734 39.199 31.2609C39.0042 31.3521 38.2435 31.5684 35.8195 31.1958C33.7402 30.8753 31.116 30.2161 28.4313 29.3434C25.7466 28.4679 23.2409 27.4544 21.3746 26.4904C19.2005 25.3649 18.7189 24.7448 18.6162 24.5572C18.8136 24.466 19.5716 24.2498 21.9957 24.6224ZM26.6886 46.8546C24.2118 47.2845 21.6351 47.4538 19.016 47.3704L18.9371 42.8578C20.003 42.9386 21.0637 42.9881 22.1113 42.9881C25.0065 42.9881 27.828 42.6728 30.5472 42.0554L26.6886 46.852L26.6886 46.8546ZM31.6473 40.6901C27.6229 41.7739 23.3461 42.1413 18.9186 41.7921L18.8291 36.6777C20.6215 36.9017 22.3903 37.0216 24.1274 37.0216C28.336 37.0216 32.3706 36.3572 36.187 35.0441L31.6473 40.6901ZM26.1622 29.6874C23.7565 30.1563 21.2614 30.383 18.716 30.3622L18.6397 26.0632C19.0872 26.4071 19.6952 26.8006 20.5348 27.2486C22.0456 28.0589 23.9985 28.9031 26.1594 29.6847L26.1622 29.6874ZM20.4033 54.6709C20.2112 54.908 19.9111 54.9966 19.6216 54.8976C19.3294 54.7986 19.1452 54.5485 19.1399 54.2462L19.0373 48.4335C19.4531 48.4465 19.869 48.4622 20.2822 48.4622C22.1194 48.4622 23.9329 48.3319 25.7042 48.0844L20.4059 54.6735L20.4033 54.6709ZM37.4902 33.4259C31.7524 35.7343 25.4723 36.4664 18.8104 35.6066L18.7367 31.4275C18.8315 31.4275 18.9262 31.4301 19.0184 31.4301C22.1399 31.4301 25.1852 31.0653 28.0884 30.3488C28.091 30.3488 28.0936 30.3514 28.0963 30.3514C31.0204 31.305 33.8393 31.9954 36.0397 32.3003C36.8741 32.415 37.5426 32.4645 38.0795 32.4645C38.1479 32.4645 38.2032 32.4593 38.269 32.4566L37.4926 33.4233L37.4902 33.4259ZM34.6292 10.7114C34.8555 10.7844 34.9766 11.0241 34.9029 11.2481L30.7127 23.8483C30.6521 24.0281 30.4863 24.1401 30.3047 24.1401C30.26 24.1401 30.2152 24.1323 30.1705 24.1193C29.9441 24.0463 29.823 23.8066 29.8967 23.5826L34.087 10.9824C34.1607 10.7583 34.4028 10.6385 34.6292 10.7114ZM46.5972 22.8033C41.8858 21.3391 37.893 22.2145 34.39 25.4791C34.3057 25.5573 34.2004 25.5938 34.0952 25.5938C33.982 25.5938 33.8662 25.5495 33.782 25.4609C33.6188 25.2889 33.6267 25.0206 33.8004 24.8616C37.4984 21.4146 41.8887 20.448 46.8525 21.993C47.0789 22.0634 47.2052 22.3031 47.1342 22.5245C47.0631 22.7486 46.8235 22.8737 46.5972 22.8033ZM21.9664 22.0921C22.0086 22.3239 21.8533 22.5428 21.6217 22.5871C21.5953 22.5923 21.569 22.5949 21.5453 22.5949C21.3427 22.5949 21.161 22.4516 21.1242 22.2458C20.5425 19.062 18.7159 16.988 15.5416 15.9067C15.3179 15.8312 15.1995 15.5889 15.2758 15.3674C15.3521 15.146 15.5969 15.0287 15.8206 15.1043C19.266 16.2793 21.3321 18.6321 21.9664 22.0944L21.9664 22.0921ZM18.6053 8.25196C18.7264 8.05134 18.9896 7.9836 19.1923 8.10345C23.6667 10.7323 25.8724 14.6144 25.7487 19.6404C25.7434 19.8723 25.5513 20.0547 25.3197 20.0547H25.3091C25.0722 20.0495 24.8854 19.8541 24.8906 19.6196C25.0091 14.8568 23.0035 11.3289 18.7554 8.83564C18.5527 8.71578 18.4843 8.45524 18.6053 8.25463L18.6053 8.25196ZM44.0675 15.0206C44.3044 15.044 44.4755 15.2525 44.4518 15.487C44.4281 15.7215 44.2175 15.8908 43.9807 15.8674C40.5143 15.5208 37.8822 16.6907 35.9348 19.4394C35.8506 19.5567 35.719 19.6192 35.5821 19.6192C35.4979 19.6192 35.4111 19.5932 35.3374 19.5411C35.1426 19.4056 35.0952 19.1424 35.2321 18.9496C37.3456 15.9664 40.3172 14.6454 44.0676 15.018L44.0675 15.0206ZM28.591 16.8496C28.9279 13.8638 28.6963 11.2349 27.9015 9.03581C27.8225 8.81435 27.9383 8.57204 28.162 8.49388C28.3858 8.41571 28.6305 8.53035 28.7095 8.75182C29.5491 11.0733 29.7939 13.8298 29.4438 16.9458C29.4201 17.1621 29.2332 17.3236 29.0174 17.3236C29.0016 17.3236 28.9858 17.3236 28.97 17.321C28.7358 17.295 28.5647 17.0839 28.591 16.852L28.591 16.8496ZM16.4209 21.2685L15.7497 21.0496L15.755 20.3487C15.755 20.1637 15.6365 19.9996 15.4602 19.9423C15.2838 19.885 15.0891 19.9475 14.9785 20.096L14.5627 20.6614L13.8915 20.4425C13.7152 20.3852 13.5204 20.4451 13.4099 20.5936C13.2993 20.7421 13.2993 20.9454 13.4072 21.0939L13.8231 21.6619L13.4046 22.2246C13.294 22.3731 13.294 22.5764 13.402 22.7249C13.5099 22.8734 13.7046 22.9385 13.881 22.8812L14.5548 22.6649L14.968 23.2329C15.0496 23.3476 15.1812 23.4101 15.3154 23.4101C15.3602 23.4101 15.4023 23.4023 15.447 23.3893C15.6234 23.3319 15.7445 23.1704 15.7445 22.9854L15.7471 22.2845L16.4209 22.0709C16.5972 22.0162 16.7183 21.852 16.7209 21.667C16.7209 21.4821 16.6025 21.3179 16.4262 21.2606L16.4209 21.2685ZM14.9286 21.7974C14.8812 21.7713 14.8285 21.7531 14.7733 21.7479C14.7838 21.6957 14.7838 21.641 14.7733 21.5863C14.8285 21.5811 14.8812 21.5629 14.9286 21.5368C14.9522 21.5863 14.9838 21.6306 15.0233 21.6671C14.9838 21.7036 14.9496 21.7479 14.9286 21.7974ZM33.6184 9.1872C33.7263 9.33571 33.9211 9.40084 34.0974 9.34352L35.3713 8.93707L36.153 10.0131C36.2346 10.1278 36.3662 10.1903 36.5005 10.1903C36.5452 10.1903 36.5873 10.1825 36.6321 10.1695C36.8084 10.1121 36.9295 9.9506 36.9295 9.76561L36.9321 8.43943L38.2086 8.03819C38.385 7.98348 38.5061 7.81934 38.5087 7.63435C38.5087 7.44937 38.3902 7.28522 38.2139 7.2279L36.94 6.81624L36.9479 5.49005C36.9479 5.30507 36.8295 5.14092 36.6531 5.0836C36.4768 5.02628 36.282 5.08881 36.1715 5.23732L35.3818 6.30818L34.1106 5.89131C33.9342 5.83399 33.7395 5.89392 33.6289 6.04242C33.5184 6.19094 33.5184 6.39416 33.6263 6.54267L34.4107 7.61613L33.6184 8.68438C33.5079 8.83289 33.5079 9.03611 33.6158 9.18463L33.6184 9.1872ZM35.2924 7.37117L35.1029 7.11323L35.4082 7.21484C35.5845 7.27216 35.7793 7.21224 35.8898 7.06112L36.0793 6.80318L36.0767 7.12365C36.0767 7.30864 36.1951 7.47278 36.3715 7.5301L36.6768 7.62911L36.3689 7.72551C36.1899 7.78283 36.0714 7.94437 36.0688 8.12936V8.44983L35.8819 8.18929C35.8004 8.07464 35.6687 8.01212 35.5345 8.01212C35.4898 8.01212 35.445 8.01994 35.4029 8.03296L35.095 8.13197L35.2871 7.87403C35.3976 7.72552 35.3976 7.5223 35.2897 7.37379L35.2924 7.37117ZM45.3913 16.493C45.4992 16.6415 45.694 16.7066 45.8703 16.6493L46.5441 16.433L46.9573 17.001C47.0389 17.1131 47.1705 17.1782 47.3047 17.1782C47.3495 17.1782 47.3916 17.1704 47.4363 17.1573C47.6127 17.1 47.7338 16.9385 47.7338 16.7535L47.7364 16.0526L48.4102 15.839C48.5865 15.7843 48.7076 15.6201 48.7103 15.4351C48.7103 15.2502 48.5918 15.086 48.4155 15.0287L47.7443 14.8098L47.7496 14.109C47.7496 13.924 47.6311 13.7598 47.4548 13.7025C47.2784 13.6452 47.0837 13.7077 46.9731 13.8562L46.5573 14.4216L45.8861 14.2001C45.7097 14.1428 45.515 14.2028 45.4044 14.3513C45.2939 14.4998 45.2939 14.703 45.4018 14.8515L45.8177 15.4195L45.3992 15.9823C45.2886 16.1308 45.2886 16.334 45.3965 16.4825L45.3913 16.493ZM46.7652 15.3518C46.8205 15.3466 46.8731 15.3284 46.9205 15.3023C46.9442 15.3518 46.9758 15.3961 47.0153 15.4326C46.9758 15.4691 46.9415 15.5133 46.9205 15.5628C46.8731 15.5368 46.8205 15.5186 46.7652 15.5133C46.7757 15.4612 46.7757 15.4065 46.7652 15.3518ZM49.6999 24.705L49.0288 24.4862L49.034 23.7853C49.034 23.6003 48.9156 23.4362 48.7393 23.3789C48.5629 23.3215 48.3681 23.3841 48.2576 23.5326L47.8417 24.098L47.1706 23.8765C46.9942 23.8192 46.7995 23.8791 46.6889 24.0276C46.5784 24.1761 46.5784 24.3793 46.6863 24.5279L47.1021 25.0958L46.6837 25.6586C46.5731 25.8071 46.5731 26.0104 46.681 26.1589C46.7889 26.3074 46.9837 26.3725 47.16 26.3152L47.8338 26.0989L48.2471 26.6669C48.3287 26.779 48.4603 26.8441 48.5945 26.8441C48.6392 26.8441 48.6814 26.8363 48.7261 26.8232C48.9024 26.7659 49.0235 26.6044 49.0235 26.4194L49.0261 25.7185L49.6999 25.5049C49.8763 25.4502 49.9974 25.286 50 25.101C50 24.9161 49.8816 24.7519 49.7052 24.6946L49.6999 24.705ZM48.2049 25.2339C48.1575 25.2079 48.1049 25.1897 48.0496 25.1844C48.0602 25.1323 48.0602 25.0776 48.0496 25.0229C48.1049 25.0177 48.1575 24.9995 48.2049 24.9734C48.2286 25.0229 48.2602 25.0672 48.2997 25.1037C48.2602 25.1402 48.226 25.1844 48.2049 25.2339ZM23.2346 9.02003C23.3425 9.16854 23.5373 9.23367 23.7136 9.17636L24.3874 8.9601L24.8007 9.52809C24.8823 9.64012 25.0139 9.70526 25.1481 9.70526C25.1928 9.70526 25.2349 9.69744 25.2797 9.68441C25.456 9.62709 25.5771 9.46556 25.5771 9.28057L25.5797 8.57969L26.2535 8.36605C26.4299 8.31133 26.551 8.14719 26.5536 7.9622C26.5536 7.77722 26.4351 7.61307 26.2588 7.55575L25.5876 7.3369L25.5929 6.63602C25.5929 6.45104 25.4745 6.28689 25.2981 6.22957C25.1218 6.17225 24.927 6.23478 24.8165 6.38329L24.4006 6.94867L23.7294 6.72721C23.5531 6.66989 23.3583 6.72982 23.2478 6.87833C23.1372 7.02684 23.1372 7.23006 23.2451 7.37857L23.661 7.94656L23.2425 8.51194C23.132 8.66045 23.132 8.86367 23.2399 9.01218L23.2346 9.02003ZM24.6085 7.87887C24.6638 7.87366 24.7165 7.85542 24.7638 7.82937C24.7875 7.87887 24.8191 7.92316 24.8586 7.95964C24.8191 7.99611 24.7849 8.0404 24.7638 8.08991C24.7165 8.06385 24.6638 8.04561 24.6085 8.0404C24.6191 7.98829 24.6191 7.93358 24.6085 7.87887ZM15.1147 10.8439C15.2226 10.9924 15.4174 11.0575 15.5938 11.0002L16.2676 10.7839L16.6808 11.3519C16.7624 11.4639 16.894 11.5291 17.0282 11.5291C17.0729 11.5291 17.1151 11.5213 17.1598 11.5082C17.3361 11.4509 17.4572 11.2894 17.4572 11.1044L17.4599 10.4035L18.1337 10.1899C18.31 10.1352 18.4311 9.97101 18.4337 9.78602C18.4337 9.60104 18.3153 9.43689 18.1389 9.37957L17.4678 9.16072L17.473 8.45984C17.473 8.27486 17.3546 8.11071 17.1782 8.05339C17.0019 7.99607 16.8071 8.0586 16.6966 8.20711L16.2807 8.77249L15.6095 8.55103C15.4332 8.49371 15.2384 8.55364 15.1279 8.70214C15.0173 8.85066 15.0173 9.05388 15.1253 9.20239L15.5411 9.77037L15.1226 10.3358C15.0121 10.4843 15.0121 10.6875 15.12 10.836L15.1147 10.8439ZM16.4887 9.70269C16.5439 9.69748 16.5966 9.67924 16.644 9.65319C16.6676 9.70269 16.6992 9.74698 16.7387 9.78346C16.6992 9.81994 16.665 9.86423 16.644 9.91373C16.5966 9.88768 16.5439 9.86944 16.4887 9.86423C16.4992 9.81212 16.4992 9.75741 16.4887 9.70269ZM43.1118 26.789C42.7749 26.6796 42.4143 26.7057 42.0985 26.8646C41.7827 27.0235 41.5458 27.2945 41.4352 27.6254C41.3247 27.9589 41.351 28.3158 41.5115 28.6285C41.6721 28.9411 41.9458 29.1756 42.2801 29.285C42.4169 29.3293 42.5564 29.3528 42.6959 29.3528C42.9012 29.3528 43.1039 29.3059 43.2934 29.2121C43.6092 29.0532 43.8461 28.7822 43.9567 28.4513C44.0672 28.1178 44.0409 27.7608 43.8803 27.4482C43.7198 27.1356 43.4461 26.9011 43.1118 26.7916V26.789ZM43.1408 28.1829C43.1013 28.3002 43.0197 28.3966 42.9065 28.4513C42.796 28.506 42.667 28.5164 42.5485 28.4773C42.3038 28.3966 42.1695 28.1334 42.2511 27.8911C42.3169 27.6957 42.4985 27.5732 42.6959 27.5732C42.7433 27.5732 42.7933 27.5811 42.8433 27.5967C42.9618 27.6358 43.0592 27.7166 43.1144 27.8286C43.1697 27.938 43.1802 28.0657 43.1408 28.1829ZM13.5886 15.4841C13.6992 15.1506 13.6728 14.7936 13.5123 14.481C13.3517 14.1683 13.078 13.9338 12.7438 13.8244C12.0489 13.5977 11.2962 13.9729 11.0671 14.6607C10.9566 14.9942 10.9829 15.3512 11.1435 15.6638C11.304 15.9765 11.5777 16.211 11.912 16.3204C12.0489 16.3647 12.1884 16.3855 12.3252 16.3855C12.8832 16.3855 13.4044 16.0338 13.586 15.4814L13.5886 15.4841ZM12.7727 15.2183C12.6911 15.4606 12.4253 15.5935 12.1805 15.5127C12.0621 15.4736 11.9647 15.3929 11.9094 15.2808C11.8541 15.1714 11.8436 15.0437 11.8831 14.9265C11.9489 14.7311 12.1305 14.6086 12.3279 14.6086C12.3753 14.6086 12.4253 14.6164 12.4753 14.6321C12.5937 14.6712 12.6911 14.7519 12.7464 14.864C12.8017 14.9734 12.8122 15.1011 12.7727 15.2183ZM39.664 12.8603C39.8009 12.9046 39.9404 12.9281 40.0799 12.9281C40.2852 12.9281 40.4879 12.8812 40.6774 12.7874C40.9932 12.6285 41.2301 12.3575 41.3406 12.0266C41.4512 11.6931 41.4249 11.3361 41.2643 11.0235C41.1038 10.7109 40.83 10.4764 40.4958 10.367C40.1589 10.2575 39.7983 10.2836 39.4824 10.4425C39.1666 10.6014 38.9297 10.8724 38.8192 11.2033C38.7086 11.5368 38.7349 11.8938 38.8955 12.2064C39.056 12.519 39.3298 12.7535 39.664 12.8629L39.664 12.8603ZM39.6351 11.4665C39.7009 11.2711 39.8825 11.1486 40.0799 11.1486C40.1273 11.1486 40.1773 11.1564 40.2273 11.172C40.3457 11.2111 40.4431 11.2919 40.4984 11.4039C40.5536 11.5134 40.5642 11.641 40.5247 11.7583C40.4852 11.8755 40.4036 11.9719 40.2904 12.0266C40.1799 12.0813 40.0509 12.0918 39.9325 12.0527C39.814 12.0136 39.7167 11.9328 39.6614 11.8208C39.6061 11.7114 39.5956 11.5837 39.6351 11.4665ZM28.5672 5.56511C28.7041 5.6094 28.8436 5.63025 28.9805 5.63025C29.5385 5.63025 30.057 5.27852 30.2412 4.72614C30.4702 4.03834 30.0912 3.29317 29.3963 3.06646C29.0594 2.95703 28.6988 2.98309 28.383 3.14202C28.0672 3.30095 27.8303 3.57191 27.7197 3.90279C27.4908 4.59059 27.8698 5.33576 28.5646 5.56247L28.5672 5.56511ZM28.5383 4.17123C28.6041 3.97582 28.7857 3.85337 28.9831 3.85337C29.0305 3.85337 29.0805 3.86118 29.1305 3.87682C29.2489 3.9159 29.3463 3.99667 29.4016 4.1087C29.4569 4.21813 29.4674 4.3458 29.4279 4.46304C29.3463 4.70535 29.0805 4.83823 28.8357 4.75746C28.5909 4.67669 28.4567 4.41353 28.5383 4.17123Z" stroke="#0066FF" stroke-width="0.6" mask="url(#path-1-outside-1_4831_1337)"/>
</svg>
