<svg width="60" height="60" viewBox="0 0 60 60" fill="none" xmlns="http://www.w3.org/2000/svg">
<path d="M20.6151 50.6165L20.6151 50.6165C19.0169 48.9191 18.214 46.6964 18.3547 44.3616L20.6151 50.6165ZM20.6151 50.6165C22.1915 52.2905 24.4133 53.2504 26.7121 53.2504C29.6671 53.2504 32.433 51.6654 33.9315 49.114C34.3101 48.4693 35.0631 48.0552 35.9088 48.0552H36.1425C37.0499 48.0552 37.8129 48.468 38.2057 49.1324C40.0847 52.3132 44.4166 54.4786 49.0542 52.4732L49.0543 52.4731C50.872 51.6861 52.3463 50.1635 53.103 48.2959L53.1031 48.2959M20.6151 50.6165L53.1031 48.2959M53.1031 48.2959C54.2249 45.5258 53.9593 42.5728 52.3622 40.2031C50.8016 37.8869 48.2039 36.5039 45.4143 36.5039H26.9964C22.4236 36.5039 18.62 39.9468 18.3547 44.3615L53.1031 48.2959ZM50.5375 41.4326L50.5376 41.4326C51.7146 43.1787 51.9118 45.3762 51.064 47.4697C50.5213 48.8087 49.4683 49.8963 48.1803 50.454C44.542 52.0293 41.4455 50.2907 40.0997 48.013C39.2979 46.6559 37.8131 45.855 36.1425 45.855H35.9088C34.3014 45.855 32.8147 46.6716 32.0343 47.9994L32.0342 47.9995C30.9292 49.8812 28.8892 51.0502 26.7121 51.0502C24.992 51.0502 23.3967 50.361 22.2169 49.1082C21.0386 47.8565 20.4468 46.2193 20.5506 44.4937C20.7455 41.2575 23.5671 38.7041 26.9964 38.7041H45.4143C47.4712 38.7041 49.3864 39.7236 50.5375 41.4326Z" fill="#0066FF" stroke="#0066FF" stroke-width="0.5"/>
<path d="M31.2064 38.7041H31.5532L31.4436 38.3751L30.3249 35.0183L30.3249 35.0182C29.943 33.873 28.8749 33.1035 27.6682 33.1035H26.7189C25.5113 33.1035 24.4436 33.8735 24.0621 35.0183C24.0621 35.0183 24.0621 35.0183 24.0621 35.0183L22.9435 38.3751L22.8338 38.7041H23.1807H31.2064ZM28.5009 36.5039H25.8861L26.1495 35.7139L26.1495 35.7139C26.2313 35.4686 26.4599 35.3037 26.7189 35.3037H27.6682C27.9271 35.3037 28.1557 35.4685 28.2375 35.7142L28.2375 35.7144L28.5009 36.5039Z" fill="#0066FF" stroke="#0066FF" stroke-width="0.5"/>
<path d="M48.9445 38.7041H49.2913L49.1817 38.3751L48.063 35.0183L48.063 35.0182C47.6811 33.873 46.613 33.1035 45.4063 33.1035H44.4566C43.2494 33.1035 42.1818 33.8735 41.8003 35.0182C41.8003 35.0182 41.8003 35.0182 41.8003 35.0183L40.6808 38.375L40.5711 38.7041H40.918H48.9445ZM45.9756 35.7142L45.9757 35.7144L46.2391 36.5039H43.6242L43.8877 35.7139L43.8877 35.7139C43.9695 35.4684 44.1978 35.3037 44.4566 35.3037H45.4063C45.6652 35.3037 45.8938 35.4685 45.9756 35.7142Z" fill="#0066FF" stroke="#0066FF" stroke-width="0.5"/>
<path d="M45.105 43.8027C45.7126 43.8027 46.2051 43.3102 46.2051 42.7026C46.2051 42.0951 45.7126 41.6025 45.105 41.6025C44.4974 41.6025 44.0049 42.0951 44.0049 42.7026C44.0049 43.3102 44.4974 43.8027 45.105 43.8027Z" fill="#0066FF" stroke="#0066FF" stroke-width="0.5"/>
<path d="M43.4058 46.3545C44.0133 46.3545 44.5059 45.862 44.5059 45.2544C44.5059 44.6468 44.0133 44.1543 43.4058 44.1543C42.7982 44.1543 42.3057 44.6468 42.3057 45.2544C42.3057 45.862 42.7982 46.3545 43.4058 46.3545Z" fill="#0066FF" stroke="#0066FF" stroke-width="0.5"/>
<path d="M47.6548 46.3545C48.2624 46.3545 48.7549 45.862 48.7549 45.2544C48.7549 44.6468 48.2624 44.1543 47.6548 44.1543C47.0472 44.1543 46.5547 44.6468 46.5547 45.2544C46.5547 45.862 47.0472 46.3545 47.6548 46.3545Z" fill="#0066FF" stroke="#0066FF" stroke-width="0.5"/>
<path d="M45.105 48.0547C45.7126 48.0547 46.2051 47.5622 46.2051 46.9546C46.2051 46.347 45.7126 45.8545 45.105 45.8545C44.4974 45.8545 44.0049 46.347 44.0049 46.9546C44.0049 47.5622 44.4974 48.0547 45.105 48.0547Z" fill="#0066FF" stroke="#0066FF" stroke-width="0.5"/>
<path d="M25.5518 41.6025H25.3018V41.8525V48.6533V48.9033H25.5518H27.252H27.502V48.6533V41.8525V41.6025H27.252H25.5518Z" fill="#0066FF" stroke="#0066FF" stroke-width="0.5"/>
<path d="M23.8516 44.1543H23.6016V44.4043V46.1045V46.3545H23.8516H29.8023H30.0523V46.1045V44.4043V44.1543H29.8023H23.8516Z" fill="#0066FF" stroke="#0066FF" stroke-width="0.5"/>
<path d="M34.0542 44.6543C34.6618 44.6543 35.1543 44.1618 35.1543 43.5542C35.1543 42.9466 34.6618 42.4541 34.0542 42.4541C33.4466 42.4541 32.9541 42.9466 32.9541 43.5542C32.9541 44.1618 33.4466 44.6543 34.0542 44.6543Z" fill="#0066FF" stroke="#0066FF" stroke-width="0.5"/>
<path d="M38.3022 44.6543C38.9098 44.6543 39.4023 44.1618 39.4023 43.5542C39.4023 42.9466 38.9098 42.4541 38.3022 42.4541C37.6947 42.4541 37.2021 42.9466 37.2021 43.5542C37.2021 44.1618 37.6947 44.6543 38.3022 44.6543Z" fill="#0066FF" stroke="#0066FF" stroke-width="0.5"/>
<path d="M38.3037 37.853H38.5537V37.603V34.1699C38.5537 33.5448 38.3963 32.8274 37.8338 32.2681C37.2715 31.7091 36.3468 31.3501 34.9033 31.3501C34.5167 31.3501 34.1534 31.1994 33.8779 30.9242C33.6029 30.6496 33.4531 30.2892 33.4531 29.9082V26.5518V26.3018H33.2031H31.5029H31.2529V26.5518V29.9082C31.2529 30.8778 31.6337 31.7922 32.3229 32.4805C33.0122 33.1698 33.9296 33.5503 34.9033 33.5503C35.7487 33.5503 36.0953 33.6741 36.2354 33.7855C36.3445 33.8723 36.3535 33.9692 36.3535 34.1699V37.603V37.853H36.6035H38.3037Z" fill="#0066FF" stroke="#0066FF" stroke-width="0.5"/>
<path d="M8.55113 27.6524H36.6027C38.1475 27.6524 39.4039 26.3961 39.4039 24.8513V9.55113C39.4039 8.00633 38.1475 6.75 36.6027 6.75H8.55113C7.00633 6.75 5.75 8.00633 5.75 9.55113V24.8513C5.75 26.3961 7.00633 27.6524 8.55113 27.6524ZM7.9502 9.55113C7.9502 9.22015 8.22015 8.9502 8.55113 8.9502H36.6027C36.9337 8.9502 37.2037 9.22015 37.2037 9.55113V24.8513C37.2037 25.1822 36.9337 25.4522 36.6027 25.4522H8.55113C8.22015 25.4522 7.9502 25.1822 7.9502 24.8513V9.55113Z" fill="#0066FF" stroke="#0066FF" stroke-width="0.5"/>
<path d="M34.0547 21.2021H11.1021C10.4945 21.2021 10.002 21.6947 10.002 22.3022C10.002 22.9098 10.4945 23.4023 11.1021 23.4023H34.0547C34.6623 23.4023 35.1548 22.9098 35.1548 22.3022C35.1548 21.6947 34.6623 21.2021 34.0547 21.2021Z" fill="#0066FF" stroke="#0066FF" stroke-width="0.5"/>
<path d="M25.2883 31.9038H25.4835L25.5308 31.7145L27.0185 25.7638L27.0961 25.4531H26.7759H18.2227H17.9025L17.9801 25.7638L19.4678 31.7145L19.5151 31.9038H19.7103H25.2883ZM24.2782 27.6533L23.7656 29.7036H21.233L20.7204 27.6533H24.2782Z" fill="#0066FF" stroke="#0066FF" stroke-width="0.5"/>
<path d="M17.0527 29.7031H16.8027V29.9531V31.6533V31.9033H17.0527H28.104H28.354V31.6533V29.9531V29.7031H28.104H17.0527Z" fill="#0066FF" stroke="#0066FF" stroke-width="0.5"/>
<path d="M17.0508 17.4512C18.1279 17.4512 19.001 16.578 19.001 15.501C19.001 14.4239 18.1279 13.5508 17.0508 13.5508C15.9737 13.5508 15.1006 14.4239 15.1006 15.501C15.1006 16.578 15.9737 17.4512 17.0508 17.4512Z" fill="#0066FF" stroke="#0066FF" stroke-width="0.5"/>
<path d="M22.1523 17.4512C23.2294 17.4512 24.1025 16.578 24.1025 15.501C24.1025 14.4239 23.2294 13.5508 22.1523 13.5508C21.0753 13.5508 20.2021 14.4239 20.2021 15.501C20.2021 16.578 21.0753 17.4512 22.1523 17.4512Z" fill="#0066FF" stroke="#0066FF" stroke-width="0.5"/>
<path d="M27.252 17.4512C28.329 17.4512 29.2022 16.578 29.2022 15.501C29.2022 14.4239 28.329 13.5508 27.252 13.5508C26.1749 13.5508 25.3018 14.4239 25.3018 15.501C25.3018 16.578 26.1749 17.4512 27.252 17.4512Z" fill="#0066FF" stroke="#0066FF" stroke-width="0.5"/>
</svg>
