<svg width="60" height="60" viewBox="0 0 60 60" fill="none" xmlns="http://www.w3.org/2000/svg">
<path d="M34.5893 49.1431L34.0698 51.4644C33.9997 51.7778 33.7236 52 33.4047 52H26.2548C25.9364 52 25.6603 51.7778 25.5898 51.4644L24.3475 45.9324C23.7265 45.7155 23.1171 45.4613 22.527 45.1724L17.7669 48.1991C17.4974 48.3706 17.1464 48.3306 16.921 48.104L11.8667 43.0097C11.6413 42.7826 11.6021 42.4288 11.7723 42.1572L14.7751 37.3594C14.4884 36.7652 14.2362 36.1505 14.021 35.5247L8.53141 34.2732C8.22094 34.2025 8 33.9243 8 33.6029V26.3971C8 26.0762 8.2205 25.798 8.53141 25.7268L14.0205 24.4775C14.2362 23.8495 14.4889 23.2344 14.7747 22.6406L11.7723 17.845C11.6025 17.5734 11.6413 17.2196 11.8667 16.9925L16.921 11.8969C17.1464 11.6698 17.4974 11.6303 17.7669 11.8018L22.5275 14.8303C23.1153 14.5427 23.7248 14.2876 24.3475 14.0689L25.5898 8.53556C25.6603 8.22222 25.9364 8 26.2548 8H33.4047C33.7232 8 33.9992 8.22267 34.0698 8.53556L35.3099 14.0676C35.929 14.2841 36.5394 14.5392 37.1321 14.8298L41.8927 11.8014C42.1621 11.6298 42.5136 11.6698 42.7385 11.8965L47.7928 16.9925C48.0182 17.2196 48.057 17.5734 47.8872 17.845L44.8827 22.6406C45.1711 23.2384 45.4242 23.8535 45.639 24.4771L51.1281 25.7268C51.439 25.7975 51.6595 26.0757 51.6595 26.3971V33.6029C51.6595 33.9238 51.439 34.202 51.1286 34.2727L49.5815 34.626C49.2142 34.71 48.8495 34.478 48.7661 34.1078C48.6828 33.7376 48.913 33.37 49.2803 33.286L50.2964 33.054V26.9464L44.9634 25.7322C44.7279 25.6784 44.5378 25.5033 44.4642 25.2717C44.2088 24.4673 43.8825 23.6748 43.4949 22.9166C43.3842 22.7001 43.3956 22.441 43.5244 22.2348L46.4434 17.5757L42.1591 13.2561L37.5343 16.1983C37.3301 16.3281 37.073 16.3396 36.8582 16.2281C36.1059 15.8374 35.3196 15.5085 34.5214 15.2512C34.2912 15.177 34.1174 14.9858 34.0645 14.7485L32.8601 9.37424H26.7994L25.5929 14.749C25.5395 14.9854 25.3666 15.1765 25.1373 15.2512C24.3303 15.5134 23.5444 15.8423 22.8013 16.2285C22.5866 16.3401 22.3294 16.329 22.1253 16.1987L17.5 13.2565L13.2157 17.5761L16.1329 22.2353C16.2617 22.441 16.2732 22.7001 16.1625 22.9166C15.7788 23.6664 15.4534 24.4588 15.1954 25.2717C15.1217 25.5037 14.9321 25.6788 14.6962 25.7322L9.36358 26.9464V33.0545L14.6966 34.2705C14.9321 34.3243 15.1217 34.4994 15.1954 34.7309C15.452 35.5398 15.7775 36.331 16.1625 37.0834C16.2732 37.2998 16.2622 37.559 16.1334 37.7647L13.2157 42.4266L17.5 46.7444L22.1253 43.8044C22.3299 43.6746 22.5866 43.6635 22.8013 43.775C23.5479 44.163 24.3334 44.4906 25.1355 44.7497C25.3653 44.8239 25.5395 45.015 25.5924 45.2524L26.799 50.6271H32.8592L33.2588 48.8413C33.3417 48.4711 33.7064 48.2386 34.0737 48.3222C34.4415 48.4053 34.6722 48.7729 34.5893 49.1431ZM41.838 32.2896C42.212 32.3376 42.5529 32.0727 42.6014 31.6967C42.6741 31.1309 42.7108 30.5602 42.7108 30.0007C42.7108 22.8424 36.9323 17.0188 29.8296 17.0188C22.7268 17.0188 16.9488 22.8419 16.9488 30.0002C16.9488 37.1598 22.7272 42.9844 29.83 42.9844C30.5255 42.9844 31.2355 42.9257 31.9411 42.8097C32.3128 42.7488 32.5646 42.3955 32.5042 42.0212C32.4438 41.6466 32.0932 41.3919 31.7219 41.4537C31.3184 41.5199 30.9135 41.5652 30.5118 41.5892V40.4803C30.5118 40.1008 30.2066 39.7932 29.83 39.7932C29.4534 39.7932 29.1482 40.1008 29.1482 40.4803V41.5897C26.4846 41.4323 24.0613 40.3581 22.1852 38.6763L22.9588 37.8967C23.2251 37.6283 23.2251 37.1936 22.9588 36.9252C22.6924 36.6567 22.2611 36.6567 21.9947 36.9252L21.2212 37.7047C19.5538 35.8136 18.4888 33.3718 18.3327 30.6873H19.4312C19.8078 30.6873 20.113 30.3798 20.113 30.0002C20.113 29.6207 19.8078 29.3131 19.4312 29.3131H18.3327C18.4888 26.6295 19.5538 24.1886 21.2208 22.2979L21.9947 23.0779C22.1279 23.2122 22.3021 23.2793 22.4767 23.2793C22.6514 23.2793 22.8256 23.2122 22.9588 23.0779C23.2251 22.8095 23.2251 22.3748 22.9588 22.1064L22.1848 21.3264C24.0613 19.645 26.4841 18.5708 29.1482 18.4134V19.5228C29.1482 19.9023 29.4534 20.2099 29.83 20.2099C30.2066 20.2099 30.5118 19.9023 30.5118 19.5228V18.4134C33.1754 18.5708 35.5987 19.6446 37.4747 21.3259L36.699 22.1059C36.4327 22.3739 36.4322 22.809 36.6981 23.0775C36.8313 23.2122 37.006 23.2793 37.1806 23.2793C37.3548 23.2793 37.529 23.2122 37.6622 23.0784L38.4388 22.2975C40.1062 24.1882 41.1712 26.6295 41.3273 29.3131H40.2266C39.85 29.3131 39.5448 29.6207 39.5448 30.0002C39.5448 30.3798 39.85 30.6873 40.2266 30.6873H41.3269C41.3106 30.9647 41.2854 31.2429 41.2497 31.5198C41.2012 31.8962 41.4645 32.2407 41.838 32.2896ZM30.5113 23.9099V27.5695C31.3462 27.8078 32.005 28.4718 32.2414 29.3131H37.3133C37.69 29.3131 37.9951 29.6207 37.9951 30.0002C37.9951 30.3798 37.69 30.6873 37.3133 30.6873H32.2418C31.9442 31.7487 30.9762 32.5291 29.83 32.5291C28.4466 32.5291 27.3211 31.3949 27.3211 30.0007C27.3211 28.8455 28.0955 27.87 29.1486 27.57V23.9104C29.1486 23.5308 29.4538 23.2233 29.8304 23.2233C30.2071 23.2233 30.5113 23.5304 30.5113 23.9099ZM29.83 28.8482C29.1985 28.8482 28.6843 29.3651 28.6843 30.0002C28.6843 30.6367 29.198 31.1549 29.83 31.1549C30.4602 31.1549 30.9731 30.6371 30.9731 30.0002C30.9731 29.3651 30.4602 28.8482 29.83 28.8482ZM52 42.5217C52 47.7013 47.8189 51.9151 42.6794 51.9151C37.5387 51.9151 33.3562 47.7013 33.3562 42.5217C33.3562 37.3421 37.5387 33.1283 42.6794 33.1283C47.8189 33.1283 52 37.3421 52 42.5217ZM50.8062 42.5217C50.8062 38.0056 47.1605 34.3314 42.6794 34.3314C38.1971 34.3314 34.5505 38.0056 34.5505 42.5217C34.5505 47.0377 38.1971 50.7115 42.6794 50.7115C47.1605 50.7115 50.8062 47.0377 50.8062 42.5217ZM46.6701 41.8346H43.3608V38.4994C43.3608 38.1199 43.0556 37.8123 42.679 37.8123C42.3024 37.8123 41.9972 38.1199 41.9972 38.4994V41.8346H38.6879C38.3113 41.8346 38.0062 42.1421 38.0062 42.5217C38.0062 42.9012 38.3113 43.2088 38.6879 43.2088H41.9972V46.5439C41.9972 46.9235 42.3024 47.2311 42.679 47.2311C43.0556 47.2311 43.3608 46.9235 43.3608 46.5439V43.2088H46.6701C47.0467 43.2088 47.3518 42.9012 47.3518 42.5217C47.3518 42.1421 47.0467 41.8346 46.6701 41.8346Z" fill="#0066FF" stroke="#0066FF" stroke-width="0.5"/>
</svg>
