<svg width="60" height="60" viewBox="0 0 60 60" fill="none" xmlns="http://www.w3.org/2000/svg">
<mask id="path-1-outside-1_4825_1384" maskUnits="userSpaceOnUse" x="0" y="4" width="60" height="52" fill="black">
<rect fill="white" y="4" width="60" height="52"/>
<path d="M56.0326 29.7453V51.9024C56.0326 52.8981 55.6239 53.8032 54.9662 54.4581L54.907 54.5126C54.2537 55.1351 53.3677 55.52 52.4003 55.52H7.52776C6.52786 55.52 5.61887 55.1131 4.96114 54.4581C4.30342 53.8032 3.89474 52.8981 3.89474 51.9024V29.7011C3.18971 29.5554 2.55785 29.2037 2.06641 28.7143L2.01172 28.6554C1.38651 28.0049 1 27.1233 1 26.1593V19.209C1 18.2156 1.40942 17.3112 2.06862 16.6563C2.72413 15.9991 3.63313 15.5922 4.63302 15.5922H13.9521V10.7884C13.9521 9.19375 14.6046 7.74555 15.657 6.69766L15.7139 6.64542C16.7625 5.62844 18.1933 5 19.7644 5H40.4282C42.0274 5 43.4796 5.65125 44.5319 6.69766C45.588 7.74555 46.2406 9.19375 46.2406 10.7884V15.5922H55.5581C56.5558 15.5922 57.4633 15.9999 58.121 16.6533C58.781 17.3119 59.1904 18.2156 59.1904 19.209V26.1593C59.1904 27.152 58.7817 28.0564 58.1247 28.7114C57.5697 29.2625 56.8418 29.6386 56.0326 29.7453ZM31.4786 53.6509L41.0911 45.6173C40.069 44.9874 39.16 44.2015 38.3973 43.2964C37.6354 42.392 37.0168 41.3647 36.5705 40.2513L20.5338 53.6509H31.4786ZM42.2159 44.1154L44.2615 38.3969L38.2495 39.4095C38.6242 40.3941 39.163 41.3022 39.834 42.0984C40.5043 42.8931 41.3083 43.5775 42.2159 44.1154ZM17.6183 53.6509L21.2898 50.583L19.9647 49.0097C19.6329 48.6153 19.6854 48.0259 20.0815 47.6954L20.8671 47.039L20.6926 46.8315C20.482 46.5806 20.1835 46.4378 19.8746 46.4113C19.5642 46.3848 19.2442 46.4732 18.9914 46.6844L18.7453 46.8867C18.3507 47.2171 17.761 47.1671 17.4291 46.7741C17.319 46.6439 17.251 46.4916 17.2237 46.3348L15.2017 34.9361C15.1131 34.4284 15.4545 33.9442 15.9644 33.8559C16.1492 33.8235 16.331 33.8485 16.4921 33.9162L27.3675 37.859C27.853 38.0341 28.1043 38.5699 27.9284 39.0533C27.87 39.2138 27.7717 39.3484 27.649 39.45L27.4037 39.656C27.1524 39.8665 27.0083 40.1638 26.9817 40.4706C26.9551 40.779 27.0445 41.0976 27.2566 41.3493L27.4303 41.5553L28.2181 40.8974C28.6142 40.567 29.2062 40.6193 29.538 41.0137L30.8623 42.5855L36.3998 37.9584C36.5239 37.8546 36.6762 37.7817 36.8476 37.7538L45.486 36.299C45.6493 36.2644 45.823 36.2732 45.9915 36.3321C46.4793 36.5035 46.7357 37.037 46.5635 37.5227L43.6111 45.7792C43.5564 45.9316 43.4626 46.0728 43.3288 46.184L34.3941 53.6509H52.4003C52.8636 53.6509 53.2871 53.4706 53.5997 53.1777L53.6389 53.1365C53.9574 52.8193 54.1554 52.3822 54.1554 51.9024V29.7762H49.6748C49.5698 30.4878 49.2336 31.1272 48.7451 31.6136C48.1502 32.206 47.3276 32.574 46.4231 32.574H40.7955C39.8909 32.574 39.0676 32.206 38.4727 31.6136C37.9842 31.1272 37.648 30.4878 37.543 29.7762H22.6488C22.5439 30.4878 22.2076 31.1272 21.7191 31.6136C21.1242 32.206 20.3017 32.574 19.3972 32.574H13.7703C12.8672 32.574 12.0461 32.206 11.4505 31.6136C10.959 31.1272 10.622 30.4878 10.5171 29.7762H5.77185V40.8393V51.9024C5.77185 52.3822 5.96991 52.8193 6.28842 53.1365C6.60694 53.4537 7.04592 53.6509 7.52776 53.6509H17.6183ZM22.7257 49.3835L29.4264 43.7843L28.7044 42.927L22.0029 48.5255L22.7257 49.3835ZM22.303 45.8396L25.9951 42.7548L25.82 42.5473C25.2746 41.9004 25.0447 41.091 25.112 40.3102C25.1475 39.9084 25.262 39.5133 25.4534 39.1497L19.0897 36.8428L20.9136 39.007C21.1176 38.9613 21.3267 38.9474 21.5322 38.965C22.0258 39.0077 22.5025 39.2307 22.8587 39.6207L22.9607 39.7406C23.2881 40.1594 23.4248 40.6678 23.3827 41.1587C23.3398 41.6524 23.1137 42.1322 22.7168 42.4877L22.6038 42.5819C22.1833 42.9078 21.6726 43.044 21.1797 43.002C20.6882 42.9601 20.2123 42.7357 19.8553 42.3449L19.7497 42.2242C19.4238 41.8062 19.287 41.2985 19.3292 40.8077L19.3469 40.6892C19.3713 40.5251 19.4164 40.3639 19.4807 40.2094L17.6568 38.0445L18.8318 44.682C19.2235 44.5577 19.6336 44.5143 20.0357 44.5496C20.8212 44.618 21.5832 44.9845 22.1293 45.6335L22.303 45.8396ZM15.8292 15.5922H18.3123V10.7884C18.3123 10.394 18.4793 10.0319 18.7394 9.77068C19.0055 9.50797 19.3698 9.34166 19.7644 9.34166H40.4282C40.7829 9.34166 41.1095 9.47412 41.3623 9.68752L41.4532 9.767C41.7155 10.0282 41.8803 10.3918 41.8803 10.7884V15.5922H44.3634V10.7884C44.3634 9.7096 43.9215 8.72941 43.2084 8.01929C42.4982 7.30917 41.513 6.86912 40.4282 6.86912H19.7644C18.7003 6.86912 17.7336 7.29078 17.0271 7.97367L16.9843 8.01929C16.2711 8.72941 15.8292 9.7096 15.8292 10.7884V15.5922ZM20.1894 15.5922H40.0032V11.2108H20.1894V15.5922ZM40.7955 25.1085H46.4231C47.3276 25.1085 48.1502 25.4764 48.7451 26.0688C49.2336 26.5552 49.5698 27.1947 49.6748 27.907H55.5581C56.0414 27.907 56.4819 27.7106 56.7989 27.3949C57.116 27.0792 57.3133 26.6406 57.3133 26.1593V19.209C57.3133 18.7277 57.116 18.2892 56.7989 17.9735C56.4819 17.6578 56.0414 17.4613 55.5581 17.4613H4.63302C4.15118 17.4613 3.7122 17.6585 3.39368 17.9757C3.07369 18.2899 2.87711 18.727 2.87711 19.209V26.1593C2.87711 26.6215 3.05891 27.0431 3.3523 27.3537L3.39368 27.3927C3.7122 27.7098 4.15118 27.907 4.63302 27.907H10.5171C10.622 27.1947 10.9583 26.5552 11.4468 26.0688L11.5074 26.0136C12.0979 25.4536 12.8953 25.1085 13.7703 25.1085H19.3972C20.3017 25.1085 21.1242 25.4764 21.7191 26.0688C22.2076 26.5552 22.5439 27.1947 22.6488 27.907H37.543C37.648 27.1947 37.9842 26.5552 38.4727 26.0688C39.0676 25.4764 39.8909 25.1085 40.7955 25.1085ZM46.4231 26.9776H40.7955C40.4089 26.9776 40.055 27.1366 39.8 27.3905C39.545 27.6443 39.3854 27.9968 39.3854 28.3817V29.3008C39.3854 29.6857 39.545 30.0381 39.8 30.292C40.055 30.5459 40.4089 30.7048 40.7955 30.7048H46.4231C46.8096 30.7048 47.1628 30.5459 47.4178 30.292C47.6728 30.0381 47.8324 29.6857 47.8324 29.3008V28.3817C47.8324 27.9968 47.6728 27.6443 47.4178 27.3905C47.1628 27.1366 46.8096 26.9776 46.4231 26.9776ZM19.3972 26.9776H13.7703C13.4007 26.9776 13.0623 27.1204 12.8103 27.3522L12.7741 27.3905C12.5191 27.6443 12.3595 27.9968 12.3595 28.3817V29.3008C12.3595 29.6857 12.5191 30.0381 12.7741 30.292C13.0275 30.5474 13.3815 30.7048 13.7703 30.7048H19.3972C19.7837 30.7048 20.1369 30.5459 20.3919 30.292C20.6468 30.0381 20.8065 29.6857 20.8065 29.3008V28.3817C20.8065 27.9968 20.6468 27.6443 20.3919 27.3905C20.1369 27.1366 19.7837 26.9776 19.3972 26.9776Z"/>
</mask>
<path d="M56.0326 29.7453V51.9024C56.0326 52.8981 55.6239 53.8032 54.9662 54.4581L54.907 54.5126C54.2537 55.1351 53.3677 55.52 52.4003 55.52H7.52776C6.52786 55.52 5.61887 55.1131 4.96114 54.4581C4.30342 53.8032 3.89474 52.8981 3.89474 51.9024V29.7011C3.18971 29.5554 2.55785 29.2037 2.06641 28.7143L2.01172 28.6554C1.38651 28.0049 1 27.1233 1 26.1593V19.209C1 18.2156 1.40942 17.3112 2.06862 16.6563C2.72413 15.9991 3.63313 15.5922 4.63302 15.5922H13.9521V10.7884C13.9521 9.19375 14.6046 7.74555 15.657 6.69766L15.7139 6.64542C16.7625 5.62844 18.1933 5 19.7644 5H40.4282C42.0274 5 43.4796 5.65125 44.5319 6.69766C45.588 7.74555 46.2406 9.19375 46.2406 10.7884V15.5922H55.5581C56.5558 15.5922 57.4633 15.9999 58.121 16.6533C58.781 17.3119 59.1904 18.2156 59.1904 19.209V26.1593C59.1904 27.152 58.7817 28.0564 58.1247 28.7114C57.5697 29.2625 56.8418 29.6386 56.0326 29.7453ZM31.4786 53.6509L41.0911 45.6173C40.069 44.9874 39.16 44.2015 38.3973 43.2964C37.6354 42.392 37.0168 41.3647 36.5705 40.2513L20.5338 53.6509H31.4786ZM42.2159 44.1154L44.2615 38.3969L38.2495 39.4095C38.6242 40.3941 39.163 41.3022 39.834 42.0984C40.5043 42.8931 41.3083 43.5775 42.2159 44.1154ZM17.6183 53.6509L21.2898 50.583L19.9647 49.0097C19.6329 48.6153 19.6854 48.0259 20.0815 47.6954L20.8671 47.039L20.6926 46.8315C20.482 46.5806 20.1835 46.4378 19.8746 46.4113C19.5642 46.3848 19.2442 46.4732 18.9914 46.6844L18.7453 46.8867C18.3507 47.2171 17.761 47.1671 17.4291 46.7741C17.319 46.6439 17.251 46.4916 17.2237 46.3348L15.2017 34.9361C15.1131 34.4284 15.4545 33.9442 15.9644 33.8559C16.1492 33.8235 16.331 33.8485 16.4921 33.9162L27.3675 37.859C27.853 38.0341 28.1043 38.5699 27.9284 39.0533C27.87 39.2138 27.7717 39.3484 27.649 39.45L27.4037 39.656C27.1524 39.8665 27.0083 40.1638 26.9817 40.4706C26.9551 40.779 27.0445 41.0976 27.2566 41.3493L27.4303 41.5553L28.2181 40.8974C28.6142 40.567 29.2062 40.6193 29.538 41.0137L30.8623 42.5855L36.3998 37.9584C36.5239 37.8546 36.6762 37.7817 36.8476 37.7538L45.486 36.299C45.6493 36.2644 45.823 36.2732 45.9915 36.3321C46.4793 36.5035 46.7357 37.037 46.5635 37.5227L43.6111 45.7792C43.5564 45.9316 43.4626 46.0728 43.3288 46.184L34.3941 53.6509H52.4003C52.8636 53.6509 53.2871 53.4706 53.5997 53.1777L53.6389 53.1365C53.9574 52.8193 54.1554 52.3822 54.1554 51.9024V29.7762H49.6748C49.5698 30.4878 49.2336 31.1272 48.7451 31.6136C48.1502 32.206 47.3276 32.574 46.4231 32.574H40.7955C39.8909 32.574 39.0676 32.206 38.4727 31.6136C37.9842 31.1272 37.648 30.4878 37.543 29.7762H22.6488C22.5439 30.4878 22.2076 31.1272 21.7191 31.6136C21.1242 32.206 20.3017 32.574 19.3972 32.574H13.7703C12.8672 32.574 12.0461 32.206 11.4505 31.6136C10.959 31.1272 10.622 30.4878 10.5171 29.7762H5.77185V40.8393V51.9024C5.77185 52.3822 5.96991 52.8193 6.28842 53.1365C6.60694 53.4537 7.04592 53.6509 7.52776 53.6509H17.6183ZM22.7257 49.3835L29.4264 43.7843L28.7044 42.927L22.0029 48.5255L22.7257 49.3835ZM22.303 45.8396L25.9951 42.7548L25.82 42.5473C25.2746 41.9004 25.0447 41.091 25.112 40.3102C25.1475 39.9084 25.262 39.5133 25.4534 39.1497L19.0897 36.8428L20.9136 39.007C21.1176 38.9613 21.3267 38.9474 21.5322 38.965C22.0258 39.0077 22.5025 39.2307 22.8587 39.6207L22.9607 39.7406C23.2881 40.1594 23.4248 40.6678 23.3827 41.1587C23.3398 41.6524 23.1137 42.1322 22.7168 42.4877L22.6038 42.5819C22.1833 42.9078 21.6726 43.044 21.1797 43.002C20.6882 42.9601 20.2123 42.7357 19.8553 42.3449L19.7497 42.2242C19.4238 41.8062 19.287 41.2985 19.3292 40.8077L19.3469 40.6892C19.3713 40.5251 19.4164 40.3639 19.4807 40.2094L17.6568 38.0445L18.8318 44.682C19.2235 44.5577 19.6336 44.5143 20.0357 44.5496C20.8212 44.618 21.5832 44.9845 22.1293 45.6335L22.303 45.8396ZM15.8292 15.5922H18.3123V10.7884C18.3123 10.394 18.4793 10.0319 18.7394 9.77068C19.0055 9.50797 19.3698 9.34166 19.7644 9.34166H40.4282C40.7829 9.34166 41.1095 9.47412 41.3623 9.68752L41.4532 9.767C41.7155 10.0282 41.8803 10.3918 41.8803 10.7884V15.5922H44.3634V10.7884C44.3634 9.7096 43.9215 8.72941 43.2084 8.01929C42.4982 7.30917 41.513 6.86912 40.4282 6.86912H19.7644C18.7003 6.86912 17.7336 7.29078 17.0271 7.97367L16.9843 8.01929C16.2711 8.72941 15.8292 9.7096 15.8292 10.7884V15.5922ZM20.1894 15.5922H40.0032V11.2108H20.1894V15.5922ZM40.7955 25.1085H46.4231C47.3276 25.1085 48.1502 25.4764 48.7451 26.0688C49.2336 26.5552 49.5698 27.1947 49.6748 27.907H55.5581C56.0414 27.907 56.4819 27.7106 56.7989 27.3949C57.116 27.0792 57.3133 26.6406 57.3133 26.1593V19.209C57.3133 18.7277 57.116 18.2892 56.7989 17.9735C56.4819 17.6578 56.0414 17.4613 55.5581 17.4613H4.63302C4.15118 17.4613 3.7122 17.6585 3.39368 17.9757C3.07369 18.2899 2.87711 18.727 2.87711 19.209V26.1593C2.87711 26.6215 3.05891 27.0431 3.3523 27.3537L3.39368 27.3927C3.7122 27.7098 4.15118 27.907 4.63302 27.907H10.5171C10.622 27.1947 10.9583 26.5552 11.4468 26.0688L11.5074 26.0136C12.0979 25.4536 12.8953 25.1085 13.7703 25.1085H19.3972C20.3017 25.1085 21.1242 25.4764 21.7191 26.0688C22.2076 26.5552 22.5439 27.1947 22.6488 27.907H37.543C37.648 27.1947 37.9842 26.5552 38.4727 26.0688C39.0676 25.4764 39.8909 25.1085 40.7955 25.1085ZM46.4231 26.9776H40.7955C40.4089 26.9776 40.055 27.1366 39.8 27.3905C39.545 27.6443 39.3854 27.9968 39.3854 28.3817V29.3008C39.3854 29.6857 39.545 30.0381 39.8 30.292C40.055 30.5459 40.4089 30.7048 40.7955 30.7048H46.4231C46.8096 30.7048 47.1628 30.5459 47.4178 30.292C47.6728 30.0381 47.8324 29.6857 47.8324 29.3008V28.3817C47.8324 27.9968 47.6728 27.6443 47.4178 27.3905C47.1628 27.1366 46.8096 26.9776 46.4231 26.9776ZM19.3972 26.9776H13.7703C13.4007 26.9776 13.0623 27.1204 12.8103 27.3522L12.7741 27.3905C12.5191 27.6443 12.3595 27.9968 12.3595 28.3817V29.3008C12.3595 29.6857 12.5191 30.0381 12.7741 30.292C13.0275 30.5474 13.3815 30.7048 13.7703 30.7048H19.3972C19.7837 30.7048 20.1369 30.5459 20.3919 30.292C20.6468 30.0381 20.8065 29.6857 20.8065 29.3008V28.3817C20.8065 27.9968 20.6468 27.6443 20.3919 27.3905C20.1369 27.1366 19.7837 26.9776 19.3972 26.9776Z" fill="#0066FF"/>
<path d="M56.0326 29.7453V51.9024C56.0326 52.8981 55.6239 53.8032 54.9662 54.4581L54.907 54.5126C54.2537 55.1351 53.3677 55.52 52.4003 55.52H7.52776C6.52786 55.52 5.61887 55.1131 4.96114 54.4581C4.30342 53.8032 3.89474 52.8981 3.89474 51.9024V29.7011C3.18971 29.5554 2.55785 29.2037 2.06641 28.7143L2.01172 28.6554C1.38651 28.0049 1 27.1233 1 26.1593V19.209C1 18.2156 1.40942 17.3112 2.06862 16.6563C2.72413 15.9991 3.63313 15.5922 4.63302 15.5922H13.9521V10.7884C13.9521 9.19375 14.6046 7.74555 15.657 6.69766L15.7139 6.64542C16.7625 5.62844 18.1933 5 19.7644 5H40.4282C42.0274 5 43.4796 5.65125 44.5319 6.69766C45.588 7.74555 46.2406 9.19375 46.2406 10.7884V15.5922H55.5581C56.5558 15.5922 57.4633 15.9999 58.121 16.6533C58.781 17.3119 59.1904 18.2156 59.1904 19.209V26.1593C59.1904 27.152 58.7817 28.0564 58.1247 28.7114C57.5697 29.2625 56.8418 29.6386 56.0326 29.7453ZM31.4786 53.6509L41.0911 45.6173C40.069 44.9874 39.16 44.2015 38.3973 43.2964C37.6354 42.392 37.0168 41.3647 36.5705 40.2513L20.5338 53.6509H31.4786ZM42.2159 44.1154L44.2615 38.3969L38.2495 39.4095C38.6242 40.3941 39.163 41.3022 39.834 42.0984C40.5043 42.8931 41.3083 43.5775 42.2159 44.1154ZM17.6183 53.6509L21.2898 50.583L19.9647 49.0097C19.6329 48.6153 19.6854 48.0259 20.0815 47.6954L20.8671 47.039L20.6926 46.8315C20.482 46.5806 20.1835 46.4378 19.8746 46.4113C19.5642 46.3848 19.2442 46.4732 18.9914 46.6844L18.7453 46.8867C18.3507 47.2171 17.761 47.1671 17.4291 46.7741C17.319 46.6439 17.251 46.4916 17.2237 46.3348L15.2017 34.9361C15.1131 34.4284 15.4545 33.9442 15.9644 33.8559C16.1492 33.8235 16.331 33.8485 16.4921 33.9162L27.3675 37.859C27.853 38.0341 28.1043 38.5699 27.9284 39.0533C27.87 39.2138 27.7717 39.3484 27.649 39.45L27.4037 39.656C27.1524 39.8665 27.0083 40.1638 26.9817 40.4706C26.9551 40.779 27.0445 41.0976 27.2566 41.3493L27.4303 41.5553L28.2181 40.8974C28.6142 40.567 29.2062 40.6193 29.538 41.0137L30.8623 42.5855L36.3998 37.9584C36.5239 37.8546 36.6762 37.7817 36.8476 37.7538L45.486 36.299C45.6493 36.2644 45.823 36.2732 45.9915 36.3321C46.4793 36.5035 46.7357 37.037 46.5635 37.5227L43.6111 45.7792C43.5564 45.9316 43.4626 46.0728 43.3288 46.184L34.3941 53.6509H52.4003C52.8636 53.6509 53.2871 53.4706 53.5997 53.1777L53.6389 53.1365C53.9574 52.8193 54.1554 52.3822 54.1554 51.9024V29.7762H49.6748C49.5698 30.4878 49.2336 31.1272 48.7451 31.6136C48.1502 32.206 47.3276 32.574 46.4231 32.574H40.7955C39.8909 32.574 39.0676 32.206 38.4727 31.6136C37.9842 31.1272 37.648 30.4878 37.543 29.7762H22.6488C22.5439 30.4878 22.2076 31.1272 21.7191 31.6136C21.1242 32.206 20.3017 32.574 19.3972 32.574H13.7703C12.8672 32.574 12.0461 32.206 11.4505 31.6136C10.959 31.1272 10.622 30.4878 10.5171 29.7762H5.77185V40.8393V51.9024C5.77185 52.3822 5.96991 52.8193 6.28842 53.1365C6.60694 53.4537 7.04592 53.6509 7.52776 53.6509H17.6183ZM22.7257 49.3835L29.4264 43.7843L28.7044 42.927L22.0029 48.5255L22.7257 49.3835ZM22.303 45.8396L25.9951 42.7548L25.82 42.5473C25.2746 41.9004 25.0447 41.091 25.112 40.3102C25.1475 39.9084 25.262 39.5133 25.4534 39.1497L19.0897 36.8428L20.9136 39.007C21.1176 38.9613 21.3267 38.9474 21.5322 38.965C22.0258 39.0077 22.5025 39.2307 22.8587 39.6207L22.9607 39.7406C23.2881 40.1594 23.4248 40.6678 23.3827 41.1587C23.3398 41.6524 23.1137 42.1322 22.7168 42.4877L22.6038 42.5819C22.1833 42.9078 21.6726 43.044 21.1797 43.002C20.6882 42.9601 20.2123 42.7357 19.8553 42.3449L19.7497 42.2242C19.4238 41.8062 19.287 41.2985 19.3292 40.8077L19.3469 40.6892C19.3713 40.5251 19.4164 40.3639 19.4807 40.2094L17.6568 38.0445L18.8318 44.682C19.2235 44.5577 19.6336 44.5143 20.0357 44.5496C20.8212 44.618 21.5832 44.9845 22.1293 45.6335L22.303 45.8396ZM15.8292 15.5922H18.3123V10.7884C18.3123 10.394 18.4793 10.0319 18.7394 9.77068C19.0055 9.50797 19.3698 9.34166 19.7644 9.34166H40.4282C40.7829 9.34166 41.1095 9.47412 41.3623 9.68752L41.4532 9.767C41.7155 10.0282 41.8803 10.3918 41.8803 10.7884V15.5922H44.3634V10.7884C44.3634 9.7096 43.9215 8.72941 43.2084 8.01929C42.4982 7.30917 41.513 6.86912 40.4282 6.86912H19.7644C18.7003 6.86912 17.7336 7.29078 17.0271 7.97367L16.9843 8.01929C16.2711 8.72941 15.8292 9.7096 15.8292 10.7884V15.5922ZM20.1894 15.5922H40.0032V11.2108H20.1894V15.5922ZM40.7955 25.1085H46.4231C47.3276 25.1085 48.1502 25.4764 48.7451 26.0688C49.2336 26.5552 49.5698 27.1947 49.6748 27.907H55.5581C56.0414 27.907 56.4819 27.7106 56.7989 27.3949C57.116 27.0792 57.3133 26.6406 57.3133 26.1593V19.209C57.3133 18.7277 57.116 18.2892 56.7989 17.9735C56.4819 17.6578 56.0414 17.4613 55.5581 17.4613H4.63302C4.15118 17.4613 3.7122 17.6585 3.39368 17.9757C3.07369 18.2899 2.87711 18.727 2.87711 19.209V26.1593C2.87711 26.6215 3.05891 27.0431 3.3523 27.3537L3.39368 27.3927C3.7122 27.7098 4.15118 27.907 4.63302 27.907H10.5171C10.622 27.1947 10.9583 26.5552 11.4468 26.0688L11.5074 26.0136C12.0979 25.4536 12.8953 25.1085 13.7703 25.1085H19.3972C20.3017 25.1085 21.1242 25.4764 21.7191 26.0688C22.2076 26.5552 22.5439 27.1947 22.6488 27.907H37.543C37.648 27.1947 37.9842 26.5552 38.4727 26.0688C39.0676 25.4764 39.8909 25.1085 40.7955 25.1085ZM46.4231 26.9776H40.7955C40.4089 26.9776 40.055 27.1366 39.8 27.3905C39.545 27.6443 39.3854 27.9968 39.3854 28.3817V29.3008C39.3854 29.6857 39.545 30.0381 39.8 30.292C40.055 30.5459 40.4089 30.7048 40.7955 30.7048H46.4231C46.8096 30.7048 47.1628 30.5459 47.4178 30.292C47.6728 30.0381 47.8324 29.6857 47.8324 29.3008V28.3817C47.8324 27.9968 47.6728 27.6443 47.4178 27.3905C47.1628 27.1366 46.8096 26.9776 46.4231 26.9776ZM19.3972 26.9776H13.7703C13.4007 26.9776 13.0623 27.1204 12.8103 27.3522L12.7741 27.3905C12.5191 27.6443 12.3595 27.9968 12.3595 28.3817V29.3008C12.3595 29.6857 12.5191 30.0381 12.7741 30.292C13.0275 30.5474 13.3815 30.7048 13.7703 30.7048H19.3972C19.7837 30.7048 20.1369 30.5459 20.3919 30.292C20.6468 30.0381 20.8065 29.6857 20.8065 29.3008V28.3817C20.8065 27.9968 20.6468 27.6443 20.3919 27.3905C20.1369 27.1366 19.7837 26.9776 19.3972 26.9776Z" stroke="#0066FF" stroke-width="0.4" mask="url(#path-1-outside-1_4825_1384)"/>
</svg>
