<svg width="60" height="60" viewBox="0 0 60 60" fill="none" xmlns="http://www.w3.org/2000/svg">
<path d="M47.825 13.0756L45.7112 7.66177C45.5668 7.28585 45.2213 7.03524 44.8212 7C44.8056 7 44.792 7.00587 44.7763 7.00587H15.2169V7.01175C15.2013 7.01175 15.1877 7.00587 15.1779 7.00587C14.7778 7.03524 14.4343 7.28586 14.2879 7.66178L12.1741 13.0756C11.895 13.7883 11.9536 14.544 12.3342 15.2058L18.9935 26.7792C16.2806 29.5653 14.606 33.3693 14.606 37.5616C14.606 46.0725 21.5112 53 29.9958 53C38.4804 53 45.3856 46.073 45.3856 37.5616C45.3856 33.3716 43.7109 29.5675 40.998 26.7792L47.6574 15.2058C48.0497 14.544 48.1041 13.7863 47.825 13.0756ZM30.0014 22.1232C28.2624 22.1232 26.5936 22.4189 25.0342 22.9495L19.9792 14.1624H40.0197L34.9688 22.9495C33.4093 22.4189 31.7405 22.1232 30.0014 22.1232ZM40.6795 13.0304H19.3233L16.5109 8.14345H43.4861L40.6795 13.0304ZM13.2336 13.4906L15.2771 8.26273L23.9665 23.3603C22.452 24.0123 21.0642 24.8992 19.8444 25.9761L13.3179 14.6398C13.1091 14.2736 13.0775 13.888 13.2336 13.4906ZM30.0014 51.8657C22.1419 51.8657 15.7458 45.4495 15.7458 37.5651C15.7458 29.6808 22.1419 23.2605 30.0014 23.2605C37.8609 23.2605 44.257 29.6768 44.257 37.5611C44.257 45.4439 37.8609 51.8657 30.0014 51.8657ZM46.6853 14.6394L40.1588 25.9757C38.939 24.8988 37.5513 24.0099 36.0367 23.3599L44.7262 8.26233L46.7696 13.4902C46.9258 13.8876 46.8941 14.2732 46.6853 14.6394ZM30.0014 24.7737C22.9713 24.7737 17.2543 30.5083 17.2543 37.5611C17.2543 44.6114 22.9708 50.3465 30.0014 50.3465C37.032 50.3465 42.7485 44.6119 42.7485 37.5591C42.7485 30.5088 37.032 24.7737 30.0014 24.7737ZM30.0014 49.2087C23.5959 49.2087 18.3905 43.9808 18.3905 37.5611C18.3905 31.1353 23.6019 25.9135 30.0014 25.9135C36.407 25.9135 41.6123 31.1414 41.6123 37.5611C41.6123 43.9849 36.407 49.2087 30.0014 49.2087ZM33.0501 33.5197L30.8622 29.1789C30.6982 28.8539 30.3723 28.6522 30.0073 28.6483H30.0015C29.6423 28.6483 29.3125 28.848 29.1466 29.1692L26.8435 33.6058L22.0519 34.3518C21.6928 34.4066 21.402 34.6573 21.2869 35.0038C21.1717 35.3504 21.2615 35.7263 21.5172 35.9867L25.005 39.5501L24.236 44.351C24.1755 44.7112 24.3258 45.0676 24.6166 45.2829C24.7864 45.4082 24.9855 45.4729 25.1865 45.4729C25.3309 45.4729 25.4812 45.4376 25.6159 45.373L30.0776 43.1429L34.3891 45.3632C34.7131 45.5277 35.0937 45.4983 35.3884 45.2888C35.6831 45.0774 35.8334 44.723 35.7787 44.3608L35.0448 39.4189L38.4819 35.9906C38.7415 35.7341 38.8313 35.3582 38.722 35.0136C38.6127 34.6671 38.3218 34.4126 37.9627 34.3519L33.0501 33.5197ZM34.0435 38.8082C33.9128 38.9335 33.8542 39.1195 33.8835 39.2937L34.6134 44.1964L30.3371 41.9957C30.1771 41.9154 29.9878 41.9095 29.8277 41.9898L25.405 44.2003L26.1701 39.4445C26.1994 39.2644 26.1408 39.0842 26.0159 38.953L22.5534 35.419L27.3001 34.6769C27.4797 34.6475 27.63 34.5359 27.7139 34.3754L29.9975 29.9799L32.1659 34.2795C32.2459 34.44 32.4001 34.5555 32.5757 34.5849L37.4473 35.4013L34.0435 38.8082Z" fill="#0066FF" stroke="#0066FF" stroke-width="0.6"/>
</svg>
