<svg width="60" height="60" viewBox="0 0 60 60" fill="none" xmlns="http://www.w3.org/2000/svg">
<g clip-path="url(#clip0_4833_1278)">
<mask id="path-1-outside-1_4833_1278" maskUnits="userSpaceOnUse" x="-1" y="6" width="62" height="47" fill="black">
<rect fill="white" x="-1" y="6" width="62" height="47"/>
<path d="M4.5326 7.04073C4.61679 7.0403 4.70098 7.03987 4.78773 7.03943C5.06991 7.03813 5.35209 7.03768 5.63428 7.03723C5.83661 7.0365 6.03894 7.03572 6.24127 7.0349C6.90593 7.03244 7.5706 7.03122 8.23526 7.03005C8.46435 7.02958 8.69344 7.0291 8.92254 7.02861C9.99919 7.02637 11.0758 7.02471 12.1525 7.02373C13.3937 7.02259 14.6349 7.0195 15.8761 7.01477C16.8365 7.01123 17.7968 7.00949 18.7571 7.00911C19.3302 7.00883 19.9032 7.00779 20.4763 7.00483C21.016 7.0021 21.5557 7.00161 22.0954 7.00281C22.2927 7.00287 22.49 7.00214 22.6873 7.00052C24.2452 6.98849 25.5231 7.17766 26.7248 8.25915C26.8215 8.3655 26.9182 8.47184 27.0178 8.58141C27.0759 8.64486 27.1341 8.70831 27.194 8.77368C28.1095 9.86582 28.26 11.2157 28.2522 12.5937C28.2532 12.7404 28.2542 12.8872 28.2552 13.0383C28.2574 13.4356 28.2575 13.8328 28.2565 14.2301C28.2559 14.563 28.2567 14.896 28.2576 15.2289C28.2596 16.0139 28.2592 16.7989 28.2572 17.5839C28.2552 18.3924 28.2571 19.2008 28.2608 20.0093C28.264 20.706 28.2648 21.4026 28.2638 22.0993C28.2633 22.5144 28.2635 22.9294 28.2659 23.3445C28.2685 23.8062 28.2663 24.2678 28.2636 24.7295C28.2657 24.9348 28.2657 24.9348 28.2677 25.1442C28.2569 26.0674 28.2569 26.0674 27.914 26.5373C27.6037 26.7455 27.6037 26.7455 27.2521 26.8187C26.7542 26.715 26.616 26.5727 26.3146 26.1595C26.2276 25.6845 26.2386 25.2145 26.2448 24.7328C26.2443 24.5881 26.2438 24.4434 26.2434 24.2943C26.2427 23.9801 26.2431 23.6661 26.2453 23.3519C26.2487 22.8543 26.2478 22.3569 26.2463 21.8593C26.2438 20.8922 26.2457 19.9252 26.2481 18.9581C26.251 17.7289 26.2525 16.4997 26.2493 15.2704C26.2481 14.7767 26.2493 14.283 26.2523 13.7892C26.2541 13.4085 26.2528 13.0277 26.2521 12.6469C26.2536 12.5114 26.2551 12.3758 26.2567 12.2362C26.251 11.307 26.1074 10.5558 25.4984 9.83065C25.384 9.73798 25.384 9.73798 25.2673 9.64343C25.1913 9.57953 25.1153 9.51563 25.037 9.44979C24.4893 9.08159 24.0263 9.02057 23.3715 9.01883C23.2888 9.01829 23.2062 9.01776 23.1211 9.01722C22.8449 9.01574 22.5688 9.01592 22.2926 9.01612C22.0943 9.01542 21.896 9.01462 21.6977 9.01373C21.1594 9.01166 20.6212 9.01111 20.0829 9.01096C19.7465 9.0108 19.41 9.0103 19.0736 9.00968C17.8993 9.00751 16.7251 9.00655 15.5508 9.00673C14.457 9.00688 13.3633 9.0044 12.2696 9.0007C11.3298 8.99763 10.3901 8.99638 9.45043 8.99653C8.88947 8.99659 8.32854 8.99592 7.7676 8.99344C7.2398 8.99117 6.71206 8.99116 6.18427 8.99286C5.99096 8.9931 5.79766 8.99255 5.60436 8.99113C4.0712 8.97735 4.0712 8.97735 2.7572 9.72354C2.05867 10.5977 1.92756 11.404 1.9211 12.5204C1.91995 12.6714 1.9188 12.8224 1.91762 12.9779C1.91693 13.1432 1.91625 13.3085 1.91558 13.4737C1.91445 13.6493 1.91328 13.825 1.91206 14.0006C1.9089 14.4755 1.90644 14.9505 1.90409 15.4255C1.90152 15.9226 1.89832 16.4196 1.89518 16.9166C1.88934 17.8571 1.88407 18.7975 1.879 19.7379C1.87321 20.8089 1.86678 21.8799 1.86029 22.9509C1.84697 25.1532 1.83453 27.3556 1.82245 29.558C3.71737 29.558 5.61229 29.558 7.56464 29.558C7.5508 28.338 7.5508 28.338 7.53297 27.1182C7.52248 25.2776 7.98145 23.9265 9.25424 22.5693C10.5788 21.3569 12.0856 21.0582 13.8307 21.0746C14.0683 21.0765 14.3056 21.0747 14.5432 21.0724C16.3456 21.0777 17.6932 21.4825 19.0106 22.719C20.1056 23.8287 20.6943 25.143 20.7125 26.7093C20.711 26.9387 20.7082 27.168 20.7043 27.3973C20.7032 27.5155 20.7022 27.6337 20.7011 27.7555C20.6983 28.0439 20.6945 28.3322 20.6896 28.6205C20.8042 28.6202 20.8042 28.6202 20.9211 28.6199C25.45 28.6094 29.9789 28.6014 34.5078 28.5965C35.0518 28.596 35.5958 28.5953 36.1399 28.5947C36.2482 28.5946 36.3565 28.5945 36.4681 28.5944C38.2207 28.5923 39.9734 28.5886 41.7261 28.5843C43.5251 28.5799 45.324 28.5773 47.123 28.5764C48.2327 28.5757 49.3424 28.5737 50.452 28.5699C51.2134 28.5674 51.9748 28.5667 52.7362 28.5673C53.1752 28.5676 53.6142 28.5671 54.0532 28.5646C54.53 28.5619 55.0068 28.5628 55.4836 28.5641C55.69 28.5621 55.69 28.5621 55.9005 28.56C57.1215 28.5688 58.1461 28.8316 59.0429 29.6916C59.9319 30.6534 60.0998 31.4919 60.0987 32.7851C60.0999 32.9882 60.0999 32.9882 60.1011 33.1953C60.1033 33.6424 60.1038 34.0895 60.104 34.5366C60.1046 34.7693 60.1051 35.002 60.1058 35.2347C60.1077 35.9664 60.1082 36.6981 60.1081 37.4298C60.1079 38.1821 60.1104 38.9345 60.1141 39.6868C60.1172 40.3347 60.1184 40.9826 60.1183 41.6305C60.1182 42.0166 60.1191 42.4027 60.1214 42.7887C60.1237 43.2201 60.123 43.6514 60.1216 44.0827C60.1229 44.2089 60.1242 44.3351 60.1256 44.4651C60.1166 45.5554 59.8491 46.498 59.0923 47.3082C58.1791 48.1293 57.2599 48.3435 56.0598 48.3362C55.8802 48.3365 55.8802 48.3365 55.6969 48.3368C55.2958 48.3372 54.8948 48.3359 54.4937 48.3346C54.2061 48.3345 53.9185 48.3346 53.631 48.3347C53.0119 48.3347 52.3929 48.3341 51.7738 48.3328C50.8788 48.3309 49.9838 48.3302 49.0888 48.3299C47.6366 48.3294 46.1844 48.3279 44.7322 48.3257C43.3217 48.3235 41.9112 48.3218 40.5007 48.3209C40.3703 48.3208 40.3703 48.3208 40.2372 48.3207C39.8008 48.3204 39.3645 48.3201 38.9282 48.3198C35.3096 48.3173 31.691 48.3132 28.0725 48.308C28.0573 48.3805 28.0422 48.453 28.0267 48.5277C27.9962 48.6703 27.9962 48.6703 27.965 48.8158C27.9351 48.9571 27.9351 48.9571 27.9046 49.1014C27.7126 49.8556 27.1148 50.4956 26.549 51.0033C26.462 51.083 26.375 51.1628 26.2853 51.245C25.4452 51.8369 24.6222 52.0718 23.6045 52.0752C23.5203 52.0757 23.4361 52.0761 23.3494 52.0765C23.0672 52.0778 22.785 52.0783 22.5028 52.0787C22.3005 52.0795 22.0981 52.0802 21.8958 52.0811C21.2312 52.0835 20.5665 52.0847 19.9018 52.0859C19.6727 52.0864 19.4436 52.0869 19.2146 52.0873C18.1379 52.0896 17.0612 52.0912 15.9846 52.0922C14.7434 52.0934 13.5022 52.0965 12.2609 52.1012C11.3006 52.1047 10.3403 52.1065 9.38 52.1068C8.80692 52.1071 8.23386 52.1082 7.66078 52.1111C7.12107 52.1139 6.5814 52.1143 6.04168 52.1131C5.84436 52.1131 5.64705 52.1138 5.44974 52.1154C3.84251 52.1278 2.55803 51.9186 1.3537 50.7689C0.256358 49.6194 -0.00630272 48.3987 0.00511405 46.8463C0.00438281 46.692 0.00365151 46.5377 0.0028981 46.3788C0.000954317 45.9539 0.00190242 45.5291 0.00336034 45.1043C0.00442582 44.6448 0.00278157 44.1853 0.00149486 43.7258C-0.000584699 42.827 -0.000141473 41.9282 0.00121949 41.0294C0.00228 40.2986 0.00242091 39.5679 0.0019115 38.8371C0.00183967 38.7329 0.0017678 38.6288 0.00169379 38.5214C0.00154391 38.3098 0.00139186 38.0981 0.00123782 37.8864C-9.74409e-05 35.9037 0.00143577 33.9209 0.00395668 31.9381C0.00605081 30.2384 0.00568719 28.5388 0.00352619 26.8391C0.00101518 24.8632 3.13544e-05 22.8873 0.00146938 20.9114C0.00161869 20.7006 0.00176611 20.4897 0.0019115 20.2788C0.00201997 20.1232 0.00201988 20.1232 0.00213054 19.9645C0.00253453 19.235 0.00185383 18.5054 0.000749207 17.7759C-0.000568213 16.8864 -0.000204027 15.9968 0.00228701 15.1073C0.00351524 14.6538 0.00400773 14.2003 0.00245152 13.7468C0.000787357 13.2544 0.00278021 12.7621 0.00511405 12.2697C0.0040684 12.1275 0.00302281 11.9853 0.00194547 11.8388C0.0150836 10.407 0.42821 9.30232 1.42282 8.27105C2.31954 7.43974 3.32439 7.04474 4.5326 7.04073ZM10.1428 24.4017C9.66198 25.1781 9.42446 25.8392 9.42819 26.7542C9.42836 26.8343 9.42852 26.9144 9.4287 26.997C9.42935 27.2525 9.43082 27.508 9.43231 27.7635C9.4329 27.937 9.43344 28.1104 9.43392 28.2838C9.43521 28.7085 9.43723 29.1333 9.43964 29.558C9.62325 29.5605 9.62325 29.5605 9.81057 29.5632C10.2647 29.5699 10.7187 29.579 11.1727 29.5887C11.3692 29.5926 11.5658 29.5959 11.7623 29.5986C12.0448 29.6025 12.3272 29.6086 12.6097 29.6152C12.6976 29.6159 12.7855 29.6167 12.876 29.6175C13.4827 29.6346 13.4827 29.6346 13.7693 29.8332C13.9577 30.1285 13.9887 30.383 14.0099 30.7299C13.8967 31.0521 13.8482 31.1623 13.5412 31.3158C13.3838 31.3279 13.2259 31.3329 13.0681 31.3343C12.9692 31.3355 12.8703 31.3366 12.7684 31.3378C12.6052 31.3388 12.6052 31.3388 12.4388 31.3399C12.3245 31.341 12.2102 31.3422 12.0924 31.3434C11.7132 31.3471 11.334 31.35 10.9548 31.3529C10.6924 31.3553 10.43 31.3577 10.1676 31.3602C9.476 31.3667 8.78437 31.3725 8.09274 31.3782C7.38737 31.384 6.68202 31.3906 5.97666 31.397C4.59193 31.4097 3.20719 31.4215 1.82245 31.433C1.81697 33.4907 1.81284 35.5485 1.81031 37.6062C1.8091 38.5618 1.80746 39.5173 1.80477 40.4728C1.80243 41.3061 1.80092 42.1393 1.8004 42.9725C1.80009 43.4133 1.79938 43.8542 1.79767 44.295C1.79607 44.7107 1.79559 45.1264 1.79594 45.5422C1.79585 45.7659 1.79459 45.9896 1.79329 46.2133C1.79633 47.4941 1.86239 48.5177 2.75995 49.4799C3.39858 50.0865 4.02744 50.212 4.89247 50.2143C5.01584 50.2151 5.01584 50.2151 5.14171 50.2159C5.41589 50.2174 5.69005 50.2172 5.96424 50.217C6.1614 50.2177 6.35857 50.2185 6.55573 50.2194C7.09034 50.2215 7.62495 50.222 8.15956 50.2222C8.4938 50.2223 8.82803 50.2228 9.16226 50.2235C10.3289 50.2256 11.4956 50.2266 12.6622 50.2264C13.7487 50.2263 14.8352 50.2287 15.9217 50.2324C16.8555 50.2355 17.7892 50.2368 18.723 50.2366C19.2802 50.2366 19.8375 50.2372 20.3948 50.2397C20.919 50.242 21.4432 50.242 21.9674 50.2403C22.1594 50.24 22.3514 50.2406 22.5434 50.242C23.6862 50.2499 24.5481 50.2438 25.4394 49.4501C25.5536 49.3162 25.5536 49.3162 25.6701 49.1796C25.7487 49.09 25.8272 49.0004 25.9081 48.9081C26.1136 48.6618 26.1136 48.6618 26.0803 48.308C26.0117 48.3077 25.9432 48.3074 25.8726 48.3071C24.206 48.3002 22.5395 48.2914 20.8729 48.2804C20.067 48.2751 19.2611 48.2705 18.4552 48.2674C17.6778 48.2644 16.9005 48.2596 16.1232 48.2537C15.8262 48.2517 15.5292 48.2504 15.2322 48.2497C14.8171 48.2485 14.4022 48.2453 13.9871 48.2415C13.8635 48.2416 13.7398 48.2418 13.6124 48.242C13.4995 48.2405 13.3867 48.239 13.2703 48.2375C13.1721 48.237 13.074 48.2364 12.9728 48.2359C12.6601 48.1799 12.5574 48.092 12.3693 47.8392C12.2906 47.4376 12.2771 47.1617 12.5051 46.8086C12.9236 46.3248 13.3544 45.9531 13.8778 45.5842C14.9112 44.8064 15.8912 43.9716 16.1533 42.6475C16.3828 41.0186 16.2889 39.3496 16.2223 37.7117C16.1922 36.9028 16.1804 36.0933 16.1674 35.2839C16.1573 34.6548 16.1441 34.0263 16.1205 33.3975C16.117 33.282 16.1136 33.1665 16.11 33.0475C16.1036 32.8344 16.0954 32.6213 16.0848 32.4084C16.058 31.3507 16.4279 30.4312 17.1488 29.655C17.6453 29.2452 18.2273 28.9923 18.8146 28.7377C18.825 28.3519 18.8312 27.9663 18.8366 27.5804C18.8396 27.4729 18.8425 27.3653 18.8455 27.2545C18.8598 25.9044 18.4964 24.9471 17.5732 23.9696C16.5809 23.0335 15.4492 22.92 14.1345 22.9369C13.994 22.9351 13.8536 22.9333 13.709 22.9314C12.2687 22.9377 11.0958 23.2784 10.1428 24.4017ZM18.1848 31.2645C17.9272 31.6508 17.8625 31.9423 17.8641 32.3959C17.8642 32.547 17.8642 32.547 17.8642 32.7011C17.8648 32.8112 17.8655 32.9213 17.8661 33.0348C17.8664 33.2758 17.8667 33.5168 17.867 33.7578C17.8676 33.9498 17.8676 33.9498 17.8681 34.1456C17.8694 34.8229 17.867 35.5002 17.8652 36.1775C17.8631 37.0395 17.8621 37.9016 17.8655 38.7636C17.8681 39.4601 17.8668 40.1564 17.8628 40.8529C17.862 41.118 17.8626 41.3832 17.8648 41.6483C17.8676 42.02 17.8654 42.3914 17.862 42.7632C17.864 42.8721 17.866 42.9811 17.8681 43.0933C17.8543 43.8237 17.6667 44.1892 17.1534 44.7084C17.0828 44.7748 17.0123 44.8411 16.9396 44.9095C16.8102 45.041 16.6809 45.1726 16.5519 45.3046C16.43 45.4247 16.3078 45.5445 16.1852 45.6639C15.9651 45.8788 15.7482 46.0954 15.5334 46.3158C15.5334 46.3545 15.5334 46.3931 15.5334 46.433C20.7894 46.4437 26.0453 46.452 31.3013 46.4569C31.9216 46.4575 32.542 46.4581 33.1623 46.4587C33.2858 46.4588 33.4093 46.459 33.5365 46.4591C35.5369 46.4611 37.5373 46.4648 39.5378 46.4691C41.5899 46.4735 43.6421 46.4761 45.6943 46.4771C46.9608 46.4777 48.2274 46.4798 49.494 46.4836C50.3622 46.486 51.2304 46.4868 52.0986 46.4862C52.5998 46.4859 53.1009 46.4863 53.602 46.4889C54.0608 46.4911 54.5196 46.4912 54.9784 46.4896C55.1444 46.4894 55.3103 46.49 55.4762 46.4915C56.6817 46.5049 56.6817 46.5049 57.7209 45.9642C58.3654 45.2255 58.3246 44.31 58.3257 43.3894C58.3263 43.2722 58.3269 43.1549 58.3275 43.0341C58.3292 42.6467 58.33 42.2592 58.3306 41.8718C58.3313 41.6019 58.332 41.3321 58.3327 41.0622C58.3339 40.4963 58.3346 39.9305 58.335 39.3646C58.3356 38.6411 58.3384 37.9175 58.3418 37.1939C58.344 36.6363 58.3446 36.0788 58.3447 35.5212C58.3451 35.2545 58.346 34.9878 58.3476 34.7212C58.3496 34.3473 58.3494 33.9735 58.3486 33.5997C58.3497 33.4904 58.3508 33.3812 58.3519 33.2686C58.3469 32.4842 58.257 31.6943 57.7538 31.0631C57.685 31.0111 57.6161 30.9592 57.5451 30.9056C57.4762 30.8513 57.4073 30.7969 57.3364 30.7408C56.945 30.4918 56.6076 30.4806 56.1568 30.4797C55.9605 30.479 55.9605 30.479 55.7603 30.4782C55.5438 30.4782 55.5439 30.4782 55.323 30.4782C55.1701 30.4778 55.0173 30.4774 54.8598 30.4769C54.4346 30.4758 54.0094 30.4753 53.5842 30.475C53.126 30.4745 52.6678 30.4734 52.2096 30.4724C51.1026 30.4701 49.9956 30.4689 48.8886 30.4679C48.3674 30.4673 47.8463 30.4667 47.3251 30.4661C45.593 30.4641 43.8609 30.4624 42.1288 30.4616C41.6793 30.4613 41.2297 30.4611 40.7802 30.4609C40.6685 30.4608 40.5567 30.4608 40.4416 30.4607C38.631 30.4597 36.8205 30.4568 35.0099 30.453C33.1516 30.4491 31.2933 30.447 29.435 30.4466C28.3914 30.4464 27.3478 30.4453 26.3042 30.4423C25.4156 30.4398 24.5269 30.4388 23.6383 30.44C23.1848 30.4405 22.7314 30.4403 22.278 30.438C21.7864 30.4356 21.2949 30.4368 20.8033 30.4383C20.66 30.437 20.5168 30.4357 20.3691 30.4344C19.419 30.4417 18.8511 30.5455 18.1848 31.2645Z"/>
</mask>
<path d="M4.5326 7.04073C4.61679 7.0403 4.70098 7.03987 4.78773 7.03943C5.06991 7.03813 5.35209 7.03768 5.63428 7.03723C5.83661 7.0365 6.03894 7.03572 6.24127 7.0349C6.90593 7.03244 7.5706 7.03122 8.23526 7.03005C8.46435 7.02958 8.69344 7.0291 8.92254 7.02861C9.99919 7.02637 11.0758 7.02471 12.1525 7.02373C13.3937 7.02259 14.6349 7.0195 15.8761 7.01477C16.8365 7.01123 17.7968 7.00949 18.7571 7.00911C19.3302 7.00883 19.9032 7.00779 20.4763 7.00483C21.016 7.0021 21.5557 7.00161 22.0954 7.00281C22.2927 7.00287 22.49 7.00214 22.6873 7.00052C24.2452 6.98849 25.5231 7.17766 26.7248 8.25915C26.8215 8.3655 26.9182 8.47184 27.0178 8.58141C27.0759 8.64486 27.1341 8.70831 27.194 8.77368C28.1095 9.86582 28.26 11.2157 28.2522 12.5937C28.2532 12.7404 28.2542 12.8872 28.2552 13.0383C28.2574 13.4356 28.2575 13.8328 28.2565 14.2301C28.2559 14.563 28.2567 14.896 28.2576 15.2289C28.2596 16.0139 28.2592 16.7989 28.2572 17.5839C28.2552 18.3924 28.2571 19.2008 28.2608 20.0093C28.264 20.706 28.2648 21.4026 28.2638 22.0993C28.2633 22.5144 28.2635 22.9294 28.2659 23.3445C28.2685 23.8062 28.2663 24.2678 28.2636 24.7295C28.2657 24.9348 28.2657 24.9348 28.2677 25.1442C28.2569 26.0674 28.2569 26.0674 27.914 26.5373C27.6037 26.7455 27.6037 26.7455 27.2521 26.8187C26.7542 26.715 26.616 26.5727 26.3146 26.1595C26.2276 25.6845 26.2386 25.2145 26.2448 24.7328C26.2443 24.5881 26.2438 24.4434 26.2434 24.2943C26.2427 23.9801 26.2431 23.6661 26.2453 23.3519C26.2487 22.8543 26.2478 22.3569 26.2463 21.8593C26.2438 20.8922 26.2457 19.9252 26.2481 18.9581C26.251 17.7289 26.2525 16.4997 26.2493 15.2704C26.2481 14.7767 26.2493 14.283 26.2523 13.7892C26.2541 13.4085 26.2528 13.0277 26.2521 12.6469C26.2536 12.5114 26.2551 12.3758 26.2567 12.2362C26.251 11.307 26.1074 10.5558 25.4984 9.83065C25.384 9.73798 25.384 9.73798 25.2673 9.64343C25.1913 9.57953 25.1153 9.51563 25.037 9.44979C24.4893 9.08159 24.0263 9.02057 23.3715 9.01883C23.2888 9.01829 23.2062 9.01776 23.1211 9.01722C22.8449 9.01574 22.5688 9.01592 22.2926 9.01612C22.0943 9.01542 21.896 9.01462 21.6977 9.01373C21.1594 9.01166 20.6212 9.01111 20.0829 9.01096C19.7465 9.0108 19.41 9.0103 19.0736 9.00968C17.8993 9.00751 16.7251 9.00655 15.5508 9.00673C14.457 9.00688 13.3633 9.0044 12.2696 9.0007C11.3298 8.99763 10.3901 8.99638 9.45043 8.99653C8.88947 8.99659 8.32854 8.99592 7.7676 8.99344C7.2398 8.99117 6.71206 8.99116 6.18427 8.99286C5.99096 8.9931 5.79766 8.99255 5.60436 8.99113C4.0712 8.97735 4.0712 8.97735 2.7572 9.72354C2.05867 10.5977 1.92756 11.404 1.9211 12.5204C1.91995 12.6714 1.9188 12.8224 1.91762 12.9779C1.91693 13.1432 1.91625 13.3085 1.91558 13.4737C1.91445 13.6493 1.91328 13.825 1.91206 14.0006C1.9089 14.4755 1.90644 14.9505 1.90409 15.4255C1.90152 15.9226 1.89832 16.4196 1.89518 16.9166C1.88934 17.8571 1.88407 18.7975 1.879 19.7379C1.87321 20.8089 1.86678 21.8799 1.86029 22.9509C1.84697 25.1532 1.83453 27.3556 1.82245 29.558C3.71737 29.558 5.61229 29.558 7.56464 29.558C7.5508 28.338 7.5508 28.338 7.53297 27.1182C7.52248 25.2776 7.98145 23.9265 9.25424 22.5693C10.5788 21.3569 12.0856 21.0582 13.8307 21.0746C14.0683 21.0765 14.3056 21.0747 14.5432 21.0724C16.3456 21.0777 17.6932 21.4825 19.0106 22.719C20.1056 23.8287 20.6943 25.143 20.7125 26.7093C20.711 26.9387 20.7082 27.168 20.7043 27.3973C20.7032 27.5155 20.7022 27.6337 20.7011 27.7555C20.6983 28.0439 20.6945 28.3322 20.6896 28.6205C20.8042 28.6202 20.8042 28.6202 20.9211 28.6199C25.45 28.6094 29.9789 28.6014 34.5078 28.5965C35.0518 28.596 35.5958 28.5953 36.1399 28.5947C36.2482 28.5946 36.3565 28.5945 36.4681 28.5944C38.2207 28.5923 39.9734 28.5886 41.7261 28.5843C43.5251 28.5799 45.324 28.5773 47.123 28.5764C48.2327 28.5757 49.3424 28.5737 50.452 28.5699C51.2134 28.5674 51.9748 28.5667 52.7362 28.5673C53.1752 28.5676 53.6142 28.5671 54.0532 28.5646C54.53 28.5619 55.0068 28.5628 55.4836 28.5641C55.69 28.5621 55.69 28.5621 55.9005 28.56C57.1215 28.5688 58.1461 28.8316 59.0429 29.6916C59.9319 30.6534 60.0998 31.4919 60.0987 32.7851C60.0999 32.9882 60.0999 32.9882 60.1011 33.1953C60.1033 33.6424 60.1038 34.0895 60.104 34.5366C60.1046 34.7693 60.1051 35.002 60.1058 35.2347C60.1077 35.9664 60.1082 36.6981 60.1081 37.4298C60.1079 38.1821 60.1104 38.9345 60.1141 39.6868C60.1172 40.3347 60.1184 40.9826 60.1183 41.6305C60.1182 42.0166 60.1191 42.4027 60.1214 42.7887C60.1237 43.2201 60.123 43.6514 60.1216 44.0827C60.1229 44.2089 60.1242 44.3351 60.1256 44.4651C60.1166 45.5554 59.8491 46.498 59.0923 47.3082C58.1791 48.1293 57.2599 48.3435 56.0598 48.3362C55.8802 48.3365 55.8802 48.3365 55.6969 48.3368C55.2958 48.3372 54.8948 48.3359 54.4937 48.3346C54.2061 48.3345 53.9185 48.3346 53.631 48.3347C53.0119 48.3347 52.3929 48.3341 51.7738 48.3328C50.8788 48.3309 49.9838 48.3302 49.0888 48.3299C47.6366 48.3294 46.1844 48.3279 44.7322 48.3257C43.3217 48.3235 41.9112 48.3218 40.5007 48.3209C40.3703 48.3208 40.3703 48.3208 40.2372 48.3207C39.8008 48.3204 39.3645 48.3201 38.9282 48.3198C35.3096 48.3173 31.691 48.3132 28.0725 48.308C28.0573 48.3805 28.0422 48.453 28.0267 48.5277C27.9962 48.6703 27.9962 48.6703 27.965 48.8158C27.9351 48.9571 27.9351 48.9571 27.9046 49.1014C27.7126 49.8556 27.1148 50.4956 26.549 51.0033C26.462 51.083 26.375 51.1628 26.2853 51.245C25.4452 51.8369 24.6222 52.0718 23.6045 52.0752C23.5203 52.0757 23.4361 52.0761 23.3494 52.0765C23.0672 52.0778 22.785 52.0783 22.5028 52.0787C22.3005 52.0795 22.0981 52.0802 21.8958 52.0811C21.2312 52.0835 20.5665 52.0847 19.9018 52.0859C19.6727 52.0864 19.4436 52.0869 19.2146 52.0873C18.1379 52.0896 17.0612 52.0912 15.9846 52.0922C14.7434 52.0934 13.5022 52.0965 12.2609 52.1012C11.3006 52.1047 10.3403 52.1065 9.38 52.1068C8.80692 52.1071 8.23386 52.1082 7.66078 52.1111C7.12107 52.1139 6.5814 52.1143 6.04168 52.1131C5.84436 52.1131 5.64705 52.1138 5.44974 52.1154C3.84251 52.1278 2.55803 51.9186 1.3537 50.7689C0.256358 49.6194 -0.00630272 48.3987 0.00511405 46.8463C0.00438281 46.692 0.00365151 46.5377 0.0028981 46.3788C0.000954317 45.9539 0.00190242 45.5291 0.00336034 45.1043C0.00442582 44.6448 0.00278157 44.1853 0.00149486 43.7258C-0.000584699 42.827 -0.000141473 41.9282 0.00121949 41.0294C0.00228 40.2986 0.00242091 39.5679 0.0019115 38.8371C0.00183967 38.7329 0.0017678 38.6288 0.00169379 38.5214C0.00154391 38.3098 0.00139186 38.0981 0.00123782 37.8864C-9.74409e-05 35.9037 0.00143577 33.9209 0.00395668 31.9381C0.00605081 30.2384 0.00568719 28.5388 0.00352619 26.8391C0.00101518 24.8632 3.13544e-05 22.8873 0.00146938 20.9114C0.00161869 20.7006 0.00176611 20.4897 0.0019115 20.2788C0.00201997 20.1232 0.00201988 20.1232 0.00213054 19.9645C0.00253453 19.235 0.00185383 18.5054 0.000749207 17.7759C-0.000568213 16.8864 -0.000204027 15.9968 0.00228701 15.1073C0.00351524 14.6538 0.00400773 14.2003 0.00245152 13.7468C0.000787357 13.2544 0.00278021 12.7621 0.00511405 12.2697C0.0040684 12.1275 0.00302281 11.9853 0.00194547 11.8388C0.0150836 10.407 0.42821 9.30232 1.42282 8.27105C2.31954 7.43974 3.32439 7.04474 4.5326 7.04073ZM10.1428 24.4017C9.66198 25.1781 9.42446 25.8392 9.42819 26.7542C9.42836 26.8343 9.42852 26.9144 9.4287 26.997C9.42935 27.2525 9.43082 27.508 9.43231 27.7635C9.4329 27.937 9.43344 28.1104 9.43392 28.2838C9.43521 28.7085 9.43723 29.1333 9.43964 29.558C9.62325 29.5605 9.62325 29.5605 9.81057 29.5632C10.2647 29.5699 10.7187 29.579 11.1727 29.5887C11.3692 29.5926 11.5658 29.5959 11.7623 29.5986C12.0448 29.6025 12.3272 29.6086 12.6097 29.6152C12.6976 29.6159 12.7855 29.6167 12.876 29.6175C13.4827 29.6346 13.4827 29.6346 13.7693 29.8332C13.9577 30.1285 13.9887 30.383 14.0099 30.7299C13.8967 31.0521 13.8482 31.1623 13.5412 31.3158C13.3838 31.3279 13.2259 31.3329 13.0681 31.3343C12.9692 31.3355 12.8703 31.3366 12.7684 31.3378C12.6052 31.3388 12.6052 31.3388 12.4388 31.3399C12.3245 31.341 12.2102 31.3422 12.0924 31.3434C11.7132 31.3471 11.334 31.35 10.9548 31.3529C10.6924 31.3553 10.43 31.3577 10.1676 31.3602C9.476 31.3667 8.78437 31.3725 8.09274 31.3782C7.38737 31.384 6.68202 31.3906 5.97666 31.397C4.59193 31.4097 3.20719 31.4215 1.82245 31.433C1.81697 33.4907 1.81284 35.5485 1.81031 37.6062C1.8091 38.5618 1.80746 39.5173 1.80477 40.4728C1.80243 41.3061 1.80092 42.1393 1.8004 42.9725C1.80009 43.4133 1.79938 43.8542 1.79767 44.295C1.79607 44.7107 1.79559 45.1264 1.79594 45.5422C1.79585 45.7659 1.79459 45.9896 1.79329 46.2133C1.79633 47.4941 1.86239 48.5177 2.75995 49.4799C3.39858 50.0865 4.02744 50.212 4.89247 50.2143C5.01584 50.2151 5.01584 50.2151 5.14171 50.2159C5.41589 50.2174 5.69005 50.2172 5.96424 50.217C6.1614 50.2177 6.35857 50.2185 6.55573 50.2194C7.09034 50.2215 7.62495 50.222 8.15956 50.2222C8.4938 50.2223 8.82803 50.2228 9.16226 50.2235C10.3289 50.2256 11.4956 50.2266 12.6622 50.2264C13.7487 50.2263 14.8352 50.2287 15.9217 50.2324C16.8555 50.2355 17.7892 50.2368 18.723 50.2366C19.2802 50.2366 19.8375 50.2372 20.3948 50.2397C20.919 50.242 21.4432 50.242 21.9674 50.2403C22.1594 50.24 22.3514 50.2406 22.5434 50.242C23.6862 50.2499 24.5481 50.2438 25.4394 49.4501C25.5536 49.3162 25.5536 49.3162 25.6701 49.1796C25.7487 49.09 25.8272 49.0004 25.9081 48.9081C26.1136 48.6618 26.1136 48.6618 26.0803 48.308C26.0117 48.3077 25.9432 48.3074 25.8726 48.3071C24.206 48.3002 22.5395 48.2914 20.8729 48.2804C20.067 48.2751 19.2611 48.2705 18.4552 48.2674C17.6778 48.2644 16.9005 48.2596 16.1232 48.2537C15.8262 48.2517 15.5292 48.2504 15.2322 48.2497C14.8171 48.2485 14.4022 48.2453 13.9871 48.2415C13.8635 48.2416 13.7398 48.2418 13.6124 48.242C13.4995 48.2405 13.3867 48.239 13.2703 48.2375C13.1721 48.237 13.074 48.2364 12.9728 48.2359C12.6601 48.1799 12.5574 48.092 12.3693 47.8392C12.2906 47.4376 12.2771 47.1617 12.5051 46.8086C12.9236 46.3248 13.3544 45.9531 13.8778 45.5842C14.9112 44.8064 15.8912 43.9716 16.1533 42.6475C16.3828 41.0186 16.2889 39.3496 16.2223 37.7117C16.1922 36.9028 16.1804 36.0933 16.1674 35.2839C16.1573 34.6548 16.1441 34.0263 16.1205 33.3975C16.117 33.282 16.1136 33.1665 16.11 33.0475C16.1036 32.8344 16.0954 32.6213 16.0848 32.4084C16.058 31.3507 16.4279 30.4312 17.1488 29.655C17.6453 29.2452 18.2273 28.9923 18.8146 28.7377C18.825 28.3519 18.8312 27.9663 18.8366 27.5804C18.8396 27.4729 18.8425 27.3653 18.8455 27.2545C18.8598 25.9044 18.4964 24.9471 17.5732 23.9696C16.5809 23.0335 15.4492 22.92 14.1345 22.9369C13.994 22.9351 13.8536 22.9333 13.709 22.9314C12.2687 22.9377 11.0958 23.2784 10.1428 24.4017ZM18.1848 31.2645C17.9272 31.6508 17.8625 31.9423 17.8641 32.3959C17.8642 32.547 17.8642 32.547 17.8642 32.7011C17.8648 32.8112 17.8655 32.9213 17.8661 33.0348C17.8664 33.2758 17.8667 33.5168 17.867 33.7578C17.8676 33.9498 17.8676 33.9498 17.8681 34.1456C17.8694 34.8229 17.867 35.5002 17.8652 36.1775C17.8631 37.0395 17.8621 37.9016 17.8655 38.7636C17.8681 39.4601 17.8668 40.1564 17.8628 40.8529C17.862 41.118 17.8626 41.3832 17.8648 41.6483C17.8676 42.02 17.8654 42.3914 17.862 42.7632C17.864 42.8721 17.866 42.9811 17.8681 43.0933C17.8543 43.8237 17.6667 44.1892 17.1534 44.7084C17.0828 44.7748 17.0123 44.8411 16.9396 44.9095C16.8102 45.041 16.6809 45.1726 16.5519 45.3046C16.43 45.4247 16.3078 45.5445 16.1852 45.6639C15.9651 45.8788 15.7482 46.0954 15.5334 46.3158C15.5334 46.3545 15.5334 46.3931 15.5334 46.433C20.7894 46.4437 26.0453 46.452 31.3013 46.4569C31.9216 46.4575 32.542 46.4581 33.1623 46.4587C33.2858 46.4588 33.4093 46.459 33.5365 46.4591C35.5369 46.4611 37.5373 46.4648 39.5378 46.4691C41.5899 46.4735 43.6421 46.4761 45.6943 46.4771C46.9608 46.4777 48.2274 46.4798 49.494 46.4836C50.3622 46.486 51.2304 46.4868 52.0986 46.4862C52.5998 46.4859 53.1009 46.4863 53.602 46.4889C54.0608 46.4911 54.5196 46.4912 54.9784 46.4896C55.1444 46.4894 55.3103 46.49 55.4762 46.4915C56.6817 46.5049 56.6817 46.5049 57.7209 45.9642C58.3654 45.2255 58.3246 44.31 58.3257 43.3894C58.3263 43.2722 58.3269 43.1549 58.3275 43.0341C58.3292 42.6467 58.33 42.2592 58.3306 41.8718C58.3313 41.6019 58.332 41.3321 58.3327 41.0622C58.3339 40.4963 58.3346 39.9305 58.335 39.3646C58.3356 38.6411 58.3384 37.9175 58.3418 37.1939C58.344 36.6363 58.3446 36.0788 58.3447 35.5212C58.3451 35.2545 58.346 34.9878 58.3476 34.7212C58.3496 34.3473 58.3494 33.9735 58.3486 33.5997C58.3497 33.4904 58.3508 33.3812 58.3519 33.2686C58.3469 32.4842 58.257 31.6943 57.7538 31.0631C57.685 31.0111 57.6161 30.9592 57.5451 30.9056C57.4762 30.8513 57.4073 30.7969 57.3364 30.7408C56.945 30.4918 56.6076 30.4806 56.1568 30.4797C55.9605 30.479 55.9605 30.479 55.7603 30.4782C55.5438 30.4782 55.5439 30.4782 55.323 30.4782C55.1701 30.4778 55.0173 30.4774 54.8598 30.4769C54.4346 30.4758 54.0094 30.4753 53.5842 30.475C53.126 30.4745 52.6678 30.4734 52.2096 30.4724C51.1026 30.4701 49.9956 30.4689 48.8886 30.4679C48.3674 30.4673 47.8463 30.4667 47.3251 30.4661C45.593 30.4641 43.8609 30.4624 42.1288 30.4616C41.6793 30.4613 41.2297 30.4611 40.7802 30.4609C40.6685 30.4608 40.5567 30.4608 40.4416 30.4607C38.631 30.4597 36.8205 30.4568 35.0099 30.453C33.1516 30.4491 31.2933 30.447 29.435 30.4466C28.3914 30.4464 27.3478 30.4453 26.3042 30.4423C25.4156 30.4398 24.5269 30.4388 23.6383 30.44C23.1848 30.4405 22.7314 30.4403 22.278 30.438C21.7864 30.4356 21.2949 30.4368 20.8033 30.4383C20.66 30.437 20.5168 30.4357 20.3691 30.4344C19.419 30.4417 18.8511 30.5455 18.1848 31.2645Z" fill="#0066FF"/>
<path d="M4.5326 7.04073C4.61679 7.0403 4.70098 7.03987 4.78773 7.03943C5.06991 7.03813 5.35209 7.03768 5.63428 7.03723C5.83661 7.0365 6.03894 7.03572 6.24127 7.0349C6.90593 7.03244 7.5706 7.03122 8.23526 7.03005C8.46435 7.02958 8.69344 7.0291 8.92254 7.02861C9.99919 7.02637 11.0758 7.02471 12.1525 7.02373C13.3937 7.02259 14.6349 7.0195 15.8761 7.01477C16.8365 7.01123 17.7968 7.00949 18.7571 7.00911C19.3302 7.00883 19.9032 7.00779 20.4763 7.00483C21.016 7.0021 21.5557 7.00161 22.0954 7.00281C22.2927 7.00287 22.49 7.00214 22.6873 7.00052C24.2452 6.98849 25.5231 7.17766 26.7248 8.25915C26.8215 8.3655 26.9182 8.47184 27.0178 8.58141C27.0759 8.64486 27.1341 8.70831 27.194 8.77368C28.1095 9.86582 28.26 11.2157 28.2522 12.5937C28.2532 12.7404 28.2542 12.8872 28.2552 13.0383C28.2574 13.4356 28.2575 13.8328 28.2565 14.2301C28.2559 14.563 28.2567 14.896 28.2576 15.2289C28.2596 16.0139 28.2592 16.7989 28.2572 17.5839C28.2552 18.3924 28.2571 19.2008 28.2608 20.0093C28.264 20.706 28.2648 21.4026 28.2638 22.0993C28.2633 22.5144 28.2635 22.9294 28.2659 23.3445C28.2685 23.8062 28.2663 24.2678 28.2636 24.7295C28.2657 24.9348 28.2657 24.9348 28.2677 25.1442C28.2569 26.0674 28.2569 26.0674 27.914 26.5373C27.6037 26.7455 27.6037 26.7455 27.2521 26.8187C26.7542 26.715 26.616 26.5727 26.3146 26.1595C26.2276 25.6845 26.2386 25.2145 26.2448 24.7328C26.2443 24.5881 26.2438 24.4434 26.2434 24.2943C26.2427 23.9801 26.2431 23.6661 26.2453 23.3519C26.2487 22.8543 26.2478 22.3569 26.2463 21.8593C26.2438 20.8922 26.2457 19.9252 26.2481 18.9581C26.251 17.7289 26.2525 16.4997 26.2493 15.2704C26.2481 14.7767 26.2493 14.283 26.2523 13.7892C26.2541 13.4085 26.2528 13.0277 26.2521 12.6469C26.2536 12.5114 26.2551 12.3758 26.2567 12.2362C26.251 11.307 26.1074 10.5558 25.4984 9.83065C25.384 9.73798 25.384 9.73798 25.2673 9.64343C25.1913 9.57953 25.1153 9.51563 25.037 9.44979C24.4893 9.08159 24.0263 9.02057 23.3715 9.01883C23.2888 9.01829 23.2062 9.01776 23.1211 9.01722C22.8449 9.01574 22.5688 9.01592 22.2926 9.01612C22.0943 9.01542 21.896 9.01462 21.6977 9.01373C21.1594 9.01166 20.6212 9.01111 20.0829 9.01096C19.7465 9.0108 19.41 9.0103 19.0736 9.00968C17.8993 9.00751 16.7251 9.00655 15.5508 9.00673C14.457 9.00688 13.3633 9.0044 12.2696 9.0007C11.3298 8.99763 10.3901 8.99638 9.45043 8.99653C8.88947 8.99659 8.32854 8.99592 7.7676 8.99344C7.2398 8.99117 6.71206 8.99116 6.18427 8.99286C5.99096 8.9931 5.79766 8.99255 5.60436 8.99113C4.0712 8.97735 4.0712 8.97735 2.7572 9.72354C2.05867 10.5977 1.92756 11.404 1.9211 12.5204C1.91995 12.6714 1.9188 12.8224 1.91762 12.9779C1.91693 13.1432 1.91625 13.3085 1.91558 13.4737C1.91445 13.6493 1.91328 13.825 1.91206 14.0006C1.9089 14.4755 1.90644 14.9505 1.90409 15.4255C1.90152 15.9226 1.89832 16.4196 1.89518 16.9166C1.88934 17.8571 1.88407 18.7975 1.879 19.7379C1.87321 20.8089 1.86678 21.8799 1.86029 22.9509C1.84697 25.1532 1.83453 27.3556 1.82245 29.558C3.71737 29.558 5.61229 29.558 7.56464 29.558C7.5508 28.338 7.5508 28.338 7.53297 27.1182C7.52248 25.2776 7.98145 23.9265 9.25424 22.5693C10.5788 21.3569 12.0856 21.0582 13.8307 21.0746C14.0683 21.0765 14.3056 21.0747 14.5432 21.0724C16.3456 21.0777 17.6932 21.4825 19.0106 22.719C20.1056 23.8287 20.6943 25.143 20.7125 26.7093C20.711 26.9387 20.7082 27.168 20.7043 27.3973C20.7032 27.5155 20.7022 27.6337 20.7011 27.7555C20.6983 28.0439 20.6945 28.3322 20.6896 28.6205C20.8042 28.6202 20.8042 28.6202 20.9211 28.6199C25.45 28.6094 29.9789 28.6014 34.5078 28.5965C35.0518 28.596 35.5958 28.5953 36.1399 28.5947C36.2482 28.5946 36.3565 28.5945 36.4681 28.5944C38.2207 28.5923 39.9734 28.5886 41.7261 28.5843C43.5251 28.5799 45.324 28.5773 47.123 28.5764C48.2327 28.5757 49.3424 28.5737 50.452 28.5699C51.2134 28.5674 51.9748 28.5667 52.7362 28.5673C53.1752 28.5676 53.6142 28.5671 54.0532 28.5646C54.53 28.5619 55.0068 28.5628 55.4836 28.5641C55.69 28.5621 55.69 28.5621 55.9005 28.56C57.1215 28.5688 58.1461 28.8316 59.0429 29.6916C59.9319 30.6534 60.0998 31.4919 60.0987 32.7851C60.0999 32.9882 60.0999 32.9882 60.1011 33.1953C60.1033 33.6424 60.1038 34.0895 60.104 34.5366C60.1046 34.7693 60.1051 35.002 60.1058 35.2347C60.1077 35.9664 60.1082 36.6981 60.1081 37.4298C60.1079 38.1821 60.1104 38.9345 60.1141 39.6868C60.1172 40.3347 60.1184 40.9826 60.1183 41.6305C60.1182 42.0166 60.1191 42.4027 60.1214 42.7887C60.1237 43.2201 60.123 43.6514 60.1216 44.0827C60.1229 44.2089 60.1242 44.3351 60.1256 44.4651C60.1166 45.5554 59.8491 46.498 59.0923 47.3082C58.1791 48.1293 57.2599 48.3435 56.0598 48.3362C55.8802 48.3365 55.8802 48.3365 55.6969 48.3368C55.2958 48.3372 54.8948 48.3359 54.4937 48.3346C54.2061 48.3345 53.9185 48.3346 53.631 48.3347C53.0119 48.3347 52.3929 48.3341 51.7738 48.3328C50.8788 48.3309 49.9838 48.3302 49.0888 48.3299C47.6366 48.3294 46.1844 48.3279 44.7322 48.3257C43.3217 48.3235 41.9112 48.3218 40.5007 48.3209C40.3703 48.3208 40.3703 48.3208 40.2372 48.3207C39.8008 48.3204 39.3645 48.3201 38.9282 48.3198C35.3096 48.3173 31.691 48.3132 28.0725 48.308C28.0573 48.3805 28.0422 48.453 28.0267 48.5277C27.9962 48.6703 27.9962 48.6703 27.965 48.8158C27.9351 48.9571 27.9351 48.9571 27.9046 49.1014C27.7126 49.8556 27.1148 50.4956 26.549 51.0033C26.462 51.083 26.375 51.1628 26.2853 51.245C25.4452 51.8369 24.6222 52.0718 23.6045 52.0752C23.5203 52.0757 23.4361 52.0761 23.3494 52.0765C23.0672 52.0778 22.785 52.0783 22.5028 52.0787C22.3005 52.0795 22.0981 52.0802 21.8958 52.0811C21.2312 52.0835 20.5665 52.0847 19.9018 52.0859C19.6727 52.0864 19.4436 52.0869 19.2146 52.0873C18.1379 52.0896 17.0612 52.0912 15.9846 52.0922C14.7434 52.0934 13.5022 52.0965 12.2609 52.1012C11.3006 52.1047 10.3403 52.1065 9.38 52.1068C8.80692 52.1071 8.23386 52.1082 7.66078 52.1111C7.12107 52.1139 6.5814 52.1143 6.04168 52.1131C5.84436 52.1131 5.64705 52.1138 5.44974 52.1154C3.84251 52.1278 2.55803 51.9186 1.3537 50.7689C0.256358 49.6194 -0.00630272 48.3987 0.00511405 46.8463C0.00438281 46.692 0.00365151 46.5377 0.0028981 46.3788C0.000954317 45.9539 0.00190242 45.5291 0.00336034 45.1043C0.00442582 44.6448 0.00278157 44.1853 0.00149486 43.7258C-0.000584699 42.827 -0.000141473 41.9282 0.00121949 41.0294C0.00228 40.2986 0.00242091 39.5679 0.0019115 38.8371C0.00183967 38.7329 0.0017678 38.6288 0.00169379 38.5214C0.00154391 38.3098 0.00139186 38.0981 0.00123782 37.8864C-9.74409e-05 35.9037 0.00143577 33.9209 0.00395668 31.9381C0.00605081 30.2384 0.00568719 28.5388 0.00352619 26.8391C0.00101518 24.8632 3.13544e-05 22.8873 0.00146938 20.9114C0.00161869 20.7006 0.00176611 20.4897 0.0019115 20.2788C0.00201997 20.1232 0.00201988 20.1232 0.00213054 19.9645C0.00253453 19.235 0.00185383 18.5054 0.000749207 17.7759C-0.000568213 16.8864 -0.000204027 15.9968 0.00228701 15.1073C0.00351524 14.6538 0.00400773 14.2003 0.00245152 13.7468C0.000787357 13.2544 0.00278021 12.7621 0.00511405 12.2697C0.0040684 12.1275 0.00302281 11.9853 0.00194547 11.8388C0.0150836 10.407 0.42821 9.30232 1.42282 8.27105C2.31954 7.43974 3.32439 7.04474 4.5326 7.04073ZM10.1428 24.4017C9.66198 25.1781 9.42446 25.8392 9.42819 26.7542C9.42836 26.8343 9.42852 26.9144 9.4287 26.997C9.42935 27.2525 9.43082 27.508 9.43231 27.7635C9.4329 27.937 9.43344 28.1104 9.43392 28.2838C9.43521 28.7085 9.43723 29.1333 9.43964 29.558C9.62325 29.5605 9.62325 29.5605 9.81057 29.5632C10.2647 29.5699 10.7187 29.579 11.1727 29.5887C11.3692 29.5926 11.5658 29.5959 11.7623 29.5986C12.0448 29.6025 12.3272 29.6086 12.6097 29.6152C12.6976 29.6159 12.7855 29.6167 12.876 29.6175C13.4827 29.6346 13.4827 29.6346 13.7693 29.8332C13.9577 30.1285 13.9887 30.383 14.0099 30.7299C13.8967 31.0521 13.8482 31.1623 13.5412 31.3158C13.3838 31.3279 13.2259 31.3329 13.0681 31.3343C12.9692 31.3355 12.8703 31.3366 12.7684 31.3378C12.6052 31.3388 12.6052 31.3388 12.4388 31.3399C12.3245 31.341 12.2102 31.3422 12.0924 31.3434C11.7132 31.3471 11.334 31.35 10.9548 31.3529C10.6924 31.3553 10.43 31.3577 10.1676 31.3602C9.476 31.3667 8.78437 31.3725 8.09274 31.3782C7.38737 31.384 6.68202 31.3906 5.97666 31.397C4.59193 31.4097 3.20719 31.4215 1.82245 31.433C1.81697 33.4907 1.81284 35.5485 1.81031 37.6062C1.8091 38.5618 1.80746 39.5173 1.80477 40.4728C1.80243 41.3061 1.80092 42.1393 1.8004 42.9725C1.80009 43.4133 1.79938 43.8542 1.79767 44.295C1.79607 44.7107 1.79559 45.1264 1.79594 45.5422C1.79585 45.7659 1.79459 45.9896 1.79329 46.2133C1.79633 47.4941 1.86239 48.5177 2.75995 49.4799C3.39858 50.0865 4.02744 50.212 4.89247 50.2143C5.01584 50.2151 5.01584 50.2151 5.14171 50.2159C5.41589 50.2174 5.69005 50.2172 5.96424 50.217C6.1614 50.2177 6.35857 50.2185 6.55573 50.2194C7.09034 50.2215 7.62495 50.222 8.15956 50.2222C8.4938 50.2223 8.82803 50.2228 9.16226 50.2235C10.3289 50.2256 11.4956 50.2266 12.6622 50.2264C13.7487 50.2263 14.8352 50.2287 15.9217 50.2324C16.8555 50.2355 17.7892 50.2368 18.723 50.2366C19.2802 50.2366 19.8375 50.2372 20.3948 50.2397C20.919 50.242 21.4432 50.242 21.9674 50.2403C22.1594 50.24 22.3514 50.2406 22.5434 50.242C23.6862 50.2499 24.5481 50.2438 25.4394 49.4501C25.5536 49.3162 25.5536 49.3162 25.6701 49.1796C25.7487 49.09 25.8272 49.0004 25.9081 48.9081C26.1136 48.6618 26.1136 48.6618 26.0803 48.308C26.0117 48.3077 25.9432 48.3074 25.8726 48.3071C24.206 48.3002 22.5395 48.2914 20.8729 48.2804C20.067 48.2751 19.2611 48.2705 18.4552 48.2674C17.6778 48.2644 16.9005 48.2596 16.1232 48.2537C15.8262 48.2517 15.5292 48.2504 15.2322 48.2497C14.8171 48.2485 14.4022 48.2453 13.9871 48.2415C13.8635 48.2416 13.7398 48.2418 13.6124 48.242C13.4995 48.2405 13.3867 48.239 13.2703 48.2375C13.1721 48.237 13.074 48.2364 12.9728 48.2359C12.6601 48.1799 12.5574 48.092 12.3693 47.8392C12.2906 47.4376 12.2771 47.1617 12.5051 46.8086C12.9236 46.3248 13.3544 45.9531 13.8778 45.5842C14.9112 44.8064 15.8912 43.9716 16.1533 42.6475C16.3828 41.0186 16.2889 39.3496 16.2223 37.7117C16.1922 36.9028 16.1804 36.0933 16.1674 35.2839C16.1573 34.6548 16.1441 34.0263 16.1205 33.3975C16.117 33.282 16.1136 33.1665 16.11 33.0475C16.1036 32.8344 16.0954 32.6213 16.0848 32.4084C16.058 31.3507 16.4279 30.4312 17.1488 29.655C17.6453 29.2452 18.2273 28.9923 18.8146 28.7377C18.825 28.3519 18.8312 27.9663 18.8366 27.5804C18.8396 27.4729 18.8425 27.3653 18.8455 27.2545C18.8598 25.9044 18.4964 24.9471 17.5732 23.9696C16.5809 23.0335 15.4492 22.92 14.1345 22.9369C13.994 22.9351 13.8536 22.9333 13.709 22.9314C12.2687 22.9377 11.0958 23.2784 10.1428 24.4017ZM18.1848 31.2645C17.9272 31.6508 17.8625 31.9423 17.8641 32.3959C17.8642 32.547 17.8642 32.547 17.8642 32.7011C17.8648 32.8112 17.8655 32.9213 17.8661 33.0348C17.8664 33.2758 17.8667 33.5168 17.867 33.7578C17.8676 33.9498 17.8676 33.9498 17.8681 34.1456C17.8694 34.8229 17.867 35.5002 17.8652 36.1775C17.8631 37.0395 17.8621 37.9016 17.8655 38.7636C17.8681 39.4601 17.8668 40.1564 17.8628 40.8529C17.862 41.118 17.8626 41.3832 17.8648 41.6483C17.8676 42.02 17.8654 42.3914 17.862 42.7632C17.864 42.8721 17.866 42.9811 17.8681 43.0933C17.8543 43.8237 17.6667 44.1892 17.1534 44.7084C17.0828 44.7748 17.0123 44.8411 16.9396 44.9095C16.8102 45.041 16.6809 45.1726 16.5519 45.3046C16.43 45.4247 16.3078 45.5445 16.1852 45.6639C15.9651 45.8788 15.7482 46.0954 15.5334 46.3158C15.5334 46.3545 15.5334 46.3931 15.5334 46.433C20.7894 46.4437 26.0453 46.452 31.3013 46.4569C31.9216 46.4575 32.542 46.4581 33.1623 46.4587C33.2858 46.4588 33.4093 46.459 33.5365 46.4591C35.5369 46.4611 37.5373 46.4648 39.5378 46.4691C41.5899 46.4735 43.6421 46.4761 45.6943 46.4771C46.9608 46.4777 48.2274 46.4798 49.494 46.4836C50.3622 46.486 51.2304 46.4868 52.0986 46.4862C52.5998 46.4859 53.1009 46.4863 53.602 46.4889C54.0608 46.4911 54.5196 46.4912 54.9784 46.4896C55.1444 46.4894 55.3103 46.49 55.4762 46.4915C56.6817 46.5049 56.6817 46.5049 57.7209 45.9642C58.3654 45.2255 58.3246 44.31 58.3257 43.3894C58.3263 43.2722 58.3269 43.1549 58.3275 43.0341C58.3292 42.6467 58.33 42.2592 58.3306 41.8718C58.3313 41.6019 58.332 41.3321 58.3327 41.0622C58.3339 40.4963 58.3346 39.9305 58.335 39.3646C58.3356 38.6411 58.3384 37.9175 58.3418 37.1939C58.344 36.6363 58.3446 36.0788 58.3447 35.5212C58.3451 35.2545 58.346 34.9878 58.3476 34.7212C58.3496 34.3473 58.3494 33.9735 58.3486 33.5997C58.3497 33.4904 58.3508 33.3812 58.3519 33.2686C58.3469 32.4842 58.257 31.6943 57.7538 31.0631C57.685 31.0111 57.6161 30.9592 57.5451 30.9056C57.4762 30.8513 57.4073 30.7969 57.3364 30.7408C56.945 30.4918 56.6076 30.4806 56.1568 30.4797C55.9605 30.479 55.9605 30.479 55.7603 30.4782C55.5438 30.4782 55.5439 30.4782 55.323 30.4782C55.1701 30.4778 55.0173 30.4774 54.8598 30.4769C54.4346 30.4758 54.0094 30.4753 53.5842 30.475C53.126 30.4745 52.6678 30.4734 52.2096 30.4724C51.1026 30.4701 49.9956 30.4689 48.8886 30.4679C48.3674 30.4673 47.8463 30.4667 47.3251 30.4661C45.593 30.4641 43.8609 30.4624 42.1288 30.4616C41.6793 30.4613 41.2297 30.4611 40.7802 30.4609C40.6685 30.4608 40.5567 30.4608 40.4416 30.4607C38.631 30.4597 36.8205 30.4568 35.0099 30.453C33.1516 30.4491 31.2933 30.447 29.435 30.4466C28.3914 30.4464 27.3478 30.4453 26.3042 30.4423C25.4156 30.4398 24.5269 30.4388 23.6383 30.44C23.1848 30.4405 22.7314 30.4403 22.278 30.438C21.7864 30.4356 21.2949 30.4368 20.8033 30.4383C20.66 30.437 20.5168 30.4357 20.3691 30.4344C19.419 30.4417 18.8511 30.5455 18.1848 31.2645Z" stroke="#0066FF" stroke-width="0.4" mask="url(#path-1-outside-1_4833_1278)"/>
<path d="M38.2624 33.4788L38.2456 33.4735L38.2279 33.4743L37.9664 33.4861C37.6565 33.4897 37.4177 33.5736 37.2213 33.7291C37.0275 33.8825 36.8823 34.1 36.7485 34.3564L36.748 34.3562L36.7441 34.3662L36.6197 34.6836L36.6196 34.684L36.47 35.0611L36.47 35.0611L36.4696 35.062C36.3817 35.2899 36.2937 35.5176 36.2045 35.7447C36.0212 36.2104 35.8393 36.6766 35.6592 37.1436L35.6592 37.1436C35.5449 37.4406 35.4305 37.7374 35.3154 38.0339C34.9386 39.0042 34.5676 39.9778 34.2247 40.9622L34.2246 40.9625L34.1282 41.2422C34.1281 41.2423 34.1281 41.2425 34.128 41.2426C34.0161 41.5582 33.9219 41.8636 33.8368 42.1888L33.8317 42.2085L33.8347 42.2287C33.8617 42.4116 33.8913 42.5401 33.9517 42.66C34.0116 42.7788 34.0985 42.8825 34.2262 43.0215L34.2363 43.0325L34.2492 43.04L34.2616 43.0473C34.4182 43.1393 34.5133 43.1951 34.6206 43.2242C34.727 43.2532 34.843 43.2552 35.0373 43.2586L35.0524 43.2589L35.0684 43.2591L35.0837 43.2544C35.3345 43.1769 35.5041 43.1073 35.6437 42.992C35.7826 42.8772 35.8837 42.7236 36.0126 42.498L36.0183 42.4881L36.0216 42.4772L36.3517 41.3766H36.3518H36.3585H36.3653H36.3721H36.3788H36.3856H36.3923H36.3991H36.4058H36.4126H36.4194H36.4261H36.4329H36.4396H36.4464H36.4531H36.4599H36.4666H36.4734H36.4801H36.4869H36.4936H36.5003H36.5071H36.5138H36.5206H36.5273H36.5341H36.5408H36.5476H36.5543H36.561H36.5678H36.5745H36.5812H36.588H36.5947H36.6015H36.6082H36.6149H36.6217H36.6284H36.6351H36.6418H36.6486H36.6553H36.662H36.6688H36.6755H36.6822H36.6889H36.6957H36.7024H36.7091H36.7158H36.7226H36.7293H36.736H36.7427H36.7494H36.7562H36.7629H36.7696H36.7763H36.783H36.7898H36.7965H36.8032H36.8099H36.8166H36.8233H36.83H36.8367H36.8435H36.8502H36.8569H36.8636H36.8703H36.877H36.8837H36.8904H36.8971H36.9038H36.9105H36.9172H36.9239H36.9306H36.9373H36.944H36.9507H36.9574H36.9641H36.9708H36.9775H36.9842H36.9909H36.9976H37.0043H37.011H37.0177H37.0244H37.0311H37.0378H37.0445H37.0512H37.0579H37.0646H37.0712H37.0779H37.0846H37.0913H37.098H37.1047H37.1114H37.1181H37.1247H37.1314H37.1381H37.1448H37.1515H37.1582H37.1648H37.1715H37.1782H37.1849H37.1916H37.1982H37.2049H37.2116H37.2183H37.2249H37.2316H37.2383H37.245H37.2516H37.2583H37.265H37.2717H37.2783H37.285H37.2917H37.2983H37.305H37.3117H37.3183H37.325H37.3317H37.3383H37.345H37.3517H37.3583H37.365H37.3717H37.3783H37.385H37.3917H37.3983H37.405H37.4116H37.4183H37.425H37.4316H37.4383H37.4449H37.4516H37.4583H37.4649H37.4716H37.4782H37.4849H37.4915H37.4982H37.5048H37.5115H37.5181H37.5248H37.5315H37.5381H37.5448H37.5514H37.5581H37.5647H37.5713H37.578H37.5846H37.5913H37.5979H37.6046H37.6112H37.6179H37.6245H37.6312H37.6378H37.6445H37.6511H37.6577H37.6644H37.671H37.6777H37.6843H37.6909H37.6976H37.7042H37.7109H37.7175H37.7241H37.7308H37.7374H37.7441H37.7507H37.7573H37.764H37.7706H37.7772H37.7839H37.7905H37.7971H37.8038H37.8104H37.817H37.8237H37.8303H37.8369H37.8435H37.8502H37.8568H37.8634H37.8701H37.8767H37.8833H37.8899H37.8966H37.9032H37.9098H37.9165H37.9231H37.9297H37.9363H37.943H37.9496H37.9562H37.9628H37.9694H37.9761H37.9827H37.9893H37.9959H38.0025H38.0092H38.0158H38.0224H38.029H38.0356H38.0423H38.0489H38.0555H38.0621H38.0687H38.0753H38.082H38.0886H38.0952H38.1018H38.1084H38.115H38.1217H38.1283H38.1349H38.1415H38.1481H38.1547H38.1613H38.1679H38.1745H38.1812H38.1878H38.1944H38.201H38.2076H38.2142H38.2208H38.2274H38.234H38.2406H38.2472H38.2539H38.2605H38.2671H38.2737H38.2803H38.2869H38.2935H38.3001H38.3067H38.3133H38.3199H38.3265H38.3331H38.3397H38.3463H38.3529H38.3595H38.3661H38.3727H38.3793H38.3859H38.3925H38.3991H38.4057H38.4123H38.4189H38.4255H38.4321H38.4387H38.4453H38.4519H38.4585H38.4651H38.4717H38.4783H38.4849H38.4915H38.4981H38.5047H38.5113H38.5179H38.5245H38.5311H38.5377H38.5442H38.5508H38.5574H38.564H38.5706H38.5772H38.5838H38.5904H38.597H38.6036H38.6102H38.6168H38.6234H38.6299H38.6365H38.6431H38.6497H38.6563H38.6629H38.6695H38.6761H38.6827H38.6892H38.6958H38.7024H38.709H38.7156H38.7222H38.7288H38.7354H38.7419H38.7485H38.7551H38.7617H38.7683H38.7749H38.7815H38.788H38.7946H38.8012H38.8078H38.8144H38.821H38.8276H38.8341H38.8407H38.8473H38.8539H38.8605H38.8671H38.8736H38.8802H38.8868H38.8934H38.9H38.9065H38.9131H38.9197H38.9263H38.9329H38.9395H38.946H38.9526H38.9592H38.9658H38.9724H38.9789H38.9855H38.9921H38.9987H39.0053H39.0118H39.0184H39.025H39.0316H39.0381H39.0447H39.0513H39.0579H39.0645H39.071H39.0776H39.0842H39.0908H39.0973H39.1039H39.1105H39.1171H39.1237H39.1302H39.1368H39.1434H39.15H39.1565H39.1631H39.1697H39.1763H39.1828H39.1894H39.196H39.2026H39.2091H39.2157H39.2223H39.2289H39.2354H39.242H39.2486H39.2552H39.2617H39.2683H39.2749H39.2815H39.288H39.2946H39.3012H39.3077H39.3143H39.3209H39.3275H39.334H39.3406H39.3472H39.3538H39.3603H39.3669H39.3735H39.3801H39.3866H39.3932H39.3998H39.4063H39.4129H39.4195H39.4261H39.4326H39.4392H39.4458H39.4524H39.4589H39.4655H39.4721H39.4786H39.4852H39.4918H39.4984H39.5049H39.5115H39.5181H39.5246H39.5312H39.5378H39.5444H39.5509H39.5575H39.5641H39.5706H39.5772H39.5778C39.5961 41.834 39.7393 42.2021 39.9374 42.6094L39.9419 42.6186L39.9481 42.6267C40.0973 42.8201 40.2184 42.9703 40.3671 43.0831C40.5188 43.1982 40.6934 43.2704 40.9444 43.3227L40.9648 43.3269L40.9852 43.3227C41.2334 43.271 41.4107 43.199 41.5646 43.084C41.7161 42.9708 41.8385 42.8202 41.9828 42.6251L41.999 42.6031L42.0018 42.5759C42.0452 42.1565 42.0049 41.8556 41.8814 41.4556L41.8817 41.4555L41.8788 41.4481C41.7907 41.2268 41.7028 41.0058 41.6162 40.7843L41.5154 40.5249L41.5153 40.5247C41.3542 40.1134 41.1988 39.7003 41.0468 39.2852C40.8688 38.7974 40.69 38.3099 40.51 37.8228L40.51 37.8228C40.4169 37.5711 40.3239 37.3192 40.2311 37.0674C40.0921 36.6858 39.953 36.304 39.8119 35.9228L39.8118 35.9228L39.6778 35.5618C39.6778 35.5616 39.6777 35.5615 39.6777 35.5613C39.5271 35.1435 39.3747 34.7257 39.18 34.3193L39.1809 34.3189L39.1733 34.3074C38.9414 33.9562 38.7189 33.622 38.2624 33.4788ZM38.7221 39.3016H38.7213H38.7175H38.7138H38.7101H38.7064H38.7027H38.699H38.6952H38.6915H38.6878H38.6841H38.6804H38.6767H38.6729H38.6692H38.6655H38.6618H38.6581H38.6544H38.6507H38.6469H38.6432H38.6395H38.6358H38.6321H38.6284H38.6247H38.621H38.6172H38.6135H38.6098H38.6061H38.6024H38.5987H38.595H38.5913H38.5876H38.5839H38.5802H38.5765H38.5728H38.5691H38.5654H38.5616H38.5579H38.5542H38.5505H38.5468H38.5431H38.5394H38.5357H38.532H38.5283H38.5246H38.5209H38.5172H38.5135H38.5098H38.5061H38.5024H38.4987H38.495H38.4913H38.4876H38.4839H38.4802H38.4765H38.4729H38.4692H38.4655H38.4618H38.4581H38.4544H38.4507H38.447H38.4433H38.4396H38.4359H38.4322H38.4285H38.4248H38.4211H38.4175H38.4138H38.4101H38.4064H38.4027H38.399H38.3953H38.3916H38.3879H38.3843H38.3806H38.3769H38.3732H38.3695H38.3658H38.3621H38.3584H38.3548H38.3511H38.3474H38.3437H38.34H38.3363H38.3327H38.329H38.3253H38.3216H38.3179H38.3142H38.3106H38.3069H38.3032H38.2995H38.2958H38.2922H38.2885H38.2848H38.2811H38.2774H38.2738H38.2701H38.2664H38.2627H38.2591H38.2554H38.2517H38.248H38.2443H38.2407H38.237H38.2333H38.2296H38.226H38.2223H38.2186H38.215H38.2113H38.2076H38.2039H38.2003H38.1966H38.1929H38.1892H38.1856H38.1819H38.1782H38.1746H38.1709H38.1672H38.1635H38.1599H38.1562H38.1525H38.1489H38.1452H38.1415H38.1379H38.1342H38.1305H38.1269H38.1232H38.1195H38.1159H38.1122H38.1085H38.1049H38.1012H38.0975H38.0939H38.0902H38.0865H38.0829H38.0792H38.0756H38.0719H38.0682H38.0646H38.0609H38.0572H38.0536H38.0499H38.0463H38.0426H38.0389H38.0353H38.0316H38.0279H38.0243H38.0206H38.017H38.0133H38.0096H38.006H38.0023H37.9987H37.995H37.9914H37.9877H37.984H37.9804H37.9767H37.9731H37.9694H37.9658H37.9621H37.9584H37.9548H37.9511H37.9475H37.9438H37.9402H37.9365H37.9329H37.9292H37.9256H37.9219H37.9182H37.9146H37.9109H37.9073H37.9036H37.9H37.8963H37.8927H37.889H37.8854H37.8817H37.8781H37.8744H37.8708H37.8671H37.8635H37.8598H37.8562H37.8525H37.8489H37.8452H37.8416H37.8379H37.8343H37.8306H37.827H37.8233H37.8197H37.816H37.8124H37.8087H37.8051H37.8014H37.7978H37.7941H37.7905H37.7869H37.7832H37.7796H37.7759H37.7723H37.7686H37.765H37.7613H37.7577H37.754H37.7504H37.7468H37.7431H37.7395H37.7358H37.7322H37.7285H37.7249H37.7213H37.7176H37.714H37.7103H37.7067H37.703H37.6994H37.6958H37.6921H37.6885H37.6848H37.6812H37.6776H37.6739H37.6703H37.6666H37.663H37.6593H37.6557H37.6521H37.6484H37.6448H37.6411H37.6375H37.6339H37.6302H37.6266H37.623H37.6193H37.6157H37.612H37.6084H37.6048H37.6011H37.5975H37.5939H37.5902H37.5866H37.5829H37.5793H37.5757H37.572H37.5684H37.5648H37.5611H37.5575H37.5538H37.5502H37.5466H37.5429H37.5393H37.5357H37.532H37.5284H37.5248H37.5211H37.5175H37.5139H37.5102H37.5066H37.503H37.4993H37.4957H37.4921H37.4884H37.4848H37.4812H37.4775H37.4739H37.4703H37.4666H37.463H37.4594H37.4557H37.4521H37.4485H37.4448H37.4412H37.4376H37.4339H37.4303H37.4267H37.423H37.4194H37.4158H37.4121H37.4085H37.4049H37.4012H37.3976H37.394H37.3904H37.3867H37.3831H37.3795H37.3758H37.3722H37.3686H37.3649H37.3613H37.3577H37.354H37.3504H37.3468H37.3432H37.3395H37.3359H37.3323H37.3286H37.325H37.3214H37.3178H37.3141H37.3105H37.3069H37.3032H37.2996H37.296H37.2923H37.2887H37.2851H37.2815H37.2778H37.2742H37.2706H37.267H37.2633H37.2597H37.2561H37.2524H37.2488H37.2452H37.2416H37.2379H37.2343H37.2307H37.227H37.2234H37.2198H37.2162H37.2125H37.2089H37.2053H37.2017H37.198H37.1944H37.1908H37.1871H37.1835H37.1799H37.1763H37.1726H37.169H37.1654H37.1618H37.1581H37.1545H37.1509H37.1473H37.1436H37.14H37.1364H37.1327H37.1291H37.1256L37.9762 37.0687C38.2506 37.807 38.4997 38.5466 38.7221 39.3016Z" fill="#0066FF" stroke="#0066FF" stroke-width="0.2"/>
<path d="M10.2274 15.5393L10.2203 15.0798L10.2203 15.0782H10.2203L10.2203 15.0758C10.2205 14.7279 10.2206 14.4637 10.229 14.2566C10.2375 14.0493 10.2543 13.8926 10.2903 13.761C10.3632 13.4945 10.5124 13.3451 10.7647 13.0924C10.7687 13.0884 10.7727 13.0844 10.7767 13.0804L10.7831 13.0739L10.7834 13.0743C11.1001 12.8102 11.3851 12.6678 11.6922 12.594C11.9957 12.5211 12.3161 12.5166 12.697 12.5201L13.0272 12.5187L13.0275 12.5187C13.2579 12.5184 13.4884 12.5192 13.7187 12.5212L10.2274 15.5393ZM10.2274 15.5393C10.2201 16.8687 10.281 17.878 11.1534 18.969L11.1532 18.9691L11.1576 18.974C11.8883 19.7742 12.7283 20.1978 13.8084 20.3106L13.8084 20.3109L13.8158 20.3111C15.0368 20.3468 15.9578 19.9518 16.861 19.1512L16.8615 19.1518L16.8698 19.1423C17.7388 18.1526 18.022 17.1552 18.0153 15.8623L18.0153 15.8608L18.008 15.5082C18.0076 15.4272 18.0077 15.3478 18.0078 15.2698C18.0092 14.4439 18.0103 13.7796 17.3661 13.0832L17.3667 13.0826L17.357 13.0744C17.0935 12.8536 16.8611 12.7149 16.6076 12.6314C16.3553 12.5482 16.0886 12.5221 15.7612 12.5172V12.5172L15.7588 12.5172L15.4431 12.5201L10.2274 15.5393ZM12.3243 15.7473L12.3243 15.7473L12.3244 15.7463L12.3512 14.6573H12.3582H12.3656H12.3731H12.3806H12.388H12.3955H12.4029H12.4104H12.4178H12.4253H12.4327H12.4402H12.4476H12.4551H12.4625H12.47H12.4774H12.4849H12.4923H12.4998H12.5072H12.5146H12.5221H12.5295H12.537H12.5444H12.5518H12.5593H12.5667H12.5741H12.5816H12.589H12.5964H12.6039H12.6113H12.6187H12.6262H12.6336H12.641H12.6485H12.6559H12.6633H12.6707H12.6782H12.6856H12.693H12.7004H12.7079H12.7153H12.7227H12.7301H12.7375H12.745H12.7524H12.7598H12.7672H12.7746H12.782H12.7894H12.7969H12.8043H12.8117H12.8191H12.8265H12.8339H12.8413H12.8487H12.8561H12.8635H12.8709H12.8784H12.8858H12.8932H12.9006H12.908H12.9154H12.9228H12.9302H12.9376H12.945H12.9524H12.9598H12.9672H12.9746H12.9819H12.9893H12.9967H13.0041H13.0115H13.0189H13.0263H13.0337H13.0411H13.0485H13.0559H13.0632H13.0706H13.078H13.0854H13.0928H13.1002H13.1076H13.1149H13.1223H13.1297H13.1371H13.1445H13.1518H13.1592H13.1666H13.174H13.1814H13.1887H13.1961H13.2035H13.2109H13.2182H13.2256H13.233H13.2403H13.2477H13.2551H13.2625H13.2698H13.2772H13.2846H13.2919H13.2993H13.3067H13.314H13.3214H13.3288H13.3361H13.3435H13.3508H13.3582H13.3656H13.3729H13.3803H13.3876H13.395H13.4024H13.4097H13.4171H13.4244H13.4318H13.4391H13.4465H13.4539H13.4612H13.4686H13.4759H13.4833H13.4906H13.498H13.5053H13.5127H13.52H13.5274H13.5347H13.5421H13.5494H13.5568H13.5641H13.5714H13.5788H13.5861H13.5935H13.6008H13.6082H13.6155H13.6228H13.6302H13.6375H13.6449H13.6522H13.6595H13.6669H13.6742H13.6815H13.6889H13.6962H13.7036H13.7109H13.7182H13.7256H13.7329H13.7402H13.7476H13.7549H13.7622H13.7695H13.7769H13.7842H13.7915H13.7989H13.8062H13.8135H13.8208H13.8282H13.8355H13.8428H13.8501H13.8575H13.8648H13.8721H13.8794H13.8868H13.8941H13.9014H13.9087H13.916H13.9234H13.9307H13.938H13.9453H13.9526H13.96H13.9673H13.9746H13.9819H13.9892H13.9965H14.0038H14.0112H14.0185H14.0258H14.0331H14.0404H14.0477H14.055H14.0623H14.0697H14.077H14.0843H14.0916H14.0989H14.1062H14.1135H14.1208H14.1281H14.1354H14.1427H14.15H14.1574H14.1647H14.172H14.1793H14.1866H14.1939H14.2012H14.2085H14.2158H14.2231H14.2304H14.2377H14.245H14.2523H14.2596H14.2669H14.2742H14.2815H14.2888H14.2961H14.3034H14.3107H14.318H14.3253H14.3326H14.3398H14.3471H14.3544H14.3617H14.369H14.3763H14.3836H14.3909H14.3982H14.4055H14.4128H14.4201H14.4274H14.4347H14.4419H14.4492H14.4565H14.4638H14.4711H14.4784H14.4857H14.493H14.5002H14.5075H14.5148H14.5221H14.5294H14.5367H14.544H14.5512H14.5585H14.5658H14.5731H14.5804H14.5877H14.5949H14.6022H14.6095H14.6168H14.6241H14.6314H14.6386H14.6459H14.6532H14.6605H14.6678H14.675H14.6823H14.6896H14.6969H14.7042H14.7114H14.7187H14.726H14.7333H14.7405H14.7478H14.7551H14.7624H14.7696H14.7769H14.7842H14.7915H14.7987H14.806H14.8133H14.8206H14.8278H14.8351H14.8424H14.8496H14.8569H14.8642H14.8715H14.8787H14.886H14.8933H14.9005H14.9078H14.9151H14.9224H14.9296H14.9369H14.9442H14.9514H14.9587H14.966H14.9732H14.9805H14.9878H14.995H15.0023H15.0096H15.0168H15.0241H15.0314H15.0386H15.0459H15.0532H15.0604H15.0677H15.075H15.0822H15.0895H15.0968H15.104H15.1113H15.1186H15.1258H15.1331H15.1403H15.1476H15.1549H15.1621H15.1694H15.1767H15.1839H15.1912H15.1984H15.2057H15.213H15.2202H15.2275H15.2347H15.242H15.2493H15.2565H15.2638H15.271H15.2783H15.2856H15.2928H15.3001H15.3073H15.3146H15.3219H15.3291H15.3364H15.3436H15.3509H15.3581H15.3654H15.3727H15.3799H15.3872H15.3944H15.4017H15.4089H15.4162H15.4235H15.4307H15.438H15.4452H15.4525H15.4597H15.467H15.4742H15.4815H15.4888H15.496H15.5033H15.5105H15.5178H15.525H15.5323H15.5395H15.5468H15.5541H15.5613H15.5686H15.5758H15.5831H15.5903H15.5976H15.6048H15.6121H15.6193H15.6266H15.6338H15.6411H15.6483H15.6556H15.6629H15.6701H15.6774H15.6846H15.6919H15.6991H15.7064H15.7136H15.7209H15.7281H15.7354H15.7426H15.7499H15.7571H15.7644H15.7716H15.7789H15.7861H15.7934H15.8006H15.8079H15.8151H15.8224H15.8296H15.8369H15.8442H15.8514H15.8587H15.8659H15.8732H15.8804H15.8877H15.8949H15.9022H15.9044L15.911 15.5834L15.911 15.5837L15.9142 15.9038L15.9142 15.9045L15.9151 16.1598L15.9151 16.1602C15.9175 16.4953 15.8904 16.7781 15.7951 17.0923C15.4471 17.6164 15.0503 18.0197 14.4628 18.2079C14.125 18.2209 13.8374 18.191 13.5714 18.1049C13.3042 18.0183 13.0536 17.8735 12.7931 17.6502C12.5722 17.3961 12.4521 17.1774 12.3866 16.9451C12.3199 16.7089 12.3075 16.452 12.3114 16.1161L12.3243 15.7473Z" fill="#0066FF" stroke="#0066FF" stroke-width="0.2"/>
<path d="M52.0814 41.1738V41.1737V41.1697V41.1658V41.1618V41.1578V41.1539V41.1499V41.146V41.142V41.1381V41.1341V41.1302V41.1262V41.1223V41.1183V41.1144V41.1104V41.1065V41.1025V41.0986V41.0946V41.0907V41.0867V41.0828V41.0788V41.0749V41.0709V41.067V41.063V41.0591V41.0551V41.0512V41.0473V41.0433V41.0394V41.0354V41.0315V41.0275V41.0236V41.0197V41.0157V41.0118V41.0078V41.0039V41V40.996V40.9921V40.9881V40.9842V40.9803V40.9763V40.9724V40.9685V40.9645V40.9606V40.9566V40.9527V40.9488V40.9448V40.9409V40.937V40.933V40.9291V40.9252V40.9213V40.9173V40.9134V40.9095V40.9055V40.9016V40.8977V40.8937V40.8898V40.8859V40.882V40.878V40.8741V40.8702V40.8662V40.8623V40.8584V40.8545V40.8505V40.8466V40.8427V40.8388V40.8348V40.8309V40.827V40.8231V40.8192V40.8152V40.8113V40.8074V40.8035V40.7996V40.7956V40.7917V40.7878V40.7839V40.78V40.776V40.7721V40.7682V40.7643V40.7604V40.7565V40.7525V40.7486V40.7447V40.7408V40.7369V40.733V40.729V40.7251V40.7212V40.7173V40.7134V40.7095V40.7056V40.7017V40.6977V40.6938V40.6899V40.686V40.6821V40.6782V40.6743V40.6704V40.6665V40.6626V40.6586V40.6547V40.6508V40.6469V40.643V40.6391V40.6352V40.6313V40.6274V40.6235V40.6196V40.6157V40.6118V40.6079V40.604V40.6001V40.5962V40.5923V40.5883V40.5844V40.5805V40.5766V40.5727V40.5688V40.5649V40.561V40.5571V40.5532V40.5493V40.5454V40.5415V40.5376V40.5337V40.5298V40.5259V40.522V40.5181V40.5143V40.5104V40.5065V40.5026V40.4987V40.4948V40.4909V40.487V40.4831V40.4792V40.4753V40.4714V40.4675V40.4636V40.4597V40.4558V40.4519V40.448V40.4441V40.4403V40.4364V40.4325V40.4286V40.4247V40.4208V40.4169V40.413V40.4091V40.4052V40.4014V40.3975V40.3936V40.3897V40.3858V40.3819V40.378V40.3741V40.3702V40.3664V40.3625V40.3586V40.3547V40.3508V40.3469V40.343V40.3392V40.3353V40.3314V40.3275V40.3236V40.3197V40.3158V40.312V40.3081V40.3042V40.3003V40.2964V40.2925V40.2887V40.2848V40.2809V40.277V40.2731V40.2693V40.2654V40.2615V40.2576V40.2537V40.2499V40.246V40.2421V40.2382V40.2343V40.2305V40.2266V40.2227V40.2188V40.2149V40.2111V40.2072V40.2033V40.1994V40.1956V40.1917V40.1878V40.1839V40.1801V40.1762V40.1723V40.1684V40.1646V40.1607V40.1568V40.1529V40.1491V40.1452V40.1413V40.1374V40.1336V40.1297V40.1258V40.1219V40.1181V40.1142V40.1103V40.1064V40.1026V40.0987V40.0948V40.091V40.0871V40.0832V40.0793V40.0755V40.0716V40.0677V40.0639V40.06V40.0561V40.0523V40.0484V40.0445V40.0406V40.0368V40.0329V40.029V40.0252V40.0213V40.0174V40.0136V40.0097V40.0058V40.002V39.9981V39.9942V39.9904V39.9865V39.9826V39.9788V39.9749V39.971V39.9672V39.9633V39.9594V39.9556V39.9517V39.9478V39.944V39.9401V39.9362V39.9324V39.9285V39.9246V39.9208V39.9169V39.913V39.9092V39.9053V39.9015V39.8976V39.8937V39.8899V39.886V39.8821V39.8783V39.8744V39.8706V39.8667V39.8628V39.859V39.8551V39.8512V39.8474V39.8435V39.8397V39.8358V39.8319V39.8281V39.8242V39.8204V39.8165V39.8126V39.8088V39.8049V39.8011V39.7972V39.7933V39.7895V39.7856V39.7818V39.7779V39.774V39.7702V39.7663V39.7625V39.7586V39.7547V39.7509V39.747V39.7432V39.7393V39.7354V39.7316V39.7277V39.7239V39.72V39.7162V39.7123V39.7084V39.7046V39.7007V39.6969V39.693V39.6892V39.6853V39.6814V39.6776V39.6737V39.6699V39.666V39.6622V39.6583V39.6544V39.6506V39.6467V39.6429V39.639V39.6352V39.6313V39.6275V39.6236V39.6197V39.6159V39.612V39.6082V39.6043V39.6005V39.5966V39.5928V39.5889V39.5851V39.5812V39.5773V39.5735V39.5696V39.5658V39.5619V39.5581V39.5542V39.5504V39.5465V39.5427V39.5388V39.5349V39.5311V39.5272V39.5234V39.5195V39.5157V39.5118V39.508V39.5041V39.5003V39.4964V39.4926V39.4887V39.4848V39.481V39.4771V39.4733V39.4694V39.4656V39.4617V39.4579V39.454V39.4502V39.4463V39.4425V39.4386V39.4348V39.4309V39.4271V39.4232V39.4193V39.4155V39.4116V39.4078V39.4039V39.4001V39.3962V39.3924V39.3885V39.3877C52.3311 39.3954 52.5812 39.4025 52.8314 39.4074L52.8315 39.4074L53.1799 39.4138C53.6026 39.4284 54.0251 39.4428 54.456 39.3836L54.479 39.3804L54.4983 39.3674L54.5091 39.3601C54.6542 39.2622 54.7393 39.2049 54.8048 39.1394C54.8719 39.0723 54.9172 38.9979 54.9908 38.8772L54.9965 38.8678L55.0087 38.8478L55.0107 38.8244C55.0116 38.8142 55.0125 38.804 55.0134 38.794C55.0465 38.4112 55.0737 38.0971 54.8833 37.7164L54.8739 37.6975L54.8577 37.684C54.3669 37.2779 53.938 37.272 53.3638 37.2786L53.3621 37.2787L53.0558 37.2876L52.4462 37.2972L52.4462 37.2972L52.4452 37.2972L52.0814 37.3068V37.3051V37.3014V37.2976V37.2939V37.2902V37.2865V37.2828V37.279V37.2753V37.2716V37.2679V37.2642V37.2604V37.2567V37.253V37.2493V37.2456V37.2418V37.2381V37.2344V37.2307V37.227V37.2233V37.2196V37.2158V37.2121V37.2084V37.2047V37.201V37.1973V37.1936V37.1898V37.1861V37.1824V37.1787V37.175V37.1713V37.1676V37.1639V37.1602V37.1565V37.1528V37.149V37.1453V37.1416V37.1379V37.1342V37.1305V37.1268V37.1231V37.1194V37.1157V37.112V37.1083V37.1046V37.1009V37.0972V37.0935V37.0898V37.0861V37.0824V37.0787V37.075V37.0713V37.0676V37.0639V37.0602V37.0565V37.0528V37.0491V37.0454V37.0417V37.038V37.0343V37.0306V37.0269V37.0232V37.0195V37.0158V37.0121V37.0084V37.0047V37.001V36.9973V36.9937V36.99V36.9863V36.9826V36.9789V36.9752V36.9715V36.9678V36.9641V36.9604V36.9567V36.9531V36.9494V36.9457V36.942V36.9383V36.9346V36.9309V36.9272V36.9236V36.9199V36.9162V36.9125V36.9088V36.9051V36.9014V36.8978V36.8941V36.8904V36.8867V36.883V36.8793V36.8757V36.872V36.8683V36.8646V36.8609V36.8573V36.8536V36.8499V36.8462V36.8425V36.8389V36.8352V36.8315V36.8278V36.8241V36.8205V36.8168V36.8131V36.8094V36.8058V36.8021V36.7984V36.7947V36.791V36.7874V36.7837V36.78V36.7763V36.7727V36.769V36.7653V36.7617V36.758V36.7543V36.7506V36.747V36.7433V36.7396V36.7359V36.7323V36.7286V36.7249V36.7213V36.7176V36.7139V36.7103V36.7066V36.7029V36.6993V36.6956V36.6919V36.6882V36.6846V36.6809V36.6772V36.6736V36.6699V36.6662V36.6626V36.6589V36.6552V36.6516V36.6479V36.6443V36.6406V36.6369V36.6333V36.6296V36.6259V36.6223V36.6186V36.6149V36.6113V36.6076V36.604V36.6003V36.5966V36.593V36.5893V36.5857V36.582V36.5783V36.5747V36.571V36.5674V36.5637V36.56V36.5564V36.5527V36.5491V36.5454V36.5417V36.5381V36.5344V36.5308V36.5271V36.5235V36.5198V36.5161V36.5125V36.5088V36.5052V36.5015V36.4979V36.4942V36.4906V36.4869V36.4833V36.4796V36.4759V36.4723V36.4686V36.465V36.4613V36.4577V36.454V36.4504V36.4467V36.4431V36.4394V36.4358V36.4321V36.4285V36.4248V36.4212V36.4175V36.4139V36.4102V36.4066V36.4029V36.3993V36.3956V36.392V36.3883V36.3847V36.381V36.3774V36.3737V36.3701V36.3664V36.3628V36.3591V36.3555V36.3518V36.3482V36.3446V36.3409V36.3373V36.3336V36.33V36.3263V36.3227V36.319V36.3154V36.3117V36.3081V36.3045V36.3008V36.2972V36.2935V36.2899V36.2862V36.2826V36.2789V36.2753V36.2717V36.268V36.2644V36.2607V36.2571V36.2534V36.2498V36.2462V36.2425V36.2389V36.2352V36.2316V36.228V36.2243V36.2207V36.217V36.2134V36.2098V36.2061V36.2025V36.1988V36.1952V36.1916V36.1879V36.1843V36.1806V36.177V36.1734V36.1697V36.1661V36.1625V36.1588V36.1552V36.1515V36.1479V36.1443V36.1406V36.137V36.1334V36.1297V36.1261V36.1224V36.1188V36.1152V36.1115V36.1079V36.1043V36.1006V36.097V36.0934V36.0897V36.0861V36.0824V36.0788V36.0752V36.0715V36.0679V36.0643V36.0606V36.057V36.0534V36.0497V36.0461V36.0425V36.0388V36.0352V36.0316V36.0279V36.0243V36.0207V36.017V36.0134V36.0098V36.0061V36.0025V35.9989V35.9952V35.9916V35.988V35.9843V35.9807V35.9771V35.9734V35.9698V35.9662V35.9626V35.9589V35.9553V35.9517V35.948V35.9444V35.9408V35.9371V35.9335V35.9299V35.9262V35.9226V35.919V35.9154V35.9117V35.9081V35.9045V35.9008V35.8972V35.8936V35.8899V35.8863V35.8827V35.8791V35.8754V35.8718V35.8682V35.8645V35.8609V35.8573V35.8537V35.85V35.8464V35.8428V35.8391V35.8355V35.8319V35.8283V35.8246V35.821V35.8174V35.8137V35.8101V35.8065V35.8029V35.7992V35.7956V35.792V35.7883V35.7847V35.7811V35.7775V35.7738V35.7702V35.7666V35.763V35.7593V35.7557V35.7521V35.7484V35.7448V35.7412V35.7376V35.7339V35.7303V35.7267V35.7231V35.7194V35.7158V35.7122V35.7086V35.7049V35.7013V35.6977V35.6941V35.6904V35.6868V35.6832V35.6795V35.6759V35.6723V35.6687V35.665V35.6614V35.6578V35.6542V35.6505V35.6469V35.6433V35.6397V35.6383C52.3429 35.6481 52.6048 35.657 52.8669 35.6631L52.867 35.6631L53.2307 35.6711C53.6775 35.6897 54.1202 35.7066 54.5754 35.6332L54.599 35.6295L54.6182 35.6155C54.8408 35.4541 54.9953 35.33 55.1034 35.1713C55.2127 35.0109 55.2689 34.8238 55.3172 34.5484L55.3203 34.5308L55.3171 34.5132L55.314 34.4963C55.2804 34.3111 55.2598 34.198 55.2145 34.1035C55.1682 34.0068 55.0973 33.9322 54.986 33.815C54.9826 33.8114 54.9791 33.8077 54.9756 33.804L54.9668 33.7947L54.9558 33.7879C54.7763 33.6764 54.6231 33.6038 54.4595 33.5584C54.2964 33.5132 54.1281 33.4965 53.921 33.4914L53.921 33.4914L53.9178 33.4914L53.677 33.4931C53.5055 33.4916 53.334 33.4905 53.1624 33.4897L53.1611 33.4897C52.8926 33.492 52.6254 33.4936 52.3581 33.4896L52.3566 33.5895L52.3583 33.4896C52.1817 33.4866 52.005 33.4851 51.8284 33.485L51.828 33.485L51.5757 33.4858C51.1737 33.4781 50.8065 33.5236 50.5169 33.6929C50.2211 33.8658 50.0207 34.1588 49.9368 34.612L49.9351 34.6214L49.9352 34.6309L49.938 35.0722C49.9372 35.3287 49.9372 35.5854 49.9409 35.8426L49.9409 35.8427L52.0814 41.1738ZM52.0814 41.1738L52.5517 41.1603L52.5528 41.1602L52.5528 41.1602C52.801 41.1558 53.0492 41.1516 53.2974 41.1474L53.6743 41.1356L53.6762 41.1355L53.6762 41.1355L54.0391 41.131L54.0401 41.1309L54.3739 41.1235L54.3838 41.1233L54.3935 41.125C54.6001 41.1616 54.748 41.2183 54.8769 41.3126C55.003 41.4047 55.1048 41.5286 55.2247 41.6845L55.2413 41.706L55.2447 41.7331C55.2722 41.9534 55.2893 42.1404 55.2696 42.3238C55.2497 42.5097 55.1927 42.6871 55.0792 42.8925L55.0719 42.9057L55.061 42.9161C54.7731 43.1934 54.391 43.2795 54.0092 43.3006C53.8176 43.3111 53.6221 43.3055 53.4341 43.2976C53.395 43.2959 53.3564 43.2942 53.3183 43.2925C53.1709 43.2858 53.0298 43.2795 52.8964 43.2799C52.6433 43.281 52.3903 43.2846 52.1367 43.2883L52.1357 43.2883C51.9737 43.2891 51.8117 43.2897 51.6497 43.2902C51.6496 43.2902 51.6495 43.2902 51.6493 43.2902L51.2047 43.2935L51.1934 43.2936L51.1934 43.2929C50.976 43.2699 50.8052 43.234 50.6437 43.1686C50.4823 43.1032 50.3353 43.0104 50.1632 42.8798L50.1446 42.8657L50.1342 42.8449C49.9798 42.5361 49.9817 42.2538 49.9837 41.9531C49.984 41.898 49.9844 41.8424 49.9838 41.7858C49.9838 41.7858 49.9838 41.7857 49.9838 41.7857L49.9809 41.5427L49.9809 41.5426C49.978 41.2764 49.9761 41.0102 49.9744 40.7441C49.9744 40.7441 49.9744 40.7441 49.9744 40.7441C49.9744 40.7441 49.9744 40.7441 49.9744 40.744L49.9725 40.4688L49.9725 40.4688C49.9693 39.9878 49.9671 39.5068 49.9654 39.0258L52.0814 41.1738ZM50.0463 36.3902C50.0455 36.2071 50.0437 36.0241 50.0409 35.8411C50.0372 35.5847 50.0372 35.3285 50.038 35.072L49.9463 36.3903L50.0463 36.3902ZM50.0463 36.3902L49.9463 36.3906C49.9463 36.3905 49.9463 36.3905 49.9463 36.3905M50.0463 36.3902L49.9463 36.3905M49.9463 36.3905C49.9469 36.7725 49.9483 37.1547 49.9522 37.537L49.9522 37.5371C49.9582 38.0336 49.9634 38.5297 49.9654 39.0258L49.9463 36.3905ZM53.162 33.5897L53.162 33.5897L53.162 33.5897Z" fill="#0066FF" stroke="#0066FF" stroke-width="0.2"/>
<path d="M29.5814 41.1737V41.1736V41.1697V41.1657V41.1617V41.1578V41.1538V41.1499V41.1459V41.142V41.138V41.1341V41.1301V41.1262V41.1222V41.1183V41.1143V41.1104V41.1064V41.1025V41.0985V41.0946V41.0906V41.0867V41.0827V41.0788V41.0748V41.0709V41.0669V41.063V41.059V41.0551V41.0511V41.0472V41.0433V41.0393V41.0354V41.0314V41.0275V41.0235V41.0196V41.0157V41.0117V41.0078V41.0038V40.9999V40.996V40.992V40.9881V40.9841V40.9802V40.9763V40.9723V40.9684V40.9645V40.9605V40.9566V40.9527V40.9487V40.9448V40.9409V40.9369V40.933V40.9291V40.9251V40.9212V40.9173V40.9133V40.9094V40.9055V40.9015V40.8976V40.8937V40.8898V40.8858V40.8819V40.878V40.874V40.8701V40.8662V40.8623V40.8583V40.8544V40.8505V40.8466V40.8426V40.8387V40.8348V40.8309V40.8269V40.823V40.8191V40.8152V40.8113V40.8073V40.8034V40.7995V40.7956V40.7917V40.7877V40.7838V40.7799V40.776V40.7721V40.7681V40.7642V40.7603V40.7564V40.7525V40.7486V40.7447V40.7407V40.7368V40.7329V40.729V40.7251V40.7212V40.7173V40.7133V40.7094V40.7055V40.7016V40.6977V40.6938V40.6899V40.686V40.682V40.6781V40.6742V40.6703V40.6664V40.6625V40.6586V40.6547V40.6508V40.6469V40.643V40.6391V40.6351V40.6312V40.6273V40.6234V40.6195V40.6156V40.6117V40.6078V40.6039V40.6V40.5961V40.5922V40.5883V40.5844V40.5805V40.5766V40.5727V40.5688V40.5649V40.561V40.5571V40.5532V40.5493V40.5454V40.5415V40.5376V40.5337V40.5298V40.5259V40.522V40.5181V40.5142V40.5103V40.5064V40.5025V40.4986V40.4947V40.4908V40.4869V40.483V40.4791V40.4752V40.4713V40.4675V40.4636V40.4597V40.4558V40.4519V40.448V40.4441V40.4402V40.4363V40.4324V40.4285V40.4246V40.4207V40.4169V40.413V40.4091V40.4052V40.4013V40.3974V40.3935V40.3896V40.3857V40.3819V40.378V40.3741V40.3702V40.3663V40.3624V40.3585V40.3546V40.3508V40.3469V40.343V40.3391V40.3352V40.3313V40.3274V40.3236V40.3197V40.3158V40.3119V40.308V40.3041V40.3003V40.2964V40.2925V40.2886V40.2847V40.2808V40.277V40.2731V40.2692V40.2653V40.2614V40.2576V40.2537V40.2498V40.2459V40.242V40.2382V40.2343V40.2304V40.2265V40.2226V40.2188V40.2149V40.211V40.2071V40.2033V40.1994V40.1955V40.1916V40.1878V40.1839V40.18V40.1761V40.1722V40.1684V40.1645V40.1606V40.1567V40.1529V40.149V40.1451V40.1412V40.1374V40.1335V40.1296V40.1258V40.1219V40.118V40.1141V40.1103V40.1064V40.1025V40.0986V40.0948V40.0909V40.087V40.0832V40.0793V40.0754V40.0715V40.0677V40.0638V40.0599V40.0561V40.0522V40.0483V40.0445V40.0406V40.0367V40.0329V40.029V40.0251V40.0212V40.0174V40.0135V40.0096V40.0058V40.0019V39.998V39.9942V39.9903V39.9864V39.9826V39.9787V39.9748V39.971V39.9671V39.9632V39.9594V39.9555V39.9516V39.9478V39.9439V39.94V39.9362V39.9323V39.9285V39.9246V39.9207V39.9169V39.913V39.9091V39.9053V39.9014V39.8975V39.8937V39.8898V39.886V39.8821V39.8782V39.8744V39.8705V39.8666V39.8628V39.8589V39.8551V39.8512V39.8473V39.8435V39.8396V39.8357V39.8319V39.828V39.8242V39.8203V39.8164V39.8126V39.8087V39.8049V39.801V39.7971V39.7933V39.7894V39.7856V39.7817V39.7778V39.774V39.7701V39.7663V39.7624V39.7585V39.7547V39.7508V39.747V39.7431V39.7393V39.7354V39.7315V39.7277V39.7238V39.72V39.7161V39.7122V39.7084V39.7045V39.7007V39.6968V39.693V39.6891V39.6852V39.6814V39.6775V39.6737V39.6698V39.666V39.6621V39.6583V39.6544V39.6505V39.6467V39.6428V39.639V39.6351V39.6313V39.6274V39.6235V39.6197V39.6158V39.612V39.6081V39.6043V39.6004V39.5966V39.5927V39.5889V39.585V39.5811V39.5773V39.5734V39.5696V39.5657V39.5619V39.558V39.5542V39.5503V39.5465V39.5426V39.5387V39.5349V39.531V39.5272V39.5233V39.5195V39.5156V39.5118V39.5079V39.5041V39.5002V39.4964V39.4925V39.4886V39.4848V39.4809V39.4771V39.4732V39.4694V39.4655V39.4617V39.4578V39.454V39.4501V39.4463V39.4424V39.4386V39.4347V39.4309V39.427V39.4231V39.4193V39.4154V39.4116V39.4077V39.4039V39.4V39.3962V39.3923V39.3885V39.3885C29.8309 39.3981 30.0808 39.407 30.3309 39.413L30.331 39.413L30.6793 39.421L30.6906 39.4215C31.1111 39.4397 31.5296 39.4579 31.9595 39.383L31.9871 39.3782L32.0082 39.3597L32.0172 39.3518C32.1641 39.2234 32.248 39.15 32.3121 39.0698C32.3773 38.9883 32.4212 38.901 32.4957 38.7528L32.5004 38.7435L32.5088 38.7268L32.5106 38.7083C32.5473 38.3338 32.5639 38.0773 32.3833 37.7163L32.3739 37.6974L32.3577 37.684C31.8669 37.2778 31.438 37.272 30.8638 37.2786L30.8621 37.2786L30.5558 37.2875L29.9462 37.2971V37.2971L29.9452 37.2971L29.5814 37.3068V37.305V37.3013V37.2976V37.2939V37.2901V37.2864V37.2827V37.279V37.2753V37.2715V37.2678V37.2641V37.2604V37.2567V37.2529V37.2492V37.2455V37.2418V37.2381V37.2344V37.2306V37.2269V37.2232V37.2195V37.2158V37.2121V37.2084V37.2046V37.2009V37.1972V37.1935V37.1898V37.1861V37.1824V37.1787V37.175V37.1712V37.1675V37.1638V37.1601V37.1564V37.1527V37.149V37.1453V37.1416V37.1379V37.1342V37.1305V37.1268V37.123V37.1193V37.1156V37.1119V37.1082V37.1045V37.1008V37.0971V37.0934V37.0897V37.086V37.0823V37.0786V37.0749V37.0712V37.0675V37.0638V37.0601V37.0564V37.0527V37.049V37.0453V37.0416V37.0379V37.0342V37.0305V37.0268V37.0231V37.0195V37.0158V37.0121V37.0084V37.0047V37.001V36.9973V36.9936V36.9899V36.9862V36.9825V36.9788V36.9751V36.9714V36.9678V36.9641V36.9604V36.9567V36.953V36.9493V36.9456V36.9419V36.9382V36.9346V36.9309V36.9272V36.9235V36.9198V36.9161V36.9124V36.9088V36.9051V36.9014V36.8977V36.894V36.8903V36.8867V36.883V36.8793V36.8756V36.8719V36.8682V36.8646V36.8609V36.8572V36.8535V36.8498V36.8462V36.8425V36.8388V36.8351V36.8314V36.8278V36.8241V36.8204V36.8167V36.8131V36.8094V36.8057V36.802V36.7983V36.7947V36.791V36.7873V36.7836V36.78V36.7763V36.7726V36.7689V36.7653V36.7616V36.7579V36.7543V36.7506V36.7469V36.7432V36.7396V36.7359V36.7322V36.7286V36.7249V36.7212V36.7175V36.7139V36.7102V36.7065V36.7029V36.6992V36.6955V36.6919V36.6882V36.6845V36.6809V36.6772V36.6735V36.6699V36.6662V36.6625V36.6589V36.6552V36.6515V36.6479V36.6442V36.6405V36.6369V36.6332V36.6295V36.6259V36.6222V36.6186V36.6149V36.6112V36.6076V36.6039V36.6002V36.5966V36.5929V36.5893V36.5856V36.5819V36.5783V36.5746V36.571V36.5673V36.5636V36.56V36.5563V36.5527V36.549V36.5454V36.5417V36.538V36.5344V36.5307V36.5271V36.5234V36.5198V36.5161V36.5124V36.5088V36.5051V36.5015V36.4978V36.4942V36.4905V36.4869V36.4832V36.4795V36.4759V36.4722V36.4686V36.4649V36.4613V36.4576V36.454V36.4503V36.4467V36.443V36.4394V36.4357V36.4321V36.4284V36.4248V36.4211V36.4175V36.4138V36.4102V36.4065V36.4029V36.3992V36.3956V36.3919V36.3883V36.3846V36.381V36.3773V36.3737V36.37V36.3664V36.3627V36.3591V36.3554V36.3518V36.3481V36.3445V36.3408V36.3372V36.3336V36.3299V36.3263V36.3226V36.319V36.3153V36.3117V36.308V36.3044V36.3008V36.2971V36.2935V36.2898V36.2862V36.2825V36.2789V36.2752V36.2716V36.268V36.2643V36.2607V36.257V36.2534V36.2498V36.2461V36.2425V36.2388V36.2352V36.2315V36.2279V36.2243V36.2206V36.217V36.2133V36.2097V36.2061V36.2024V36.1988V36.1951V36.1915V36.1879V36.1842V36.1806V36.1769V36.1733V36.1697V36.166V36.1624V36.1588V36.1551V36.1515V36.1478V36.1442V36.1406V36.1369V36.1333V36.1297V36.126V36.1224V36.1187V36.1151V36.1115V36.1078V36.1042V36.1006V36.0969V36.0933V36.0897V36.086V36.0824V36.0788V36.0751V36.0715V36.0679V36.0642V36.0606V36.057V36.0533V36.0497V36.046V36.0424V36.0388V36.0351V36.0315V36.0279V36.0242V36.0206V36.017V36.0133V36.0097V36.0061V36.0025V35.9988V35.9952V35.9916V35.9879V35.9843V35.9807V35.977V35.9734V35.9698V35.9661V35.9625V35.9589V35.9552V35.9516V35.948V35.9443V35.9407V35.9371V35.9335V35.9298V35.9262V35.9226V35.9189V35.9153V35.9117V35.908V35.9044V35.9008V35.8972V35.8935V35.8899V35.8863V35.8826V35.879V35.8754V35.8717V35.8681V35.8645V35.8609V35.8572V35.8536V35.85V35.8463V35.8427V35.8391V35.8355V35.8318V35.8282V35.8246V35.8209V35.8173V35.8137V35.8101V35.8064V35.8028V35.7992V35.7956V35.7919V35.7883V35.7847V35.781V35.7774V35.7738V35.7702V35.7665V35.7629V35.7593V35.7556V35.752V35.7484V35.7448V35.7411V35.7375V35.7339V35.7303V35.7266V35.723V35.7194V35.7158V35.7121V35.7085V35.7049V35.7012V35.6976V35.694V35.6904V35.6867V35.6831V35.6795V35.6759V35.6722V35.6686V35.665V35.6614V35.6577V35.6541V35.6505V35.6469V35.6432V35.6396V35.6383C29.8429 35.648 30.1048 35.657 30.3669 35.663L30.367 35.663L30.7307 35.671C31.1774 35.6896 31.6203 35.707 32.0755 35.6332L32.0994 35.6293L32.1188 35.615C32.3218 35.4656 32.4725 35.3469 32.5835 35.1984C32.6966 35.0471 32.7636 34.872 32.8166 34.6174L32.8209 34.597L32.8166 34.5766L32.814 34.5642C32.7799 34.4002 32.7593 34.3012 32.7146 34.2075C32.6704 34.1148 32.6035 34.0292 32.4903 33.8843L32.4819 33.8735L32.4747 33.8643L32.4657 33.8571C32.286 33.7129 32.1413 33.6186 31.9796 33.561C31.8181 33.5035 31.6473 33.4855 31.4205 33.4811L31.4205 33.481L31.4166 33.4811L31.1762 33.4858C31.0047 33.4852 30.8333 33.485 30.6619 33.4851L30.6603 33.4851L29.5814 41.1737ZM29.5814 41.1737L30.0517 41.1602L30.0528 41.1602L30.0528 41.1602C30.301 41.1558 30.5492 41.1515 30.7974 41.1474L31.1743 41.1355L31.1762 41.1354L31.1762 41.1355L31.5391 41.1309L31.5401 41.1309L31.8739 41.1235L31.8838 41.1232L31.8935 41.125C32.1002 41.1615 32.2479 41.2183 32.3768 41.3126C32.5028 41.4048 32.6046 41.5286 32.7247 41.6843L32.7407 41.7052L32.7445 41.7313L32.7457 41.7399C32.7738 41.9368 32.7894 42.0459 32.7894 42.1556C32.7894 42.2652 32.7738 42.3743 32.7457 42.5713L32.7445 42.5799L32.7408 42.6057L32.725 42.6264C32.5928 42.7996 32.4826 42.9213 32.3489 43.0168C32.2153 43.1123 32.0641 43.1774 31.8568 43.2465L31.844 43.2508L31.8305 43.2515C31.3525 43.2771 30.8746 43.2783 30.3993 43.2796C30.3759 43.2797 30.3525 43.2797 30.3291 43.2798M29.5814 41.1737L30.3291 43.2798M27.5463 36.2913C27.5455 36.1053 27.5437 35.9192 27.5409 35.7332C27.5372 35.4728 27.5372 35.2127 27.538 34.9522L27.4463 36.2915L27.5463 36.2913ZM27.5463 36.2913L27.4463 36.2918C27.4463 36.2917 27.4463 36.2917 27.4463 36.2916M27.5463 36.2913L27.4463 36.2916M27.4463 36.2916C27.4469 36.6796 27.4483 37.0677 27.4522 37.4559L27.4522 37.4561C27.4582 37.9607 27.4634 38.465 27.4654 38.9692L27.4463 36.2916ZM30.3291 43.2798C30.0846 43.2809 29.8402 43.2846 29.5951 43.2883L29.594 43.2883C29.4373 43.289 29.2806 43.2897 29.1239 43.2901M30.3291 43.2798L29.1239 43.2901M29.1239 43.2901C29.1238 43.2901 29.1238 43.2901 29.1237 43.2901L28.694 43.2934L28.6823 43.2935L28.6824 43.2928C28.4677 43.2695 28.2986 43.2323 28.1386 43.1663C27.9789 43.1005 27.8332 43.008 27.6634 42.8799L27.6447 42.8658L27.6342 42.8448C27.479 42.5346 27.4812 42.2479 27.4835 41.9452C27.484 41.8885 27.4844 41.8312 27.4838 41.7731C27.4838 41.7731 27.4838 41.7731 27.4838 41.773L27.4809 41.526L27.4809 41.5259C27.478 41.2553 27.4761 40.9847 27.4744 40.7143C27.4744 40.7143 27.4744 40.7143 27.4744 40.7143C27.4744 40.7142 27.4744 40.7142 27.4744 40.7142L27.4725 40.4346L27.4725 40.4346C27.4693 39.9461 27.4671 39.4577 27.4654 38.9693L29.1239 43.2901ZM29.8573 33.4919C29.6808 33.4904 29.5043 33.4901 29.3278 33.4909L29.3274 33.4909L29.0748 33.4931C28.6177 33.4898 28.252 33.5077 27.8268 33.7603L27.8152 33.7672L27.8058 33.7769C27.802 33.7809 27.7982 33.7849 27.7944 33.7888C27.6696 33.9184 27.5923 33.9986 27.5428 34.0936C27.493 34.189 27.4726 34.2964 27.4399 34.4688C27.4389 34.474 27.4379 34.4793 27.4369 34.4847L27.4351 34.4942L27.4352 34.504L27.438 34.9524C27.4372 35.2128 27.4372 35.4735 27.4409 35.7346L27.4409 35.7347L29.8573 33.4919Z" fill="#0066FF" stroke="#0066FF" stroke-width="0.2"/>
<path d="M42.6366 33.4905L42.6203 33.4854L42.6033 33.486C42.3365 33.4949 42.1025 33.5069 41.8967 33.5856C41.6844 33.6667 41.5103 33.8148 41.3495 34.076L41.3369 34.0965L41.335 34.1206C41.2922 34.6675 41.3523 35.1044 41.5424 35.6191L41.5424 35.6191L41.543 35.6206C41.6058 35.7829 41.6672 35.9458 41.7276 36.1091L41.7277 36.1094L41.7279 36.11L41.7281 36.1105L41.7283 36.111L41.7285 36.1116L41.7287 36.1121L41.7289 36.1127L41.7291 36.1132L41.7293 36.1138L41.7295 36.1143L41.7297 36.1149L41.7299 36.1154L41.7301 36.1159L41.7303 36.1165L41.7305 36.117L41.7307 36.1176L41.7309 36.1181L41.7311 36.1187L41.7313 36.1192L41.7315 36.1197L41.7317 36.1203L41.7319 36.1208L41.7321 36.1214L41.7323 36.1219L41.7325 36.1225L41.7327 36.123L41.7329 36.1236L41.7331 36.1241L41.7333 36.1246L41.7335 36.1252L41.7337 36.1257L41.7339 36.1263L41.7341 36.1268L41.7343 36.1274L41.7345 36.1279L41.7347 36.1284L41.7349 36.129L41.7351 36.1295L41.7353 36.1301L41.7355 36.1306L41.7357 36.1311L41.7359 36.1317L41.7361 36.1322L41.7363 36.1328L41.7365 36.1333L41.7367 36.1339L41.7369 36.1344L41.7371 36.1349L41.7373 36.1355L41.7375 36.136L41.7377 36.1366L41.7379 36.1371L41.7381 36.1376L41.7383 36.1382L41.7385 36.1387L41.7387 36.1393L41.7389 36.1398L41.7391 36.1404L41.7393 36.1409L41.7395 36.1414L41.7397 36.142L41.7399 36.1425L41.7401 36.1431L41.7403 36.1436L41.7405 36.1441L41.7407 36.1447L41.7409 36.1452L41.7411 36.1458L41.7413 36.1463L41.7414 36.1468L41.7416 36.1474L41.7418 36.1479L41.742 36.1485L41.7422 36.149L41.7424 36.1495L41.7426 36.1501L41.7428 36.1506L41.743 36.1512L41.7432 36.1517L41.7434 36.1523L41.7436 36.1528L41.7438 36.1533L41.744 36.1539L41.7442 36.1544L41.7444 36.155L41.7446 36.1555L41.7448 36.156L41.745 36.1566L41.7452 36.1571L41.7454 36.1576L41.7456 36.1582L41.7458 36.1587L41.746 36.1593L41.7462 36.1598L41.7464 36.1603L41.7466 36.1609L41.7468 36.1614L41.747 36.162L41.7472 36.1625L41.7474 36.163L41.7476 36.1636L41.7478 36.1641L41.748 36.1647L41.7482 36.1652L41.7484 36.1657L41.7486 36.1663L41.7488 36.1668L41.749 36.1674L41.7492 36.1679L41.7494 36.1684L41.7496 36.169L41.7498 36.1695L41.75 36.17L41.7501 36.1706L41.7503 36.1711L41.7505 36.1717L41.7507 36.1722L41.7509 36.1727L41.7511 36.1733L41.7513 36.1738L41.7515 36.1744L41.7517 36.1749L41.7519 36.1754L41.7521 36.176L41.7523 36.1765L41.7525 36.177L41.7527 36.1776L41.7529 36.1781L41.7531 36.1787L41.7533 36.1792L41.7535 36.1797L41.7537 36.1803L41.7539 36.1808L41.7541 36.1813L41.7543 36.1819L41.7545 36.1824L41.7547 36.183L41.7549 36.1835L41.7551 36.184L41.7553 36.1846L41.7555 36.1851L41.7557 36.1856L41.7559 36.1862L41.7561 36.1867L41.7563 36.1872L41.7565 36.1878L41.7567 36.1883L41.7568 36.1889L41.757 36.1894L41.7572 36.1899L41.7574 36.1905L41.7576 36.191L41.7578 36.1915L41.758 36.1921L41.7582 36.1926L41.7584 36.1932L41.7586 36.1937L41.7588 36.1942L41.759 36.1948L41.7592 36.1953L41.7594 36.1958L41.7596 36.1964L41.7598 36.1969L41.76 36.1974L41.7602 36.198L41.7604 36.1985L41.7606 36.199L41.7608 36.1996L41.761 36.2001L41.7612 36.2007L41.7614 36.2012L41.7616 36.2017L41.7618 36.2023L41.762 36.2028L41.7622 36.2033L41.7624 36.2039L41.7625 36.2044L41.7627 36.2049L41.7629 36.2055L41.7631 36.206L41.7633 36.2065L41.7635 36.2071L41.7637 36.2076L41.7639 36.2082L41.7641 36.2087L41.7643 36.2092L41.7645 36.2098L41.7647 36.2103L41.7649 36.2108L41.7651 36.2114L41.7653 36.2119L41.7655 36.2124L41.7657 36.213L41.7659 36.2135L41.7661 36.214L41.7663 36.2146L41.7665 36.2151L41.7667 36.2156L41.7669 36.2162L41.7671 36.2167L41.7673 36.2172L41.7675 36.2178L41.7676 36.2183L41.7678 36.2189L41.768 36.2194L41.7682 36.2199L41.7684 36.2205L41.7686 36.221L41.7688 36.2215L41.769 36.2221L41.7692 36.2226L41.7694 36.2231L41.7696 36.2237L41.7698 36.2242L41.77 36.2247L41.7702 36.2253L41.7704 36.2258L41.7706 36.2263L41.7708 36.2269L41.771 36.2274L41.7712 36.2279L41.7714 36.2285L41.7716 36.229L41.7718 36.2295L41.772 36.2301L41.7722 36.2306L41.7723 36.2311L41.7725 36.2317L41.7727 36.2322L41.7729 36.2327L41.7731 36.2333L41.7733 36.2338L41.7735 36.2343L41.7737 36.2349L41.7739 36.2354L41.7741 36.2359L41.7743 36.2365L41.7745 36.237L41.7747 36.2375L41.7749 36.2381L41.7751 36.2386L41.7753 36.2391L41.7755 36.2397L41.7757 36.2402L41.7759 36.2407L41.7761 36.2413L41.7763 36.2418L41.7765 36.2423L41.7766 36.2429L41.7768 36.2434L41.777 36.2439L41.7772 36.2445L41.7774 36.245L41.7776 36.2455L41.7778 36.2461L41.778 36.2466L41.7782 36.2471L41.7784 36.2477L41.7786 36.2482L41.7788 36.2487L41.779 36.2493L41.7792 36.2498L41.7794 36.2503L41.7796 36.2509L41.7798 36.2514L41.78 36.2519L41.7802 36.2525L41.7804 36.253L41.7806 36.2535L41.7807 36.254L41.7809 36.2546L41.7811 36.2551L41.7813 36.2556L41.7815 36.2562L41.7817 36.2567L41.7819 36.2572L41.7821 36.2578L41.7823 36.2583L41.7825 36.2588L41.7827 36.2594L41.7829 36.2599L41.7831 36.2604L41.7833 36.261L41.7835 36.2615L41.7837 36.262L41.7839 36.2626L41.7841 36.2631L41.7843 36.2636L41.7845 36.2642L41.7846 36.2647L41.7848 36.2652L41.785 36.2658L41.7852 36.2663L41.7854 36.2668L41.7856 36.2673L41.7858 36.2679L41.786 36.2684L41.7862 36.2689L41.7864 36.2695L41.7866 36.27L41.7868 36.2705L41.787 36.2711L41.7872 36.2716L41.7874 36.2721L41.7876 36.2727L41.7878 36.2732L41.788 36.2737L41.7882 36.2743L41.7883 36.2748L41.7885 36.2753L41.7887 36.2758L41.7889 36.2764L41.7891 36.2769L41.7893 36.2774L41.7895 36.278L41.7897 36.2785L41.7899 36.279L41.7901 36.2796L41.7903 36.2801L41.7905 36.2806L41.7907 36.2812L41.7909 36.2817L41.7911 36.2822L41.7913 36.2827L41.7915 36.2833L41.7917 36.2838L41.7919 36.2843L41.792 36.2849L41.7922 36.2854L41.7924 36.2859L41.7926 36.2865L41.7928 36.287L41.793 36.2875L41.7932 36.2881L41.7934 36.2886L41.7936 36.2891L41.7938 36.2896L41.794 36.2902L41.7942 36.2907L41.7944 36.2912L41.7946 36.2918L41.7948 36.2923L41.795 36.2928L41.7952 36.2934L41.7954 36.2939L41.7955 36.2944L41.7957 36.295L41.7959 36.2955L41.7961 36.296L41.7963 36.2965L41.7965 36.2971L41.7967 36.2976L41.7969 36.2981L41.7971 36.2987L41.7973 36.2992L41.7975 36.2997L41.7977 36.3003L41.7979 36.3008L41.7981 36.3013L41.7983 36.3018L41.7985 36.3024L41.7987 36.3029L41.7989 36.3034L41.799 36.304L41.7992 36.3045L41.7994 36.305L41.7996 36.3056L41.7998 36.3061L41.8 36.3066L41.8002 36.3071L41.8004 36.3077L41.8006 36.3082L41.8008 36.3087L41.801 36.3093L41.8012 36.3098L41.8014 36.3103L41.8016 36.3109L41.8018 36.3114L41.802 36.3119L41.8022 36.3124L41.8023 36.313L41.8025 36.3135L41.8027 36.314L41.8029 36.3146L41.8031 36.3151L41.8033 36.3156L41.8035 36.3162L41.8037 36.3167L41.8039 36.3172L41.8041 36.3177L41.8043 36.3183L41.8045 36.3188L41.8047 36.3193L41.8049 36.3199L41.8051 36.3204L41.8053 36.3209L41.8055 36.3214L41.8056 36.322L41.8058 36.3225L41.806 36.323L41.8062 36.3236L41.8064 36.3241L41.8066 36.3246L41.8068 36.3252L41.807 36.3257L41.8072 36.3262L41.8074 36.3267L41.8076 36.3273L41.8078 36.3278L41.808 36.3283L41.8082 36.3289L41.8084 36.3294L41.8086 36.3299L41.8088 36.3304L41.8089 36.331L41.8091 36.3315L41.8093 36.332L41.8095 36.3326L41.8097 36.3331L41.8099 36.3336L41.8101 36.3341L41.8103 36.3347L41.8105 36.3352L41.8107 36.3357L41.8109 36.3363L41.8111 36.3368L41.8113 36.3373L41.8115 36.3379L41.8117 36.3384L41.8119 36.3389L41.812 36.3394L41.8122 36.34L41.8124 36.3405L41.8126 36.341L41.8128 36.3416L41.813 36.3421L41.8132 36.3426L41.8134 36.3431L41.8136 36.3437L41.8138 36.3442L41.814 36.3447L41.8142 36.3453L41.8144 36.3458L41.8146 36.3463L41.8148 36.3468L41.815 36.3474L41.8152 36.3479L41.8153 36.3484L41.8155 36.349L41.8157 36.3495L41.8159 36.35L41.8161 36.3505L41.8163 36.3511L41.8165 36.3516L41.8167 36.3521L41.8169 36.3527L41.8171 36.3532L41.8173 36.3537L41.8175 36.3543L41.8177 36.3548L41.8179 36.3553L41.8181 36.3558L41.8183 36.3564L41.8184 36.3569L41.8186 36.3574L41.8188 36.358L41.819 36.3585L41.8192 36.359L41.8194 36.3595L41.8196 36.3601L41.8198 36.3606L41.82 36.3611L41.8202 36.3617L41.8204 36.3622L41.8206 36.3627L41.8208 36.3632L41.821 36.3638L41.8212 36.3643L41.8214 36.3648L41.8215 36.3654L41.8217 36.3659L41.8219 36.3664L41.8221 36.3669L41.8223 36.3675L41.8225 36.368L41.8227 36.3685L41.8229 36.3691L41.8231 36.3696L41.8233 36.3701L41.8235 36.3706L41.8237 36.3712L41.8239 36.3717L41.8241 36.3722L41.8243 36.3728L41.8245 36.3733L41.8247 36.3738L41.8248 36.3743L41.825 36.3749L41.8252 36.3754L41.8254 36.3759L41.8256 36.3765L41.8258 36.377L41.826 36.3775L41.8262 36.378L41.8264 36.3786L41.8266 36.3791L41.8268 36.3796L41.827 36.3802L41.8272 36.3807L41.8274 36.3812L41.8276 36.3817L41.8278 36.3823L41.8278 36.3824C42.0242 36.9152 42.2066 37.4523 42.3862 37.9923C42.4659 38.2325 42.5459 38.4726 42.6262 38.7125L42.6262 38.7126C42.7493 39.0798 42.8724 39.447 42.9951 39.8143C43.1186 40.1879 43.2424 40.5616 43.3678 40.9349L43.3678 40.935L43.4866 41.2878C43.4866 41.2879 43.4867 41.2881 43.4867 41.2882C43.6183 41.6904 43.7509 42.0942 43.921 42.4883L43.9247 42.4969L43.93 42.5047C43.9479 42.5312 43.9653 42.5572 43.9822 42.5826C44.0732 42.7187 44.1531 42.8383 44.2484 42.9367C44.3662 43.0584 44.5063 43.1478 44.719 43.2167L44.7313 43.2207L44.7441 43.2215L45.0169 43.237C45.2944 43.2582 45.2982 43.2583 45.539 43.2518L45.5611 43.2512L45.581 43.2413C46.0542 43.0047 46.2874 42.5891 46.4809 42.1441L46.4812 42.1443L46.484 42.1361L46.6132 41.7515C46.6132 41.7515 46.6132 41.7514 46.6132 41.7514C46.6892 41.528 46.7653 41.3041 46.8396 41.0796L46.8397 41.0795C46.8925 40.9194 46.9457 40.7595 46.9993 40.5996C47.1119 40.2643 47.2243 39.9288 47.3354 39.5928L47.3354 39.5927C47.4789 39.1581 47.6229 38.724 47.7694 38.2907C47.8841 37.9513 47.9982 37.6117 48.1112 37.2717L48.1112 37.2716L48.2732 36.7839C48.2732 36.7838 48.2733 36.7837 48.2733 36.7836C48.3044 36.6916 48.3362 36.5999 48.3679 36.5082C48.634 35.7392 48.8986 34.9742 48.7997 34.1169L48.7971 34.0945L48.7851 34.0754L48.7782 34.0642C48.6933 33.9284 48.6418 33.8461 48.5751 33.7794C48.5081 33.7124 48.4273 33.6627 48.2949 33.5812L48.284 33.5745L48.2655 33.5631L48.244 33.5604C47.8368 33.5095 47.5301 33.4935 47.1336 33.6794L47.1169 33.6872L47.1042 33.7004L47.0979 33.7069C46.9563 33.8532 46.8734 33.9388 46.8002 34.0797C46.7302 34.2147 46.6688 34.401 46.555 34.7468L46.5503 34.7612L46.5503 34.7612L46.5498 34.7626L46.4508 35.0794C46.341 35.4161 46.2314 35.7531 46.1238 36.0909L46.1238 36.091C46.0126 36.4406 45.9004 36.7898 45.7876 37.139L45.572 37.8036L45.5719 37.8042L45.4714 38.1212L45.4712 38.1216L45.3765 38.4163L45.3764 38.4166C45.2942 38.6751 45.2195 38.8488 45.0952 39.0552C44.9178 38.533 44.7395 38.0111 44.5601 37.4895L44.5601 37.4895C44.4775 37.2495 44.395 37.0095 44.3125 36.7694C44.1926 36.4159 44.0725 36.0622 43.9508 35.7089L43.9507 35.7089L43.8348 35.3732C43.8347 35.3731 43.8347 35.373 43.8346 35.3728C43.7031 34.9814 43.5702 34.5886 43.4012 34.2052L43.3975 34.1968L43.3923 34.1891C43.3682 34.1539 43.3452 34.1194 43.3227 34.0858C43.1458 33.8204 43.0027 33.6057 42.6366 33.4905Z" fill="#0066FF" stroke="#0066FF" stroke-width="0.2"/>
<path d="M21.5592 37.4369C21.5614 37.9388 21.5621 38.4406 21.5581 38.9425L21.4581 38.9417C21.4621 38.4404 21.4614 37.9391 21.4592 37.4373L21.4592 37.4372C21.4579 37.0505 21.459 36.6638 21.4607 36.2774L21.5606 36.2778L21.4607 36.2775C21.4613 36.0927 21.4613 35.9078 21.4606 35.723L21.4606 35.7229C21.4599 35.4636 21.4623 35.2047 21.4655 34.946L21.4677 34.5006L21.4678 34.4929L21.469 34.4852C21.5176 34.1847 21.6248 33.9342 21.8094 33.759C21.9951 33.5826 22.2476 33.4934 22.5639 33.4937L22.7966 33.486L22.8136 33.4854L22.8299 33.4905C23.2011 33.6073 23.3528 33.837 23.5328 34.1096C23.5503 34.136 23.5679 34.1628 23.5861 34.1899L23.5981 34.2078L23.6017 34.2291L23.6025 34.2343C23.6299 34.3981 23.6447 34.4866 23.6517 34.5802C23.6586 34.6733 23.6578 34.7708 23.6563 34.9527L23.6562 34.9576L23.6562 34.9584L23.6561 35.384L23.6561 35.3856L23.6561 35.3856L23.6488 35.842C23.6479 35.9985 23.6473 36.155 23.6468 36.3116L23.6468 36.3117C23.645 36.7235 23.6404 37.1351 23.6352 37.5465L23.5352 37.5452M21.5592 37.4369L21.4581 38.9417C21.4549 39.3338 21.4531 39.7258 21.4535 40.1179L21.4535 40.1181C21.4539 40.305 21.4542 40.492 21.4543 40.679C21.4518 40.9474 21.4496 41.2163 21.4515 41.4856L21.4515 41.4859L21.4541 41.7323L21.4541 41.7328L21.4541 41.7385C21.4542 41.9557 21.4543 42.0712 21.464 42.1798C21.4736 42.289 21.4929 42.3904 21.5287 42.5791L21.5298 42.5845L21.5345 42.6092L21.5502 42.6287C21.7026 42.8174 21.8255 42.968 21.9743 43.0812C22.1269 43.1973 22.3018 43.2708 22.5551 43.3202L22.5652 43.3222L22.5755 43.3221L22.9731 43.3173L22.9737 43.3173L23.4095 43.3148L23.4095 43.3148L23.4115 43.3147L23.8634 43.3031C23.986 43.3026 24.1152 43.3053 24.2471 43.3082C24.4405 43.3123 24.6395 43.3166 24.8308 43.3107C25.1595 43.3005 25.4916 43.2608 25.8033 43.1372L25.8123 43.1337L25.8204 43.1284C25.9597 43.039 26.0571 42.9589 26.1306 42.8549C26.2035 42.7521 26.2478 42.6331 26.2942 42.4772L26.2989 42.4615L26.2983 42.4452C26.2977 42.429 26.2972 42.4129 26.2966 42.3969C26.2836 42.0128 26.2729 41.6969 25.9837 41.3633L25.971 41.3487L25.9538 41.3399L25.9448 41.3352C25.7666 41.2436 25.6606 41.1891 25.5094 41.1637C25.3647 41.1393 25.1782 41.1416 24.8364 41.1457L24.8202 41.1459L24.8202 41.1459L24.8183 41.146L24.5261 41.1549L23.9463 41.1645L23.9452 41.1645L23.6043 41.174C23.6136 40.3849 23.6211 39.5958 23.6259 38.8067L23.6259 38.8066C23.6261 38.7735 23.6263 38.7405 23.6265 38.7074C23.6286 38.3202 23.6308 37.9332 23.6352 37.5464L23.5352 37.5452M21.5592 37.4369C21.5579 37.0505 21.559 36.6642 21.5607 36.2778C21.5613 36.0928 21.5613 35.9077 21.5606 35.7226C21.5599 35.464 21.5623 35.2055 21.5655 34.9468L21.5592 37.4369ZM23.5352 37.5452C23.5308 37.9324 23.5286 38.3196 23.5265 38.7068C23.5263 38.7399 23.5261 38.773 23.5259 38.806L23.5488 35.8409C23.5479 35.9977 23.5473 36.1545 23.5468 36.3113C23.545 36.7226 23.5404 37.1339 23.5352 37.5452Z" fill="#0066FF" stroke="#0066FF" stroke-width="0.2"/>
<path d="M11.3645 39.8295C11.5417 39.8302 11.7189 39.8307 11.8961 39.8309M11.3645 39.8295L11.3649 39.7295C11.542 39.7302 11.7191 39.7307 11.8962 39.7309L11.8963 39.7309C12.1443 39.7314 12.3922 39.7334 12.6399 39.7359C12.64 39.7359 12.64 39.7359 12.6401 39.7359L13.0665 39.7386L13.0746 39.7387L13.0745 39.739C13.2498 39.7543 13.3931 39.7744 13.5311 39.8167C13.67 39.8592 13.7991 39.9228 13.9487 40.0207L13.9627 40.0298L13.9729 40.043C14.1013 40.208 14.1686 40.3427 14.1987 40.4942C14.2265 40.6336 14.2212 40.7828 14.2146 40.9682C14.2143 40.9768 14.214 40.9854 14.2137 40.9941L14.2133 41.0048L14.2106 41.0153L14.2067 41.0306C14.1592 41.2175 14.1313 41.3272 14.0901 41.4116C14.0466 41.501 13.9889 41.5611 13.9008 41.6528L13.8931 41.6607L13.8826 41.6717L13.8693 41.679C13.4866 41.89 13.1893 41.8909 12.7931 41.8921C12.7735 41.8922 12.7537 41.8922 12.7336 41.8923C12.7335 41.8923 12.7334 41.8923 12.7333 41.8923L12.4901 41.8948L12.4899 41.8948C12.224 41.8969 11.9584 41.8965 11.6931 41.8958C11.693 41.8958 11.6929 41.8958 11.6928 41.8958L11.1392 41.8977L11.1391 41.8977C10.7519 41.8987 10.3648 41.8984 9.97772 41.8973C9.48244 41.8959 8.98716 41.8983 8.49154 41.9017L8.49142 41.9017C8.10963 41.9038 7.72794 41.9038 7.34642 41.9031L7.34659 41.8031M11.3645 39.8295L11.3649 39.7295M11.3645 39.8295L11.3649 39.7295M11.8961 39.8309L6.14091 39.713C6.14077 39.713 6.14064 39.713 6.1405 39.713M11.8961 39.8309C12.1438 39.8314 12.3914 39.8334 12.6391 39.8359L11.8961 39.8309ZM7.34659 41.8031L7.34658 41.9031C7.16407 41.9031 6.98156 41.9038 6.79905 41.9053L6.79894 41.9053C6.54275 41.907 6.2869 41.9058 6.03129 41.9038C6.03116 41.9038 6.03103 41.9038 6.03091 41.9038L5.59121 41.9037L5.58331 41.9037L5.57551 41.9025C5.35146 41.8668 5.19223 41.8184 5.05331 41.7273C4.91613 41.6372 4.80694 41.5106 4.674 41.337L4.66238 41.3219L4.65717 41.3035L4.655 41.2958C4.62387 41.1859 4.60554 41.1212 4.59634 41.0558C4.5871 40.9901 4.58723 40.9249 4.58745 40.815L4.58747 40.809L4.57974 40.5764L4.57918 40.5594L4.58429 40.5431C4.70083 40.1725 4.93237 39.9603 5.21846 39.8447C5.49796 39.7318 5.82641 39.7123 6.1405 39.713M7.34659 41.8031C7.16381 41.8031 6.98103 41.8038 6.79826 41.8053C6.54267 41.807 6.28727 41.8058 6.03169 41.8038L9.97802 41.7973C9.48226 41.7959 8.9866 41.7983 8.49085 41.8017C8.10943 41.8038 7.72802 41.8038 7.34659 41.8031ZM6.1405 39.713L6.37707 39.7117L6.3773 39.7117L6.1405 39.713ZM11.3649 39.7295C10.9948 39.7278 10.6246 39.7265 10.2543 39.7264L10.2543 39.7264C9.77375 39.7266 9.29351 39.7257 8.8133 39.7217C8.43788 39.7186 8.06245 39.7167 7.68695 39.7163L7.68682 39.7163M11.3649 39.7295L7.68682 39.7163M7.68682 39.7163C7.50769 39.7163 7.32857 39.7162 7.14945 39.716L7.68682 39.7163ZM7.14886 39.816C7.32819 39.8162 7.50752 39.8163 7.68685 39.8163C8.06208 39.8167 8.43725 39.8186 8.81246 39.8217C9.29309 39.8257 9.77366 39.8266 10.2543 39.8264L7.14886 39.816Z" fill="#0066FF" stroke="#0066FF" stroke-width="0.2"/>
<path d="M11.3645 36.0795C11.5417 36.0802 11.7189 36.0807 11.8961 36.0809M11.3645 36.0795L11.3649 35.9795C11.542 35.9802 11.7191 35.9807 11.8962 35.9809L11.8963 35.9809C12.1443 35.9814 12.3922 35.9834 12.6399 35.9859C12.64 35.9859 12.64 35.9859 12.6401 35.9859L13.0665 35.9886L13.0746 35.9887L13.0745 35.989C13.2498 36.0043 13.3931 36.0244 13.5311 36.0667C13.67 36.1092 13.7991 36.1728 13.9487 36.2707L13.9627 36.2798L13.9729 36.293C14.1013 36.458 14.1686 36.5927 14.1987 36.7442C14.2265 36.8836 14.2212 37.0328 14.2146 37.2182C14.2143 37.2268 14.214 37.2354 14.2137 37.2441L14.2133 37.2548L14.2106 37.2653L14.2067 37.2806C14.1592 37.4675 14.1313 37.5772 14.0901 37.6616C14.0466 37.751 13.9889 37.8111 13.9008 37.9028L13.8931 37.9107L13.8826 37.9217L13.8693 37.929C13.4866 38.14 13.1893 38.1409 12.7931 38.1421C12.7735 38.1422 12.7537 38.1422 12.7336 38.1423C12.7335 38.1423 12.7334 38.1423 12.7333 38.1423L12.4901 38.1448L12.4899 38.1448C12.224 38.1469 11.9584 38.1465 11.6931 38.1458C11.693 38.1458 11.6929 38.1458 11.6928 38.1458L11.1392 38.1477L11.1391 38.1477C10.7519 38.1487 10.3648 38.1484 9.97772 38.1473C9.48244 38.1459 8.98716 38.1483 8.49154 38.1517L8.49142 38.1517C8.10963 38.1538 7.72794 38.1538 7.34642 38.1531L7.34659 38.0531M11.3645 36.0795L11.3649 35.9795M11.3645 36.0795L11.3649 35.9795M11.8961 36.0809L6.14091 35.963C6.14077 35.963 6.14064 35.963 6.1405 35.963M11.8961 36.0809C12.1438 36.0814 12.3914 36.0834 12.6391 36.0859L11.8961 36.0809ZM7.34659 38.0531L7.34658 38.1531C7.16407 38.1531 6.98156 38.1538 6.79905 38.1553L6.79894 38.1553C6.54275 38.157 6.2869 38.1558 6.03129 38.1538C6.03116 38.1538 6.03103 38.1538 6.03091 38.1538L5.59121 38.1537L5.58331 38.1537L5.57551 38.1525C5.35146 38.1168 5.19223 38.0684 5.05331 37.9773C4.91613 37.8872 4.80694 37.7606 4.674 37.587L4.66238 37.5719L4.65717 37.5535L4.655 37.5458C4.62387 37.4359 4.60554 37.3712 4.59634 37.3058C4.5871 37.2401 4.58723 37.1749 4.58745 37.065L4.58747 37.059L4.57974 36.8264L4.57918 36.8094L4.58429 36.7931C4.70083 36.4225 4.93237 36.2103 5.21846 36.0947C5.49796 35.9818 5.82641 35.9623 6.1405 35.963M7.34659 38.0531C7.16381 38.0531 6.98103 38.0538 6.79826 38.0553C6.54267 38.057 6.28727 38.0558 6.03169 38.0538L9.97802 38.0473C9.48226 38.0459 8.9866 38.0483 8.49085 38.0517C8.10943 38.0538 7.72802 38.0538 7.34659 38.0531ZM6.1405 35.963L6.37707 35.9617L6.3773 35.9617L6.1405 35.963ZM11.3649 35.9795C10.9948 35.9778 10.6246 35.9765 10.2543 35.9764L10.2543 35.9764C9.77375 35.9766 9.29351 35.9757 8.8133 35.9717C8.43788 35.9686 8.06245 35.9667 7.68695 35.9663L7.68682 35.9663M11.3649 35.9795L7.68682 35.9663M7.68682 35.9663C7.50769 35.9663 7.32857 35.9662 7.14945 35.966L7.68682 35.9663ZM7.14886 36.066C7.32819 36.0662 7.50752 36.0663 7.68685 36.0663C8.06208 36.0667 8.43725 36.0686 8.81246 36.0717C9.29309 36.0757 9.77366 36.0766 10.2543 36.0764L7.14886 36.066Z" fill="#0066FF" stroke="#0066FF" stroke-width="0.2"/>
<path d="M9.75653 43.4549L9.42234 43.4577L6.87709 43.4564L6.52975 43.4577C6.48382 43.4573 6.43686 43.4566 6.38915 43.4559C6.07023 43.4512 5.71733 43.446 5.40858 43.525C5.22838 43.5711 5.05786 43.6468 4.91373 43.7712C4.76894 43.8962 4.65563 44.0662 4.58429 44.2931L4.57918 44.3094L4.57974 44.3264L4.58747 44.5591C4.58726 44.7203 4.60143 44.8444 4.64111 44.9646C4.68057 45.084 4.74331 45.1935 4.83058 45.3269L4.84068 45.3423L4.85563 45.3531C4.85923 45.3558 4.86279 45.3583 4.86634 45.3609C5.04756 45.4921 5.15824 45.5722 5.32728 45.6117C5.48776 45.6492 5.70097 45.6498 6.08776 45.651L6.10867 45.6511V45.6511L6.11074 45.6511L6.46554 45.6449C6.71377 45.6441 6.962 45.6431 7.21022 45.6419L7.21107 45.6419C7.60284 45.6367 7.99407 45.6316 8.38534 45.6296C8.64131 45.6287 8.89728 45.6274 9.15326 45.6258L9.1534 45.6258L9.51944 45.6229L9.51949 45.6229L9.8764 45.6203L9.87705 45.6203L10.2064 45.6157L10.2052 45.5157L10.2066 45.6157L10.2064 45.6157C10.3828 45.6136 10.5601 45.6078 10.7373 45.5947L10.757 45.5933L10.7747 45.5844C10.7791 45.5822 10.7835 45.58 10.7879 45.5778C10.9437 45.4999 11.0455 45.4491 11.1322 45.345C11.2139 45.247 11.2812 45.1027 11.3974 44.8536L11.4065 44.8342L11.4159 44.814V44.7919C11.4159 44.5716 11.4033 44.4005 11.3484 44.2405C11.293 44.0792 11.1977 43.9378 11.0473 43.77L11.0372 43.7588L11.0244 43.7511C10.799 43.6154 10.6088 43.542 10.4084 43.5025C10.2107 43.4635 10.0065 43.4584 9.75881 43.4549L9.75881 43.4548L9.75653 43.4549Z" fill="#0066FF" stroke="#0066FF" stroke-width="0.2"/>
</g>
<defs>
<clipPath id="clip0_4833_1278">
<rect width="60" height="60" fill="white"/>
</clipPath>
</defs>
</svg>
