<svg width="60" height="60" viewBox="0 0 60 60" fill="none" xmlns="http://www.w3.org/2000/svg">
<path fill-rule="evenodd" clip-rule="evenodd" d="M29.1182 30.6743C28.3296 30.8818 27.6045 31.2944 27.0161 31.8803C26.147 32.7519 25.6562 33.9311 25.6562 35.164V39.3779C25.6562 39.9101 26.0884 40.3447 26.6231 40.3447H39.4918C40.024 40.3447 40.4586 39.9102 40.4586 39.3779V35.164C40.4586 33.9311 39.9679 32.7519 39.0963 31.8803C38.5104 31.2944 37.7852 30.8818 36.9967 30.6743C37.8146 29.7465 38.3126 28.5283 38.3126 27.1953C38.3126 24.2949 35.9591 21.9414 33.0563 21.9414C30.1559 21.9414 27.8024 24.2949 27.8024 27.1953C27.8024 28.5283 28.2979 29.7465 29.1182 30.6743ZM30.2998 32.4517H35.8125C36.5327 32.4517 37.2236 32.7373 37.7314 33.2451C38.2417 33.7553 38.5273 34.4438 38.5273 35.164V38.4135H27.5873V35.164C27.5873 34.4438 27.873 33.7553 28.3832 33.2451C28.891 32.7373 29.5821 32.4517 30.2998 32.4517ZM33.0562 30.5205C31.2227 30.5205 29.7334 29.0313 29.7334 27.1953C29.7334 25.3618 31.2227 23.8726 33.0562 23.8726C34.8921 23.8726 36.3814 25.3618 36.3814 27.1953C36.3814 29.0313 34.8921 30.5205 33.0562 30.5205Z" fill="#0066FF"/>
<path fill-rule="evenodd" clip-rule="evenodd" d="M47.3057 47.649C46.5171 47.8565 45.7896 48.2691 45.2036 48.855C44.3321 49.7266 43.8438 50.9083 43.8438 52.1387V56.355C43.8438 56.8872 44.2759 57.3194 44.8106 57.3194H57.6793C58.2115 57.3194 58.6437 56.8873 58.6437 56.355V52.1387C58.6437 50.9082 58.1554 49.7266 57.2838 48.855C56.6979 48.2691 55.9727 47.8565 55.1842 47.649C56.0021 46.7212 56.5001 45.5054 56.5001 44.1724C56.5001 41.272 54.1442 38.916 51.2437 38.916C48.3434 38.916 45.9899 41.272 45.9899 44.1724C45.9899 45.5054 46.4854 46.7212 47.3057 47.649ZM48.4873 49.4288H54C54.7202 49.4288 55.4111 49.7144 55.9189 50.2222C56.4267 50.73 56.7124 51.421 56.7124 52.1387V55.3882H45.7749V52.1387C45.7749 51.421 46.0605 50.73 46.5683 50.2222C47.0786 49.7144 47.7671 49.4288 48.4873 49.4288ZM51.2437 47.4976C49.4102 47.4976 47.9209 46.006 47.9209 44.1725C47.9209 42.339 49.4102 40.8473 51.2437 40.8473C53.0796 40.8473 54.5689 42.339 54.5689 44.1725C54.5689 46.006 53.0796 47.4976 51.2437 47.4976Z" fill="#0066FF"/>
<path d="M9.63498 37.4611L9.70569 37.3904L9.63498 37.4611C10.05 37.8761 10.7261 37.8761 11.1411 37.4611C11.1411 37.4611 11.1411 37.4611 11.1411 37.4611L13.2147 35.3882V53.2205C13.2147 53.8077 13.6913 54.2873 14.2791 54.2873H39.5547C40.1448 54.2873 40.6215 53.8078 40.6215 53.2205C40.6215 52.6329 40.1444 52.1562 39.5547 52.1562H15.3453V35.3882L17.4182 37.4611C17.8333 37.8761 18.5093 37.8761 18.9244 37.4611L18.8537 37.3904L18.9244 37.4611C19.3419 37.0436 19.3419 36.37 18.9244 35.9525L15.0328 32.0609C14.6177 31.6459 13.9417 31.6459 13.5266 32.0609L13.5973 32.1316L13.5266 32.0609L9.63498 35.9525C9.21751 36.37 9.21751 37.0436 9.63498 37.4611Z" fill="#0066FF" stroke="#0066FF" stroke-width="0.2"/>
<path fill-rule="evenodd" clip-rule="evenodd" d="M32.5976 16.32L30.3564 14.0764C29.978 13.698 29.3677 13.698 28.9892 14.0764C28.6132 14.4524 28.6132 15.0652 28.9892 15.4412L32.8808 19.3352C33.2593 19.7112 33.8696 19.7112 34.248 19.3352L38.1397 15.4412C38.5156 15.0652 38.5156 14.4524 38.1397 14.0764C37.7612 13.698 37.1509 13.698 36.7725 14.0764L34.5288 16.32V9.56691C34.5288 9.03469 34.0992 8.60254 33.5645 8.60254H27.666C27.1338 8.60254 26.6992 9.03467 26.6992 9.56691C26.6992 10.0991 27.1338 10.5337 27.666 10.5337H32.5977L32.5976 16.32Z" fill="#0066FF"/>
<path fill-rule="evenodd" clip-rule="evenodd" d="M51.9992 32.3928L49.7555 30.1492C49.3796 29.7732 48.7668 29.7732 48.3908 30.1492C48.0124 30.5251 48.0124 31.1379 48.3908 31.5139L52.2824 35.4055C52.6584 35.784 53.2712 35.784 53.6472 35.4055L57.5388 31.5139C57.9172 31.1379 57.9172 30.5252 57.5388 30.1492C57.1628 29.7732 56.55 29.7732 56.174 30.1492L53.9304 32.3928V25.6397C53.9304 25.1074 53.4983 24.6729 52.9636 24.6729H42.1167C41.5845 24.6729 41.1523 25.1074 41.1523 25.6397C41.1523 26.1719 41.5845 26.604 42.1167 26.604H51.9992L51.9992 32.3928Z" fill="#0066FF"/>
<path d="M12.2687 8.09572V8.67029C10.7676 9.12794 9.6735 10.5225 9.6735 12.1729C9.6735 14.1934 11.3125 15.8349 13.3355 15.8349C14.1787 15.8349 14.8639 16.5201 14.8639 17.3633C14.8639 18.2091 14.1786 18.8942 13.3355 18.8942C12.4899 18.8942 11.8046 18.209 11.8046 17.3633C11.8046 16.7757 11.3276 16.299 10.7378 16.299C10.1504 16.299 9.67344 16.7759 9.67344 17.3633C9.67344 19.0135 10.7674 20.4106 12.2686 20.8661V21.443C12.2686 22.0306 12.7457 22.5073 13.3354 22.5073C13.9203 22.5073 14.3998 22.0306 14.3998 21.443V20.8661C15.901 20.4106 16.995 19.0135 16.995 17.3633C16.995 15.3428 15.3535 13.7038 13.3354 13.7038C12.4898 13.7038 11.8046 13.0186 11.8046 12.1729C11.8046 11.3298 12.4897 10.6445 13.3354 10.6445C14.1786 10.6445 14.8639 11.3297 14.8639 12.1729C14.8639 12.7626 15.3406 13.2397 15.9283 13.2397C16.5156 13.2397 16.9951 12.763 16.9951 12.1729C16.9951 10.5225 15.9009 9.12795 14.3999 8.67029V8.09572C14.3999 7.50843 13.9207 7.02891 13.3355 7.02891C12.7454 7.02891 12.2687 7.50841 12.2687 8.09572Z" fill="#0066FF" stroke="#0066FF" stroke-width="0.2"/>
<path d="M13.443 2.58066C6.71773 2.58066 1.25547 8.04295 1.25547 14.7707C1.25547 21.4959 6.71774 26.9582 13.443 26.9582C20.1707 26.9582 25.6305 21.4959 25.6305 14.7707C25.6305 8.04296 20.1707 2.58066 13.443 2.58066ZM13.443 4.71179C18.9933 4.71179 23.5017 9.21778 23.5017 14.7705C23.5017 20.3208 18.9933 24.8268 13.443 24.8268C7.8927 24.8268 3.38672 20.3208 3.38672 14.7705C3.38672 9.21781 7.89271 4.71179 13.443 4.71179Z" fill="#0066FF" stroke="#0066FF" stroke-width="0.2"/>
</svg>
