<svg width="60" height="60" viewBox="0 0 60 60" fill="none" xmlns="http://www.w3.org/2000/svg">
<mask id="path-1-outside-1_4941_1563" maskUnits="userSpaceOnUse" x="7" y="7" width="47" height="46" fill="black">
<rect fill="white" x="7" y="7" width="47" height="46"/>
<path d="M50.9719 27.52C50.9186 23.7867 49.8164 20.1778 47.7897 17.0489L49.8519 11.1289C49.8875 11.0045 49.8875 10.88 49.8341 10.7556C49.7808 10.6489 49.6741 10.56 49.5675 10.5067L46.083 9.29779C45.9586 9.26223 45.8342 9.26223 45.7097 9.31556C45.6031 9.36889 45.5141 9.47556 45.4608 9.58223L44.2697 12.9956C40.643 9.7778 36.0208 8 31.1497 8C24.1097 8 17.603 11.7511 14.0475 17.8311C11.8252 16.8889 10.1186 16.9778 8.96304 18.1333C7.13193 19.9644 7.91412 23.0578 11.2919 27.52C10.4208 27.8756 9.79859 28.7289 9.79859 29.7422C9.79859 30.9156 10.6341 31.8756 11.7541 32.0889L13.1408 49.1378C13.2653 50.7378 14.7408 52 16.483 52H45.8697C47.6119 52 49.0697 50.7378 49.2119 49.1378L50.5986 32.0889C51.7008 31.8756 52.5542 30.9156 52.5542 29.7422C52.5186 28.7289 51.8786 27.8578 50.9719 27.52ZM50.0119 27.3422H48.6075C49.123 24.9778 48.3052 22.4889 46.4386 20.9245L47.3808 18.2044C49.0341 20.9778 49.923 24.1067 50.0119 27.3422ZM33.8875 20.5512C33.3008 20.16 32.3764 19.8578 31.0964 20.2311C31.3986 19.7867 31.8253 19.4311 32.3408 19.2356C32.5897 19.1467 32.7141 18.8623 32.6252 18.6133C32.5364 18.3645 32.2519 18.24 32.003 18.3289C31.043 18.6845 30.2786 19.4844 29.9052 20.4445C28.3052 19.7689 27.1853 20.1067 26.5097 20.5512C24.9986 21.5467 24.4652 23.8044 24.6252 25.6C24.643 25.7778 24.6964 25.9378 24.7141 26.1156C23.5941 24.9956 22.5275 24 21.5141 23.0934L21.4964 23.0756L21.4786 23.0578C19.9319 21.6889 18.5275 20.5512 17.2475 19.6622C20.1453 14.7378 25.443 11.6978 31.1497 11.6978C35.6119 11.6978 39.8964 13.5822 42.9363 16.8356L42.7408 17.3689L42.0297 19.3956C39.3097 19.4667 36.9275 21.1911 36.0386 23.7867L35.7719 24.5511C35.7008 23.0045 35.1319 21.3689 33.8875 20.5512ZM34.8297 25.5289C34.7764 26.1689 34.5986 26.7733 34.3497 27.3422H26.0653C25.8164 26.7733 25.6386 26.1689 25.5853 25.5289C25.4253 23.7334 26.0297 22.0267 27.043 21.3511C27.8075 20.8534 28.803 20.9067 29.9764 21.5289C30.1186 21.6 30.2786 21.6 30.4208 21.5289C31.5941 20.9067 32.5897 20.8534 33.3541 21.3511C34.3853 22.0267 34.9897 23.7511 34.8297 25.5289ZM36.9631 24.1067C37.7631 21.7956 39.8786 20.2845 42.3853 20.3556L45.5853 21.4756C47.4164 22.8445 48.1986 25.1734 47.6297 27.3422H35.843L36.9631 24.1067ZM46.2075 10.3644L48.7853 11.2533L48.163 13.0489L45.5853 12.16L46.2075 10.3644ZM45.2652 13.0666L47.843 13.9556L47.203 15.7867L45.5853 20.4445L43.0075 19.5556L45.2652 13.0666ZM31.1497 8.96C35.9141 8.96 40.4297 10.7556 43.9319 13.9734L43.2919 15.8222C40.0919 12.5867 35.7186 10.72 31.1497 10.72C25.1052 10.72 19.523 13.92 16.4475 19.1111C16.2163 18.9689 15.9852 18.8089 15.7719 18.6845C15.4697 18.5067 15.203 18.3644 14.9186 18.2222C18.3319 12.4978 24.5008 8.96 31.1497 8.96ZM9.63856 18.8089C10.7408 17.7067 12.643 17.9556 15.2919 19.52C16.4119 20.1778 17.6741 21.0845 19.043 22.2222C16.8208 21.7245 13.6919 21.3689 11.9674 21.7778C11.7186 21.8489 11.5586 22.0978 11.6119 22.3645C11.683 22.6134 11.9319 22.7734 12.1986 22.72C14.7053 22.1155 20.2342 23.36 20.8742 23.8044C21.7097 24.5511 22.563 25.3511 23.4697 26.24C21.3008 25.7067 18.1186 25.3333 16.323 25.76C16.0742 25.8311 15.9142 26.08 15.9675 26.3467C16.0386 26.5956 16.2875 26.7556 16.5541 26.7023C18.4919 26.24 22.1363 26.8445 23.9675 27.36H12.3586C9.08746 23.1645 8.163 20.2845 9.63856 18.8089ZM48.2341 49.0489C48.1453 50.1511 47.0964 51.0222 45.8519 51.0222H16.4652C15.2208 51.0222 14.1719 50.1511 14.083 49.0489L12.7141 32.1956H49.5853L48.2341 49.0489ZM50.1186 31.1822H12.1986C11.3986 31.1822 10.7586 30.5422 10.7586 29.7422C10.7586 28.9422 11.3986 28.3022 12.1986 28.3022H25.7452C25.7452 28.3022 25.7453 28.3022 25.763 28.3022C25.763 28.3022 25.763 28.3022 25.7808 28.3022H50.1363C50.9363 28.3022 51.5764 28.9422 51.5764 29.7422C51.5764 30.5422 50.9186 31.1822 50.1186 31.1822Z"/>
</mask>
<path d="M50.9719 27.52C50.9186 23.7867 49.8164 20.1778 47.7897 17.0489L49.8519 11.1289C49.8875 11.0045 49.8875 10.88 49.8341 10.7556C49.7808 10.6489 49.6741 10.56 49.5675 10.5067L46.083 9.29779C45.9586 9.26223 45.8342 9.26223 45.7097 9.31556C45.6031 9.36889 45.5141 9.47556 45.4608 9.58223L44.2697 12.9956C40.643 9.7778 36.0208 8 31.1497 8C24.1097 8 17.603 11.7511 14.0475 17.8311C11.8252 16.8889 10.1186 16.9778 8.96304 18.1333C7.13193 19.9644 7.91412 23.0578 11.2919 27.52C10.4208 27.8756 9.79859 28.7289 9.79859 29.7422C9.79859 30.9156 10.6341 31.8756 11.7541 32.0889L13.1408 49.1378C13.2653 50.7378 14.7408 52 16.483 52H45.8697C47.6119 52 49.0697 50.7378 49.2119 49.1378L50.5986 32.0889C51.7008 31.8756 52.5542 30.9156 52.5542 29.7422C52.5186 28.7289 51.8786 27.8578 50.9719 27.52ZM50.0119 27.3422H48.6075C49.123 24.9778 48.3052 22.4889 46.4386 20.9245L47.3808 18.2044C49.0341 20.9778 49.923 24.1067 50.0119 27.3422ZM33.8875 20.5512C33.3008 20.16 32.3764 19.8578 31.0964 20.2311C31.3986 19.7867 31.8253 19.4311 32.3408 19.2356C32.5897 19.1467 32.7141 18.8623 32.6252 18.6133C32.5364 18.3645 32.2519 18.24 32.003 18.3289C31.043 18.6845 30.2786 19.4844 29.9052 20.4445C28.3052 19.7689 27.1853 20.1067 26.5097 20.5512C24.9986 21.5467 24.4652 23.8044 24.6252 25.6C24.643 25.7778 24.6964 25.9378 24.7141 26.1156C23.5941 24.9956 22.5275 24 21.5141 23.0934L21.4964 23.0756L21.4786 23.0578C19.9319 21.6889 18.5275 20.5512 17.2475 19.6622C20.1453 14.7378 25.443 11.6978 31.1497 11.6978C35.6119 11.6978 39.8964 13.5822 42.9363 16.8356L42.7408 17.3689L42.0297 19.3956C39.3097 19.4667 36.9275 21.1911 36.0386 23.7867L35.7719 24.5511C35.7008 23.0045 35.1319 21.3689 33.8875 20.5512ZM34.8297 25.5289C34.7764 26.1689 34.5986 26.7733 34.3497 27.3422H26.0653C25.8164 26.7733 25.6386 26.1689 25.5853 25.5289C25.4253 23.7334 26.0297 22.0267 27.043 21.3511C27.8075 20.8534 28.803 20.9067 29.9764 21.5289C30.1186 21.6 30.2786 21.6 30.4208 21.5289C31.5941 20.9067 32.5897 20.8534 33.3541 21.3511C34.3853 22.0267 34.9897 23.7511 34.8297 25.5289ZM36.9631 24.1067C37.7631 21.7956 39.8786 20.2845 42.3853 20.3556L45.5853 21.4756C47.4164 22.8445 48.1986 25.1734 47.6297 27.3422H35.843L36.9631 24.1067ZM46.2075 10.3644L48.7853 11.2533L48.163 13.0489L45.5853 12.16L46.2075 10.3644ZM45.2652 13.0666L47.843 13.9556L47.203 15.7867L45.5853 20.4445L43.0075 19.5556L45.2652 13.0666ZM31.1497 8.96C35.9141 8.96 40.4297 10.7556 43.9319 13.9734L43.2919 15.8222C40.0919 12.5867 35.7186 10.72 31.1497 10.72C25.1052 10.72 19.523 13.92 16.4475 19.1111C16.2163 18.9689 15.9852 18.8089 15.7719 18.6845C15.4697 18.5067 15.203 18.3644 14.9186 18.2222C18.3319 12.4978 24.5008 8.96 31.1497 8.96ZM9.63856 18.8089C10.7408 17.7067 12.643 17.9556 15.2919 19.52C16.4119 20.1778 17.6741 21.0845 19.043 22.2222C16.8208 21.7245 13.6919 21.3689 11.9674 21.7778C11.7186 21.8489 11.5586 22.0978 11.6119 22.3645C11.683 22.6134 11.9319 22.7734 12.1986 22.72C14.7053 22.1155 20.2342 23.36 20.8742 23.8044C21.7097 24.5511 22.563 25.3511 23.4697 26.24C21.3008 25.7067 18.1186 25.3333 16.323 25.76C16.0742 25.8311 15.9142 26.08 15.9675 26.3467C16.0386 26.5956 16.2875 26.7556 16.5541 26.7023C18.4919 26.24 22.1363 26.8445 23.9675 27.36H12.3586C9.08746 23.1645 8.163 20.2845 9.63856 18.8089ZM48.2341 49.0489C48.1453 50.1511 47.0964 51.0222 45.8519 51.0222H16.4652C15.2208 51.0222 14.1719 50.1511 14.083 49.0489L12.7141 32.1956H49.5853L48.2341 49.0489ZM50.1186 31.1822H12.1986C11.3986 31.1822 10.7586 30.5422 10.7586 29.7422C10.7586 28.9422 11.3986 28.3022 12.1986 28.3022H25.7452C25.7452 28.3022 25.7453 28.3022 25.763 28.3022C25.763 28.3022 25.763 28.3022 25.7808 28.3022H50.1363C50.9363 28.3022 51.5764 28.9422 51.5764 29.7422C51.5764 30.5422 50.9186 31.1822 50.1186 31.1822Z" fill="#0066FF"/>
<path d="M50.9719 27.52C50.9186 23.7867 49.8164 20.1778 47.7897 17.0489L49.8519 11.1289C49.8875 11.0045 49.8875 10.88 49.8341 10.7556C49.7808 10.6489 49.6741 10.56 49.5675 10.5067L46.083 9.29779C45.9586 9.26223 45.8342 9.26223 45.7097 9.31556C45.6031 9.36889 45.5141 9.47556 45.4608 9.58223L44.2697 12.9956C40.643 9.7778 36.0208 8 31.1497 8C24.1097 8 17.603 11.7511 14.0475 17.8311C11.8252 16.8889 10.1186 16.9778 8.96304 18.1333C7.13193 19.9644 7.91412 23.0578 11.2919 27.52C10.4208 27.8756 9.79859 28.7289 9.79859 29.7422C9.79859 30.9156 10.6341 31.8756 11.7541 32.0889L13.1408 49.1378C13.2653 50.7378 14.7408 52 16.483 52H45.8697C47.6119 52 49.0697 50.7378 49.2119 49.1378L50.5986 32.0889C51.7008 31.8756 52.5542 30.9156 52.5542 29.7422C52.5186 28.7289 51.8786 27.8578 50.9719 27.52ZM50.0119 27.3422H48.6075C49.123 24.9778 48.3052 22.4889 46.4386 20.9245L47.3808 18.2044C49.0341 20.9778 49.923 24.1067 50.0119 27.3422ZM33.8875 20.5512C33.3008 20.16 32.3764 19.8578 31.0964 20.2311C31.3986 19.7867 31.8253 19.4311 32.3408 19.2356C32.5897 19.1467 32.7141 18.8623 32.6252 18.6133C32.5364 18.3645 32.2519 18.24 32.003 18.3289C31.043 18.6845 30.2786 19.4844 29.9052 20.4445C28.3052 19.7689 27.1853 20.1067 26.5097 20.5512C24.9986 21.5467 24.4652 23.8044 24.6252 25.6C24.643 25.7778 24.6964 25.9378 24.7141 26.1156C23.5941 24.9956 22.5275 24 21.5141 23.0934L21.4964 23.0756L21.4786 23.0578C19.9319 21.6889 18.5275 20.5512 17.2475 19.6622C20.1453 14.7378 25.443 11.6978 31.1497 11.6978C35.6119 11.6978 39.8964 13.5822 42.9363 16.8356L42.7408 17.3689L42.0297 19.3956C39.3097 19.4667 36.9275 21.1911 36.0386 23.7867L35.7719 24.5511C35.7008 23.0045 35.1319 21.3689 33.8875 20.5512ZM34.8297 25.5289C34.7764 26.1689 34.5986 26.7733 34.3497 27.3422H26.0653C25.8164 26.7733 25.6386 26.1689 25.5853 25.5289C25.4253 23.7334 26.0297 22.0267 27.043 21.3511C27.8075 20.8534 28.803 20.9067 29.9764 21.5289C30.1186 21.6 30.2786 21.6 30.4208 21.5289C31.5941 20.9067 32.5897 20.8534 33.3541 21.3511C34.3853 22.0267 34.9897 23.7511 34.8297 25.5289ZM36.9631 24.1067C37.7631 21.7956 39.8786 20.2845 42.3853 20.3556L45.5853 21.4756C47.4164 22.8445 48.1986 25.1734 47.6297 27.3422H35.843L36.9631 24.1067ZM46.2075 10.3644L48.7853 11.2533L48.163 13.0489L45.5853 12.16L46.2075 10.3644ZM45.2652 13.0666L47.843 13.9556L47.203 15.7867L45.5853 20.4445L43.0075 19.5556L45.2652 13.0666ZM31.1497 8.96C35.9141 8.96 40.4297 10.7556 43.9319 13.9734L43.2919 15.8222C40.0919 12.5867 35.7186 10.72 31.1497 10.72C25.1052 10.72 19.523 13.92 16.4475 19.1111C16.2163 18.9689 15.9852 18.8089 15.7719 18.6845C15.4697 18.5067 15.203 18.3644 14.9186 18.2222C18.3319 12.4978 24.5008 8.96 31.1497 8.96ZM9.63856 18.8089C10.7408 17.7067 12.643 17.9556 15.2919 19.52C16.4119 20.1778 17.6741 21.0845 19.043 22.2222C16.8208 21.7245 13.6919 21.3689 11.9674 21.7778C11.7186 21.8489 11.5586 22.0978 11.6119 22.3645C11.683 22.6134 11.9319 22.7734 12.1986 22.72C14.7053 22.1155 20.2342 23.36 20.8742 23.8044C21.7097 24.5511 22.563 25.3511 23.4697 26.24C21.3008 25.7067 18.1186 25.3333 16.323 25.76C16.0742 25.8311 15.9142 26.08 15.9675 26.3467C16.0386 26.5956 16.2875 26.7556 16.5541 26.7023C18.4919 26.24 22.1363 26.8445 23.9675 27.36H12.3586C9.08746 23.1645 8.163 20.2845 9.63856 18.8089ZM48.2341 49.0489C48.1453 50.1511 47.0964 51.0222 45.8519 51.0222H16.4652C15.2208 51.0222 14.1719 50.1511 14.083 49.0489L12.7141 32.1956H49.5853L48.2341 49.0489ZM50.1186 31.1822H12.1986C11.3986 31.1822 10.7586 30.5422 10.7586 29.7422C10.7586 28.9422 11.3986 28.3022 12.1986 28.3022H25.7452C25.7452 28.3022 25.7453 28.3022 25.763 28.3022C25.763 28.3022 25.763 28.3022 25.7808 28.3022H50.1363C50.9363 28.3022 51.5764 28.9422 51.5764 29.7422C51.5764 30.5422 50.9186 31.1822 50.1186 31.1822Z" stroke="#0066FF" mask="url(#path-1-outside-1_4941_1563)"/>
<path d="M16.6255 36.7119H20.6433C21.048 36.7119 21.3733 36.3867 21.3733 35.982C21.3733 35.5772 21.048 35.252 20.6433 35.252H16.6255C16.2208 35.252 15.8955 35.5772 15.8955 35.982C15.8955 36.3867 16.2208 36.7119 16.6255 36.7119Z" fill="#0066FF" stroke="#0066FF" stroke-width="0.5"/>
<path d="M24.2334 35.982V35.9903L24.234 35.9986C24.2594 36.3812 24.568 36.7119 24.9634 36.7119H28.9812C29.3859 36.7119 29.7111 36.3867 29.7111 35.982C29.7111 35.5772 29.3859 35.252 28.9812 35.252H24.9634C24.5587 35.252 24.2334 35.5772 24.2334 35.982Z" fill="#0066FF" stroke="#0066FF" stroke-width="0.5"/>
<path d="M33.3189 36.7119H37.3367C37.7414 36.7119 38.0667 36.3867 38.0667 35.982C38.0667 35.5772 37.7414 35.252 37.3367 35.252H33.3189C32.9142 35.252 32.5889 35.5772 32.5889 35.982C32.5889 36.3867 32.9142 36.7119 33.3189 36.7119Z" fill="#0066FF" stroke="#0066FF" stroke-width="0.5"/>
<path d="M41.6744 36.7119H45.6921C46.0969 36.7119 46.4221 36.3867 46.4221 35.982C46.4221 35.5772 46.0969 35.252 45.6921 35.252H41.6744C41.2697 35.252 40.9443 35.5771 40.9443 35.982C40.9443 36.3868 41.2697 36.7119 41.6744 36.7119Z" fill="#0066FF" stroke="#0066FF" stroke-width="0.5"/>
<path d="M16.6255 47.9825H20.6433C21.048 47.9825 21.3733 47.6572 21.3733 47.2525C21.3733 46.8477 21.048 46.5225 20.6433 46.5225H16.6255C16.2208 46.5225 15.8955 46.8477 15.8955 47.2525C15.8955 47.6572 16.2207 47.9825 16.6255 47.9825Z" fill="#0066FF" stroke="#0066FF" stroke-width="0.5"/>
<path d="M28.9988 46.5225H24.981C24.5762 46.5225 24.251 46.8477 24.251 47.2525C24.251 47.6572 24.5762 47.9825 24.981 47.9825H28.9988C29.4035 47.9825 29.7288 47.6572 29.7288 47.2525C29.7288 46.8477 29.4035 46.5225 28.9988 46.5225Z" fill="#0066FF" stroke="#0066FF" stroke-width="0.5"/>
<path d="M37.3367 46.5225H33.3189C32.9142 46.5225 32.5889 46.8477 32.5889 47.2525C32.5889 47.6572 32.9142 47.9825 33.3189 47.9825H37.3367C37.7414 47.9825 38.0667 47.6572 38.0667 47.2525C38.0667 46.8477 37.7414 46.5225 37.3367 46.5225Z" fill="#0066FF" stroke="#0066FF" stroke-width="0.5"/>
<path d="M45.6921 46.5225H41.6744C41.2697 46.5225 40.9443 46.8477 40.9443 47.2525C40.9443 47.6573 41.2697 47.9825 41.6744 47.9825H45.6921C46.0969 47.9825 46.4221 47.6572 46.4221 47.2525C46.4221 46.8477 46.0969 46.5225 45.6921 46.5225Z" fill="#0066FF" stroke="#0066FF" stroke-width="0.5"/>
<path d="M25.5501 41.3159C25.5501 40.9112 25.2248 40.5859 24.8201 40.5859H20.8023C20.3976 40.5859 20.0723 40.9112 20.0723 41.3159C20.0723 41.7207 20.3976 42.0459 20.8023 42.0459H24.8201C25.2248 42.0459 25.5501 41.7207 25.5501 41.3159Z" fill="#0066FF" stroke="#0066FF" stroke-width="0.5"/>
<path d="M33.1765 42.0459C33.5812 42.0459 33.9065 41.7207 33.9065 41.3159C33.9065 40.9112 33.5812 40.5859 33.1765 40.5859H29.1587C28.754 40.5859 28.4287 40.9112 28.4287 41.3159C28.4287 41.7207 28.754 42.0459 29.1587 42.0459H33.1765Z" fill="#0066FF" stroke="#0066FF" stroke-width="0.5"/>
<path d="M41.5134 42.0459C41.9181 42.0459 42.2434 41.7207 42.2434 41.3159C42.2434 40.9112 41.9181 40.5859 41.5134 40.5859H37.4957C37.091 40.5859 36.7656 40.9111 36.7656 41.3159C36.7656 41.7207 37.091 42.0459 37.4957 42.0459H41.5134Z" fill="#0066FF" stroke="#0066FF" stroke-width="0.5"/>
</svg>
