<svg width="60" height="60" viewBox="0 0 60 60" fill="none" xmlns="http://www.w3.org/2000/svg">
<path d="M31.9243 23.7512L31.4015 24.8866L30.8057 24.6123C30.4603 24.4532 30.2688 24.3661 30.1214 24.3125C30.0514 24.287 30.0149 24.2782 30 24.2754C29.9851 24.2782 29.9486 24.287 29.8786 24.3125C29.7312 24.3661 29.5397 24.4532 29.1943 24.6123L28.5985 24.8866L28.5077 24.9284C27.4341 25.4228 26.4978 25.854 25.7334 26.073C24.9314 26.3028 23.9565 26.4066 23.0993 25.7558C22.2626 25.1206 22.0685 24.1647 22.0312 23.3259C21.9948 22.5099 22.0971 21.4555 22.2161 20.2276L22.2252 20.1338L22.2908 19.457C22.373 18.6093 22.3571 18.5365 22.3422 18.4889C22.3411 18.4853 22.3385 18.4772 22.3287 18.4589C22.3174 18.4379 22.2955 18.4016 22.2521 18.3419C22.1554 18.2088 22.0146 18.0427 21.7639 17.7496L21.3301 17.2423L21.268 17.1698C20.4827 16.2516 19.8042 15.4582 19.3724 14.7723C18.9207 14.0549 18.5545 13.1713 18.8638 12.1766C19.1774 11.1681 19.9915 10.6625 20.7775 10.3528C21.5192 10.0605 22.5201 9.83412 23.6671 9.5747C23.6992 9.56744 23.7314 9.56016 23.7637 9.55285L24.4 9.40887C24.7691 9.32537 24.9724 9.27835 25.1214 9.23137C25.1872 9.21061 25.2211 9.19615 25.237 9.18851C25.2446 9.18491 25.2481 9.18283 25.2488 9.18236C25.2493 9.18208 25.2494 9.18199 25.2493 9.18207L25.2507 9.18081C25.2522 9.17939 25.2562 9.17547 25.2631 9.16772C25.2775 9.15132 25.3035 9.11895 25.3446 9.05708C25.4363 8.91921 25.5444 8.72712 25.7336 8.38761L26.0613 7.79975C26.0771 7.77145 26.0928 7.74324 26.1085 7.71514C26.7014 6.65144 27.2132 5.73309 27.7041 5.0921C28.2085 4.43336 28.9271 3.75 30 3.75C31.0729 3.75 31.7915 4.43336 32.2959 5.0921C32.7868 5.73308 33.2986 6.65142 33.8915 7.71512L33.9387 7.79975L34.2664 8.3876C34.4556 8.72712 34.5637 8.91921 34.6554 9.05708C34.6965 9.11895 34.7225 9.15132 34.7369 9.16772C34.7438 9.17547 34.7478 9.17939 34.7493 9.18081L34.7507 9.18205L31.9243 23.7512ZM31.9243 23.7512L31.4015 24.8866L31.4923 24.9284C32.5659 25.4228 33.5022 25.854 34.2666 26.073C35.0686 26.3028 36.0435 26.4066 36.9007 25.7558C37.7374 25.1206 37.9315 24.1647 37.9688 23.3259C38.0052 22.5099 37.9029 21.4555 37.7839 20.2276L37.7748 20.1338L37.7092 19.457C37.627 18.6093 37.6429 18.5365 37.6578 18.4889C37.6589 18.4853 37.6615 18.4772 37.6713 18.4589C37.6826 18.4379 37.7045 18.4016 37.7479 18.3419C37.8446 18.2088 37.9854 18.0427 38.2361 17.7496L38.6699 17.2423L38.732 17.1697C39.5173 16.2516 40.1958 15.4582 40.6276 14.7723C41.0793 14.0549 41.4455 13.1713 41.1362 12.1765C40.8226 11.1681 40.0085 10.6625 39.2225 10.3528C38.4808 10.0605 37.4799 9.83412 36.3329 9.5747C36.3008 9.56744 36.2686 9.56016 36.2363 9.55285L35.6 9.40887C35.2309 9.32537 35.0276 9.27835 34.8786 9.23137M31.9243 23.7512L34.8786 9.23137M34.8786 9.23137C34.8128 9.21061 34.7789 9.19615 34.763 9.18851M34.8786 9.23137L34.763 9.18851M34.763 9.18851C34.7554 9.18491 34.7519 9.18283 34.7512 9.18236M34.763 9.18851L34.7512 9.18236M34.7512 9.18236C34.751 9.18224 34.7508 9.18215 34.7507 9.18209L34.7512 9.18236ZM30.0082 24.2743C30.0082 24.2744 30.0066 24.2746 30.0039 24.2747C30.0069 24.2743 30.0083 24.2742 30.0082 24.2743ZM29.9961 24.2748C29.9934 24.2746 29.9919 24.2744 29.9918 24.2743C29.9917 24.2742 29.993 24.2743 29.9961 24.2748Z" stroke="#0066FF" stroke-width="2.5"/>
<path d="M50 16.25C49.1638 16.25 48.6428 16.7913 48.3558 17.1661C48.082 17.5237 47.8061 18.0187 47.5234 18.5263C47.5105 18.5493 47.4976 18.5724 47.4848 18.5956L47.3209 18.8895C47.2829 18.9577 47.253 19.0113 47.2268 19.0572C47.1813 19.0679 47.1283 19.0799 47.0621 19.0948L46.7439 19.1668C46.7179 19.1727 46.6918 19.1786 46.6657 19.1845C46.1194 19.308 45.5764 19.4307 45.1596 19.5949C44.6994 19.7763 44.0755 20.1295 43.8351 20.9027C43.5989 21.6622 43.897 22.3056 44.1573 22.7191C44.3982 23.1018 44.7643 23.5298 45.1392 23.9679C45.1561 23.9877 45.1731 24.0075 45.19 24.0274L45.407 24.281C45.4644 24.3482 45.5078 24.3989 45.5442 24.4428C45.5393 24.5033 45.5325 24.5739 45.5233 24.6682L45.4905 25.0066C45.488 25.0325 45.4855 25.0582 45.483 25.084C45.4261 25.6705 45.371 26.2374 45.3912 26.6908C45.4124 27.1662 45.5265 27.8859 46.1718 28.3757C46.8375 28.8811 47.5726 28.7709 48.0388 28.6373C48.4684 28.5143 48.976 28.2804 49.4872 28.0448C49.5117 28.0336 49.5361 28.0223 49.5606 28.011L49.8585 27.8738C49.9143 27.8482 49.9601 27.8271 50 27.809C50.0399 27.8271 50.0857 27.8482 50.1415 27.8738L50.4394 28.011L50.9622 26.8756L50.4394 28.011C50.4639 28.0223 50.4883 28.0336 50.5128 28.0448C51.024 28.2804 51.5316 28.5143 51.9612 28.6373C52.4274 28.7709 53.1625 28.8811 53.8282 28.3757C54.4735 27.8859 54.5876 27.1662 54.6088 26.6908C54.629 26.2374 54.5739 25.6705 54.517 25.084C54.5145 25.0582 54.512 25.0325 54.5095 25.0066L54.4767 24.6682C54.4675 24.5739 54.4607 24.5033 54.4558 24.4428C54.4922 24.3989 54.5356 24.3482 54.593 24.281L54.81 24.0274C54.8269 24.0075 54.8439 23.9877 54.8608 23.9679C55.2357 23.5298 55.6018 23.1018 55.8427 22.7191C56.103 22.3056 56.4011 21.6622 56.1649 20.9027C55.9245 20.1295 55.3006 19.7763 54.8404 19.5949C54.4236 19.4307 53.8806 19.308 53.3343 19.1845C53.3082 19.1786 53.2821 19.1727 53.2561 19.1668L52.9379 19.0948C52.8717 19.0799 52.8187 19.0679 52.7732 19.0572C52.747 19.0113 52.7171 18.9577 52.6791 18.8895L52.5152 18.5956C52.5024 18.5724 52.4895 18.5493 52.4766 18.5263C52.1939 18.0187 51.918 17.5237 51.6442 17.1661C51.3572 16.7913 50.8362 16.25 50 16.25Z" stroke="#0066FF" stroke-width="2.5"/>
<path d="M10 16.25C9.16383 16.25 8.64277 16.7913 8.35583 17.1661C8.08195 17.5237 7.80614 18.0187 7.52337 18.5263C7.51052 18.5493 7.49765 18.5724 7.48476 18.5956L7.32091 18.8895C7.28291 18.9577 7.25299 19.0113 7.22683 19.0572C7.18128 19.0679 7.12831 19.0799 7.06209 19.0948L6.74392 19.1668C6.71786 19.1727 6.6918 19.1786 6.66574 19.1845C6.11939 19.308 5.57641 19.4307 5.15961 19.5949C4.69937 19.7763 4.07553 20.1295 3.83509 20.9027C3.59889 21.6622 3.89695 22.3056 4.15726 22.7191C4.39818 23.1018 4.76433 23.5298 5.13919 23.9679C5.15613 23.9877 5.17308 24.0075 5.19005 24.0274L5.40696 24.281C5.46444 24.3482 5.50775 24.3989 5.54425 24.4428C5.53927 24.5033 5.53246 24.5739 5.52332 24.6682L5.49053 25.0066C5.48802 25.0325 5.48552 25.0582 5.48302 25.084C5.42606 25.6705 5.37101 26.2374 5.39121 26.6908C5.41239 27.1662 5.52649 27.8859 6.17177 28.3757C6.83745 28.8811 7.57263 28.7709 8.03883 28.6373C8.46841 28.5143 8.97598 28.2804 9.48719 28.0448C9.51166 28.0336 9.53614 28.0223 9.56062 28.011L9.85853 27.8738C9.91428 27.8482 9.96008 27.8271 10 27.809C10.0399 27.8271 10.0857 27.8482 10.1415 27.8738L10.4394 28.011L10.9622 26.8756L10.4394 28.011C10.4639 28.0223 10.4883 28.0336 10.5128 28.0448C11.024 28.2804 11.5316 28.5143 11.9612 28.6373C12.4274 28.7709 13.1625 28.8811 13.8282 28.3757C14.4735 27.8859 14.5876 27.1662 14.6088 26.6908C14.629 26.2374 14.5739 25.6705 14.517 25.084C14.5145 25.0582 14.512 25.0325 14.5095 25.0066L14.4767 24.6682C14.4675 24.5739 14.4607 24.5033 14.4558 24.4428C14.4922 24.3989 14.5356 24.3482 14.593 24.281L14.81 24.0274C14.8269 24.0075 14.8439 23.9877 14.8608 23.9679C15.2357 23.5298 15.6018 23.1018 15.8427 22.7191C16.103 22.3056 16.4011 21.6622 16.1649 20.9027C15.9245 20.1295 15.3006 19.7763 14.8404 19.5949C14.4236 19.4307 13.8806 19.308 13.3343 19.1845C13.3082 19.1786 13.2821 19.1727 13.2561 19.1668L12.9379 19.0948C12.8717 19.0799 12.8187 19.0679 12.7732 19.0572C12.747 19.0113 12.7171 18.9577 12.6791 18.8895L12.5152 18.5956C12.5024 18.5724 12.4895 18.5493 12.4766 18.5263C12.1939 18.0187 11.918 17.5237 11.6442 17.1661C11.3572 16.7913 10.8362 16.25 10 16.25Z" stroke="#0066FF" stroke-width="2.5"/>
<path d="M36.9528 45.0152L36.547 42.5513C36.4623 42.5611 36.3764 42.5705 36.2894 42.5794L36.417 45.0729C36.6033 45.0729 36.7827 45.0517 36.9528 45.0152Z" stroke="#0066FF" stroke-width="2.5" stroke-linecap="round"/>
<rect x="3.75" y="33.75" width="10" height="22.5" rx="2.75" stroke="#0066FF" stroke-width="2.5"/>
</svg>
