<svg width="60" height="60" viewBox="0 0 60 60" fill="none" xmlns="http://www.w3.org/2000/svg">
<path d="M43.4122 8.52901H40.2156C39.6893 8.52901 39.2633 8.95747 39.2633 9.48129V22.6786C39.2633 23.2024 39.6893 23.6308 40.2156 23.6308H55.3966C55.9229 23.6308 56.3489 23.2024 56.3489 22.6786V9.48129C56.3489 8.95747 55.9229 8.52901 55.3966 8.52901H52.1999C52.062 6.23403 50.1484 4.41465 47.8071 4.41465H47.8029C45.4596 4.41465 43.548 6.23401 43.4122 8.52901ZM49.7863 17.0155C49.7863 16.9897 49.7852 16.964 49.7832 16.9386H54.4442V21.7266H41.1677V16.9386H45.8287C45.8267 16.964 45.8256 16.9897 45.8256 17.0155C45.8256 17.5416 46.2518 17.9678 46.7779 17.9678H48.834C49.3601 17.9678 49.7863 17.5416 49.7863 17.0155ZM41.1677 15.0341V10.4337H54.4442V15.0341H41.1677ZM47.8068 6.31919C49.0944 6.31919 50.156 7.28628 50.2888 8.52901H45.3204C45.4532 7.28629 46.5149 6.31919 47.8025 6.31919H47.8068Z" fill="#0066FF" stroke="#0066FF" stroke-width="0.2"/>
<path d="M4.02558 13.0868L4.0256 13.0868L4.02236 13.0852C3.90173 13.0282 3.78998 12.945 3.69932 12.8353M4.02558 13.0868L3.77628 12.7715M4.02558 13.0868L4.02765 13.0878C4.15384 13.1473 4.29198 13.1783 4.4304 13.1783H4.85028V22.6794C4.85028 23.2032 5.27628 23.6317 5.80256 23.6317H19.3686C19.8948 23.6317 20.3208 23.2032 20.3208 22.6794V13.1783H20.7407C21.2647 13.1783 21.693 12.75 21.693 12.226C21.693 11.9285 21.5551 11.6623 21.3438 11.4887C21.3436 11.4886 21.3434 11.4884 21.3432 11.4882L19.0929 9.57878C19.096 9.54725 19.0978 9.51469 19.0978 9.48173V6.21964C19.0978 5.69353 18.6717 5.26737 18.1456 5.26737C17.6194 5.26737 17.1933 5.69353 17.1933 6.21964V7.966L13.2757 4.64137L13.2109 4.71751L13.2756 4.64127L13.2756 4.6413C12.9229 4.34104 12.4041 4.3414 12.0496 4.63639L12.0496 4.63642L3.82085 11.4928L3.82085 11.4928L3.8202 11.4933C3.71151 11.5855 3.62821 11.695 3.57091 11.8166M4.02558 13.0868L3.57091 11.8166M3.69932 12.8353C3.69927 12.8353 3.69923 12.8352 3.69918 12.8352L3.77628 12.7715M3.69932 12.8353C3.69936 12.8354 3.69941 12.8354 3.69946 12.8355L3.77628 12.7715M3.69932 12.8353C3.62819 12.7499 3.57573 12.6571 3.53992 12.5595M3.77628 12.7715C3.71236 12.6948 3.66548 12.6117 3.63352 12.5243L3.54024 12.5604C3.54013 12.5601 3.54003 12.5598 3.53992 12.5595M3.53992 12.5595C3.4995 12.4546 3.47812 12.3425 3.47812 12.226C3.47812 12.0787 3.5114 11.9405 3.57091 11.8166M3.53992 12.5595L3.57091 11.8166M6.75467 13.1783H18.4161L18.4162 21.7269H15.4436V16.2894C15.4436 15.7635 15.0197 15.3371 14.4913 15.3371H10.6774C10.1513 15.3371 9.72513 15.7633 9.72513 16.2894V21.7269H6.75467V13.1783ZM11.6296 17.2415H13.539V21.7269H11.6296V17.2415ZM18.1459 11.2738H7.06101L12.6544 6.61236L18.1459 11.2738Z" fill="#0066FF" stroke="#0066FF" stroke-width="0.2"/>
<mask id="path-3-outside-1_4831_1332" maskUnits="userSpaceOnUse" x="2.75" y="3.45703" width="54" height="55" fill="black">
<rect fill="white" x="2.75" y="3.45703" width="54" height="55"/>
<path fill-rule="evenodd" clip-rule="evenodd" d="M25.8476 21.7754C25.8476 21.7924 25.8454 21.8095 25.8454 21.8265V23.7953L23.7424 25.2292C23.5954 25.3294 23.4889 25.47 23.4271 25.6277L21.9079 25.8876C18.4924 26.4672 15.0897 29.5332 15.0897 33.0723V40.3378H6.94391C5.17969 40.3378 3.75 41.7675 3.75 43.5317V43.5338C3.75 45.2981 5.18182 46.7299 6.94604 46.7299H20.0413V56.8721C20.0413 57.3429 20.4227 57.7243 20.8936 57.7243H20.9341H20.9745H39.1065C39.5625 57.7243 39.9354 57.3664 39.9567 56.9168L39.9588 56.8997V56.872V46.7299H53.0541C54.8183 46.7299 56.2501 45.298 56.2501 43.5338C56.2501 42.6858 55.9135 41.874 55.3148 41.2753V41.2732C54.7139 40.6744 53.9022 40.3378 53.0542 40.3378H44.9105V33.0724C44.9105 29.5333 41.5078 26.4675 38.0923 25.8877L36.571 25.6256C36.5113 25.4679 36.4027 25.3294 36.2578 25.2293L34.1548 23.7953V21.8266C34.1548 21.8095 34.1527 21.7925 34.1527 21.7754C36.1448 20.4374 37.4552 18.1618 37.4552 15.5834V11.9101C37.4552 7.79363 34.1186 4.45703 30.0021 4.45703H29.9979C25.8814 4.45703 22.5448 7.79369 22.5448 11.9101V15.5834C22.5448 18.1616 23.8554 20.4371 25.8476 21.7754ZM36.4136 27.3281L35.7936 31.1335C35.7531 31.3807 35.6061 31.598 35.3909 31.728C35.1757 31.8579 34.9157 31.8835 34.6771 31.8025L32.9576 31.2188L31.7134 32.9169L33.322 46.0995C33.3497 46.3125 33.2922 46.5299 33.1643 46.7046L30.6863 50.0796C30.5265 50.299 30.2709 50.429 30.0003 50.429C29.7297 50.429 29.474 50.299 29.3142 50.0796L26.8362 46.7046C26.7083 46.5299 26.6508 46.3125 26.6785 46.0995L28.2872 32.9169L27.0429 31.2188L25.3235 31.8025C25.0848 31.8835 24.8249 31.8579 24.6097 31.728C24.3945 31.598 24.2475 31.3807 24.207 31.1335L23.587 27.3302L22.1935 27.5668C19.5344 28.0185 16.7944 30.3175 16.7944 33.0726V41.1906C16.7944 41.6614 16.413 42.0428 15.9421 42.0428H6.94426C6.12183 42.0428 5.4549 42.7098 5.4549 43.5322V43.5343C5.4549 44.3568 6.12395 45.0258 6.94639 45.0258H20.0417V35.8726C20.0417 35.4017 20.4231 35.0203 20.8939 35.0203C21.3648 35.0203 21.7462 35.4017 21.7462 35.8726V56.0206H38.2549V35.8726C38.2549 35.4017 38.6363 35.0203 39.1072 35.0203C39.5781 35.0203 39.9595 35.4017 39.9595 35.8726V45.0258H53.0548C53.8772 45.0258 54.5462 44.3568 54.5462 43.5343C54.5462 43.138 54.3886 42.7588 54.1095 42.4796C53.8303 42.2005 53.4511 42.0429 53.0548 42.0429H44.0591C43.5882 42.0429 43.2069 41.6615 43.2069 41.1906V33.0726C43.2069 30.3176 40.4668 28.0186 37.8077 27.5668L36.4136 27.3281ZM30.0705 33.537H29.9299L28.4107 45.9696L30.0002 48.1365L31.5897 45.9696L30.0705 33.537ZM28.7346 30.6414L29.606 31.8325H30.3944L31.2659 30.6414L30.0002 30.2089L28.7346 30.6414ZM28.6877 28.8559L25.726 29.8659L25.1507 26.3332L26.459 25.4405L28.6877 28.8559ZM31.3127 28.8559L33.5414 25.4405L34.8496 26.3332L34.2743 29.8659L31.3127 28.8559ZM27.5499 22.6258V23.9936L30.0002 27.75L32.4505 23.9936V22.6258C31.6835 22.8921 30.8589 23.037 30.0023 23.037H29.9981C29.1416 23.037 28.317 22.8921 27.5499 22.6258ZM35.7508 11.9103V15.5836C35.7508 18.7583 33.1769 21.3322 30.0023 21.3322H29.998C26.8233 21.3322 24.2495 18.7583 24.2495 15.5836V11.9103C24.2495 8.73559 26.8234 6.16176 29.998 6.16176H30.0023C33.177 6.16176 35.7508 8.73565 35.7508 11.9103Z"/>
</mask>
<path fill-rule="evenodd" clip-rule="evenodd" d="M25.8476 21.7754C25.8476 21.7924 25.8454 21.8095 25.8454 21.8265V23.7953L23.7424 25.2292C23.5954 25.3294 23.4889 25.47 23.4271 25.6277L21.9079 25.8876C18.4924 26.4672 15.0897 29.5332 15.0897 33.0723V40.3378H6.94391C5.17969 40.3378 3.75 41.7675 3.75 43.5317V43.5338C3.75 45.2981 5.18182 46.7299 6.94604 46.7299H20.0413V56.8721C20.0413 57.3429 20.4227 57.7243 20.8936 57.7243H20.9341H20.9745H39.1065C39.5625 57.7243 39.9354 57.3664 39.9567 56.9168L39.9588 56.8997V56.872V46.7299H53.0541C54.8183 46.7299 56.2501 45.298 56.2501 43.5338C56.2501 42.6858 55.9135 41.874 55.3148 41.2753V41.2732C54.7139 40.6744 53.9022 40.3378 53.0542 40.3378H44.9105V33.0724C44.9105 29.5333 41.5078 26.4675 38.0923 25.8877L36.571 25.6256C36.5113 25.4679 36.4027 25.3294 36.2578 25.2293L34.1548 23.7953V21.8266C34.1548 21.8095 34.1527 21.7925 34.1527 21.7754C36.1448 20.4374 37.4552 18.1618 37.4552 15.5834V11.9101C37.4552 7.79363 34.1186 4.45703 30.0021 4.45703H29.9979C25.8814 4.45703 22.5448 7.79369 22.5448 11.9101V15.5834C22.5448 18.1616 23.8554 20.4371 25.8476 21.7754ZM36.4136 27.3281L35.7936 31.1335C35.7531 31.3807 35.6061 31.598 35.3909 31.728C35.1757 31.8579 34.9157 31.8835 34.6771 31.8025L32.9576 31.2188L31.7134 32.9169L33.322 46.0995C33.3497 46.3125 33.2922 46.5299 33.1643 46.7046L30.6863 50.0796C30.5265 50.299 30.2709 50.429 30.0003 50.429C29.7297 50.429 29.474 50.299 29.3142 50.0796L26.8362 46.7046C26.7083 46.5299 26.6508 46.3125 26.6785 46.0995L28.2872 32.9169L27.0429 31.2188L25.3235 31.8025C25.0848 31.8835 24.8249 31.8579 24.6097 31.728C24.3945 31.598 24.2475 31.3807 24.207 31.1335L23.587 27.3302L22.1935 27.5668C19.5344 28.0185 16.7944 30.3175 16.7944 33.0726V41.1906C16.7944 41.6614 16.413 42.0428 15.9421 42.0428H6.94426C6.12183 42.0428 5.4549 42.7098 5.4549 43.5322V43.5343C5.4549 44.3568 6.12395 45.0258 6.94639 45.0258H20.0417V35.8726C20.0417 35.4017 20.4231 35.0203 20.8939 35.0203C21.3648 35.0203 21.7462 35.4017 21.7462 35.8726V56.0206H38.2549V35.8726C38.2549 35.4017 38.6363 35.0203 39.1072 35.0203C39.5781 35.0203 39.9595 35.4017 39.9595 35.8726V45.0258H53.0548C53.8772 45.0258 54.5462 44.3568 54.5462 43.5343C54.5462 43.138 54.3886 42.7588 54.1095 42.4796C53.8303 42.2005 53.4511 42.0429 53.0548 42.0429H44.0591C43.5882 42.0429 43.2069 41.6615 43.2069 41.1906V33.0726C43.2069 30.3176 40.4668 28.0186 37.8077 27.5668L36.4136 27.3281ZM30.0705 33.537H29.9299L28.4107 45.9696L30.0002 48.1365L31.5897 45.9696L30.0705 33.537ZM28.7346 30.6414L29.606 31.8325H30.3944L31.2659 30.6414L30.0002 30.2089L28.7346 30.6414ZM28.6877 28.8559L25.726 29.8659L25.1507 26.3332L26.459 25.4405L28.6877 28.8559ZM31.3127 28.8559L33.5414 25.4405L34.8496 26.3332L34.2743 29.8659L31.3127 28.8559ZM27.5499 22.6258V23.9936L30.0002 27.75L32.4505 23.9936V22.6258C31.6835 22.8921 30.8589 23.037 30.0023 23.037H29.9981C29.1416 23.037 28.317 22.8921 27.5499 22.6258ZM35.7508 11.9103V15.5836C35.7508 18.7583 33.1769 21.3322 30.0023 21.3322H29.998C26.8233 21.3322 24.2495 18.7583 24.2495 15.5836V11.9103C24.2495 8.73559 26.8234 6.16176 29.998 6.16176H30.0023C33.177 6.16176 35.7508 8.73565 35.7508 11.9103Z" fill="#0066FF"/>
<path fill-rule="evenodd" clip-rule="evenodd" d="M25.8476 21.7754C25.8476 21.7924 25.8454 21.8095 25.8454 21.8265V23.7953L23.7424 25.2292C23.5954 25.3294 23.4889 25.47 23.4271 25.6277L21.9079 25.8876C18.4924 26.4672 15.0897 29.5332 15.0897 33.0723V40.3378H6.94391C5.17969 40.3378 3.75 41.7675 3.75 43.5317V43.5338C3.75 45.2981 5.18182 46.7299 6.94604 46.7299H20.0413V56.8721C20.0413 57.3429 20.4227 57.7243 20.8936 57.7243H20.9341H20.9745H39.1065C39.5625 57.7243 39.9354 57.3664 39.9567 56.9168L39.9588 56.8997V56.872V46.7299H53.0541C54.8183 46.7299 56.2501 45.298 56.2501 43.5338C56.2501 42.6858 55.9135 41.874 55.3148 41.2753V41.2732C54.7139 40.6744 53.9022 40.3378 53.0542 40.3378H44.9105V33.0724C44.9105 29.5333 41.5078 26.4675 38.0923 25.8877L36.571 25.6256C36.5113 25.4679 36.4027 25.3294 36.2578 25.2293L34.1548 23.7953V21.8266C34.1548 21.8095 34.1527 21.7925 34.1527 21.7754C36.1448 20.4374 37.4552 18.1618 37.4552 15.5834V11.9101C37.4552 7.79363 34.1186 4.45703 30.0021 4.45703H29.9979C25.8814 4.45703 22.5448 7.79369 22.5448 11.9101V15.5834C22.5448 18.1616 23.8554 20.4371 25.8476 21.7754ZM36.4136 27.3281L35.7936 31.1335C35.7531 31.3807 35.6061 31.598 35.3909 31.728C35.1757 31.8579 34.9157 31.8835 34.6771 31.8025L32.9576 31.2188L31.7134 32.9169L33.322 46.0995C33.3497 46.3125 33.2922 46.5299 33.1643 46.7046L30.6863 50.0796C30.5265 50.299 30.2709 50.429 30.0003 50.429C29.7297 50.429 29.474 50.299 29.3142 50.0796L26.8362 46.7046C26.7083 46.5299 26.6508 46.3125 26.6785 46.0995L28.2872 32.9169L27.0429 31.2188L25.3235 31.8025C25.0848 31.8835 24.8249 31.8579 24.6097 31.728C24.3945 31.598 24.2475 31.3807 24.207 31.1335L23.587 27.3302L22.1935 27.5668C19.5344 28.0185 16.7944 30.3175 16.7944 33.0726V41.1906C16.7944 41.6614 16.413 42.0428 15.9421 42.0428H6.94426C6.12183 42.0428 5.4549 42.7098 5.4549 43.5322V43.5343C5.4549 44.3568 6.12395 45.0258 6.94639 45.0258H20.0417V35.8726C20.0417 35.4017 20.4231 35.0203 20.8939 35.0203C21.3648 35.0203 21.7462 35.4017 21.7462 35.8726V56.0206H38.2549V35.8726C38.2549 35.4017 38.6363 35.0203 39.1072 35.0203C39.5781 35.0203 39.9595 35.4017 39.9595 35.8726V45.0258H53.0548C53.8772 45.0258 54.5462 44.3568 54.5462 43.5343C54.5462 43.138 54.3886 42.7588 54.1095 42.4796C53.8303 42.2005 53.4511 42.0429 53.0548 42.0429H44.0591C43.5882 42.0429 43.2069 41.6615 43.2069 41.1906V33.0726C43.2069 30.3176 40.4668 28.0186 37.8077 27.5668L36.4136 27.3281ZM30.0705 33.537H29.9299L28.4107 45.9696L30.0002 48.1365L31.5897 45.9696L30.0705 33.537ZM28.7346 30.6414L29.606 31.8325H30.3944L31.2659 30.6414L30.0002 30.2089L28.7346 30.6414ZM28.6877 28.8559L25.726 29.8659L25.1507 26.3332L26.459 25.4405L28.6877 28.8559ZM31.3127 28.8559L33.5414 25.4405L34.8496 26.3332L34.2743 29.8659L31.3127 28.8559ZM27.5499 22.6258V23.9936L30.0002 27.75L32.4505 23.9936V22.6258C31.6835 22.8921 30.8589 23.037 30.0023 23.037H29.9981C29.1416 23.037 28.317 22.8921 27.5499 22.6258ZM35.7508 11.9103V15.5836C35.7508 18.7583 33.1769 21.3322 30.0023 21.3322H29.998C26.8233 21.3322 24.2495 18.7583 24.2495 15.5836V11.9103C24.2495 8.73559 26.8234 6.16176 29.998 6.16176H30.0023C33.177 6.16176 35.7508 8.73565 35.7508 11.9103Z" stroke="#0066FF" stroke-width="0.4" mask="url(#path-3-outside-1_4831_1332)"/>
</svg>
