<svg width="60" height="60" viewBox="0 0 60 60" fill="none" xmlns="http://www.w3.org/2000/svg">
<path d="M48.8423 41.7938V41.7936C48.8422 40.9818 48.6015 40.1883 48.1505 39.5134C47.6995 38.8385 47.0585 38.3125 46.3086 38.0018C45.5586 37.6912 44.7334 37.61 43.9373 37.7683C43.1411 37.9267 42.4099 38.3176 41.8359 38.8916C41.2619 39.4655 40.871 40.1968 40.7126 40.993C40.5543 41.7891 40.6356 42.6143 40.9462 43.3643C41.2568 44.1142 41.7829 44.7552 42.4578 45.2061C43.1328 45.6571 43.9263 45.8978 44.738 45.8978L44.7383 45.8978C45.8264 45.8967 46.8696 45.4639 47.6389 44.6945C48.4083 43.9251 48.8411 42.8819 48.8423 41.7938ZM42.8936 41.7935C42.8936 41.4287 43.0018 41.0721 43.2044 40.7688C43.4071 40.4655 43.6952 40.2291 44.0322 40.0895C44.3692 39.9499 44.7401 39.9134 45.0979 39.9846C45.4557 40.0558 45.7843 40.2314 46.0423 40.4894C46.3002 40.7473 46.4759 41.076 46.5471 41.4338C46.6182 41.7916 46.5817 42.1624 46.4421 42.4995C46.3025 42.8365 46.0661 43.1245 45.7627 43.3272C45.4594 43.5299 45.1028 43.638 44.738 43.638C44.249 43.6374 43.7802 43.4429 43.4345 43.0971C43.0887 42.7513 42.8942 42.2825 42.8936 41.7935Z" fill="#0066FF" stroke="#0066FF" stroke-width="0.5"/>
<path d="M10.1388 29.2939L10.1385 29.295C10.1208 29.3526 10.0988 29.4087 10.0725 29.4629C10.0316 29.5477 10.0105 29.6407 10.0108 29.735C10.0112 29.8292 10.033 29.9221 10.0746 30.0066L10.0754 30.0081L10.9438 31.8023H12.5714L12.5714 27.8434C12.5714 27.8434 12.5714 27.8433 12.5714 27.8432L10.1388 29.2939ZM10.1388 29.2939L11.7584 23.9273C11.9811 23.3045 12.3918 22.7662 12.9338 22.3869C13.4775 22.0065 14.1262 21.8051 14.7896 21.8106L14.7896 21.8106H14.7917H23.6305C24.2534 21.8119 24.8673 21.9589 25.4233 22.2399C25.9793 22.5209 26.4618 22.9281 26.8323 23.429L28.7045 25.9708C28.7985 26.0986 28.9184 26.2051 29.0564 26.2834C29.1943 26.3617 29.3472 26.4101 29.5051 26.4254C29.663 26.4408 29.8223 26.4227 29.9728 26.3723C30.1232 26.322 30.2613 26.2406 30.3782 26.1333L30.3782 26.1333L34.6634 22.2C34.6637 22.1996 34.6641 22.1993 34.6645 22.1989C34.7892 22.0882 34.9515 22.0294 35.1182 22.0346C35.2418 22.0401 35.3611 22.0819 35.4611 22.1548C35.5614 22.228 35.6378 22.3293 35.6807 22.4458C35.7236 22.5624 35.731 22.689 35.7021 22.8097C35.6732 22.9303 35.6094 23.0396 35.5186 23.124C35.5184 23.1241 35.5182 23.1243 35.5181 23.1244L29.7838 28.3843L29.7832 28.3849C29.7199 28.4433 29.6451 28.488 29.5636 28.516C29.4829 28.5436 29.3975 28.5544 29.3126 28.5476C29.2302 28.5385 29.19 28.5283 29.1308 28.493C29.0566 28.4488 28.951 28.3627 28.7594 28.1765L28.7537 28.1705L28.7285 28.1443L28.6328 28.0447L28.2903 27.6882L27.2436 26.5984C26.486 25.8096 25.7174 25.0091 25.6464 24.9341C25.4947 24.7642 25.2952 24.644 25.0739 24.5895C24.8513 24.5347 24.6172 24.5488 24.4028 24.6302C24.1884 24.7115 24.0039 24.8562 23.8737 25.0449C23.7435 25.2336 23.6738 25.4575 23.6739 25.6868C23.6739 25.6868 23.6739 25.6868 23.6739 25.6869V31.8023H14.8311V27.843L10.1388 29.2939ZM8.04006 30.9904L9.21808 33.4245L8.04006 30.9904Z" fill="#0066FF" stroke="#0066FF" stroke-width="0.5"/>
<path d="M23.6645 52.2507H23.664C23.5023 52.2504 23.3428 52.2143 23.1967 52.1451C23.0507 52.0759 22.9217 51.9753 22.819 51.8505C22.7164 51.7256 22.6426 51.5797 22.6029 51.423C22.5632 51.2664 22.5587 51.1029 22.5895 50.9443L23.6645 52.2507ZM23.6645 52.2507H23.7373V52.2508M23.6645 52.2507L23.7373 52.2508M23.7373 52.2508L23.7421 52.2507M23.7373 52.2508L23.7421 52.2507M23.7421 52.2507C24.0006 52.2457 24.2492 52.1508 24.4453 51.9823C24.6403 51.8148 24.7712 51.5849 24.8157 51.3317C25.2143 49.3861 27.3534 47.834 30.0006 47.834C32.6473 47.834 34.786 49.3861 35.1846 51.3317C35.2291 51.5848 35.36 51.8148 35.555 51.9823C35.751 52.1508 35.9996 52.2457 36.2581 52.2507L36.2581 52.2507M23.7421 52.2507L36.2581 52.2507M36.2581 52.2507H36.2629M36.2581 52.2507H36.2629M36.2629 52.2507L36.3357 52.2507L36.3363 52.2507M36.2629 52.2507L36.3363 52.2507M36.3363 52.2507C36.4979 52.2503 36.6574 52.2143 36.8035 52.1451C36.9496 52.0759 37.0785 51.9753 37.1812 51.8505C37.2838 51.7257 37.3577 51.5797 37.3974 51.4231C37.437 51.2664 37.4416 51.1029 37.4108 50.9443C36.8155 47.8748 33.6939 45.5742 30.0007 45.5742C26.3069 45.5742 23.185 47.8747 22.5895 50.9442L36.3363 52.2507Z" fill="#0066FF" stroke="#0066FF" stroke-width="0.5"/>
<path d="M38.4019 52.2507H38.4013C38.2397 52.2504 38.0802 52.2143 37.9341 52.1451C37.788 52.0759 37.6591 51.9753 37.5564 51.8505C37.4537 51.7257 37.3799 51.5797 37.3402 51.423C37.3005 51.2663 37.296 51.1028 37.3268 50.9442M38.4019 52.2507L37.3268 50.9442M38.4019 52.2507H38.4747V52.2508M38.4019 52.2507L38.4747 52.2508M37.3268 50.9442C37.9222 47.8747 41.0442 45.5742 44.7379 45.5742C48.4313 45.5742 51.5528 47.8748 52.1482 50.9442M37.3268 50.9442L52.1482 50.9442M52.1482 50.9442C52.179 51.1029 52.1744 51.2664 52.1348 51.4231M52.1482 50.9442L52.1348 51.4231M38.4747 52.2508L38.4795 52.2507M38.4747 52.2508L38.4795 52.2507M38.4795 52.2507C38.738 52.2457 38.9866 52.1508 39.1826 51.9823C39.3776 51.8148 39.5085 51.5848 39.553 51.3317C39.9516 49.3861 42.0908 47.834 44.7379 47.834C47.3846 47.834 49.5234 49.3861 49.9219 51.3317C49.9665 51.5849 50.0973 51.8148 50.2923 51.9823C50.4884 52.1508 50.737 52.2457 50.9954 52.2507L50.9954 52.2507M38.4795 52.2507L50.9954 52.2507M50.9954 52.2507H51.0002M50.9954 52.2507H51.0002M51.0002 52.2507L51.0731 52.2507L51.0736 52.2507M51.0002 52.2507L51.0736 52.2507M51.0736 52.2507C51.2353 52.2504 51.3948 52.2143 51.5409 52.1451M51.0736 52.2507L51.5409 52.1451M51.5409 52.1451C51.6869 52.0759 51.8159 51.9753 51.9186 51.8505M51.5409 52.1451L51.9186 51.8505M51.9186 51.8505C52.0212 51.7257 52.0951 51.5797 52.1348 51.4231M51.9186 51.8505L52.1348 51.4231" fill="#0066FF" stroke="#0066FF" stroke-width="0.5"/>
<path d="M20.6567 11.6886C20.2413 11.411 19.7528 11.2628 19.2531 11.2627C18.583 11.2635 17.9406 11.53 17.4667 12.0038C16.9929 12.4777 16.7264 13.1201 16.7256 13.7902L20.6567 11.6886ZM20.6567 11.6886C21.0723 11.9663 21.3962 12.361 21.5875 12.8228M20.6567 11.6886L21.5875 12.8228M21.5875 12.8228C21.7787 13.2845 21.8288 13.7926 21.7312 14.2828M21.5875 12.8228L21.7312 14.2828M21.7312 14.2828C21.6337 14.773 21.393 15.2233 21.0396 15.5767M21.7312 14.2828L21.0396 15.5767M21.0396 15.5767C20.6862 15.9301 20.2359 16.1708 19.7457 16.2683M21.0396 15.5767L19.7457 16.2683M19.7457 16.2683C19.2555 16.3658 18.7474 16.3158 18.2857 16.1245M19.7457 16.2683L18.2857 16.1245M18.2857 16.1245C17.8239 15.9333 17.4292 15.6094 17.1515 15.1938M18.2857 16.1245L17.1515 15.1938M17.1515 15.1938C16.8739 14.7783 16.7257 14.2899 16.7256 13.7902L17.1515 15.1938ZM19.2525 18.5767H19.2528C20.1996 18.5766 21.1251 18.2959 21.9123 17.7699C22.6995 17.2439 23.313 16.4963 23.6753 15.6216C24.0376 14.7469 24.1324 13.7844 23.9477 12.8558C23.7629 11.9273 23.307 11.0743 22.6375 10.4049C21.9681 9.73546 21.1151 9.27957 20.1865 9.09489C19.2579 8.91021 18.2955 9.00502 17.4208 9.36735C16.5461 9.72967 15.7985 10.3432 15.2725 11.1304C14.7465 11.9177 14.4658 12.8432 14.4658 13.7899L14.4658 13.7902C14.4673 15.0592 14.972 16.2759 15.8694 17.1732C16.7668 18.0706 17.9835 18.5753 19.2525 18.5767Z" fill="#0066FF" stroke="#0066FF" stroke-width="0.5"/>
<path d="M19.3677 41.7939V41.7936C19.3677 40.9819 19.127 40.1884 18.676 39.5134C18.225 38.8385 17.584 38.3125 16.834 38.0019C16.0841 37.6912 15.2589 37.61 14.4627 37.7683C13.6666 37.9267 12.9353 38.3176 12.3613 38.8916C11.7873 39.4656 11.3964 40.1969 11.238 40.993C11.0797 41.7891 11.161 42.6144 11.4716 43.3643C11.7823 44.1143 12.3083 44.7552 12.9832 45.2062C13.6582 45.6572 14.4517 45.8979 15.2634 45.8979L15.2637 45.8979C16.3518 45.8967 17.395 45.4639 18.1644 44.6945C18.9338 43.9251 19.3665 42.882 19.3677 41.7939ZM13.419 41.7935C13.419 41.4288 13.5272 41.0722 13.7299 40.7689C13.9325 40.4656 14.2206 40.2292 14.5576 40.0896C14.8947 39.95 15.2655 39.9135 15.6233 39.9847C15.9811 40.0559 16.3097 40.2315 16.5677 40.4895C16.8256 40.7474 17.0013 41.0761 17.0725 41.4339C17.1436 41.7916 17.1071 42.1625 16.9675 42.4995C16.8279 42.8365 16.5915 43.1246 16.2882 43.3273C15.9848 43.5299 15.6282 43.6381 15.2634 43.6381C14.7745 43.6375 14.3057 43.4429 13.9599 43.0972C13.6141 42.7514 13.4196 42.2826 13.419 41.7935Z" fill="#0066FF" stroke="#0066FF" stroke-width="0.5"/>
<path d="M8.9273 52.2507H8.92677C8.76514 52.2504 8.60559 52.2143 8.45952 52.1451C8.31345 52.076 8.18447 51.9754 8.0818 51.8505C7.97913 51.7257 7.90531 51.5797 7.86562 51.4231C7.82594 51.2664 7.82136 51.103 7.85218 50.9444C7.85219 50.9443 7.8522 50.9443 7.85221 50.9442L8.9273 52.2507ZM8.9273 52.2507H9.00011V52.2508L9.00495 52.2507C9.26337 52.2457 9.51197 52.1508 9.70801 51.9823C9.903 51.8148 10.0339 51.5848 10.0784 51.3317L8.9273 52.2507Z" fill="#0066FF" stroke="#0066FF" stroke-width="0.5"/>
<path d="M28.9762 43.3274C29.2795 43.5301 29.6361 43.6382 30.0009 43.6382C30.4899 43.6376 30.9587 43.443 31.3045 43.0973C31.6503 42.7514 31.8448 42.2825 31.8454 41.7935L28.9762 43.3274ZM28.9762 43.3274C28.6728 43.1247 28.4364 42.8367 28.2968 42.4997M28.9762 43.3274L28.2968 42.4997M28.2968 42.4997C28.1572 42.1626 28.1206 41.7918 28.1918 41.434M28.2968 42.4997L28.1918 41.434M28.1918 41.434C28.2629 41.0762 28.4386 40.7475 28.6966 40.4895M28.1918 41.434L28.6966 40.4895M28.6966 40.4895C28.9545 40.2316 29.2832 40.0559 29.641 39.9847M28.6966 40.4895L29.641 39.9847M29.641 39.9847C29.9988 39.9135 30.3696 39.9501 30.7067 40.0897M29.641 39.9847L30.7067 40.0897M30.7067 40.0897C31.0437 40.2293 31.3318 40.4657 31.5345 40.769M30.7067 40.0897L31.5345 40.769M31.5345 40.769C31.7371 41.0722 31.8453 41.4287 31.8454 41.7934L31.5345 40.769ZM30.0012 37.6895L30.001 37.6895C29.1892 37.6894 28.3956 37.9301 27.7207 38.3811C27.0457 38.832 26.5196 39.473 26.209 40.223C25.8983 40.9729 25.817 41.7982 25.9753 42.5944C26.1337 43.3905 26.5246 44.1218 27.0986 44.6958C27.6726 45.2699 28.4039 45.6608 29.2 45.8191C29.9962 45.9775 30.8215 45.8962 31.5714 45.5856C32.3214 45.275 32.9624 44.7489 33.4134 44.074C33.8644 43.399 34.1051 42.6055 34.1051 41.7937V41.7935C34.104 40.7054 33.6712 39.6622 32.9018 38.8928C32.1325 38.1234 31.0893 37.6907 30.0012 37.6895Z" fill="#0066FF" stroke="#0066FF" stroke-width="0.5"/>
<path d="M27.0458 7.75L27.0452 7.75C26.746 7.75071 26.4593 7.87006 26.248 8.08188C26.0366 8.2937 25.918 8.58069 25.918 8.8799C25.918 9.17911 26.0366 9.4661 26.248 9.67792C26.4593 9.88974 26.746 10.0091 27.0452 10.0098H27.0458H49.9895V31.5744H34.868L34.8674 31.5744C34.5682 31.5751 34.2814 31.6944 34.0701 31.9063C33.8588 32.1181 33.7401 32.4051 33.7401 32.7043C33.7401 33.0035 33.8588 33.2905 34.0701 33.5023C34.2814 33.7141 34.5682 33.8335 34.8674 33.8342H34.868H51.1195C51.2678 33.8342 51.4148 33.805 51.5519 33.7482C51.689 33.6914 51.8135 33.6082 51.9184 33.5033C52.0234 33.3983 52.1066 33.2738 52.1634 33.1367C52.2202 32.9996 52.2494 32.8526 52.2494 32.7043V8.8799C52.2494 8.73153 52.2202 8.5846 52.1634 8.4475C52.1066 8.31041 52.0234 8.18584 51.9184 8.08091C51.8135 7.97599 51.6889 7.89276 51.5519 7.83598C51.4148 7.7792 51.2678 7.74999 51.1195 7.75L27.0458 7.75Z" fill="#0066FF" stroke="#0066FF" stroke-width="0.5"/>
</svg>
