<svg width="60" height="60" viewBox="0 0 60 60" fill="none" xmlns="http://www.w3.org/2000/svg">
<path d="M7.93534 4.571C8.06724 4.57147 8.19914 4.57184 8.33104 4.57209C8.67535 4.57306 9.01963 4.57556 9.36392 4.5784C9.77855 4.58149 10.1932 4.58264 10.6078 4.58413C11.2352 4.58659 11.8624 4.59149 12.4898 4.59593C12.4898 5.43848 12.4898 6.28104 12.4898 7.14912C12.0924 7.1523 11.695 7.15548 11.2855 7.15876C11.0332 7.16134 10.7808 7.16399 10.5285 7.16691C10.1283 7.17152 9.7281 7.17587 9.3279 7.1786C9.0051 7.18082 8.68233 7.18427 8.35956 7.18854C8.23665 7.18996 8.11374 7.19094 7.99082 7.19147C7.81816 7.19229 7.6455 7.19483 7.47285 7.19743C7.32565 7.19885 7.32565 7.19885 7.17548 7.20029C6.68602 7.26064 6.35602 7.46674 6.04328 7.82997C5.99228 7.8879 5.94128 7.94582 5.88873 8.0055C4.49592 9.86005 5.62125 12.5959 5.59022 14.8938C20.0583 14.8938 34.5265 14.8938 49.433 14.8938C49.9893 11.0201 49.9893 11.0201 48.9397 7.75949C48.8899 7.71956 48.8402 7.67963 48.7889 7.63848C48.7396 7.59767 48.6903 7.55686 48.6395 7.51481C48.2639 7.2668 47.9299 7.21235 47.481 7.20709C47.3709 7.2054 47.2607 7.20371 47.1473 7.20197C47.028 7.20096 46.9087 7.19996 46.7894 7.19899C46.6667 7.19739 46.5439 7.19573 46.4212 7.19399C46.0991 7.18963 45.7771 7.18626 45.455 7.18309C45.126 7.17967 44.797 7.17534 44.468 7.17106C43.8231 7.16275 43.1783 7.15598 42.5335 7.14912C42.5335 6.30657 42.5335 5.46401 42.5335 4.59593C43.9665 4.57886 43.9665 4.57886 44.5848 4.57515C45.0042 4.57262 45.4234 4.56966 45.8427 4.56383C46.1814 4.55915 46.52 4.55665 46.8586 4.55556C46.9868 4.55478 47.115 4.55326 47.2432 4.55094C48.6832 4.52589 49.7884 4.91445 50.8519 5.8805C52.0353 7.08387 52.1799 8.50182 52.1737 10.0796C52.174 10.2479 52.1744 10.4162 52.1749 10.5845C52.176 11.0454 52.1755 11.5062 52.1747 11.9671C52.1741 12.4648 52.175 12.9624 52.1757 13.4601C52.1769 14.4343 52.1766 15.4086 52.1759 16.3829C52.1753 17.1748 52.1752 17.9666 52.1755 18.7585C52.1755 18.843 52.1755 18.843 52.1756 18.9292C52.1756 19.1578 52.1757 19.3864 52.1758 19.615C52.1766 21.7585 52.1759 23.902 52.1745 26.0455C52.1732 27.9488 52.1733 29.8521 52.1746 31.7554C52.176 33.895 52.1766 36.0346 52.1757 38.1743C52.1757 38.4025 52.1756 38.6307 52.1755 38.8589C52.1755 38.9711 52.1754 39.0834 52.1754 39.1991C52.1752 39.9899 52.1755 40.7808 52.1761 41.5716C52.1769 42.5355 52.1767 43.4994 52.1753 44.4633C52.1746 44.955 52.1743 45.4467 52.1752 45.9384C52.176 46.3887 52.1755 46.839 52.1742 47.2893C52.1739 47.452 52.174 47.6147 52.1746 47.7774C52.1776 48.5957 52.1762 49.3498 51.8784 50.1278C51.8433 50.2199 51.8082 50.3119 51.772 50.4068C51.2439 51.4751 50.4626 52.283 49.3457 52.7661C48.3034 53.1073 47.3187 53.1552 46.229 53.1492C46.0592 53.1496 45.8894 53.15 45.7196 53.1507C45.2568 53.1519 44.794 53.151 44.3312 53.1498C43.8306 53.1489 43.33 53.1499 42.8295 53.1507C41.8504 53.1518 40.8714 53.1512 39.8923 53.1499C38.7515 53.1485 37.6107 53.1488 36.4698 53.1491C34.3727 53.1496 32.2756 53.1482 30.1785 53.1461C28.2657 53.1441 26.353 53.1437 24.4402 53.1445C23.9501 53.1447 23.46 53.145 22.9699 53.1452C22.9096 53.1452 22.8493 53.1452 22.7871 53.1452C21.1865 53.1459 19.5859 53.1453 17.9853 53.1444C17.7558 53.1443 17.5263 53.1442 17.2969 53.144C17.184 53.144 17.0711 53.1439 16.9547 53.1438C16.1599 53.1434 15.3651 53.1436 14.5703 53.144C13.6017 53.1444 12.6331 53.1439 11.6645 53.1422C11.1705 53.1413 10.6765 53.1409 10.1825 53.1416C9.72999 53.1422 9.27749 53.1416 8.82499 53.1401C8.66162 53.1397 8.49826 53.1398 8.33489 53.1404C6.71811 53.1454 5.43258 52.9035 4.21809 51.7801C3.6411 51.1871 3.29567 50.5686 3.05747 49.7874C3.03425 49.7179 3.03425 49.7179 3.01057 49.6469C2.95121 49.3534 2.95782 49.0615 2.95841 48.7636C2.95821 48.6938 2.958 48.6241 2.95779 48.5522C2.9572 48.317 2.95724 48.0817 2.95728 47.8465C2.95699 47.6767 2.95667 47.507 2.95631 47.3372C2.95543 46.8695 2.95511 46.4018 2.95488 45.9341C2.95453 45.4301 2.9537 44.9261 2.95294 44.4221C2.95129 43.2619 2.9504 42.1016 2.94966 40.9414C2.9493 40.3679 2.94884 39.7945 2.94838 39.221C2.94682 37.2577 2.94551 35.2943 2.94486 33.331C2.94482 33.2077 2.94478 33.0844 2.94474 32.9612C2.94471 32.9 2.94469 32.8389 2.94467 32.7759C2.94457 32.4662 2.94446 32.1565 2.94435 31.8468C2.94433 31.7854 2.94431 31.7239 2.94429 31.6606C2.9436 29.6686 2.94156 27.6766 2.93872 25.6846C2.93572 23.5782 2.934 21.4718 2.93371 19.3654C2.93368 19.1341 2.93363 18.9027 2.93359 18.6713C2.93358 18.6144 2.93357 18.5574 2.93356 18.4987C2.93336 17.6395 2.9322 16.7804 2.93053 15.9212C2.92863 14.9434 2.92793 13.9656 2.92878 12.9879C2.92918 12.4891 2.92901 11.9903 2.92731 11.4915C2.92577 11.0345 2.92586 10.5775 2.92722 10.1205C2.92743 9.95552 2.92705 9.79057 2.92601 9.62562C2.91734 8.15607 3.15136 6.94133 4.20376 5.81401C5.31891 4.8006 6.45952 4.55517 7.93534 4.571ZM5.50288 17.447C5.49748 22.6129 5.49208 27.7788 5.48651 33.1012C5.48412 34.7338 5.48174 36.3663 5.47928 38.0484C5.4784 39.5088 5.4784 39.5088 5.47788 40.9692C5.47763 41.6209 5.47667 42.2726 5.47522 42.9243C5.47356 43.6757 5.4728 44.4271 5.47316 45.1786C5.47332 45.563 5.47307 45.9475 5.47165 46.3319C5.47037 46.6797 5.47031 47.0274 5.47121 47.3752C5.47132 47.5008 5.47099 47.6264 5.47016 47.752C5.46078 48.9746 5.46078 48.9746 6.06269 50.0141C6.8539 50.6621 7.74313 50.6132 8.71975 50.6063C8.88782 50.6066 9.05589 50.6072 9.22396 50.6079C9.68451 50.6094 10.145 50.6082 10.6056 50.6065C11.1027 50.6052 11.5999 50.6063 12.0971 50.6072C13.0705 50.6084 14.0439 50.6074 15.0174 50.6055C16.151 50.6035 17.2846 50.6036 18.4182 50.6039C20.5019 50.6042 22.5856 50.6022 24.6693 50.5992C26.5708 50.5965 28.4724 50.5955 30.3739 50.596C30.4961 50.596 30.6182 50.5961 30.7403 50.5961C30.8007 50.5961 30.861 50.5961 30.9232 50.5962C31.2271 50.5962 31.5311 50.5963 31.835 50.5964C31.9249 50.5964 31.9249 50.5964 32.0167 50.5964C33.6064 50.5968 35.1962 50.5959 36.7859 50.5947C36.8989 50.5946 37.0119 50.5945 37.1284 50.5944C37.3554 50.5943 37.5824 50.5941 37.8094 50.5939C38.5996 50.5933 39.3898 50.5933 40.18 50.5934C41.1429 50.5935 42.1058 50.5927 43.0687 50.5907C43.56 50.5896 44.0513 50.589 44.5426 50.5895C44.9924 50.59 45.4421 50.5892 45.8919 50.5876C46.0546 50.5871 46.2172 50.5872 46.3799 50.5877C47.6742 50.6015 47.6742 50.6015 48.849 50.1119C49.3609 49.5898 49.5313 49.0293 49.5311 48.3189C49.5313 48.2088 49.5314 48.0987 49.5316 47.9853C49.5314 47.8629 49.5311 47.7405 49.5309 47.6181C49.5309 47.4886 49.531 47.3591 49.5311 47.2295C49.5313 46.8724 49.5309 46.5153 49.5305 46.1581C49.5301 45.7675 49.5302 45.377 49.5303 44.9864C49.5303 44.2277 49.5299 43.4691 49.5294 42.7104C49.5288 41.8331 49.5287 40.9559 49.5286 40.0786C49.5282 37.7617 49.5269 35.4448 49.5258 33.1278C49.524 27.9532 49.5222 22.7785 49.5203 17.447C34.9946 17.447 20.4688 17.447 5.50288 17.447Z" fill="#0066FF"/>
<path d="M53.1888 9.78711C54.4918 9.78711 55.5139 10.2588 56.44 11.1458C57.3521 12.0771 57.657 13.2376 57.6549 14.4906C57.6552 14.5594 57.6554 14.6283 57.6556 14.6992C57.6563 14.9297 57.6563 15.1602 57.6564 15.3908C57.6567 15.5578 57.6571 15.7247 57.6576 15.8917C57.6586 16.3506 57.6591 16.8095 57.6595 17.2684C57.66 17.7633 57.661 18.2583 57.662 18.7532C57.6641 19.9484 57.6654 21.1437 57.6665 22.3389C57.6668 22.6766 57.6672 23.0142 57.6675 23.3519C57.6697 25.4494 57.6717 27.547 57.6728 29.6446C57.673 30.1303 57.6733 30.6159 57.6735 31.1016C57.6736 31.162 57.6736 31.2223 57.6736 31.2845C57.6747 33.2399 57.6774 35.1954 57.681 37.1509C57.6848 39.1626 57.6871 41.1744 57.6876 43.1861C57.6878 44.3704 57.6888 45.5546 57.6918 46.7389C57.6942 47.6989 57.6952 48.6589 57.6942 49.6189C57.6938 50.1084 57.694 50.5979 57.6962 51.0874C57.6982 51.5363 57.6981 51.9851 57.6964 52.4339C57.6962 52.5956 57.6967 52.7573 57.698 52.919C57.71 54.4929 57.403 55.8452 56.2729 57.0424C55.2394 57.9929 54.0234 58.3122 52.6405 58.3089C52.536 58.3092 52.536 58.3092 52.4294 58.3095C52.1965 58.3099 51.9637 58.3098 51.7309 58.3097C51.562 58.3099 51.3932 58.3102 51.2243 58.3105C50.7607 58.3112 50.2971 58.3113 49.8335 58.3114C49.3334 58.3115 48.8332 58.3122 48.3331 58.3127C47.2397 58.3139 46.1464 58.3144 45.0531 58.3148C44.3704 58.315 43.6877 58.3154 43.005 58.3158C41.1147 58.3168 39.2244 58.3177 37.334 58.318C37.2119 58.318 37.0897 58.318 36.9676 58.318C36.8451 58.318 36.7226 58.3181 36.6002 58.3181C36.3545 58.3181 36.1089 58.3182 35.8632 58.3182C35.7719 58.3182 35.7719 58.3182 35.6787 58.3182C33.7034 58.3185 31.7281 58.3199 29.7528 58.3219C27.6634 58.324 25.574 58.3251 23.4845 58.3252C22.3459 58.3253 21.2074 58.3258 20.0688 58.3273C19.0994 58.3287 18.1301 58.3291 17.1608 58.3284C16.6663 58.3281 16.1718 58.3281 15.6773 58.3293C15.2243 58.3304 14.7715 58.3303 14.3185 58.3293C14.1549 58.3291 13.9913 58.3294 13.8277 58.3301C12.2466 58.3368 10.9043 58.0813 9.71754 56.9713C9.14249 56.3711 8.80817 55.76 8.55999 54.9786C8.51676 54.8522 8.51676 54.8522 8.47266 54.7233C8.47266 54.4986 8.47266 54.2739 8.47266 54.0424C9.33728 54.0424 10.2019 54.0424 11.0927 54.0424C11.208 54.3233 11.3233 54.6041 11.4421 54.8935C11.773 55.2821 12.1491 55.5667 12.6648 55.6594C12.8906 55.6675 13.114 55.6712 13.3398 55.6706C13.4429 55.6709 13.4429 55.6709 13.5481 55.6712C13.7798 55.6716 14.0116 55.6715 14.2433 55.6714C14.4105 55.6716 14.5778 55.6719 14.745 55.6722C15.2058 55.6729 15.6665 55.673 16.1272 55.6731C16.6237 55.6732 17.1202 55.6739 17.6166 55.6744C18.7027 55.6756 19.7888 55.6761 20.8749 55.6765C21.5529 55.6767 22.2308 55.6771 22.9088 55.6775C24.7852 55.6785 26.6616 55.6794 28.5379 55.6797C28.6593 55.6797 28.7806 55.6797 28.902 55.6797C29.0236 55.6797 29.1453 55.6798 29.2669 55.6798C29.5109 55.6798 29.755 55.6799 29.999 55.6799C30.0595 55.6799 30.12 55.6799 30.1824 55.6799C32.1443 55.6802 34.1062 55.6816 36.068 55.6836C38.1422 55.6857 40.2164 55.6868 42.2906 55.6869C43.4213 55.687 44.552 55.6875 45.6827 55.689C46.6454 55.6904 47.6082 55.6908 48.5709 55.6901C49.0622 55.6898 49.5535 55.6898 50.0448 55.691C50.4946 55.6921 50.9444 55.692 51.3942 55.691C51.5569 55.6908 51.7196 55.6911 51.8822 55.6918C53.1446 55.7046 53.1446 55.7046 54.3078 55.2605C54.7633 54.7913 54.9003 54.2961 54.8922 53.6641C54.8927 53.5946 54.8932 53.5252 54.8937 53.4537C54.895 53.2215 54.8938 52.9895 54.8926 52.7574C54.893 52.589 54.8935 52.4207 54.8942 52.2524C54.8957 51.7903 54.8949 51.3282 54.8939 50.8661C54.8931 50.3676 54.8943 49.8691 54.8953 49.3705C54.8968 48.3941 54.8965 47.4177 54.8955 46.4413C54.8947 45.6479 54.8946 44.8544 54.8949 44.061C54.895 44.0046 54.895 43.9482 54.895 43.8902C54.8951 43.6613 54.8952 43.4324 54.8954 43.2035C54.8964 41.0568 54.8955 38.91 54.8936 36.7633C54.8919 34.856 54.8921 32.9488 54.8937 31.0415C54.8956 28.8986 54.8964 26.7556 54.8953 24.6126C54.8952 24.3842 54.8951 24.1558 54.8949 23.9273C54.8949 23.8711 54.8949 23.8149 54.8949 23.7569C54.8945 22.9075 54.8949 22.0581 54.8958 21.2088C54.8968 20.243 54.8965 19.2773 54.8947 18.3116C54.8937 17.8188 54.8934 17.3259 54.8945 16.833C54.8956 16.382 54.895 15.9311 54.8932 15.4801C54.8928 15.3168 54.893 15.1534 54.8938 14.9901C54.8949 14.7683 54.8938 14.5467 54.8922 14.325C54.893 14.2613 54.8938 14.1977 54.8946 14.1321C54.8861 13.5498 54.6783 13.2001 54.2641 12.7871C53.9159 12.538 53.9159 12.538 53.1888 12.3403C53.1888 11.4977 53.1888 10.6552 53.1888 9.78711Z" fill="#0066FF"/>
<path d="M25.2783 25.7661C26.8805 27.1562 27.7912 29.3423 27.9475 31.4043C28.0514 33.5803 28.0622 35.8847 27.0086 37.8671C26.9779 37.9255 26.9471 37.9839 26.9154 38.044C26.0117 39.7363 24.7803 40.945 22.882 41.532C22.7973 41.5592 22.7127 41.5864 22.6254 41.6145C20.8903 42.09 18.9684 41.8384 17.3935 41.0147C16.9767 40.7674 16.6062 40.4886 16.2444 40.1703C16.189 40.1223 16.1337 40.0742 16.0766 40.0247C14.3711 38.4583 13.6736 35.9994 13.604 33.7846C13.5384 31.1235 13.5384 31.1235 13.8864 29.8724C13.9037 29.8099 13.9211 29.7473 13.9389 29.6828C14.4861 27.7891 15.4629 26.2078 17.2126 25.1603C17.6333 24.9306 18.0603 24.751 18.5152 24.5958C18.594 24.5685 18.6728 24.5412 18.754 24.5131C20.9722 23.885 23.4797 24.3844 25.2783 25.7661Z" fill="#0066FF"/>
<path d="M34.0216 24.5625C34.1285 24.5618 34.1285 24.5618 34.2375 24.5612C34.471 24.56 34.7044 24.5608 34.9378 24.5616C35.1014 24.5615 35.2649 24.5612 35.4285 24.5609C35.7705 24.5605 36.1125 24.5611 36.4546 24.5623C36.8913 24.5637 37.328 24.5629 37.7648 24.5614C38.1024 24.5604 38.4399 24.5607 38.7774 24.5614C38.9384 24.5616 39.0994 24.5613 39.2603 24.5608C39.486 24.5601 39.7116 24.5611 39.9373 24.5625C40.0028 24.562 40.0683 24.5615 40.1358 24.5609C40.8436 24.5691 41.4498 24.7561 41.9687 25.2302C42.423 25.7053 42.4771 26.2145 42.4675 26.8402C42.4045 27.4298 42.1302 27.8531 41.6726 28.2305C40.9924 28.6239 40.3824 28.63 39.6079 28.6205C39.4965 28.6201 39.385 28.6198 39.2702 28.6194C38.9762 28.6182 38.6821 28.6159 38.3881 28.6131C38.0872 28.6105 37.7862 28.6093 37.4853 28.608C36.8964 28.6052 36.3076 28.6008 35.7187 28.5956C35.7187 29.1853 35.7187 29.7751 35.7187 30.3828C35.8801 30.3788 36.0414 30.3749 36.2076 30.3708C38.2649 30.335 40.0027 30.5794 41.5703 31.9998C42.6261 32.9973 43.1266 34.219 43.1569 35.6301C43.1717 37.1135 42.7841 38.4486 41.7449 39.5743C41.6592 39.6681 41.6592 39.6681 41.5716 39.7638C40.3021 41.0754 38.4998 41.7393 36.6743 41.8073C35.3439 41.8337 34.0299 41.735 32.8366 41.1062C32.762 41.0705 32.6874 41.0349 32.6105 40.9981C31.5597 40.4768 30.4591 39.6856 30.0125 38.5826C29.8291 37.9505 29.9311 37.4424 30.2551 36.8735C30.5603 36.4411 30.9266 36.1619 31.4393 35.9998C32.1311 35.9247 32.7747 35.949 33.3607 36.3402C33.5451 36.5045 33.7164 36.6763 33.8874 36.8539C34.4596 37.4103 35.1421 37.634 35.9423 37.6492C36.009 37.649 36.0758 37.6489 36.1445 37.6487C36.2139 37.6486 36.2832 37.6485 36.3547 37.6483C36.8762 37.6377 37.2868 37.563 37.7275 37.2764C37.8103 37.2255 37.8932 37.1746 37.9786 37.1221C38.3721 36.7274 38.444 36.3586 38.4644 35.8243C38.4503 35.3027 38.3072 35.0328 37.9294 34.6647C37.2274 34.2764 36.4626 34.2016 35.671 34.2006C35.5254 34.199 35.3799 34.1974 35.2343 34.1956C35.0074 34.1932 34.7806 34.1913 34.5537 34.1913C32.772 34.1889 32.772 34.1889 32.0604 33.5551C31.3532 32.8494 31.3978 31.9712 31.3983 31.0483C31.3977 30.914 31.397 30.7796 31.3963 30.6452C31.3951 30.3644 31.395 30.0836 31.3955 29.8027C31.396 29.4448 31.3934 29.087 31.3898 28.7291C31.3876 28.4518 31.3873 28.1745 31.3876 27.8972C31.3875 27.7654 31.3867 27.6335 31.3851 27.5017C31.3761 26.649 31.4254 25.9242 32.0472 25.2651C32.6183 24.7228 33.2457 24.5564 34.0216 24.5625Z" fill="#0066FF"/>
<path d="M18.3398 4.51074C24.3922 4.51074 30.4446 4.51074 36.6805 4.51074C36.6805 5.38138 36.6805 6.25202 36.6805 7.14904C30.6281 7.14904 24.5757 7.14904 18.3398 7.14904C18.3398 6.2784 18.3398 5.40776 18.3398 4.51074Z" fill="#0066FF"/>
<path d="M21.8965 28.5642C22.6416 29.0011 22.9598 29.7655 23.1938 30.5498C23.3621 31.2267 23.3482 31.9134 23.3464 32.6056C23.3461 32.8173 23.3481 33.029 23.3503 33.2407C23.3561 34.669 23.2572 36.213 22.1875 37.2896C21.6495 37.7639 21.1074 37.7527 20.4022 37.7377C19.826 37.6733 19.5423 37.4301 19.1485 37.0376C18.4349 36.0525 18.2446 34.9279 18.2325 33.7424C18.2318 33.6748 18.2311 33.6072 18.2303 33.5376C18.2291 33.3951 18.2282 33.2526 18.2275 33.1102C18.2265 32.9673 18.2247 32.8244 18.2221 32.6815C18.198 31.3462 18.2794 29.9239 19.2553 28.8847C20.0143 28.2141 20.9904 28.1612 21.8965 28.5642Z" fill="white"/>
<path d="M40.4103 1.62196C40.87 1.90025 41.1965 2.22981 41.399 2.72336C41.463 3.18626 41.4584 3.64636 41.4539 4.11232C41.454 4.24751 41.4542 4.38269 41.4545 4.51788C41.4548 4.80017 41.4535 5.0824 41.4511 5.36469C41.4481 5.72566 41.4487 6.08653 41.4503 6.44751C41.4512 6.72628 41.4504 7.00503 41.4491 7.28379C41.4487 7.41687 41.4487 7.54994 41.4493 7.68302C41.4497 7.86918 41.448 8.0552 41.4456 8.24135C41.445 8.34702 41.4445 8.45269 41.4439 8.56156C41.36 9.10185 41.0075 9.43555 40.5877 9.76524C40.1387 10.0869 39.6699 10.1062 39.1282 10.0425C38.5957 9.88965 38.1971 9.56423 37.9055 9.10633C37.7563 8.73475 37.7082 8.4231 37.7055 8.02509C37.7044 7.91317 37.7033 7.80124 37.7021 7.68593C37.7018 7.56476 37.7017 7.44359 37.7015 7.32242C37.701 7.19694 37.7004 7.07146 37.6998 6.94598C37.6987 6.68344 37.6984 6.4209 37.6985 6.15836C37.6985 5.82336 37.6961 5.48842 37.6931 5.15343C37.6912 4.89437 37.6908 4.63532 37.6909 4.37626C37.6907 4.25282 37.6899 4.12939 37.6886 4.00596C37.6808 3.22611 37.7 2.62733 38.258 2.0189C38.3164 1.97227 38.3748 1.92565 38.435 1.87761C38.4937 1.82945 38.5523 1.78129 38.6128 1.73167C39.0973 1.39718 39.875 1.41589 40.4103 1.62196Z" fill="#0066FF"/>
<path d="M16.1013 1.58713C16.6148 1.81225 17.0058 2.18591 17.2109 2.69861C17.2972 2.99183 17.3171 3.23403 17.32 3.53851C17.3214 3.64818 17.3228 3.75785 17.3243 3.87085C17.3248 3.9896 17.3253 4.10834 17.3257 4.22709C17.3265 4.35026 17.3273 4.47342 17.3281 4.59659C17.3295 4.85441 17.3302 5.11222 17.3304 5.37004C17.3309 5.69837 17.3342 6.0266 17.3382 6.3549C17.3408 6.60929 17.3414 6.86366 17.3415 7.11807C17.3419 7.23899 17.3429 7.35991 17.3448 7.48082C17.356 8.28516 17.2946 8.96136 16.7306 9.58607C16.2767 9.98855 15.7641 10.0935 15.1675 10.0795C14.6178 9.99138 14.1672 9.69648 13.8344 9.26649C13.4948 8.72136 13.5624 8.08404 13.5671 7.46778C13.5668 7.333 13.5664 7.19822 13.5659 7.06345C13.5652 6.78187 13.5662 6.50035 13.5682 6.21878C13.5707 5.85934 13.5693 5.50003 13.5666 5.14059C13.5651 4.86254 13.5656 4.58452 13.5667 4.30647C13.567 4.17401 13.5666 4.04155 13.5656 3.9091C13.5575 2.56715 13.5575 2.56715 14.0618 2.04225C14.6576 1.50419 15.3087 1.37289 16.1013 1.58713Z" fill="#0066FF"/>
</svg>
