<svg width="34" height="34" viewBox="0 0 34 34" fill="none" xmlns="http://www.w3.org/2000/svg">
<path d="M23.8534 12.6173C23.8534 10.4689 22.6171 8.58218 20.7694 7.53922L21.7909 5.69743C21.8218 5.64379 21.8417 5.58449 21.8492 5.52305C21.8568 5.4616 21.852 5.39926 21.8351 5.33971C21.8181 5.28016 21.7894 5.22462 21.7506 5.17636C21.7119 5.1281 21.6638 5.08812 21.6093 5.05877C21.502 4.9993 21.3756 4.98483 21.2577 5.01852C21.1397 5.05221 21.04 5.13131 20.9804 5.23845L19.9335 7.12906C18.2889 6.48326 16.4609 6.48326 14.8164 7.12906L13.7675 5.23845C13.7382 5.18521 13.6986 5.1383 13.6511 5.10042C13.6035 5.06254 13.5489 5.03444 13.4905 5.01773C13.432 5.00103 13.3708 4.99606 13.3105 5.0031C13.2501 5.01014 13.1917 5.02906 13.1386 5.05877C13.0854 5.08811 13.0385 5.1277 13.0006 5.17525C12.9627 5.2228 12.9346 5.27737 12.9179 5.33583C12.9012 5.39428 12.8962 5.45546 12.9033 5.51585C12.9103 5.57623 12.9292 5.63463 12.9589 5.68767L13.9804 7.53922C12.1308 8.58218 10.9062 10.4689 10.9062 12.6173H23.8534ZM26.0409 12.6173C26.2652 12.6173 26.4873 12.6615 26.6946 12.7474C26.9018 12.8333 27.0901 12.9593 27.2486 13.118C27.4072 13.2767 27.5329 13.4651 27.6185 13.6724C27.7042 13.8798 27.7482 14.1019 27.7479 14.3263V20.3809C27.7482 20.6053 27.7042 20.8274 27.6185 21.0348C27.5329 21.2421 27.4072 21.4305 27.2486 21.5892C27.0901 21.7479 26.9018 21.8739 26.6946 21.9598C26.4873 22.0457 26.2652 22.0899 26.0409 22.0899C25.5876 22.0899 25.153 21.9098 24.8325 21.5893C24.512 21.2689 24.3319 20.8342 24.3319 20.3809V14.3263C24.3319 13.873 24.512 13.4383 24.8325 13.1179C25.153 12.7974 25.5876 12.6173 26.0409 12.6173ZM8.70898 12.6173C9.16222 12.6173 9.59691 12.7974 9.9174 13.1179C10.2379 13.4383 10.4179 13.873 10.4179 14.3263V20.3809C10.4179 20.8342 10.2379 21.2689 9.9174 21.5893C9.59691 21.9098 9.16222 22.0899 8.70898 22.0899C8.2564 22.0899 7.82231 21.9104 7.50193 21.5907C7.18155 21.2711 7.00104 20.8374 7 20.3848V14.3302C6.99949 14.1054 7.04332 13.8828 7.12897 13.675C7.21462 13.4672 7.34042 13.2783 7.49917 13.1192C7.65791 12.9601 7.84648 12.8339 8.05408 12.7478C8.26167 12.6616 8.48422 12.6173 8.70898 12.6173ZM16.662 24.0879V27.291C16.662 27.7443 16.482 28.179 16.1615 28.4995C15.841 28.8199 15.4063 29 14.9531 29C14.5007 28.999 14.0672 28.8184 13.7479 28.498C13.4285 28.1775 13.2494 27.7434 13.25 27.291V24.0879H12.4687C12.0543 24.0879 11.6569 23.9233 11.3639 23.6303C11.0708 23.3373 10.9062 22.9398 10.9062 22.5254V13.131H23.8534V22.5215C23.8534 22.9359 23.6888 23.3334 23.3958 23.6264C23.1027 23.9194 22.7053 24.084 22.2909 24.084H21.5097V27.2871C21.5097 27.7404 21.3296 28.1751 21.0091 28.4955C20.6886 28.816 20.2539 28.9961 19.8007 28.9961C19.3474 28.9961 18.9128 28.816 18.5923 28.4955C18.2718 28.1751 18.0917 27.7404 18.0917 27.2871V24.0879H16.662Z" fill="#0066FF"/>
<path d="M14.668 9.70507C14.668 9.64859 14.6512 9.59338 14.6198 9.54645C14.5883 9.49951 14.5437 9.46296 14.4915 9.44144C14.4393 9.41992 14.3818 9.41438 14.3265 9.42555C14.2711 9.43671 14.2203 9.46406 14.1805 9.50414C14.1407 9.54421 14.1137 9.5952 14.1029 9.65065C14.0921 9.70609 14.098 9.76348 14.1199 9.81555C14.1418 9.86762 14.1787 9.91202 14.2258 9.94312C14.273 9.97422 14.3283 9.99061 14.3848 9.99022C14.4221 9.99022 14.4591 9.98284 14.4936 9.96848C14.5281 9.95413 14.5594 9.93309 14.5857 9.90659C14.612 9.88008 14.6329 9.84863 14.647 9.81405C14.6611 9.77946 14.6682 9.74242 14.668 9.70507Z" fill="white"/>
<path d="M14.4205 9.70469C14.4228 9.69837 14.4228 9.69147 14.4205 9.68515C14.4146 9.68086 14.4074 9.67855 14.4 9.67855C14.3927 9.67855 14.3855 9.68086 14.3795 9.68515C14.3777 9.69153 14.3777 9.69831 14.3795 9.70469C14.3792 9.70861 14.3798 9.71255 14.3812 9.71623C14.3825 9.71992 14.3847 9.72327 14.3875 9.72605C14.3902 9.72883 14.3936 9.73098 14.3973 9.73235C14.401 9.73372 14.4049 9.73427 14.4088 9.73398C14.4152 9.73583 14.422 9.73583 14.4284 9.73398C14.4311 9.72708 14.4311 9.7194 14.4284 9.7125L14.4205 9.70469ZM14.7741 9.31406C14.8243 9.36414 14.8642 9.42365 14.8914 9.48918C14.9186 9.5547 14.9326 9.62495 14.9326 9.6959C14.9326 9.76684 14.9186 9.83709 14.8914 9.90262C14.8642 9.96814 14.8243 10.0276 14.7741 10.0777C14.6723 10.1789 14.5347 10.2356 14.3912 10.2356C14.2478 10.2356 14.1102 10.1789 14.0084 10.0777C13.9553 10.0283 13.9126 9.96858 13.883 9.90227C13.8534 9.83595 13.8374 9.76435 13.836 9.69173C13.8347 9.61912 13.848 9.54697 13.8751 9.47959C13.9022 9.41222 13.9426 9.351 13.9939 9.29957C14.0452 9.24815 14.1063 9.20758 14.1736 9.18029C14.2409 9.15299 14.313 9.13953 14.3857 9.1407C14.4583 9.14187 14.5299 9.15765 14.5963 9.1871C14.6627 9.21655 14.7225 9.25906 14.7721 9.31211L14.7741 9.31406Z" fill="white"/>
<path d="M20.6504 9.70508C20.6504 9.64868 20.6337 9.59355 20.6023 9.54665C20.571 9.49976 20.5265 9.46321 20.4744 9.44163C20.4223 9.42005 20.3649 9.4144 20.3096 9.4254C20.2543 9.4364 20.2035 9.46356 20.1636 9.50344C20.1237 9.54332 20.0966 9.59413 20.0856 9.64945C20.0746 9.70476 20.0802 9.76209 20.1018 9.8142C20.1234 9.8663 20.1599 9.91084 20.2068 9.94217C20.2537 9.97351 20.3088 9.99023 20.3652 9.99023C20.4409 9.99023 20.5134 9.96019 20.5669 9.90671C20.6203 9.85323 20.6504 9.7807 20.6504 9.70508Z" fill="white"/>
<path d="M20.3932 9.70469C20.3954 9.69837 20.3954 9.69147 20.3932 9.68515C20.3872 9.68086 20.38 9.67855 20.3727 9.67855C20.3653 9.67855 20.3582 9.68086 20.3522 9.68515C20.3503 9.69153 20.3503 9.69831 20.3522 9.70469C20.3519 9.70861 20.3524 9.71255 20.3538 9.71623C20.3552 9.71992 20.3573 9.72327 20.3601 9.72605C20.3629 9.72883 20.3662 9.73098 20.3699 9.73235C20.3736 9.73372 20.3776 9.73427 20.3815 9.73398C20.3879 9.73583 20.3946 9.73583 20.401 9.73398C20.4037 9.72708 20.4037 9.7194 20.401 9.7125L20.3932 9.70469ZM20.7467 9.31406C20.8422 9.41673 20.8942 9.55247 20.8915 9.69268C20.8889 9.83288 20.832 9.96659 20.7327 10.0656C20.6334 10.1647 20.4995 10.2213 20.3593 10.2235C20.2191 10.2258 20.0835 10.1735 19.9811 10.0777C19.9279 10.0283 19.8852 9.96858 19.8556 9.90227C19.826 9.83595 19.81 9.76435 19.8087 9.69173C19.8073 9.61912 19.8206 9.54697 19.8477 9.47959C19.8749 9.41222 19.9153 9.351 19.9666 9.29957C20.0179 9.24815 20.079 9.20758 20.1463 9.18029C20.2136 9.15299 20.2857 9.13953 20.3583 9.1407C20.4309 9.14187 20.5026 9.15765 20.569 9.1871C20.6354 9.21655 20.6951 9.25906 20.7448 9.31211L20.7467 9.31406Z" fill="white"/>
</svg>
