<svg width="34" height="34" viewBox="0 0 34 34" fill="none" xmlns="http://www.w3.org/2000/svg">
<path fill-rule="evenodd" clip-rule="evenodd" d="M9.25619 4H24.7438C27.6347 4 30 6.36921 30 9.26494V24.7351C30 27.6308 27.6347 30 24.7438 30H9.25619C6.36527 30 4 27.6308 4 24.7351V9.26494C4 6.36921 6.36527 4 9.25619 4ZM24.2949 18.7596C24.9557 18.7596 25.4914 19.2962 25.4914 19.958C25.4914 20.62 24.9557 21.1565 24.2949 21.1565H23.2258L24.1906 22.8254C24.5171 23.4016 24.3154 24.1339 23.7402 24.461C23.1649 24.788 22.4338 24.586 22.1074 24.0098L20.4579 21.1565H20.4351L19.017 18.7595H19.0722L17.6722 16.3379L19.0341 13.9058L21.8401 18.7594H24.2949V18.7596ZM14.6873 11.1747C14.3608 10.5984 14.5624 9.86615 15.1377 9.5391C15.713 9.21205 16.4441 9.41401 16.7705 9.99022L17.0461 10.467L17.2833 10.0582C17.6098 9.48199 18.3409 9.28002 18.9161 9.60707C19.4914 9.93412 19.693 10.6664 19.3666 11.2426L18.4272 12.8559L18.4299 12.8606L17.7109 14.0863L14.9902 18.7597H17.8477L19.2359 21.1566L13.6272 21.1566L12.0821 23.874C11.7555 24.4502 11.0245 24.6522 10.4493 24.3251C9.87403 23.9981 9.67232 23.2658 9.99891 22.6895L10.8706 21.1567H9.70516C9.04442 21.1567 8.50872 20.6201 8.50872 19.9582C8.50872 19.2964 9.04442 18.7598 9.70516 18.7598H12.2335L15.6595 12.8563L14.6873 11.1747Z" fill="#0066FF"/>
</svg>
