<svg width="34" height="34" viewBox="0 0 34 34" fill="none" xmlns="http://www.w3.org/2000/svg">
<path d="M9.58325 16.3357C9.58325 16.7543 9.62575 17.0943 9.7065 17.345C9.79575 17.5937 9.9105 17.8657 10.0677 18.161C10.1179 18.2391 10.1452 18.3296 10.1464 18.4224C10.1464 18.535 10.0784 18.6498 9.93388 18.7624L9.21988 19.2384C9.13417 19.3003 9.03223 19.3357 8.92663 19.3404C8.81188 19.3404 8.69925 19.2852 8.58663 19.1832C8.43389 19.0188 8.29727 18.8402 8.17863 18.6498C8.05293 18.4317 7.93666 18.2084 7.83012 17.9804C6.94613 19.0238 5.839 19.5465 4.5045 19.5465C3.55462 19.5465 2.796 19.2724 2.2435 18.7284C1.68887 18.1844 1.40625 17.4577 1.40625 16.5503C1.40625 15.5855 1.74625 14.8035 2.43475 14.2128C3.12538 13.622 4.04125 13.3288 5.20575 13.3288C5.58825 13.3288 5.98562 13.3628 6.40425 13.418C6.82288 13.4754 7.25425 13.5668 7.70475 13.6688V12.84C7.70475 11.9773 7.52413 11.3759 7.1735 11.0253C6.81225 10.6725 6.20025 10.5025 5.329 10.5025C4.93375 10.5025 4.52788 10.5493 4.10925 10.6513C3.69333 10.7503 3.285 10.8788 2.88737 11.0359C2.759 11.094 2.62697 11.1437 2.49212 11.1847C2.43369 11.204 2.37295 11.2154 2.3115 11.2187C2.15213 11.2187 2.0735 11.1039 2.0735 10.8659V10.3092C2.0735 10.1285 2.09475 9.99041 2.15213 9.91391C2.23776 9.80964 2.34703 9.72732 2.47088 9.67378C2.864 9.46978 3.34 9.29978 3.89462 9.16378C4.44712 9.01503 5.03575 8.94916 5.65838 8.94916C7.0035 8.94916 7.98738 9.25516 8.62063 9.86716C9.24325 10.4792 9.55988 11.4099 9.55988 12.6594V16.3357H9.58112H9.58325ZM4.99113 18.059C5.363 18.059 5.74763 17.991 6.15563 17.855C6.56363 17.719 6.92487 17.4683 7.22875 17.1283C7.41097 16.9195 7.54259 16.6716 7.61338 16.4037C7.68138 16.1295 7.72813 15.8023 7.72813 15.4155V14.9395C7.3849 14.8563 7.03727 14.7924 6.68688 14.7483C6.33452 14.7027 5.97966 14.6793 5.62438 14.6782C4.86575 14.6782 4.31325 14.8269 3.93925 15.1329C3.56525 15.4389 3.38675 15.8703 3.38675 16.4377C3.38675 16.9689 3.52063 17.3663 3.80325 17.6404C4.07525 17.923 4.4705 18.059 4.99113 18.059ZM14.0712 19.2852C13.8673 19.2852 13.7312 19.2512 13.642 19.1704C13.5506 19.1024 13.472 18.9452 13.404 18.7284L10.7477 9.95853C10.6961 9.81146 10.6619 9.65883 10.6458 9.50378C10.6458 9.32316 10.735 9.22116 10.9156 9.22116H12.0249C12.2374 9.22116 12.3861 9.25516 12.4648 9.33378C12.5561 9.40178 12.6241 9.56116 12.6921 9.77578L14.5919 17.2877L16.3556 9.77578C16.4109 9.55053 16.4789 9.40178 16.5702 9.33378C16.706 9.25069 16.864 9.21137 17.0229 9.22116H17.9281C18.1406 9.22116 18.2894 9.25516 18.3786 9.33378C18.47 9.40178 18.5486 9.56116 18.5954 9.77578L20.3804 17.379L22.3354 9.77578C22.3717 9.61128 22.4501 9.45901 22.5627 9.33378C22.6945 9.25047 22.8492 9.21104 23.0048 9.22116H24.0566C24.2373 9.22116 24.3393 9.31253 24.3393 9.50378C24.3393 9.56116 24.3265 9.61853 24.318 9.68653C24.2996 9.78298 24.2726 9.87757 24.2373 9.96916L21.5109 18.739C21.445 18.9664 21.3643 19.1152 21.275 19.1832C21.1467 19.2652 20.9957 19.3047 20.8436 19.2958H19.8725C19.6579 19.2958 19.5113 19.2618 19.4199 19.1832C19.3285 19.1024 19.2499 18.9558 19.2053 18.7284L17.4521 11.412L15.7096 18.7199C15.6544 18.9473 15.5864 19.0939 15.4971 19.1725C15.4058 19.2533 15.2464 19.2873 15.0445 19.2873H14.0712V19.2852ZM28.602 19.5912C28.0152 19.5919 27.4303 19.5235 26.8595 19.3872C26.2943 19.2512 25.8544 19.1024 25.559 18.9324C25.3784 18.8304 25.2551 18.7178 25.2084 18.6137C25.1653 18.5136 25.1429 18.4059 25.1425 18.297V17.719C25.1425 17.481 25.2318 17.3663 25.4018 17.3663C25.4711 17.3664 25.5401 17.3779 25.6058 17.4003C25.6738 17.4237 25.7757 17.4683 25.8884 17.515C26.2709 17.685 26.6916 17.821 27.1315 17.9124C27.5841 18.0017 28.024 18.0484 28.4766 18.0484C29.1906 18.0484 29.7431 17.923 30.1278 17.6744C30.3125 17.5626 30.4643 17.4037 30.5677 17.2141C30.6711 17.0245 30.7224 16.8108 30.7164 16.5949C30.7202 16.4491 30.6951 16.304 30.6426 16.168C30.5901 16.032 30.5112 15.9077 30.4104 15.8023C30.2085 15.5855 29.8239 15.3922 29.2693 15.2115L27.6287 14.7015C26.8043 14.4402 26.1923 14.0534 25.8204 13.5434C25.4563 13.0722 25.2577 12.4941 25.2551 11.8987C25.2551 11.4227 25.3571 11.0019 25.559 10.6385C25.763 10.2773 26.035 9.95853 26.375 9.70778C26.715 9.44853 27.0975 9.25516 27.5501 9.11916C28.0028 8.98316 28.4766 8.92578 28.9739 8.92578C29.2246 8.92578 29.4839 8.93641 29.7325 8.97041C29.9918 9.00441 30.2298 9.05116 30.4678 9.09791C30.693 9.15316 30.9097 9.20841 31.1116 9.27853C31.3156 9.34653 31.4729 9.41453 31.5876 9.48253C31.721 9.5496 31.8373 9.64627 31.9276 9.76516C32.0004 9.8758 32.0354 10.007 32.0275 10.1392V10.6725C32.0275 10.9105 31.9382 11.0359 31.7682 11.0359C31.6177 11.0187 31.472 10.9725 31.339 10.8999C30.6556 10.597 29.9146 10.4462 29.1672 10.4579C28.5234 10.4579 28.0134 10.5599 27.6628 10.7767C27.3121 10.9892 27.1315 11.3207 27.1315 11.786C27.1315 12.1027 27.2441 12.3747 27.4715 12.5914C27.6968 12.806 28.1154 13.0207 28.7146 13.214L30.3211 13.724C31.135 13.9854 31.7236 14.3488 32.0743 14.8142C32.4249 15.2795 32.5928 15.8129 32.5928 16.4037C32.5928 16.8924 32.4929 17.3323 32.2995 17.719C32.0993 18.1071 31.8182 18.4477 31.475 18.7178C31.1244 19.0004 30.7057 19.2065 30.2191 19.3532C29.7091 19.5125 29.1779 19.5912 28.602 19.5912Z" fill="#0066FF"/>
<path fill-rule="evenodd" clip-rule="evenodd" d="M30.738 25.103C27.0192 27.8591 21.6132 29.3232 16.9659 29.3232C10.4527 29.3232 4.58348 26.9071 0.150727 22.8909C-0.199898 22.5721 0.116727 22.1407 0.533227 22.3915C5.32935 25.1816 11.2432 26.8731 17.3632 26.8731C21.4879 26.8731 26.0226 26.0104 30.1961 24.2402C30.8187 23.9576 31.35 24.6482 30.738 25.103Z" fill="#0066FF"/>
<path fill-rule="evenodd" clip-rule="evenodd" d="M32.2878 23.3328C31.8139 22.723 29.1449 23.0396 27.9358 23.1862C27.5745 23.233 27.5172 22.9142 27.8444 22.6762C29.9694 21.1781 33.465 21.6095 33.8709 22.1088C34.2789 22.6188 33.7583 26.1251 31.7672 27.8038C31.4633 28.0652 31.17 27.9313 31.306 27.5913C31.7565 26.4651 32.7638 23.9363 32.2878 23.335V23.3328Z" fill="#0066FF"/>
</svg>
