<svg width="34" height="34" viewBox="0 0 34 34" fill="none" xmlns="http://www.w3.org/2000/svg">
<path d="M6.97447 25.1494H26.3157C27.4635 25.1494 28.3901 24.2234 28.3901 23.0818V9.0234C28.3901 7.87532 27.4638 6.94893 26.3157 6.94893H19.1625C18.9597 6.94893 18.7944 7.11422 18.7944 7.31707C18.7944 7.51991 18.9597 7.68521 19.1625 7.68521H26.3157C27.0584 7.68521 27.6552 8.28272 27.6552 9.01663V23.0816C27.6552 23.8152 27.0507 24.4131 26.3157 24.4131H6.97447C6.2402 24.4131 5.64305 23.8159 5.64305 23.0816V9.0097C5.64305 8.27542 6.2402 7.67827 6.97447 7.67827H12.2087C12.4116 7.67827 12.5769 7.51297 12.5769 7.31013C12.5769 7.10729 12.4116 6.94199 12.2087 6.94199H6.97447C5.82617 6.94199 4.9 7.87537 4.9 9.01647V23.0749C4.9 24.2232 5.83337 25.1494 6.97447 25.1494Z" fill="#0066FF" stroke="#0066FF" stroke-width="0.2"/>
<path d="M7.01698 20.9899L7.01707 20.9899V20.9855V9.0396H10.0318C10.2347 9.0396 10.4 8.8743 10.4 8.67146C10.4 8.46862 10.2347 8.30332 10.0318 8.30332H6.98072C6.59299 8.30332 6.27402 8.62371 6.27402 9.01678V20.9989C6.27402 21.2017 6.43932 21.367 6.64216 21.367C6.84991 21.367 7.00818 21.1923 7.01698 20.9899ZM26.2857 20.9989C26.2857 21.2017 26.451 21.367 26.6538 21.367C26.8634 21.367 27.0287 21.1952 27.0287 20.9991V9.02354C27.0287 8.62976 26.7091 8.31008 26.3153 8.31008H21.8476C21.6447 8.31008 21.4794 8.47538 21.4794 8.67822C21.4794 8.88106 21.6447 9.04636 21.8476 9.04636H26.2857V20.9989Z" fill="#0066FF" stroke="#0066FF" stroke-width="0.2"/>
<path d="M5.27498 21.396H27.9814C28.1843 21.396 28.3496 21.2307 28.3496 21.0279C28.3496 20.8251 28.1843 20.6598 27.9814 20.6598H5.27498C5.07214 20.6598 4.90684 20.8251 4.90684 21.0279C4.90684 21.2307 5.07214 21.396 5.27498 21.396Z" fill="#0066FF" stroke="#0066FF" stroke-width="0.2"/>
<path d="M19.783 26.8054C19.783 27.0082 19.9483 27.1735 20.1511 27.1735C20.354 27.1735 20.5193 27.0082 20.5193 26.8054V24.7808C20.5193 24.578 20.354 24.4127 20.1511 24.4127C19.9483 24.4127 19.783 24.578 19.783 24.7808V26.8054ZM12.7789 26.8054C12.7789 27.0082 12.9442 27.1735 13.147 27.1735C13.3447 27.1735 13.5233 27.0127 13.5152 26.8033V24.7808C13.5152 24.578 13.3499 24.4127 13.147 24.4127C12.9442 24.4127 12.7789 24.578 12.7789 24.7808V26.8054Z" fill="#0066FF" stroke="#0066FF" stroke-width="0.2"/>
<path d="M22.4367 28.4636V28.4628V28.0673C22.4367 27.1657 21.7012 26.4303 20.7996 26.4303H12.5048C11.6032 26.4303 10.8678 27.1657 10.8678 28.0673V28.4628C10.8678 29.3644 11.6032 30.0998 12.5048 30.0998H20.7915C20.7919 30.0998 20.7923 30.0998 20.7927 30.0998C21.6938 30.0992 22.4295 29.3641 22.4367 28.4636ZM11.6108 28.066C11.6108 27.5714 12.0103 27.172 12.5048 27.172H20.7996C21.2942 27.172 21.6936 27.5714 21.6936 28.066V28.4614C21.6936 28.956 21.2942 29.3554 20.7996 29.3554H12.5048C12.0102 29.3554 11.6108 28.956 11.6108 28.4614V28.066Z" fill="#0066FF" stroke="#0066FF" stroke-width="0.2"/>
<path d="M15.2974 23.272H17.9924C18.1952 23.272 18.3605 23.1067 18.3605 22.9039C18.3605 22.701 18.1952 22.5357 17.9924 22.5357H15.2974C15.0946 22.5357 14.9293 22.701 14.9293 22.9039C14.9293 23.1067 15.0946 23.272 15.2974 23.272Z" fill="#0066FF" stroke="#0066FF" stroke-width="0.2"/>
<path d="M14.9625 29.2681H18.8072C19.01 29.2681 19.1753 29.1028 19.1753 28.9C19.1753 28.6971 19.0101 28.5318 18.8072 28.5318H14.9625C14.7596 28.5318 14.5943 28.6971 14.5943 28.9C14.5943 29.1028 14.7596 29.2681 14.9625 29.2681Z" fill="#0066FF" stroke="#0066FF" stroke-width="0.2"/>
<path d="M20.1805 12.5504C21.5616 12.5504 22.6786 11.4331 22.6856 10.0526V10.0521C22.6856 8.67766 21.5681 7.5605 20.1873 7.5605C20.0017 7.5605 19.8104 7.58154 19.6233 7.62361C19.4318 6.7756 18.6746 6.14398 17.7672 6.14398C17.7499 6.14398 17.7326 6.14492 17.7169 6.14604C17.3739 4.84491 16.1837 3.9 14.8109 3.9C13.1617 3.9 11.8115 5.25025 11.8115 6.89943C11.8115 7.127 11.8361 7.34913 11.8852 7.56718C11.8263 7.56265 11.7677 7.56051 11.707 7.56051C10.3328 7.56051 9.21543 8.67782 9.21543 10.0521C9.21543 11.426 10.3324 12.5504 11.707 12.5504H20.1779L20.1782 12.5504L20.1805 12.5504ZM20.1805 12.5504V12.4504M20.1805 12.5504L20.1808 12.5504L20.1805 12.4504M20.1805 12.4504C21.5063 12.4504 22.5789 11.3779 22.5856 10.0521L20.1805 12.4504ZM19.4481 8.45844L19.448 8.45834C19.3339 8.50543 19.2021 8.49692 19.0949 8.42866M19.4481 8.45844L17.4774 6.80718C17.4002 6.82072 17.3217 6.80718 17.2661 6.7652M19.4481 8.45844L19.4523 8.45644M19.4481 8.45844L19.4523 8.45644M19.0949 8.42866C19.0949 8.42862 19.0948 8.42858 19.0947 8.42854L19.1485 8.34423L19.0951 8.42878C19.0951 8.42874 19.095 8.4287 19.0949 8.42866ZM19.0949 8.42866C18.9907 8.36271 18.9212 8.2465 18.9212 8.11807V8.04088C18.9212 7.3974 18.4013 6.87874 17.7591 6.87874C17.6556 6.87874 17.568 6.88562 17.5044 6.90346L17.4948 6.90617L17.4947 6.90568C17.3983 6.92258 17.291 6.90794 17.2084 6.84692M17.2084 6.84692C17.2093 6.84751 17.2102 6.8481 17.2111 6.84868L17.2661 6.7652M17.2084 6.84692C17.1223 6.78897 17.0646 6.69358 17.0544 6.59399L17.2661 6.7652M17.2084 6.84692C17.2076 6.84627 17.2067 6.84562 17.2058 6.84497L17.2661 6.7652M19.4523 8.45644C19.6779 8.35068 19.9382 8.29662 20.1859 8.29662C21.1531 8.29662 21.9412 9.08469 21.9412 10.0519C21.9412 11.0192 21.1531 11.8073 20.1859 11.8073H11.707C10.7398 11.8073 9.95168 11.0192 9.95168 10.0519C9.95168 9.09853 10.7174 8.31921 11.6656 8.2971L19.4523 8.45644Z" fill="#0066FF" stroke="#0066FF" stroke-width="0.2"/>
<path d="M9.9156 15.7465H13.943C14.1387 15.7465 14.3196 15.5875 14.3113 15.3829V10.5679C14.3113 10.3651 14.146 10.1998 13.9432 10.1998C13.7403 10.1998 13.575 10.3651 13.575 10.5679V15.0102H9.9156C9.71276 15.0102 9.54746 15.1755 9.54746 15.3783C9.54746 15.5812 9.71276 15.7465 9.9156 15.7465Z" fill="#0066FF" stroke="#0066FF" stroke-width="0.2"/>
<path d="M19.3463 15.7464H23.3806C23.5916 15.7464 23.742 15.5673 23.742 15.3715C23.742 15.1687 23.5767 15.0034 23.3739 15.0034H19.7144V10.5611C19.7144 10.3583 19.5491 10.193 19.3463 10.193C19.1434 10.193 18.9781 10.3583 18.9781 10.5611V15.3783C18.9781 15.5811 19.1434 15.7464 19.3463 15.7464Z" fill="#0066FF" stroke="#0066FF" stroke-width="0.2"/>
<path d="M9.54062 15.3686L9.54059 15.3686V15.3712C9.54059 15.5773 9.37409 15.7438 9.16795 15.7438C8.95996 15.7438 8.78856 15.5755 8.78856 15.3712C8.78856 15.1641 8.95596 14.9918 9.16795 14.9918C9.38046 14.9918 9.54592 15.164 9.54062 15.3686ZM8.04551 15.3779C8.04551 15.9901 8.54835 16.4936 9.16795 16.4936C9.78709 16.4936 10.2908 15.9904 10.2836 15.3773C10.2833 14.7599 9.78864 14.2555 9.16795 14.2555C8.54945 14.2555 8.04551 14.7579 8.04551 15.3779Z" fill="#0066FF" stroke="#0066FF" stroke-width="0.2"/>
<path d="M23.0123 15.3779C23.0123 15.9892 23.5075 16.4936 24.128 16.4936C24.7461 16.4936 25.2504 15.9902 25.2504 15.3779C25.2504 14.7594 24.748 14.2555 24.128 14.2555C23.5158 14.2555 23.0123 14.7583 23.0123 15.3779ZM23.7554 15.3712C23.7554 15.1632 23.9237 14.9918 24.128 14.9918C24.3341 14.9918 24.5074 15.165 24.5074 15.3712C24.5074 15.5764 24.3418 15.7438 24.128 15.7438C23.9218 15.7438 23.7554 15.5773 23.7554 15.3712Z" fill="#0066FF" stroke="#0066FF" stroke-width="0.2"/>
<path d="M17.5465 16.944C17.5465 17.1468 17.7118 17.3121 17.9146 17.3121C18.1123 17.3121 18.2909 17.1512 18.2828 16.9419V10.5601C18.2828 10.3573 18.1175 10.192 17.9146 10.192C17.7118 10.192 17.5465 10.3573 17.5465 10.5601V16.944Z" fill="#0066FF" stroke="#0066FF" stroke-width="0.2"/>
<path d="M18.2877 17.7182L18.2877 17.7182V17.7208C18.2877 17.9288 18.1193 18.1002 17.915 18.1002C17.708 18.1002 17.5356 17.9328 17.5356 17.7208C17.5356 17.5156 17.7012 17.3482 17.915 17.3482C18.1227 17.3482 18.2929 17.5224 18.2877 17.7182ZM16.7926 17.7276C16.7926 18.3461 17.295 18.85 17.915 18.85C18.5358 18.85 19.0307 18.3467 19.0307 17.7276C19.0307 17.1163 18.5355 16.6119 17.915 16.6119C17.2974 16.6119 16.7926 17.1067 16.7926 17.7276Z" fill="#0066FF" stroke="#0066FF" stroke-width="0.2"/>
<path d="M15.0143 16.944C15.0143 17.1468 15.1796 17.3121 15.3824 17.3121C15.5852 17.3121 15.7505 17.1468 15.7505 16.944V10.5601C15.7505 10.3573 15.5852 10.192 15.3824 10.192C15.1796 10.192 15.0143 10.3573 15.0143 10.5601V16.944Z" fill="#0066FF" stroke="#0066FF" stroke-width="0.2"/>
<path d="M14.2672 17.7276C14.2672 18.3452 14.762 18.85 15.3829 18.85C16.0037 18.85 16.4986 18.3467 16.4986 17.7276C16.4986 17.1158 15.9947 16.6119 15.3829 16.6119C14.7716 16.6119 14.2672 17.1071 14.2672 17.7276ZM15.0102 17.7208C15.0102 17.5147 15.1767 17.3482 15.3829 17.3482C15.5881 17.3482 15.7555 17.5205 15.7555 17.7208C15.7555 17.9288 15.5872 18.1002 15.3829 18.1002C15.1777 18.1002 15.0102 17.9347 15.0102 17.7208Z" fill="#0066FF" stroke="#0066FF" stroke-width="0.2"/>
</svg>
