<svg width="34" height="34" viewBox="0 0 34 34" fill="none" xmlns="http://www.w3.org/2000/svg">
<path d="M6.222 29.7924C5.73671 29.7924 5.59558 29.5099 5.59558 29.0865C5.59558 28.9454 5.61336 28.7863 5.6352 28.6186C5.74144 27.8864 6.00096 27.4675 6.62738 27.4675C7.051 27.4675 7.25763 27.657 7.25763 28.0012V28.1688H7.67787C7.68259 28.1688 7.68259 28.0144 7.68259 27.9793C7.68259 27.4765 7.37805 26.9995 6.62806 26.9995C5.60886 26.9995 5.18975 27.5532 5.03534 28.6386C5.01328 28.7842 5 28.9202 5 29.0654C5 29.7051 5.25165 30.2869 6.15155 30.2869C6.83536 30.2869 7.24142 29.9536 7.47956 29.5432L7.07801 29.2729C6.81781 29.6832 6.53532 29.7924 6.222 29.7924ZM8.97955 27.7718C8.16316 27.7718 7.81044 28.1907 7.69137 29.0244C7.67787 29.1219 7.66909 29.2232 7.66909 29.3157C7.66909 29.8538 7.92051 30.282 8.61738 30.282C9.43377 30.282 9.79121 29.8451 9.91028 29.0244C9.92356 28.9186 9.93234 28.8216 9.93234 28.7246C9.93257 28.1776 9.67237 27.7718 8.97955 27.7718ZM9.31921 29.0246C9.23097 29.6292 9.04145 29.8145 8.68378 29.8145C8.39725 29.8145 8.25612 29.6954 8.25612 29.3379C8.25612 29.2497 8.26512 29.1439 8.28268 29.0246C8.37091 28.4248 8.54738 28.2395 8.9091 28.2395C9.20036 28.2395 9.34577 28.3586 9.34577 28.7203C9.34577 28.8085 9.33676 28.9101 9.31921 29.0246ZM11.9845 27.0434L11.8478 27.8533C11.8391 27.9237 11.8436 27.9003 11.8701 27.9665C11.7423 27.8695 11.5127 27.8053 11.3583 27.8053C10.6258 27.8053 10.2157 28.1369 10.0834 29.0633C10.0658 29.1736 10.0613 29.2666 10.0613 29.3591C10.0613 30.0344 10.4584 30.286 10.9921 30.286C11.2174 30.286 11.4377 30.2907 11.6097 30.1453L11.6536 30.4197H12.0772L12.5713 27.0434H11.9845ZM11.5654 29.6864C11.3671 29.8052 11.173 29.832 11.054 29.832C10.7319 29.832 10.6436 29.6643 10.6436 29.3953C10.6436 29.2938 10.6569 29.175 10.6747 29.0467C10.776 28.3453 11.0011 28.2215 11.2923 28.2215C11.4818 28.2215 11.6273 28.2526 11.7643 28.3278L11.5654 29.6864ZM13.8597 27.7718C13.0521 27.7718 12.673 28.1553 12.5449 29.0244C12.5314 29.1304 12.5227 29.2319 12.5227 29.3289C12.5227 29.9245 12.8272 30.282 13.4975 30.282C14.0181 30.282 14.4066 30.0657 14.6139 29.6686L14.1683 29.4876C14.0404 29.6817 13.8684 29.814 13.5639 29.814C13.2375 29.814 13.1052 29.7262 13.1052 29.435C13.1052 29.3776 13.1097 29.2941 13.1185 29.2941H14.711C14.7332 29.069 14.7593 28.9098 14.7593 28.7779C14.7593 28.337 14.5919 27.7718 13.8597 27.7718ZM14.164 28.8441H13.1934C13.2906 28.619 13.4536 28.2706 13.789 28.2706C14.0492 28.2706 14.1773 28.4227 14.1773 28.6829C14.177 28.7271 14.173 28.8441 14.164 28.8441ZM16.4572 27.7187L16.5101 27.2685H15.2658L15.2131 27.7187H15.5395L15.1868 29.9695H14.86L14.8073 30.4197H16.0513L16.1045 29.9695H15.7779L16.1306 27.7187H16.4572ZM18.9854 28.3939L19.1443 27.9438H18.7164L18.4078 28.0075C18.2356 27.8974 18.0017 27.8148 17.7814 27.8148C17.1502 27.8148 16.6123 28.1195 16.6123 28.8124C16.6123 29.0066 16.6827 29.1635 16.7665 29.2695C16.6343 29.34 16.5195 29.4579 16.5195 29.6171C16.5195 29.6875 16.5459 29.7598 16.599 29.8257C16.3341 29.9848 16.1713 30.2484 16.1713 30.557C16.1713 31.1528 16.7932 31.28 17.2697 31.28C17.8696 31.28 18.5845 31.1429 18.5845 30.3796C18.5845 30.1194 18.4213 29.9162 17.9493 29.828L17.0978 29.6688C17.0008 29.651 16.9787 29.6202 16.9787 29.5761C16.9787 29.5099 17.0188 29.4748 17.0847 29.4748L17.1421 29.4836C17.2569 29.5099 17.3893 29.5234 17.5259 29.5234C18.1393 29.5234 18.6862 29.2585 18.6862 28.5704C18.6862 28.4732 18.6687 28.4074 18.6245 28.3014C18.6995 28.3368 18.7967 28.3942 18.8361 28.3942H18.9854V28.3939ZM17.7724 30.2201C17.9398 30.2511 17.997 30.3128 17.997 30.4231C17.997 30.7805 17.6132 30.8246 17.3355 30.8246C16.9119 30.8246 16.7532 30.7234 16.7532 30.498C16.7532 30.2995 16.8103 30.207 16.9429 30.0657L17.7724 30.2201ZM17.5912 29.0645C17.3352 29.0645 17.1941 28.972 17.1941 28.7511C17.1941 28.4248 17.3839 28.235 17.7147 28.235C17.9794 28.235 18.1075 28.3453 18.1075 28.5612C18.1075 28.8878 17.9221 29.0645 17.5912 29.0645ZM20.5526 27.7718C20.3055 27.7718 20.0851 27.8931 19.8114 28.109L19.7718 27.9438H19.2863L18.9466 30.4197H19.5335L19.7894 28.542C19.9616 28.4362 20.1732 28.2825 20.3541 28.2825C20.5745 28.2825 20.6542 28.389 20.6542 28.5918C20.6542 28.6404 20.6494 28.7842 20.6407 28.8371L20.4248 30.4197H21.0116L21.2275 28.8243C21.2365 28.7496 21.2452 28.6267 21.2452 28.5562C21.2455 28.1367 21.0467 27.7718 20.5526 27.7718ZM22.3599 29.7994L22.3644 29.7388L22.6201 27.9438H21.645L21.5836 28.3939H22.0112C21.9759 28.3939 21.9538 28.4333 21.9495 28.4689L21.7731 29.6643C21.7643 29.7219 21.76 29.8417 21.76 29.8899C21.76 30.1987 21.9275 30.4197 22.2714 30.4197H22.5715L22.6376 29.9695H22.4481C22.3817 29.9695 22.3599 29.8523 22.3599 29.7994ZM22.7392 27.0434H22.1656C22.1303 27.0434 22.1303 26.9135 22.126 26.9576L22.0463 27.5919C22.0418 27.6318 22.0418 27.7187 22.0772 27.7187H22.6509C22.6863 27.7187 22.6863 27.5645 22.6905 27.5244L22.7702 27.0348C22.7747 26.9907 22.7747 27.0434 22.7392 27.0434ZM23.9357 29.8145C23.7903 29.8145 23.7196 29.7526 23.7196 29.6204L23.7241 29.6114L23.9094 28.3939H24.5799L24.7827 27.9438H23.9711L24.1077 26.9531L23.4903 27.1505L23.3797 27.9438H23.0225L22.9609 28.3939H23.3755C23.3359 28.619 23.296 28.4729 23.2917 28.5173L23.1328 29.5849C23.1241 29.6335 23.124 29.6688 23.124 29.7127C23.124 30.1318 23.4329 30.2887 23.8038 30.2887C24.1477 30.2887 24.4257 30.1883 24.642 30.0071L24.3683 29.6704C24.2313 29.7541 24.1387 29.8145 23.9357 29.8145ZM26.0887 27.7718C25.2813 27.7718 24.902 28.1553 24.7739 29.0244C24.7607 29.1304 24.7519 29.2319 24.7519 29.3289C24.7519 29.9245 25.0562 30.282 25.7267 30.282C26.2474 30.282 26.6359 30.0657 26.8429 29.6686L26.3975 29.4876C26.2696 29.6817 26.0975 29.814 25.7929 29.814C25.4668 29.814 25.3342 29.7262 25.3342 29.435C25.3342 29.3776 25.3389 29.2941 25.3477 29.2941H26.9402C26.9622 29.069 26.9888 28.9098 26.9888 28.7779C26.9888 28.337 26.8211 27.7718 26.0887 27.7718ZM26.3932 28.8441H25.4226C25.5197 28.619 25.6826 28.2706 26.0182 28.2706C26.2784 28.2706 26.4065 28.4227 26.4065 28.6829C26.4063 28.7271 26.402 28.8441 26.3932 28.8441ZM28.6124 27.7718C28.4006 27.7718 28.202 27.8931 28.0035 28.0824L27.9682 27.9438H27.4831L27.1432 30.4197H27.7345L27.9947 28.5024C28.1491 28.4099 28.3256 28.3309 28.4933 28.3309C28.5993 28.3309 28.7006 28.314 28.7976 28.3273L28.873 27.8157C28.7843 27.7981 28.6961 27.7718 28.6124 27.7718ZM13.6299 25.2699C12.2944 24.6928 11.0447 23.2257 11.0418 21.7246C11.0382 20.088 12.0754 18.6985 13.3654 17.7853C13.2103 18.3712 13.1257 18.9072 13.5099 19.4312C13.8671 19.9185 14.4926 20.1553 15.0832 20.0267C16.4635 19.7247 16.5267 18.2074 15.7085 17.3234C14.8996 16.4481 14.1169 15.4593 14.4249 14.1898C14.5791 13.5535 14.9698 12.9574 15.4648 12.5313C15.0844 13.5312 16.1655 14.5173 16.8779 15.0084C18.1136 15.8606 19.4693 16.5046 20.6055 17.5035C21.8008 18.5533 22.6833 19.973 22.5051 21.6192C22.3119 23.4037 20.8939 24.6449 19.3034 25.2715C22.6644 24.5296 26.1373 21.9211 26.2084 18.1934C26.2674 15.1268 24.1637 12.7668 21.5577 11.4156L21.4215 11.3413C21.4931 11.5148 21.5165 11.6625 21.5138 11.7946C21.5372 11.6972 21.5529 11.597 21.5574 11.4937C21.5563 11.6222 21.5399 11.7435 21.5097 11.8574L21.5138 11.7946C21.4746 11.9601 21.4089 12.1138 21.3209 12.2545L21.3591 12.2133C20.8392 13.0756 19.4317 13.2629 18.7364 12.3699C17.6186 10.9337 18.7598 9.38506 18.9194 7.86414C19.1193 5.95788 17.9239 4.10743 16.4417 3C17.258 4.32059 16.1826 6.06772 15.3221 7.04437C14.4877 7.99132 13.473 8.78182 12.5519 9.64211C11.5624 10.5661 10.6112 11.5394 9.79797 12.6238C8.17148 14.7944 7.1757 17.5242 7.90746 20.2323C8.63877 22.9383 10.9828 24.6608 13.6299 25.2699Z" fill="#0066FF"/>
</svg>
