<svg width="34" height="34" viewBox="0 0 34 34" fill="none" xmlns="http://www.w3.org/2000/svg">
<path d="M14.3222 7.75159H14.3219L6.16247 7.75156C4.91933 7.75156 3.9 8.76984 3.9 10.014V24.5397C3.9 25.1625 4.15459 25.7282 4.56541 26.138C4.97509 26.5476 5.54075 26.8022 6.16247 26.8022H27.8362C29.0794 26.8022 30.0987 25.7839 30.0987 24.5397V10.014H30.099L30.0985 10.0069C30.0968 9.98363 30.0958 9.95768 30.0947 9.92855L30.0945 9.92261C30.0935 9.89565 30.0924 9.86639 30.0907 9.83679C30.087 9.77386 30.0801 9.70339 30.0622 9.63816C30.0444 9.57339 30.0132 9.50393 29.9537 9.45331C29.8913 9.40021 29.8106 9.37855 29.7167 9.38717L29.7166 9.38666L29.7066 9.38861C29.6204 9.40546 29.5528 9.4442 29.5087 9.50672C29.4666 9.56638 29.4549 9.63522 29.4528 9.69492C29.4508 9.75193 29.4574 9.81205 29.463 9.86302L29.4637 9.86942C29.4699 9.92557 29.4744 9.9704 29.4721 10.0081L29.4719 10.0081V10.014L29.473 24.5408C29.473 25.4416 28.7381 26.1765 27.8373 26.1765H6.16348C5.7132 26.1765 5.30435 25.993 5.00729 25.6959C4.71022 25.3989 4.52674 24.99 4.52674 24.5397V10.0141C4.52674 9.11321 5.26161 8.37834 6.16246 8.37834H14.3219C14.419 8.37834 14.4987 8.3398 14.5529 8.27735C14.6054 8.2169 14.6294 8.1395 14.6296 8.06559C14.6298 7.99167 14.6061 7.91407 14.5536 7.85334C14.4995 7.7906 14.4196 7.75195 14.3222 7.75159Z" fill="#0066FF" stroke="#0066FF" stroke-width="0.2"/>
<path d="M4.5563 24.8529H4.45452C4.60367 25.6653 5.31775 26.2762 6.16257 26.2753H27.8363C28.6812 26.2763 29.3943 25.6653 29.5443 24.8529H29.4425M4.5563 24.8529C4.70407 25.6094 5.3729 26.1762 6.16245 26.1753L6.16257 26.1753H27.8363H27.8365C28.6259 26.1762 29.2939 25.6096 29.4425 24.8529M4.5563 24.8529H29.4425M4.5563 24.8529C4.54986 24.8199 4.54441 24.7866 4.53998 24.7529H29.4589C29.4544 24.7866 29.449 24.8199 29.4425 24.8529M29.7853 24.2262H4.21332C4.03978 24.2262 3.9 24.3677 3.9 24.5395C3.9 25.7837 4.91831 26.802 6.16247 26.802H27.8362C29.0794 26.802 30.0987 25.7837 30.0987 24.5395C30.0987 24.3663 29.9585 24.2262 29.7853 24.2262Z" fill="#0066FF" stroke="#0066FF" stroke-width="0.2"/>
<path d="M9.99672 30.0981C9.89967 30.0993 9.82002 30.0606 9.76599 29.998C9.71371 29.9375 9.6896 29.8598 9.68907 29.7858C9.68854 29.7118 9.71156 29.6335 9.76398 29.5722C9.81823 29.5089 9.89857 29.4704 9.99655 29.4713L9.99604 29.4713L9.99603 29.5713L9.99714 29.4713L24.0307 29.4723L24.0314 29.4723L24.0314 29.5723L9.99672 30.0981ZM9.99672 30.0981L24.0303 30.0991C24.0305 30.0991 24.0307 30.0991 24.0309 30.0991L24.0314 30.0991L9.99672 30.0981Z" fill="#0066FF" stroke="#0066FF" stroke-width="0.2"/>
<path d="M13.7571 26.1764V26.1764H20.2434C20.3958 26.1764 20.5212 26.2845 20.5501 26.4278L21.4629 29.7031C21.463 29.7031 21.463 29.7032 21.463 29.7032L21.463 29.7034L21.3667 29.7303C21.4047 29.8647 21.3 29.999 21.1615 29.999L13.7571 26.1764ZM13.7571 26.1764L13.756 26.1764C13.6202 26.1779 13.494 26.2673 13.4547 26.4061L13.4546 26.4065L12.5418 29.6804L13.7571 26.1764ZM13.2496 29.4725L13.994 26.8021H20.0055L20.7507 29.4725H13.2496Z" fill="#0066FF" stroke="#0066FF" stroke-width="0.2"/>
<path d="M13.272 9.90207L13.2713 9.90207L13.0592 9.90207H13.0579V9.80207C12.9215 9.80617 12.9174 9.58972 13.0579 9.5887L13.272 9.90207ZM13.272 9.90207C13.3353 9.90161 13.3894 9.87573 13.4261 9.83234C13.461 9.79108 13.4756 9.73976 13.4752 9.69251C13.4747 9.64532 13.4592 9.5944 13.4237 9.55408C13.3866 9.5119 13.3325 9.48729 13.27 9.4887M13.272 9.90207L13.27 9.4887M13.27 9.4887H13.2713V9.5887L13.2683 9.48874C13.2689 9.48873 13.2695 9.48871 13.27 9.4887ZM11.9939 9.90207L11.9931 9.90207L11.781 9.90207H11.7798V9.80207C11.6443 9.80617 11.6392 9.58972 11.7798 9.5887L11.9939 9.90207ZM11.9939 9.90207C12.0571 9.90161 12.1112 9.87573 12.1479 9.83234C12.1828 9.79108 12.1974 9.73976 12.197 9.69251C12.1965 9.64532 12.181 9.5944 12.1455 9.55408C12.1084 9.5119 12.0543 9.48729 11.9918 9.4887M11.9939 9.90207L11.9918 9.4887M11.9918 9.4887H11.9931V9.5887L11.9901 9.48874C11.9907 9.48873 11.9913 9.48871 11.9918 9.4887ZM10.7146 9.90207L10.7139 9.90207L10.5018 9.90207H10.5005V9.80207C10.3651 9.80617 10.36 9.58972 10.5005 9.5887L10.7146 9.90207ZM10.7146 9.90207C10.7779 9.90161 10.832 9.8757 10.8687 9.83216C10.9036 9.7908 10.9179 9.73943 10.9174 9.69227C10.9168 9.64518 10.9013 9.59441 10.8659 9.55418C10.829 9.51209 10.7751 9.48729 10.7126 9.4887M10.7146 9.90207L10.7126 9.4887M10.7126 9.4887H10.7139V9.5887L10.7109 9.48874C10.7115 9.48873 10.712 9.48871 10.7126 9.4887ZM9.43542 9.90207L9.43469 9.90207L9.22261 9.90207H9.22132V9.80207C9.08591 9.80617 9.08078 9.58972 9.22132 9.5887L9.43542 9.90207ZM9.43542 9.90207C9.4987 9.90161 9.5528 9.8757 9.58949 9.83216C9.62435 9.7908 9.63873 9.73943 9.63816 9.69227C9.6376 9.64518 9.62205 9.59441 9.58672 9.55418C9.54976 9.51209 9.49589 9.48729 9.4334 9.4887M9.43542 9.90207L9.4334 9.4887M9.4334 9.4887H9.43469V9.5887L9.43166 9.48874C9.43224 9.48873 9.43282 9.48871 9.4334 9.4887ZM8.15723 9.90207L8.1565 9.90207L7.94441 9.90207H7.94312V9.80207C7.80669 9.80617 7.80258 9.58972 7.94312 9.5887L8.15723 9.90207ZM8.15723 9.90207C8.22049 9.90161 8.27456 9.87573 8.3113 9.83234C8.34622 9.79108 8.36081 9.73976 8.36036 9.69251C8.35991 9.64532 8.34438 9.5944 8.30887 9.55408C8.27173 9.5119 8.2177 9.48729 8.15521 9.4887M8.15723 9.90207L8.15521 9.4887M8.15521 9.4887H8.1565V9.5887L8.15349 9.48874C8.15406 9.48873 8.15464 9.48871 8.15521 9.4887ZM6.87801 9.90207L6.87728 9.90207L6.66519 9.90207H6.66391V9.80207C6.52747 9.80617 6.52337 9.58972 6.66391 9.5887L6.87801 9.90207ZM6.87801 9.90207C6.94127 9.90161 6.99535 9.87573 7.03208 9.83234C7.067 9.79108 7.08159 9.73976 7.08114 9.69251C7.08069 9.64532 7.06516 9.5944 7.02965 9.55408C6.99251 9.5119 6.93849 9.48729 6.87599 9.4887M6.87801 9.90207L6.87599 9.4887M6.87599 9.4887H6.87728V9.5887L6.87427 9.48874C6.87485 9.48873 6.87542 9.48871 6.87599 9.4887ZM5.59909 9.90207V9.90207H5.387H5.38571V9.80207L5.59909 9.90207ZM5.59909 9.90207L5.59982 9.90207M5.59909 9.90207L5.59982 9.90207M5.59982 9.90207C5.66308 9.90161 5.71715 9.87573 5.75388 9.83234M5.59982 9.90207L5.75388 9.83234M4.20463 9.48889C4.14476 9.49136 4.09364 9.51686 4.05845 9.55843C4.02352 9.59969 4.00893 9.65101 4.00939 9.69826C4.00984 9.74545 4.02536 9.79637 4.06087 9.83669C4.09835 9.87926 4.15303 9.90393 4.21625 9.90203L4.21325 9.80207M4.20463 9.48889L4.21325 9.5887C4.07271 9.58972 4.07681 9.80617 4.21325 9.80207M4.20463 9.48889C4.26884 9.48001 4.35538 9.48437 4.42376 9.5217C4.46158 9.54235 4.5002 9.57696 4.51775 9.63059C4.53505 9.68347 4.52636 9.73799 4.50423 9.78801M4.20463 9.48889L4.50423 9.78801M4.21325 9.80207C4.22217 9.80192 4.23239 9.80212 4.2434 9.80233C4.30446 9.80354 4.38966 9.80523 4.41226 9.74873M4.21325 9.80207L4.215 9.90206C4.21821 9.902 4.22379 9.90211 4.23103 9.90225C4.25631 9.90275 4.30181 9.90364 4.33704 9.89925C4.38139 9.89373 4.46834 9.87454 4.50423 9.78801M4.41226 9.74873L4.50347 9.78971C4.50373 9.78914 4.50398 9.78858 4.50423 9.78801M4.41226 9.74873L4.50511 9.78587C4.50482 9.78659 4.50453 9.7873 4.50423 9.78801M4.41226 9.74873L4.50423 9.78801M5.75388 9.83234C5.78881 9.79108 5.8034 9.73976 5.80295 9.69251M5.75388 9.83234L5.80295 9.69251M5.80295 9.69251C5.8025 9.64532 5.78697 9.5944 5.75146 9.55408M5.80295 9.69251L5.75146 9.55408M5.75146 9.55408C5.71432 9.5119 5.66029 9.48729 5.5978 9.4887M5.75146 9.55408L5.5978 9.4887M5.5978 9.4887H5.59909V9.5887L5.59608 9.48874L5.5978 9.4887Z" fill="#0066FF" stroke="#0066FF" stroke-width="0.2"/>
<path d="M19.8925 17.8155H17.1227H17.1223V17.7155L19.8925 17.8155ZM19.8925 17.8155C19.99 17.8168 20.0701 17.7782 20.1243 17.7153C20.1767 17.6544 20.2004 17.5764 20.2005 17.5023C20.2006 17.4282 20.1771 17.3501 20.1246 17.2891C20.0703 17.226 19.9902 17.1876 19.8925 17.1888M19.8925 17.8155L19.8931 17.1888H19.8925M19.8925 17.1888H17.123H19.8925ZM29.9145 17.2151L29.9147 17.2147L29.9976 16.5655H30.0976V16.5655V5.14893C30.0976 4.80589 29.9556 4.49375 29.73 4.26697L29.7298 4.26681C29.5038 4.04076 29.1915 3.9 28.8487 3.9H15.2574C14.5724 3.9 14.0085 4.46277 14.0084 5.14892C14.0084 5.14893 14.0084 5.14893 14.0084 5.14893L14.0074 13.6531C14.0074 13.8264 14.1476 13.9665 14.3208 13.9665C14.494 13.9665 14.6342 13.8264 14.6342 13.6532V5.14999C14.6342 4.97851 14.7039 4.82224 14.8169 4.71011L14.8169 4.71011L14.8172 4.70983C14.9307 4.59639 15.0861 4.52678 15.2574 4.52678H15.2574L28.8487 4.52575C29.0198 4.52575 29.1764 4.59632 29.2888 4.70881C29.4023 4.82225 29.4719 4.9777 29.4719 5.14896V16.5656C29.4719 16.6838 29.4405 16.7902 29.3808 16.8891C29.3302 16.9721 29.3213 17.0601 29.3465 17.1389C29.371 17.2152 29.4249 17.2755 29.488 17.3136C29.5511 17.3517 29.6295 17.3713 29.7081 17.3582C29.7893 17.3447 29.8638 17.2974 29.9145 17.2151Z" fill="#0066FF" stroke="#0066FF" stroke-width="0.2"/>
<path d="M29.4651 6.34047H14.6401C14.6439 6.21298 14.6378 6.06844 14.6315 5.92161C14.6306 5.89967 14.6296 5.87768 14.6287 5.85569C14.6197 5.6383 14.6134 5.41569 14.6356 5.21373C14.6579 5.01068 14.708 4.84162 14.8017 4.72329C14.8914 4.6102 15.03 4.53205 15.2586 4.52675H28.8477C29.0764 4.53158 29.2148 4.60954 29.3043 4.72255C29.398 4.84083 29.4479 5.01 29.4701 5.21328C29.4922 5.41544 29.4857 5.63829 29.4766 5.85579C29.4757 5.87762 29.4748 5.89944 29.4739 5.92122C29.4675 6.06824 29.4613 6.21295 29.4651 6.34047ZM14.3218 6.96722H29.7853C29.9581 6.96722 30.0976 6.82537 30.0976 6.65384V5.14893C30.0976 4.46283 29.5347 3.9 28.8486 3.9H15.2573C14.5723 3.9 14.0084 4.46277 14.0084 5.14893V6.65384C14.0084 6.82704 14.1486 6.96722 14.3218 6.96722Z" fill="#0066FF" stroke="#0066FF" stroke-width="0.2"/>
<path d="M18.5683 14.0354L18.5683 14.0354L18.5651 14.0374C18.4112 14.1342 18.2199 14.1224 18.0646 14.0329C17.9095 13.9434 17.8043 13.7844 17.8125 13.6022L17.8126 13.6022V13.5977V10.0669H17.8127L17.8126 10.0632C17.8025 9.79334 18.0463 9.55871 18.3165 9.55957L18.3603 9.55971C18.3792 9.56581 18.405 9.57559 18.438 9.58972C18.5276 9.62806 18.6545 9.69124 18.808 9.77271C19.1144 9.93521 19.5182 10.1657 19.9252 10.4026C20.2447 10.5886 20.5652 10.778 20.841 10.941C20.9163 10.9855 20.9882 11.028 21.0558 11.0679C21.2134 11.1609 21.3481 11.2401 21.4476 11.2974C21.4972 11.326 21.5387 11.3494 21.57 11.3665C21.5922 11.3787 21.6163 11.3916 21.6347 11.3992C21.7928 11.4843 21.8768 11.6545 21.8769 11.8328C21.877 12.0128 21.7917 12.1841 21.6304 12.2678L21.6303 12.2677L21.6265 12.2699L18.5683 14.0354ZM17.7457 14.5675C18.0763 14.762 18.5059 14.8034 18.8684 14.5824L21.9372 12.8113C22.3148 12.6097 22.4996 12.2169 22.4995 11.8315C22.4994 11.4462 22.3145 11.0536 21.9363 10.8525L18.8824 9.0889C18.52 8.86102 18.087 8.89884 17.753 9.09222C17.419 9.28557 17.1702 9.64244 17.1848 10.0688V13.595C17.1702 14.0179 17.4153 14.3732 17.7457 14.5675Z" fill="#0066FF" stroke="#0066FF" stroke-width="0.2"/>
<path d="M20.9681 24.8535H20.9682H29.7842C29.9574 24.8535 30.0976 24.7133 30.0976 24.5401V17.5766C30.0976 16.8115 29.4721 16.1861 28.7071 16.1861H20.9681C20.2029 16.1861 19.5777 16.8117 19.5777 17.5767V23.463C19.5777 24.2283 20.2043 24.8524 20.9681 24.8535ZM20.9681 16.8129H28.7071C29.1279 16.8129 29.4718 17.157 29.4718 17.5766C29.4718 17.5766 29.4718 17.5766 29.4718 17.5767L29.4708 24.2277H20.9681C20.7578 24.2277 20.5665 24.1416 20.4284 24.0036C20.2904 23.8656 20.2043 23.6732 20.2043 23.4639V17.5766C20.2043 17.1569 20.5484 16.8129 20.9681 16.8129Z" fill="#0066FF" stroke="#0066FF" stroke-width="0.2"/>
<path d="M19.8453 23.9318L19.8353 23.9459L19.8307 23.9625C19.7896 24.1091 19.8229 24.2439 19.8973 24.3574C19.9699 24.4683 20.0815 24.5595 20.2029 24.6312C20.4443 24.7738 20.7542 24.8565 20.969 24.8538C20.9692 24.8538 20.9695 24.8538 20.9697 24.8538L29.7843 24.8528C29.9565 24.8528 30.0967 24.7126 30.0967 24.5405L30.0967 24.5402L30.0946 23.5185L30.0946 23.4959L30.0848 23.4756C29.7566 22.7895 29.2755 22.1806 28.8029 21.5824C28.7297 21.4898 28.6568 21.3975 28.5847 21.3053C28.0474 20.5274 26.876 20.5171 26.3277 21.2876C26.3005 21.3167 26.2654 21.3617 26.2294 21.4086C26.219 21.4221 26.2083 21.436 26.1974 21.4503C26.166 21.4914 26.1326 21.5351 26.0984 21.5781C26.0523 21.6361 26.007 21.6903 25.9665 21.732C25.9462 21.7528 25.9285 21.7692 25.9136 21.781C25.9062 21.7868 25.9002 21.791 25.8955 21.7938C25.8916 21.7962 25.8894 21.7972 25.8888 21.7974C25.7764 21.8349 25.6766 21.8131 25.5754 21.7456C25.4695 21.6748 25.3671 21.5567 25.263 21.4116C25.1991 21.3225 25.1392 21.2302 25.0786 21.1369C25.0393 21.0764 24.9997 21.0154 24.9586 20.9546C24.8601 20.809 24.7547 20.6676 24.6387 20.5733C24.1248 20.0116 23.6113 19.8429 23.1133 19.959C22.6258 20.0726 22.1787 20.4545 21.7784 20.9298C21.376 21.4076 21.0086 21.9951 20.6845 22.543C20.5973 22.6905 20.5133 22.8348 20.4328 22.9733C20.2118 23.3531 20.0161 23.6896 19.8453 23.9318ZM27.4459 21.3279L27.4459 21.3279H27.4495C27.579 21.3279 27.6909 21.3632 27.7951 21.422C28.3539 21.8963 28.7736 22.5414 29.1869 23.1766C29.2814 23.3219 29.3756 23.4666 29.471 23.6087L29.4718 24.226H20.9682C20.7884 24.226 20.6243 24.1661 20.4906 24.0579C20.7714 23.5628 21.0709 23.0737 21.3935 22.5932C21.4409 22.5245 21.4874 22.4569 21.5331 22.3905C21.8269 21.9634 22.0863 21.5863 22.3319 21.2844C22.6173 20.9335 22.872 20.6999 23.1236 20.6048C23.3639 20.514 23.6163 20.5444 23.9191 20.7638C24.2276 20.9872 24.5803 21.4018 25.0037 22.0654L25.0037 22.0655L25.005 22.0675C25.3383 22.5627 26.1219 22.5825 26.4769 22.0978C26.5237 22.0415 26.5691 21.9834 26.6145 21.925C26.7092 21.8036 26.8044 21.6815 26.9145 21.5746C27.0739 21.42 27.2434 21.3206 27.4459 21.3279Z" fill="#0066FF" stroke="#0066FF" stroke-width="0.2"/>
<path d="M26.001 17.233L26.001 17.233L25.9975 17.233C23.9762 17.2681 23.9724 20.2764 25.9975 20.3115L25.9975 20.3116L26.0009 20.3115C28.0232 20.2764 28.0229 17.2692 26.001 17.233ZM25.3533 19.418C24.5209 18.5555 25.7823 17.2938 26.645 18.1264C26.858 18.3414 26.9323 18.5787 26.9171 18.8C26.9017 19.0241 26.794 19.2395 26.63 19.4035C26.4661 19.5675 26.2508 19.6752 26.0268 19.6906C25.8056 19.7057 25.5684 19.6314 25.3533 19.418Z" fill="#0066FF" stroke="#0066FF" stroke-width="0.2"/>
<path d="M24.2491 9.46623C24.1516 9.46746 24.0715 9.42904 24.0173 9.36619C23.9648 9.3054 23.9411 9.22742 23.941 9.15336C23.9409 9.0793 23.9645 9.00123 24.0169 8.94026C24.0711 8.87719 24.1512 8.83856 24.2489 8.83948H27.2063M24.2491 9.46623H24.2484V9.36623L24.2499 9.46622C24.2496 9.46622 24.2493 9.46623 24.2491 9.46623ZM24.2491 9.46623H27.2063M27.2063 9.46623H27.207V9.36623L27.2055 9.46622C27.2058 9.46622 27.206 9.46623 27.2063 9.46623ZM27.2063 9.46623C27.304 9.46746 27.3842 9.42899 27.4384 9.36593C27.4909 9.30496 27.5144 9.22682 27.5143 9.15273C27.5142 9.07865 27.4905 9.00061 27.4381 8.93974C27.3839 8.8768 27.3038 8.83825 27.2063 8.83948M27.2063 8.83948H27.207V8.93948L27.2055 8.83949C27.2058 8.83949 27.206 8.83949 27.2063 8.83948Z" fill="#0066FF" stroke="#0066FF" stroke-width="0.2"/>
<path d="M24.2491 14.8246C24.1516 14.8259 24.0715 14.7874 24.0173 14.7246C23.9648 14.6638 23.9411 14.5858 23.941 14.5118C23.9409 14.4377 23.9645 14.3596 24.0169 14.2987C24.0711 14.2356 24.1512 14.197 24.2489 14.1979H24.8939M24.2491 14.8246H24.2484V14.7246L24.2499 14.8246C24.2496 14.8246 24.2493 14.8246 24.2491 14.8246ZM24.2491 14.8246H24.8941M24.8941 14.8246H24.8946V14.7246L24.8935 14.8246C24.8937 14.8246 24.8939 14.8246 24.8941 14.8246ZM24.8941 14.8246C24.9918 14.8256 25.0719 14.7869 25.1261 14.7239C25.1785 14.6629 25.2021 14.5848 25.202 14.5107C25.2019 14.4367 25.1782 14.3587 25.1257 14.2979C25.0715 14.2351 24.9914 14.1966 24.8939 14.1979M24.8939 14.1979H24.8946V14.2979L24.8931 14.1979C24.8934 14.1979 24.8937 14.1979 24.8939 14.1979ZM25.8986 14.8246C25.8011 14.8259 25.7211 14.7874 25.6668 14.7246C25.6144 14.6638 25.5906 14.5858 25.5905 14.5118C25.5905 14.4377 25.614 14.3596 25.6664 14.2987C25.7206 14.2356 25.8007 14.197 25.8984 14.1979H27.2069C27.3801 14.1979 27.5202 14.3381 27.5202 14.5113C27.5202 14.6845 27.3801 14.8246 27.2069 14.8246H25.8986ZM25.8986 14.8246H25.8979V14.7246L25.8994 14.8246C25.8991 14.8246 25.8988 14.8246 25.8986 14.8246Z" fill="#0066FF" stroke="#0066FF" stroke-width="0.2"/>
<path d="M24.249 10.6256C24.1514 10.6244 24.0712 10.6629 24.0169 10.7259C23.9644 10.7869 23.9409 10.865 23.941 10.9391C23.9411 11.0132 23.9648 11.0912 24.0172 11.1521C24.0714 11.215 24.1515 11.2536 24.2491 11.2524M24.249 10.6256L24.2491 11.2524M24.249 10.6256H25.6425C25.8157 10.6256 25.9558 10.7658 25.9558 10.939C25.9558 11.1108 25.816 11.2524 25.6425 11.2524H24.2491M24.249 10.6256L24.2491 11.2524M24.2491 11.2524H24.2484V11.1524L24.2499 11.2524C24.2496 11.2524 24.2493 11.2524 24.2491 11.2524ZM26.7839 11.2524C26.6862 11.2536 26.606 11.2151 26.5517 11.1522C26.4991 11.0912 26.4755 11.0131 26.4755 10.939C26.4755 10.8649 26.4991 10.7867 26.5517 10.7258C26.606 10.6628 26.6862 10.6244 26.7839 10.6256H27.2052M26.7839 11.2524H26.7832V11.1524L26.7847 11.2524C26.7844 11.2524 26.7841 11.2524 26.7839 11.2524ZM26.7839 11.2524H27.2052M27.2052 11.2524H27.2058V11.1524L27.2044 11.2524C27.2046 11.2524 27.2049 11.2524 27.2052 11.2524ZM27.2052 11.2524C27.3028 11.2536 27.383 11.2151 27.4373 11.1521C27.4898 11.0911 27.5133 11.0129 27.5132 10.9389C27.5131 10.8648 27.4894 10.7867 27.437 10.7259C27.3828 10.6629 27.3027 10.6244 27.2052 10.6256M27.2052 10.6256H27.2058V10.7256L27.2044 10.6256C27.2046 10.6256 27.2049 10.6256 27.2052 10.6256Z" fill="#0066FF" stroke="#0066FF" stroke-width="0.2"/>
<path d="M24.2491 13.0385C24.1516 13.0397 24.0715 13.0013 24.0173 12.9385C23.9648 12.8777 23.9411 12.7997 23.941 12.7256C23.9409 12.6516 23.9645 12.5735 24.0169 12.5125C24.0711 12.4495 24.1512 12.4108 24.2489 12.4117H27.2063M24.2491 13.0385H24.2484V12.9385L24.2499 13.0385C24.2496 13.0385 24.2493 13.0385 24.2491 13.0385ZM24.2491 13.0385H27.2065M27.2065 13.0385H27.207V12.9385L27.2059 13.0385C27.2061 13.0385 27.2063 13.0385 27.2065 13.0385ZM27.2065 13.0385C27.3041 13.0394 27.3843 13.0008 27.4385 12.9377C27.4909 12.8768 27.5144 12.7987 27.5143 12.7246C27.5142 12.6506 27.4905 12.5726 27.438 12.5118C27.3838 12.4489 27.3037 12.4105 27.2063 12.4117M27.2063 12.4117H27.207V12.5117L27.2055 12.4118C27.2058 12.4118 27.206 12.4118 27.2063 12.4117Z" fill="#0066FF" stroke="#0066FF" stroke-width="0.2"/>
<mask id="path-16-outside-1_4941_1727" maskUnits="userSpaceOnUse" x="5.4209" y="11.041" width="13" height="13" fill="black">
<rect fill="white" x="5.4209" y="11.041" width="13" height="13"/>
<path fill-rule="evenodd" clip-rule="evenodd" d="M13.2968 13.6513C13.4107 13.7016 13.6661 13.8298 13.7903 13.8042C14.1565 13.6605 14.4201 13.042 14.8807 13.0953C15.3095 13.0358 15.7886 13.7508 16.0727 13.9827C16.5887 14.5325 16.0912 15.0547 15.6583 15.4383C15.4654 15.6302 15.6665 15.8835 15.7322 16.0867C15.7804 16.2159 15.8871 16.2898 16.0245 16.2908C16.3425 16.3011 16.8924 16.22 17.1181 16.5073C17.4638 16.7689 17.2966 17.6121 17.3345 17.9763C17.3345 18.1784 17.2514 18.363 17.1181 18.4964C16.8196 18.8688 16.1969 18.599 15.8337 18.7744C15.7424 18.8441 15.6501 19.117 15.604 19.2237C15.5475 19.3458 15.5701 19.4781 15.6665 19.5745C15.8799 19.8033 16.3323 20.1428 16.2872 20.5008C16.3467 20.9296 15.6317 21.4077 15.4008 21.6918C14.852 22.2078 14.3268 21.7124 13.9452 21.2774C13.7708 21.0887 13.4815 21.2836 13.2958 21.3513C13.1676 21.3995 13.0927 21.5062 13.0927 21.6436C13.1276 22.2181 13.1081 22.928 12.3551 22.9536C11.9879 22.9054 11.1508 23.088 10.8872 22.7372C10.5999 22.5094 10.6789 21.9668 10.6697 21.6436C10.6687 21.5082 10.5938 21.3985 10.4666 21.3513C10.2788 21.2754 9.98134 21.0876 9.80799 21.2866C9.57615 21.5041 9.24379 21.9503 8.88167 21.9073C8.45185 21.9668 7.97484 21.2528 7.69066 21.0209C7.17468 20.4721 7.67015 19.9469 8.1051 19.5653C8.19332 19.4699 8.21281 19.3406 8.15844 19.2227C8.11433 19.1067 8.022 18.8349 7.9184 18.7661C7.55833 18.6092 6.93257 18.8605 6.64532 18.4964C6.29962 18.2348 6.46683 17.3915 6.42887 17.0274C6.46067 16.2734 7.15618 16.2559 7.73887 16.2898C8.01789 16.3329 8.32668 15.6004 8.09586 15.4291C7.88249 15.2004 7.43009 14.8608 7.47523 14.5028C7.41573 14.073 8.13074 13.5949 8.36257 13.3108C8.90729 12.7999 9.42842 13.2831 9.809 13.716C10.0234 13.9263 10.4307 13.6934 10.6173 13.5395C10.7753 13.1784 10.523 12.5547 10.8871 12.2654C11.1487 11.9197 11.9919 12.0869 12.3561 12.049C12.5582 12.049 12.7429 12.1321 12.8762 12.2654C13.1635 12.4942 13.0845 13.0358 13.0937 13.359C13.0947 13.4944 13.1707 13.6052 13.2968 13.6513ZM13.2917 14.1058C12.946 14.0114 12.6608 13.7365 12.668 13.36C12.6434 13.1097 12.7911 12.4603 12.3572 12.4757H11.4093C10.9764 12.4675 11.121 13.0994 11.0985 13.36C11.1097 13.9427 10.3988 14.2535 9.90233 14.2248C9.60484 14.1961 9.3094 13.8021 9.10524 13.6134C8.75954 13.2605 8.30713 14.0401 7.99426 14.2843C7.6147 14.751 8.60872 15.0567 8.60565 15.5214C8.63437 16.019 8.32355 16.7289 7.74188 16.7176C7.59416 16.7412 7.05457 16.6499 6.94892 16.8089C6.77145 16.9217 6.89045 17.806 6.85762 17.9773C6.85762 18.0624 6.89353 18.1414 6.94892 18.1968C7.25463 18.4297 7.8578 18.1445 8.16351 18.4205C8.41484 18.5918 8.66206 19.1837 8.60565 19.4853C8.58 19.7776 8.1789 20.0833 7.99426 20.2834C7.64241 20.627 8.41998 21.0784 8.66515 21.3933C9.13087 21.7729 9.43658 20.7789 9.9023 20.782C10.0921 20.7399 10.2993 20.8127 10.4747 20.8999C10.8204 20.9953 11.1066 21.2692 11.0984 21.6467C11.123 21.8981 10.9753 22.5464 11.4093 22.53C11.5847 22.5023 12.4597 22.61 12.5777 22.4387C12.7357 22.333 12.6474 21.8027 12.669 21.6457C12.6515 21.1974 13.0506 20.9605 13.4281 20.8405C13.7061 20.7112 14.0231 20.7645 14.2447 20.9738C14.3678 21.061 14.696 21.5216 14.8838 21.4826C15.09 21.5288 15.6306 20.8199 15.7742 20.7225C15.8337 20.663 15.8644 20.5819 15.8644 20.5019C15.8152 20.1224 15.1823 19.8936 15.1628 19.4843C15.1207 19.2945 15.1935 19.0873 15.2807 18.9119C15.3413 18.7313 15.4315 18.5395 15.5875 18.4328C15.8193 18.2266 16.3138 18.3005 16.6 18.2892C17.0924 18.2964 16.8605 17.4275 16.9108 17.0305C16.919 16.5976 16.2871 16.7422 16.0276 16.7197C15.7167 16.7197 15.4439 16.5289 15.3362 16.2365C15.1577 15.8908 15.0407 15.4497 15.3556 15.145C15.4428 15.0219 15.9034 14.6937 15.8645 14.5059C15.9106 14.2987 15.2028 13.7602 15.1043 13.6155C14.8038 13.3047 14.4581 13.8525 14.258 14.0207C13.9964 14.2895 13.6046 14.2822 13.2917 14.1058ZM11.8832 15.0936C8.71742 15.149 8.71847 19.8546 11.8832 19.91C15.0582 19.8289 15.0593 15.1748 11.8832 15.0936ZM13.2845 16.101C11.4134 14.2894 8.67038 17.0335 10.4808 18.9036C12.3745 20.706 15.0858 17.9937 13.2845 16.101Z"/>
</mask>
<path fill-rule="evenodd" clip-rule="evenodd" d="M13.2968 13.6513C13.4107 13.7016 13.6661 13.8298 13.7903 13.8042C14.1565 13.6605 14.4201 13.042 14.8807 13.0953C15.3095 13.0358 15.7886 13.7508 16.0727 13.9827C16.5887 14.5325 16.0912 15.0547 15.6583 15.4383C15.4654 15.6302 15.6665 15.8835 15.7322 16.0867C15.7804 16.2159 15.8871 16.2898 16.0245 16.2908C16.3425 16.3011 16.8924 16.22 17.1181 16.5073C17.4638 16.7689 17.2966 17.6121 17.3345 17.9763C17.3345 18.1784 17.2514 18.363 17.1181 18.4964C16.8196 18.8688 16.1969 18.599 15.8337 18.7744C15.7424 18.8441 15.6501 19.117 15.604 19.2237C15.5475 19.3458 15.5701 19.4781 15.6665 19.5745C15.8799 19.8033 16.3323 20.1428 16.2872 20.5008C16.3467 20.9296 15.6317 21.4077 15.4008 21.6918C14.852 22.2078 14.3268 21.7124 13.9452 21.2774C13.7708 21.0887 13.4815 21.2836 13.2958 21.3513C13.1676 21.3995 13.0927 21.5062 13.0927 21.6436C13.1276 22.2181 13.1081 22.928 12.3551 22.9536C11.9879 22.9054 11.1508 23.088 10.8872 22.7372C10.5999 22.5094 10.6789 21.9668 10.6697 21.6436C10.6687 21.5082 10.5938 21.3985 10.4666 21.3513C10.2788 21.2754 9.98134 21.0876 9.80799 21.2866C9.57615 21.5041 9.24379 21.9503 8.88167 21.9073C8.45185 21.9668 7.97484 21.2528 7.69066 21.0209C7.17468 20.4721 7.67015 19.9469 8.1051 19.5653C8.19332 19.4699 8.21281 19.3406 8.15844 19.2227C8.11433 19.1067 8.022 18.8349 7.9184 18.7661C7.55833 18.6092 6.93257 18.8605 6.64532 18.4964C6.29962 18.2348 6.46683 17.3915 6.42887 17.0274C6.46067 16.2734 7.15618 16.2559 7.73887 16.2898C8.01789 16.3329 8.32668 15.6004 8.09586 15.4291C7.88249 15.2004 7.43009 14.8608 7.47523 14.5028C7.41573 14.073 8.13074 13.5949 8.36257 13.3108C8.90729 12.7999 9.42842 13.2831 9.809 13.716C10.0234 13.9263 10.4307 13.6934 10.6173 13.5395C10.7753 13.1784 10.523 12.5547 10.8871 12.2654C11.1487 11.9197 11.9919 12.0869 12.3561 12.049C12.5582 12.049 12.7429 12.1321 12.8762 12.2654C13.1635 12.4942 13.0845 13.0358 13.0937 13.359C13.0947 13.4944 13.1707 13.6052 13.2968 13.6513ZM13.2917 14.1058C12.946 14.0114 12.6608 13.7365 12.668 13.36C12.6434 13.1097 12.7911 12.4603 12.3572 12.4757H11.4093C10.9764 12.4675 11.121 13.0994 11.0985 13.36C11.1097 13.9427 10.3988 14.2535 9.90233 14.2248C9.60484 14.1961 9.3094 13.8021 9.10524 13.6134C8.75954 13.2605 8.30713 14.0401 7.99426 14.2843C7.6147 14.751 8.60872 15.0567 8.60565 15.5214C8.63437 16.019 8.32355 16.7289 7.74188 16.7176C7.59416 16.7412 7.05457 16.6499 6.94892 16.8089C6.77145 16.9217 6.89045 17.806 6.85762 17.9773C6.85762 18.0624 6.89353 18.1414 6.94892 18.1968C7.25463 18.4297 7.8578 18.1445 8.16351 18.4205C8.41484 18.5918 8.66206 19.1837 8.60565 19.4853C8.58 19.7776 8.1789 20.0833 7.99426 20.2834C7.64241 20.627 8.41998 21.0784 8.66515 21.3933C9.13087 21.7729 9.43658 20.7789 9.9023 20.782C10.0921 20.7399 10.2993 20.8127 10.4747 20.8999C10.8204 20.9953 11.1066 21.2692 11.0984 21.6467C11.123 21.8981 10.9753 22.5464 11.4093 22.53C11.5847 22.5023 12.4597 22.61 12.5777 22.4387C12.7357 22.333 12.6474 21.8027 12.669 21.6457C12.6515 21.1974 13.0506 20.9605 13.4281 20.8405C13.7061 20.7112 14.0231 20.7645 14.2447 20.9738C14.3678 21.061 14.696 21.5216 14.8838 21.4826C15.09 21.5288 15.6306 20.8199 15.7742 20.7225C15.8337 20.663 15.8644 20.5819 15.8644 20.5019C15.8152 20.1224 15.1823 19.8936 15.1628 19.4843C15.1207 19.2945 15.1935 19.0873 15.2807 18.9119C15.3413 18.7313 15.4315 18.5395 15.5875 18.4328C15.8193 18.2266 16.3138 18.3005 16.6 18.2892C17.0924 18.2964 16.8605 17.4275 16.9108 17.0305C16.919 16.5976 16.2871 16.7422 16.0276 16.7197C15.7167 16.7197 15.4439 16.5289 15.3362 16.2365C15.1577 15.8908 15.0407 15.4497 15.3556 15.145C15.4428 15.0219 15.9034 14.6937 15.8645 14.5059C15.9106 14.2987 15.2028 13.7602 15.1043 13.6155C14.8038 13.3047 14.4581 13.8525 14.258 14.0207C13.9964 14.2895 13.6046 14.2822 13.2917 14.1058ZM11.8832 15.0936C8.71742 15.149 8.71847 19.8546 11.8832 19.91C15.0582 19.8289 15.0593 15.1748 11.8832 15.0936ZM13.2845 16.101C11.4134 14.2894 8.67038 17.0335 10.4808 18.9036C12.3745 20.706 15.0858 17.9937 13.2845 16.101Z" fill="#0066FF"/>
<path d="M13.2968 13.6513L13.3778 13.468L13.3656 13.4635L13.2968 13.6513ZM13.7903 13.8042L13.8307 14L13.8474 13.9966L13.8633 13.9904L13.7903 13.8042ZM14.8807 13.0953L14.8577 13.294L14.883 13.2969L14.9082 13.2934L14.8807 13.0953ZM16.0727 13.9827L16.2186 13.8458L16.2095 13.8361L16.1992 13.8277L16.0727 13.9827ZM15.6583 15.4383L15.5254 15.2884L15.5173 15.2965L15.6583 15.4383ZM15.7322 16.0867L15.5417 16.1482L15.5448 16.1566L15.7322 16.0867ZM16.0245 16.2908L16.031 16.0909L16.026 16.0908L16.0245 16.2908ZM17.1181 16.5073L16.9608 16.6308L16.9768 16.6512L16.9974 16.6668L17.1181 16.5073ZM17.3345 17.9763H17.5345V17.9659L17.5335 17.9555L17.3345 17.9763ZM17.1181 18.4964L16.9767 18.355L16.9689 18.3627L16.962 18.3713L17.1181 18.4964ZM15.8337 18.7744L15.7467 18.5943L15.7285 18.6031L15.7123 18.6155L15.8337 18.7744ZM15.604 19.2237L15.7856 19.3076L15.7875 19.3031L15.604 19.2237ZM15.6665 19.5745L15.8129 19.438L15.8079 19.4331L15.6665 19.5745ZM16.2872 20.5008L16.0887 20.4758L16.0854 20.5021L16.0891 20.5283L16.2872 20.5008ZM15.4008 21.6918L15.5378 21.8375L15.5476 21.8284L15.5561 21.8179L15.4008 21.6918ZM13.9452 21.2774L14.0956 21.1455L14.0921 21.1417L13.9452 21.2774ZM13.2958 21.3513L13.2273 21.1634L13.2254 21.1641L13.2958 21.3513ZM13.0927 21.6436H12.8923L12.8931 21.6558L13.0927 21.6436ZM12.3551 22.9536L12.3291 23.1519L12.3454 23.1541L12.3619 23.1535L12.3551 22.9536ZM10.8872 22.7372L11.047 22.617L11.0316 22.5965L11.0114 22.5805L10.8872 22.7372ZM10.6697 21.6436L10.4696 21.6451L10.4698 21.6493L10.6697 21.6436ZM10.4666 21.3513L10.3916 21.5368L10.397 21.5388L10.4666 21.3513ZM9.80799 21.2866L9.94482 21.4325L9.95217 21.4256L9.9588 21.418L9.80799 21.2866ZM8.88167 21.9073L8.90529 21.7087L8.87974 21.7056L8.85425 21.7092L8.88167 21.9073ZM7.69066 21.0209L7.54495 21.1579L7.554 21.1676L7.56424 21.1759L7.69066 21.0209ZM8.1051 19.5653L8.237 19.7156L8.24485 19.7087L8.25193 19.7011L8.1051 19.5653ZM8.15844 19.2227L7.97108 19.2939L7.9768 19.3064L8.15844 19.2227ZM7.9184 18.7661L8.02895 18.5995L8.01436 18.5898L7.99831 18.5828L7.9184 18.7661ZM6.64532 18.4964L6.80235 18.3725L6.78646 18.3524L6.766 18.3369L6.64532 18.4964ZM6.42887 17.0274L6.22905 17.0189L6.22843 17.0335L6.22995 17.0481L6.42887 17.0274ZM7.73887 16.2898L7.76939 16.0921L7.75997 16.0907L7.75047 16.0901L7.73887 16.2898ZM8.09586 15.4291L7.94961 15.5655L7.96204 15.5789L7.97667 15.5897L8.09586 15.4291ZM7.47523 14.5028L7.67366 14.5278L7.67697 14.5016L7.67334 14.4754L7.47523 14.5028ZM8.36257 13.3108L8.22576 13.1649L8.21603 13.174L8.2076 13.1843L8.36257 13.3108ZM9.809 13.716L9.65879 13.848L9.66367 13.8536L9.66895 13.8588L9.809 13.716ZM10.6173 13.5395L10.7446 13.6939L10.7814 13.6635L10.8006 13.6197L10.6173 13.5395ZM10.8871 12.2654L11.0115 12.422L11.0314 12.4063L11.0466 12.3861L10.8871 12.2654ZM12.3561 12.049V11.849H12.3457L12.3354 11.8501L12.3561 12.049ZM12.8762 12.2654L12.7348 12.4069L12.7428 12.4148L12.7517 12.4219L12.8762 12.2654ZM13.0937 13.359L13.2938 13.3575L13.2936 13.3533L13.0937 13.359ZM13.2917 14.1058L13.3899 13.9316L13.3683 13.9194L13.3444 13.9128L13.2917 14.1058ZM12.668 13.36L12.868 13.3638L12.8682 13.3521L12.867 13.3404L12.668 13.36ZM12.3572 12.4757V12.6759L12.3643 12.6756L12.3572 12.4757ZM11.4093 12.4757L11.4055 12.6757H11.4093V12.4757ZM11.0985 13.36L10.8992 13.3428L10.8983 13.3533L10.8985 13.3639L11.0985 13.36ZM9.90233 14.2248L9.88309 14.424L9.89079 14.4245L9.90233 14.2248ZM9.10524 13.6134L8.9622 13.7535L8.96948 13.7603L9.10524 13.6134ZM7.99426 14.2843L7.87122 14.1266L7.85337 14.1405L7.83909 14.1581L7.99426 14.2843ZM8.60565 15.5214L8.40524 15.5201L8.40598 15.533L8.60565 15.5214ZM7.74188 16.7176L7.74577 16.5176L7.72794 16.5173L7.71034 16.5201L7.74188 16.7176ZM6.94892 16.8089L7.05623 16.9776L7.09203 16.9549L7.1155 16.9196L6.94892 16.8089ZM6.85762 17.9773L6.6612 17.9396L6.65762 17.9583V17.9773H6.85762ZM6.94892 18.1968L6.8075 18.3382L6.81702 18.3478L6.82773 18.3559L6.94892 18.1968ZM8.16351 18.4205L8.0295 18.5689L8.03961 18.578L8.05086 18.5857L8.16351 18.4205ZM8.60565 19.4853L8.40906 19.4485L8.40726 19.4581L8.40641 19.4678L8.60565 19.4853ZM7.99426 20.2834L8.13419 20.4267L8.14123 20.419L7.99426 20.2834ZM8.66515 21.3933L8.50734 21.5162L8.52125 21.5341L8.5388 21.5484L8.66515 21.3933ZM9.9023 20.782L9.90098 20.9819L9.92355 20.9821L9.94558 20.9772L9.9023 20.782ZM10.4747 20.8999L10.3857 21.079L10.4029 21.0876L10.4215 21.0927L10.4747 20.8999ZM11.0984 21.6467L10.8985 21.6424L10.8982 21.6544L10.8994 21.6662L11.0984 21.6467ZM11.4093 22.53L11.4168 22.7299L11.4287 22.7294L11.4405 22.7275L11.4093 22.53ZM12.5777 22.4387L12.4665 22.2724L12.4347 22.2937L12.413 22.3253L12.5777 22.4387ZM12.669 21.6457L12.8671 21.6729L12.8695 21.6555L12.8688 21.638L12.669 21.6457ZM13.4281 20.8405L13.4887 21.0311L13.5008 21.0272L13.5124 21.0218L13.4281 20.8405ZM14.2447 20.9738L14.1073 21.1192L14.1176 21.1289L14.1291 21.137L14.2447 20.9738ZM14.8838 21.4826L14.9275 21.2875L14.8853 21.278L14.8431 21.2868L14.8838 21.4826ZM15.7742 20.7225L15.8865 20.888L15.9022 20.8773L15.9156 20.8639L15.7742 20.7225ZM15.8644 20.5019H16.0644V20.489L16.0628 20.4762L15.8644 20.5019ZM15.1628 19.4843L15.3625 19.4748L15.3617 19.4577L15.358 19.441L15.1628 19.4843ZM15.2807 18.9119L15.4598 19.0009L15.466 18.9885L15.4704 18.9755L15.2807 18.9119ZM15.5875 18.4328L15.7004 18.5979L15.7109 18.5907L15.7204 18.5823L15.5875 18.4328ZM16.6 18.2892L16.6029 18.0889L16.5921 18.0894L16.6 18.2892ZM16.9108 17.0305L17.1092 17.0556L17.1106 17.045L17.1108 17.0343L16.9108 17.0305ZM16.0276 16.7197L16.0449 16.5204L16.0362 16.5197H16.0276V16.7197ZM15.3362 16.2365L15.5238 16.1674L15.5195 16.1558L15.5139 16.1448L15.3362 16.2365ZM15.3556 15.145L15.4947 15.2888L15.5081 15.2758L15.5189 15.2606L15.3556 15.145ZM15.8645 14.5059L15.6692 14.4625L15.6599 14.5045L15.6686 14.5466L15.8645 14.5059ZM15.1043 13.6155L15.2696 13.503L15.26 13.4888L15.2481 13.4765L15.1043 13.6155ZM14.258 14.0207L14.1293 13.8677L14.1216 13.8741L14.1147 13.8812L14.258 14.0207ZM11.8832 15.0936L11.8883 14.8935L11.8797 14.8937L11.8832 15.0936ZM11.8832 19.91L11.8797 20.1101L11.8883 20.1099L11.8832 19.91ZM13.2845 16.101L13.4295 15.963L13.4236 15.9573L13.2845 16.101ZM10.4808 18.9036L10.337 19.0428L10.343 19.0485L10.4808 18.9036ZM13.2161 13.8343C13.2641 13.8555 13.3688 13.9057 13.4694 13.9435C13.521 13.9628 13.5784 13.9817 13.6351 13.9938C13.6881 14.0051 13.7594 14.0148 13.8307 14L13.7498 13.6083C13.759 13.6064 13.7519 13.6097 13.7185 13.6026C13.6888 13.5962 13.652 13.5847 13.61 13.569C13.5234 13.5365 13.4434 13.4974 13.3776 13.4684L13.2161 13.8343ZM13.8633 13.9904C13.99 13.9406 14.0972 13.8546 14.1864 13.772C14.2695 13.6949 14.3689 13.5885 14.4401 13.5187C14.6099 13.3522 14.7292 13.2791 14.8577 13.294L14.9037 12.8966C14.5716 12.8582 14.3288 13.0677 14.1601 13.2331C14.062 13.3292 13.9981 13.4011 13.9144 13.4787C13.8367 13.5507 13.7736 13.5959 13.7172 13.618L13.8633 13.9904ZM14.9082 13.2934C14.9551 13.2869 15.0199 13.2995 15.1091 13.3502C15.1977 13.4005 15.2929 13.4785 15.3925 13.5741C15.4917 13.6692 15.587 13.7734 15.6803 13.8739C15.7694 13.97 15.8624 14.0692 15.9463 14.1376L16.1992 13.8277C16.141 13.7802 16.0675 13.7032 15.9735 13.6018C15.8836 13.5049 15.779 13.3905 15.6694 13.2854C15.5602 13.1807 15.4374 13.0766 15.3067 13.0024C15.1766 12.9285 15.0208 12.874 14.8532 12.8972L14.9082 13.2934ZM15.9269 14.1195C16.0334 14.2331 16.0764 14.3325 16.0886 14.4168C16.1009 14.5019 16.0847 14.5914 16.0397 14.6891C15.9453 14.8938 15.7435 15.0956 15.5256 15.2887L15.791 15.588C16.006 15.3974 16.2694 15.1463 16.403 14.8566C16.4719 14.707 16.5104 14.5389 16.4845 14.3595C16.4584 14.1793 16.37 14.0072 16.2186 13.8458L15.9269 14.1195ZM15.5173 15.2965C15.4383 15.375 15.3942 15.4671 15.381 15.5654C15.3685 15.6586 15.3854 15.7456 15.407 15.8166C15.4285 15.8871 15.4591 15.9551 15.4836 16.0092C15.5105 16.0684 15.5297 16.1106 15.5419 16.1482L15.9225 16.0252C15.9018 15.9612 15.8713 15.8955 15.848 15.8441C15.8224 15.7876 15.8025 15.7421 15.7896 15.6999C15.7769 15.6582 15.7755 15.6332 15.7775 15.6186C15.7788 15.6091 15.7818 15.5975 15.7993 15.5801L15.5173 15.2965ZM15.5448 16.1566C15.6222 16.3642 15.8033 16.4892 16.023 16.4908L16.026 16.0908C15.9708 16.0904 15.9385 16.0677 15.9196 16.0168L15.5448 16.1566ZM16.0181 16.4907C16.1041 16.4935 16.2068 16.4901 16.3012 16.4885C16.3998 16.4869 16.4972 16.4869 16.5895 16.4945C16.785 16.5106 16.9029 16.5572 16.9608 16.6308L17.2753 16.3837C17.1075 16.1701 16.8377 16.1136 16.6223 16.0958C16.5093 16.0865 16.3955 16.0869 16.2945 16.0886C16.1892 16.0904 16.104 16.0933 16.031 16.0909L16.0181 16.4907ZM16.9974 16.6668C17.0353 16.6955 17.0723 16.7503 17.0996 16.8491C17.1267 16.9473 17.1388 17.0696 17.1418 17.2076C17.1447 17.3449 17.1385 17.4856 17.1334 17.6225C17.1286 17.7533 17.1244 17.8892 17.1356 17.997L17.5335 17.9555C17.5257 17.8812 17.5281 17.7751 17.5332 17.6372C17.538 17.5054 17.5449 17.3508 17.5417 17.199C17.5384 17.0479 17.5252 16.8876 17.4852 16.7427C17.4454 16.5985 17.3737 16.4499 17.2388 16.3478L16.9974 16.6668ZM17.1345 17.9763C17.1345 18.1227 17.0744 18.2572 16.9767 18.355L17.2595 18.6378C17.4285 18.4688 17.5345 18.234 17.5345 17.9763H17.1345ZM16.962 18.3713C16.8769 18.4775 16.7384 18.5082 16.4993 18.5092C16.3958 18.5097 16.2545 18.5041 16.1365 18.5095C16.0129 18.5151 15.8738 18.5329 15.7467 18.5943L15.9207 18.9545C15.9752 18.9282 16.0502 18.9139 16.1547 18.9091C16.265 18.9041 16.3661 18.9098 16.501 18.9092C16.7386 18.9082 17.0608 18.8876 17.2741 18.6215L16.962 18.3713ZM15.7123 18.6155C15.6585 18.6566 15.6199 18.7135 15.5943 18.7562C15.5662 18.8031 15.5409 18.8552 15.5193 18.9037C15.4974 18.9528 15.4774 19.0022 15.4607 19.0444C15.443 19.0889 15.4304 19.1212 15.4204 19.1443L15.7875 19.3031C15.8006 19.2728 15.8169 19.2311 15.8323 19.1922C15.8487 19.151 15.8662 19.1079 15.8846 19.0667C15.9032 19.0249 15.921 18.9891 15.9374 18.9619C15.9562 18.9304 15.9633 18.9271 15.9552 18.9333L15.7123 18.6155ZM15.4224 19.1398C15.3311 19.3374 15.369 19.5598 15.5251 19.7159L15.8079 19.4331C15.7712 19.3964 15.764 19.3541 15.7855 19.3076L15.4224 19.1398ZM15.5203 19.7109C15.5781 19.773 15.6528 19.8432 15.7206 19.9089C15.7915 19.9777 15.8608 20.0472 15.9212 20.1185C16.0501 20.2705 16.1 20.3867 16.0887 20.4758L16.4856 20.5259C16.5195 20.257 16.3658 20.0244 16.2264 19.8599C16.1527 19.773 16.0717 19.6923 15.9992 19.6219C15.9235 19.5485 15.8616 19.4905 15.8128 19.4381L15.5203 19.7109ZM16.0891 20.5283C16.0956 20.5752 16.083 20.6399 16.0324 20.729C15.982 20.8176 15.9041 20.9125 15.8086 21.0121C15.7135 21.1112 15.6094 21.2064 15.509 21.2996C15.4131 21.3886 15.3139 21.4817 15.2456 21.5657L15.5561 21.8179C15.6032 21.7599 15.68 21.6866 15.7811 21.5927C15.8778 21.503 15.9921 21.3985 16.0972 21.289C16.2018 21.18 16.3059 21.0573 16.3801 20.9267C16.454 20.7967 16.5085 20.6409 16.4853 20.4733L16.0891 20.5283ZM15.2638 21.5461C15.1506 21.6526 15.0512 21.6957 14.9667 21.708C14.8813 21.7205 14.7916 21.7044 14.6938 21.6595C14.4891 21.5654 14.2869 21.3637 14.0955 21.1455L13.7948 21.4093C13.985 21.6261 14.2364 21.8895 14.5268 22.023C14.6767 22.0918 14.845 22.13 15.0244 22.1038C15.2046 22.0775 15.3767 21.9891 15.5378 21.8375L15.2638 21.5461ZM14.0921 21.1417C13.9271 20.9631 13.7122 20.9851 13.5697 21.0259C13.4968 21.0468 13.427 21.0765 13.3699 21.1018C13.3074 21.1296 13.2652 21.1495 13.2273 21.1634L13.3643 21.5392C13.4192 21.5191 13.4829 21.4893 13.5322 21.4674C13.5871 21.4431 13.6354 21.4232 13.6798 21.4104C13.7719 21.3841 13.7889 21.4029 13.7983 21.4131L14.0921 21.1417ZM13.2254 21.1641C13.0201 21.2413 12.8927 21.4219 12.8927 21.6436H13.2927C13.2927 21.5904 13.3151 21.5577 13.3662 21.5385L13.2254 21.1641ZM12.8931 21.6558C12.9106 21.9447 12.9101 22.2262 12.8321 22.4342C12.7949 22.5333 12.7432 22.607 12.6741 22.658C12.6055 22.7087 12.5043 22.7484 12.3483 22.7537L12.3619 23.1535C12.5824 23.146 12.766 23.0874 12.9117 22.9798C13.057 22.8725 13.1491 22.728 13.2066 22.5746C13.3179 22.2778 13.3097 21.917 13.2923 21.6315L12.8931 21.6558ZM12.3812 22.7553C12.27 22.7407 12.132 22.7442 12.0007 22.7489C11.8625 22.7539 11.7227 22.7609 11.5852 22.7589C11.4475 22.7569 11.3261 22.7457 11.2286 22.7192C11.1309 22.6927 11.0763 22.6559 11.047 22.617L10.7273 22.8573C10.8298 22.9938 10.9788 23.0658 11.1236 23.1052C11.2687 23.1447 11.4289 23.1567 11.5794 23.1589C11.73 23.1611 11.8848 23.1534 12.0151 23.1487C12.1523 23.1437 12.2566 23.1424 12.3291 23.1519L12.3812 22.7553ZM11.0114 22.5805C10.9364 22.521 10.8898 22.4029 10.8735 22.2093C10.8657 22.1175 10.8655 22.0206 10.8671 21.922C10.8687 21.8278 10.8721 21.7247 10.8696 21.6379L10.4698 21.6493C10.4719 21.7242 10.4689 21.8101 10.4672 21.9156C10.4656 22.0168 10.4653 22.1303 10.4749 22.243C10.4931 22.4586 10.5506 22.7256 10.7629 22.8939L11.0114 22.5805ZM10.8697 21.6421C10.868 21.4258 10.7432 21.2406 10.5361 21.1638L10.397 21.5388C10.4443 21.5563 10.4693 21.5906 10.4697 21.6451L10.8697 21.6421ZM10.5415 21.1658C10.4976 21.1481 10.4565 21.1277 10.3896 21.0982C10.3299 21.0718 10.2582 21.0423 10.1829 21.0225C10.0344 20.9833 9.81826 20.9703 9.65718 21.1553L9.9588 21.418C9.97107 21.4039 9.9904 21.3854 10.0808 21.4092C10.1251 21.4209 10.1738 21.4401 10.2281 21.4641C10.2752 21.4849 10.3417 21.5165 10.3916 21.5367L10.5415 21.1658ZM9.67116 21.1408C9.6085 21.1995 9.53824 21.2745 9.47264 21.3423C9.40405 21.4132 9.33512 21.4821 9.26437 21.5421C9.11451 21.6691 8.99808 21.7197 8.90529 21.7087L8.85805 22.1059C9.12738 22.1379 9.35819 21.9869 9.523 21.8472C9.60958 21.7738 9.68984 21.6931 9.7601 21.6205C9.83333 21.5448 9.89155 21.4825 9.94482 21.4325L9.67116 21.1408ZM8.85425 21.7092C8.80694 21.7157 8.74198 21.7031 8.65291 21.6525C8.56439 21.6023 8.46947 21.5245 8.37001 21.429C8.271 21.3341 8.17597 21.2301 8.08288 21.1297C7.99392 21.0337 7.90102 20.9345 7.81709 20.866L7.56424 21.1759C7.62239 21.2234 7.69569 21.3003 7.78952 21.4016C7.87923 21.4984 7.98359 21.6126 8.09309 21.7177C8.20213 21.8223 8.32482 21.9263 8.45551 22.0004C8.58564 22.0743 8.74149 22.1286 8.90909 22.1054L8.85425 21.7092ZM7.83638 20.884C7.72991 20.7707 7.68681 20.6713 7.67448 20.5868C7.66203 20.5014 7.67812 20.4117 7.72302 20.3139C7.81707 20.1092 8.01882 19.9071 8.237 19.7156L7.97319 19.4149C7.75642 19.6051 7.49296 19.8565 7.35954 20.1469C7.2907 20.2968 7.2525 20.4651 7.27867 20.6445C7.30496 20.8247 7.39342 20.9968 7.54495 21.1579L7.83638 20.884ZM8.25193 19.7011C8.39597 19.5453 8.42776 19.3292 8.34008 19.1389L7.9768 19.3064C7.99786 19.3521 7.99067 19.3944 7.95826 19.4295L8.25193 19.7011ZM8.34536 19.1515C8.32574 19.0999 8.28778 18.9925 8.24268 18.8937C8.21982 18.8436 8.1926 18.7899 8.16133 18.7415C8.13228 18.6966 8.0891 18.6394 8.02895 18.5995L7.80784 18.9328C7.79949 18.9273 7.80671 18.9298 7.82549 18.9588C7.84205 18.9844 7.86009 19.0188 7.87878 19.0597C7.91677 19.143 7.94703 19.2294 7.97152 19.2938L8.34536 19.1515ZM7.99831 18.5828C7.87356 18.5284 7.73684 18.5136 7.61534 18.5091C7.50221 18.505 7.35614 18.5099 7.25649 18.509C7.01825 18.5067 6.88228 18.4738 6.80235 18.3725L6.48829 18.6202C6.69561 18.8831 7.01614 18.9067 7.25261 18.909C7.39031 18.9103 7.48615 18.9046 7.60059 18.9089C7.70668 18.9128 7.7832 18.9254 7.83848 18.9495L7.99831 18.5828ZM6.766 18.3369C6.72806 18.3082 6.69107 18.2534 6.66379 18.1545C6.63669 18.0563 6.62458 17.934 6.62165 17.7961C6.61872 17.6588 6.62492 17.518 6.62995 17.3811C6.63476 17.2503 6.63902 17.1144 6.62779 17.0066L6.22995 17.0481C6.2377 17.1224 6.23529 17.2285 6.23022 17.3664C6.22538 17.4982 6.21851 17.6529 6.22174 17.8046C6.22495 17.9557 6.23823 18.116 6.2782 18.2609C6.31799 18.4051 6.38973 18.5538 6.52464 18.6559L6.766 18.3369ZM6.62869 17.0358C6.63532 16.8786 6.67544 16.7767 6.72616 16.7077C6.77704 16.6385 6.84991 16.5871 6.94775 16.5503C7.15384 16.4727 7.43325 16.4724 7.72727 16.4894L7.75047 16.0901C7.4618 16.0733 7.10211 16.0648 6.80682 16.176C6.65398 16.2335 6.51058 16.3257 6.40391 16.4708C6.29706 16.6161 6.23832 16.7991 6.22905 17.0189L6.62869 17.0358ZM7.70835 16.4874C7.8725 16.5128 8.00523 16.4209 8.08701 16.3382C8.1741 16.2502 8.24435 16.1336 8.29309 16.017C8.34182 15.9004 8.37554 15.7682 8.37669 15.6438C8.37777 15.5261 8.34867 15.3677 8.21506 15.2685L7.97667 15.5897C7.95847 15.5762 7.97732 15.5735 7.9767 15.6401C7.97615 15.6998 7.95851 15.7802 7.92402 15.8627C7.88954 15.9452 7.8447 16.0144 7.80263 16.0569C7.75526 16.1048 7.74475 16.0883 7.76939 16.0921L7.70835 16.4874ZM8.24212 15.2927C8.18427 15.2307 8.10958 15.1605 8.04181 15.0947C7.97094 15.0259 7.90162 14.9564 7.84117 14.8851C7.71235 14.7331 7.66242 14.617 7.67366 14.5278L7.2768 14.4778C7.2429 14.7466 7.3966 14.9792 7.53604 15.1437C7.60971 15.2307 7.69069 15.3113 7.76324 15.3817C7.83889 15.4552 7.90078 15.5132 7.94961 15.5655L8.24212 15.2927ZM7.67334 14.4754C7.6668 14.4281 7.67944 14.3631 7.73009 14.2739C7.78043 14.1853 7.85841 14.0902 7.95397 13.9906C8.04909 13.8915 8.1532 13.7963 8.25372 13.7031C8.34979 13.6141 8.44907 13.5211 8.51755 13.4372L8.2076 13.1843C8.16016 13.2425 8.08313 13.3159 7.98179 13.4098C7.8849 13.4996 7.77051 13.6041 7.66534 13.7137C7.5606 13.8229 7.4565 13.9457 7.38226 14.0764C7.30834 14.2066 7.25391 14.3626 7.27712 14.5302L7.67334 14.4754ZM8.49939 13.4567C8.61179 13.3512 8.71056 13.3081 8.79463 13.2955C8.87941 13.2827 8.96834 13.2981 9.06503 13.3417C9.26764 13.4332 9.46827 13.6313 9.65879 13.848L9.95921 13.5839C9.76914 13.3677 9.51892 13.1078 9.22964 12.9772C9.08039 12.9098 8.91312 12.8731 8.73509 12.8999C8.55635 12.9268 8.38572 13.0149 8.22576 13.1649L8.49939 13.4567ZM9.66895 13.8588C9.8593 14.0455 10.1141 14.0122 10.2874 13.9539C10.4691 13.8927 10.6387 13.7811 10.7446 13.6939L10.4901 13.3852C10.4093 13.4518 10.2819 13.5336 10.1597 13.5748C10.0291 13.6188 9.9731 13.5968 9.94905 13.5732L9.66895 13.8588ZM10.8006 13.6197C10.8553 13.4947 10.8703 13.3579 10.8748 13.2363C10.879 13.1227 10.874 12.9773 10.8749 12.8774C10.8771 12.6395 10.9096 12.503 11.0115 12.422L10.7627 12.1088C10.5005 12.3172 10.4771 12.6372 10.4749 12.8737C10.4737 13.011 10.4793 13.1073 10.4751 13.2213C10.4711 13.3272 10.4584 13.4038 10.4341 13.4594L10.8006 13.6197ZM11.0466 12.3861C11.0753 12.3482 11.1301 12.3112 11.229 12.2839C11.3272 12.2568 11.4495 12.2447 11.5874 12.2418C11.7247 12.2388 11.8655 12.245 12.0024 12.2501C12.1332 12.2549 12.2691 12.2591 12.3769 12.2479L12.3354 11.8501C12.2611 11.8578 12.155 11.8554 12.0171 11.8503C11.8853 11.8455 11.7306 11.8386 11.5789 11.8419C11.4278 11.8451 11.2675 11.8584 11.1226 11.8983C10.9784 11.9381 10.8297 12.0099 10.7276 12.1448L11.0466 12.3861ZM12.3561 12.249C12.5026 12.249 12.6371 12.3091 12.7348 12.4069L13.0177 12.124C12.8487 11.9551 12.6139 11.849 12.3561 11.849V12.249ZM12.7517 12.4219C12.827 12.4819 12.8736 12.6005 12.89 12.7937C12.8977 12.8854 12.8979 12.9823 12.8963 13.0807C12.8947 13.1749 12.8913 13.2779 12.8938 13.3647L13.2936 13.3533C13.2915 13.2785 13.2945 13.1926 13.2962 13.0872C13.2979 12.9861 13.2981 12.8726 13.2885 12.7599C13.2703 12.5444 13.2127 12.2777 13.0008 12.109L12.7517 12.4219ZM12.8937 13.3605C12.8954 13.5766 13.0211 13.7634 13.2281 13.8391L13.3656 13.4635C13.3202 13.4469 13.2941 13.4122 13.2937 13.3575L12.8937 13.3605ZM13.3444 13.9128C13.0579 13.8346 12.863 13.6216 12.868 13.3638L12.468 13.3562C12.4586 13.8513 12.8341 14.1882 13.239 14.2987L13.3444 13.9128ZM12.867 13.3404C12.8626 13.2953 12.866 13.2268 12.8699 13.1216C12.8735 13.0261 12.8768 12.9089 12.8649 12.7971C12.8534 12.6888 12.8252 12.5574 12.7446 12.4512C12.6537 12.3315 12.5166 12.2699 12.3501 12.2759L12.3643 12.6756C12.4147 12.6738 12.4219 12.6876 12.4261 12.6932C12.4406 12.7123 12.4583 12.7559 12.4672 12.8394C12.4757 12.9193 12.4738 13.0103 12.4702 13.1066C12.4669 13.193 12.4611 13.2996 12.469 13.3796L12.867 13.3404ZM12.3572 12.2757H11.4093V12.6757H12.3572V12.2757ZM11.4131 12.2758C11.2485 12.2726 11.113 12.3341 11.0226 12.4521C10.9417 12.5575 10.913 12.6875 10.9012 12.7953C10.889 12.9063 10.8922 13.0228 10.8958 13.1183C10.8998 13.223 10.9035 13.2936 10.8992 13.3428L11.2977 13.3773C11.3047 13.2961 11.2988 13.19 11.2955 13.1032C11.2919 13.0072 11.2902 12.9174 11.2988 12.8389C11.3078 12.7571 11.3255 12.7144 11.34 12.6955C11.3448 12.6892 11.3537 12.6747 11.4055 12.6757L11.4131 12.2758ZM10.8985 13.3639C10.9023 13.5609 10.7871 13.7273 10.5859 13.8514C10.3827 13.9766 10.1216 14.0371 9.91387 14.0251L9.89079 14.4245C10.1796 14.4411 10.5221 14.3606 10.7958 14.1919C11.0713 14.0221 11.3059 13.7417 11.2984 13.3561L10.8985 13.3639ZM9.92155 14.0257C9.84425 14.0183 9.73885 13.9558 9.60421 13.8319C9.54122 13.774 9.47988 13.7104 9.41871 13.6464C9.35975 13.5846 9.29777 13.519 9.24101 13.4665L8.96948 13.7603C9.0148 13.8022 9.06631 13.8565 9.12946 13.9227C9.19039 13.9865 9.25978 14.0586 9.33336 14.1263C9.47185 14.2537 9.66292 14.4026 9.88311 14.4239L9.92155 14.0257ZM9.24811 13.4734C9.18382 13.4078 9.10816 13.3599 9.02141 13.3373C8.93483 13.3148 8.85081 13.3211 8.77509 13.3426C8.6317 13.3834 8.50413 13.483 8.40141 13.5783C8.29553 13.6766 8.19179 13.794 8.10264 13.893C8.00798 13.998 7.93299 14.0784 7.87122 14.1266L8.1173 14.442C8.21196 14.3681 8.31085 14.2595 8.39982 14.1607C8.49429 14.0558 8.58392 13.9547 8.67347 13.8716C8.76617 13.7856 8.83608 13.7412 8.88452 13.7274C8.90472 13.7216 8.91521 13.723 8.92075 13.7245C8.92614 13.7259 8.94024 13.7308 8.96237 13.7534L9.24811 13.4734ZM7.83909 14.1581C7.77462 14.2374 7.73056 14.3243 7.7145 14.4189C7.69831 14.5144 7.71302 14.6033 7.74386 14.6821C7.80142 14.8291 7.921 14.9525 8.02019 15.0478C8.13229 15.1556 8.22768 15.2363 8.30619 15.3279C8.38303 15.4175 8.40594 15.4771 8.40565 15.5201L8.80564 15.5228C8.80689 15.3334 8.7067 15.1805 8.60989 15.0676C8.51474 14.9566 8.38593 14.8446 8.29735 14.7594C8.19586 14.6619 8.1383 14.5923 8.11632 14.5362C8.1074 14.5134 8.10675 14.4983 8.10886 14.4859C8.1111 14.4727 8.119 14.4479 8.14943 14.4105L7.83909 14.1581ZM8.40598 15.533C8.41801 15.7413 8.35748 16.0024 8.2324 16.2054C8.10844 16.4065 7.9423 16.5214 7.74577 16.5176L7.738 16.9175C8.12313 16.925 8.40323 16.6906 8.57293 16.4152C8.74149 16.1417 8.82201 15.7991 8.80531 15.5099L8.40598 15.533ZM7.71034 16.5201C7.71044 16.5201 7.70955 16.5202 7.70744 16.5204C7.70536 16.5206 7.70252 16.5208 7.69879 16.521C7.69122 16.5215 7.68148 16.5217 7.66924 16.5217C7.64443 16.5218 7.61423 16.5209 7.57807 16.5196C7.50841 16.5169 7.41787 16.5124 7.32963 16.5124C7.24226 16.5124 7.14387 16.5166 7.05568 16.5351C6.97725 16.5515 6.85475 16.5892 6.78234 16.6982L7.1155 16.9196C7.09592 16.949 7.08049 16.9385 7.13756 16.9266C7.18487 16.9167 7.25042 16.9124 7.32963 16.9124C7.40795 16.9124 7.48661 16.9164 7.56297 16.9193C7.62903 16.9218 7.71278 16.9248 7.77343 16.9151L7.71034 16.5201ZM6.84161 16.6401C6.76722 16.6874 6.72938 16.7598 6.7091 16.8117C6.68741 16.8672 6.6746 16.9286 6.66636 16.987C6.64982 17.1043 6.64729 17.2433 6.64905 17.3739C6.65082 17.5049 6.65726 17.6402 6.6609 17.7452C6.66277 17.7992 6.6639 17.8448 6.66369 17.8814C6.66359 17.8996 6.66316 17.9139 6.66248 17.9249C6.66176 17.9367 6.66098 17.9408 6.6612 17.9396L7.05405 18.0149C7.06193 17.9738 7.06345 17.9251 7.06369 17.8837C7.06395 17.8386 7.06256 17.7862 7.06066 17.7314C7.05677 17.619 7.05071 17.494 7.04901 17.3685C7.04731 17.2424 7.05036 17.1285 7.06244 17.0429C7.06852 16.9998 7.07578 16.9723 7.08168 16.9572C7.089 16.9385 7.08626 16.9586 7.05623 16.9776L6.84161 16.6401ZM6.65762 17.9773C6.65762 18.1184 6.71669 18.2474 6.8075 18.3382L7.09034 18.0554C7.07036 18.0354 7.05762 18.0065 7.05762 17.9773H6.65762ZM6.82773 18.3559C6.94568 18.4458 7.08251 18.4781 7.20499 18.4902C7.32564 18.5022 7.45495 18.496 7.56298 18.4924C7.67833 18.4885 7.77438 18.487 7.85797 18.4996C7.93887 18.5118 7.99197 18.535 8.0295 18.5689L8.29752 18.272C8.1822 18.1679 8.04526 18.1233 7.91753 18.1041C7.79249 18.0852 7.66132 18.0888 7.54945 18.0926C7.43026 18.0966 7.33235 18.1009 7.24438 18.0922C7.15823 18.0836 7.10502 18.0643 7.07011 18.0377L6.82773 18.3559ZM8.05086 18.5857C8.12795 18.6383 8.23388 18.7851 8.31533 18.9808C8.39674 19.1765 8.42644 19.3556 8.40906 19.4485L8.80224 19.522C8.84126 19.3134 8.77556 19.0457 8.68463 18.8272C8.59374 18.6087 8.4504 18.374 8.27616 18.2552L8.05086 18.5857ZM8.40641 19.4678C8.4 19.5409 8.33815 19.6464 8.21219 19.7837C8.1537 19.8475 8.08965 19.9096 8.02563 19.9711C7.96398 20.0302 7.89865 20.0921 7.84729 20.1477L8.14123 20.419C8.18218 20.3747 8.23624 20.3233 8.30252 20.2597C8.36644 20.1984 8.43889 20.1283 8.50696 20.0541C8.63412 19.9155 8.78564 19.7221 8.80488 19.5027L8.40641 19.4678ZM7.85451 20.1403C7.78894 20.2043 7.74101 20.2798 7.71846 20.3664C7.69595 20.4529 7.7023 20.5368 7.72384 20.6123C7.76461 20.7553 7.86409 20.8826 7.9592 20.9851C8.05724 21.0908 8.17453 21.1946 8.27339 21.2838C8.37832 21.3785 8.45884 21.4539 8.50734 21.5162L8.82297 21.2705C8.74889 21.1753 8.64027 21.0761 8.54144 20.9869C8.43654 20.8922 8.33546 20.8026 8.25244 20.7131C8.16649 20.6205 8.12223 20.5508 8.1085 20.5027C8.10279 20.4826 8.1042 20.4724 8.10556 20.4672C8.10688 20.4621 8.1116 20.4483 8.134 20.4265L7.85451 20.1403ZM8.5388 21.5484C8.61795 21.6129 8.70476 21.657 8.79941 21.6731C8.89483 21.6893 8.98374 21.6746 9.06244 21.6437C9.20929 21.5861 9.33266 21.4665 9.42793 21.3674C9.53559 21.2554 9.61644 21.1599 9.70808 21.0815C9.79778 21.0047 9.85759 20.9817 9.90098 20.9819L9.90362 20.582C9.71415 20.5807 9.56111 20.6808 9.44795 20.7776C9.33674 20.8728 9.22472 21.0016 9.13953 21.0902C9.04194 21.1918 8.97245 21.2493 8.91644 21.2713C8.89372 21.2802 8.8787 21.2808 8.86644 21.2787C8.85341 21.2765 8.82879 21.2687 8.79151 21.2383L8.5388 21.5484ZM9.94558 20.9772C10.0636 20.9511 10.2163 20.9948 10.3857 21.079L10.5637 20.7208C10.3823 20.6306 10.1206 20.5287 9.85903 20.5867L9.94558 20.9772ZM10.4215 21.0927C10.7092 21.1721 10.9041 21.3845 10.8985 21.6424L11.2984 21.6511C11.3092 21.1539 10.9316 20.8185 10.5279 20.7071L10.4215 21.0927ZM10.8994 21.6662C10.9038 21.7117 10.9005 21.7804 10.8965 21.8856C10.8929 21.981 10.8896 22.0983 10.9015 22.21C10.913 22.3181 10.9412 22.4495 11.022 22.5555C11.1132 22.6751 11.2505 22.7361 11.4168 22.7299L11.4017 22.3301C11.351 22.3321 11.3441 22.3182 11.3402 22.313C11.3258 22.2942 11.3081 22.2509 11.2992 22.1676C11.2907 22.0878 11.2926 21.9969 11.2962 21.9006C11.2995 21.814 11.3053 21.7074 11.2975 21.6272L10.8994 21.6662ZM11.4405 22.7275C11.4404 22.7276 11.4408 22.7275 11.4418 22.7274C11.4427 22.7273 11.444 22.7271 11.4457 22.727C11.4491 22.7267 11.4537 22.7263 11.4596 22.7261C11.4715 22.7255 11.4866 22.7252 11.5052 22.7251C11.5425 22.7251 11.5887 22.7263 11.6427 22.728C11.7486 22.7315 11.8824 22.7371 12.0134 22.7382C12.1435 22.7392 12.2816 22.7359 12.3982 22.7193C12.4563 22.7111 12.517 22.6985 12.5718 22.6776C12.6228 22.6583 12.6939 22.6225 12.7424 22.5521L12.413 22.3253C12.4319 22.2977 12.4499 22.2961 12.4298 22.3037C12.4135 22.3099 12.3851 22.3172 12.3418 22.3233C12.2557 22.3356 12.142 22.3392 12.0166 22.3382C11.8922 22.3372 11.767 22.3319 11.6557 22.3282C11.5562 22.325 11.4453 22.3218 11.3781 22.3324L11.4405 22.7275ZM12.6889 22.6049C12.7965 22.5329 12.8345 22.4122 12.8512 22.334C12.8698 22.2464 12.8743 22.1488 12.8745 22.0619C12.8747 21.974 12.8704 21.8839 12.8677 21.8134C12.8647 21.7341 12.8646 21.6911 12.8671 21.6729L12.4708 21.6185C12.4626 21.6788 12.4654 21.761 12.468 21.8285C12.4709 21.9049 12.4747 21.9835 12.4745 22.061C12.4743 22.1395 12.4699 22.2041 12.46 22.2506C12.4481 22.3064 12.4378 22.2916 12.4665 22.2724L12.6889 22.6049ZM12.8688 21.638C12.8628 21.4842 12.9247 21.3672 13.0342 21.2687C13.1492 21.1652 13.3132 21.0868 13.4887 21.0311L13.3675 20.6499C13.1655 20.7141 12.9412 20.8142 12.7666 20.9713C12.5866 21.1334 12.4577 21.359 12.4691 21.6535L12.8688 21.638ZM13.5124 21.0218C13.7154 20.9274 13.9447 20.9656 14.1073 21.1192L14.382 20.8284C14.1014 20.5634 13.6968 20.495 13.3438 20.6591L13.5124 21.0218ZM14.1291 21.137C14.1289 21.1369 14.1316 21.1388 14.1375 21.1441C14.1432 21.1491 14.1504 21.1559 14.1592 21.1646C14.1772 21.1823 14.1984 21.2047 14.2236 21.2318C14.2722 21.284 14.3347 21.3529 14.3984 21.4168C14.4616 21.4801 14.5355 21.5483 14.6117 21.5987C14.6788 21.643 14.7942 21.7055 14.9244 21.6784L14.8431 21.2868C14.8795 21.2792 14.8835 21.2988 14.8323 21.265C14.7904 21.2373 14.7393 21.1921 14.6815 21.1343C14.6244 21.0769 14.57 21.0169 14.5165 20.9593C14.4704 20.9098 14.4115 20.8469 14.3603 20.8106L14.1291 21.137ZM14.8401 21.6778C14.926 21.697 15.0039 21.6729 15.0552 21.6506C15.1099 21.6267 15.1625 21.5924 15.2097 21.557C15.3045 21.4859 15.4047 21.3894 15.4957 21.296C15.5871 21.2021 15.6781 21.1021 15.7497 21.0253C15.7865 20.9859 15.8179 20.9528 15.8438 20.9272C15.8567 20.9145 15.8671 20.9046 15.8754 20.8973C15.8842 20.8895 15.8875 20.8873 15.8865 20.888L15.6619 20.557C15.6273 20.5805 15.5918 20.6138 15.5625 20.6428C15.5305 20.6744 15.4946 20.7124 15.4572 20.7524C15.3807 20.8345 15.2966 20.9271 15.2092 21.0169C15.1213 21.107 15.0387 21.1852 14.9696 21.2371C14.9349 21.2631 14.9103 21.2774 14.8955 21.2838C14.8772 21.2918 14.8931 21.2798 14.9275 21.2875L14.8401 21.6778ZM15.9156 20.8639C16.0148 20.7647 16.0644 20.6318 16.0644 20.5019H15.6644C15.6644 20.5321 15.6525 20.5613 15.6328 20.5811L15.9156 20.8639ZM16.0628 20.4762C16.0437 20.3289 15.9695 20.2088 15.8915 20.1136C15.8145 20.0196 15.7183 19.9322 15.639 19.8581C15.5542 19.779 15.4849 19.7118 15.4345 19.6437C15.3856 19.5776 15.3649 19.5241 15.3625 19.4748L14.963 19.4938C14.9704 19.6492 15.0361 19.7777 15.1129 19.8816C15.1882 19.9833 15.2839 20.0738 15.3659 20.1504C15.4534 20.2321 15.526 20.2987 15.5821 20.3671C15.6372 20.4343 15.6606 20.4852 15.6661 20.5277L16.0628 20.4762ZM15.358 19.441C15.3319 19.3231 15.3756 19.1703 15.4598 19.0009L15.1016 18.8229C15.0115 19.0043 14.9095 19.266 14.9675 19.5276L15.358 19.441ZM15.4704 18.9755C15.5288 18.8011 15.6021 18.6651 15.7004 18.5979L15.4746 18.2678C15.2609 18.4139 15.1537 18.6616 15.0911 18.8483L15.4704 18.9755ZM15.7204 18.5823C15.7802 18.529 15.8982 18.4963 16.0826 18.4877C16.169 18.4837 16.2586 18.4852 16.3489 18.4874C16.4359 18.4894 16.5284 18.4922 16.6079 18.4891L16.5921 18.0894C16.5285 18.0919 16.4518 18.0897 16.3583 18.0875C16.2682 18.0854 16.166 18.0834 16.0641 18.0881C15.8718 18.097 15.6265 18.1304 15.4546 18.2834L15.7204 18.5823ZM16.5971 18.4892C16.6887 18.4905 16.7761 18.4714 16.8534 18.4262C16.9307 18.3812 16.9856 18.3174 17.0239 18.2488C17.0963 18.1189 17.1159 17.9585 17.1211 17.8189C17.1264 17.6749 17.1168 17.5185 17.11 17.3855C17.1028 17.2443 17.0993 17.134 17.1092 17.0556L16.7124 17.0054C16.6972 17.1255 16.7038 17.2727 16.7105 17.4058C16.7177 17.5472 16.7259 17.682 16.7213 17.804C16.7166 17.9303 16.6987 18.0106 16.6745 18.054C16.6645 18.072 16.6564 18.0781 16.6519 18.0807C16.6475 18.0833 16.6344 18.0897 16.6029 18.0892L16.5971 18.4892ZM17.1108 17.0343C17.1139 16.8697 17.0524 16.7343 16.9345 16.6438C16.8291 16.563 16.6991 16.5342 16.5914 16.5224C16.4805 16.5102 16.3641 16.5134 16.2686 16.517C16.1641 16.521 16.0937 16.5247 16.0449 16.5204L16.0102 16.9189C16.0912 16.926 16.1971 16.92 16.2838 16.9167C16.3796 16.9131 16.4693 16.9114 16.5478 16.92C16.6294 16.929 16.6721 16.9467 16.691 16.9612C16.6974 16.966 16.7118 16.9749 16.7108 17.0267L17.1108 17.0343ZM16.0276 16.5197C15.8009 16.5197 15.6027 16.3814 15.5238 16.1674L15.1485 16.3057C15.285 16.6763 15.6326 16.9197 16.0276 16.9197V16.5197ZM15.5139 16.1448C15.4307 15.9836 15.3702 15.8152 15.3605 15.6627C15.3512 15.5171 15.3876 15.3924 15.4947 15.2888L15.2166 15.0013C15.0088 15.2023 14.9462 15.4505 14.9613 15.6881C14.9759 15.9187 15.0631 16.1437 15.1584 16.3283L15.5139 16.1448ZM15.5189 15.2606C15.5188 15.2608 15.5207 15.2581 15.5259 15.2522C15.531 15.2465 15.5377 15.2393 15.5464 15.2305C15.5642 15.2125 15.5866 15.1913 15.6137 15.1661C15.6658 15.1175 15.7348 15.055 15.7986 14.9913C15.862 14.9281 15.9301 14.8542 15.9805 14.778C16.0248 14.7109 16.0873 14.5955 16.0603 14.4653L15.6686 14.5466C15.6611 14.5102 15.6806 14.5062 15.6468 14.5574C15.6191 14.5993 15.574 14.6504 15.5161 14.7082C15.4588 14.7653 15.3987 14.8197 15.3412 14.8732C15.2916 14.9193 15.2288 14.9782 15.1924 15.0294L15.5189 15.2606ZM16.0597 14.5494C16.0788 14.4637 16.0549 14.3859 16.0325 14.3345C16.0087 14.2796 15.9744 14.227 15.939 14.1798C15.8679 14.0849 15.7715 13.9849 15.6781 13.894C15.5843 13.8026 15.4843 13.7118 15.4075 13.6402C15.3681 13.6035 15.335 13.5721 15.3093 13.5461C15.2965 13.5332 15.2866 13.5227 15.2793 13.5144C15.2714 13.5056 15.2691 13.5021 15.2696 13.503L14.939 13.7281C14.9625 13.7626 14.9959 13.7981 15.025 13.8275C15.0567 13.8595 15.0947 13.8955 15.1348 13.9329C15.2169 14.0094 15.3094 14.0933 15.3991 14.1806C15.4892 14.2683 15.5673 14.3508 15.619 14.4197C15.645 14.4544 15.6592 14.4789 15.6656 14.4938C15.6735 14.512 15.6617 14.4964 15.6692 14.4625L16.0597 14.5494ZM15.2481 13.4765C15.1337 13.3582 14.9944 13.3063 14.8472 13.3258C14.7157 13.3431 14.6034 13.4145 14.5186 13.4823C14.4313 13.552 14.3511 13.6365 14.2859 13.7065C14.2146 13.7833 14.1671 13.8358 14.1293 13.8677L14.3867 14.1738C14.4489 14.1215 14.5197 14.0425 14.5788 13.9789C14.6442 13.9087 14.7066 13.8441 14.7684 13.7947C14.8326 13.7433 14.8756 13.7255 14.8996 13.7223C14.9081 13.7212 14.9247 13.7175 14.9605 13.7546L15.2481 13.4765ZM14.1147 13.8812C13.9353 14.0655 13.6502 14.0783 13.3899 13.9316L13.1935 14.28C13.559 14.4861 14.0575 14.5135 14.4013 14.1602L14.1147 13.8812ZM11.8797 14.8937C8.45015 14.9537 8.45473 20.05 11.8797 20.11L11.8867 19.71C8.9822 19.6592 8.98468 15.3444 11.8867 15.2936L11.8797 14.8937ZM11.8883 20.1099C15.3222 20.0223 15.3253 14.9815 11.8883 14.8937L11.8781 15.2936C14.7933 15.3681 14.7943 19.6356 11.8781 19.71L11.8883 20.1099ZM13.4236 15.9573C11.3636 13.9628 8.34454 16.9845 10.3371 19.0427L10.6245 18.7645C8.99623 17.0825 11.4631 14.6159 13.1454 16.2447L13.4236 15.9573ZM10.343 19.0485C12.4253 21.0305 15.4098 18.0441 13.4294 15.9631L13.1396 16.2389C14.7618 17.9434 12.3237 20.3816 10.6187 18.7587L10.343 19.0485Z" fill="#0066FF" mask="url(#path-16-outside-1_4941_1727)"/>
</svg>
