<svg width="34" height="34" viewBox="0 0 34 34" fill="none" xmlns="http://www.w3.org/2000/svg">
<path fill-rule="evenodd" clip-rule="evenodd" d="M25.9406 27.4719L16.5535 30L7.16622 27.4719L5 4H28.107L25.9406 27.4719Z" fill="#0066FF"/>
<path fill-rule="evenodd" clip-rule="evenodd" d="M16.5527 5.90039V27.9829L16.574 27.9887L24.1706 25.9428L25.9241 5.90039H16.5527Z" fill="#0066FF"/>
<path fill-rule="evenodd" clip-rule="evenodd" d="M16.5449 11.7692L9.82617 14.5678L10.049 17.3387L16.5449 14.5608L23.4548 11.6059L23.7413 8.77148L16.5449 11.7692Z" fill="white"/>
<mask id="mask0_4883_1365" style="mask-type:luminance" maskUnits="userSpaceOnUse" x="9" y="11" width="8" height="7">
<path fill-rule="evenodd" clip-rule="evenodd" d="M9.81836 11.7617H16.5605V17.3546H9.81836V11.7617Z" fill="url(#paint0_linear_4883_1365)"/>
</mask>
<g mask="url(#mask0_4883_1365)">
<path fill-rule="evenodd" clip-rule="evenodd" d="M9.82812 14.5682L10.0509 17.339L16.5468 14.5612V11.7695L9.82812 14.5682Z" fill="url(#paint1_linear_4883_1365)"/>
</g>
<mask id="mask1_4883_1365" style="mask-type:luminance" maskUnits="userSpaceOnUse" x="16" y="8" width="8" height="7">
<path fill-rule="evenodd" clip-rule="evenodd" d="M16.5312 8.75781H23.751V14.5705H16.5312V8.75781Z" fill="url(#paint2_linear_4883_1365)"/>
</mask>
<g mask="url(#mask1_4883_1365)">
<path fill-rule="evenodd" clip-rule="evenodd" d="M23.7413 8.77148L16.5449 11.7691V14.5607L23.4548 11.6059L23.7413 8.77148Z" fill="url(#paint3_linear_4883_1365)"/>
</g>
<path fill-rule="evenodd" clip-rule="evenodd" d="M9.83594 14.5703L10.0588 17.3412L20.0259 17.3729L19.8029 21.0674L16.5232 21.9909L13.3704 21.1947L13.1794 18.9016H10.2499L10.632 23.3286L16.5551 25.0802L22.446 23.3603L23.2102 14.5703H9.83594Z" fill="url(#paint4_linear_4883_1365)"/>
<path fill-rule="evenodd" clip-rule="evenodd" d="M16.5448 14.5703H9.82617L10.049 17.3412L16.5448 17.3619V14.5703ZM16.5448 21.982L16.513 21.9909L13.3607 21.1947L13.1696 18.9016H10.2402L10.6223 23.3286L16.5448 25.0802V21.982Z" fill="black" fill-opacity="0.05098"/>
<path fill-rule="evenodd" clip-rule="evenodd" d="M9.22266 8.77148H23.7428L23.4563 11.6059H9.57289L9.22266 8.77148Z" fill="url(#paint5_linear_4883_1365)"/>
<path fill-rule="evenodd" clip-rule="evenodd" d="M16.5464 8.77148H9.22266L9.57289 11.6059H16.5464V8.77148Z" fill="black" fill-opacity="0.05098"/>
<defs>
<linearGradient id="paint0_linear_4883_1365" x1="13.1894" y1="11.7734" x2="13.1894" y2="17.3429" gradientUnits="userSpaceOnUse">
<stop stop-color="white" stop-opacity="0"/>
<stop offset="0.388" stop-color="white"/>
<stop offset="1" stop-color="white" stop-opacity="0.831"/>
</linearGradient>
<linearGradient id="paint1_linear_4883_1365" x1="13.1875" y1="11.7695" x2="13.1875" y2="17.339" gradientUnits="userSpaceOnUse">
<stop stop-color="#D1D3D4"/>
<stop offset="0.388" stop-color="#D1D3D4"/>
<stop offset="1" stop-color="#D1D3D4"/>
</linearGradient>
<linearGradient id="paint2_linear_4883_1365" x1="20.1411" y1="8.7695" x2="20.1411" y2="14.5588" gradientUnits="userSpaceOnUse">
<stop stop-color="white" stop-opacity="0"/>
<stop offset="0.388" stop-color="white"/>
<stop offset="1" stop-color="white" stop-opacity="0.831"/>
</linearGradient>
<linearGradient id="paint3_linear_4883_1365" x1="20.1431" y1="8.77147" x2="20.1431" y2="14.5607" gradientUnits="userSpaceOnUse">
<stop stop-color="#D1D3D4"/>
<stop offset="0.388" stop-color="#D1D3D4"/>
<stop offset="1" stop-color="#D1D3D4"/>
</linearGradient>
<linearGradient id="paint4_linear_4883_1365" x1="9.83596" y1="19.8253" x2="23.2102" y2="19.8253" gradientUnits="userSpaceOnUse">
<stop stop-color="#E8E7E5"/>
<stop offset="1" stop-color="white"/>
</linearGradient>
<linearGradient id="paint5_linear_4883_1365" x1="9.22263" y1="10.1887" x2="23.7428" y2="10.1887" gradientUnits="userSpaceOnUse">
<stop stop-color="#E8E7E5"/>
<stop offset="1" stop-color="white"/>
</linearGradient>
</defs>
</svg>
