<svg width="25" height="25" viewBox="0 0 25 25" fill="none" xmlns="http://www.w3.org/2000/svg">
<path fill-rule="evenodd" clip-rule="evenodd" d="M4.78573 20.0842H4.42858C4.05002 20.0842 3.68661 19.9312 3.41875 19.6578C3.15088 19.3845 3 19.0128 3 18.6265V17.8977C3 17.5114 3.15089 17.1406 3.41875 16.8672C3.6866 16.5939 4.05 16.44 4.42858 16.44H6.49557C6.49557 16.44 10.7143 14.5267 10.718 14.5258L12.8555 13.5565C12.9662 13.5064 13.0939 13.5173 13.1948 13.5838C13.2957 13.6512 13.3573 13.766 13.3573 13.889V16.4765C14.1725 16.6459 14.7859 17.3812 14.7859 18.2622C14.7859 19.1441 14.1725 19.8793 13.3573 20.0478V22.6353C13.3573 22.7592 13.2957 22.874 13.1948 22.9414C13.0939 23.0079 12.9662 23.0189 12.8555 22.9688L6.92862 20.2812V22.6355C6.92862 22.8368 6.7688 22.9999 6.57148 22.9999H5.1429C4.94557 22.9999 4.78575 22.8368 4.78575 22.6355L4.78573 20.0842ZM10.5001 15.4224L6.9286 17.0413V19.483C7.98664 19.9632 12.6429 22.075 12.6429 22.075V14.4504L11.2144 15.0981V18.2621C11.2144 18.4635 11.0545 18.6266 10.8572 18.6266C10.6599 18.6266 10.5001 18.4635 10.5001 18.2621V15.4224ZM6.21431 17.1689H4.42858C4.2393 17.1689 4.05715 17.2454 3.92323 17.383C3.7893 17.5187 3.7143 17.7046 3.7143 17.8977V18.6266C3.7143 18.8197 3.7893 19.0056 3.92323 19.1422C4.05716 19.2789 4.2393 19.3554 4.42858 19.3554H6.21431V17.1689ZM13.3572 19.2935C13.7733 19.1432 14.0715 18.7387 14.0715 18.2622C14.0715 17.7866 13.7733 17.3821 13.3572 17.2308V19.2935ZM5.50002 20.0843V22.2708H6.21431V20.0843H5.50002ZM14.0715 10.202V11.3263C14.0715 11.9276 13.5956 12.4159 13.0072 12.4195L8.23485 12.4514L6.48304 14.494C6.38751 14.6052 6.23573 14.6471 6.09911 14.5988C5.9625 14.5514 5.86608 14.4239 5.85803 14.2763L5.74464 12.4132L4.4732 12.4141C4.18838 12.4141 3.91606 12.2993 3.71516 12.0943C3.51338 11.8893 3.40087 11.6114 3.40087 11.3208V6.2361C3.40087 5.63298 3.88035 5.14282 4.47231 5.14282H12.4804V4.09328C12.4804 3.80265 12.5938 3.52477 12.7947 3.31978C12.9947 3.11479 13.2679 3 13.5518 3H21.9286C22.2125 3 22.4848 3.11479 22.6866 3.31978C22.8875 3.52477 23 3.80265 23 4.09328V9.1087C23 9.39933 22.8875 9.6772 22.6866 9.88219C22.4848 10.0872 22.2125 10.202 21.9286 10.202L14.0715 10.202ZM12.4804 5.87182H4.47238C4.27505 5.87182 4.11523 6.03581 4.11523 6.23625V11.3209C4.11523 11.4184 4.15273 11.5104 4.2197 11.5788C4.28666 11.648 4.37773 11.6854 4.47238 11.6854L6.08044 11.6845C6.26973 11.6845 6.42598 11.8339 6.43759 12.027L6.51705 13.3472L7.80367 11.8485C7.87063 11.7692 7.96796 11.7246 8.06975 11.7237L13.0019 11.6909C13.1983 11.689 13.3573 11.5269 13.3573 11.3264V10.184C13.1457 10.1439 12.9483 10.04 12.7948 9.8824C12.5939 9.67741 12.4805 9.39954 12.4805 9.10891L12.4804 5.87182ZM13.784 9.47316H21.6975L19.2474 7.47429C19.0938 7.34857 19.0688 7.11899 19.1911 6.96137C19.3152 6.80466 19.5402 6.77916 19.6938 6.90488L22.2858 9.02037V4.09334C22.2858 4.07238 22.284 4.05325 22.2805 4.03412L19.1447 6.31907C18.2652 6.96137 17.0804 6.95225 16.2089 6.2972L13.199 4.03504C13.1963 4.05326 13.1946 4.0733 13.1946 4.09335V9.02038L15.7875 6.90489C15.9411 6.77916 16.1661 6.80467 16.2884 6.96138C16.4125 7.11899 16.3875 7.34859 16.233 7.4743L13.784 9.47316ZM21.4707 3.72889H13.9966L16.6332 5.71045C17.2555 6.17782 18.1019 6.18512 18.7305 5.72594L21.4707 3.72889ZM5.08475 9.25812C4.88743 9.25812 4.7276 9.09504 4.7276 8.8937C4.7276 8.69235 4.88743 8.52927 5.08475 8.52927H12.0553C12.2517 8.52927 12.4125 8.69235 12.4125 8.8937C12.4125 9.09504 12.2517 9.25812 12.0553 9.25812H5.08475ZM5.08475 7.90428C4.88743 7.90428 4.7276 7.7412 4.7276 7.53985C4.7276 7.33851 4.88743 7.17543 5.08475 7.17543H6.74458C6.9419 7.17543 7.10172 7.33851 7.10172 7.53985C7.10172 7.7412 6.9419 7.90428 6.74458 7.90428H5.08475ZM5.08475 10.6128C4.88743 10.6128 4.7276 10.4497 4.7276 10.2484C4.7276 10.0479 4.88743 9.88395 5.08475 9.88395H8.73575C8.93307 9.88395 9.09289 10.0479 9.09289 10.2484C9.09289 10.4497 8.93307 10.6128 8.73575 10.6128H5.08475ZM10.0633 10.6128C9.86598 10.6128 9.70616 10.4497 9.70616 10.2484C9.70616 10.0479 9.86598 9.88395 10.0633 9.88395H12.0553C12.2517 9.88395 12.4124 10.0479 12.4124 10.2484C12.4124 10.4497 12.2517 10.6128 12.0553 10.6128H10.0633ZM8.07222 7.90428C7.8749 7.90428 7.71508 7.7412 7.71508 7.53985C7.71508 7.33851 7.8749 7.17543 8.07222 7.17543H12.0553C12.2518 7.17543 12.4125 7.33851 12.4125 7.53985C12.4125 7.7412 12.2518 7.90428 12.0553 7.90428H8.07222ZM16.2142 18.6267C16.0169 18.6267 15.8571 18.4636 15.8571 18.2622C15.8571 18.0618 16.0169 17.8978 16.2142 17.8978H18.7144C18.9117 17.8978 19.0715 18.0618 19.0715 18.2622C19.0715 18.4636 18.9117 18.6267 18.7144 18.6267H16.2142ZM15.6446 16.8137C15.4651 16.8956 15.2535 16.8127 15.1731 16.6296C15.0937 16.4447 15.1749 16.2297 15.3553 16.1486L17.8554 15.0143C18.0349 14.9323 18.2465 15.0152 18.3269 15.1992C18.4063 15.3833 18.3251 15.5983 18.1447 15.6803L15.6446 16.8137ZM15.4446 20.4178C15.2642 20.3358 15.183 20.1208 15.2624 19.9367C15.3428 19.7527 15.5544 19.6698 15.7339 19.7518L18.1446 20.8451C18.325 20.9262 18.4062 21.1421 18.3268 21.3261C18.2464 21.5092 18.0348 21.5931 17.8553 21.5111L15.4446 20.4178Z" fill="white"/>
</svg>
