<svg width="34" height="34" viewBox="0 0 34 34" fill="none" xmlns="http://www.w3.org/2000/svg">
<path d="M30.6082 14.5635C30.5311 14.5 29.8323 13.9691 28.3328 13.9691C27.9449 13.9691 27.5433 14.0077 27.1554 14.0735C26.8718 12.0953 25.2294 11.1379 25.1636 11.088L24.762 10.8544L24.5034 11.2287C24.1813 11.7323 23.934 12.3017 23.7933 12.8825C23.5211 14.0077 23.689 15.0672 24.2584 15.9723C23.5733 16.3603 22.4617 16.451 22.228 16.4646H3.86819C3.38952 16.4646 3.00158 16.8525 3.00158 17.3312C2.97663 18.9351 3.24659 20.5367 3.8024 22.0499C4.43534 23.7037 5.37908 24.9333 6.59505 25.6819C7.96529 26.5213 10.2021 27 12.7225 27C13.8591 27 14.998 26.8956 16.1232 26.6892C17.6885 26.4056 19.1881 25.8612 20.5696 25.074C21.7085 24.4138 22.7294 23.5744 23.596 22.5921C25.0569 20.9496 25.9235 19.1143 26.5565 17.4855C26.6472 17.4855 26.7244 17.4855 26.8151 17.4855C28.4054 17.4855 29.3877 16.8525 29.9299 16.3081C30.2929 15.9723 30.5628 15.5572 30.7579 15.0921L30.8736 14.7564L30.6082 14.5635ZM19.2448 15.9338H21.7017C21.8174 15.9338 21.9217 15.843 21.9217 15.7137V13.5154C21.9217 13.3997 21.831 13.2954 21.7017 13.2954H19.2448C19.1291 13.2954 19.0247 13.3861 19.0247 13.5154V15.7137C19.0383 15.843 19.1291 15.9338 19.2448 15.9338ZM15.8192 9.63838H18.2761C18.3918 9.63838 18.4961 9.54764 18.4961 9.41833V7.22005C18.4961 7.10436 18.3918 7 18.2761 7H15.8192C15.7035 7 15.5991 7.09074 15.5991 7.22005V9.41833C15.5991 9.53403 15.7012 9.63838 15.8192 9.63838ZM15.8192 12.7917H18.2761C18.3918 12.7917 18.4961 12.6874 18.4961 12.5717V10.3734C18.4961 10.2577 18.3918 10.1534 18.2761 10.1534H15.8192C15.7035 10.1534 15.5991 10.2441 15.5991 10.3734V12.5717C15.5991 12.6897 15.7012 12.7917 15.8192 12.7917ZM12.4186 12.7917H14.8755C14.9911 12.7917 15.0955 12.6874 15.0955 12.5717V10.3734C15.0955 10.2577 15.0048 10.1534 14.8755 10.1534H12.4186C12.3029 10.1534 12.1985 10.2441 12.1985 10.3734V12.5717C12.1985 12.6897 12.2892 12.7917 12.4186 12.7917ZM8.96574 12.7917H11.4226C11.5383 12.7917 11.6427 12.6874 11.6427 12.5717V10.3734C11.6427 10.2577 11.5519 10.1534 11.4226 10.1534H8.96574C8.85004 10.1534 8.74569 10.2441 8.74569 10.3734V12.5717C8.7593 12.6897 8.85004 12.7917 8.96574 12.7917ZM15.8192 15.9338H18.2761C18.3918 15.9338 18.4961 15.843 18.4961 15.7137V13.5154C18.4961 13.3997 18.4054 13.2954 18.2761 13.2954H15.8192C15.7035 13.2954 15.5991 13.3861 15.5991 13.5154V15.7137C15.5991 15.843 15.7012 15.9338 15.8192 15.9338ZM12.4186 15.9338H14.8755C14.9911 15.9338 15.0955 15.843 15.0955 15.7137V13.5154C15.0955 13.3997 15.0048 13.2954 14.8755 13.2954H12.4186C12.3029 13.2954 12.1985 13.3861 12.1985 13.5154V15.7137C12.1985 15.843 12.2892 15.9338 12.4186 15.9338ZM8.96574 15.9338H11.4226C11.5383 15.9338 11.6427 15.843 11.6427 15.7137V13.5154C11.6427 13.3997 11.5519 13.2954 11.4226 13.2954H8.96574C8.85004 13.2954 8.74569 13.3861 8.74569 13.5154V15.7137C8.7593 15.843 8.85004 15.9338 8.96574 15.9338ZM5.57872 15.9338H8.03561C8.15131 15.9338 8.25567 15.843 8.25567 15.7137V13.5154C8.25567 13.3997 8.16492 13.2954 8.03561 13.2954H5.57872C5.46302 13.2954 5.35866 13.3861 5.35866 13.5154V15.7137C5.37227 15.843 5.46302 15.9338 5.57872 15.9338Z" fill="#0066FF"/>
</svg>
