<svg width="34" height="34" viewBox="0 0 34 34" fill="none" xmlns="http://www.w3.org/2000/svg">
<path fill-rule="evenodd" clip-rule="evenodd" d="M4 4H30V30H4V4Z" fill="#0066FF"/>
<path d="M8.63444 20.6111C8.45061 20.6111 8.2943 20.5498 8.16562 20.4273C8.03695 20.3016 7.97266 20.1524 7.97266 19.9797C7.97266 19.8037 8.03695 19.6529 8.16562 19.5273C8.2943 19.4016 8.45061 19.3388 8.63444 19.3388C8.82131 19.3388 8.97909 19.4016 9.10777 19.5273C9.23954 19.6529 9.30541 19.8037 9.30541 19.9797C9.30541 20.1524 9.23954 20.3016 9.10777 20.4273C8.97909 20.5498 8.82136 20.6111 8.63444 20.6111ZM15.9836 20.5074H14.7886L11.6404 15.5407C11.5618 15.4171 11.4956 15.2861 11.4427 15.1495H11.4152C11.4397 15.2941 11.4519 15.6035 11.4519 16.0778V20.5074H10.3948V13.75H11.6679L14.7105 18.5989C14.8392 18.8 14.9219 18.9382 14.9587 19.0136H14.977C14.9464 18.8346 14.9311 18.5314 14.9311 18.1041V13.75H15.9836V20.5074ZM21.1312 20.5074H17.4315V13.75H20.9841V14.7019H18.5253V16.6151H20.7912V17.5622H18.5253V19.5603H21.1312V20.5074ZM26.3893 14.7019H24.4957V20.5074H23.4019V14.7019H21.5129V13.75H26.3893V14.7019Z" fill="white"/>
</svg>
