<svg width="34" height="34" viewBox="0 0 34 34" fill="none" xmlns="http://www.w3.org/2000/svg">
<path d="M29.5652 22.0868H3.56522C3.41531 22.0868 3.27155 22.0273 3.16555 21.9213C3.05955 21.8153 3 21.6715 3 21.5216V9.08683C3.0009 8.33758 3.29893 7.61927 3.82873 7.08948C4.35853 6.55968 5.07684 6.26164 5.82609 6.26074H10.913V7.39118H5.82609C5.37637 7.39118 4.94508 7.56983 4.62708 7.88782C4.30908 8.20582 4.13043 8.63711 4.13043 9.08683V20.9564H29V9.08683C29 8.63711 28.8213 8.20582 28.5034 7.88782C28.1854 7.56983 27.7541 7.39118 27.3043 7.39118H22.2174V6.26074H27.3043C28.0536 6.26164 28.7719 6.55968 29.3017 7.08948C29.8315 7.61927 30.1295 8.33758 30.1304 9.08683V21.5216C30.1304 21.6715 30.0709 21.8153 29.9649 21.9213C29.8589 22.0273 29.7151 22.0868 29.5652 22.0868Z" fill="#0066FF"/>
<path d="M27.3043 26.6082H5.82609C5.07684 26.6073 4.35853 26.3093 3.82873 25.7795C3.29893 25.2497 3.0009 24.5314 3 23.7821L3 21.5213C3 21.3714 3.05955 21.2276 3.16555 21.1216C3.27155 21.0156 3.41531 20.9561 3.56522 20.9561H29.5652C29.7151 20.9561 29.8589 21.0156 29.9649 21.1216C30.0709 21.2276 30.1304 21.3714 30.1304 21.5213V23.7821C30.1295 24.5314 29.8315 25.2497 29.3017 25.7795C28.7719 26.3093 28.0536 26.6073 27.3043 26.6082ZM4.13043 22.0865V23.7821C4.13043 24.2319 4.30908 24.6632 4.62708 24.9811C4.94508 25.2991 5.37637 25.4778 5.82609 25.4778H27.3043C27.7541 25.4778 28.1854 25.2991 28.5034 24.9811C28.8213 24.6632 29 24.2319 29 23.7821V22.0865H4.13043Z" fill="#0066FF"/>
<path d="M18.2604 23.2178H14.8691V24.3482H18.2604V23.2178Z" fill="#0066FF"/>
<path d="M20.6915 29.9996H12.4394C12.3288 29.9996 12.2206 29.9672 12.1283 29.9064C12.0359 29.8456 11.9635 29.759 11.9199 29.6573C11.8762 29.5557 11.8634 29.4435 11.8829 29.3347C11.9024 29.2258 11.9534 29.1251 12.0296 29.045C12.8271 28.2062 13.0962 27.095 13.3228 25.9363L14.4323 26.1533C14.2878 27.0999 13.9914 28.017 13.5545 28.8692H19.5764C19.1383 28.0167 18.8409 27.099 18.6958 26.1516L19.8053 25.9346C20.0314 27.095 20.301 28.2062 21.0985 29.0433C21.1751 29.1232 21.2265 29.2238 21.2465 29.3327C21.2664 29.4415 21.2539 29.5539 21.2106 29.6557C21.1672 29.7576 21.0949 29.8444 21.0027 29.9056C20.9104 29.9667 20.8022 29.9994 20.6915 29.9996Z" fill="#0066FF"/>
<path d="M22.2174 28.8691H10.9131V29.9996H22.2174V28.8691Z" fill="#0066FF"/>
<path d="M27.3046 19.2608H24.4785V18.1304H26.7394V10.2173H25.609V9.08691H27.3046C27.4545 9.08691 27.5983 9.14646 27.7043 9.25246C27.8103 9.35846 27.8698 9.50223 27.8698 9.65213V18.6956C27.8698 18.8455 27.8103 18.9893 27.7043 19.0953C27.5983 19.2013 27.4545 19.2608 27.3046 19.2608Z" fill="#0066FF"/>
<path d="M8.65205 19.2608H5.82596C5.67605 19.2608 5.53229 19.2013 5.42629 19.0953C5.32029 18.9893 5.26074 18.8455 5.26074 18.6956V9.65213C5.26074 9.50223 5.32029 9.35846 5.42629 9.25246C5.53229 9.14646 5.67605 9.08691 5.82596 9.08691H7.52161V10.2173H6.39118V18.1304H8.65205V19.2608Z" fill="#0066FF"/>
<path d="M22.7824 19.2605H10.3477C10.205 19.2609 10.0675 19.2074 9.96262 19.1106C9.85779 19.0139 9.79342 18.881 9.78244 18.7388L9.26074 11.9562L10.3878 11.8691L10.871 18.1301H22.259L22.7406 11.8691L23.8677 11.9562L23.346 18.7388C23.335 18.8807 23.2709 19.0133 23.1664 19.11C23.0619 19.2068 22.9248 19.2605 22.7824 19.2605Z" fill="#0066FF"/>
<path d="M14.3045 12.4782H9.21756C9.06766 12.4782 8.92389 12.4187 8.81789 12.3127C8.71189 12.2067 8.65234 12.0629 8.65234 11.913V9.65213C8.65234 9.50223 8.71189 9.35846 8.81789 9.25246C8.92389 9.14646 9.06766 9.08691 9.21756 9.08691H12.6089V10.2173H9.78278V11.3478H14.3045V12.4782Z" fill="#0066FF"/>
<path d="M23.9131 12.4782H18.8262V11.3478H23.3479V10.2173H20.5218V9.08691H23.9131C24.063 9.08691 24.2068 9.14646 24.3128 9.25246C24.4188 9.35846 24.4783 9.50223 24.4783 9.65213V11.913C24.4783 12.0629 24.4188 12.2067 24.3128 12.3127C24.2068 12.4187 24.063 12.4782 23.9131 12.4782Z" fill="#0066FF"/>
<path d="M17.1304 14.1738H16V16.9999H17.1304V14.1738Z" fill="#0066FF"/>
<path d="M19.9566 13.6084H18.8262V16.9997H19.9566V13.6084Z" fill="#0066FF"/>
<path d="M14.3043 13.6084H13.1738V16.9997H14.3043V13.6084Z" fill="#0066FF"/>
<path d="M16.5657 13.0435C15.6714 13.0435 14.7971 12.7783 14.0535 12.2814C13.3099 11.7846 12.7304 11.0784 12.3881 10.2521C12.0459 9.4259 11.9564 8.51673 12.1308 7.63959C12.3053 6.76246 12.736 5.95677 13.3683 5.32439C14.0007 4.69201 14.8064 4.26136 15.6835 4.08689C16.5607 3.91241 17.4698 4.00196 18.2961 4.3442C19.1223 4.68644 19.8285 5.266 20.3254 6.0096C20.8222 6.75319 21.0874 7.62743 21.0874 8.52174C21.0861 9.72057 20.6093 10.8699 19.7616 11.7176C18.9139 12.5653 17.7645 13.0421 16.5657 13.0435ZM16.5657 5.13044C15.895 5.13044 15.2393 5.32933 14.6816 5.70197C14.1239 6.07462 13.6892 6.60427 13.4325 7.22395C13.1759 7.84363 13.1087 8.5255 13.2395 9.18335C13.3704 9.8412 13.6934 10.4455 14.1677 10.9198C14.642 11.394 15.2462 11.717 15.9041 11.8479C16.5619 11.9787 17.2438 11.9116 17.8635 11.6549C18.4832 11.3982 19.0128 10.9635 19.3855 10.4058C19.7581 9.84815 19.957 9.19248 19.957 8.52174C19.9561 7.62259 19.5985 6.76052 18.9627 6.12472C18.3269 5.48892 17.4648 5.13133 16.5657 5.13044Z" fill="#0066FF"/>
<path d="M17.861 8.35567L16.565 7.05963L15.2689 8.35567L14.4697 7.55645L16.1654 5.8608C16.2714 5.75484 16.4151 5.69531 16.565 5.69531C16.7149 5.69531 16.8586 5.75484 16.9646 5.8608L18.6602 7.55645L17.861 8.35567Z" fill="#0066FF"/>
<path d="M17.1304 6.82617H16V10.7827H17.1304V6.82617Z" fill="#0066FF"/>
<path d="M10.9127 9.6526H9.78223V8.51651C9.78322 7.65501 10.1115 6.82606 10.7006 6.19747C11.2898 5.56889 12.0957 5.18762 12.9554 5.13086H13.7387V6.26129H12.9915C12.425 6.30705 11.8964 6.56453 11.5112 6.98247C11.1259 7.4004 10.9122 7.94811 10.9127 8.51651V9.6526Z" fill="#0066FF"/>
<path d="M23.3481 9.6526H22.2177V8.51595C22.2164 7.94284 21.998 7.39151 21.6063 6.97311C21.2147 6.5547 20.6789 6.30034 20.1072 6.26129H19.3916V5.13086H20.1445C21.0088 5.18189 21.8212 5.56035 22.4164 6.18921C23.0116 6.81808 23.3447 7.6501 23.3481 8.51595V9.6526Z" fill="#0066FF"/>
</svg>
