<svg width="32" height="32" viewBox="0 0 32 32" fill="none" xmlns="http://www.w3.org/2000/svg">
<path d="M14.8979 18.8215C14.8251 18.8215 14.7522 18.8075 14.6836 18.7809L1.36123 13.4431C1.14281 13.3562 1 13.1448 1 12.9109C1 12.6757 1.14282 12.4657 1.36123 12.3788L14.6851 7.04096C14.8223 6.98635 14.9749 6.98635 15.1121 7.04096L28.4359 12.3788C28.653 12.4657 28.7958 12.6757 28.7958 12.9109C28.7958 13.1448 28.653 13.3562 28.4359 13.4431L15.1121 18.7809C15.0435 18.8075 14.9707 18.8215 14.8979 18.8215ZM3.11566 12.9112L14.8979 17.63L26.6801 12.9112L14.8979 8.19237L3.11566 12.9112Z" fill="#0066FF"/>
<path d="M14.898 25.0006C12.2209 25.0006 9.51574 24.1408 6.85685 22.4451V22.4465C6.69163 22.3401 6.59082 22.1581 6.59082 21.962V15.1483C6.59082 14.8319 6.84845 14.5742 7.16489 14.5742C7.48133 14.5742 7.73897 14.8319 7.73897 15.1483V21.6441C12.5542 24.607 17.2447 24.607 22.0582 21.6441V15.1483C22.0582 14.8319 22.3144 14.5756 22.6309 14.5756C22.9487 14.5756 23.2049 14.8319 23.2049 15.1483V21.962C23.2049 22.1581 23.1055 22.3401 22.9403 22.4465C20.28 24.1408 17.5752 25.0006 14.898 25.0006Z" fill="#0066FF"/>
<path d="M28.2215 16.4728C27.9037 16.4728 27.6475 16.2166 27.6475 15.9001V12.912C27.6475 12.5956 27.9037 12.3379 28.2215 12.3379C28.538 12.3379 28.7942 12.5955 28.7942 12.912V15.9001C28.7942 16.0514 28.734 16.1984 28.6262 16.3048C28.5184 16.4126 28.3727 16.4728 28.2215 16.4728Z" fill="#0066FF"/>
<path d="M28.2225 19.6832C27.3404 19.6832 26.5465 19.1525 26.2091 18.339C25.8716 17.5241 26.0579 16.5873 26.6809 15.9642C27.304 15.3411 28.2407 15.1548 29.0556 15.4923C29.869 15.8298 30.3997 16.6237 30.3997 17.5059C30.3983 18.7073 29.4238 19.6818 28.2225 19.6832ZM28.2225 16.4739C27.8052 16.4739 27.4286 16.7245 27.269 17.111C27.1094 17.496 27.1976 17.9399 27.4916 18.234C27.787 18.5294 28.2309 18.6176 28.6159 18.458C29.0009 18.2984 29.253 17.9231 29.253 17.5059C29.2516 16.936 28.7909 16.4753 28.2225 16.4739Z" fill="#0066FF"/>
<path d="M30.2483 24.3822H26.1947C26.0253 24.3822 25.8643 24.3066 25.7551 24.1764C25.6459 24.0461 25.5996 23.8739 25.6304 23.7073L26.5406 18.5544C26.598 18.2449 26.8948 18.0405 27.2042 18.0951C27.5137 18.1497 27.7223 18.4438 27.6705 18.7546L26.8794 23.2354H29.5649L28.7724 18.7546C28.7444 18.6034 28.778 18.448 28.8648 18.3219C28.9517 18.1959 29.0861 18.1105 29.2373 18.0839C29.3871 18.0573 29.5425 18.0923 29.6671 18.1805C29.7932 18.2687 29.8772 18.4032 29.9024 18.5544L30.8125 23.7073C30.8433 23.8739 30.7971 24.0462 30.6879 24.1764C30.5786 24.3066 30.4177 24.3822 30.2483 24.3822Z" fill="#0066FF"/>
</svg>
