<svg width="34" height="34" viewBox="0 0 34 34" fill="none" xmlns="http://www.w3.org/2000/svg">
<path d="M18.168 17.0006C18.168 14.2615 20.3333 12.043 23.0023 12.043C25.6735 12.043 27.8367 14.2593 27.8367 17.0006C27.8367 19.7397 25.6735 21.9582 23.0023 21.9582C20.3355 21.9582 18.168 19.7418 18.168 17.0006Z" fill="#0066FF"/>
<path d="M8.5 26.9168C8.5 24.1777 10.6654 21.957 13.3344 21.957H18.1688V26.9168C18.1688 29.6538 16.0034 31.8744 13.3344 31.8744C10.6654 31.8744 8.5 29.6538 8.5 26.9168Z" fill="#0066FF"/>
<path d="M18.168 2.125V12.0424H23.0023C25.6735 12.0424 27.8367 9.82175 27.8367 7.08262C27.8367 4.34562 25.6735 2.125 23.0023 2.125H18.168Z" fill="#0066FF"/>
<path d="M8.5 7.08262C8.5 9.82175 10.6654 12.0424 13.3344 12.0424H18.1688V2.125H13.3344C10.6654 2.125 8.5 4.34562 8.5 7.08262Z" fill="#0066FF"/>
<path d="M8.5 17.0006C8.5 19.7397 10.6654 21.9582 13.3344 21.9582H18.1688V12.043H13.3344C10.6654 12.043 8.5 14.2593 8.5 17.0006Z" fill="#0066FF"/>
</svg>
