<svg width="32" height="32" viewBox="0 0 32 32" fill="none" xmlns="http://www.w3.org/2000/svg">
<path d="M25.6001 12.8C25.7062 12.8 25.8079 12.7578 25.8829 12.6828C25.9579 12.6078 26.0001 12.5061 26.0001 12.4V11.2H26.8001C26.9062 11.2 27.0079 11.1578 27.0829 11.0828C27.1579 11.0078 27.2001 10.9061 27.2001 10.8V9.59996H27.6001C27.7062 9.59996 27.8079 9.55782 27.8829 9.48281C27.9579 9.40779 28.0001 9.30605 28.0001 9.19996V7.19996C27.9998 7.11009 27.9693 7.02293 27.9134 6.95254C27.8575 6.88215 27.7796 6.83263 27.6921 6.81196L16.092 4.01195C16.0317 3.99602 15.9683 3.99602 15.908 4.01195L4.308 6.81196C4.22054 6.83263 4.14258 6.88215 4.08671 6.95254C4.03083 7.02293 4.00029 7.11009 4 7.19996V9.19996C4 9.30605 4.04214 9.40779 4.11716 9.48281C4.19217 9.55782 4.29391 9.59996 4.4 9.59996H4.8V10.8C4.8 10.9061 4.84215 11.0078 4.91716 11.0828C4.99218 11.1578 5.09392 11.2 5.2 11.2H6.00001V12.4C6.00001 12.5061 6.04215 12.6078 6.11717 12.6828C6.19218 12.7578 6.29392 12.8 6.40001 12.8H6.80001V24H6.40001C6.29392 24 6.19218 24.0421 6.11717 24.1171C6.04215 24.1922 6.00001 24.2939 6.00001 24.4V25.6H4.4C4.29391 25.6 4.19217 25.6421 4.11716 25.7172C4.04214 25.7922 4 25.8939 4 26V27.6C4 27.7061 4.04214 27.8078 4.11716 27.8828C4.19217 27.9579 4.29391 28 4.4 28H27.6001C27.7062 28 27.8079 27.9579 27.8829 27.8828C27.9579 27.8078 28.0001 27.7061 28.0001 27.6V26C28.0001 25.8939 27.9579 25.7922 27.8829 25.7172C27.8079 25.6421 27.7062 25.6 27.6001 25.6H26.0001V24.4C26.0001 24.2939 25.9579 24.1922 25.8829 24.1171C25.8079 24.0421 25.7062 24 25.6001 24H25.2001V12.8H25.6001ZM4.8 8.79996V7.51596L16 4.81196L27.2001 7.51596V8.79996H4.8ZM5.60001 10.4V9.59996H26.4001V10.4H5.60001ZM25.2001 24.8V25.6H22.0001V24.8H25.2001ZM22.8001 24V12.8H24.4001V24H22.8001ZM22.0001 24H21.6001C21.494 24 21.3922 24.0421 21.3172 24.1171C21.2422 24.1922 21.2001 24.2939 21.2001 24.4V25.6H19.2001V24.8H19.6001C19.7061 24.8 19.8079 24.7579 19.8829 24.6828C19.9579 24.6078 20.0001 24.5061 20.0001 24.4V22.8C20.0001 22.6939 19.9579 22.5922 19.8829 22.5171C19.8079 22.4421 19.7061 22.4 19.6001 22.4H19.2001V21.6H19.6001C19.7061 21.6 19.8079 21.5578 19.8829 21.4828C19.9579 21.4078 20.0001 21.3061 20.0001 21.2V19.6C20.0001 19.4939 19.9579 19.3922 19.8829 19.3171C19.8079 19.2421 19.7061 19.2 19.6001 19.2H18.2561C18.8368 18.733 19.2583 18.0973 19.4624 17.3806C19.6665 16.6639 19.6432 15.9015 19.3956 15.1986C19.1481 14.4957 18.6885 13.887 18.0803 13.4564C17.4721 13.0258 16.7452 12.7945 16 12.7945C15.2548 12.7945 14.528 13.0258 13.9198 13.4564C13.3116 13.887 12.852 14.4957 12.6045 15.1986C12.3569 15.9015 12.3336 16.6639 12.5377 17.3806C12.7418 18.0973 13.1633 18.733 13.744 19.2H13.2C13.0939 19.2 12.9922 19.2421 12.9172 19.3171C12.8422 19.3922 12.8 19.4939 12.8 19.6V20.8H12.4C12.2939 20.8 12.1922 20.8421 12.1172 20.9171C12.0422 20.9922 12 21.0939 12 21.2V22.8C12 22.9061 12.0422 23.0078 12.1172 23.0828C12.1922 23.1578 12.2939 23.2 12.4 23.2H12.8V24H12.4C12.2939 24 12.1922 24.0421 12.1172 24.1171C12.0422 24.1922 12 24.2939 12 24.4V25.6H10.8V24.4C10.8 24.2939 10.7579 24.1922 10.6829 24.1171C10.6079 24.0421 10.5061 24 10.4 24H10V12.8H10.4C10.5061 12.8 10.6079 12.7578 10.6829 12.6828C10.7579 12.6078 10.8 12.5061 10.8 12.4V11.2H21.2001V12.4C21.2001 12.5061 21.2422 12.6078 21.3172 12.6828C21.3922 12.7578 21.494 12.8 21.6001 12.8H22.0001V24ZM19.2001 20V20.8H13.6V20H19.2001ZM13.2 16.4C13.2 15.8462 13.3643 15.3048 13.6719 14.8444C13.9796 14.3839 14.4169 14.025 14.9285 13.8131C15.4402 13.6012 16.0032 13.5457 16.5463 13.6538C17.0894 13.7618 17.5884 14.0285 17.98 14.4201C18.3715 14.8117 18.6382 15.3106 18.7463 15.8537C18.8543 16.3969 18.7988 16.9599 18.5869 17.4715C18.375 17.9831 18.0161 18.4204 17.5556 18.7281C17.0952 19.0358 16.5538 19.2 16 19.2C15.2577 19.1991 14.546 18.9039 14.0211 18.3789C13.4962 17.854 13.2009 17.1423 13.2 16.4ZM18.4001 21.6V22.4H12.8V21.6H18.4001ZM13.6 24V23.2H19.2001V24H13.6ZM18.4001 24.8V25.6H12.8V24.8H18.4001ZM6.80001 12V11.2H10V12H6.80001ZM9.20002 12.8V24H7.60001V12.8H9.20002ZM6.80001 24.8H10V25.6H6.80001V24.8ZM27.2001 26.4V27.2H4.8V26.4H27.2001ZM22.0001 12V11.2H25.2001V12H22.0001Z" fill="#0066FF"/>
<path d="M16.0004 8.4002C16.3168 8.4002 16.6262 8.30636 16.8893 8.13055C17.1524 7.95474 17.3575 7.70486 17.4786 7.41249C17.5997 7.12013 17.6314 6.79842 17.5697 6.48805C17.5079 6.17768 17.3555 5.89259 17.1318 5.66883C16.908 5.44506 16.6229 5.29268 16.3125 5.23094C16.0022 5.1692 15.6805 5.20089 15.3881 5.32199C15.0957 5.44309 14.8459 5.64817 14.67 5.91128C14.4942 6.1744 14.4004 6.48375 14.4004 6.8002C14.4004 7.22455 14.569 7.63151 14.869 7.93157C15.1691 8.23163 15.576 8.4002 16.0004 8.4002ZM16.0004 6.0002C16.1586 6.0002 16.3133 6.04712 16.4449 6.13502C16.5764 6.22293 16.679 6.34787 16.7395 6.49405C16.8001 6.64023 16.8159 6.80109 16.785 6.95627C16.7542 7.11146 16.678 7.254 16.5661 7.36589C16.4542 7.47777 16.3117 7.55396 16.1565 7.58483C16.0013 7.6157 15.8404 7.59985 15.6942 7.5393C15.5481 7.47875 15.4231 7.37622 15.3352 7.24466C15.2473 7.1131 15.2004 6.95842 15.2004 6.8002C15.2004 6.58803 15.2847 6.38454 15.4347 6.23451C15.5847 6.08448 15.7882 6.0002 16.0004 6.0002Z" fill="#0066FF"/>
<path d="M16.8004 15.6H17.6004C17.6004 15.2817 17.474 14.9765 17.2489 14.7515C17.0239 14.5264 16.7187 14.4 16.4004 14.4V14H15.6004V14.4C15.2821 14.4 14.9769 14.5264 14.7519 14.7515C14.5268 14.9765 14.4004 15.2817 14.4004 15.6C14.4004 15.9183 14.5268 16.2235 14.7519 16.4485C14.9769 16.6736 15.2821 16.8 15.6004 16.8V17.6C15.4943 17.6 15.3926 17.5579 15.3176 17.4828C15.2425 17.4078 15.2004 17.3061 15.2004 17.2H14.4004C14.4004 17.5183 14.5268 17.8235 14.7519 18.0485C14.9769 18.2736 15.2821 18.4 15.6004 18.4V18.8H16.4004V18.4C16.7187 18.4 17.0239 18.2736 17.2489 18.0485C17.474 17.8235 17.6004 17.5183 17.6004 17.2C17.6004 16.8817 17.474 16.5765 17.2489 16.3515C17.0239 16.1264 16.7187 16 16.4004 16V15.2C16.5065 15.2 16.6082 15.2421 16.6832 15.3172C16.7583 15.3922 16.8004 15.4939 16.8004 15.6ZM16.8004 17.2C16.8004 17.3061 16.7583 17.4078 16.6832 17.4828C16.6082 17.5579 16.5065 17.6 16.4004 17.6V16.8C16.5065 16.8 16.6082 16.8421 16.6832 16.9172C16.7583 16.9922 16.8004 17.0939 16.8004 17.2ZM15.6004 16C15.4943 16 15.3926 15.9579 15.3176 15.8828C15.2425 15.8078 15.2004 15.7061 15.2004 15.6C15.2004 15.4939 15.2425 15.3922 15.3176 15.3172C15.3926 15.2421 15.4943 15.2 15.6004 15.2V16Z" fill="#0066FF"/>
</svg>
