<svg width="32" height="32" viewBox="0 0 32 32" fill="none" xmlns="http://www.w3.org/2000/svg">
<path d="M29.3913 22.087H28.9565V16.8696C28.9525 16.7638 28.914 16.6624 28.8468 16.5806L25.3685 12.6676C25.3277 12.6217 25.2776 12.585 25.2216 12.5599C25.1656 12.5347 25.1049 12.5217 25.0435 12.5217H20.2609V10.7826C20.2609 10.6673 20.2151 10.5567 20.1335 10.4752C20.052 10.3936 19.9414 10.3478 19.8261 10.3478H17.6522C17.5369 10.3478 17.4263 10.3936 17.3447 10.4752C17.2632 10.5567 17.2174 10.6673 17.2174 10.7826C17.2174 10.8979 17.2632 11.0085 17.3447 11.09C17.4263 11.1716 17.5369 11.2174 17.6522 11.2174H19.3913V22.087H10.3427C10.1145 21.6905 9.78583 21.3612 9.38981 21.1322C8.99379 20.9032 8.54442 20.7826 8.08696 20.7826C7.6295 20.7826 7.18012 20.9032 6.7841 21.1322C6.38808 21.3612 6.05941 21.6905 5.8312 22.087H3.73913V11.2174H5.47826C5.59357 11.2174 5.70416 11.1716 5.7857 11.09C5.86724 11.0085 5.91304 10.8979 5.91304 10.7826C5.91304 10.6673 5.86724 10.5567 5.7857 10.4752C5.70416 10.3936 5.59357 10.3478 5.47826 10.3478H3.30435C3.18904 10.3478 3.07845 10.3936 2.99691 10.4752C2.91537 10.5567 2.86957 10.6673 2.86957 10.7826V22.087H2.43478C2.31947 22.087 2.20888 22.1328 2.12734 22.2143C2.04581 22.2958 2 22.4064 2 22.5217V24.2609C2 24.3762 2.04581 24.4868 2.12734 24.5683C2.20888 24.6498 2.31947 24.6957 2.43478 24.6957H5.8312C6.05941 25.0921 6.38808 25.4214 6.7841 25.6504C7.18012 25.8794 7.6295 26 8.08696 26C8.54442 26 8.99379 25.8794 9.38981 25.6504C9.78583 25.4214 10.1145 25.0921 10.3427 24.6957H21.9182C22.1464 25.0921 22.475 25.4214 22.8711 25.6504C23.2671 25.8794 23.7165 26 24.1739 26C24.6314 26 25.0808 25.8794 25.4768 25.6504C25.8728 25.4214 26.2015 25.0921 26.4297 24.6957H29.3913C29.5066 24.6957 29.6172 24.6498 29.6987 24.5683C29.7803 24.4868 29.8261 24.3762 29.8261 24.2609V22.5217C29.8261 22.4064 29.7803 22.2958 29.6987 22.2143C29.6172 22.1328 29.5066 22.087 29.3913 22.087ZM28.087 19.913H27.2174V19.0435H28.087V19.913ZM27.5535 16.4348H22V13.3913H24.8482L27.5535 16.4348ZM20.2609 13.3913H21.1304V16.8696C21.1304 16.9849 21.1762 17.0955 21.2578 17.177C21.3393 17.2585 21.4499 17.3043 21.5652 17.3043H28.087V18.1739H26.7826C26.6673 18.1739 26.5567 18.2197 26.4752 18.3013C26.3936 18.3828 26.3478 18.4934 26.3478 18.6087V20.3478C26.3478 20.4631 26.3936 20.5737 26.4752 20.6553C26.5567 20.7368 26.6673 20.7826 26.7826 20.7826H28.087V22.087H26.4297C26.2015 21.6905 25.8728 21.3612 25.4768 21.1322C25.0808 20.9032 24.6314 20.7826 24.1739 20.7826C23.7165 20.7826 23.2671 20.9032 22.8711 21.1322C22.475 21.3612 22.1464 21.6905 21.9182 22.087H20.2609V13.3913ZM2.86957 23.8261V22.9565H5.51753C5.46517 23.244 5.46517 23.5386 5.51753 23.8261H2.86957ZM8.08696 25.1304C7.74299 25.1304 7.40675 25.0284 7.12075 24.8373C6.83475 24.6462 6.61184 24.3746 6.48021 24.0568C6.34858 23.7391 6.31414 23.3894 6.38124 23.052C6.44835 22.7147 6.61398 22.4048 6.85721 22.1616C7.10043 21.9183 7.41031 21.7527 7.74767 21.6856C8.08503 21.6185 8.43471 21.6529 8.75249 21.7846C9.07028 21.9162 9.34189 22.1391 9.53299 22.4251C9.72409 22.7111 9.82609 23.0473 9.82609 23.3913C9.82556 23.8524 9.64216 24.2944 9.31613 24.6205C8.99009 24.9465 8.54804 25.1299 8.08696 25.1304ZM10.6564 23.8261C10.7087 23.5386 10.7087 23.244 10.6564 22.9565H21.6045C21.5521 23.244 21.5521 23.5386 21.6045 23.8261H10.6564ZM24.1739 25.1304C23.8299 25.1304 23.4937 25.0284 23.2077 24.8373C22.9217 24.6462 22.6988 24.3746 22.5672 24.0568C22.4355 23.7391 22.4011 23.3894 22.4682 23.052C22.5353 22.7147 22.7009 22.4048 22.9442 22.1616C23.1874 21.9183 23.4973 21.7527 23.8346 21.6856C24.172 21.6185 24.5217 21.6529 24.8395 21.7846C25.1572 21.9162 25.4289 22.1391 25.6199 22.4251C25.811 22.7111 25.913 23.0473 25.913 23.3913C25.9125 23.8524 25.7291 24.2944 25.4031 24.6205C25.077 24.9465 24.635 25.1299 24.1739 25.1304ZM28.9565 23.8261H26.7433C26.7957 23.5386 26.7957 23.244 26.7433 22.9565H28.9565V23.8261ZM24.1739 22.087C23.9159 22.087 23.6638 22.1635 23.4493 22.3068C23.2348 22.4501 23.0676 22.6538 22.9689 22.8922C22.8701 23.1305 22.8443 23.3927 22.8946 23.6458C22.945 23.8988 23.0692 24.1312 23.2516 24.3136C23.434 24.496 23.6664 24.6203 23.9194 24.6706C24.1725 24.7209 24.4347 24.6951 24.6731 24.5964C24.9114 24.4976 25.1151 24.3305 25.2584 24.116C25.4018 23.9015 25.4783 23.6493 25.4783 23.3913C25.4779 23.0455 25.3403 22.7139 25.0958 22.4694C24.8513 22.2249 24.5197 22.0873 24.1739 22.087ZM24.1739 23.8261C24.0879 23.8261 24.0039 23.8006 23.9324 23.7528C23.8609 23.705 23.8051 23.6371 23.7722 23.5577C23.7393 23.4782 23.7307 23.3908 23.7475 23.3065C23.7643 23.2221 23.8057 23.1447 23.8665 23.0839C23.9273 23.0231 24.0048 22.9817 24.0891 22.9649C24.1734 22.9481 24.2609 22.9567 24.3403 22.9896C24.4197 23.0225 24.4876 23.0783 24.5354 23.1498C24.5832 23.2213 24.6087 23.3053 24.6087 23.3913C24.6085 23.5066 24.5627 23.6171 24.4812 23.6986C24.3997 23.7801 24.2892 23.8259 24.1739 23.8261ZM8.08696 22.087C7.82898 22.087 7.5768 22.1635 7.3623 22.3068C7.1478 22.4501 6.98062 22.6538 6.8819 22.8922C6.78317 23.1305 6.75734 23.3927 6.80767 23.6458C6.858 23.8988 6.98223 24.1312 7.16464 24.3136C7.34706 24.496 7.57947 24.6203 7.83249 24.6706C8.08551 24.7209 8.34777 24.6951 8.58611 24.5964C8.82445 24.4976 9.02816 24.3305 9.17148 24.116C9.31481 23.9015 9.3913 23.6493 9.3913 23.3913C9.39093 23.0455 9.25338 22.7139 9.00885 22.4694C8.76432 22.2249 8.43278 22.0873 8.08696 22.087ZM8.08696 23.8261C8.00096 23.8261 7.9169 23.8006 7.8454 23.7528C7.7739 23.705 7.71818 23.6371 7.68527 23.5577C7.65236 23.4782 7.64375 23.3908 7.66053 23.3065C7.6773 23.2221 7.71871 23.1447 7.77952 23.0839C7.84032 23.0231 7.9178 22.9817 8.00213 22.9649C8.08647 22.9481 8.17389 22.9567 8.25334 22.9896C8.33279 23.0225 8.40069 23.0783 8.44847 23.1498C8.49624 23.2213 8.52174 23.3053 8.52174 23.3913C8.52159 23.5066 8.47573 23.6171 8.39423 23.6986C8.31272 23.7801 8.20222 23.8259 8.08696 23.8261ZM21.5652 19.0435C21.4499 19.0435 21.3393 18.9977 21.2578 18.9161C21.1762 18.8346 21.1304 18.724 21.1304 18.6087C21.1304 18.4934 21.1762 18.3828 21.2578 18.3013C21.3393 18.2197 21.4499 18.1739 21.5652 18.1739H22.4348C22.5501 18.1739 22.6607 18.2197 22.7422 18.3013C22.8238 18.3828 22.8696 18.4934 22.8696 18.6087C22.8696 18.724 22.8238 18.8346 22.7422 18.9161C22.6607 18.9977 22.5501 19.0435 22.4348 19.0435H21.5652ZM11.2937 18.0786C11.3707 18.1403 11.4665 18.1739 11.5652 18.1739C11.6639 18.1739 11.7597 18.1403 11.8367 18.0786C12.021 17.9313 16.3478 14.4279 16.3478 10.7826C16.3478 9.51418 15.8439 8.29771 14.947 7.40079C14.0501 6.50388 12.8336 6 11.5652 6C10.2968 6 9.08032 6.50388 8.1834 7.40079C7.28649 8.29771 6.78261 9.51418 6.78261 10.7826C6.78261 14.4279 11.1094 17.9313 11.2937 18.0786ZM11.5652 6.86957C12.6027 6.87077 13.5972 7.28342 14.3308 8.017C15.0644 8.75058 15.4771 9.74517 15.4783 10.7826C15.4783 13.5214 12.4934 16.3541 11.5652 17.1685C10.6371 16.3541 7.65217 13.5214 7.65217 10.7826C7.65338 9.74517 8.06603 8.75058 8.79961 8.017C9.53319 7.28342 10.5278 6.87077 11.5652 6.86957ZM11.1304 12.5217C11.0733 12.5218 11.0168 12.5106 10.964 12.4887C10.9113 12.4669 10.8634 12.4348 10.823 12.3943L9.95348 11.5248C9.87317 11.443 9.8284 11.3328 9.82892 11.2182C9.82944 11.1036 9.8752 10.9938 9.95625 10.9128C10.0373 10.8317 10.1471 10.786 10.2617 10.7854C10.3763 10.7849 10.4865 10.8297 10.5683 10.91L11.1304 11.4721L12.5622 10.0404C12.6439 9.95973 12.7542 9.91465 12.869 9.91501C12.9838 9.91538 13.0939 9.96115 13.175 10.0423C13.2562 10.1235 13.302 10.2336 13.3024 10.3484C13.3027 10.4632 13.2576 10.5735 13.177 10.6552L11.4378 12.3943C11.3975 12.4348 11.3496 12.4669 11.2968 12.4887C11.2441 12.5106 11.1875 12.5218 11.1304 12.5217Z" fill="#0066FF"/>
</svg>
