<svg width="25" height="25" viewBox="0 0 25 25" fill="none" xmlns="http://www.w3.org/2000/svg">
<path d="M19.4839 9.77337H14.7571L14.9868 8.39656L12.3871 5.0542L9.78743 8.39656L10.0171 9.77337H5.29032C4.57871 9.77337 4 10.3521 4 11.0637V19.4511C4 20.1627 4.57871 20.7414 5.29032 20.7414H9.48388V22.3544H8.19356V22.9996H9.48388H15.2903H16.5807V22.3544H15.2903V20.7414H19.4839C20.1955 20.7414 20.7742 20.1627 20.7742 19.4511V11.0637C20.7742 10.3521 20.1955 9.77337 19.4839 9.77337ZM14.3226 12.9993C14.3226 13.177 14.1781 13.3219 14 13.3219H10.7742C10.5961 13.3219 10.4516 13.177 10.4516 12.9993C10.4516 12.8215 10.5961 12.6767 10.7742 12.6767H14C14.1781 12.6767 14.3226 12.8215 14.3226 12.9993ZM13.6778 16.2252H11.0968V13.967H13.6774L13.6778 16.2252ZM10.4058 12.1051C10.0545 12.2505 9.80646 12.596 9.80646 12.9993C9.80646 13.4193 10.0771 13.7741 10.4516 13.9077V16.2252C10.4516 16.581 10.741 16.8704 11.0968 16.8704H13.6774C14.0332 16.8704 14.3226 16.581 14.3226 16.2252V13.9077C14.6971 13.7741 14.9678 13.4193 14.9678 12.9993C14.9678 12.596 14.7197 12.2505 14.3684 12.1051L14.4345 11.7089H18.8387V18.8059H5.93549V11.7089H10.3397L10.4058 12.1051ZM12.7097 8.8056C12.7097 8.98335 12.5652 9.12819 12.3871 9.12819C12.209 9.12819 12.0645 8.98335 12.0645 8.8056C12.0645 8.62785 12.209 8.48301 12.3871 8.48301C12.5652 8.48301 12.7097 8.62785 12.7097 8.8056ZM12.0645 6.52005V7.89751C11.69 8.03106 11.4194 8.38591 11.4194 8.80592C11.4194 9.33949 11.8536 9.77369 12.3871 9.77369C12.9207 9.77369 13.3549 9.33949 13.3549 8.80592C13.3549 8.38591 13.0842 8.03106 12.7097 7.89751V6.52005L14.3036 8.56946L13.7268 12.0315H11.0471L10.4703 8.56946L12.0645 6.52005ZM14.6452 22.3544H10.129V20.7414H14.6452V22.3544ZM20.1291 19.4511C20.1291 19.8069 19.8397 20.0963 19.4839 20.0963H15.2903H9.48388H5.29032C4.93452 20.0963 4.64516 19.8069 4.64516 19.4511V11.0637C4.64516 10.7079 4.93452 10.4186 5.29032 10.4186H10.1245L10.2319 11.0637H5.29032V19.4511H19.4839V11.0637H14.542L14.6494 10.4186H19.4839C19.8397 10.4186 20.1291 10.7079 20.1291 11.0637V19.4511Z" fill="white"/>
<path d="M7.22751 4.93554C7.64751 4.93554 8.00235 4.66489 8.1359 4.29036H10.0746C8.93396 4.9749 8.1217 6.1459 7.92428 7.51626H7.22751V9.4518H9.163V7.51626H8.57622C8.88461 5.68847 10.4746 4.29036 12.3888 4.29036C14.303 4.29036 15.893 5.68847 16.2014 7.51626H15.6146V9.4518H17.5501V7.51626H16.8533C16.6559 6.1459 15.8433 4.9749 14.703 4.29036H16.3191C16.4527 4.66489 16.8075 4.93554 17.2275 4.93554C17.7611 4.93554 18.1953 4.50133 18.1953 3.96777C18.1953 3.43421 17.7611 3 17.2275 3C16.8075 3 16.4527 3.27065 16.3191 3.64518H8.1359C8.00235 3.27065 7.64751 3 7.22751 3C6.69396 3 6.25977 3.43421 6.25977 3.96777C6.25977 4.50133 6.69396 4.93554 7.22751 4.93554ZM8.51783 8.80662H7.87267V8.16144H8.51783V8.80662ZM16.9049 8.80662H16.2598V8.16144H16.9049V8.80662ZM17.2275 3.64518C17.4056 3.64518 17.5501 3.79002 17.5501 3.96777C17.5501 4.14552 17.4056 4.29036 17.2275 4.29036C17.0495 4.29036 16.9049 4.14552 16.9049 3.96777C16.9049 3.79002 17.0495 3.64518 17.2275 3.64518ZM7.22751 3.64518C7.40557 3.64518 7.55009 3.79002 7.55009 3.96777C7.55009 4.14552 7.40557 4.29036 7.22751 4.29036C7.04944 4.29036 6.90493 4.14552 6.90493 3.96777C6.90493 3.79002 7.04944 3.64518 7.22751 3.64518Z" fill="white"/>
<path d="M15.4298 15.064H14.7949V15.6989H15.4298V15.064Z" fill="white"/>
<path d="M16.6994 15.064H16.0645V15.6989H16.6994V15.064Z" fill="white"/>
<path d="M17.9699 15.064H17.335V15.6989H17.9699V15.064Z" fill="white"/>
<path d="M7.17399 15.064H6.53906V15.6989H7.17399V15.064Z" fill="white"/>
<path d="M8.44449 15.064H7.80957V15.6989H8.44449V15.064Z" fill="white"/>
<path d="M9.71402 15.064H9.0791V15.6989H9.71402V15.064Z" fill="white"/>
</svg>
