<svg width="32" height="32" viewBox="0 0 32 32" fill="none" xmlns="http://www.w3.org/2000/svg">
<mask id="path-1-outside-1_4926_1428" maskUnits="userSpaceOnUse" x="3" y="3" width="26" height="26" fill="black">
<rect fill="white" x="3" y="3" width="26" height="26"/>
<path d="M27.8019 21.0539C27.4369 20.4197 26.6893 20.1666 26.1351 20.4863L25.3709 20.929C25.3439 20.7446 25.2857 20.5634 25.19 20.3988C25.0195 20.0999 24.7564 19.876 24.4528 19.7645C24.1305 19.6469 23.8009 19.6708 23.5264 19.8281L22.7622 20.2707C22.7352 20.0864 22.6769 19.9052 22.5813 19.7406C22.2163 19.1063 21.4687 18.8532 20.9146 19.173L20.5787 19.3677C20.5465 19.2719 20.507 19.1761 20.456 19.0855C20.2855 18.7866 20.0225 18.5626 19.7189 18.4512C19.3966 18.3335 19.067 18.3554 18.7924 18.5147L14.988 20.7071C13.4492 19.9552 11.5996 19.5531 7.78262 20.4218V20.3447C7.78262 19.7771 7.31993 19.3125 6.75223 19.3125H5.03039C4.46373 19.3125 4 19.776 4 20.3447V26.2586C4 26.8262 4.46269 27.2907 5.03039 27.2907H6.75534C7.32201 27.2907 7.78574 26.8272 7.78574 26.2586V26.0242C9.32455 26.3065 10.0586 26.7626 10.7105 27.1678C11.4393 27.6209 12.0497 28 13.3909 28C14.8226 28 17.0851 27.5678 21.2191 26.3304C21.4031 26.3336 21.6267 26.344 21.8637 26.3575C22.9679 26.4158 24.3446 26.4877 25.0496 25.8191C25.3314 25.5493 25.4759 25.1921 25.4759 24.7577C25.4759 24.4859 25.4198 24.2432 25.3085 24.0349L27.4618 22.7893C27.7384 22.6289 27.9224 22.3549 27.9806 22.0165C28.0357 21.6915 27.9724 21.3518 27.8019 21.0539ZM23.8145 20.3343C23.9372 20.2624 24.0911 20.2541 24.2512 20.3134C24.4238 20.377 24.5808 20.5134 24.6827 20.6894C24.7888 20.8738 24.821 21.0842 24.7836 21.2685L21.4939 23.1724C21.3847 23.1776 21.2839 23.1808 21.1903 23.1808C20.5384 23.1037 19.9686 22.9912 19.4602 22.8558L23.8145 20.3343ZM21.2006 19.675C21.4699 19.5208 21.8692 19.6802 22.0688 20.0291C22.1749 20.2134 22.2071 20.4238 22.1697 20.6082L18.699 22.6162C18.1531 22.4214 17.6801 22.2006 17.2402 21.9684L21.2006 19.675ZM19.0764 19.0188C19.1991 18.9469 19.353 18.9386 19.5131 18.998C19.6857 19.0615 19.8427 19.198 19.9446 19.374C19.9976 19.4677 20.0319 19.5656 20.0506 19.6677L16.6465 21.6351C16.5166 21.5581 16.3855 21.4831 16.2556 21.406C16.0351 21.2779 15.8189 21.1498 15.6005 21.0269L19.0764 19.0188ZM7.20045 26.2554C7.20045 26.5012 7.00082 26.7033 6.75543 26.7033H5.03048C4.7851 26.7033 4.58338 26.5033 4.58338 26.2554V20.3416C4.58338 20.0958 4.78301 19.8937 5.03048 19.8937H6.75543C7.00081 19.8937 7.20045 20.0937 7.20045 20.3416V26.2554ZM24.6453 25.3889C24.1213 25.8878 22.833 25.818 21.8931 25.768C21.6373 25.7545 21.395 25.7409 21.1902 25.7409C18.7177 25.5784 18.0573 25.4826 17.0355 25.1327C16.8837 25.0796 16.7163 25.1618 16.6653 25.317C16.6123 25.4691 16.6944 25.6368 16.8494 25.6878C17.6479 25.9596 18.2551 26.0878 19.5455 26.2054C13.1812 28.0021 12.3026 27.4615 11.0225 26.6668C10.3436 26.2461 9.50553 25.7253 7.78902 25.4274L7.78798 21.0219C12.5584 19.9127 14.1387 20.8407 15.9625 21.9124C17.2029 22.6404 18.6087 23.4663 21.1447 23.7601C21.1551 23.7601 21.1655 23.7632 21.179 23.7632C21.3869 23.7632 21.6344 23.7497 21.8954 23.7361C22.8353 23.6851 24.1256 23.6184 24.6508 24.1152C24.813 24.2694 24.8931 24.4777 24.8931 24.7526C24.8879 25.0245 24.8078 25.2349 24.6456 25.389L24.6453 25.3889ZM27.4058 21.9101C27.3767 22.0758 27.2915 22.2059 27.1688 22.2778L24.9146 23.5818C24.3791 23.1818 23.5629 23.1069 22.7561 23.1183L26.4296 20.9936C26.6988 20.8394 27.0981 20.9988 27.2977 21.3477C27.3976 21.5258 27.437 21.7258 27.4058 21.9101ZM15.4705 17.3108C15.5267 17.3618 15.5953 17.3858 15.665 17.3858C15.7346 17.3858 15.8032 17.3618 15.8594 17.3108C16.4978 16.74 17.156 16.1505 17.7892 15.5641V17.2201C17.7892 17.3826 17.9191 17.5139 18.0824 17.5139H20.8826C21.0448 17.5139 21.1758 17.3837 21.1758 17.2201V15.21H23.1825C23.3447 15.21 23.4757 15.0798 23.4757 14.9163L23.4736 12.1135C23.4736 11.951 23.3437 11.8197 23.1804 11.8197H21.338C22.5326 10.2408 23.1159 8.82334 23.1159 7.49232C23.1201 5.56757 21.3817 4 19.2471 4C17.4317 4 16.4813 4.79989 15.6673 6.11742C14.85 4.79989 13.8997 4 12.0843 4C9.9497 4 8.21118 5.56749 8.21118 7.49339C8.21118 10.8231 11.9032 14.1216 15.4705 17.3108ZM22.8912 14.6258H20.8845C20.7223 14.6258 20.5913 14.756 20.5913 14.9195V16.9297H18.3746V14.9195C18.3746 14.757 18.2446 14.6258 18.0813 14.6258H16.0746V12.4053H18.0813C18.2435 12.4053 18.3746 12.2751 18.3746 12.1116V10.1014H20.5913V12.1116C20.5913 12.274 20.7213 12.4053 20.8845 12.4053H22.8912V14.6258ZM12.084 4.58664C13.6301 4.58664 14.4691 5.15427 15.4112 6.83737C15.4621 6.93111 15.5599 6.98631 15.6669 6.98631C15.773 6.98631 15.8697 6.93007 15.9227 6.83737C16.8647 5.15531 17.7038 4.58664 19.2499 4.58664C21.0622 4.58664 22.5396 5.89062 22.5396 7.49238C22.5396 8.57764 22.0925 9.74831 21.1817 11.0524V9.80988C21.1817 9.6474 21.0517 9.51616 20.8884 9.51616L18.0832 9.5172C17.921 9.5172 17.79 9.64739 17.79 9.81092V11.8211H15.7833C15.6211 11.8211 15.4901 11.9513 15.4901 12.1148V14.9197C15.4901 15.0822 15.62 15.2135 15.7833 15.2135H17.3138C16.771 15.7124 16.2148 16.2133 15.6658 16.7039C12.2545 13.6523 8.79712 10.5058 8.79712 7.49366C8.79712 5.89076 10.2716 4.58664 12.084 4.58664Z"/>
</mask>
<path d="M27.8019 21.0539C27.4369 20.4197 26.6893 20.1666 26.1351 20.4863L25.3709 20.929C25.3439 20.7446 25.2857 20.5634 25.19 20.3988C25.0195 20.0999 24.7564 19.876 24.4528 19.7645C24.1305 19.6469 23.8009 19.6708 23.5264 19.8281L22.7622 20.2707C22.7352 20.0864 22.6769 19.9052 22.5813 19.7406C22.2163 19.1063 21.4687 18.8532 20.9146 19.173L20.5787 19.3677C20.5465 19.2719 20.507 19.1761 20.456 19.0855C20.2855 18.7866 20.0225 18.5626 19.7189 18.4512C19.3966 18.3335 19.067 18.3554 18.7924 18.5147L14.988 20.7071C13.4492 19.9552 11.5996 19.5531 7.78262 20.4218V20.3447C7.78262 19.7771 7.31993 19.3125 6.75223 19.3125H5.03039C4.46373 19.3125 4 19.776 4 20.3447V26.2586C4 26.8262 4.46269 27.2907 5.03039 27.2907H6.75534C7.32201 27.2907 7.78574 26.8272 7.78574 26.2586V26.0242C9.32455 26.3065 10.0586 26.7626 10.7105 27.1678C11.4393 27.6209 12.0497 28 13.3909 28C14.8226 28 17.0851 27.5678 21.2191 26.3304C21.4031 26.3336 21.6267 26.344 21.8637 26.3575C22.9679 26.4158 24.3446 26.4877 25.0496 25.8191C25.3314 25.5493 25.4759 25.1921 25.4759 24.7577C25.4759 24.4859 25.4198 24.2432 25.3085 24.0349L27.4618 22.7893C27.7384 22.6289 27.9224 22.3549 27.9806 22.0165C28.0357 21.6915 27.9724 21.3518 27.8019 21.0539ZM23.8145 20.3343C23.9372 20.2624 24.0911 20.2541 24.2512 20.3134C24.4238 20.377 24.5808 20.5134 24.6827 20.6894C24.7888 20.8738 24.821 21.0842 24.7836 21.2685L21.4939 23.1724C21.3847 23.1776 21.2839 23.1808 21.1903 23.1808C20.5384 23.1037 19.9686 22.9912 19.4602 22.8558L23.8145 20.3343ZM21.2006 19.675C21.4699 19.5208 21.8692 19.6802 22.0688 20.0291C22.1749 20.2134 22.2071 20.4238 22.1697 20.6082L18.699 22.6162C18.1531 22.4214 17.6801 22.2006 17.2402 21.9684L21.2006 19.675ZM19.0764 19.0188C19.1991 18.9469 19.353 18.9386 19.5131 18.998C19.6857 19.0615 19.8427 19.198 19.9446 19.374C19.9976 19.4677 20.0319 19.5656 20.0506 19.6677L16.6465 21.6351C16.5166 21.5581 16.3855 21.4831 16.2556 21.406C16.0351 21.2779 15.8189 21.1498 15.6005 21.0269L19.0764 19.0188ZM7.20045 26.2554C7.20045 26.5012 7.00082 26.7033 6.75543 26.7033H5.03048C4.7851 26.7033 4.58338 26.5033 4.58338 26.2554V20.3416C4.58338 20.0958 4.78301 19.8937 5.03048 19.8937H6.75543C7.00081 19.8937 7.20045 20.0937 7.20045 20.3416V26.2554ZM24.6453 25.3889C24.1213 25.8878 22.833 25.818 21.8931 25.768C21.6373 25.7545 21.395 25.7409 21.1902 25.7409C18.7177 25.5784 18.0573 25.4826 17.0355 25.1327C16.8837 25.0796 16.7163 25.1618 16.6653 25.317C16.6123 25.4691 16.6944 25.6368 16.8494 25.6878C17.6479 25.9596 18.2551 26.0878 19.5455 26.2054C13.1812 28.0021 12.3026 27.4615 11.0225 26.6668C10.3436 26.2461 9.50553 25.7253 7.78902 25.4274L7.78798 21.0219C12.5584 19.9127 14.1387 20.8407 15.9625 21.9124C17.2029 22.6404 18.6087 23.4663 21.1447 23.7601C21.1551 23.7601 21.1655 23.7632 21.179 23.7632C21.3869 23.7632 21.6344 23.7497 21.8954 23.7361C22.8353 23.6851 24.1256 23.6184 24.6508 24.1152C24.813 24.2694 24.8931 24.4777 24.8931 24.7526C24.8879 25.0245 24.8078 25.2349 24.6456 25.389L24.6453 25.3889ZM27.4058 21.9101C27.3767 22.0758 27.2915 22.2059 27.1688 22.2778L24.9146 23.5818C24.3791 23.1818 23.5629 23.1069 22.7561 23.1183L26.4296 20.9936C26.6988 20.8394 27.0981 20.9988 27.2977 21.3477C27.3976 21.5258 27.437 21.7258 27.4058 21.9101ZM15.4705 17.3108C15.5267 17.3618 15.5953 17.3858 15.665 17.3858C15.7346 17.3858 15.8032 17.3618 15.8594 17.3108C16.4978 16.74 17.156 16.1505 17.7892 15.5641V17.2201C17.7892 17.3826 17.9191 17.5139 18.0824 17.5139H20.8826C21.0448 17.5139 21.1758 17.3837 21.1758 17.2201V15.21H23.1825C23.3447 15.21 23.4757 15.0798 23.4757 14.9163L23.4736 12.1135C23.4736 11.951 23.3437 11.8197 23.1804 11.8197H21.338C22.5326 10.2408 23.1159 8.82334 23.1159 7.49232C23.1201 5.56757 21.3817 4 19.2471 4C17.4317 4 16.4813 4.79989 15.6673 6.11742C14.85 4.79989 13.8997 4 12.0843 4C9.9497 4 8.21118 5.56749 8.21118 7.49339C8.21118 10.8231 11.9032 14.1216 15.4705 17.3108ZM22.8912 14.6258H20.8845C20.7223 14.6258 20.5913 14.756 20.5913 14.9195V16.9297H18.3746V14.9195C18.3746 14.757 18.2446 14.6258 18.0813 14.6258H16.0746V12.4053H18.0813C18.2435 12.4053 18.3746 12.2751 18.3746 12.1116V10.1014H20.5913V12.1116C20.5913 12.274 20.7213 12.4053 20.8845 12.4053H22.8912V14.6258ZM12.084 4.58664C13.6301 4.58664 14.4691 5.15427 15.4112 6.83737C15.4621 6.93111 15.5599 6.98631 15.6669 6.98631C15.773 6.98631 15.8697 6.93007 15.9227 6.83737C16.8647 5.15531 17.7038 4.58664 19.2499 4.58664C21.0622 4.58664 22.5396 5.89062 22.5396 7.49238C22.5396 8.57764 22.0925 9.74831 21.1817 11.0524V9.80988C21.1817 9.6474 21.0517 9.51616 20.8884 9.51616L18.0832 9.5172C17.921 9.5172 17.79 9.64739 17.79 9.81092V11.8211H15.7833C15.6211 11.8211 15.4901 11.9513 15.4901 12.1148V14.9197C15.4901 15.0822 15.62 15.2135 15.7833 15.2135H17.3138C16.771 15.7124 16.2148 16.2133 15.6658 16.7039C12.2545 13.6523 8.79712 10.5058 8.79712 7.49366C8.79712 5.89076 10.2716 4.58664 12.084 4.58664Z" fill="#0066FF"/>
<path d="M27.8019 21.0539C27.4369 20.4197 26.6893 20.1666 26.1351 20.4863L25.3709 20.929C25.3439 20.7446 25.2857 20.5634 25.19 20.3988C25.0195 20.0999 24.7564 19.876 24.4528 19.7645C24.1305 19.6469 23.8009 19.6708 23.5264 19.8281L22.7622 20.2707C22.7352 20.0864 22.6769 19.9052 22.5813 19.7406C22.2163 19.1063 21.4687 18.8532 20.9146 19.173L20.5787 19.3677C20.5465 19.2719 20.507 19.1761 20.456 19.0855C20.2855 18.7866 20.0225 18.5626 19.7189 18.4512C19.3966 18.3335 19.067 18.3554 18.7924 18.5147L14.988 20.7071C13.4492 19.9552 11.5996 19.5531 7.78262 20.4218V20.3447C7.78262 19.7771 7.31993 19.3125 6.75223 19.3125H5.03039C4.46373 19.3125 4 19.776 4 20.3447V26.2586C4 26.8262 4.46269 27.2907 5.03039 27.2907H6.75534C7.32201 27.2907 7.78574 26.8272 7.78574 26.2586V26.0242C9.32455 26.3065 10.0586 26.7626 10.7105 27.1678C11.4393 27.6209 12.0497 28 13.3909 28C14.8226 28 17.0851 27.5678 21.2191 26.3304C21.4031 26.3336 21.6267 26.344 21.8637 26.3575C22.9679 26.4158 24.3446 26.4877 25.0496 25.8191C25.3314 25.5493 25.4759 25.1921 25.4759 24.7577C25.4759 24.4859 25.4198 24.2432 25.3085 24.0349L27.4618 22.7893C27.7384 22.6289 27.9224 22.3549 27.9806 22.0165C28.0357 21.6915 27.9724 21.3518 27.8019 21.0539ZM23.8145 20.3343C23.9372 20.2624 24.0911 20.2541 24.2512 20.3134C24.4238 20.377 24.5808 20.5134 24.6827 20.6894C24.7888 20.8738 24.821 21.0842 24.7836 21.2685L21.4939 23.1724C21.3847 23.1776 21.2839 23.1808 21.1903 23.1808C20.5384 23.1037 19.9686 22.9912 19.4602 22.8558L23.8145 20.3343ZM21.2006 19.675C21.4699 19.5208 21.8692 19.6802 22.0688 20.0291C22.1749 20.2134 22.2071 20.4238 22.1697 20.6082L18.699 22.6162C18.1531 22.4214 17.6801 22.2006 17.2402 21.9684L21.2006 19.675ZM19.0764 19.0188C19.1991 18.9469 19.353 18.9386 19.5131 18.998C19.6857 19.0615 19.8427 19.198 19.9446 19.374C19.9976 19.4677 20.0319 19.5656 20.0506 19.6677L16.6465 21.6351C16.5166 21.5581 16.3855 21.4831 16.2556 21.406C16.0351 21.2779 15.8189 21.1498 15.6005 21.0269L19.0764 19.0188ZM7.20045 26.2554C7.20045 26.5012 7.00082 26.7033 6.75543 26.7033H5.03048C4.7851 26.7033 4.58338 26.5033 4.58338 26.2554V20.3416C4.58338 20.0958 4.78301 19.8937 5.03048 19.8937H6.75543C7.00081 19.8937 7.20045 20.0937 7.20045 20.3416V26.2554ZM24.6453 25.3889C24.1213 25.8878 22.833 25.818 21.8931 25.768C21.6373 25.7545 21.395 25.7409 21.1902 25.7409C18.7177 25.5784 18.0573 25.4826 17.0355 25.1327C16.8837 25.0796 16.7163 25.1618 16.6653 25.317C16.6123 25.4691 16.6944 25.6368 16.8494 25.6878C17.6479 25.9596 18.2551 26.0878 19.5455 26.2054C13.1812 28.0021 12.3026 27.4615 11.0225 26.6668C10.3436 26.2461 9.50553 25.7253 7.78902 25.4274L7.78798 21.0219C12.5584 19.9127 14.1387 20.8407 15.9625 21.9124C17.2029 22.6404 18.6087 23.4663 21.1447 23.7601C21.1551 23.7601 21.1655 23.7632 21.179 23.7632C21.3869 23.7632 21.6344 23.7497 21.8954 23.7361C22.8353 23.6851 24.1256 23.6184 24.6508 24.1152C24.813 24.2694 24.8931 24.4777 24.8931 24.7526C24.8879 25.0245 24.8078 25.2349 24.6456 25.389L24.6453 25.3889ZM27.4058 21.9101C27.3767 22.0758 27.2915 22.2059 27.1688 22.2778L24.9146 23.5818C24.3791 23.1818 23.5629 23.1069 22.7561 23.1183L26.4296 20.9936C26.6988 20.8394 27.0981 20.9988 27.2977 21.3477C27.3976 21.5258 27.437 21.7258 27.4058 21.9101ZM15.4705 17.3108C15.5267 17.3618 15.5953 17.3858 15.665 17.3858C15.7346 17.3858 15.8032 17.3618 15.8594 17.3108C16.4978 16.74 17.156 16.1505 17.7892 15.5641V17.2201C17.7892 17.3826 17.9191 17.5139 18.0824 17.5139H20.8826C21.0448 17.5139 21.1758 17.3837 21.1758 17.2201V15.21H23.1825C23.3447 15.21 23.4757 15.0798 23.4757 14.9163L23.4736 12.1135C23.4736 11.951 23.3437 11.8197 23.1804 11.8197H21.338C22.5326 10.2408 23.1159 8.82334 23.1159 7.49232C23.1201 5.56757 21.3817 4 19.2471 4C17.4317 4 16.4813 4.79989 15.6673 6.11742C14.85 4.79989 13.8997 4 12.0843 4C9.9497 4 8.21118 5.56749 8.21118 7.49339C8.21118 10.8231 11.9032 14.1216 15.4705 17.3108ZM22.8912 14.6258H20.8845C20.7223 14.6258 20.5913 14.756 20.5913 14.9195V16.9297H18.3746V14.9195C18.3746 14.757 18.2446 14.6258 18.0813 14.6258H16.0746V12.4053H18.0813C18.2435 12.4053 18.3746 12.2751 18.3746 12.1116V10.1014H20.5913V12.1116C20.5913 12.274 20.7213 12.4053 20.8845 12.4053H22.8912V14.6258ZM12.084 4.58664C13.6301 4.58664 14.4691 5.15427 15.4112 6.83737C15.4621 6.93111 15.5599 6.98631 15.6669 6.98631C15.773 6.98631 15.8697 6.93007 15.9227 6.83737C16.8647 5.15531 17.7038 4.58664 19.2499 4.58664C21.0622 4.58664 22.5396 5.89062 22.5396 7.49238C22.5396 8.57764 22.0925 9.74831 21.1817 11.0524V9.80988C21.1817 9.6474 21.0517 9.51616 20.8884 9.51616L18.0832 9.5172C17.921 9.5172 17.79 9.64739 17.79 9.81092V11.8211H15.7833C15.6211 11.8211 15.4901 11.9513 15.4901 12.1148V14.9197C15.4901 15.0822 15.62 15.2135 15.7833 15.2135H17.3138C16.771 15.7124 16.2148 16.2133 15.6658 16.7039C12.2545 13.6523 8.79712 10.5058 8.79712 7.49366C8.79712 5.89076 10.2716 4.58664 12.084 4.58664Z" stroke="#0066FF" stroke-width="0.3" mask="url(#path-1-outside-1_4926_1428)"/>
</svg>
