<svg width="32" height="32" viewBox="0 0 32 32" fill="none" xmlns="http://www.w3.org/2000/svg">
<path d="M15.9371 27.9535C16.0031 27.9853 16.074 28 16.1462 28C16.2184 28 16.2893 27.9841 16.3553 27.9535C23.9965 24.3408 27.268 18.4986 27.2915 8.41844C27.2915 8.21298 27.1643 8.02952 26.9711 7.95858L16.3151 4.03027C16.2063 3.98991 16.0852 3.98991 15.9776 4.03027L5.32041 7.95858C5.12718 8.02951 5 8.21296 5 8.41844C5.02446 18.4983 8.29462 24.3396 15.9361 27.9535H15.9371ZM16.1462 5.01017L26.3118 8.75751C26.2177 18.1025 23.1625 23.5741 16.1462 26.9692C9.12991 23.5741 6.07481 18.1025 5.98057 8.75751L16.1462 5.01017Z" fill="#0066FF"/>
<path d="M13.9395 17.4177V20.3309C13.9395 20.6012 14.1584 20.8201 14.4287 20.8201H17.9168C18.1871 20.8201 18.406 20.6012 18.406 20.3309V17.4177H21.3192C21.5895 17.4177 21.8084 17.1988 21.8084 16.9285V13.4404C21.8084 13.1701 21.5895 12.9512 21.3192 12.9512H18.406V10.038C18.406 9.76775 18.1871 9.54883 17.9168 9.54883H14.4287C14.1584 9.54883 13.9395 9.76775 13.9395 10.038V12.9512H11.0263C10.756 12.9512 10.5371 13.1701 10.5371 13.4404V16.9285C10.5371 17.1988 10.756 17.4177 11.0263 17.4177H13.9395ZM11.5155 13.9309H14.4287C14.699 13.9309 14.9179 13.7119 14.9179 13.4417V10.5285H17.4275V13.4417C17.4275 13.7119 17.6464 13.9309 17.9167 13.9309H20.8299V16.4404H17.9167C17.6464 16.4404 17.4275 16.6594 17.4275 16.9296V19.8428H14.9179V16.9296C14.9179 16.6594 14.699 16.4404 14.4287 16.4404H11.5155V13.9309Z" fill="#0066FF"/>
</svg>
