<svg width="32" height="32" viewBox="0 0 32 32" fill="none" xmlns="http://www.w3.org/2000/svg">
<path d="M22.1974 27.0034L19.7769 19.3509L19.7287 19.2013L19.6635 18.9962L19.5163 18.5302L18.7368 16.0662L18.4475 15.1492L18.3845 14.9513L18.3797 14.9368L18.1552 14.2249L17.8632 13.3055L17.5712 12.3862L17.2819 11.4668C17.0306 11.5464 16.7604 11.5899 16.4804 11.5899C16.2005 11.5899 15.9302 11.5464 15.6792 11.4668L15.3896 12.3862L14.8056 14.2252L14.5812 14.9371L14.5764 14.9515L14.5136 15.1494L14.224 16.0665L13.4445 18.5304L13.2973 18.9964L13.2322 19.2015L13.1839 19.3512L10.7634 27.0036L10.4473 28.0001H22.5136L22.1974 27.0034ZM19.0071 20.1208L20.7181 25.5243L17.161 21.9669L19.0071 20.1208ZM17.6147 15.7214L17.7981 16.2981L18.037 17.0511L17.161 16.1751L17.6147 15.7214ZM15.7516 14.4351L16.0484 13.4988L16.3477 12.5528L16.4804 12.1353L16.6132 12.5528L16.9124 13.4988L17.209 14.4351L17.2886 14.6861L16.526 15.4487L16.4804 15.4945L15.672 14.6861L15.7516 14.4351ZM15.1628 16.2981L15.3462 15.7214L15.7999 16.1751L15.6092 16.3657L14.9239 17.0511L15.1628 16.2981ZM14.294 19.042L16.4804 16.8556L18.6958 19.071L16.4804 21.2864L14.2795 19.0855L14.265 19.071L14.294 19.042ZM13.9537 20.1208L15.7999 21.9669L12.2427 25.5241L13.9537 20.1208ZM12.0931 27.0348L16.4804 22.6474L20.8677 27.0348H12.0931Z" fill="#0066FF"/>
<path d="M19.3578 6.73926L18.6676 7.42945C18.9621 7.8566 19.1358 8.37545 19.1358 8.93533C19.1358 9.4952 18.9621 10.0141 18.6676 10.4412L19.3578 11.1314C19.8236 10.5208 20.1011 9.76066 20.1011 8.93533C20.1011 8.10999 19.8236 7.34981 19.3578 6.73926ZM14.2948 7.42945L13.6046 6.73926C13.1389 7.34981 12.8613 8.10999 12.8613 8.93533C12.8613 9.76066 13.1389 10.5208 13.6046 11.1314L14.2948 10.4412C14.0004 10.0141 13.8266 9.4952 13.8266 8.93533C13.8266 8.37545 14.0004 7.8566 14.2948 7.42945Z" fill="#0066FF"/>
<path d="M12.9168 6.05112L12.2338 5.36816C11.4206 6.33347 10.9307 7.57871 10.9307 8.93497C10.9307 10.2912 11.4206 11.5365 12.2338 12.5018L12.9168 11.8188C12.2797 11.0321 11.896 10.0282 11.896 8.93497C11.896 7.84176 12.2797 6.83784 12.9168 6.05112ZM20.7285 5.36816L20.0456 6.05112C20.6827 6.83784 21.0664 7.84176 21.0664 8.93497C21.0664 10.0282 20.6827 11.0321 20.0456 11.8188L20.7285 12.5018C21.5418 11.5365 22.0317 10.2912 22.0317 8.93497C22.0317 7.57871 21.5418 6.33347 20.7285 5.36816Z" fill="#0066FF"/>
<path d="M11.5484 4.68295L10.8655 4C9.70467 5.31764 9 7.04795 9 8.93512C9 10.8223 9.70467 12.5526 10.8655 13.8702L11.5484 13.1873C10.559 12.0458 9.96531 10.5617 9.96531 8.93512C9.96531 7.30858 10.559 5.82443 11.5484 4.68295ZM22.0968 4L21.4138 4.68295C22.4033 5.82443 22.9969 7.30858 22.9969 8.93512C22.9969 10.5617 22.4033 12.0458 21.4138 13.1873L22.0965 13.8702C23.2576 12.5526 23.9622 10.8223 23.9622 8.93512C23.9622 7.04795 23.2576 5.31764 22.0968 4Z" fill="#0066FF"/>
<path d="M18.1706 8.93538C18.1706 8.9764 18.1681 9.01984 18.1633 9.06087C18.1633 9.07052 18.1633 9.08017 18.1609 9.08983V9.10189C18.1609 9.10431 18.1609 9.10431 18.1609 9.10672C18.1609 9.1212 18.1585 9.13568 18.1561 9.15016C18.151 9.1936 18.1438 9.23462 18.1368 9.27565C18.1271 9.3215 18.1148 9.36735 18.1027 9.41079C18.0979 9.42768 18.0931 9.44216 18.0883 9.45906C18.0735 9.50491 18.0569 9.55076 18.0376 9.5942C18.0159 9.64488 17.9917 9.69314 17.9676 9.74141C17.9432 9.78243 17.9193 9.82587 17.8926 9.86448C17.8901 9.8669 17.8877 9.87172 17.8856 9.87414C17.8829 9.87896 17.8805 9.88379 17.8759 9.88862C17.8494 9.92964 17.818 9.97067 17.7842 10.0093C17.7502 10.0503 17.7142 10.0913 17.6756 10.1299C17.637 10.1686 17.596 10.2048 17.5549 10.2385C17.5163 10.2723 17.4753 10.3037 17.4343 10.3302C17.4292 10.3351 17.4246 10.3375 17.4196 10.3399C17.4171 10.3423 17.4126 10.3447 17.4099 10.3471C17.3715 10.3737 17.3278 10.3978 17.2868 10.4219C17.1927 10.4726 17.0938 10.5137 16.9902 10.5474C16.983 10.5499 16.9755 10.5523 16.9683 10.5547C16.9272 10.5667 16.8838 10.5764 16.8406 10.586C16.8355 10.586 16.8334 10.5885 16.8285 10.5885C16.8213 10.5909 16.8162 10.5933 16.8092 10.5933C16.7586 10.6029 16.7079 10.6102 16.6548 10.615C16.5995 10.6222 16.5392 10.6247 16.4813 10.6247C16.4234 10.6247 16.363 10.6222 16.3075 10.615C16.2544 10.6102 16.2038 10.6029 16.1531 10.5933C16.1458 10.5933 16.141 10.5909 16.1338 10.5885C16.1289 10.5885 16.1265 10.586 16.1217 10.586C16.0783 10.5764 16.0348 10.5667 15.9938 10.5547C15.9866 10.5523 15.9793 10.5499 15.9721 10.5474C15.8683 10.5137 15.7694 10.4726 15.6752 10.4219C15.6342 10.3978 15.5908 10.3737 15.5522 10.3471C15.5498 10.3447 15.5449 10.3423 15.5425 10.3399C15.5377 10.3375 15.5329 10.3351 15.528 10.3302C15.487 10.3037 15.446 10.2723 15.4074 10.2385C15.3663 10.2048 15.3253 10.1686 15.2867 10.1299C15.2481 10.0913 15.2119 10.0503 15.1781 10.0093C15.1443 9.97067 15.113 9.92964 15.0864 9.88862C15.0816 9.88379 15.0792 9.87896 15.0768 9.87414C15.0743 9.87172 15.0719 9.8669 15.0695 9.86448C15.043 9.82587 15.0188 9.78243 14.9947 9.74141C14.9706 9.69314 14.9464 9.64488 14.9247 9.5942C14.9054 9.55076 14.8885 9.50491 14.874 9.45906C14.8692 9.44216 14.8644 9.42768 14.8596 9.41079C14.8475 9.36735 14.8354 9.3215 14.8258 9.27565C14.8185 9.23462 14.8113 9.1936 14.8065 9.15016C14.8041 9.13568 14.8016 9.1212 14.8016 9.10672C14.8016 9.10431 14.8016 9.10431 14.8016 9.10189V9.08983C14.7992 9.08017 14.7992 9.07052 14.7992 9.06087C14.7944 9.01984 14.792 8.9764 14.792 8.93538C14.792 8.89435 14.7944 8.85091 14.7992 8.80989C14.7992 8.80023 14.7992 8.79058 14.8016 8.78093V8.76886C14.8016 8.76645 14.8016 8.76645 14.8016 8.76404C14.8016 8.74956 14.8041 8.73508 14.8065 8.7206C14.8113 8.67716 14.8185 8.63613 14.8258 8.59511C14.833 8.5565 14.8427 8.5203 14.8547 8.48168C14.8547 8.47686 14.8571 8.46962 14.8596 8.46479C14.862 8.4479 14.8668 8.42859 14.874 8.4117C14.8885 8.36585 14.9054 8.32 14.9247 8.27656C14.9464 8.22588 14.9706 8.17761 14.9947 8.12935C15.0188 8.08832 15.043 8.04488 15.0695 8.00627C15.0719 8.00386 15.0743 7.99903 15.0768 7.99662C15.0792 7.99179 15.0816 7.98697 15.0864 7.98214C15.113 7.94111 15.1443 7.90009 15.1781 7.86148C15.2119 7.82045 15.2481 7.77942 15.2867 7.74081C15.3253 7.7022 15.3663 7.666 15.4074 7.63222C15.446 7.59843 15.487 7.56706 15.528 7.54051C15.5329 7.53569 15.5377 7.53327 15.5425 7.53086C15.5449 7.52845 15.5498 7.52603 15.5522 7.52362C15.5908 7.49707 15.6342 7.47294 15.6752 7.44881C15.7235 7.42468 15.7718 7.40054 15.8225 7.37882C15.8659 7.35952 15.9117 7.34262 15.9576 7.32814C15.9745 7.3209 15.9938 7.31608 16.0107 7.31367C16.0155 7.31125 16.0228 7.30884 16.0276 7.30884C16.0662 7.29677 16.1024 7.28712 16.141 7.27988C16.182 7.27264 16.2231 7.2654 16.2665 7.26057C16.281 7.25816 16.2955 7.25575 16.3099 7.25575C16.3123 7.25575 16.3123 7.25575 16.3148 7.25575H16.3268C16.3365 7.25333 16.3461 7.25333 16.3558 7.25333C16.3968 7.24851 16.4403 7.24609 16.4813 7.24609C16.5223 7.24609 16.5657 7.24851 16.6068 7.25333C16.6164 7.25333 16.6261 7.25333 16.6357 7.25575H16.6478C16.6502 7.25575 16.6502 7.25575 16.6526 7.25575C16.6671 7.25575 16.6816 7.25816 16.6961 7.26057C16.7395 7.2654 16.7805 7.27264 16.8215 7.27988C16.8602 7.28712 16.8964 7.29677 16.935 7.30884C16.94 7.30884 16.947 7.31125 16.9519 7.31367C16.9685 7.31608 16.9878 7.3209 17.005 7.32814C17.0508 7.34262 17.0967 7.35952 17.1403 7.37882C17.191 7.40054 17.239 7.42468 17.2873 7.44881C17.3283 7.47294 17.372 7.49707 17.4104 7.52362C17.413 7.52603 17.4176 7.52845 17.42 7.53086C17.4251 7.53327 17.4297 7.53569 17.4348 7.54051C17.4758 7.56706 17.5168 7.59843 17.5554 7.63222C17.5964 7.666 17.6375 7.7022 17.6761 7.74081C17.7147 7.77942 17.7509 7.82045 17.7847 7.86148C17.8185 7.90009 17.8498 7.94111 17.8764 7.98214C17.8812 7.98697 17.8834 7.99179 17.886 7.99662C17.8884 7.99903 17.8909 8.00386 17.893 8.00627C17.9196 8.04488 17.9437 8.08832 17.9681 8.12935C17.9922 8.17761 18.0164 8.22588 18.0381 8.27656C18.0574 8.32 18.074 8.36585 18.0888 8.4117C18.096 8.42859 18.1008 8.4479 18.1032 8.46479C18.1059 8.46962 18.1083 8.47686 18.1083 8.48168C18.1204 8.5203 18.13 8.5565 18.1373 8.59511C18.1443 8.63613 18.1517 8.67716 18.1566 8.7206C18.159 8.73508 18.1614 8.74956 18.1614 8.76404C18.1614 8.76645 18.1614 8.76645 18.1614 8.76886V8.78093C18.1638 8.79058 18.1638 8.80023 18.1638 8.80989C18.1681 8.85091 18.1706 8.89435 18.1706 8.93538Z" fill="#0066FF"/>
</svg>
