<svg width="34" height="34" viewBox="0 0 34 34" fill="none" xmlns="http://www.w3.org/2000/svg">
<path fill-rule="evenodd" clip-rule="evenodd" d="M5 5H29V29H5V5Z" fill="#0066FF"/>
<path fill-rule="evenodd" clip-rule="evenodd" d="M11.3105 25.0566L13.1465 23.9453C13.5 24.5742 13.8223 25.1055 14.5957 25.1055C15.3359 25.1055 15.8047 24.8164 15.8047 23.6875V16.0176H18.0605V23.7187C18.0605 26.0547 16.6914 27.1172 14.6934 27.1172C12.8887 27.1172 11.8418 26.1836 11.3105 25.0566ZM19.2852 24.8145L21.1211 23.752C21.6055 24.541 22.2324 25.1211 23.3437 25.1211C24.2773 25.1211 24.875 24.6543 24.875 24.0098C24.875 23.2363 24.2637 22.9629 23.2324 22.5117L22.668 22.2695C21.041 21.5762 19.9609 20.707 19.9609 18.8711C19.9609 17.1797 21.25 15.8906 23.2637 15.8906C24.6973 15.8906 25.7285 16.3906 26.4688 17.6953L24.7129 18.8223C24.3262 18.1289 23.9082 17.8555 23.2637 17.8555C22.6035 17.8555 22.1836 18.2734 22.1836 18.8223C22.1836 19.498 22.6016 19.7734 23.5684 20.1914L24.1328 20.4336C26.0508 21.2559 27.1289 22.0938 27.1289 23.9785C27.1289 26.0078 25.5332 27.1191 23.3906 27.1191C21.2988 27.1191 19.9453 26.1191 19.2852 24.8145Z" fill="white"/>
</svg>
