<svg width="34" height="34" viewBox="0 0 34 34" fill="none" xmlns="http://www.w3.org/2000/svg">
<path fill-rule="evenodd" clip-rule="evenodd" d="M13.1782 24.1074C13.1782 24.1074 12.1837 24.6851 13.8849 24.8797C15.9458 25.1146 16.9974 25.0807 19.2678 24.6512C19.2678 24.6512 19.8644 25.0257 20.6981 25.3495C15.6093 27.5331 9.17909 25.2246 13.1782 24.1074Z" fill="#0066FF"/>
<path fill-rule="evenodd" clip-rule="evenodd" d="M12.5581 21.2617C12.5581 21.2617 11.443 22.0869 13.1463 22.2626C15.3468 22.489 17.0861 22.508 20.0928 21.9282C20.0928 21.9282 20.5097 22.3493 21.1635 22.5799C15.0083 24.3806 8.15275 22.7217 12.5581 21.2617Z" fill="#0066FF"/>
<path fill-rule="evenodd" clip-rule="evenodd" d="M17.8006 16.4328C19.0554 17.8758 17.4706 19.175 17.4706 19.175C17.4706 19.175 20.655 17.5309 19.1929 15.4721C17.826 13.553 16.7787 12.5987 22.4493 9.31055C22.4493 9.31055 13.5498 11.5323 17.8006 16.4328Z" fill="#0066FF"/>
<path fill-rule="evenodd" clip-rule="evenodd" d="M24.5309 26.2119C24.5309 26.2119 25.2651 26.817 23.7205 27.2868C20.7836 28.1776 11.4926 28.4463 8.91121 27.3227C7.98444 26.9186 9.72372 26.36 10.2696 26.2415C10.8409 26.1166 11.1668 26.1399 11.1668 26.1399C10.1342 25.4142 4.49741 27.5661 8.30394 28.1839C18.6825 29.8661 27.2223 27.4264 24.5309 26.2119Z" fill="#0066FF"/>
<path fill-rule="evenodd" clip-rule="evenodd" d="M13.6574 18.3129C13.6574 18.3129 8.93259 19.4344 11.9837 19.8427C13.2723 20.0162 15.841 19.976 18.2341 19.775C20.1892 19.61 22.1528 19.2587 22.1528 19.2587C22.1528 19.2587 21.463 19.555 20.9637 19.8956C16.1648 21.1567 6.89497 20.5706 9.56313 19.2799C11.8208 18.1881 13.6574 18.3129 13.6574 18.3129Z" fill="#0066FF"/>
<path fill-rule="evenodd" clip-rule="evenodd" d="M22.1327 23.0493C27.0098 20.5145 24.7543 18.079 23.18 18.407C22.7949 18.4874 22.6214 18.5572 22.6214 18.5572C22.6214 18.5572 22.7653 18.3329 23.0383 18.2356C26.1529 17.1417 28.5481 21.4645 22.0332 23.1784C22.0353 23.1784 22.1094 23.1107 22.1327 23.0493Z" fill="#0066FF"/>
<path fill-rule="evenodd" clip-rule="evenodd" d="M19.1944 4C19.1944 4 21.8964 6.70204 16.632 10.8577C12.4108 14.1903 15.6693 16.0925 16.6299 18.2635C14.167 16.0417 12.3579 14.0845 13.5703 12.2627C15.3519 9.58816 20.2841 8.29321 19.1944 4Z" fill="#0066FF"/>
<path fill-rule="evenodd" clip-rule="evenodd" d="M14.1343 29.9177C18.8168 30.2181 26.0067 29.7505 26.1781 27.5352C26.1781 27.5352 25.8501 28.3752 22.3081 29.0417C18.3111 29.7928 13.3832 29.7061 10.459 29.2237C10.459 29.2258 11.0578 29.7209 14.1343 29.9177Z" fill="#0066FF"/>
</svg>
