<svg width="34" height="34" viewBox="0 0 34 34" fill="none" xmlns="http://www.w3.org/2000/svg">
<path fill-rule="evenodd" clip-rule="evenodd" d="M30.1861 16.4113C29.9978 16.2231 27.5929 13.1934 27.1863 12.6927C26.7499 12.192 26.5616 12.2862 26.2791 12.3183C25.9988 12.3504 22.967 12.881 22.6225 12.9109C22.2781 12.973 22.0598 13.0992 22.2781 13.4116C22.4663 13.6919 24.4647 16.5055 24.9034 17.1624L16.9354 19.0688L10.6236 8.47337C10.3732 8.09893 10.3112 7.9727 9.74845 8.00479C9.18573 8.03688 4.78026 8.41132 4.46787 8.41132C4.15335 8.44341 3.81101 8.56751 4.1234 9.31852C4.43578 10.0674 9.43607 20.8168 9.56017 21.1292C9.68426 21.4416 10.0608 21.9423 10.9038 21.754C11.7789 21.5357 14.7787 20.7548 16.4348 20.3162C17.3099 21.8781 19.0601 25.0661 19.4045 25.5347C19.841 26.1595 20.1556 26.0354 20.8103 25.8471C21.3409 25.6909 28.9986 22.9415 29.3409 22.7853C29.6854 22.6291 29.9037 22.5349 29.6533 22.1905C29.465 21.9401 27.4666 19.2207 26.4032 17.8149C27.1222 17.6267 29.7154 16.9398 29.9978 16.8457C30.3102 16.7558 30.3722 16.5996 30.1861 16.4113ZM15.7158 19.3811C15.6217 19.4132 11.1542 20.4745 10.9338 20.5365C10.6835 20.5986 10.6835 20.5686 10.6835 20.4745C10.6236 20.3803 5.37293 9.50466 5.27879 9.38056C5.21674 9.25647 5.21674 9.13023 5.27879 9.13023C5.34084 9.13023 9.49812 8.7558 9.62221 8.7558C9.77841 8.7558 9.74631 8.78789 9.8105 8.87989C9.8105 8.87989 15.6538 18.9746 15.7479 19.1308C15.872 19.287 15.81 19.349 15.7158 19.3811ZM28.2797 21.724C28.3417 21.8481 28.4359 21.9123 28.1855 21.9744C27.9673 22.0685 20.6541 24.5376 20.4979 24.5997C20.3417 24.6617 20.2476 24.6938 20.0614 24.4114C19.8731 24.1311 17.4981 20.0359 17.4981 20.0359L25.2799 18.0054C25.4682 17.9433 25.5303 17.9112 25.6544 18.0995C25.7785 18.3177 28.2176 21.6299 28.2797 21.724ZM28.7782 16.2231C28.5899 16.2552 25.7464 16.9741 25.7464 16.9741L23.4035 13.786C23.3414 13.6919 23.2794 13.5978 23.4356 13.5678C23.5918 13.5357 26.2492 13.0671 26.3733 13.0372C26.4974 13.0051 26.5915 12.9751 26.7477 13.1934C26.9039 13.3816 28.9045 15.9428 28.9986 16.0369C29.0906 16.1311 28.9665 16.1931 28.7782 16.2231Z" fill="#0066FF"/>
</svg>
