<svg width="32" height="32" viewBox="0 0 32 32" fill="none" xmlns="http://www.w3.org/2000/svg">
<mask id="path-1-outside-1_4939_1495" maskUnits="userSpaceOnUse" x="3" y="3" width="26" height="26" fill="black">
<rect fill="white" x="3" y="3" width="26" height="26"/>
<path d="M12.8591 15.3811C15.0846 15.3811 16.8944 13.5703 16.8944 11.3457C16.8944 9.12019 15.0836 7.31033 12.8591 7.31033C10.6335 7.31033 8.82369 9.12113 8.82369 11.3457C8.82267 13.5713 10.6335 15.3811 12.8591 15.3811ZM12.8591 7.79763C14.8125 7.79763 16.4043 9.38936 16.4043 11.3429C16.4043 13.2963 14.8125 14.8881 12.8591 14.8881C10.9056 14.8881 9.31386 13.2964 9.31386 11.3429C9.31386 9.38938 10.9046 7.79763 12.8591 7.79763ZM10.4277 11.2002C10.3472 11.0932 10.3655 10.9393 10.4746 10.8557C10.5816 10.7752 10.7354 10.7956 10.819 10.9026L11.8238 12.2172L14.5527 9.9315C14.6566 9.8459 14.8105 9.85813 14.8971 9.96308C14.9827 10.067 14.9705 10.2209 14.8655 10.3075L11.9388 12.7572C11.894 12.7939 11.84 12.8143 11.7819 12.8143C11.7738 12.8143 11.7636 12.8143 11.7554 12.8112C11.6902 12.8031 11.628 12.7695 11.5883 12.7175L10.4277 11.2002ZM14.3123 23.8127C14.3123 23.9482 14.2022 24.0583 14.0667 24.0583H6.69195C6.55643 24.0583 6.44637 23.9482 6.44637 23.8127C6.44637 23.6772 6.55643 23.5671 6.69195 23.5671L14.0696 23.5681C14.202 23.5702 14.3123 23.6802 14.3123 23.8127ZM6.44658 21.7624C6.44658 21.6269 6.55664 21.5168 6.69217 21.5168H12.9765C13.112 21.5168 13.2221 21.6269 13.2221 21.7624C13.2221 21.8979 13.112 22.008 12.9765 22.008H6.69217C6.55664 22.008 6.44658 21.8979 6.44658 21.7624ZM6.44658 17.6589C6.44658 17.5234 6.55664 17.4133 6.69217 17.4133H15.8408C15.9763 17.4133 16.0864 17.5234 16.0864 17.6589C16.0864 17.7945 15.9763 17.9045 15.8408 17.9045H6.69217C6.55664 17.9045 6.44658 17.7945 6.44658 17.6589ZM6.44658 19.7092C6.44658 19.5737 6.55664 19.4636 6.69217 19.4636H14.6567C14.7923 19.4636 14.9023 19.5737 14.9023 19.7092C14.9023 19.8447 14.7923 19.9548 14.6567 19.9548H6.69217C6.55664 19.9548 6.44658 19.8447 6.44658 19.7092ZM27.5229 24.4599L21.7186 21.1103V19.3413C21.7339 19.3383 21.7522 19.3362 21.7685 19.3311C21.9907 19.271 22.1751 19.1304 22.2903 18.9317C22.4054 18.733 22.4339 18.5017 22.3758 18.2795C22.3157 18.0574 22.1751 17.8729 21.9764 17.7578L21.7206 17.609V5.19734C21.7206 4.53703 21.1836 4 20.5233 4H7.59207C7.52685 4 7.46469 4.02649 7.41986 4.07337L4.07031 7.41981C4.02649 7.46669 4 7.52987 4 7.59203V26.1688C4 26.8291 4.53702 27.3662 5.19733 27.3662H12.4364V27.3743C12.4364 27.7188 12.7156 28 13.0621 28H18.9397C19.2841 28 19.5654 27.7208 19.5654 27.3743V27.3662H20.5232C21.1836 27.3662 21.7206 26.8291 21.7206 26.1688V23.3196L26.5649 26.1187C26.7106 26.2023 26.8757 26.2461 27.0398 26.2461C27.1233 26.2461 27.2069 26.2359 27.2904 26.2125C27.5381 26.1473 27.7439 25.9883 27.8723 25.7662C28.1352 25.3107 27.9794 24.7238 27.5229 24.4599ZM19.9598 21.739L20.4265 20.9299L22.0468 21.8664L21.58 22.6755L19.9598 21.739ZM15.2305 21.6555L18.6036 23.6018C18.6871 23.6517 18.7493 23.7292 18.7758 23.826C18.8023 23.9228 18.789 24.0217 18.7391 24.1052C18.6372 24.2805 18.413 24.3426 18.2357 24.2407L14.8627 22.2944C14.6874 22.1925 14.6252 21.9683 14.7271 21.791C14.7771 21.7075 14.8545 21.6453 14.9513 21.6188C14.9829 21.6106 15.0165 21.6055 15.0481 21.6055C15.1133 21.6055 15.1755 21.6219 15.2305 21.6555ZM18.6351 23.0566L15.6871 21.3559L17.9564 17.4246L20.9045 19.1253L18.6351 23.0566ZM20.6721 20.5081L21.2275 19.5451V20.8291L20.6721 20.5081ZM21.9011 18.4099C21.9276 18.5067 21.9143 18.6056 21.8644 18.6891C21.8144 18.7727 21.737 18.8348 21.6402 18.8613C21.5434 18.8878 21.4445 18.8746 21.361 18.8246L17.988 16.8783C17.9044 16.8284 17.8422 16.7509 17.8157 16.6541C17.7893 16.5573 17.8025 16.4585 17.8524 16.3749C17.9543 16.1996 18.1816 16.1375 18.3558 16.2394L21.7288 18.1857C21.8144 18.2326 21.8746 18.3141 21.9011 18.4099ZM7.34645 4.83762V6.64028C7.34645 7.03159 7.0285 7.34953 6.6372 7.34953H4.83455L7.34645 4.83762ZM19.0732 27.3744C19.0732 27.4498 19.0131 27.51 18.9377 27.51H13.0622C12.9868 27.51 12.9267 27.4498 12.9267 27.3744V26.9077C12.9267 26.8323 12.9868 26.7722 13.0622 26.7722H18.9398C19.0152 26.7722 19.0753 26.8323 19.0753 26.9077V27.3744H19.0732ZM18.1806 26.2841H13.8191V25.6818C13.8191 25.6064 13.8793 25.5463 13.9547 25.5463H18.0451C18.1205 25.5463 18.1806 25.6064 18.1806 25.6818L18.1806 26.2841ZM21.2304 26.171C21.2304 26.5623 20.9124 26.8802 20.5211 26.8802H19.5612C19.5459 26.549 19.2739 26.2851 18.9406 26.2851H18.6716V25.6829C18.6716 25.3385 18.3924 25.0572 18.046 25.0572H13.9545C13.6101 25.0572 13.3289 25.3364 13.3289 25.6829V26.2851H13.0598C12.7256 26.2851 12.4546 26.5511 12.4393 26.8802L5.19705 26.8812C4.80575 26.8812 4.4878 26.5633 4.4878 26.172V7.83778H6.63691C7.29722 7.83778 7.83425 7.30076 7.83425 6.64044V4.4903H20.5179C20.9092 4.4903 21.2272 4.80825 21.2272 5.19955V17.331L18.6002 15.8158C18.1906 15.5783 17.6638 15.719 17.4294 16.1286C17.3142 16.3273 17.2857 16.5586 17.3438 16.7808C17.3805 16.9214 17.4538 17.0447 17.5496 17.1456L15.2436 21.1421C15.1081 21.1105 14.9644 21.1085 14.8237 21.1452C14.6016 21.2053 14.4172 21.3459 14.302 21.5446C14.0646 21.9542 14.2052 22.4811 14.6148 22.7155L17.9879 24.6618C18.1234 24.7403 18.2691 24.7769 18.4158 24.7769C18.7134 24.7769 19.0028 24.6231 19.1597 24.349C19.2749 24.1502 19.3034 23.9189 19.2453 23.6968C19.2086 23.5562 19.1353 23.4329 19.0395 23.332L19.7151 22.1611L21.2283 23.0354L21.2273 26.1711L21.2304 26.171ZM27.4464 25.5218C27.3842 25.6288 27.2843 25.7073 27.1621 25.7379C27.0398 25.7695 26.9144 25.7532 26.8074 25.691L22.0049 22.9213L22.4716 22.1122L27.2773 24.885C27.4984 25.0134 27.5768 25.2997 27.4464 25.5218Z"/>
</mask>
<path d="M12.8591 15.3811C15.0846 15.3811 16.8944 13.5703 16.8944 11.3457C16.8944 9.12019 15.0836 7.31033 12.8591 7.31033C10.6335 7.31033 8.82369 9.12113 8.82369 11.3457C8.82267 13.5713 10.6335 15.3811 12.8591 15.3811ZM12.8591 7.79763C14.8125 7.79763 16.4043 9.38936 16.4043 11.3429C16.4043 13.2963 14.8125 14.8881 12.8591 14.8881C10.9056 14.8881 9.31386 13.2964 9.31386 11.3429C9.31386 9.38938 10.9046 7.79763 12.8591 7.79763ZM10.4277 11.2002C10.3472 11.0932 10.3655 10.9393 10.4746 10.8557C10.5816 10.7752 10.7354 10.7956 10.819 10.9026L11.8238 12.2172L14.5527 9.9315C14.6566 9.8459 14.8105 9.85813 14.8971 9.96308C14.9827 10.067 14.9705 10.2209 14.8655 10.3075L11.9388 12.7572C11.894 12.7939 11.84 12.8143 11.7819 12.8143C11.7738 12.8143 11.7636 12.8143 11.7554 12.8112C11.6902 12.8031 11.628 12.7695 11.5883 12.7175L10.4277 11.2002ZM14.3123 23.8127C14.3123 23.9482 14.2022 24.0583 14.0667 24.0583H6.69195C6.55643 24.0583 6.44637 23.9482 6.44637 23.8127C6.44637 23.6772 6.55643 23.5671 6.69195 23.5671L14.0696 23.5681C14.202 23.5702 14.3123 23.6802 14.3123 23.8127ZM6.44658 21.7624C6.44658 21.6269 6.55664 21.5168 6.69217 21.5168H12.9765C13.112 21.5168 13.2221 21.6269 13.2221 21.7624C13.2221 21.8979 13.112 22.008 12.9765 22.008H6.69217C6.55664 22.008 6.44658 21.8979 6.44658 21.7624ZM6.44658 17.6589C6.44658 17.5234 6.55664 17.4133 6.69217 17.4133H15.8408C15.9763 17.4133 16.0864 17.5234 16.0864 17.6589C16.0864 17.7945 15.9763 17.9045 15.8408 17.9045H6.69217C6.55664 17.9045 6.44658 17.7945 6.44658 17.6589ZM6.44658 19.7092C6.44658 19.5737 6.55664 19.4636 6.69217 19.4636H14.6567C14.7923 19.4636 14.9023 19.5737 14.9023 19.7092C14.9023 19.8447 14.7923 19.9548 14.6567 19.9548H6.69217C6.55664 19.9548 6.44658 19.8447 6.44658 19.7092ZM27.5229 24.4599L21.7186 21.1103V19.3413C21.7339 19.3383 21.7522 19.3362 21.7685 19.3311C21.9907 19.271 22.1751 19.1304 22.2903 18.9317C22.4054 18.733 22.4339 18.5017 22.3758 18.2795C22.3157 18.0574 22.1751 17.8729 21.9764 17.7578L21.7206 17.609V5.19734C21.7206 4.53703 21.1836 4 20.5233 4H7.59207C7.52685 4 7.46469 4.02649 7.41986 4.07337L4.07031 7.41981C4.02649 7.46669 4 7.52987 4 7.59203V26.1688C4 26.8291 4.53702 27.3662 5.19733 27.3662H12.4364V27.3743C12.4364 27.7188 12.7156 28 13.0621 28H18.9397C19.2841 28 19.5654 27.7208 19.5654 27.3743V27.3662H20.5232C21.1836 27.3662 21.7206 26.8291 21.7206 26.1688V23.3196L26.5649 26.1187C26.7106 26.2023 26.8757 26.2461 27.0398 26.2461C27.1233 26.2461 27.2069 26.2359 27.2904 26.2125C27.5381 26.1473 27.7439 25.9883 27.8723 25.7662C28.1352 25.3107 27.9794 24.7238 27.5229 24.4599ZM19.9598 21.739L20.4265 20.9299L22.0468 21.8664L21.58 22.6755L19.9598 21.739ZM15.2305 21.6555L18.6036 23.6018C18.6871 23.6517 18.7493 23.7292 18.7758 23.826C18.8023 23.9228 18.789 24.0217 18.7391 24.1052C18.6372 24.2805 18.413 24.3426 18.2357 24.2407L14.8627 22.2944C14.6874 22.1925 14.6252 21.9683 14.7271 21.791C14.7771 21.7075 14.8545 21.6453 14.9513 21.6188C14.9829 21.6106 15.0165 21.6055 15.0481 21.6055C15.1133 21.6055 15.1755 21.6219 15.2305 21.6555ZM18.6351 23.0566L15.6871 21.3559L17.9564 17.4246L20.9045 19.1253L18.6351 23.0566ZM20.6721 20.5081L21.2275 19.5451V20.8291L20.6721 20.5081ZM21.9011 18.4099C21.9276 18.5067 21.9143 18.6056 21.8644 18.6891C21.8144 18.7727 21.737 18.8348 21.6402 18.8613C21.5434 18.8878 21.4445 18.8746 21.361 18.8246L17.988 16.8783C17.9044 16.8284 17.8422 16.7509 17.8157 16.6541C17.7893 16.5573 17.8025 16.4585 17.8524 16.3749C17.9543 16.1996 18.1816 16.1375 18.3558 16.2394L21.7288 18.1857C21.8144 18.2326 21.8746 18.3141 21.9011 18.4099ZM7.34645 4.83762V6.64028C7.34645 7.03159 7.0285 7.34953 6.6372 7.34953H4.83455L7.34645 4.83762ZM19.0732 27.3744C19.0732 27.4498 19.0131 27.51 18.9377 27.51H13.0622C12.9868 27.51 12.9267 27.4498 12.9267 27.3744V26.9077C12.9267 26.8323 12.9868 26.7722 13.0622 26.7722H18.9398C19.0152 26.7722 19.0753 26.8323 19.0753 26.9077V27.3744H19.0732ZM18.1806 26.2841H13.8191V25.6818C13.8191 25.6064 13.8793 25.5463 13.9547 25.5463H18.0451C18.1205 25.5463 18.1806 25.6064 18.1806 25.6818L18.1806 26.2841ZM21.2304 26.171C21.2304 26.5623 20.9124 26.8802 20.5211 26.8802H19.5612C19.5459 26.549 19.2739 26.2851 18.9406 26.2851H18.6716V25.6829C18.6716 25.3385 18.3924 25.0572 18.046 25.0572H13.9545C13.6101 25.0572 13.3289 25.3364 13.3289 25.6829V26.2851H13.0598C12.7256 26.2851 12.4546 26.5511 12.4393 26.8802L5.19705 26.8812C4.80575 26.8812 4.4878 26.5633 4.4878 26.172V7.83778H6.63691C7.29722 7.83778 7.83425 7.30076 7.83425 6.64044V4.4903H20.5179C20.9092 4.4903 21.2272 4.80825 21.2272 5.19955V17.331L18.6002 15.8158C18.1906 15.5783 17.6638 15.719 17.4294 16.1286C17.3142 16.3273 17.2857 16.5586 17.3438 16.7808C17.3805 16.9214 17.4538 17.0447 17.5496 17.1456L15.2436 21.1421C15.1081 21.1105 14.9644 21.1085 14.8237 21.1452C14.6016 21.2053 14.4172 21.3459 14.302 21.5446C14.0646 21.9542 14.2052 22.4811 14.6148 22.7155L17.9879 24.6618C18.1234 24.7403 18.2691 24.7769 18.4158 24.7769C18.7134 24.7769 19.0028 24.6231 19.1597 24.349C19.2749 24.1502 19.3034 23.9189 19.2453 23.6968C19.2086 23.5562 19.1353 23.4329 19.0395 23.332L19.7151 22.1611L21.2283 23.0354L21.2273 26.1711L21.2304 26.171ZM27.4464 25.5218C27.3842 25.6288 27.2843 25.7073 27.1621 25.7379C27.0398 25.7695 26.9144 25.7532 26.8074 25.691L22.0049 22.9213L22.4716 22.1122L27.2773 24.885C27.4984 25.0134 27.5768 25.2997 27.4464 25.5218Z" fill="#0066FF"/>
<path d="M12.8591 15.3811C15.0846 15.3811 16.8944 13.5703 16.8944 11.3457C16.8944 9.12019 15.0836 7.31033 12.8591 7.31033C10.6335 7.31033 8.82369 9.12113 8.82369 11.3457C8.82267 13.5713 10.6335 15.3811 12.8591 15.3811ZM12.8591 7.79763C14.8125 7.79763 16.4043 9.38936 16.4043 11.3429C16.4043 13.2963 14.8125 14.8881 12.8591 14.8881C10.9056 14.8881 9.31386 13.2964 9.31386 11.3429C9.31386 9.38938 10.9046 7.79763 12.8591 7.79763ZM10.4277 11.2002C10.3472 11.0932 10.3655 10.9393 10.4746 10.8557C10.5816 10.7752 10.7354 10.7956 10.819 10.9026L11.8238 12.2172L14.5527 9.9315C14.6566 9.8459 14.8105 9.85813 14.8971 9.96308C14.9827 10.067 14.9705 10.2209 14.8655 10.3075L11.9388 12.7572C11.894 12.7939 11.84 12.8143 11.7819 12.8143C11.7738 12.8143 11.7636 12.8143 11.7554 12.8112C11.6902 12.8031 11.628 12.7695 11.5883 12.7175L10.4277 11.2002ZM14.3123 23.8127C14.3123 23.9482 14.2022 24.0583 14.0667 24.0583H6.69195C6.55643 24.0583 6.44637 23.9482 6.44637 23.8127C6.44637 23.6772 6.55643 23.5671 6.69195 23.5671L14.0696 23.5681C14.202 23.5702 14.3123 23.6802 14.3123 23.8127ZM6.44658 21.7624C6.44658 21.6269 6.55664 21.5168 6.69217 21.5168H12.9765C13.112 21.5168 13.2221 21.6269 13.2221 21.7624C13.2221 21.8979 13.112 22.008 12.9765 22.008H6.69217C6.55664 22.008 6.44658 21.8979 6.44658 21.7624ZM6.44658 17.6589C6.44658 17.5234 6.55664 17.4133 6.69217 17.4133H15.8408C15.9763 17.4133 16.0864 17.5234 16.0864 17.6589C16.0864 17.7945 15.9763 17.9045 15.8408 17.9045H6.69217C6.55664 17.9045 6.44658 17.7945 6.44658 17.6589ZM6.44658 19.7092C6.44658 19.5737 6.55664 19.4636 6.69217 19.4636H14.6567C14.7923 19.4636 14.9023 19.5737 14.9023 19.7092C14.9023 19.8447 14.7923 19.9548 14.6567 19.9548H6.69217C6.55664 19.9548 6.44658 19.8447 6.44658 19.7092ZM27.5229 24.4599L21.7186 21.1103V19.3413C21.7339 19.3383 21.7522 19.3362 21.7685 19.3311C21.9907 19.271 22.1751 19.1304 22.2903 18.9317C22.4054 18.733 22.4339 18.5017 22.3758 18.2795C22.3157 18.0574 22.1751 17.8729 21.9764 17.7578L21.7206 17.609V5.19734C21.7206 4.53703 21.1836 4 20.5233 4H7.59207C7.52685 4 7.46469 4.02649 7.41986 4.07337L4.07031 7.41981C4.02649 7.46669 4 7.52987 4 7.59203V26.1688C4 26.8291 4.53702 27.3662 5.19733 27.3662H12.4364V27.3743C12.4364 27.7188 12.7156 28 13.0621 28H18.9397C19.2841 28 19.5654 27.7208 19.5654 27.3743V27.3662H20.5232C21.1836 27.3662 21.7206 26.8291 21.7206 26.1688V23.3196L26.5649 26.1187C26.7106 26.2023 26.8757 26.2461 27.0398 26.2461C27.1233 26.2461 27.2069 26.2359 27.2904 26.2125C27.5381 26.1473 27.7439 25.9883 27.8723 25.7662C28.1352 25.3107 27.9794 24.7238 27.5229 24.4599ZM19.9598 21.739L20.4265 20.9299L22.0468 21.8664L21.58 22.6755L19.9598 21.739ZM15.2305 21.6555L18.6036 23.6018C18.6871 23.6517 18.7493 23.7292 18.7758 23.826C18.8023 23.9228 18.789 24.0217 18.7391 24.1052C18.6372 24.2805 18.413 24.3426 18.2357 24.2407L14.8627 22.2944C14.6874 22.1925 14.6252 21.9683 14.7271 21.791C14.7771 21.7075 14.8545 21.6453 14.9513 21.6188C14.9829 21.6106 15.0165 21.6055 15.0481 21.6055C15.1133 21.6055 15.1755 21.6219 15.2305 21.6555ZM18.6351 23.0566L15.6871 21.3559L17.9564 17.4246L20.9045 19.1253L18.6351 23.0566ZM20.6721 20.5081L21.2275 19.5451V20.8291L20.6721 20.5081ZM21.9011 18.4099C21.9276 18.5067 21.9143 18.6056 21.8644 18.6891C21.8144 18.7727 21.737 18.8348 21.6402 18.8613C21.5434 18.8878 21.4445 18.8746 21.361 18.8246L17.988 16.8783C17.9044 16.8284 17.8422 16.7509 17.8157 16.6541C17.7893 16.5573 17.8025 16.4585 17.8524 16.3749C17.9543 16.1996 18.1816 16.1375 18.3558 16.2394L21.7288 18.1857C21.8144 18.2326 21.8746 18.3141 21.9011 18.4099ZM7.34645 4.83762V6.64028C7.34645 7.03159 7.0285 7.34953 6.6372 7.34953H4.83455L7.34645 4.83762ZM19.0732 27.3744C19.0732 27.4498 19.0131 27.51 18.9377 27.51H13.0622C12.9868 27.51 12.9267 27.4498 12.9267 27.3744V26.9077C12.9267 26.8323 12.9868 26.7722 13.0622 26.7722H18.9398C19.0152 26.7722 19.0753 26.8323 19.0753 26.9077V27.3744H19.0732ZM18.1806 26.2841H13.8191V25.6818C13.8191 25.6064 13.8793 25.5463 13.9547 25.5463H18.0451C18.1205 25.5463 18.1806 25.6064 18.1806 25.6818L18.1806 26.2841ZM21.2304 26.171C21.2304 26.5623 20.9124 26.8802 20.5211 26.8802H19.5612C19.5459 26.549 19.2739 26.2851 18.9406 26.2851H18.6716V25.6829C18.6716 25.3385 18.3924 25.0572 18.046 25.0572H13.9545C13.6101 25.0572 13.3289 25.3364 13.3289 25.6829V26.2851H13.0598C12.7256 26.2851 12.4546 26.5511 12.4393 26.8802L5.19705 26.8812C4.80575 26.8812 4.4878 26.5633 4.4878 26.172V7.83778H6.63691C7.29722 7.83778 7.83425 7.30076 7.83425 6.64044V4.4903H20.5179C20.9092 4.4903 21.2272 4.80825 21.2272 5.19955V17.331L18.6002 15.8158C18.1906 15.5783 17.6638 15.719 17.4294 16.1286C17.3142 16.3273 17.2857 16.5586 17.3438 16.7808C17.3805 16.9214 17.4538 17.0447 17.5496 17.1456L15.2436 21.1421C15.1081 21.1105 14.9644 21.1085 14.8237 21.1452C14.6016 21.2053 14.4172 21.3459 14.302 21.5446C14.0646 21.9542 14.2052 22.4811 14.6148 22.7155L17.9879 24.6618C18.1234 24.7403 18.2691 24.7769 18.4158 24.7769C18.7134 24.7769 19.0028 24.6231 19.1597 24.349C19.2749 24.1502 19.3034 23.9189 19.2453 23.6968C19.2086 23.5562 19.1353 23.4329 19.0395 23.332L19.7151 22.1611L21.2283 23.0354L21.2273 26.1711L21.2304 26.171ZM27.4464 25.5218C27.3842 25.6288 27.2843 25.7073 27.1621 25.7379C27.0398 25.7695 26.9144 25.7532 26.8074 25.691L22.0049 22.9213L22.4716 22.1122L27.2773 24.885C27.4984 25.0134 27.5768 25.2997 27.4464 25.5218Z" stroke="#0066FF" stroke-width="0.4" mask="url(#path-1-outside-1_4939_1495)"/>
</svg>
