<svg width="32" height="32" viewBox="0 0 32 32" fill="none" xmlns="http://www.w3.org/2000/svg">
<path fill-rule="evenodd" clip-rule="evenodd" d="M9.2796 11.7804C9.2796 11.7279 9.28913 11.6785 9.30819 11.6323L10.8886 6.59355L8.33294 6.59196L5.57401 11.8729C5.59783 12.3477 5.79955 12.7778 6.11403 13.0948C6.83828 13.8212 8.01367 13.8212 8.73634 13.0948C9.07306 12.7587 9.2796 12.2934 9.2796 11.7804ZM7.67065 6.07736V4.41578C7.67065 4.18478 7.85489 4 8.08519 4H24.918C25.1483 4 25.3326 4.18479 25.3326 4.41578V6.07736L28.1931 11.5545C28.236 11.6198 28.2598 11.6979 28.2598 11.7807C28.2598 12.6856 27.8119 13.4996 27.1067 13.9919V27.1684H28.5855C28.8158 27.1684 29 27.3532 29 27.5842C29 27.8152 28.8158 28 28.5855 28H4.41454C4.18423 28 4 27.8152 4 27.5842C4 27.3532 4.18424 27.1684 4.41454 27.1684H5.89326V13.9907C5.18803 13.5 4.74015 12.686 4.74015 11.7795C4.74015 11.6966 4.76398 11.6186 4.80686 11.5533L7.67065 6.07736ZM8.49976 4.82997V5.76031H24.5035V4.82997H8.49976ZM24.4543 22.5689L22.6706 25.524H24.4543V22.5689ZM21.7049 25.524L24.4559 20.9629V19.2933H22.974L19.2145 25.5253L21.7049 25.524ZM18.2456 25.524L22.0051 19.292H20.8441L17.0845 25.524H18.2456ZM16.7637 24.4487L19.8736 19.2917H16.7637V24.4487ZM13.2583 22.803H12.8469C12.6166 22.803 12.4324 22.9878 12.4324 23.2188C12.4324 23.4498 12.6166 23.6346 12.8469 23.6346H13.2583C13.4886 23.6346 13.6728 23.4498 13.6728 23.2188C13.6744 22.9894 13.487 22.803 13.2583 22.803ZM16.3492 18.4617C16.1189 18.4617 15.9346 18.6465 15.9346 18.8775V25.9411C15.9346 26.1721 16.1189 26.3569 16.3492 26.3569H24.8689C25.0992 26.3569 25.2834 26.1721 25.2834 25.9411V18.8775C25.2834 18.6465 25.0992 18.4617 24.8689 18.4617H16.3492ZM6.7239 15.5862V14.3771C7.87383 14.6893 9.07142 14.2018 9.69406 13.2173C9.80048 13.3862 9.92595 13.5423 10.0657 13.6825C11.284 14.9044 13.3138 14.6718 14.2318 13.2173C14.3383 13.3862 14.4637 13.5423 14.6035 13.6825C15.8218 14.9044 17.8516 14.6718 18.7696 13.2173C18.8761 13.3862 19.0015 13.5423 19.1413 13.6825C20.3596 14.9044 22.3894 14.6718 23.3074 13.2173C23.93 14.2018 25.1277 14.6893 26.2776 14.3771V15.5862H6.7239ZM26.2794 16.4194H6.7239V27.1665H8.44247V18.857C8.44247 18.626 8.62672 18.4412 8.85701 18.4412H14.5256C14.7559 18.4412 14.9401 18.626 14.9401 18.857V27.1665H26.2792L26.2794 16.4194ZM14.1112 27.1677V19.2742H9.27334V27.1677H14.1112ZM11.7541 6.59155H14.3589L13.8237 11.7053C13.8189 11.7292 13.8173 11.7547 13.8173 11.7786C13.8173 12.2931 13.6092 12.7567 13.2741 13.0945C12.5499 13.8209 11.3745 13.8209 10.6518 13.0945C10.3278 12.7695 10.1245 12.3282 10.1086 11.8392L11.7541 6.59155ZM15.1896 6.59155L14.6464 11.7897C14.648 12.2995 14.8561 12.7599 15.1896 13.0944C15.9139 13.8209 17.0893 13.8209 17.8119 13.0944C18.1455 12.7599 18.352 12.2995 18.3551 11.7897L17.8119 6.59155H15.1896ZM18.6442 6.59155L19.1795 11.7053C19.1843 11.7292 19.1858 11.7547 19.1858 11.7786C19.1858 12.8061 20.015 13.6377 21.0394 13.6377C21.5524 13.6377 22.0146 13.429 22.3514 13.0929C22.6754 12.7679 22.8787 12.3266 22.8946 11.8376L21.2491 6.59166L18.6442 6.59155ZM22.1163 6.59155L23.6967 11.6303C23.7157 11.6765 23.7253 11.7259 23.7253 11.7784C23.7253 12.8059 24.5544 13.6375 25.5788 13.6375C26.0919 13.6375 26.5541 13.4289 26.8908 13.0927C27.2053 12.7773 27.407 12.3488 27.4308 11.8708L24.6719 6.58986L22.1163 6.59155Z" fill="#0066FF"/>
</svg>
