<svg width="34" height="34" viewBox="0 0 34 34" fill="none" xmlns="http://www.w3.org/2000/svg">
<path d="M7.33178 24.7949L8.4008 28.9295H7.59381L6.88177 25.9513L5.53933 28.9295H4.85767L3.51903 25.9684L2.78989 28.9295H2L3.05952 24.7949H3.75827L5.20135 27.9963L6.63873 24.7949H7.33178Z" fill="#0066FF"/>
<path d="M11.4485 26.3934V25.9121H12.2279V28.9302H11.4485V28.4441C11.2425 28.7935 10.819 28.9938 10.3035 28.9938C9.22596 28.9938 8.625 28.2343 8.625 27.3608C8.625 26.5187 9.19463 25.8418 10.1886 25.8418C10.7554 25.8484 11.2254 26.0383 11.4485 26.3934ZM9.45477 27.4054C9.45477 27.9608 9.80414 28.4365 10.4801 28.4365C11.1323 28.4365 11.4874 27.9722 11.4874 27.4225C11.4874 26.8728 11.121 26.4029 10.4431 26.4029C9.7937 26.4029 9.45572 26.8719 9.45572 27.4054H9.45477Z" fill="#0066FF"/>
<path d="M13.9875 28.9295H13.209V25.9114H13.9875V26.5873C14.0767 26.3712 14.2273 26.186 14.4207 26.0546C14.6141 25.9231 14.8417 25.8512 15.0755 25.8478C15.2413 25.8457 15.4061 25.8726 15.5625 25.9275L15.3964 26.4972C15.2617 26.4621 15.1235 26.443 14.9843 26.4402C14.4223 26.4402 13.9875 26.8636 13.9875 27.4845V28.9295Z" fill="#0066FF"/>
<path d="M15.9513 25.1155C15.9499 25.0635 15.9588 25.0118 15.9774 24.9632C15.996 24.9146 16.024 24.8702 16.0598 24.8325C16.0956 24.7947 16.1385 24.7644 16.186 24.7433C16.2336 24.7221 16.2848 24.7105 16.3368 24.7092H16.37C16.479 24.7058 16.5848 24.7458 16.6644 24.8204C16.7439 24.895 16.7907 24.998 16.7944 25.107V25.1269C16.7964 25.2315 16.7569 25.3326 16.6844 25.4081C16.612 25.4836 16.5126 25.5272 16.408 25.5295H16.37C16.2643 25.5341 16.1611 25.4968 16.0829 25.4256C16.0046 25.3545 15.9577 25.2553 15.9523 25.1497L15.9513 25.1155ZM15.9855 25.9121H16.7649V28.1175C16.7649 28.2542 16.7934 28.352 16.9073 28.352C16.9575 28.351 17.0074 28.3453 17.0564 28.3349L17.177 28.9045C17.0131 28.9701 16.8379 29.0024 16.6615 28.9995C16.3349 28.9995 15.9855 28.9045 15.9855 28.1631V25.9121Z" fill="#0066FF"/>
<path d="M20.2464 26.3934V25.9121H21.0287V28.9302H20.2493V28.4441C20.0433 28.7935 19.6198 28.9938 19.1043 28.9938C18.0277 28.9938 17.4258 28.2343 17.4258 27.3608C17.4258 26.5187 17.9954 25.8418 18.9894 25.8418C19.5534 25.8484 20.0233 26.0383 20.2464 26.3934ZM18.2527 27.4016C18.2527 27.957 18.6021 28.4327 19.278 28.4327C19.9312 28.4327 20.2863 27.9684 20.2863 27.4187C20.2863 26.869 19.9189 26.3991 19.242 26.3991C18.5916 26.3991 18.2537 26.8681 18.2537 27.4016H18.2527Z" fill="#0066FF"/>
<path d="M22.2207 24.7949H24.0882C25.6575 24.7949 26.4417 25.6598 26.4303 26.8617C26.4417 28.1111 25.5759 28.9295 24.2258 28.9295H22.2207V24.7949ZM22.7362 25.1614V28.5688H24.1603C25.4088 28.5688 25.8844 27.7266 25.8844 26.8504C25.8844 25.8601 25.2891 25.1614 24.1603 25.1614H22.7362Z" fill="#0066FF"/>
<path d="M29.6157 28.9295H27.2422V24.7949H29.3831C30.2014 24.7949 30.9809 24.9487 30.9695 25.8658C30.9695 26.5124 30.5679 26.6909 30.1445 26.7592C30.7454 26.8105 31.1072 27.194 31.1072 27.813C31.111 28.7406 30.2973 28.9295 29.6157 28.9295ZM29.4381 26.5988C30.2575 26.5988 30.4407 26.2836 30.4407 25.8829C30.4407 25.281 30.0742 25.1443 29.4381 25.1443H27.7368V26.5988H29.4381ZM29.4609 26.9481H27.7368V28.5801H29.5331C30.0372 28.5801 30.5698 28.414 30.5698 27.7789C30.5698 27.0459 29.9574 26.9481 29.459 26.9481H29.4609Z" fill="#0066FF"/>
<path d="M31.2888 5.09505C31.2135 5.03156 31.1176 4.99779 31.0192 5.00011C30.7505 5.00011 30.403 5.18239 30.216 5.28493L30.1419 5.3229C29.8279 5.47312 29.4863 5.55714 29.1384 5.56975C28.7815 5.58114 28.4739 5.60203 28.0732 5.6438C25.6997 5.88779 24.6412 7.70683 23.6215 9.46605C23.0661 10.423 22.4927 11.417 21.7066 12.1766C21.5444 12.3347 21.3715 12.4816 21.1892 12.6161C20.3755 13.2209 19.354 13.6529 18.5594 13.9586C17.7942 14.251 16.9587 14.514 16.1517 14.7684C15.4121 15.001 14.7143 15.2213 14.0725 15.4596C13.7877 15.5668 13.5371 15.6494 13.3197 15.7216C12.7348 15.9115 12.3133 16.0567 11.6972 16.4811C11.457 16.6453 11.2158 16.8229 11.0525 16.9558C10.5636 17.3466 10.1307 17.8028 9.7661 18.3115C9.45278 18.7808 9.09062 19.2155 8.68569 19.6084C8.55562 19.7356 8.32492 19.7983 7.97934 19.7983C7.5749 19.7983 7.08406 19.7147 6.56475 19.6264C6.04956 19.5215 5.52654 19.4596 5.0011 19.4413C4.61565 19.4413 4.32039 19.504 4.10013 19.6312C4.10013 19.6312 3.72892 19.8476 3.57227 20.1277L3.72607 20.197C3.96425 20.3268 4.185 20.4863 4.38305 20.6717C4.58904 20.8625 4.81879 21.0259 5.06661 21.1578C5.14547 21.1872 5.21728 21.2328 5.27737 21.2917C5.21281 21.3866 5.11788 21.5091 5.01819 21.6401C4.47039 22.3569 4.15045 22.8097 4.33368 23.0566C4.42139 23.1025 4.51956 23.1247 4.6185 23.1211C5.81283 23.1211 6.45462 22.8107 7.26635 22.4177C7.5018 22.3037 7.74104 22.1869 8.02586 22.0664C8.50056 21.8604 9.01133 21.5319 9.55343 21.1844C10.2626 20.722 11.0041 20.2473 11.7237 20.0185C12.3152 19.8382 12.9312 19.7517 13.5494 19.7622C14.3089 19.7622 15.1083 19.8638 15.8792 19.9625C16.4536 20.0366 17.0489 20.1125 17.6328 20.1524C17.8597 20.1657 18.0695 20.1723 18.2736 20.1723C18.5467 20.1733 18.8196 20.159 19.091 20.1296L19.1565 20.1068C19.5657 19.8552 19.7575 19.315 19.9436 18.7929C20.0632 18.4568 20.1638 18.1549 20.3233 17.9631L20.3537 17.9375C20.3612 17.9335 20.3698 17.9321 20.3783 17.9334C20.3867 17.9348 20.3944 17.9389 20.4002 17.9451V17.9603C20.3053 20.0024 19.4831 21.2993 18.6515 22.4518L18.0961 23.0386C18.0961 23.0386 18.8736 23.0386 19.316 22.8677C20.93 22.3854 22.1481 21.3221 23.0348 19.6264C23.2534 19.1921 23.4489 18.7465 23.6206 18.2916C23.6358 18.2536 23.7753 18.1834 23.762 18.3799C23.7573 18.4378 23.7535 18.5024 23.7487 18.5698C23.75 18.6104 23.7474 18.6511 23.7411 18.6913C23.7184 18.9761 23.6509 19.578 23.6509 19.578L24.1494 19.3112C25.3513 18.5517 26.2779 17.0194 26.9805 14.6355C27.2729 13.6424 27.4874 12.656 27.6764 11.7873C27.9023 10.743 28.0969 9.84771 28.3201 9.50023C28.6704 8.95528 29.2049 8.58691 29.7223 8.22899C29.7926 8.18057 29.8638 8.13405 29.9331 8.08279C30.5834 7.62613 31.2299 7.09922 31.3723 6.1166V6.09476C31.4758 5.36278 31.3885 5.17575 31.2888 5.09505Z" fill="#0066FF"/>
</svg>
