<svg width="32" height="32" viewBox="0 0 32 32" fill="none" xmlns="http://www.w3.org/2000/svg">
<mask id="path-1-outside-1_4939_1477" maskUnits="userSpaceOnUse" x="3" y="3" width="26" height="26" fill="black">
<rect fill="white" x="3" y="3" width="26" height="26"/>
<path fill-rule="evenodd" clip-rule="evenodd" d="M16.9403 18.605C16.6885 17.9836 16.3412 17.4109 15.9168 16.9035C15.4075 17.164 14.8192 17.3836 14.1713 17.5543C14.4464 18.4928 14.6123 19.569 14.6367 20.7125H15.4065C15.4592 20.6784 15.5177 20.652 15.5821 20.6345L16.0036 20.5213L15.827 19.8618C15.6953 19.371 15.9909 18.8598 16.4817 18.7281L16.9403 18.605ZM13.9772 8.26146C13.0572 8.7922 12.1391 9.32294 11.219 9.85466C11.0229 9.96783 10.78 9.82344 10.7809 9.60198L10.78 6.39805C10.78 6.18439 11.0161 6.01462 11.2424 6.15902C12.1596 6.68879 13.0767 7.21758 13.9939 7.74735C14.1968 7.86442 14.1841 8.15901 13.9772 8.26146ZM13.264 7.99999C12.6308 7.63414 11.9986 7.26827 11.3654 6.90339V9.09561C11.9986 8.72976 12.6308 8.36584 13.264 7.99999ZM8.55734 12.8538L9.91157 11.4997C9.96913 11.4421 10.0433 11.4138 10.1184 11.4138H17.2389L17.2398 4.58535H6.70452V11.4138H8.26461C8.42657 11.4138 8.55732 11.5445 8.55732 11.7065L8.55734 12.8538ZM10.2394 11.9992H14.7205V14.4597C14.7205 14.7231 14.9361 14.9388 15.1996 14.9388H19.8233L20.9678 16.0832C21.1532 16.2715 21.4702 16.1388 21.4702 15.8793V14.9388H22.2234C22.4869 14.9388 22.7025 14.7241 22.7025 14.4597V9.90159C22.7025 9.63816 22.4869 9.42255 22.2234 9.42255H17.8242L17.8252 4.5727C17.8252 4.25758 17.5667 4 17.2525 4H6.69195C6.37779 4 6.11923 4.25855 6.11923 4.5727V11.4264C6.11923 11.7415 6.37779 11.9991 6.69195 11.9991H7.97203V13.5601C7.97203 13.8206 8.28814 13.9523 8.47449 13.764L10.2404 11.9981L10.2394 11.9992ZM17.8252 10.0069H22.1182V14.3523H21.1787C21.0167 14.3523 20.886 14.483 20.886 14.645V15.1718L20.1523 14.4381C20.0947 14.3806 20.0205 14.3523 19.9454 14.3523H15.3072V11.9981H17.2527C17.5668 11.9981 17.8254 11.7395 17.8254 11.4254V10.0059L17.8252 10.0069ZM21.1786 11.0996C21.3405 11.0996 21.4713 11.2304 21.4713 11.3923C21.4713 11.5543 21.3405 11.685 21.1786 11.685H18.7131C18.5511 11.685 18.4204 11.5543 18.4204 11.3923C18.4204 11.2304 18.5511 11.0996 18.7131 11.0996H21.1786ZM21.1786 12.6753C21.3405 12.6753 21.4713 12.806 21.4713 12.968C21.4713 13.1299 21.3405 13.2607 21.1786 13.2607H16.2476C16.0857 13.2607 15.9549 13.1299 15.9549 12.968C15.9549 12.806 16.0856 12.6753 16.2476 12.6753H21.1786ZM15.7246 21.2033C15.7109 21.2082 15.709 21.2219 15.7129 21.2365L15.9422 22.0931C15.9461 22.1087 15.9607 22.1175 15.9763 22.1146L16.4007 22.0004L16.1558 21.0853L15.7246 21.2024L15.7246 21.2033ZM15.1304 21.298C15.1412 21.3946 15.3373 22.096 15.3763 22.2443C15.4202 22.4073 15.5265 22.538 15.6621 22.617C15.7948 22.6951 15.9519 22.7195 16.111 22.6844L16.55 22.5673L16.7266 23.2268C16.7578 23.3449 16.8115 23.4512 16.8817 23.5429C16.6349 24.1117 16.308 24.6385 15.9158 25.1088C15.4065 24.8483 14.8182 24.6278 14.1704 24.458C14.4455 23.5195 14.6113 22.4434 14.6367 21.299H15.1304V21.298ZM17.2935 23.0746C16.994 21.9536 16.6925 20.8326 16.392 19.7106C16.3432 19.5281 16.4505 19.3418 16.632 19.293L17.6486 19.0208C17.8272 18.9711 18.0174 19.0794 18.0652 19.2598C18.3599 20.3789 18.6653 21.496 18.9648 22.6141C19.0146 22.8141 18.9102 22.9936 18.7267 23.0424L17.7111 23.3146C17.5286 23.3634 17.3413 23.2551 17.2935 23.0746ZM22.442 23.098L23.4567 26.8824C23.5465 27.216 23.3455 27.5595 23.0128 27.6492C22.602 27.7575 22.1913 27.8678 21.7815 27.979C21.4507 28.0678 21.1044 27.8668 21.0156 27.5361L19.7687 22.8833L19.5501 22.8657C19.4906 23.2159 19.2321 23.5116 18.8769 23.6062L17.8613 23.8784C17.6954 23.9233 17.5276 23.9184 17.3725 23.8745C16.2514 26.3506 13.7713 27.9995 10.9956 27.9995C7.14261 27.9995 4 24.857 4 21.0042C4 17.1514 7.14261 14.009 10.9956 14.009C13.8924 14.009 16.4633 15.8031 17.5071 18.4529C17.8681 18.3729 18.2164 18.4803 18.4496 18.7603L24.2382 14.7718C24.246 14.4352 24.4763 14.1279 24.8227 14.0343C25.2402 13.9318 25.6578 14.1796 25.7671 14.5865L27.974 22.8236C28.0843 23.2333 27.8326 23.6636 27.4247 23.7738C27.0881 23.8675 26.7349 23.7114 26.5593 23.4265L22.4421 23.0968L22.442 23.098ZM21.6088 22.4443L23.3991 22.5878L21.9229 17.0775L18.6847 19.3088L19.4798 22.2747L21.6097 22.4454L21.6088 22.4443ZM22.8879 27.018L21.8244 23.049L20.3892 22.9349L21.5824 27.3866C21.5883 27.4061 21.6088 27.4188 21.6293 27.4159C22.0332 27.3027 22.442 27.1983 22.8479 27.09C22.8947 27.0744 22.8996 27.0666 22.8889 27.0188L22.8879 27.018ZM24.1299 15.5562L26.0705 22.8012L26.3652 22.8247L24.3728 15.3886L24.1299 15.5554L24.1299 15.5562ZM23.6196 15.9084L25.4529 22.7523L24.0177 22.6372L22.4332 16.7259L23.6196 15.9084ZM24.9699 14.602C24.8704 14.6323 24.8041 14.7347 24.8314 14.8381L27.0383 23.0752C27.0637 23.1699 27.1749 23.2362 27.2706 23.2099C27.3681 23.1835 27.4364 23.0743 27.4101 22.9757L25.2031 14.7386C25.1758 14.6362 25.0704 14.5806 24.9699 14.6011V14.602ZM15.5059 16.4557C15.0581 16.6704 14.5478 16.8538 13.9907 16.9982C13.6999 16.1923 13.2853 15.406 12.7262 14.8323C13.7819 15.1289 14.7351 15.6918 15.5059 16.4557ZM9.26464 14.8333C8.70655 15.4069 8.2919 16.1923 8.00115 16.9982C7.44403 16.8538 6.93378 16.6704 6.48691 16.4557C7.25086 15.6987 8.20214 15.1318 9.26461 14.8323L9.26464 14.8333ZM6.07607 16.9036C5.20479 17.9465 4.65745 19.2685 4.59208 20.7124H7.35429C7.37868 19.568 7.54552 18.4919 7.81969 17.5534C7.17283 17.3837 6.5845 17.1632 6.07519 16.9037L6.07607 16.9036ZM4.59208 21.2978C4.65745 22.7418 5.20479 24.0637 6.07607 25.1067C6.58537 24.8472 7.17368 24.6267 7.82056 24.4569C7.54542 23.5184 7.37859 22.4422 7.35419 21.2979L4.59208 21.2978ZM6.48779 25.5535C7.25174 26.3106 8.20301 26.8774 9.26548 27.177C8.7074 26.6042 8.29275 25.8179 8.002 25.012C7.44488 25.1564 6.93463 25.3398 6.48776 25.5545L6.48779 25.5535ZM12.7263 27.1779C13.781 26.8813 14.7352 26.3194 15.506 25.5545C15.0582 25.3398 14.5479 25.1564 13.9898 25.012C13.6991 25.8179 13.2844 26.6052 12.7254 27.1779H12.7263ZM8.38954 24.3232C10.0618 23.9768 11.9313 23.9768 13.6025 24.3232C13.8659 23.4314 14.0269 22.4002 14.0513 21.2978H7.93968C7.96407 22.4003 8.12506 23.4315 8.38849 24.3232H8.38954ZM10.9966 24.649C10.139 24.649 9.32143 24.731 8.57504 24.8802C9.03068 26.1105 9.8756 27.4148 10.9966 27.4148C12.1177 27.4148 12.9626 26.1114 13.4182 24.8802C12.6719 24.731 11.8543 24.649 10.9966 24.649ZM14.0513 20.7123C14.0269 19.6098 13.866 18.5786 13.6025 17.687C11.9302 18.0333 10.0608 18.0333 8.38857 17.687C8.12513 18.5787 7.96416 19.6099 7.93975 20.7123H14.0513ZM13.4181 17.1287C11.8736 17.438 10.1194 17.437 8.57482 17.1287C9.03045 15.8975 9.87537 14.5942 10.9964 14.5942C12.1184 14.5942 12.9625 15.8976 13.4181 17.1287Z"/>
</mask>
<path fill-rule="evenodd" clip-rule="evenodd" d="M16.9403 18.605C16.6885 17.9836 16.3412 17.4109 15.9168 16.9035C15.4075 17.164 14.8192 17.3836 14.1713 17.5543C14.4464 18.4928 14.6123 19.569 14.6367 20.7125H15.4065C15.4592 20.6784 15.5177 20.652 15.5821 20.6345L16.0036 20.5213L15.827 19.8618C15.6953 19.371 15.9909 18.8598 16.4817 18.7281L16.9403 18.605ZM13.9772 8.26146C13.0572 8.7922 12.1391 9.32294 11.219 9.85466C11.0229 9.96783 10.78 9.82344 10.7809 9.60198L10.78 6.39805C10.78 6.18439 11.0161 6.01462 11.2424 6.15902C12.1596 6.68879 13.0767 7.21758 13.9939 7.74735C14.1968 7.86442 14.1841 8.15901 13.9772 8.26146ZM13.264 7.99999C12.6308 7.63414 11.9986 7.26827 11.3654 6.90339V9.09561C11.9986 8.72976 12.6308 8.36584 13.264 7.99999ZM8.55734 12.8538L9.91157 11.4997C9.96913 11.4421 10.0433 11.4138 10.1184 11.4138H17.2389L17.2398 4.58535H6.70452V11.4138H8.26461C8.42657 11.4138 8.55732 11.5445 8.55732 11.7065L8.55734 12.8538ZM10.2394 11.9992H14.7205V14.4597C14.7205 14.7231 14.9361 14.9388 15.1996 14.9388H19.8233L20.9678 16.0832C21.1532 16.2715 21.4702 16.1388 21.4702 15.8793V14.9388H22.2234C22.4869 14.9388 22.7025 14.7241 22.7025 14.4597V9.90159C22.7025 9.63816 22.4869 9.42255 22.2234 9.42255H17.8242L17.8252 4.5727C17.8252 4.25758 17.5667 4 17.2525 4H6.69195C6.37779 4 6.11923 4.25855 6.11923 4.5727V11.4264C6.11923 11.7415 6.37779 11.9991 6.69195 11.9991H7.97203V13.5601C7.97203 13.8206 8.28814 13.9523 8.47449 13.764L10.2404 11.9981L10.2394 11.9992ZM17.8252 10.0069H22.1182V14.3523H21.1787C21.0167 14.3523 20.886 14.483 20.886 14.645V15.1718L20.1523 14.4381C20.0947 14.3806 20.0205 14.3523 19.9454 14.3523H15.3072V11.9981H17.2527C17.5668 11.9981 17.8254 11.7395 17.8254 11.4254V10.0059L17.8252 10.0069ZM21.1786 11.0996C21.3405 11.0996 21.4713 11.2304 21.4713 11.3923C21.4713 11.5543 21.3405 11.685 21.1786 11.685H18.7131C18.5511 11.685 18.4204 11.5543 18.4204 11.3923C18.4204 11.2304 18.5511 11.0996 18.7131 11.0996H21.1786ZM21.1786 12.6753C21.3405 12.6753 21.4713 12.806 21.4713 12.968C21.4713 13.1299 21.3405 13.2607 21.1786 13.2607H16.2476C16.0857 13.2607 15.9549 13.1299 15.9549 12.968C15.9549 12.806 16.0856 12.6753 16.2476 12.6753H21.1786ZM15.7246 21.2033C15.7109 21.2082 15.709 21.2219 15.7129 21.2365L15.9422 22.0931C15.9461 22.1087 15.9607 22.1175 15.9763 22.1146L16.4007 22.0004L16.1558 21.0853L15.7246 21.2024L15.7246 21.2033ZM15.1304 21.298C15.1412 21.3946 15.3373 22.096 15.3763 22.2443C15.4202 22.4073 15.5265 22.538 15.6621 22.617C15.7948 22.6951 15.9519 22.7195 16.111 22.6844L16.55 22.5673L16.7266 23.2268C16.7578 23.3449 16.8115 23.4512 16.8817 23.5429C16.6349 24.1117 16.308 24.6385 15.9158 25.1088C15.4065 24.8483 14.8182 24.6278 14.1704 24.458C14.4455 23.5195 14.6113 22.4434 14.6367 21.299H15.1304V21.298ZM17.2935 23.0746C16.994 21.9536 16.6925 20.8326 16.392 19.7106C16.3432 19.5281 16.4505 19.3418 16.632 19.293L17.6486 19.0208C17.8272 18.9711 18.0174 19.0794 18.0652 19.2598C18.3599 20.3789 18.6653 21.496 18.9648 22.6141C19.0146 22.8141 18.9102 22.9936 18.7267 23.0424L17.7111 23.3146C17.5286 23.3634 17.3413 23.2551 17.2935 23.0746ZM22.442 23.098L23.4567 26.8824C23.5465 27.216 23.3455 27.5595 23.0128 27.6492C22.602 27.7575 22.1913 27.8678 21.7815 27.979C21.4507 28.0678 21.1044 27.8668 21.0156 27.5361L19.7687 22.8833L19.5501 22.8657C19.4906 23.2159 19.2321 23.5116 18.8769 23.6062L17.8613 23.8784C17.6954 23.9233 17.5276 23.9184 17.3725 23.8745C16.2514 26.3506 13.7713 27.9995 10.9956 27.9995C7.14261 27.9995 4 24.857 4 21.0042C4 17.1514 7.14261 14.009 10.9956 14.009C13.8924 14.009 16.4633 15.8031 17.5071 18.4529C17.8681 18.3729 18.2164 18.4803 18.4496 18.7603L24.2382 14.7718C24.246 14.4352 24.4763 14.1279 24.8227 14.0343C25.2402 13.9318 25.6578 14.1796 25.7671 14.5865L27.974 22.8236C28.0843 23.2333 27.8326 23.6636 27.4247 23.7738C27.0881 23.8675 26.7349 23.7114 26.5593 23.4265L22.4421 23.0968L22.442 23.098ZM21.6088 22.4443L23.3991 22.5878L21.9229 17.0775L18.6847 19.3088L19.4798 22.2747L21.6097 22.4454L21.6088 22.4443ZM22.8879 27.018L21.8244 23.049L20.3892 22.9349L21.5824 27.3866C21.5883 27.4061 21.6088 27.4188 21.6293 27.4159C22.0332 27.3027 22.442 27.1983 22.8479 27.09C22.8947 27.0744 22.8996 27.0666 22.8889 27.0188L22.8879 27.018ZM24.1299 15.5562L26.0705 22.8012L26.3652 22.8247L24.3728 15.3886L24.1299 15.5554L24.1299 15.5562ZM23.6196 15.9084L25.4529 22.7523L24.0177 22.6372L22.4332 16.7259L23.6196 15.9084ZM24.9699 14.602C24.8704 14.6323 24.8041 14.7347 24.8314 14.8381L27.0383 23.0752C27.0637 23.1699 27.1749 23.2362 27.2706 23.2099C27.3681 23.1835 27.4364 23.0743 27.4101 22.9757L25.2031 14.7386C25.1758 14.6362 25.0704 14.5806 24.9699 14.6011V14.602ZM15.5059 16.4557C15.0581 16.6704 14.5478 16.8538 13.9907 16.9982C13.6999 16.1923 13.2853 15.406 12.7262 14.8323C13.7819 15.1289 14.7351 15.6918 15.5059 16.4557ZM9.26464 14.8333C8.70655 15.4069 8.2919 16.1923 8.00115 16.9982C7.44403 16.8538 6.93378 16.6704 6.48691 16.4557C7.25086 15.6987 8.20214 15.1318 9.26461 14.8323L9.26464 14.8333ZM6.07607 16.9036C5.20479 17.9465 4.65745 19.2685 4.59208 20.7124H7.35429C7.37868 19.568 7.54552 18.4919 7.81969 17.5534C7.17283 17.3837 6.5845 17.1632 6.07519 16.9037L6.07607 16.9036ZM4.59208 21.2978C4.65745 22.7418 5.20479 24.0637 6.07607 25.1067C6.58537 24.8472 7.17368 24.6267 7.82056 24.4569C7.54542 23.5184 7.37859 22.4422 7.35419 21.2979L4.59208 21.2978ZM6.48779 25.5535C7.25174 26.3106 8.20301 26.8774 9.26548 27.177C8.7074 26.6042 8.29275 25.8179 8.002 25.012C7.44488 25.1564 6.93463 25.3398 6.48776 25.5545L6.48779 25.5535ZM12.7263 27.1779C13.781 26.8813 14.7352 26.3194 15.506 25.5545C15.0582 25.3398 14.5479 25.1564 13.9898 25.012C13.6991 25.8179 13.2844 26.6052 12.7254 27.1779H12.7263ZM8.38954 24.3232C10.0618 23.9768 11.9313 23.9768 13.6025 24.3232C13.8659 23.4314 14.0269 22.4002 14.0513 21.2978H7.93968C7.96407 22.4003 8.12506 23.4315 8.38849 24.3232H8.38954ZM10.9966 24.649C10.139 24.649 9.32143 24.731 8.57504 24.8802C9.03068 26.1105 9.8756 27.4148 10.9966 27.4148C12.1177 27.4148 12.9626 26.1114 13.4182 24.8802C12.6719 24.731 11.8543 24.649 10.9966 24.649ZM14.0513 20.7123C14.0269 19.6098 13.866 18.5786 13.6025 17.687C11.9302 18.0333 10.0608 18.0333 8.38857 17.687C8.12513 18.5787 7.96416 19.6099 7.93975 20.7123H14.0513ZM13.4181 17.1287C11.8736 17.438 10.1194 17.437 8.57482 17.1287C9.03045 15.8975 9.87537 14.5942 10.9964 14.5942C12.1184 14.5942 12.9625 15.8976 13.4181 17.1287Z" fill="#0066FF"/>
<path fill-rule="evenodd" clip-rule="evenodd" d="M16.9403 18.605C16.6885 17.9836 16.3412 17.4109 15.9168 16.9035C15.4075 17.164 14.8192 17.3836 14.1713 17.5543C14.4464 18.4928 14.6123 19.569 14.6367 20.7125H15.4065C15.4592 20.6784 15.5177 20.652 15.5821 20.6345L16.0036 20.5213L15.827 19.8618C15.6953 19.371 15.9909 18.8598 16.4817 18.7281L16.9403 18.605ZM13.9772 8.26146C13.0572 8.7922 12.1391 9.32294 11.219 9.85466C11.0229 9.96783 10.78 9.82344 10.7809 9.60198L10.78 6.39805C10.78 6.18439 11.0161 6.01462 11.2424 6.15902C12.1596 6.68879 13.0767 7.21758 13.9939 7.74735C14.1968 7.86442 14.1841 8.15901 13.9772 8.26146ZM13.264 7.99999C12.6308 7.63414 11.9986 7.26827 11.3654 6.90339V9.09561C11.9986 8.72976 12.6308 8.36584 13.264 7.99999ZM8.55734 12.8538L9.91157 11.4997C9.96913 11.4421 10.0433 11.4138 10.1184 11.4138H17.2389L17.2398 4.58535H6.70452V11.4138H8.26461C8.42657 11.4138 8.55732 11.5445 8.55732 11.7065L8.55734 12.8538ZM10.2394 11.9992H14.7205V14.4597C14.7205 14.7231 14.9361 14.9388 15.1996 14.9388H19.8233L20.9678 16.0832C21.1532 16.2715 21.4702 16.1388 21.4702 15.8793V14.9388H22.2234C22.4869 14.9388 22.7025 14.7241 22.7025 14.4597V9.90159C22.7025 9.63816 22.4869 9.42255 22.2234 9.42255H17.8242L17.8252 4.5727C17.8252 4.25758 17.5667 4 17.2525 4H6.69195C6.37779 4 6.11923 4.25855 6.11923 4.5727V11.4264C6.11923 11.7415 6.37779 11.9991 6.69195 11.9991H7.97203V13.5601C7.97203 13.8206 8.28814 13.9523 8.47449 13.764L10.2404 11.9981L10.2394 11.9992ZM17.8252 10.0069H22.1182V14.3523H21.1787C21.0167 14.3523 20.886 14.483 20.886 14.645V15.1718L20.1523 14.4381C20.0947 14.3806 20.0205 14.3523 19.9454 14.3523H15.3072V11.9981H17.2527C17.5668 11.9981 17.8254 11.7395 17.8254 11.4254V10.0059L17.8252 10.0069ZM21.1786 11.0996C21.3405 11.0996 21.4713 11.2304 21.4713 11.3923C21.4713 11.5543 21.3405 11.685 21.1786 11.685H18.7131C18.5511 11.685 18.4204 11.5543 18.4204 11.3923C18.4204 11.2304 18.5511 11.0996 18.7131 11.0996H21.1786ZM21.1786 12.6753C21.3405 12.6753 21.4713 12.806 21.4713 12.968C21.4713 13.1299 21.3405 13.2607 21.1786 13.2607H16.2476C16.0857 13.2607 15.9549 13.1299 15.9549 12.968C15.9549 12.806 16.0856 12.6753 16.2476 12.6753H21.1786ZM15.7246 21.2033C15.7109 21.2082 15.709 21.2219 15.7129 21.2365L15.9422 22.0931C15.9461 22.1087 15.9607 22.1175 15.9763 22.1146L16.4007 22.0004L16.1558 21.0853L15.7246 21.2024L15.7246 21.2033ZM15.1304 21.298C15.1412 21.3946 15.3373 22.096 15.3763 22.2443C15.4202 22.4073 15.5265 22.538 15.6621 22.617C15.7948 22.6951 15.9519 22.7195 16.111 22.6844L16.55 22.5673L16.7266 23.2268C16.7578 23.3449 16.8115 23.4512 16.8817 23.5429C16.6349 24.1117 16.308 24.6385 15.9158 25.1088C15.4065 24.8483 14.8182 24.6278 14.1704 24.458C14.4455 23.5195 14.6113 22.4434 14.6367 21.299H15.1304V21.298ZM17.2935 23.0746C16.994 21.9536 16.6925 20.8326 16.392 19.7106C16.3432 19.5281 16.4505 19.3418 16.632 19.293L17.6486 19.0208C17.8272 18.9711 18.0174 19.0794 18.0652 19.2598C18.3599 20.3789 18.6653 21.496 18.9648 22.6141C19.0146 22.8141 18.9102 22.9936 18.7267 23.0424L17.7111 23.3146C17.5286 23.3634 17.3413 23.2551 17.2935 23.0746ZM22.442 23.098L23.4567 26.8824C23.5465 27.216 23.3455 27.5595 23.0128 27.6492C22.602 27.7575 22.1913 27.8678 21.7815 27.979C21.4507 28.0678 21.1044 27.8668 21.0156 27.5361L19.7687 22.8833L19.5501 22.8657C19.4906 23.2159 19.2321 23.5116 18.8769 23.6062L17.8613 23.8784C17.6954 23.9233 17.5276 23.9184 17.3725 23.8745C16.2514 26.3506 13.7713 27.9995 10.9956 27.9995C7.14261 27.9995 4 24.857 4 21.0042C4 17.1514 7.14261 14.009 10.9956 14.009C13.8924 14.009 16.4633 15.8031 17.5071 18.4529C17.8681 18.3729 18.2164 18.4803 18.4496 18.7603L24.2382 14.7718C24.246 14.4352 24.4763 14.1279 24.8227 14.0343C25.2402 13.9318 25.6578 14.1796 25.7671 14.5865L27.974 22.8236C28.0843 23.2333 27.8326 23.6636 27.4247 23.7738C27.0881 23.8675 26.7349 23.7114 26.5593 23.4265L22.4421 23.0968L22.442 23.098ZM21.6088 22.4443L23.3991 22.5878L21.9229 17.0775L18.6847 19.3088L19.4798 22.2747L21.6097 22.4454L21.6088 22.4443ZM22.8879 27.018L21.8244 23.049L20.3892 22.9349L21.5824 27.3866C21.5883 27.4061 21.6088 27.4188 21.6293 27.4159C22.0332 27.3027 22.442 27.1983 22.8479 27.09C22.8947 27.0744 22.8996 27.0666 22.8889 27.0188L22.8879 27.018ZM24.1299 15.5562L26.0705 22.8012L26.3652 22.8247L24.3728 15.3886L24.1299 15.5554L24.1299 15.5562ZM23.6196 15.9084L25.4529 22.7523L24.0177 22.6372L22.4332 16.7259L23.6196 15.9084ZM24.9699 14.602C24.8704 14.6323 24.8041 14.7347 24.8314 14.8381L27.0383 23.0752C27.0637 23.1699 27.1749 23.2362 27.2706 23.2099C27.3681 23.1835 27.4364 23.0743 27.4101 22.9757L25.2031 14.7386C25.1758 14.6362 25.0704 14.5806 24.9699 14.6011V14.602ZM15.5059 16.4557C15.0581 16.6704 14.5478 16.8538 13.9907 16.9982C13.6999 16.1923 13.2853 15.406 12.7262 14.8323C13.7819 15.1289 14.7351 15.6918 15.5059 16.4557ZM9.26464 14.8333C8.70655 15.4069 8.2919 16.1923 8.00115 16.9982C7.44403 16.8538 6.93378 16.6704 6.48691 16.4557C7.25086 15.6987 8.20214 15.1318 9.26461 14.8323L9.26464 14.8333ZM6.07607 16.9036C5.20479 17.9465 4.65745 19.2685 4.59208 20.7124H7.35429C7.37868 19.568 7.54552 18.4919 7.81969 17.5534C7.17283 17.3837 6.5845 17.1632 6.07519 16.9037L6.07607 16.9036ZM4.59208 21.2978C4.65745 22.7418 5.20479 24.0637 6.07607 25.1067C6.58537 24.8472 7.17368 24.6267 7.82056 24.4569C7.54542 23.5184 7.37859 22.4422 7.35419 21.2979L4.59208 21.2978ZM6.48779 25.5535C7.25174 26.3106 8.20301 26.8774 9.26548 27.177C8.7074 26.6042 8.29275 25.8179 8.002 25.012C7.44488 25.1564 6.93463 25.3398 6.48776 25.5545L6.48779 25.5535ZM12.7263 27.1779C13.781 26.8813 14.7352 26.3194 15.506 25.5545C15.0582 25.3398 14.5479 25.1564 13.9898 25.012C13.6991 25.8179 13.2844 26.6052 12.7254 27.1779H12.7263ZM8.38954 24.3232C10.0618 23.9768 11.9313 23.9768 13.6025 24.3232C13.8659 23.4314 14.0269 22.4002 14.0513 21.2978H7.93968C7.96407 22.4003 8.12506 23.4315 8.38849 24.3232H8.38954ZM10.9966 24.649C10.139 24.649 9.32143 24.731 8.57504 24.8802C9.03068 26.1105 9.8756 27.4148 10.9966 27.4148C12.1177 27.4148 12.9626 26.1114 13.4182 24.8802C12.6719 24.731 11.8543 24.649 10.9966 24.649ZM14.0513 20.7123C14.0269 19.6098 13.866 18.5786 13.6025 17.687C11.9302 18.0333 10.0608 18.0333 8.38857 17.687C8.12513 18.5787 7.96416 19.6099 7.93975 20.7123H14.0513ZM13.4181 17.1287C11.8736 17.438 10.1194 17.437 8.57482 17.1287C9.03045 15.8975 9.87537 14.5942 10.9964 14.5942C12.1184 14.5942 12.9625 15.8976 13.4181 17.1287Z" stroke="#0066FF" stroke-width="0.2" mask="url(#path-1-outside-1_4939_1477)"/>
</svg>
