<svg width="34" height="34" viewBox="0 0 34 34" fill="none" xmlns="http://www.w3.org/2000/svg">
<mask id="path-1-outside-1_4941_1705" maskUnits="userSpaceOnUse" x="5" y="3" width="25" height="28" fill="black">
<rect fill="white" x="5" y="3" width="25" height="28"/>
<path fill-rule="evenodd" clip-rule="evenodd" d="M21.4107 25.0213C21.4247 25.0115 21.4397 25.004 21.4558 24.9964L21.6503 24.888C21.7718 24.8209 21.9243 24.8165 22.0544 24.8913C22.2865 25.0235 22.5508 25.134 22.8066 25.2065C22.9409 25.2444 23.0527 25.3484 23.0946 25.4936L23.36 26.4199H24.066L24.3271 25.5088C24.3626 25.3668 24.47 25.2488 24.6194 25.2065C24.8429 25.1437 25.1567 25.0202 25.3555 24.901C25.479 24.823 25.6391 24.8133 25.7756 24.8891L26.6138 25.356L27.1113 24.8544L26.6482 24.0094C26.5815 23.8859 26.5772 23.7332 26.6514 23.6021C26.7825 23.3681 26.8921 23.1016 26.9641 22.8427C27.0017 22.7072 27.1048 22.5946 27.2488 22.5523L28.1676 22.2847V21.573L27.2639 21.3097C27.1231 21.274 27.006 21.1657 26.9641 21.0151C26.9017 20.7897 26.7792 20.4734 26.661 20.273C26.5837 20.1484 26.574 19.987 26.6492 19.8483L27.1124 19.0033L26.6148 18.5017L25.7767 18.9687C25.6552 19.0358 25.5026 19.0402 25.3726 18.9654C25.1405 18.8332 24.8762 18.7227 24.6204 18.6502C24.4861 18.6122 24.3743 18.5082 24.3324 18.3631L24.067 17.4368H23.361L23.0999 18.3479C23.0644 18.4898 22.957 18.6079 22.8076 18.6502C22.5841 18.713 22.2703 18.8365 22.0715 18.9557C21.948 19.0337 21.7879 19.0434 21.6503 18.9676L21.4558 18.8593C21.4408 18.8517 21.4257 18.843 21.4107 18.8343L20.8122 18.5018L20.3146 19.0033L20.7778 19.8484C20.8444 19.9719 20.8487 20.1246 20.7745 20.2557C20.709 20.3727 20.6488 20.4973 20.5962 20.6262C20.5424 20.7551 20.4984 20.8851 20.4629 21.014C20.4253 21.1494 20.3221 21.2621 20.1781 21.3044L19.2594 21.5719V22.2837L20.1631 22.5469C20.3039 22.5827 20.421 22.691 20.4629 22.8416C20.5252 23.0669 20.6477 23.3833 20.766 23.5837C20.8433 23.7083 20.853 23.8697 20.7778 24.0083L20.3146 24.8534L20.8122 25.3549L21.4107 25.0213ZM16.3516 20.3976C16.5815 20.3976 16.7674 20.585 16.7674 20.8168C16.7674 21.0487 16.5815 21.2361 16.3516 21.2361L11.6407 21.2372C11.4107 21.2372 11.2248 21.0497 11.2248 20.8179C11.2248 20.5861 11.4107 20.3987 11.6407 20.3987L16.3516 20.3976ZM10.1136 20.3976C10.3436 20.3976 10.5295 20.585 10.5295 20.8168C10.5295 21.0487 10.3436 21.2361 10.1136 21.2361H9.41624C9.18628 21.2361 9.00039 21.0487 9.00039 20.8168C9.00039 20.585 9.18629 20.3976 9.41624 20.3976H10.1136ZM16.3516 22.5556C16.5815 22.5556 16.7674 22.743 16.7674 22.9748C16.7674 23.2066 16.5815 23.3941 16.3516 23.3941H11.6407C11.4107 23.3941 11.2248 23.2066 11.2248 22.9748C11.2248 22.743 11.4107 22.5556 11.6407 22.5556H16.3516ZM10.1136 22.5556C10.3436 22.5556 10.5295 22.743 10.5295 22.9748C10.5295 23.2066 10.3436 23.3941 10.1136 23.3941H9.41624C9.18628 23.3941 9.00039 23.2066 9.00039 22.9748C9.00039 22.743 9.18629 22.5556 9.41624 22.5556H10.1136ZM11.3795 15.4911C11.5536 15.6416 11.574 15.9049 11.4246 16.0815C11.2753 16.257 11.0141 16.2776 10.8401 16.127L7.95163 13.6461C7.75499 13.4761 7.76143 13.1717 7.957 13.0059L10.8399 10.5294C11.014 10.3788 11.2762 10.3994 11.4245 10.5749C11.5739 10.7504 11.5534 11.0147 11.3794 11.1653L8.86167 13.3287L11.3795 15.4911ZM17.2089 16.127C17.0348 16.2776 16.7726 16.257 16.6243 16.0815C16.475 15.906 16.4954 15.6417 16.6695 15.4911L19.1872 13.3276L16.6695 11.1642C16.4954 11.0136 16.475 10.7504 16.6243 10.5738C16.7737 10.3983 17.0348 10.3777 17.2089 10.5283L20.1424 13.0557C20.2918 13.2312 20.2714 13.4956 20.0973 13.6461L17.2089 16.127ZM14.5998 10.341C14.674 10.1221 14.9093 10.0052 15.1264 10.0788C15.3435 10.1536 15.4595 10.3908 15.3864 10.6097L13.4501 16.3144C13.3759 16.5332 13.1406 16.6502 12.9235 16.5766C12.7065 16.5018 12.5904 16.2646 12.6635 16.0457L14.5998 10.341ZM21.4985 21.9282C21.4985 20.6943 22.4903 19.6944 23.7143 19.6944C24.9382 19.6944 25.93 20.6943 25.93 21.9282C25.93 23.1622 24.9382 24.1621 23.7143 24.1621C22.4903 24.161 21.4985 23.1611 21.4985 21.9282ZM22.7353 20.9413C23.2758 20.3964 24.1516 20.3964 24.6921 20.9413C25.5615 21.8178 24.9425 23.3225 23.7132 23.3225C22.485 23.3225 21.866 21.8177 22.7353 20.9413ZM22.0498 25.8118V28.0879C22.0498 29.1409 21.1965 30 20.1532 30H7.8966C6.85211 30 6 29.1398 6 28.0879V5.91207C6 4.85907 6.85214 4 7.8966 4H20.1532C21.1976 4 22.0498 4.86018 22.0498 5.91207V18.0432L22.3614 17.9132L22.6515 16.9003C22.7042 16.7172 22.8697 16.598 23.0491 16.5991V16.598H24.3773C24.5793 16.598 24.748 16.7432 24.7856 16.9361L25.0661 17.9143L25.5722 18.1255L26.4888 17.6153C26.6542 17.5232 26.8552 17.5579 26.982 17.6857H26.9831L27.9222 18.6326C28.063 18.7745 28.0824 18.9912 27.9792 19.1537L27.486 20.055L27.6955 20.5652L28.7002 20.8577C28.8818 20.9108 28.9989 21.0776 28.9989 21.2586H29V22.5975C29 22.8012 28.856 22.9713 28.6647 23.0092L27.6955 23.292L27.4859 23.8022L27.992 24.7263C28.0834 24.8931 28.049 25.0957 27.9222 25.2235H27.9233L26.9841 26.1704C26.8433 26.3123 26.6284 26.3307 26.4672 26.2278L25.5743 25.7305L25.0682 25.9418L24.778 26.9547C24.7254 27.1378 24.5599 27.2558 24.3804 27.2558V27.2569H23.0523C22.8503 27.2569 22.6815 27.1118 22.6439 26.9189L22.3635 25.9418L22.0498 25.8118ZM21.2181 17.7703L20.9623 17.6284C20.8011 17.5255 20.5862 17.545 20.4454 17.6858L19.5063 18.6326C19.3795 18.7605 19.3451 18.963 19.4364 19.1299L19.9425 20.054L19.733 20.5642L18.7627 20.8469C18.5714 20.8849 18.4274 21.0549 18.4274 21.2586V22.5976H18.4285C18.4285 22.7785 18.5467 22.9464 18.7272 22.9984L19.7319 23.2909L19.9414 23.8012L19.4482 24.7025C19.3461 24.865 19.3655 25.0817 19.5051 25.2236L20.4443 26.1704C20.5711 26.2983 20.7721 26.3329 20.9376 26.2409L21.2169 26.0859V28.089C21.2169 28.6784 20.7366 29.1626 20.152 29.1626L7.89658 29.1615C7.31202 29.1615 6.83168 28.6773 6.83168 28.088V5.91211C6.83168 5.32278 7.31202 4.83852 7.89658 4.83852H20.1531C20.7377 4.83852 21.218 5.32278 21.218 5.91211L21.217 17.7703L21.2181 17.7703ZM13.1211 26.0731C12.7977 26.0731 12.5043 26.2063 12.2915 26.4208C11.549 27.1694 12.0852 28.4413 13.1211 28.4413H14.9274C15.2509 28.4413 15.5442 28.308 15.757 28.0935C16.4995 27.3449 15.9633 26.0731 14.9274 26.0731H13.1211ZM14.9274 26.9127H13.1211C12.8235 26.9127 12.6601 27.2799 12.8793 27.5009C12.9417 27.5638 13.0276 27.6028 13.1211 27.6028H14.9274C15.2251 27.6028 15.3884 27.2355 15.1692 27.0145C15.1069 26.9517 15.022 26.9127 14.9274 26.9127ZM11.0525 6.79186H16.9969C17.2269 6.79186 17.4128 6.60444 17.4128 6.37261C17.4128 6.14078 17.2269 5.95337 16.9969 5.95337H11.0525C10.8226 5.95337 10.6367 6.14079 10.6367 6.37261C10.6367 6.60445 10.8226 6.79186 11.0525 6.79186Z"/>
</mask>
<path fill-rule="evenodd" clip-rule="evenodd" d="M21.4107 25.0213C21.4247 25.0115 21.4397 25.004 21.4558 24.9964L21.6503 24.888C21.7718 24.8209 21.9243 24.8165 22.0544 24.8913C22.2865 25.0235 22.5508 25.134 22.8066 25.2065C22.9409 25.2444 23.0527 25.3484 23.0946 25.4936L23.36 26.4199H24.066L24.3271 25.5088C24.3626 25.3668 24.47 25.2488 24.6194 25.2065C24.8429 25.1437 25.1567 25.0202 25.3555 24.901C25.479 24.823 25.6391 24.8133 25.7756 24.8891L26.6138 25.356L27.1113 24.8544L26.6482 24.0094C26.5815 23.8859 26.5772 23.7332 26.6514 23.6021C26.7825 23.3681 26.8921 23.1016 26.9641 22.8427C27.0017 22.7072 27.1048 22.5946 27.2488 22.5523L28.1676 22.2847V21.573L27.2639 21.3097C27.1231 21.274 27.006 21.1657 26.9641 21.0151C26.9017 20.7897 26.7792 20.4734 26.661 20.273C26.5837 20.1484 26.574 19.987 26.6492 19.8483L27.1124 19.0033L26.6148 18.5017L25.7767 18.9687C25.6552 19.0358 25.5026 19.0402 25.3726 18.9654C25.1405 18.8332 24.8762 18.7227 24.6204 18.6502C24.4861 18.6122 24.3743 18.5082 24.3324 18.3631L24.067 17.4368H23.361L23.0999 18.3479C23.0644 18.4898 22.957 18.6079 22.8076 18.6502C22.5841 18.713 22.2703 18.8365 22.0715 18.9557C21.948 19.0337 21.7879 19.0434 21.6503 18.9676L21.4558 18.8593C21.4408 18.8517 21.4257 18.843 21.4107 18.8343L20.8122 18.5018L20.3146 19.0033L20.7778 19.8484C20.8444 19.9719 20.8487 20.1246 20.7745 20.2557C20.709 20.3727 20.6488 20.4973 20.5962 20.6262C20.5424 20.7551 20.4984 20.8851 20.4629 21.014C20.4253 21.1494 20.3221 21.2621 20.1781 21.3044L19.2594 21.5719V22.2837L20.1631 22.5469C20.3039 22.5827 20.421 22.691 20.4629 22.8416C20.5252 23.0669 20.6477 23.3833 20.766 23.5837C20.8433 23.7083 20.853 23.8697 20.7778 24.0083L20.3146 24.8534L20.8122 25.3549L21.4107 25.0213ZM16.3516 20.3976C16.5815 20.3976 16.7674 20.585 16.7674 20.8168C16.7674 21.0487 16.5815 21.2361 16.3516 21.2361L11.6407 21.2372C11.4107 21.2372 11.2248 21.0497 11.2248 20.8179C11.2248 20.5861 11.4107 20.3987 11.6407 20.3987L16.3516 20.3976ZM10.1136 20.3976C10.3436 20.3976 10.5295 20.585 10.5295 20.8168C10.5295 21.0487 10.3436 21.2361 10.1136 21.2361H9.41624C9.18628 21.2361 9.00039 21.0487 9.00039 20.8168C9.00039 20.585 9.18629 20.3976 9.41624 20.3976H10.1136ZM16.3516 22.5556C16.5815 22.5556 16.7674 22.743 16.7674 22.9748C16.7674 23.2066 16.5815 23.3941 16.3516 23.3941H11.6407C11.4107 23.3941 11.2248 23.2066 11.2248 22.9748C11.2248 22.743 11.4107 22.5556 11.6407 22.5556H16.3516ZM10.1136 22.5556C10.3436 22.5556 10.5295 22.743 10.5295 22.9748C10.5295 23.2066 10.3436 23.3941 10.1136 23.3941H9.41624C9.18628 23.3941 9.00039 23.2066 9.00039 22.9748C9.00039 22.743 9.18629 22.5556 9.41624 22.5556H10.1136ZM11.3795 15.4911C11.5536 15.6416 11.574 15.9049 11.4246 16.0815C11.2753 16.257 11.0141 16.2776 10.8401 16.127L7.95163 13.6461C7.75499 13.4761 7.76143 13.1717 7.957 13.0059L10.8399 10.5294C11.014 10.3788 11.2762 10.3994 11.4245 10.5749C11.5739 10.7504 11.5534 11.0147 11.3794 11.1653L8.86167 13.3287L11.3795 15.4911ZM17.2089 16.127C17.0348 16.2776 16.7726 16.257 16.6243 16.0815C16.475 15.906 16.4954 15.6417 16.6695 15.4911L19.1872 13.3276L16.6695 11.1642C16.4954 11.0136 16.475 10.7504 16.6243 10.5738C16.7737 10.3983 17.0348 10.3777 17.2089 10.5283L20.1424 13.0557C20.2918 13.2312 20.2714 13.4956 20.0973 13.6461L17.2089 16.127ZM14.5998 10.341C14.674 10.1221 14.9093 10.0052 15.1264 10.0788C15.3435 10.1536 15.4595 10.3908 15.3864 10.6097L13.4501 16.3144C13.3759 16.5332 13.1406 16.6502 12.9235 16.5766C12.7065 16.5018 12.5904 16.2646 12.6635 16.0457L14.5998 10.341ZM21.4985 21.9282C21.4985 20.6943 22.4903 19.6944 23.7143 19.6944C24.9382 19.6944 25.93 20.6943 25.93 21.9282C25.93 23.1622 24.9382 24.1621 23.7143 24.1621C22.4903 24.161 21.4985 23.1611 21.4985 21.9282ZM22.7353 20.9413C23.2758 20.3964 24.1516 20.3964 24.6921 20.9413C25.5615 21.8178 24.9425 23.3225 23.7132 23.3225C22.485 23.3225 21.866 21.8177 22.7353 20.9413ZM22.0498 25.8118V28.0879C22.0498 29.1409 21.1965 30 20.1532 30H7.8966C6.85211 30 6 29.1398 6 28.0879V5.91207C6 4.85907 6.85214 4 7.8966 4H20.1532C21.1976 4 22.0498 4.86018 22.0498 5.91207V18.0432L22.3614 17.9132L22.6515 16.9003C22.7042 16.7172 22.8697 16.598 23.0491 16.5991V16.598H24.3773C24.5793 16.598 24.748 16.7432 24.7856 16.9361L25.0661 17.9143L25.5722 18.1255L26.4888 17.6153C26.6542 17.5232 26.8552 17.5579 26.982 17.6857H26.9831L27.9222 18.6326C28.063 18.7745 28.0824 18.9912 27.9792 19.1537L27.486 20.055L27.6955 20.5652L28.7002 20.8577C28.8818 20.9108 28.9989 21.0776 28.9989 21.2586H29V22.5975C29 22.8012 28.856 22.9713 28.6647 23.0092L27.6955 23.292L27.4859 23.8022L27.992 24.7263C28.0834 24.8931 28.049 25.0957 27.9222 25.2235H27.9233L26.9841 26.1704C26.8433 26.3123 26.6284 26.3307 26.4672 26.2278L25.5743 25.7305L25.0682 25.9418L24.778 26.9547C24.7254 27.1378 24.5599 27.2558 24.3804 27.2558V27.2569H23.0523C22.8503 27.2569 22.6815 27.1118 22.6439 26.9189L22.3635 25.9418L22.0498 25.8118ZM21.2181 17.7703L20.9623 17.6284C20.8011 17.5255 20.5862 17.545 20.4454 17.6858L19.5063 18.6326C19.3795 18.7605 19.3451 18.963 19.4364 19.1299L19.9425 20.054L19.733 20.5642L18.7627 20.8469C18.5714 20.8849 18.4274 21.0549 18.4274 21.2586V22.5976H18.4285C18.4285 22.7785 18.5467 22.9464 18.7272 22.9984L19.7319 23.2909L19.9414 23.8012L19.4482 24.7025C19.3461 24.865 19.3655 25.0817 19.5051 25.2236L20.4443 26.1704C20.5711 26.2983 20.7721 26.3329 20.9376 26.2409L21.2169 26.0859V28.089C21.2169 28.6784 20.7366 29.1626 20.152 29.1626L7.89658 29.1615C7.31202 29.1615 6.83168 28.6773 6.83168 28.088V5.91211C6.83168 5.32278 7.31202 4.83852 7.89658 4.83852H20.1531C20.7377 4.83852 21.218 5.32278 21.218 5.91211L21.217 17.7703L21.2181 17.7703ZM13.1211 26.0731C12.7977 26.0731 12.5043 26.2063 12.2915 26.4208C11.549 27.1694 12.0852 28.4413 13.1211 28.4413H14.9274C15.2509 28.4413 15.5442 28.308 15.757 28.0935C16.4995 27.3449 15.9633 26.0731 14.9274 26.0731H13.1211ZM14.9274 26.9127H13.1211C12.8235 26.9127 12.6601 27.2799 12.8793 27.5009C12.9417 27.5638 13.0276 27.6028 13.1211 27.6028H14.9274C15.2251 27.6028 15.3884 27.2355 15.1692 27.0145C15.1069 26.9517 15.022 26.9127 14.9274 26.9127ZM11.0525 6.79186H16.9969C17.2269 6.79186 17.4128 6.60444 17.4128 6.37261C17.4128 6.14078 17.2269 5.95337 16.9969 5.95337H11.0525C10.8226 5.95337 10.6367 6.14079 10.6367 6.37261C10.6367 6.60445 10.8226 6.79186 11.0525 6.79186Z" fill="#0066FF"/>
<path fill-rule="evenodd" clip-rule="evenodd" d="M21.4107 25.0213C21.4247 25.0115 21.4397 25.004 21.4558 24.9964L21.6503 24.888C21.7718 24.8209 21.9243 24.8165 22.0544 24.8913C22.2865 25.0235 22.5508 25.134 22.8066 25.2065C22.9409 25.2444 23.0527 25.3484 23.0946 25.4936L23.36 26.4199H24.066L24.3271 25.5088C24.3626 25.3668 24.47 25.2488 24.6194 25.2065C24.8429 25.1437 25.1567 25.0202 25.3555 24.901C25.479 24.823 25.6391 24.8133 25.7756 24.8891L26.6138 25.356L27.1113 24.8544L26.6482 24.0094C26.5815 23.8859 26.5772 23.7332 26.6514 23.6021C26.7825 23.3681 26.8921 23.1016 26.9641 22.8427C27.0017 22.7072 27.1048 22.5946 27.2488 22.5523L28.1676 22.2847V21.573L27.2639 21.3097C27.1231 21.274 27.006 21.1657 26.9641 21.0151C26.9017 20.7897 26.7792 20.4734 26.661 20.273C26.5837 20.1484 26.574 19.987 26.6492 19.8483L27.1124 19.0033L26.6148 18.5017L25.7767 18.9687C25.6552 19.0358 25.5026 19.0402 25.3726 18.9654C25.1405 18.8332 24.8762 18.7227 24.6204 18.6502C24.4861 18.6122 24.3743 18.5082 24.3324 18.3631L24.067 17.4368H23.361L23.0999 18.3479C23.0644 18.4898 22.957 18.6079 22.8076 18.6502C22.5841 18.713 22.2703 18.8365 22.0715 18.9557C21.948 19.0337 21.7879 19.0434 21.6503 18.9676L21.4558 18.8593C21.4408 18.8517 21.4257 18.843 21.4107 18.8343L20.8122 18.5018L20.3146 19.0033L20.7778 19.8484C20.8444 19.9719 20.8487 20.1246 20.7745 20.2557C20.709 20.3727 20.6488 20.4973 20.5962 20.6262C20.5424 20.7551 20.4984 20.8851 20.4629 21.014C20.4253 21.1494 20.3221 21.2621 20.1781 21.3044L19.2594 21.5719V22.2837L20.1631 22.5469C20.3039 22.5827 20.421 22.691 20.4629 22.8416C20.5252 23.0669 20.6477 23.3833 20.766 23.5837C20.8433 23.7083 20.853 23.8697 20.7778 24.0083L20.3146 24.8534L20.8122 25.3549L21.4107 25.0213ZM16.3516 20.3976C16.5815 20.3976 16.7674 20.585 16.7674 20.8168C16.7674 21.0487 16.5815 21.2361 16.3516 21.2361L11.6407 21.2372C11.4107 21.2372 11.2248 21.0497 11.2248 20.8179C11.2248 20.5861 11.4107 20.3987 11.6407 20.3987L16.3516 20.3976ZM10.1136 20.3976C10.3436 20.3976 10.5295 20.585 10.5295 20.8168C10.5295 21.0487 10.3436 21.2361 10.1136 21.2361H9.41624C9.18628 21.2361 9.00039 21.0487 9.00039 20.8168C9.00039 20.585 9.18629 20.3976 9.41624 20.3976H10.1136ZM16.3516 22.5556C16.5815 22.5556 16.7674 22.743 16.7674 22.9748C16.7674 23.2066 16.5815 23.3941 16.3516 23.3941H11.6407C11.4107 23.3941 11.2248 23.2066 11.2248 22.9748C11.2248 22.743 11.4107 22.5556 11.6407 22.5556H16.3516ZM10.1136 22.5556C10.3436 22.5556 10.5295 22.743 10.5295 22.9748C10.5295 23.2066 10.3436 23.3941 10.1136 23.3941H9.41624C9.18628 23.3941 9.00039 23.2066 9.00039 22.9748C9.00039 22.743 9.18629 22.5556 9.41624 22.5556H10.1136ZM11.3795 15.4911C11.5536 15.6416 11.574 15.9049 11.4246 16.0815C11.2753 16.257 11.0141 16.2776 10.8401 16.127L7.95163 13.6461C7.75499 13.4761 7.76143 13.1717 7.957 13.0059L10.8399 10.5294C11.014 10.3788 11.2762 10.3994 11.4245 10.5749C11.5739 10.7504 11.5534 11.0147 11.3794 11.1653L8.86167 13.3287L11.3795 15.4911ZM17.2089 16.127C17.0348 16.2776 16.7726 16.257 16.6243 16.0815C16.475 15.906 16.4954 15.6417 16.6695 15.4911L19.1872 13.3276L16.6695 11.1642C16.4954 11.0136 16.475 10.7504 16.6243 10.5738C16.7737 10.3983 17.0348 10.3777 17.2089 10.5283L20.1424 13.0557C20.2918 13.2312 20.2714 13.4956 20.0973 13.6461L17.2089 16.127ZM14.5998 10.341C14.674 10.1221 14.9093 10.0052 15.1264 10.0788C15.3435 10.1536 15.4595 10.3908 15.3864 10.6097L13.4501 16.3144C13.3759 16.5332 13.1406 16.6502 12.9235 16.5766C12.7065 16.5018 12.5904 16.2646 12.6635 16.0457L14.5998 10.341ZM21.4985 21.9282C21.4985 20.6943 22.4903 19.6944 23.7143 19.6944C24.9382 19.6944 25.93 20.6943 25.93 21.9282C25.93 23.1622 24.9382 24.1621 23.7143 24.1621C22.4903 24.161 21.4985 23.1611 21.4985 21.9282ZM22.7353 20.9413C23.2758 20.3964 24.1516 20.3964 24.6921 20.9413C25.5615 21.8178 24.9425 23.3225 23.7132 23.3225C22.485 23.3225 21.866 21.8177 22.7353 20.9413ZM22.0498 25.8118V28.0879C22.0498 29.1409 21.1965 30 20.1532 30H7.8966C6.85211 30 6 29.1398 6 28.0879V5.91207C6 4.85907 6.85214 4 7.8966 4H20.1532C21.1976 4 22.0498 4.86018 22.0498 5.91207V18.0432L22.3614 17.9132L22.6515 16.9003C22.7042 16.7172 22.8697 16.598 23.0491 16.5991V16.598H24.3773C24.5793 16.598 24.748 16.7432 24.7856 16.9361L25.0661 17.9143L25.5722 18.1255L26.4888 17.6153C26.6542 17.5232 26.8552 17.5579 26.982 17.6857H26.9831L27.9222 18.6326C28.063 18.7745 28.0824 18.9912 27.9792 19.1537L27.486 20.055L27.6955 20.5652L28.7002 20.8577C28.8818 20.9108 28.9989 21.0776 28.9989 21.2586H29V22.5975C29 22.8012 28.856 22.9713 28.6647 23.0092L27.6955 23.292L27.4859 23.8022L27.992 24.7263C28.0834 24.8931 28.049 25.0957 27.9222 25.2235H27.9233L26.9841 26.1704C26.8433 26.3123 26.6284 26.3307 26.4672 26.2278L25.5743 25.7305L25.0682 25.9418L24.778 26.9547C24.7254 27.1378 24.5599 27.2558 24.3804 27.2558V27.2569H23.0523C22.8503 27.2569 22.6815 27.1118 22.6439 26.9189L22.3635 25.9418L22.0498 25.8118ZM21.2181 17.7703L20.9623 17.6284C20.8011 17.5255 20.5862 17.545 20.4454 17.6858L19.5063 18.6326C19.3795 18.7605 19.3451 18.963 19.4364 19.1299L19.9425 20.054L19.733 20.5642L18.7627 20.8469C18.5714 20.8849 18.4274 21.0549 18.4274 21.2586V22.5976H18.4285C18.4285 22.7785 18.5467 22.9464 18.7272 22.9984L19.7319 23.2909L19.9414 23.8012L19.4482 24.7025C19.3461 24.865 19.3655 25.0817 19.5051 25.2236L20.4443 26.1704C20.5711 26.2983 20.7721 26.3329 20.9376 26.2409L21.2169 26.0859V28.089C21.2169 28.6784 20.7366 29.1626 20.152 29.1626L7.89658 29.1615C7.31202 29.1615 6.83168 28.6773 6.83168 28.088V5.91211C6.83168 5.32278 7.31202 4.83852 7.89658 4.83852H20.1531C20.7377 4.83852 21.218 5.32278 21.218 5.91211L21.217 17.7703L21.2181 17.7703ZM13.1211 26.0731C12.7977 26.0731 12.5043 26.2063 12.2915 26.4208C11.549 27.1694 12.0852 28.4413 13.1211 28.4413H14.9274C15.2509 28.4413 15.5442 28.308 15.757 28.0935C16.4995 27.3449 15.9633 26.0731 14.9274 26.0731H13.1211ZM14.9274 26.9127H13.1211C12.8235 26.9127 12.6601 27.2799 12.8793 27.5009C12.9417 27.5638 13.0276 27.6028 13.1211 27.6028H14.9274C15.2251 27.6028 15.3884 27.2355 15.1692 27.0145C15.1069 26.9517 15.022 26.9127 14.9274 26.9127ZM11.0525 6.79186H16.9969C17.2269 6.79186 17.4128 6.60444 17.4128 6.37261C17.4128 6.14078 17.2269 5.95337 16.9969 5.95337H11.0525C10.8226 5.95337 10.6367 6.14079 10.6367 6.37261C10.6367 6.60445 10.8226 6.79186 11.0525 6.79186Z" stroke="#0066FF" stroke-width="0.2" mask="url(#path-1-outside-1_4941_1705)"/>
</svg>
