<svg width="34" height="34" viewBox="0 0 34 34" fill="none" xmlns="http://www.w3.org/2000/svg">
<path d="M16.7559 4.07031L17.4497 5.37351C17.6057 5.61395 17.7748 5.82689 17.9737 6.02521C18.5546 6.60612 19.1063 7.21452 19.602 7.86622C20.7774 9.40985 21.5705 11.1241 22.1366 12.978C22.4763 14.1106 22.6606 15.2724 22.6744 16.4471C22.7312 19.9593 21.5272 22.975 19.0998 25.4811C18.7034 25.8776 18.2793 26.2448 17.8243 26.5714C17.5839 26.5714 17.47 26.3869 17.371 26.2173C17.1867 25.906 17.0736 25.5509 17.0168 25.1976C16.9314 24.7725 16.8755 24.3478 16.9031 23.909V23.7109C16.8836 23.6686 16.6717 4.17035 16.7561 4.07051V4.0707L16.7559 4.07031Z" fill="#0066FF"/>
<path d="M16.7559 4.0279C16.7274 3.97116 16.6992 4.01406 16.6705 4.04175C16.6843 4.32606 16.5851 4.57956 16.4301 4.82175C16.2594 5.06219 16.0336 5.24686 15.8068 5.44498C14.5477 6.53524 13.5565 7.85228 12.7627 9.32513C11.7065 11.3075 11.1621 13.4319 11.0078 15.6685C10.9372 16.4753 11.2631 19.3221 11.5174 20.1434C12.2112 22.3239 13.4574 24.1511 15.0717 25.7369C15.4681 26.1187 15.8922 26.4728 16.331 26.8133C16.4585 26.8133 16.4724 26.6996 16.5014 26.615C16.557 26.434 16.6001 26.2491 16.629 26.0623L16.9133 23.9388L16.7557 4.0279H16.7559Z" fill="#0066FF"/>
<path d="M17.4488 27.4342C17.4773 27.1092 17.6333 26.8395 17.8031 26.5706C17.6325 26.5 17.5057 26.3594 17.4067 26.2026C17.3213 26.0612 17.2507 25.8914 17.1955 25.7354C16.9972 25.1406 16.9551 24.5166 16.8981 23.909V23.541C16.8275 23.5978 16.8127 24.0788 16.8127 24.1504C16.7731 24.791 16.6852 25.4335 16.5576 26.0624C16.5153 26.3175 16.4871 26.5717 16.3301 26.7983C16.3301 26.8268 16.3301 26.8551 16.3439 26.8976C16.599 27.6483 16.669 28.4127 16.7119 29.192V29.4763C16.7119 29.8158 16.698 29.7442 16.98 29.8581C17.0937 29.9004 17.2205 29.9148 17.3341 29.9995C17.4196 29.9995 17.4334 29.9289 17.4334 29.8719L17.3911 29.4047V28.1015C17.3772 27.874 17.4196 27.6481 17.4478 27.4354L17.4488 27.4342Z" fill="#0066FF"/>
</svg>
