<svg width="34" height="34" viewBox="0 0 34 34" fill="none" xmlns="http://www.w3.org/2000/svg">
<path d="M9.0612 25.2166H7.92816C7.88991 23.3044 7.77995 21.5005 7.59828 19.805L5.86286 25.2166H4.99993L3.28364 19.805C3.15774 21.4288 3.07806 23.2327 3.0446 25.2166H2C2.06693 22.8024 2.23426 20.5388 2.50198 18.4258H3.91231L5.54733 23.4143L7.19192 18.4258H8.53531C8.82853 20.8989 9.00224 23.1625 9.05642 25.2166H9.0612Z" fill="#0066FF"/>
<path d="M13.9728 20.2129C13.5123 22.7195 12.9035 24.5441 12.1466 25.6867C11.5585 26.5647 10.9131 27.0029 10.2104 27.0013C9.97155 26.9898 9.73712 26.9331 9.51953 26.834V26.2293C9.678 26.2502 9.83777 26.2598 9.99761 26.2579C10.2865 26.2714 10.5695 26.1739 10.7888 25.9854C10.8991 25.895 10.9885 25.7817 11.0508 25.6533C11.1131 25.525 11.1469 25.3847 11.1498 25.2421C11.1033 24.8466 11.0094 24.4582 10.8701 24.0852L9.6271 20.2129H10.7386L11.6326 23.1099C11.8334 23.7681 11.9171 24.227 11.8836 24.4867C12.3892 23.1066 12.7325 21.6723 12.9067 20.2129H13.9728Z" fill="#0066FF"/>
<path d="M18.9419 23.336C18.949 23.6047 18.896 23.8715 18.7868 24.1172C18.6776 24.3628 18.5151 24.581 18.3109 24.7558C17.8334 25.1426 17.2298 25.3393 16.6161 25.308C15.9257 25.3013 15.2536 25.0845 14.6895 24.6865L14.9811 24.1032C15.4279 24.3478 15.9254 24.4853 16.4344 24.5048C16.7743 24.5238 17.1109 24.4288 17.3906 24.2347C17.5068 24.1464 17.6006 24.0321 17.6646 23.9009C17.7285 23.7697 17.7608 23.6253 17.7587 23.4794C17.7587 23.0778 17.479 22.7336 16.9627 22.4444C16.4846 22.1815 15.5285 21.6365 15.5285 21.6365C15.2844 21.4869 15.0842 21.2755 14.9481 21.0236C14.8121 20.7718 14.7451 20.4884 14.754 20.2023C14.7454 19.951 14.7929 19.7009 14.8929 19.4702C14.993 19.2395 15.1431 19.034 15.3325 18.8685C15.7475 18.5181 16.279 18.3363 16.8217 18.3594C17.4303 18.3543 18.0268 18.5298 18.5356 18.8637L18.2894 19.4278C17.879 19.2458 17.4356 19.1498 16.9866 19.1458C16.6985 19.123 16.4122 19.2082 16.1834 19.3848C16.089 19.4639 16.013 19.5626 15.9606 19.6741C15.9081 19.7855 15.8806 19.907 15.8799 20.0302C15.8799 20.4318 16.1667 20.7807 16.695 21.0747C17.1731 21.3353 18.1483 21.8922 18.1483 21.8922C18.679 22.2675 18.9419 22.6691 18.9419 23.3264V23.336Z" fill="#0066FF"/>
<path fill-rule="evenodd" clip-rule="evenodd" d="M20.9639 23.8609C20.6914 23.4187 20.5528 22.7088 20.5528 21.7311C20.5528 20.0197 21.0715 19.1648 22.1089 19.1664C22.3449 19.1502 22.5808 19.1987 22.7914 19.3065C23.002 19.4143 23.1792 19.5774 23.3041 19.7783C23.5798 20.2197 23.7168 20.924 23.7152 21.8913C23.7152 23.6155 23.1973 24.4768 22.1615 24.4752C21.9256 24.4908 21.6898 24.4421 21.4793 24.3344C21.2689 24.2266 21.0916 24.0638 20.9663 23.8633L20.9639 23.8609ZM24.9965 25.3835L23.7487 24.7692C23.8615 24.6779 23.9656 24.5763 24.0595 24.4656C24.5885 23.8426 24.8531 22.9207 24.8531 21.7001C24.8531 19.4532 23.9766 18.3298 22.2236 18.3298C21.8432 18.3093 21.4632 18.3763 21.1127 18.5254C20.7621 18.6746 20.4504 18.902 20.2014 19.1903C19.6739 19.8149 19.4102 20.7336 19.4102 21.9463C19.4102 23.1589 19.6444 24.0354 20.1129 24.5756C20.5384 25.0776 21.1838 25.3309 22.0468 25.3309C22.3465 25.3336 22.6452 25.2933 22.9336 25.2114L24.5543 26.1556L24.9965 25.3931V25.3835Z" fill="#0066FF"/>
<path d="M29.0656 25.2166H25.8457V18.4258H26.9285V24.38H29.0656V25.2166Z" fill="#0066FF"/>
<path d="M29.8371 25.2224H30.0164V24.5317H30.2554V24.3906H29.5957V24.5317H29.8347V25.2224H29.8371ZM31.2044 25.2224H31.3741V24.3906H31.1184L30.9104 24.9595L30.6857 24.3906H30.4467V25.2224H30.6068V24.5914L30.8459 25.2224H30.9678L31.2068 24.5914V25.2224H31.2044Z" fill="#0066FF"/>
<path fill-rule="evenodd" clip-rule="evenodd" d="M30.4242 16.1568C29.8842 16.1223 29.343 16.2038 28.837 16.3959C28.7151 16.4461 28.5191 16.4461 28.5024 16.6014C28.5669 16.666 28.5741 16.7735 28.6338 16.8644C28.7446 17.0543 28.8878 17.2234 29.0569 17.3639C29.2291 17.4954 29.4012 17.6269 29.5828 17.7416C29.9007 17.9376 30.2617 18.0523 30.5701 18.2507C30.7517 18.3655 30.931 18.5113 31.1127 18.6356C31.2011 18.7001 31.2585 18.8077 31.3732 18.8483V18.8244C31.3159 18.7503 31.2991 18.6427 31.2418 18.5615L31.0027 18.3225C30.7626 18.0046 30.4757 17.7249 30.1517 17.493C29.8888 17.3114 29.3151 17.0652 29.2099 16.7759L29.1932 16.7592C29.3849 16.7316 29.5737 16.6868 29.7573 16.6253C30.037 16.5536 30.2904 16.5704 30.5748 16.4963C30.7063 16.4628 30.8378 16.4222 30.9693 16.3815V16.3074C30.821 16.1592 30.7159 15.9632 30.5605 15.8294C30.1363 15.4597 29.6848 15.1225 29.2099 14.8207C28.9565 14.6581 28.6291 14.5506 28.3589 14.4119C28.2609 14.3617 28.0984 14.3378 28.041 14.2542C27.9062 14.0566 27.7932 13.845 27.704 13.6231C27.4649 13.1738 27.2259 12.667 27.0347 12.189C26.9154 11.8633 26.7774 11.5449 26.6211 11.2352C25.8604 9.94281 24.7622 8.88183 23.4443 8.1661C23.1132 8.00497 22.7606 7.89227 22.3973 7.83146C22.1941 7.83146 21.9886 7.80517 21.7854 7.79799C21.6526 7.71185 21.5263 7.61597 21.4077 7.51116C20.9296 7.21476 19.7344 6.57656 19.395 7.42033C19.1751 7.95575 19.7225 8.47923 19.9113 8.74933C20.0691 8.94045 20.2084 9.14614 20.3273 9.36364C20.3846 9.50466 20.4014 9.65286 20.4587 9.79867C20.5787 10.1733 20.7208 10.5404 20.8842 10.8982C20.9728 11.0751 21.0742 11.2453 21.1878 11.4073C21.2523 11.4982 21.3671 11.5388 21.391 11.687C21.3012 11.8823 21.2385 12.089 21.2045 12.3013C20.9081 13.2287 21.0229 14.3761 21.4436 15.0573C21.5726 15.2629 21.8858 15.7146 22.3017 15.5354C22.6698 15.3896 22.5886 14.9211 22.6961 14.5123C22.72 14.4119 22.6961 14.3474 22.7511 14.2733V14.2876C22.8658 14.5267 22.9901 14.7394 23.0882 14.9689C23.3783 15.396 23.7369 15.7723 24.1495 16.0827C24.3455 16.2309 24.5009 16.4843 24.7471 16.5751V16.5608H24.7303C24.6749 16.4978 24.6114 16.4423 24.5415 16.3959C24.3862 16.2439 24.2439 16.0792 24.116 15.9035C23.7691 15.4323 23.4628 14.9325 23.2005 14.4095C23.069 14.1538 22.9615 13.8741 22.8491 13.6207C22.7989 13.5227 22.7989 13.3817 22.7176 13.3267C22.5633 13.4935 22.4293 13.6781 22.3184 13.8765C22.1816 14.2761 22.1011 14.6928 22.0794 15.1147C22.0459 15.1147 22.0627 15.1147 22.0459 15.1314C21.7854 15.0645 21.6946 14.7944 21.5966 14.5649C21.3416 13.8611 21.3157 13.0948 21.5224 12.3754C21.5798 12.2033 21.826 11.6583 21.7256 11.4982C21.6778 11.3404 21.5129 11.2591 21.4244 11.1277C21.3095 10.9633 21.211 10.7879 21.1304 10.6042C20.9344 10.1429 20.834 9.63613 20.6237 9.17002C20.5041 8.94879 20.3666 8.73774 20.2125 8.53899C20.0423 8.34137 19.8918 8.12762 19.7631 7.90078C19.7225 7.80995 19.6651 7.66175 19.7297 7.56375C19.7346 7.53585 19.7485 7.5103 19.7692 7.49092C19.7898 7.47153 19.8162 7.45935 19.8444 7.45618C19.952 7.36535 20.2532 7.48009 20.3607 7.53028C20.6517 7.6402 20.9292 7.78294 21.1878 7.95575C21.3025 8.03702 21.4268 8.19478 21.5703 8.23303H21.7424C22.0053 8.2904 22.2993 8.24976 22.5455 8.32386C22.9607 8.46206 23.3567 8.65242 23.724 8.89036C24.8078 9.58327 25.688 10.5517 26.2745 11.6966C26.3749 11.883 26.4156 12.0575 26.5136 12.2535C26.6857 12.6551 26.8984 13.0662 27.0705 13.4486C27.2217 13.8361 27.4165 14.205 27.6514 14.5482C27.7757 14.7203 28.2657 14.8111 28.4856 14.9019C28.6786 14.9714 28.8677 15.0512 29.0522 15.141C29.3294 15.3131 29.6067 15.5091 29.8697 15.6979C29.9988 15.7983 30.4099 16.0015 30.4338 16.176L30.4242 16.1568Z" fill="#0066FF"/>
<path fill-rule="evenodd" clip-rule="evenodd" d="M22.0831 9.02545C21.9694 9.0243 21.8559 9.03878 21.7461 9.06848V9.08521H21.7628C21.8424 9.20284 21.9303 9.31467 22.0258 9.41985C22.0903 9.55132 22.1477 9.68278 22.2122 9.81425L22.229 9.79752C22.2897 9.74933 22.3373 9.68663 22.3673 9.61519C22.3974 9.54375 22.409 9.46588 22.4011 9.38878C22.3533 9.33141 22.3437 9.27404 22.3031 9.21668C22.2624 9.15931 22.1477 9.09477 22.0831 9.02784V9.02545Z" fill="#0066FF"/>
</svg>
