<svg width="34" height="34" viewBox="0 0 34 34" fill="none" xmlns="http://www.w3.org/2000/svg">
<path fill-rule="evenodd" clip-rule="evenodd" d="M19.3655 22.0077C15.5178 22.0077 14.7111 20.242 14.7111 18.7596C14.7111 18.6189 14.8244 18.5056 14.965 18.5056H16.1018C16.2268 18.5056 16.3322 18.5974 16.3518 18.7205C16.5237 19.8787 17.0334 20.4627 19.3616 20.4627C21.2152 20.4627 22.0023 20.0447 22.0023 19.0603C22.0023 18.4939 21.7777 18.074 18.8987 17.7927C16.4904 17.5545 15.0021 17.0251 15.0021 15.0974C15.0021 13.3239 16.4983 12.2672 19.0061 12.2672C21.8226 12.2672 23.2171 13.2438 23.3929 15.3454C23.3988 15.4177 23.3734 15.488 23.3246 15.5407C23.2757 15.5915 23.2074 15.6228 23.1371 15.6228H21.9964C21.8773 15.6228 21.7738 15.5388 21.7503 15.4255C21.4749 14.2087 20.8109 13.8181 19.0022 13.8181C16.9787 13.8181 16.7444 14.5231 16.7444 15.0505C16.7444 15.6911 17.0217 15.8786 19.7522 16.24C22.4554 16.5994 23.7386 17.1052 23.7386 19.0057C23.7386 20.9217 22.141 22.0194 19.3538 22.0194L19.3655 22.0077ZM16.6487 29C16.3264 29 16.008 28.916 15.7268 28.7539L12.7912 27.0156C12.3517 26.7695 12.5665 26.6835 12.7111 26.6328C13.2951 26.4277 13.4142 26.3828 14.0392 26.0273C14.1056 25.9902 14.1916 26.0038 14.258 26.0429L16.5139 27.3808C16.5959 27.4257 16.7112 27.4257 16.7873 27.3808L25.5824 22.3046C25.6645 22.2577 25.7172 22.1639 25.7172 22.0663V11.9196C25.7172 11.818 25.6645 11.7282 25.5805 11.6774L16.7873 6.60501C16.7053 6.55618 16.5979 6.55618 16.5158 6.60501L7.7266 11.6774C7.64066 11.7262 7.58792 11.82 7.58792 11.9176V22.0663C7.58792 22.1639 7.64066 22.2557 7.72464 22.3026L10.1329 23.6933C11.4396 24.3476 12.2404 23.5761 12.2404 22.8026V12.7848C12.2404 12.6422 12.3517 12.5309 12.4962 12.5309H13.6095C13.7482 12.5309 13.8634 12.6403 13.8634 12.7848V22.8065C13.8634 24.5507 12.9123 25.5507 11.2599 25.5507C10.7521 25.5507 10.3497 25.5507 9.23249 24.9999L6.92189 23.6698C6.35157 23.3397 6 22.7245 6 22.0663V11.9176C6 11.2575 6.35157 10.6403 6.92189 10.3141L15.7248 5.23584C16.2815 4.92139 17.0217 4.92139 17.5745 5.23584L26.3676 10.316C26.936 10.6442 27.2895 11.2575 27.2895 11.9196V22.0682C27.2895 22.7264 26.936 23.3397 26.3676 23.6718L17.5745 28.75C17.2932 28.9121 16.9729 28.9961 16.6487 28.9961V29Z" fill="#0066FF"/>
</svg>
