<svg width="34" height="34" viewBox="0 0 34 34" fill="none" xmlns="http://www.w3.org/2000/svg">
<path fill-rule="evenodd" clip-rule="evenodd" d="M16.7867 25C25.5049 25 32.5735 21.4182 32.5735 16.9987C32.5735 12.5818 25.5049 9 16.7867 9C8.06857 9 1 12.5818 1 17.0013C1 21.4182 8.06857 25 16.7867 25ZM25.122 15.4211C25.0013 15.2875 24.6827 15.2207 24.1636 15.2207H23.38L22.92 17.582H23.3697C23.6857 17.582 23.9529 17.5537 24.1765 17.4972C24.3718 17.4484 24.5285 17.379 24.6467 17.2891C24.7623 17.2017 24.86 17.0784 24.9422 16.9191C25.0347 16.7418 25.1092 16.5208 25.1606 16.2561C25.2094 16.0095 25.2223 15.8065 25.2017 15.6446C25.1889 15.5393 25.1632 15.4647 25.122 15.4211ZM15.0189 10.7626H16.7687C17.0514 10.7626 17.2826 10.9939 17.2826 11.2765C17.2826 11.3202 17.2775 11.3639 17.2672 11.405L16.9743 12.9133H17.9096C18.4415 12.9133 18.8963 12.9621 19.2765 13.0572C19.6979 13.1651 20.0345 13.3321 20.2863 13.5634C20.5047 13.7638 20.6589 14.0104 20.7514 14.3034L20.9338 13.3604C20.9672 13.1086 21.1831 12.9133 21.4426 12.9133H24.8343C25.3995 12.9133 25.898 12.9904 26.3297 13.1471C26.7845 13.3115 27.1596 13.5608 27.4525 13.8948C27.748 14.234 27.9407 14.6348 28.0281 15.0999C28.1103 15.5393 28.1 16.0275 27.9947 16.5696C27.951 16.788 27.8919 17.0039 27.8174 17.2145C27.7429 17.4227 27.653 17.6205 27.5476 17.8081C27.4397 17.9982 27.3189 18.1807 27.1853 18.3477C27.0491 18.5173 26.8975 18.6817 26.7305 18.8333C26.5275 19.0234 26.3143 19.1853 26.0907 19.3189C25.8595 19.4577 25.6205 19.5656 25.3713 19.6478C25.1298 19.7275 24.8523 19.7866 24.5439 19.8251C24.2382 19.8637 23.9118 19.8842 23.5675 19.8842H22.4806L22.1415 21.5903C22.1081 21.8421 21.8922 22.0374 21.6327 22.0374H19.8701C19.8392 22.0374 19.8058 22.0348 19.7724 22.0271C19.4949 21.9732 19.3125 21.706 19.3639 21.4259L19.6671 19.8662C19.626 19.8765 19.5823 19.8816 19.5386 19.8816H17.7606C17.4779 19.8816 17.2467 19.6504 17.2467 19.3678C17.2467 19.3241 17.2518 19.2804 17.2621 19.2393L17.9507 15.6909C17.9815 15.5341 17.9918 15.4134 17.9815 15.326C17.979 15.3003 17.9995 15.3132 17.9918 15.3029L17.9199 15.2849C17.8171 15.2592 17.6732 15.2463 17.4882 15.2463H16.5118L15.6973 19.468C15.651 19.7146 15.4352 19.8842 15.1937 19.8842H13.4439C13.1612 19.8842 12.93 19.653 12.93 19.3703C12.93 19.3266 12.9351 19.283 12.9454 19.2418L13.0379 18.7614L12.9608 18.8333C12.7578 19.0234 12.5446 19.1853 12.321 19.3189C12.0898 19.4577 11.8508 19.5656 11.6016 19.6478C11.36 19.7275 11.0825 19.7866 10.7742 19.8251C10.4684 19.8637 10.1421 19.8842 9.79782 19.8842H8.70837L8.37691 21.5903C8.3435 21.8421 8.12767 22.0374 7.86815 22.0374H6.10551C6.07467 22.0374 6.04127 22.0348 6.00787 22.0271C5.73037 21.9732 5.54794 21.706 5.59933 21.4259L7.16669 13.3604C7.2001 13.1086 7.41593 12.9133 7.67545 12.9133H11.0671C11.6324 12.9133 12.1309 12.9904 12.5625 13.1471C13.0199 13.3115 13.3925 13.5608 13.6854 13.8948C13.7728 13.995 13.8524 14.1029 13.9244 14.216L14.5153 11.1815C14.5616 10.9348 14.7774 10.7626 15.0189 10.7626ZM11.36 15.4211C11.2393 15.2875 10.9207 15.2207 10.4016 15.2207H9.61538L9.15545 17.582H9.60511C9.92115 17.582 10.1884 17.5537 10.4119 17.4972C10.6072 17.4484 10.7639 17.379 10.8821 17.2891C10.9978 17.2017 11.0954 17.0784 11.1776 16.9191C11.2701 16.7418 11.3446 16.5208 11.396 16.2561C11.4448 16.0095 11.4577 15.8065 11.4371 15.6446C11.4243 15.5393 11.3986 15.4647 11.36 15.4211Z" fill="#0066FF"/>
<path fill-rule="evenodd" clip-rule="evenodd" d="M24.1656 14.7056C24.8362 14.7056 25.2833 14.8289 25.5042 15.0756C25.7278 15.3223 25.7792 15.7462 25.6635 16.3501C25.5428 16.977 25.3064 17.4241 24.9595 17.6913C24.6126 17.9585 24.0808 18.0922 23.3716 18.0922H22.3001L22.9579 14.703H24.1656V14.7056ZM15.0209 11.2754H16.7707L16.3518 13.4286H17.9115C18.893 13.4286 19.5688 13.6007 19.9414 13.9425C20.3139 14.2842 20.4244 14.8392 20.2754 15.6049L19.5431 19.3717H17.765L18.4614 15.7899C18.541 15.3814 18.5102 15.1039 18.374 14.9574C18.2353 14.8084 17.9449 14.7339 17.4952 14.7339H16.0975L15.1956 19.3717H13.4458L15.0209 11.2754ZM10.4036 14.7056C11.0742 14.7056 11.5213 14.8289 11.7422 15.0756C11.9658 15.3223 12.0197 15.7462 11.9015 16.3501C11.7808 16.977 11.5444 17.4241 11.1975 17.6913C10.8506 17.9585 10.3188 18.0922 9.60959 18.0922H8.53813L9.19591 14.703H10.4036V14.7056ZM6.10742 21.5224H7.87007L8.28889 19.3692H9.79973C10.4652 19.3692 11.0151 19.2998 11.4442 19.1585C11.8758 19.0197 12.2664 18.7833 12.6184 18.4544C12.9139 18.1821 13.1529 17.884 13.3353 17.5551C13.5177 17.2288 13.6488 16.8665 13.7259 16.4708C13.9134 15.5124 13.7721 14.7647 13.3045 14.2277C12.8368 13.6932 12.0917 13.4235 11.0716 13.4235H7.67993L6.10742 21.5224ZM19.8694 21.5224H21.6321L22.0509 19.3692H23.5617C24.2272 19.3692 24.7771 19.2998 25.2062 19.1585C25.6379 19.0197 26.0284 18.7833 26.3804 18.4544C26.6759 18.1821 26.9149 17.884 27.0973 17.5551C27.2797 17.2288 27.4108 16.8665 27.4879 16.4708C27.6754 15.5124 27.5341 14.7647 27.0665 14.2277C26.5988 13.6932 25.8537 13.4235 24.8336 13.4235H21.4419L19.8694 21.5224Z" fill="#0066FF"/>
</svg>
