<svg width="34" height="34" viewBox="0 0 34 34" fill="none" xmlns="http://www.w3.org/2000/svg">
<path d="M16.9389 8.5C12.623 8.5 12.8924 10.3716 12.8924 10.3716L12.8977 12.3107H17.0159V12.8924H11.2609C11.2609 12.8924 8.5 12.5789 8.5 16.9341C8.5 21.2883 10.9103 21.1342 10.9103 21.1342H12.3489V19.1133C12.3489 19.1133 12.2713 16.703 14.7209 16.703H18.8052C18.8052 16.703 21.1002 16.7402 21.1002 14.4851V10.7562C21.1002 10.7562 21.4487 8.5 16.9389 8.5ZM14.6678 9.80369C15.0774 9.80369 15.4089 10.1352 15.4089 10.5448C15.4089 10.9544 15.0774 11.2859 14.6678 11.2859C14.5705 11.286 14.474 11.2669 14.384 11.2297C14.2941 11.1926 14.2123 11.138 14.1435 11.0691C14.0746 11.0003 14.02 10.9185 13.9828 10.8286C13.9457 10.7386 13.9266 10.6421 13.9267 10.5448C13.9267 10.1352 14.2582 9.80369 14.6678 9.80369Z" fill="url(#paint0_linear_4921_1414)"/>
<path d="M17.0621 25.4117C21.3779 25.4117 21.1086 23.5401 21.1086 23.5401L21.1033 21.601H16.985V21.0193H22.7395C22.7395 21.0193 25.501 21.3327 25.501 16.9781C25.501 12.6234 23.0907 12.778 23.0907 12.778H21.6521V14.7984C21.6521 14.7984 21.7296 17.2086 19.28 17.2086H15.1958C15.1958 17.2086 12.9008 17.1715 12.9008 19.4266V23.1555C12.9008 23.1555 12.5523 25.4117 17.0621 25.4117ZM19.3332 24.108C19.2358 24.1081 19.1394 24.0891 19.0494 24.0519C18.9594 24.0147 18.8777 23.9601 18.8088 23.8912C18.74 23.8224 18.6854 23.7406 18.6482 23.6507C18.611 23.5607 18.5919 23.4643 18.5921 23.3669C18.5921 22.9578 18.9236 22.6263 19.3332 22.6263C19.7427 22.6263 20.0742 22.9573 20.0742 23.3669C20.0742 23.777 19.7427 24.108 19.3332 24.108Z" fill="url(#paint1_linear_4921_1414)"/>
<defs>
<linearGradient id="paint0_linear_4921_1414" x1="10.1336" y1="9.97794" x2="18.5396" y2="18.4121" gradientUnits="userSpaceOnUse">
<stop stop-color="#0066FF"/>
<stop offset="1" stop-color="#0066FF"/>
</linearGradient>
<linearGradient id="paint1_linear_4921_1414" x1="15.3057" y1="15.344" x2="24.3338" y2="23.9932" gradientUnits="userSpaceOnUse">
<stop stop-color="#0066FF"/>
<stop offset="1" stop-color="#0066FF"/>
</linearGradient>
</defs>
</svg>
