<svg width="25" height="25" viewBox="0 0 25 25" fill="none" xmlns="http://www.w3.org/2000/svg">
<mask id="path-1-outside-1_237_183" maskUnits="userSpaceOnUse" x="3" y="2" width="19" height="22" fill="black">
<rect fill="white" x="3" y="2" width="19" height="22"/>
<path d="M20.8189 5.46913L12.5748 3.01101C12.5258 2.99633 12.4751 2.99633 12.4278 3.01101L4.18113 5.46913C4.07478 5.50014 4 5.59885 4 5.70735V14.4666C4 15.3248 4.2019 16.0704 4.63812 16.8161C6.13953 19.3891 8.89884 21.578 12.4044 22.9812C12.4344 22.9935 12.4684 23 12.5 23C12.5316 23 12.5656 22.9935 12.5956 22.9812C16.101 21.578 18.8595 19.3893 20.3619 16.8161C20.7956 16.0729 21 15.3248 21 14.4666V5.70651C21 5.59638 20.9277 5.50013 20.8189 5.46913ZM20.4932 14.4658C20.4932 15.2449 20.317 15.8918 19.9232 16.5666C18.4899 19.0205 15.8569 21.118 12.5002 22.4811C9.14346 21.1171 6.51037 19.0205 5.07716 16.5689C4.68331 15.8942 4.50717 15.2473 4.50717 14.4681V5.8908L12.5002 3.50953L20.4933 5.88996L20.4932 14.4658ZM12.4252 4.24049L5.3785 6.3419C5.27215 6.37291 5.19737 6.47162 5.19737 6.58011V14.4666C5.19737 15.12 5.34444 15.6634 5.67596 16.2295C6.36725 17.4141 7.35019 18.508 8.59641 19.4813C9.69817 20.3419 10.9768 21.0892 12.3977 21.6994C12.4293 21.7141 12.4658 21.7206 12.4999 21.7206C12.534 21.7206 12.5697 21.7141 12.6021 21.6994C14.0212 21.0892 15.3015 20.3419 16.4034 19.4813C17.648 18.508 18.6302 17.414 19.3238 16.2295C19.6553 15.6634 19.8024 15.1184 19.8024 14.4666L19.8016 6.58011C19.8016 6.47161 19.7293 6.37372 19.6204 6.3419L12.5745 4.24049C12.5255 4.22825 12.474 4.22825 12.425 4.24049H12.4252ZM19.2942 6.76377V14.4658C19.2942 15.0336 19.1712 15.4872 18.8837 15.9824C17.6515 18.0872 15.3881 19.9375 12.5 21.1994C9.61184 19.9357 7.34844 18.088 6.11623 15.9824C5.82708 15.4896 5.70577 15.0361 5.70577 14.4658V6.76377L12.4998 4.73976L19.2942 6.76377ZM9.88617 11.183C9.88617 12.5992 11.0585 13.7495 12.5001 13.7495C13.9425 13.7495 15.1141 12.5984 15.1141 11.183C15.1141 9.76673 13.9425 8.61645 12.5001 8.61645C11.0577 8.61645 9.88617 9.76918 9.88617 11.183ZM12.5001 9.1149C13.6617 9.1149 14.6081 10.0425 14.6081 11.1846C14.6081 12.3251 13.6634 13.2543 12.5001 13.2543C11.3369 13.2543 10.3922 12.3268 10.3922 11.1846C10.3922 10.0425 11.3385 9.1149 12.5001 9.1149ZM11.7257 7.09333L11.0535 7.75333H10.103C9.49896 7.75333 9.00791 8.23547 9.00791 8.82855V9.76185L8.33571 10.4218C7.90781 10.842 7.90781 11.5224 8.33571 11.9425L9.00791 12.6025V13.5358C9.00791 14.0726 9.41005 14.5196 9.93518 14.5988L9.05028 16.7476C9.01372 16.8357 9.03117 16.9352 9.09515 17.0046C9.15912 17.0756 9.25717 17.1049 9.35022 17.0821L10.324 16.8316L10.8475 17.6776C10.894 17.7527 10.9754 17.7967 11.0643 17.7967H11.0859C11.1815 17.7886 11.2646 17.7298 11.3011 17.6425L12.1686 15.5353C12.2774 15.5687 12.3896 15.5875 12.5026 15.5875C12.6156 15.5875 12.7277 15.5712 12.8366 15.5353L13.704 17.6425C13.7406 17.7307 13.8228 17.7886 13.9192 17.7967H13.9408C14.0281 17.7967 14.1111 17.751 14.1577 17.6776L14.6811 16.8316L15.6549 17.0821C15.7463 17.1049 15.846 17.0756 15.91 17.0046C15.974 16.9336 15.9906 16.8333 15.9548 16.7476L15.0699 14.5988C15.5951 14.5196 15.9972 14.0726 15.9972 13.5358V12.6025L16.6694 11.9425C17.0973 11.5224 17.0973 10.842 16.6694 10.4218L15.9972 9.76185V8.82855C15.9972 8.23547 15.5062 7.75333 14.9021 7.75333H13.9466L13.2744 7.09333C12.8465 6.67401 12.1536 6.67401 11.7257 7.09333ZM11.0178 16.9972L10.6581 16.4164C10.6007 16.3226 10.4861 16.2761 10.3772 16.3055L9.70754 16.4768L10.4753 14.6135H11.0536L11.7283 15.2759L11.0178 16.9972ZM14.623 16.3054C14.5141 16.2785 14.3995 16.3218 14.3422 16.4164L13.9824 16.9972L13.2745 15.2743L13.9492 14.6118H14.5275L15.2952 16.4751L14.623 16.3054ZM12.9172 7.4466L13.6642 8.18C13.7107 8.22569 13.7772 8.25342 13.8428 8.25342H14.898C15.2212 8.25342 15.4871 8.51204 15.4871 8.83182L15.4863 9.86708C15.4863 9.93397 15.5137 9.99679 15.561 10.0425L16.308 10.7759C16.5373 11.001 16.5373 11.3665 16.308 11.5925L15.561 12.3259C15.5145 12.3716 15.4863 12.4369 15.4863 12.5013V13.5374C15.4863 13.8547 15.2229 14.1158 14.8972 14.1158H13.842C13.7738 14.1158 13.7099 14.1427 13.6633 14.1892L12.9164 14.9226C12.687 15.1478 12.3148 15.1478 12.0846 14.9226L11.3377 14.1892C11.2911 14.1435 11.2247 14.1158 11.159 14.1158H10.1038C9.78062 14.1158 9.51473 13.8572 9.51473 13.5374V12.5013C9.51473 12.4344 9.48731 12.3716 9.43995 12.3259L8.69299 11.5925C8.46367 11.3674 8.46367 11.0019 8.69299 10.7759L9.43995 10.0425C9.48648 9.99679 9.51473 9.93152 9.51473 9.86708V8.83101C9.51473 8.51367 9.77813 8.25261 10.1038 8.25261H11.159C11.2272 8.25261 11.2911 8.22569 11.3377 8.17919L12.0846 7.44578C12.3131 7.22062 12.687 7.22062 12.9172 7.4466ZM11.2454 11.36C11.1457 11.2621 11.1457 11.1054 11.2454 11.0067C11.3452 10.9088 11.5047 10.9088 11.6052 11.0067L12.1436 11.5353L13.3982 10.3035C13.498 10.2056 13.6575 10.2056 13.758 10.3035C13.8577 10.4014 13.8577 10.558 13.758 10.6567L12.3247 12.064C12.2757 12.1121 12.2101 12.1374 12.1461 12.1374C12.0805 12.1374 12.0165 12.1121 11.9675 12.064L11.2454 11.36Z"/>
</mask>
<path d="M20.8189 5.46913L12.5748 3.01101C12.5258 2.99633 12.4751 2.99633 12.4278 3.01101L4.18113 5.46913C4.07478 5.50014 4 5.59885 4 5.70735V14.4666C4 15.3248 4.2019 16.0704 4.63812 16.8161C6.13953 19.3891 8.89884 21.578 12.4044 22.9812C12.4344 22.9935 12.4684 23 12.5 23C12.5316 23 12.5656 22.9935 12.5956 22.9812C16.101 21.578 18.8595 19.3893 20.3619 16.8161C20.7956 16.0729 21 15.3248 21 14.4666V5.70651C21 5.59638 20.9277 5.50013 20.8189 5.46913ZM20.4932 14.4658C20.4932 15.2449 20.317 15.8918 19.9232 16.5666C18.4899 19.0205 15.8569 21.118 12.5002 22.4811C9.14346 21.1171 6.51037 19.0205 5.07716 16.5689C4.68331 15.8942 4.50717 15.2473 4.50717 14.4681V5.8908L12.5002 3.50953L20.4933 5.88996L20.4932 14.4658ZM12.4252 4.24049L5.3785 6.3419C5.27215 6.37291 5.19737 6.47162 5.19737 6.58011V14.4666C5.19737 15.12 5.34444 15.6634 5.67596 16.2295C6.36725 17.4141 7.35019 18.508 8.59641 19.4813C9.69817 20.3419 10.9768 21.0892 12.3977 21.6994C12.4293 21.7141 12.4658 21.7206 12.4999 21.7206C12.534 21.7206 12.5697 21.7141 12.6021 21.6994C14.0212 21.0892 15.3015 20.3419 16.4034 19.4813C17.648 18.508 18.6302 17.414 19.3238 16.2295C19.6553 15.6634 19.8024 15.1184 19.8024 14.4666L19.8016 6.58011C19.8016 6.47161 19.7293 6.37372 19.6204 6.3419L12.5745 4.24049C12.5255 4.22825 12.474 4.22825 12.425 4.24049H12.4252ZM19.2942 6.76377V14.4658C19.2942 15.0336 19.1712 15.4872 18.8837 15.9824C17.6515 18.0872 15.3881 19.9375 12.5 21.1994C9.61184 19.9357 7.34844 18.088 6.11623 15.9824C5.82708 15.4896 5.70577 15.0361 5.70577 14.4658V6.76377L12.4998 4.73976L19.2942 6.76377ZM9.88617 11.183C9.88617 12.5992 11.0585 13.7495 12.5001 13.7495C13.9425 13.7495 15.1141 12.5984 15.1141 11.183C15.1141 9.76673 13.9425 8.61645 12.5001 8.61645C11.0577 8.61645 9.88617 9.76918 9.88617 11.183ZM12.5001 9.1149C13.6617 9.1149 14.6081 10.0425 14.6081 11.1846C14.6081 12.3251 13.6634 13.2543 12.5001 13.2543C11.3369 13.2543 10.3922 12.3268 10.3922 11.1846C10.3922 10.0425 11.3385 9.1149 12.5001 9.1149ZM11.7257 7.09333L11.0535 7.75333H10.103C9.49896 7.75333 9.00791 8.23547 9.00791 8.82855V9.76185L8.33571 10.4218C7.90781 10.842 7.90781 11.5224 8.33571 11.9425L9.00791 12.6025V13.5358C9.00791 14.0726 9.41005 14.5196 9.93518 14.5988L9.05028 16.7476C9.01372 16.8357 9.03117 16.9352 9.09515 17.0046C9.15912 17.0756 9.25717 17.1049 9.35022 17.0821L10.324 16.8316L10.8475 17.6776C10.894 17.7527 10.9754 17.7967 11.0643 17.7967H11.0859C11.1815 17.7886 11.2646 17.7298 11.3011 17.6425L12.1686 15.5353C12.2774 15.5687 12.3896 15.5875 12.5026 15.5875C12.6156 15.5875 12.7277 15.5712 12.8366 15.5353L13.704 17.6425C13.7406 17.7307 13.8228 17.7886 13.9192 17.7967H13.9408C14.0281 17.7967 14.1111 17.751 14.1577 17.6776L14.6811 16.8316L15.6549 17.0821C15.7463 17.1049 15.846 17.0756 15.91 17.0046C15.974 16.9336 15.9906 16.8333 15.9548 16.7476L15.0699 14.5988C15.5951 14.5196 15.9972 14.0726 15.9972 13.5358V12.6025L16.6694 11.9425C17.0973 11.5224 17.0973 10.842 16.6694 10.4218L15.9972 9.76185V8.82855C15.9972 8.23547 15.5062 7.75333 14.9021 7.75333H13.9466L13.2744 7.09333C12.8465 6.67401 12.1536 6.67401 11.7257 7.09333ZM11.0178 16.9972L10.6581 16.4164C10.6007 16.3226 10.4861 16.2761 10.3772 16.3055L9.70754 16.4768L10.4753 14.6135H11.0536L11.7283 15.2759L11.0178 16.9972ZM14.623 16.3054C14.5141 16.2785 14.3995 16.3218 14.3422 16.4164L13.9824 16.9972L13.2745 15.2743L13.9492 14.6118H14.5275L15.2952 16.4751L14.623 16.3054ZM12.9172 7.4466L13.6642 8.18C13.7107 8.22569 13.7772 8.25342 13.8428 8.25342H14.898C15.2212 8.25342 15.4871 8.51204 15.4871 8.83182L15.4863 9.86708C15.4863 9.93397 15.5137 9.99679 15.561 10.0425L16.308 10.7759C16.5373 11.001 16.5373 11.3665 16.308 11.5925L15.561 12.3259C15.5145 12.3716 15.4863 12.4369 15.4863 12.5013V13.5374C15.4863 13.8547 15.2229 14.1158 14.8972 14.1158H13.842C13.7738 14.1158 13.7099 14.1427 13.6633 14.1892L12.9164 14.9226C12.687 15.1478 12.3148 15.1478 12.0846 14.9226L11.3377 14.1892C11.2911 14.1435 11.2247 14.1158 11.159 14.1158H10.1038C9.78062 14.1158 9.51473 13.8572 9.51473 13.5374V12.5013C9.51473 12.4344 9.48731 12.3716 9.43995 12.3259L8.69299 11.5925C8.46367 11.3674 8.46367 11.0019 8.69299 10.7759L9.43995 10.0425C9.48648 9.99679 9.51473 9.93152 9.51473 9.86708V8.83101C9.51473 8.51367 9.77813 8.25261 10.1038 8.25261H11.159C11.2272 8.25261 11.2911 8.22569 11.3377 8.17919L12.0846 7.44578C12.3131 7.22062 12.687 7.22062 12.9172 7.4466ZM11.2454 11.36C11.1457 11.2621 11.1457 11.1054 11.2454 11.0067C11.3452 10.9088 11.5047 10.9088 11.6052 11.0067L12.1436 11.5353L13.3982 10.3035C13.498 10.2056 13.6575 10.2056 13.758 10.3035C13.8577 10.4014 13.8577 10.558 13.758 10.6567L12.3247 12.064C12.2757 12.1121 12.2101 12.1374 12.1461 12.1374C12.0805 12.1374 12.0165 12.1121 11.9675 12.064L11.2454 11.36Z" fill="white"/>
<path d="M20.8189 5.46913L12.5748 3.01101C12.5258 2.99633 12.4751 2.99633 12.4278 3.01101L4.18113 5.46913C4.07478 5.50014 4 5.59885 4 5.70735V14.4666C4 15.3248 4.2019 16.0704 4.63812 16.8161C6.13953 19.3891 8.89884 21.578 12.4044 22.9812C12.4344 22.9935 12.4684 23 12.5 23C12.5316 23 12.5656 22.9935 12.5956 22.9812C16.101 21.578 18.8595 19.3893 20.3619 16.8161C20.7956 16.0729 21 15.3248 21 14.4666V5.70651C21 5.59638 20.9277 5.50013 20.8189 5.46913ZM20.4932 14.4658C20.4932 15.2449 20.317 15.8918 19.9232 16.5666C18.4899 19.0205 15.8569 21.118 12.5002 22.4811C9.14346 21.1171 6.51037 19.0205 5.07716 16.5689C4.68331 15.8942 4.50717 15.2473 4.50717 14.4681V5.8908L12.5002 3.50953L20.4933 5.88996L20.4932 14.4658ZM12.4252 4.24049L5.3785 6.3419C5.27215 6.37291 5.19737 6.47162 5.19737 6.58011V14.4666C5.19737 15.12 5.34444 15.6634 5.67596 16.2295C6.36725 17.4141 7.35019 18.508 8.59641 19.4813C9.69817 20.3419 10.9768 21.0892 12.3977 21.6994C12.4293 21.7141 12.4658 21.7206 12.4999 21.7206C12.534 21.7206 12.5697 21.7141 12.6021 21.6994C14.0212 21.0892 15.3015 20.3419 16.4034 19.4813C17.648 18.508 18.6302 17.414 19.3238 16.2295C19.6553 15.6634 19.8024 15.1184 19.8024 14.4666L19.8016 6.58011C19.8016 6.47161 19.7293 6.37372 19.6204 6.3419L12.5745 4.24049C12.5255 4.22825 12.474 4.22825 12.425 4.24049H12.4252ZM19.2942 6.76377V14.4658C19.2942 15.0336 19.1712 15.4872 18.8837 15.9824C17.6515 18.0872 15.3881 19.9375 12.5 21.1994C9.61184 19.9357 7.34844 18.088 6.11623 15.9824C5.82708 15.4896 5.70577 15.0361 5.70577 14.4658V6.76377L12.4998 4.73976L19.2942 6.76377ZM9.88617 11.183C9.88617 12.5992 11.0585 13.7495 12.5001 13.7495C13.9425 13.7495 15.1141 12.5984 15.1141 11.183C15.1141 9.76673 13.9425 8.61645 12.5001 8.61645C11.0577 8.61645 9.88617 9.76918 9.88617 11.183ZM12.5001 9.1149C13.6617 9.1149 14.6081 10.0425 14.6081 11.1846C14.6081 12.3251 13.6634 13.2543 12.5001 13.2543C11.3369 13.2543 10.3922 12.3268 10.3922 11.1846C10.3922 10.0425 11.3385 9.1149 12.5001 9.1149ZM11.7257 7.09333L11.0535 7.75333H10.103C9.49896 7.75333 9.00791 8.23547 9.00791 8.82855V9.76185L8.33571 10.4218C7.90781 10.842 7.90781 11.5224 8.33571 11.9425L9.00791 12.6025V13.5358C9.00791 14.0726 9.41005 14.5196 9.93518 14.5988L9.05028 16.7476C9.01372 16.8357 9.03117 16.9352 9.09515 17.0046C9.15912 17.0756 9.25717 17.1049 9.35022 17.0821L10.324 16.8316L10.8475 17.6776C10.894 17.7527 10.9754 17.7967 11.0643 17.7967H11.0859C11.1815 17.7886 11.2646 17.7298 11.3011 17.6425L12.1686 15.5353C12.2774 15.5687 12.3896 15.5875 12.5026 15.5875C12.6156 15.5875 12.7277 15.5712 12.8366 15.5353L13.704 17.6425C13.7406 17.7307 13.8228 17.7886 13.9192 17.7967H13.9408C14.0281 17.7967 14.1111 17.751 14.1577 17.6776L14.6811 16.8316L15.6549 17.0821C15.7463 17.1049 15.846 17.0756 15.91 17.0046C15.974 16.9336 15.9906 16.8333 15.9548 16.7476L15.0699 14.5988C15.5951 14.5196 15.9972 14.0726 15.9972 13.5358V12.6025L16.6694 11.9425C17.0973 11.5224 17.0973 10.842 16.6694 10.4218L15.9972 9.76185V8.82855C15.9972 8.23547 15.5062 7.75333 14.9021 7.75333H13.9466L13.2744 7.09333C12.8465 6.67401 12.1536 6.67401 11.7257 7.09333ZM11.0178 16.9972L10.6581 16.4164C10.6007 16.3226 10.4861 16.2761 10.3772 16.3055L9.70754 16.4768L10.4753 14.6135H11.0536L11.7283 15.2759L11.0178 16.9972ZM14.623 16.3054C14.5141 16.2785 14.3995 16.3218 14.3422 16.4164L13.9824 16.9972L13.2745 15.2743L13.9492 14.6118H14.5275L15.2952 16.4751L14.623 16.3054ZM12.9172 7.4466L13.6642 8.18C13.7107 8.22569 13.7772 8.25342 13.8428 8.25342H14.898C15.2212 8.25342 15.4871 8.51204 15.4871 8.83182L15.4863 9.86708C15.4863 9.93397 15.5137 9.99679 15.561 10.0425L16.308 10.7759C16.5373 11.001 16.5373 11.3665 16.308 11.5925L15.561 12.3259C15.5145 12.3716 15.4863 12.4369 15.4863 12.5013V13.5374C15.4863 13.8547 15.2229 14.1158 14.8972 14.1158H13.842C13.7738 14.1158 13.7099 14.1427 13.6633 14.1892L12.9164 14.9226C12.687 15.1478 12.3148 15.1478 12.0846 14.9226L11.3377 14.1892C11.2911 14.1435 11.2247 14.1158 11.159 14.1158H10.1038C9.78062 14.1158 9.51473 13.8572 9.51473 13.5374V12.5013C9.51473 12.4344 9.48731 12.3716 9.43995 12.3259L8.69299 11.5925C8.46367 11.3674 8.46367 11.0019 8.69299 10.7759L9.43995 10.0425C9.48648 9.99679 9.51473 9.93152 9.51473 9.86708V8.83101C9.51473 8.51367 9.77813 8.25261 10.1038 8.25261H11.159C11.2272 8.25261 11.2911 8.22569 11.3377 8.17919L12.0846 7.44578C12.3131 7.22062 12.687 7.22062 12.9172 7.4466ZM11.2454 11.36C11.1457 11.2621 11.1457 11.1054 11.2454 11.0067C11.3452 10.9088 11.5047 10.9088 11.6052 11.0067L12.1436 11.5353L13.3982 10.3035C13.498 10.2056 13.6575 10.2056 13.758 10.3035C13.8577 10.4014 13.8577 10.558 13.758 10.6567L12.3247 12.064C12.2757 12.1121 12.2101 12.1374 12.1461 12.1374C12.0805 12.1374 12.0165 12.1121 11.9675 12.064L11.2454 11.36Z" stroke="white" stroke-width="0.2" mask="url(#path-1-outside-1_237_183)"/>
</svg>
