<svg width="34" height="34" viewBox="0 0 34 34" fill="none" xmlns="http://www.w3.org/2000/svg">
<path fill-rule="evenodd" clip-rule="evenodd" d="M31.1957 17.0036C31.1957 15.0695 28.7746 13.2377 25.061 12.0996C25.9187 8.31472 25.5361 5.3044 23.8587 4.33976C23.4714 4.11405 23.02 4.00713 22.5258 4.00713V5.33528C22.799 5.33528 23.02 5.38993 23.2053 5.48972C24.0155 5.95303 24.3648 7.72073 24.0916 9.99452C24.025 10.5529 23.9181 11.1421 23.7874 11.7432C22.6209 11.4581 21.3473 11.2371 20.0097 11.0946C19.2066 9.99452 18.3727 8.99424 17.5339 8.11989C19.4727 6.31417 21.2927 5.32816 22.5306 5.32816V4C20.8935 4 18.7528 5.16659 16.5859 7.1909C14.4191 5.17847 12.2784 4.02376 10.6413 4.02376V5.35191C11.8721 5.35191 13.6992 6.33318 15.6403 8.12465C14.8064 8.99899 13.9748 9.99214 13.1836 11.0946C11.8388 11.2371 10.5653 11.4581 9.3987 11.748C9.2609 11.154 9.16111 10.5766 9.08983 10.023C8.80947 7.74925 9.15636 5.98154 9.95943 5.5111C10.1376 5.40419 10.3705 5.35667 10.6437 5.35667V4.03089C10.1448 4.03089 9.69094 4.1378 9.29891 4.36352C7.62625 5.32816 7.25085 8.33373 8.11569 12.1067C4.40921 13.2472 2 15.0743 2 17.0036C2 18.9376 4.42109 20.7694 8.1347 21.9075C7.27698 25.6924 7.65951 28.7027 9.33693 29.6674C9.72421 29.8931 10.1756 30 10.677 30C12.314 30 14.4547 28.8334 16.6216 26.8091C18.7885 28.8215 20.9292 29.9762 22.5662 29.9762C23.0652 29.9762 23.519 29.8693 23.911 29.6436C25.5837 28.679 25.9591 25.6734 25.0942 21.9004C28.7864 20.7647 31.1957 18.9305 31.1957 17.0036ZM19.3112 17.0036C19.3112 15.502 18.0947 14.2831 16.5907 14.2831C15.0891 14.2831 13.8702 15.4996 13.8702 17.0036C13.8702 18.5075 15.0867 19.724 16.5907 19.724C18.0947 19.7216 19.3112 18.5052 19.3112 17.0036ZM23.4477 13.0334C23.2267 13.8008 22.9535 14.592 22.6446 15.3832C22.3999 14.908 22.1457 14.4304 21.8653 13.9552C21.5921 13.48 21.2998 13.0143 21.0076 12.5629C21.8534 12.6888 22.6684 12.8433 23.4477 13.0334ZM20.7225 19.3724C20.2592 20.1755 19.7816 20.9381 19.2874 21.6462C18.4012 21.7246 17.5031 21.765 16.5978 21.765C15.6997 21.765 14.8016 21.7222 13.9201 21.6509C13.4259 20.9429 12.9436 20.1873 12.4803 19.389C12.0289 18.6097 11.6178 17.8185 11.2424 17.0202C11.6107 16.2219 12.0289 15.4259 12.4732 14.6466C12.9365 13.8436 13.4141 13.0809 13.9083 12.3728C14.7945 12.2944 15.6926 12.254 16.5978 12.254C17.4959 12.254 18.394 12.2968 19.2755 12.3681C19.7697 13.0761 20.252 13.8317 20.7153 14.63C21.1668 15.4093 21.5778 16.2005 21.9532 16.9988C21.5778 17.7948 21.1691 18.5907 20.7225 19.3724ZM22.6446 18.5978C22.9654 19.3961 23.2386 20.1921 23.4667 20.9666C22.6874 21.1567 21.8653 21.3183 21.0147 21.4418C21.307 20.9833 21.5968 20.5128 21.8724 20.0305C22.1433 19.5553 22.3999 19.073 22.6446 18.5978ZM16.6097 24.9464C16.0561 24.3761 15.5025 23.7394 14.956 23.0432C15.4906 23.067 16.0395 23.086 16.5931 23.086C17.1514 23.086 17.705 23.0741 18.2467 23.0432C17.7098 23.7394 17.1562 24.3761 16.6097 24.9464ZM12.1833 21.4418C11.3375 21.3159 10.5225 21.1615 9.74322 20.9714C9.96418 20.204 10.2374 19.4128 10.5463 18.6216C10.791 19.0968 11.0452 19.5743 11.3256 20.0495C11.606 20.5271 11.8911 20.9904 12.1833 21.4418ZM16.5788 9.05839C17.1324 9.62862 17.686 10.2654 18.2325 10.9615C17.6979 10.9378 17.149 10.9188 16.5954 10.9188C16.0371 10.9188 15.4835 10.9306 14.9418 10.9615C15.4788 10.2654 16.0323 9.62862 16.5788 9.05839ZM12.1762 12.5629C11.8839 13.0215 11.5941 13.4919 11.3185 13.9742C11.0452 14.4494 10.7886 14.927 10.5439 15.4022C10.2232 14.6039 9.94992 13.8079 9.72183 13.0334C10.5035 12.848 11.3256 12.6888 12.1762 12.5629ZM6.78991 20.0139C4.68245 19.1158 3.32103 17.9373 3.32103 17.0036C3.32103 16.0698 4.68482 14.8842 6.78991 13.9932C7.30074 13.7723 7.86146 13.5774 8.43882 13.3921C8.77858 14.5587 9.22526 15.7728 9.77885 17.0154C9.23239 18.2533 8.79046 19.4603 8.45783 20.6221C7.86859 20.4368 7.30787 20.2349 6.78991 20.0139ZM9.99269 28.5174C9.18249 28.0541 8.83323 26.2864 9.10646 24.0126C9.17299 23.4543 9.27991 22.865 9.41058 22.2639C10.5772 22.549 11.8507 22.77 13.1883 22.9125C13.9914 24.0126 14.8254 25.0129 15.6641 25.8872C13.7229 27.6906 11.903 28.679 10.6651 28.679C10.3966 28.6718 10.1709 28.6196 9.99269 28.5174ZM24.1082 23.9841C24.3886 26.2579 24.0417 28.0256 23.2386 28.496C23.0604 28.6029 22.8276 28.6505 22.5543 28.6505C21.3236 28.6505 19.4965 27.6692 17.5553 25.8777C18.3893 25.0034 19.2209 24.0102 20.0121 22.9078C21.3568 22.7652 22.6304 22.5443 23.7969 22.252C23.9348 22.8531 24.0417 23.4305 24.1082 23.9841ZM26.3986 20.0139C25.8878 20.2349 25.3271 20.4297 24.7497 20.615C24.4099 19.4484 23.9633 18.2343 23.4097 16.9917C23.9561 15.7538 24.3981 14.5468 24.7307 13.385C25.3199 13.5703 25.8783 13.7723 26.4034 13.9909C28.5108 14.889 29.8722 16.0674 29.8722 17.0012C29.8675 17.9373 28.5061 19.1205 26.3986 20.0139Z" fill="#0066FF"/>
</svg>
