<svg width="34" height="34" viewBox="0 0 34 34" fill="none" xmlns="http://www.w3.org/2000/svg">
<path fill-rule="evenodd" clip-rule="evenodd" d="M24.5515 9.62036C24.5339 9.49927 24.4284 9.43286 24.3405 9.42504C24.2526 9.41723 22.5455 9.39184 22.5455 9.39184C22.5455 9.39184 21.1158 8.00507 20.9752 7.86249C20.8345 7.72186 20.5591 7.76483 20.4517 7.79608C20.4498 7.79608 20.1841 7.88006 19.7329 8.01874C19.6587 7.77459 19.5474 7.47575 19.3892 7.17496C18.8813 6.20422 18.1352 5.69053 17.2348 5.68858C17.2328 5.68858 17.2328 5.68858 17.2309 5.68858C17.1684 5.68858 17.1059 5.69444 17.0434 5.7003C17.016 5.66904 16.9906 5.63779 16.9613 5.60654C16.5688 5.1866 16.0668 4.98347 15.4632 5.00105C14.3011 5.03425 13.1428 5.87413 12.2034 7.36637C11.5432 8.41524 11.0393 9.73365 10.8967 10.7552C9.56263 11.1693 8.62901 11.4583 8.60752 11.4642C7.93367 11.6751 7.91218 11.6966 7.82429 12.3314C7.76374 12.8099 6 26.4452 6 26.4452L20.7759 29L27.1805 27.4081C27.1805 27.4081 24.5671 9.74146 24.5515 9.62036ZM18.9927 8.24727C18.6528 8.35274 18.2661 8.47188 17.8461 8.60275C17.8383 8.01484 17.768 7.19449 17.4926 6.48743C18.3755 6.65346 18.8091 7.65154 18.9927 8.24727ZM17.0727 8.84299C16.2992 9.08323 15.4535 9.34496 14.6058 9.60669C14.8441 8.69455 15.2972 7.78436 15.8519 7.18863C16.059 6.96597 16.348 6.71986 16.6899 6.57923C17.0121 7.24918 17.0805 8.20039 17.0727 8.84299ZM15.4886 5.77452C15.7621 5.76866 15.9906 5.82921 16.1879 5.95812C15.8734 6.12023 15.5707 6.35462 15.2855 6.65932C14.5472 7.45231 13.9808 8.68088 13.7562 9.86842C13.053 10.0852 12.3635 10.3001 11.7307 10.4954C12.1291 8.62814 13.6956 5.8253 15.4886 5.77452Z" fill="#0066FF"/>
<path fill-rule="evenodd" clip-rule="evenodd" d="M24.3419 9.42584C24.254 9.41803 22.5469 9.39264 22.5469 9.39264C22.5469 9.39264 21.1172 8.00587 20.9766 7.86328C20.9238 7.81055 20.8535 7.7832 20.7773 7.77148V28.9988L27.1799 27.407C27.1799 27.407 24.5665 9.74226 24.5509 9.62116C24.5373 9.50007 24.4298 9.43366 24.3419 9.42584Z" fill="#0066FF"/>
<path fill-rule="evenodd" clip-rule="evenodd" d="M17.2268 12.7179L16.4827 15.5012C16.4827 15.5012 15.6526 15.1243 14.6701 15.1848C13.2286 15.2766 13.213 16.1849 13.2267 16.4134C13.3048 17.6576 16.5784 17.9291 16.7639 20.8452C16.9085 23.1383 15.5471 24.7067 13.5861 24.8317C11.2325 24.9801 9.93555 23.5914 9.93555 23.5914L10.4336 21.4702C10.4336 21.4702 11.7383 22.4546 12.7814 22.3882C13.463 22.3453 13.7072 21.7905 13.6818 21.398C13.5802 19.7748 10.9121 19.8706 10.7442 17.2025C10.6016 14.9583 12.0763 12.6828 15.3303 12.4777C16.5862 12.3976 17.2268 12.7179 17.2268 12.7179Z" fill="white"/>
</svg>
