<svg width="34" height="34" viewBox="0 0 34 34" fill="none" xmlns="http://www.w3.org/2000/svg">
<path fill-rule="evenodd" clip-rule="evenodd" d="M25.2025 23.1923H8.57419C8.38629 23.1923 8.2334 23.0394 8.2334 22.8515C8.2334 22.6636 8.38631 22.5107 8.57419 22.5107H25.2025C25.3904 22.5107 25.5433 22.6636 25.5433 22.8515C25.5433 23.0394 25.3904 23.1923 25.2025 23.1923Z" fill="#0066FF"/>
<path fill-rule="evenodd" clip-rule="evenodd" d="M27.9767 17.8312C27.7888 17.8312 27.6359 17.6783 27.6359 17.4904V8.57563C27.6359 8.08324 27.2342 7.68157 26.7418 7.68157H7.02298C6.53055 7.68157 6.12885 8.08195 6.12885 8.57563V17.4904C6.12885 17.6783 5.97594 17.8312 5.78806 17.8312C5.60016 17.8312 5.44727 17.6783 5.44727 17.4904V8.57563C5.44727 7.70618 6.1535 7 7.02302 7H26.7418C27.6113 7 28.3175 7.70618 28.3175 8.57563V17.4904C28.3175 17.6783 28.1646 17.8312 27.9767 17.8312Z" fill="#0066FF"/>
<path fill-rule="evenodd" clip-rule="evenodd" d="M24.3376 21.7743H9.37693C9.18903 21.7743 9.03613 21.6214 9.03613 21.4335C9.03613 21.2457 9.18904 21.0928 9.37693 21.0928H24.3376C24.5255 21.0928 24.6784 21.2457 24.6784 21.4335C24.6784 21.6214 24.5255 21.7743 24.3376 21.7743Z" fill="#0066FF"/>
<path fill-rule="evenodd" clip-rule="evenodd" d="M26.7514 17.8326C26.5635 17.8326 26.4106 17.6797 26.4106 17.4919V9.0929H7.3603V17.4919C7.3603 17.6797 7.20739 17.8326 7.0195 17.8326C6.83161 17.8326 6.67871 17.6797 6.67871 17.4919V8.7519C6.67871 8.56402 6.83162 8.41113 7.0195 8.41113H26.7512C26.9404 8.41113 27.092 8.56403 27.092 8.7519V17.4919C27.092 17.6797 26.9406 17.8326 26.7514 17.8326Z" fill="#0066FF"/>
<path fill-rule="evenodd" clip-rule="evenodd" d="M11.9132 26.3191H21.8666L19.3086 23.1925H14.4726L11.9146 26.3191H11.9132ZM22.5858 27.0007H11.194C11.0618 27.0007 10.9426 26.9255 10.8856 26.8063C10.8286 26.6871 10.8467 26.5459 10.9296 26.4435L14.0461 22.6364C14.1109 22.5574 14.2081 22.5107 14.3105 22.5107H19.4693C19.5717 22.5107 19.6689 22.5574 19.7337 22.6364L22.8502 26.4435C22.9331 26.5459 22.9513 26.6871 22.8942 26.8063C22.8385 26.9255 22.718 27.0007 22.5858 27.0007Z" fill="#0066FF"/>
<path fill-rule="evenodd" clip-rule="evenodd" d="M20.6549 19.7768C20.48 19.7768 20.3051 19.7405 20.1405 19.6693L14.295 17.1089C14.1226 17.0337 14.0436 16.8329 14.12 16.6592C14.1952 16.4869 14.396 16.4078 14.5697 16.4843L20.4139 19.0434C20.5616 19.1069 20.7262 19.1108 20.8765 19.0525C21.0255 18.9942 21.1421 18.8814 21.2056 18.735C21.2393 18.6598 21.2549 18.5782 21.2549 18.4888V11.1835C21.2549 10.8453 20.9905 10.581 20.6523 10.581C20.5668 10.581 20.4839 10.5978 20.4035 10.6315L14.5696 13.1893C14.3972 13.2645 14.1964 13.1867 14.1199 13.0144C14.0448 12.8421 14.1225 12.6412 14.2949 12.5648L20.1328 10.0057C20.3012 9.9344 20.4749 9.89941 20.6511 9.89941C21.3599 9.89941 21.9353 10.476 21.9353 11.1848V18.4901C21.9353 18.6754 21.899 18.8503 21.8277 19.011C21.693 19.3233 21.4416 19.5656 21.1202 19.6887C20.9699 19.7483 20.8118 19.7768 20.6537 19.7768L20.6549 19.7768Z" fill="#0066FF"/>
<path fill-rule="evenodd" clip-rule="evenodd" d="M12.2064 13.2205C11.3135 13.2205 10.5879 13.9461 10.5879 14.8389C10.5879 15.7304 11.3135 16.456 12.2064 16.456H14.0893V13.2205H12.2064ZM14.43 17.1377H12.2064C10.9378 17.1377 9.90625 16.1063 9.90625 14.839C9.90625 13.5705 10.9378 12.5391 12.2064 12.5391H14.43C14.6179 12.5391 14.7708 12.692 14.7708 12.8798V16.797C14.7708 16.9849 14.6179 17.1377 14.43 17.1377Z" fill="#0066FF"/>
<path fill-rule="evenodd" clip-rule="evenodd" d="M12.5491 19.6076H13.3539V17.1405H12.5491V19.6076ZM13.6946 20.2892H12.207C12.0191 20.2892 11.8662 20.1363 11.8662 19.9484V16.7998C11.8662 16.6119 12.0191 16.459 12.207 16.459H13.6946C13.8825 16.459 14.0354 16.6119 14.0354 16.7998V19.9484C14.0354 20.1363 13.8825 20.2892 13.6946 20.2892Z" fill="#0066FF"/>
<path fill-rule="evenodd" clip-rule="evenodd" d="M21.621 17.3419H21.6015C21.4136 17.3419 21.2607 17.189 21.2607 17.0012C21.2607 16.8133 21.4137 16.6604 21.6015 16.6604H21.621C22.484 16.6604 23.1877 15.9581 23.1877 15.0938C23.1877 14.2295 22.4853 13.5272 21.621 13.5272H21.6015C21.4136 13.5272 21.2607 13.3743 21.2607 13.1865C21.2607 12.9986 21.4137 12.8457 21.6015 12.8457H21.621C22.8611 12.8457 23.8693 13.8538 23.8693 15.0938C23.8693 16.3326 22.8611 17.3419 21.621 17.3419Z" fill="#0066FF"/>
<path fill-rule="evenodd" clip-rule="evenodd" d="M30.6394 23.1907H27.9246C27.7354 23.1907 27.5838 23.0391 27.5838 22.8499C27.5838 22.662 27.7354 22.5091 27.9246 22.5091H30.6394C30.8908 22.5091 31.0942 22.3057 31.0942 22.0556V18.2927C31.0942 18.0413 30.8908 17.8379 30.6394 17.8379H25.2019C24.9518 17.8379 24.7471 18.0413 24.7471 18.2927V22.0556C24.7471 22.3057 24.9505 22.5091 25.2019 22.5091H25.7125C25.9004 22.5091 26.0533 22.662 26.0533 22.8499C26.0533 23.0391 25.9004 23.1907 25.7125 23.1907H25.2019C24.576 23.1907 24.0654 22.6814 24.0654 22.0556V18.2926C24.0654 17.6655 24.5747 17.1562 25.2019 17.1562H30.6394C31.2666 17.1562 31.7759 17.6655 31.7759 18.2926V22.0556C31.7759 22.6814 31.2666 23.1907 30.6394 23.1907Z" fill="#0066FF"/>
<path fill-rule="evenodd" clip-rule="evenodd" d="M25.8289 25.104C25.7861 25.104 25.742 25.0962 25.7019 25.0793C25.5801 25.0301 25.4971 24.9148 25.4894 24.7839L25.3727 22.8636C25.3611 22.6757 25.5049 22.515 25.6928 22.5034C25.8807 22.4917 26.0414 22.6343 26.0543 22.8234L26.1269 24.0285L27.6949 22.5915C27.8335 22.4645 28.0499 22.4736 28.1769 22.6122C28.3039 22.7509 28.2949 22.9673 28.1562 23.0943L26.0621 25.0146C25.9973 25.0729 25.9157 25.104 25.8315 25.104L25.8289 25.104Z" fill="#0066FF"/>
<path fill-rule="evenodd" clip-rule="evenodd" d="M29.8521 19.578H25.9853C25.7961 19.578 25.6445 19.4264 25.6445 19.2373C25.6445 19.0494 25.7974 18.8965 25.9853 18.8965H29.8521C30.0399 18.8965 30.1928 19.0494 30.1928 19.2373C30.1928 19.4264 30.0399 19.578 29.8521 19.578Z" fill="#0066FF"/>
<path fill-rule="evenodd" clip-rule="evenodd" d="M29.8521 21.4384H25.9853C25.7961 21.4384 25.6445 21.2855 25.6445 21.0976C25.6445 20.9097 25.7974 20.7568 25.9853 20.7568H29.8521C30.0399 20.7568 30.1928 20.9097 30.1928 21.0976C30.1928 21.2855 30.0399 21.4384 29.8521 21.4384Z" fill="#0066FF"/>
<path fill-rule="evenodd" clip-rule="evenodd" d="M8.57396 23.1907H5.85916C5.67126 23.1907 5.51837 23.0391 5.51837 22.8499C5.51837 22.662 5.67128 22.5091 5.85916 22.5091H8.57396C8.82406 22.5091 9.02881 22.3057 9.02881 22.0556V18.2927C9.02881 18.0413 8.82536 17.8379 8.57396 17.8379H3.13646C2.88636 17.8379 2.68162 18.0413 2.68162 18.2927V22.0556C2.68162 22.3057 2.88507 22.5091 3.13646 22.5091H3.64704C3.83494 22.5091 3.98783 22.662 3.98783 22.8499C3.98783 23.0391 3.83492 23.1907 3.64704 23.1907H3.13646C2.51058 23.1907 2 22.6814 2 22.0556V18.2926C2 17.6655 2.50928 17.1562 3.13646 17.1562H8.57396C9.19985 17.1562 9.71043 17.6655 9.71043 18.2926V22.0556C9.71043 22.6814 9.20114 23.1907 8.57396 23.1907Z" fill="#0066FF"/>
<path fill-rule="evenodd" clip-rule="evenodd" d="M3.77125 25.1042C3.72849 25.1042 3.68572 25.0964 3.64426 25.0795C3.52245 25.0303 3.43951 24.915 3.43174 24.7841L3.31512 22.8638C3.30345 22.6759 3.44729 22.5152 3.63519 22.5036C3.82438 22.4919 3.98507 22.6345 3.99671 22.8236L4.06928 24.0274L5.62947 22.593C5.76813 22.4647 5.98324 22.4751 6.11152 22.6137C6.23851 22.7524 6.22944 22.9675 6.09079 23.0958L4.00187 25.0161C3.93838 25.0744 3.85544 25.1055 3.77121 25.1055L3.77125 25.1042Z" fill="#0066FF"/>
<path fill-rule="evenodd" clip-rule="evenodd" d="M5.14604 19.1416C5.13178 19.1714 5.1266 19.1908 5.1266 19.1973V21.1371C5.1266 21.2006 5.17455 21.2485 5.23804 21.2485C5.26267 21.2485 5.2834 21.242 5.28988 21.2394L6.97577 20.2676C7.0289 20.2365 7.04704 20.164 7.01594 20.1083C7.01334 20.1031 7.01075 20.0992 7.00816 20.094C7.00816 20.094 7.00039 20.0862 6.98872 20.0797C6.98613 20.0784 6.98354 20.0772 6.98095 20.0759L5.30024 19.1053C5.29764 19.104 5.29635 19.1027 5.29376 19.1014C5.26525 19.0846 5.23544 19.0872 5.216 19.0924C5.19916 19.0963 5.16806 19.1092 5.14473 19.1429L5.14604 19.1416ZM5.23934 21.93C4.80135 21.93 4.44629 21.575 4.44629 21.1371V19.1973C4.44629 19.0677 4.48257 18.9369 4.55255 18.8073C4.55514 18.8021 4.55773 18.7982 4.56032 18.793C4.66917 18.6142 4.84023 18.4846 5.04366 18.4302C5.251 18.3758 5.4648 18.4043 5.64623 18.5131L7.32177 19.4798C7.45006 19.551 7.55372 19.656 7.61722 19.7791C7.82455 20.1587 7.69108 20.6395 7.31788 20.8546L5.63717 21.8238C5.52702 21.8899 5.38448 21.9275 5.24064 21.9275L5.23934 21.93Z" fill="#0066FF"/>
</svg>
