<svg width="25" height="25" viewBox="0 0 25 25" fill="none" xmlns="http://www.w3.org/2000/svg">
<path d="M22.6636 14.4827L21.8461 14.4414C21.817 14.3618 21.7839 14.2837 21.7472 14.2069L22.2959 13.6071C22.4225 13.4686 22.417 13.2565 22.2834 13.1245L21.4931 12.3446C21.4699 12.3217 21.442 12.3077 21.4148 12.2925V5.81752C21.4148 5.36672 21.0434 5 20.5867 5H3.82808C3.37145 5 3 5.36672 3 5.81752V17.185C3 17.6358 3.37145 18.0025 3.82808 18.0025H10.6328L10.4951 19.464C10.4891 19.5495 10.3945 20.2993 8.95673 20.2993C8.76059 20.2993 8.60184 20.4562 8.60184 20.6496C8.60184 20.843 8.76059 21 8.95673 21H15.4583C15.6542 21 15.8132 20.843 15.8132 20.6496C15.8132 20.4562 15.6542 20.2993 15.4583 20.2993C14.0205 20.2993 13.9259 19.5495 13.9188 19.4491L13.7823 18.0025H16.4892L16.9157 18.4236C17.0494 18.5556 17.2643 18.5612 17.4043 18.436L18.0121 17.8946C18.09 17.9308 18.169 17.9635 18.2497 17.9922L18.2913 18.7985C18.301 18.9849 18.4567 19.1312 18.6457 19.1312H19.7632C19.9522 19.1312 20.1079 18.9849 20.1176 18.7988L20.1597 17.9922C20.2401 17.9635 20.3194 17.9308 20.397 17.8948L21.0043 18.436C21.1446 18.5612 21.3595 18.5559 21.4929 18.4236L22.2831 17.6437C22.4166 17.512 22.4222 17.2997 22.2957 17.1614L21.7475 16.5613C21.7839 16.4847 21.817 16.4065 21.8461 16.3271L22.6633 16.2855C22.8519 16.2759 23 16.1222 23 15.9356V14.8326C23.0002 14.646 22.8521 14.4923 22.6636 14.4827ZM3.70978 5.81752C3.70978 5.75305 3.76278 5.70073 3.82808 5.70073H20.5867C20.6518 5.70073 20.705 5.75305 20.705 5.81752V12.5992L20.3968 12.8739C20.3194 12.8379 20.2401 12.8054 20.1597 12.7765L20.1176 11.9697C20.1079 11.7835 19.9522 11.6373 19.7632 11.6373H18.6457C18.4567 11.6373 18.301 11.7833 18.2913 11.9695L18.249 12.7765C18.1685 12.8052 18.0897 12.8377 18.0121 12.8736L17.4046 12.3322C17.2643 12.2072 17.0497 12.2126 16.916 12.3446L16.1258 13.1245C15.9923 13.2565 15.9866 13.4686 16.113 13.6071L16.6616 14.2074C16.6252 14.284 16.5921 14.362 16.5632 14.4412L15.7456 14.4827C15.557 14.4923 15.4089 14.646 15.4089 14.8326V15.2145H3.70978V5.81752ZM10.8585 20.2993C11.1819 19.9143 11.2032 19.5145 11.203 19.5145L11.3459 18.0025H13.0699L13.2114 19.4934C13.2116 19.5011 13.2322 19.9097 13.5587 20.2993H10.8585ZM16.1135 17.1612C16.0756 17.2027 16.0534 17.2513 16.0392 17.3018H3.82808C3.76278 17.3018 3.70978 17.2492 3.70978 17.185V15.915H15.4091V15.9354C15.4091 16.122 15.557 16.2757 15.7458 16.2853L16.5632 16.3271C16.5923 16.4062 16.6252 16.4845 16.6616 16.5611L16.1135 17.1612ZM22.2905 15.6027L21.5629 15.6396C21.4082 15.6476 21.2762 15.7539 21.2376 15.9022C21.1891 16.0876 21.1134 16.2673 21.0126 16.4364C20.9338 16.5681 20.9509 16.7354 21.055 16.8491L21.5433 17.3835L21.23 17.6928L20.6887 17.2105C20.5735 17.1074 20.4039 17.0913 20.2699 17.1689C20.1001 17.2684 19.9186 17.3429 19.73 17.3905C19.5796 17.4286 19.4719 17.5589 19.4639 17.7119L19.4265 18.4302H18.9836L18.9464 17.7122C18.9386 17.5589 18.8307 17.4286 18.6803 17.3905C18.4919 17.3429 18.3102 17.2684 18.1399 17.1689C18.0062 17.0904 17.8366 17.1072 17.7214 17.2105L17.1796 17.6928L16.8665 17.3838L17.3549 16.8491C17.4587 16.7356 17.476 16.5683 17.3972 16.4364C17.2967 16.2677 17.2212 16.0884 17.1729 15.9027C17.1344 15.7541 17.0023 15.6478 16.8474 15.6399L16.1194 15.6027V15.1655L16.8474 15.1286C17.0023 15.1206 17.1344 15.0144 17.1729 14.8658C17.221 14.6808 17.2964 14.5012 17.3975 14.3321C17.476 14.2003 17.459 14.0333 17.3551 13.9196L16.8665 13.3849L17.1798 13.0757L17.7214 13.558C17.8366 13.661 18.0062 13.6778 18.1399 13.5996C18.3093 13.5008 18.4908 13.426 18.6803 13.3777C18.8303 13.3394 18.9377 13.2093 18.9457 13.0565L18.9833 12.338H19.4265L19.4639 13.0563C19.4719 13.2091 19.5793 13.3392 19.7293 13.3775C19.9188 13.4258 20.1008 13.5006 20.2702 13.5994C20.4034 13.6774 20.573 13.6606 20.6887 13.5578L21.1553 13.142C21.1905 13.1322 21.2241 13.1184 21.2542 13.099L21.5435 13.3845L21.0547 13.9189C20.9509 14.0324 20.9336 14.1999 21.0126 14.3321C21.1134 14.5003 21.1889 14.6799 21.2371 14.8658C21.2757 15.0144 21.4077 15.1209 21.5627 15.1286L22.2907 15.1653L22.2905 15.6027ZM19.2048 13.9885C18.4255 13.9885 17.7914 14.6147 17.7914 15.3841C17.7914 16.1535 18.4255 16.7797 19.2048 16.7797C19.9841 16.7797 20.6182 16.1535 20.6182 15.3841C20.6182 14.6147 19.9841 13.9885 19.2048 13.9885ZM19.2048 16.079C18.8168 16.079 18.5012 15.7674 18.5012 15.3841C18.5012 15.0008 18.8168 14.6892 19.2048 14.6892C19.5928 14.6892 19.9084 15.0008 19.9084 15.3841C19.9084 15.7674 19.5926 16.079 19.2048 16.079ZM8.93946 7.71159C8.79655 7.57892 8.57226 7.58523 8.43764 7.72584L5.82422 10.4587C5.69528 10.5937 5.69528 10.8046 5.82422 10.9399L8.43764 13.6734C8.50744 13.7465 8.60136 13.7834 8.69576 13.7834C8.78307 13.7834 8.87061 13.7516 8.93922 13.6879C9.08165 13.5552 9.08827 13.3333 8.95365 13.1925L6.57044 10.6993L8.95389 8.20701C9.08851 8.06616 9.08212 7.8445 8.93946 7.71159ZM12.2007 7.67515C12.018 7.60625 11.8124 7.69618 11.7421 7.87673L9.64474 13.2721C9.57447 13.4527 9.6658 13.6554 9.84892 13.7248C9.8908 13.7404 9.93362 13.7481 9.97597 13.7481C10.1186 13.7481 10.2533 13.6627 10.3074 13.5232L12.4048 8.12806C12.4749 7.94727 12.3836 7.74453 12.2007 7.67515ZM16.2249 10.4599L13.6115 7.72607C13.4771 7.58499 13.2523 7.57892 13.1099 7.71159C12.9675 7.84426 12.9608 8.06616 13.0952 8.20677L15.4787 10.7002L13.0952 13.1925C12.9608 13.3331 12.967 13.5547 13.1097 13.6879C13.1783 13.7516 13.2658 13.7834 13.3534 13.7834C13.4475 13.7834 13.5417 13.7465 13.6115 13.6734L16.2249 10.9408C16.3541 10.8058 16.3541 10.5949 16.2249 10.4599Z" fill="white"/>
</svg>
