<svg width="34" height="34" viewBox="0 0 34 34" fill="none" xmlns="http://www.w3.org/2000/svg">
<path d="M24.6411 3.44531H5.97403C5.37123 3.44699 4.7936 3.6872 4.36735 4.11345C3.94111 4.53969 3.7009 5.11732 3.69922 5.72012V26.3071C3.7009 26.9099 3.94111 27.4876 4.36735 27.9138C4.7936 28.34 5.37123 28.5803 5.97403 28.5819H18.2693C18.129 22.4641 20.219 10.5917 24.6411 3.44531Z" fill="#0066FF"/>
<path d="M23.9632 4.10938H5.97403C5.54701 4.10994 5.13763 4.27982 4.83568 4.58177C4.53373 4.88373 4.36384 5.2931 4.36328 5.72012V24.8047C8.97839 23.0641 13.8501 22.1005 18.7803 21.953C20.0843 15.8902 21.8163 9.92737 23.9632 4.10938Z" fill="url(#paint0_linear_4923_1443)"/>
<path d="M28.9949 2.77124C27.7199 1.63118 26.1687 2.08912 24.6387 3.44487C24.4124 3.64674 24.1861 3.86987 23.9608 4.10893C21.0826 7.51294 19.0924 11.5769 18.1681 15.9377C18.4534 16.5602 18.679 17.2085 18.8417 17.8736C18.8799 18.0224 18.915 18.1626 18.9479 18.2816C19.0138 18.5632 19.0542 18.7459 19.0542 18.7459C19.0542 18.7459 19.0308 18.6577 18.9341 18.3783L18.8714 18.1977C18.8608 18.169 18.847 18.135 18.8311 18.0978C18.6611 17.7015 18.1936 16.8653 17.9811 16.5041C17.8036 17.0279 17.6464 17.5177 17.5157 17.9607C17.9568 18.9096 18.2808 19.9086 18.4804 20.9357C18.4804 20.9357 18.4486 20.8136 18.2988 20.3885C18.0109 19.7679 17.6917 19.1622 17.3425 18.5738C17.1167 19.1567 17.0209 19.7818 17.062 20.4056C17.296 20.8721 17.4719 21.3656 17.5858 21.875C17.9407 23.2382 18.1872 24.8989 18.1872 24.8989C18.1872 24.8989 18.1957 25.0051 18.2084 25.1783C18.1618 26.3138 18.1849 27.451 18.2775 28.5836C18.3302 29.705 18.539 30.8136 18.898 31.8774L19.0893 31.7711C18.6441 30.1724 18.4724 28.5099 18.5814 26.8539C18.7814 23.3431 19.4746 19.8779 20.6405 16.5604C22.7761 10.9206 25.7405 6.39437 28.4499 4.23537C25.9785 6.46662 22.6338 13.6916 21.6318 16.367C20.5768 19.1216 19.7751 21.9667 19.2369 24.867C19.8775 23.2484 21.1316 21.9484 22.7262 21.2502C22.7262 21.2502 24.0363 19.6342 25.5673 17.3264C24.5782 17.5327 23.601 17.7927 22.6401 18.1052C21.8964 18.4176 21.6956 18.5239 21.6956 18.5239C23.1153 17.6688 24.6153 16.9546 26.174 16.3914C29.0173 11.913 32.1155 5.55393 28.996 2.76593" fill="#0066FF"/>
<defs>
<linearGradient id="paint0_linear_4923_1443" x1="14.1405" y1="4.57629" x2="14.1405" y2="23.6998" gradientUnits="userSpaceOnUse">
<stop stop-color="#97D9F6"/>
<stop offset="0.92" stop-color="#0066FF"/>
<stop offset="1" stop-color="#0066FF"/>
</linearGradient>
</defs>
</svg>
