<svg width="25" height="25" viewBox="0 0 25 25" fill="none" xmlns="http://www.w3.org/2000/svg">
<path d="M12.1284 4.07136H13.2389C13.3888 4.07136 13.511 3.9492 13.511 3.79926C13.511 3.64931 13.3888 3.52715 13.2389 3.52715H12.1284C11.9784 3.52715 11.8562 3.64931 11.8562 3.79926C11.8562 3.9492 11.9784 4.07136 12.1284 4.07136Z" fill="white" stroke="white" stroke-width="0.1"/>
<path d="M5.37679 1.95L5.37678 1.95L2.22308 1.95087C2.22308 1.95087 2.22307 1.95087 2.22307 1.95087C2.07313 1.95088 1.95098 2.07303 1.95098 2.22298V5.37668C1.95098 5.52663 2.07314 5.64879 2.22308 5.64879H5.37679C5.52674 5.64879 5.6489 5.52663 5.6489 5.37668V4.07147L6.57581 4.07153C6.72576 4.07153 6.84792 3.94937 6.84792 3.79943C6.84792 3.64948 6.72576 3.52732 6.57581 3.52732H5.6489V2.22211C5.6489 2.07216 5.52674 1.95 5.37679 1.95ZM5.10468 5.10464H2.49519V2.49515H5.10468V5.10464Z" fill="white" stroke="white" stroke-width="0.1"/>
<path d="M14.3491 4.07136H15.4596C15.6095 4.07136 15.7317 3.9492 15.7317 3.79926C15.7317 3.64931 15.6095 3.52715 15.4596 3.52715H14.3491C14.1991 3.52715 14.077 3.64931 14.077 3.79926C14.077 3.9492 14.1991 4.07136 14.3491 4.07136Z" fill="white" stroke="white" stroke-width="0.1"/>
<path d="M9.90765 4.07136H11.0182C11.1681 4.07136 11.2903 3.9492 11.2903 3.79926C11.2903 3.64931 11.1681 3.52715 11.0182 3.52715H9.90765C9.75771 3.52715 9.63555 3.64931 9.63555 3.79926C9.63555 3.9492 9.75771 4.07136 9.90765 4.07136Z" fill="white" stroke="white" stroke-width="0.1"/>
<path d="M16.5707 4.07136H17.6813C17.8312 4.07136 17.9534 3.9492 17.9534 3.79926C17.9534 3.64931 17.8312 3.52715 17.6813 3.52715H16.5707C16.4208 3.52715 16.2986 3.64931 16.2986 3.79926C16.2986 3.9492 16.4208 4.07136 16.5707 4.07136Z" fill="white" stroke="white" stroke-width="0.1"/>
<path d="M7.68597 4.07136H8.79651C8.94646 4.07136 9.06862 3.9492 9.06862 3.79926C9.06862 3.64931 8.94646 3.52715 8.79651 3.52715H7.68597C7.53603 3.52715 7.41387 3.64931 7.41387 3.79926C7.41387 3.9492 7.53603 4.07136 7.68597 4.07136Z" fill="white" stroke="white" stroke-width="0.1"/>
<path d="M3.52715 16.3424C3.52715 16.4924 3.64931 16.6145 3.79926 16.6145C3.9492 16.6145 4.07136 16.4924 4.07136 16.3424V15.2319C4.07136 15.0819 3.9492 14.9598 3.79926 14.9598C3.64931 14.9598 3.52715 15.0819 3.52715 15.2319V16.3424Z" fill="white" stroke="white" stroke-width="0.1"/>
<path d="M3.52715 14.1212C3.52715 14.2712 3.64931 14.3933 3.79926 14.3933C3.9492 14.3933 4.07136 14.2712 4.07136 14.1212V13.0107C4.07136 12.8607 3.9492 12.7386 3.79926 12.7386C3.64931 12.7386 3.52715 12.8607 3.52715 13.0107V14.1212Z" fill="white" stroke="white" stroke-width="0.1"/>
<path d="M3.52715 11.9C3.52715 12.05 3.64931 12.1721 3.79926 12.1721C3.9492 12.1721 4.07136 12.05 4.07136 11.9V10.7895C4.07136 10.6395 3.9492 10.5174 3.79926 10.5174C3.64931 10.5174 3.52715 10.6395 3.52715 10.7895V11.9Z" fill="white" stroke="white" stroke-width="0.1"/>
<path d="M3.52715 9.67933C3.52715 9.82927 3.64931 9.95143 3.79926 9.95143C3.9492 9.95143 4.07136 9.82927 4.07136 9.67933V8.56879C4.07136 8.41884 3.9492 8.29668 3.79926 8.29668C3.64931 8.29668 3.52715 8.41884 3.52715 8.56879V9.67933Z" fill="white" stroke="white" stroke-width="0.1"/>
<path d="M3.79926 7.73024C3.9492 7.73024 4.07136 7.60808 4.07136 7.45813V6.3476C4.07136 6.19765 3.9492 6.07549 3.79926 6.07549C3.64931 6.07549 3.52715 6.19765 3.52715 6.3476V7.45813C3.52715 7.60808 3.64931 7.73024 3.79926 7.73024Z" fill="white" stroke="white" stroke-width="0.1"/>
<path d="M14.1344 19.9285H13.0239C12.8739 19.9285 12.7518 20.0507 12.7518 20.2006C12.7518 20.3506 12.8739 20.4727 13.0239 20.4727H14.1344C14.2843 20.4727 14.4065 20.3506 14.4065 20.2006C14.4065 20.0507 14.2843 19.9285 14.1344 19.9285Z" fill="white" stroke="white" stroke-width="0.1"/>
<path d="M7.47132 19.9285H6.36078C6.21083 19.9285 6.08867 20.0507 6.08867 20.2006C6.08867 20.3506 6.21083 20.4727 6.36078 20.4727H7.47132C7.62126 20.4727 7.74342 20.3506 7.74342 20.2006C7.74342 20.0507 7.62126 19.9285 7.47132 19.9285Z" fill="white" stroke="white" stroke-width="0.1"/>
<path d="M11.9137 19.9285H10.8032C10.6532 19.9285 10.5311 20.0507 10.5311 20.2006C10.5311 20.3506 10.6532 20.4727 10.8032 20.4727H11.9137C12.0636 20.4727 12.1858 20.3506 12.1858 20.2006C12.1858 20.0507 12.0636 19.9285 11.9137 19.9285Z" fill="white" stroke="white" stroke-width="0.1"/>
<path d="M16.3551 19.9285H15.2446C15.0946 19.9285 14.9725 20.0507 14.9725 20.2006C14.9725 20.3506 15.0946 20.4727 15.2446 20.4727H16.3551C16.5051 20.4727 16.6272 20.3506 16.6272 20.2006C16.6272 20.0507 16.5051 19.9285 16.3551 19.9285Z" fill="white" stroke="white" stroke-width="0.1"/>
<path d="M9.69202 19.9285H8.58148C8.43154 19.9285 8.30937 20.0507 8.30937 20.2006C8.30937 20.3506 8.43154 20.4727 8.58148 20.4727H9.69202C9.84197 20.4727 9.96413 20.3506 9.96413 20.2006C9.96413 20.0507 9.84197 19.9285 9.69202 19.9285Z" fill="white" stroke="white" stroke-width="0.1"/>
<path d="M19.9285 11.0138C19.9285 11.1637 20.0507 11.2859 20.2006 11.2859C20.3506 11.2859 20.4727 11.1637 20.4727 11.0138V9.90326C20.4727 9.75331 20.3506 9.63115 20.2006 9.63115C20.0507 9.63115 19.9285 9.75331 19.9285 9.90326V11.0138Z" fill="white" stroke="white" stroke-width="0.1"/>
<path d="M19.9285 15.4557C19.9285 15.6056 20.0507 15.7278 20.2006 15.7278C20.3506 15.7278 20.4727 15.6056 20.4727 15.4557V14.3452C20.4727 14.1952 20.3506 14.073 20.2006 14.073C20.0507 14.073 19.9285 14.1952 19.9285 14.3452V15.4557Z" fill="white" stroke="white" stroke-width="0.1"/>
<path d="M20.2006 9.06471C20.3506 9.06471 20.4727 8.94255 20.4727 8.79261V7.68207C20.4727 7.53212 20.3506 7.40996 20.2006 7.40996C20.0507 7.40996 19.9285 7.53212 19.9285 7.68207V8.79261C19.9285 8.94255 20.0507 9.06471 20.2006 9.06471Z" fill="white" stroke="white" stroke-width="0.1"/>
<path d="M19.9285 17.6769C19.9285 17.8268 20.0507 17.949 20.2006 17.949C20.3506 17.949 20.4727 17.8268 20.4727 17.6769V16.5663C20.4727 16.4164 20.3506 16.2942 20.2006 16.2942C20.0507 16.2942 19.9285 16.4164 19.9285 16.5663V17.6769Z" fill="white" stroke="white" stroke-width="0.1"/>
<path d="M19.9285 13.235C19.9285 13.3849 20.0507 13.5071 20.2006 13.5071C20.3506 13.5071 20.4727 13.3849 20.4727 13.235V12.1245C20.4727 11.9745 20.3506 11.8523 20.2006 11.8523C20.0507 11.8523 19.9285 11.9745 19.9285 12.1245V13.235Z" fill="white" stroke="white" stroke-width="0.1"/>
<path d="M18.6235 5.6489H19.9287V6.57408C19.9287 6.72403 20.0508 6.84619 20.2008 6.84619C20.3507 6.84619 20.4729 6.72403 20.4729 6.57408V5.6489H21.7781C21.9281 5.6489 22.0502 5.52674 22.0502 5.37679V5.37678L22.0494 2.22308C22.0494 2.22308 22.0494 2.22307 22.0494 2.22307C22.0493 2.07311 21.9271 1.95098 21.7772 1.95098H18.6235C18.4735 1.95098 18.3514 2.07314 18.3514 2.22308V5.37679C18.3514 5.52674 18.4735 5.6489 18.6235 5.6489ZM21.5051 5.10468H18.8956V2.49519H21.5051V5.10468Z" fill="white" stroke="white" stroke-width="0.1"/>
<path d="M5.64792 18.6235C5.64792 18.4738 5.52627 18.3519 5.37675 18.3514H5.37581H4.07153V17.4531C4.07153 17.3031 3.94937 17.181 3.79943 17.181C3.64948 17.181 3.52732 17.3031 3.52732 17.4531V18.3514H2.22211C2.07216 18.3514 1.95 18.4735 1.95 18.6235V21.7772C1.95 21.9271 2.07216 22.0493 2.22211 22.0493H5.37581C5.52576 22.0493 5.64792 21.9271 5.64792 21.7772V18.6235ZM5.10464 21.5051H2.49515V18.8956H5.10464V21.5051Z" fill="white" stroke="white" stroke-width="0.1"/>
<path d="M18.3515 18.6235V19.9287H17.4662C17.3163 19.9287 17.1941 20.0508 17.1941 20.2008C17.1941 20.3507 17.3163 20.4729 17.4662 20.4729H18.3515V21.7781C18.3515 21.9281 18.4737 22.0502 18.6236 22.0502H21.7773C21.9273 22.0502 22.0494 21.9281 22.0494 21.7781V18.6244C22.0494 18.4915 21.9535 18.3805 21.8273 18.3569V18.3514H21.7773H18.6236C18.4737 18.3514 18.3515 18.4735 18.3515 18.6235ZM21.5052 21.5051H18.8957V18.8956H21.5052V21.5051Z" fill="white" stroke="white" stroke-width="0.1"/>
<mask id="path-25-outside-1_237_22" maskUnits="userSpaceOnUse" x="7.30664" y="7.24365" width="9" height="9" fill="black">
<rect fill="white" x="7.30664" y="7.24365" width="9" height="9"/>
<path d="M13.7609 15.1228C13.8051 15.1671 13.8607 15.187 13.9188 15.187C13.9769 15.187 14.0324 15.1645 14.0767 15.1228L15.1803 14.0192C15.2228 13.9767 15.2445 13.9212 15.2445 13.8613C15.2445 13.8014 15.2202 13.7459 15.1803 13.7034L12.7598 11.2829L13.7506 10.2921C13.8061 10.2366 13.8286 10.1585 13.8104 10.083C13.7931 10.0075 13.7376 9.94764 13.6638 9.92334L8.59775 8.25494C8.51793 8.22804 8.43117 8.2506 8.37131 8.30786C8.31145 8.36773 8.29149 8.45449 8.31839 8.5343L9.9868 13.6004C10.0111 13.6732 10.071 13.7288 10.1464 13.747C10.2219 13.7643 10.3 13.7426 10.3555 13.6871L11.3463 12.6963L13.7669 15.1168L13.7609 15.1228ZM10.2913 13.1239L8.87453 8.81697L13.1814 10.2338L12.2887 11.1265C12.2461 11.169 12.2245 11.2246 12.2245 11.2844C12.2245 11.3443 12.2488 11.3998 12.2887 11.4423L14.7092 13.8629L13.9188 14.6533L11.4983 12.2327C11.454 12.1885 11.3985 12.1685 11.3404 12.1685C11.2822 12.1685 11.2267 12.1911 11.1825 12.2327L10.2897 13.1255L10.2913 13.1239Z"/>
</mask>
<path d="M13.7609 15.1228C13.8051 15.1671 13.8607 15.187 13.9188 15.187C13.9769 15.187 14.0324 15.1645 14.0767 15.1228L15.1803 14.0192C15.2228 13.9767 15.2445 13.9212 15.2445 13.8613C15.2445 13.8014 15.2202 13.7459 15.1803 13.7034L12.7598 11.2829L13.7506 10.2921C13.8061 10.2366 13.8286 10.1585 13.8104 10.083C13.7931 10.0075 13.7376 9.94764 13.6638 9.92334L8.59775 8.25494C8.51793 8.22804 8.43117 8.2506 8.37131 8.30786C8.31145 8.36773 8.29149 8.45449 8.31839 8.5343L9.9868 13.6004C10.0111 13.6732 10.071 13.7288 10.1464 13.747C10.2219 13.7643 10.3 13.7426 10.3555 13.6871L11.3463 12.6963L13.7669 15.1168L13.7609 15.1228ZM10.2913 13.1239L8.87453 8.81697L13.1814 10.2338L12.2887 11.1265C12.2461 11.169 12.2245 11.2246 12.2245 11.2844C12.2245 11.3443 12.2488 11.3998 12.2887 11.4423L14.7092 13.8629L13.9188 14.6533L11.4983 12.2327C11.454 12.1885 11.3985 12.1685 11.3404 12.1685C11.2822 12.1685 11.2267 12.1911 11.1825 12.2327L10.2897 13.1255L10.2913 13.1239Z" fill="white"/>
<path d="M13.7609 15.1228L13.6902 15.0521L13.6195 15.1228L13.6902 15.1935L13.7609 15.1228ZM14.0767 15.1228L14.1453 15.1957L14.1474 15.1935L14.0767 15.1228ZM15.1803 13.7034L15.2532 13.6349L15.251 13.6327L15.1803 13.7034ZM12.7598 11.2829L12.6891 11.2122L12.6183 11.2829L12.6891 11.3536L12.7598 11.2829ZM13.8104 10.083L13.713 10.1054L13.7132 10.1064L13.8104 10.083ZM13.6638 9.92334L13.6951 9.82836L13.6951 9.82836L13.6638 9.92334ZM8.59775 8.25494L8.56582 8.34971L8.56647 8.34992L8.59775 8.25494ZM8.37131 8.30786L8.30217 8.23558L8.3006 8.23715L8.37131 8.30786ZM8.31839 8.5343L8.41337 8.50302L8.41315 8.50237L8.31839 8.5343ZM9.9868 13.6004L9.89181 13.6316L9.89193 13.632L9.9868 13.6004ZM10.1464 13.747L10.123 13.8442L10.124 13.8444L10.1464 13.747ZM10.3555 13.6871L10.4262 13.7578L10.4262 13.7578L10.3555 13.6871ZM11.3463 12.6963L11.417 12.6256L11.3463 12.5549L11.2756 12.6256L11.3463 12.6963ZM13.7669 15.1168L13.8376 15.1875L13.9083 15.1168L13.8376 15.0461L13.7669 15.1168ZM10.2913 13.1239L10.3621 13.1945L10.4055 13.151L10.3863 13.0926L10.2913 13.1239ZM8.87453 8.81697L8.90578 8.72198L8.71765 8.66009L8.77954 8.84822L8.87453 8.81697ZM13.1814 10.2338L13.2521 10.3045L13.367 10.1896L13.2127 10.1388L13.1814 10.2338ZM12.2887 11.4423L12.2157 11.5108L12.2179 11.5131L12.2887 11.4423ZM14.7092 13.8629L14.7799 13.9336L14.8506 13.8629L14.7799 13.7922L14.7092 13.8629ZM13.9188 14.6533L13.8481 14.724L13.9188 14.7947L13.9895 14.724L13.9188 14.6533ZM11.4983 12.2327L11.569 12.162L11.569 12.162L11.4983 12.2327ZM11.1825 12.2327L11.1139 12.1599L11.1117 12.162L11.1825 12.2327ZM10.2897 13.1255L10.219 13.0548L10.3604 13.1962L10.2897 13.1255ZM13.6902 15.1935C13.7549 15.2582 13.8367 15.287 13.9188 15.287V15.087C13.8847 15.087 13.8554 15.0759 13.8316 15.0521L13.6902 15.1935ZM13.9188 15.287C14.0036 15.287 14.0833 15.2539 14.1452 15.1956L14.0081 15.05C13.9815 15.075 13.9502 15.087 13.9188 15.087V15.287ZM14.1474 15.1935L15.251 14.0899L15.1096 13.9485L14.006 15.0521L14.1474 15.1935ZM15.251 14.0899C15.3133 14.0276 15.3445 13.9462 15.3445 13.8613H15.1445C15.1445 13.8961 15.1323 13.9258 15.1096 13.9485L15.251 14.0899ZM15.3445 13.8613C15.3445 13.7737 15.3089 13.6943 15.2532 13.635L15.1074 13.7718C15.1315 13.7975 15.1445 13.8291 15.1445 13.8613H15.3445ZM15.251 13.6327L12.8305 11.2122L12.6891 11.3536L15.1096 13.7741L15.251 13.6327ZM12.8305 11.3536L13.8213 10.3628L13.6799 10.2214L12.6891 11.2122L12.8305 11.3536ZM13.8213 10.3628C13.9009 10.2832 13.9342 10.1696 13.9076 10.0595L13.7132 10.1064C13.7231 10.1473 13.7113 10.1899 13.6799 10.2214L13.8213 10.3628ZM13.9079 10.0606C13.8825 9.95026 13.8013 9.86336 13.6951 9.82836L13.6325 10.0183C13.6738 10.0319 13.7036 10.0648 13.713 10.1054L13.9079 10.0606ZM13.6951 9.82836L8.62903 8.15996L8.56647 8.34992L13.6325 10.0183L13.6951 9.82836ZM8.62968 8.16017C8.51208 8.12055 8.38694 8.15453 8.30219 8.2356L8.44044 8.38012C8.4754 8.34668 8.52378 8.33554 8.56582 8.3497L8.62968 8.16017ZM8.3006 8.23715C8.2137 8.32406 8.18468 8.45065 8.22363 8.56623L8.41315 8.50237C8.39831 8.45833 8.4092 8.4114 8.44202 8.37857L8.3006 8.23715ZM8.22341 8.56558L9.89181 13.6316L10.0818 13.5691L8.41337 8.50302L8.22341 8.56558ZM9.89193 13.632C9.92706 13.7374 10.0138 13.8178 10.123 13.8442L10.1699 13.6498C10.1281 13.6397 10.0951 13.6091 10.0817 13.5687L9.89193 13.632ZM10.124 13.8444C10.2326 13.8694 10.346 13.838 10.4262 13.7578L10.2848 13.6164C10.254 13.6472 10.2112 13.6593 10.1688 13.6495L10.124 13.8444ZM10.4262 13.7578L11.417 12.767L11.2756 12.6256L10.2848 13.6164L10.4262 13.7578ZM11.2756 12.767L13.6961 15.1876L13.8376 15.0461L11.417 12.6256L11.2756 12.767ZM13.6961 15.0461L13.6902 15.0521L13.8316 15.1935L13.8376 15.1875L13.6961 15.0461ZM10.3863 13.0926L8.96952 8.78572L8.77954 8.84822L10.1963 13.1551L10.3863 13.0926ZM8.84328 8.91196L13.1502 10.3288L13.2127 10.1388L8.90578 8.72198L8.84328 8.91196ZM13.1107 10.1631L12.2179 11.0558L12.3594 11.1972L13.2521 10.3045L13.1107 10.1631ZM12.2179 11.0558C12.1557 11.1181 12.1245 11.1995 12.1245 11.2844H12.3245C12.3245 11.2496 12.3366 11.22 12.3594 11.1972L12.2179 11.0558ZM12.1245 11.2844C12.1245 11.372 12.1601 11.4515 12.2157 11.5108L12.3616 11.3739C12.3374 11.3482 12.3245 11.3166 12.3245 11.2844H12.1245ZM12.2179 11.5131L14.6385 13.9336L14.7799 13.7922L12.3594 11.3716L12.2179 11.5131ZM14.6385 13.7922L13.8481 14.5826L13.9895 14.724L14.7799 13.9336L14.6385 13.7922ZM13.9895 14.5826L11.569 12.162L11.4276 12.3034L13.8481 14.724L13.9895 14.5826ZM11.569 12.162C11.5043 12.0973 11.4225 12.0685 11.3404 12.0685V12.2685C11.3745 12.2685 11.4038 12.2797 11.4276 12.3034L11.569 12.162ZM11.3404 12.0685C11.2555 12.0685 11.1758 12.1017 11.1139 12.1599L11.251 12.3056C11.2776 12.2805 11.3089 12.2685 11.3404 12.2685V12.0685ZM11.1117 12.162L10.219 13.0548L10.3604 13.1962L11.2532 12.3034L11.1117 12.162ZM10.3604 13.1962L10.3621 13.1945L10.2206 13.0532L10.219 13.0548L10.3604 13.1962Z" fill="white" mask="url(#path-25-outside-1_237_22)"/>
</svg>
