<svg width="25" height="25" viewBox="0 0 25 25" fill="none" xmlns="http://www.w3.org/2000/svg">
<path d="M20.713 9.95926H19.5032C19.5062 9.87724 19.5083 9.79325 19.5083 9.70927C19.5083 9.31671 19.4725 8.92317 19.4022 8.54231C19.3777 8.41145 19.2593 8.31673 19.1206 8.31673H18.2484C18.1086 7.78452 17.8893 7.27671 17.5924 6.8031L18.2096 6.21327C18.3076 6.11953 18.3219 5.97109 18.2413 5.86271C17.7699 5.21918 17.1895 4.66352 16.5182 4.21334C16.405 4.13717 16.251 4.14986 16.152 4.24361L15.5348 4.83442C15.0411 4.55122 14.5106 4.34126 13.9536 4.20651V3.37059C13.9536 3.23778 13.8536 3.1245 13.7179 3.10107C12.9202 2.96631 12.0765 2.96631 11.2808 3.10107C11.1441 3.12451 11.0451 3.23779 11.0451 3.37059V4.20651C10.4871 4.34127 9.95766 4.55122 9.46392 4.83442L8.84774 4.24458C8.74981 4.15084 8.59577 4.13814 8.48152 4.21431C7.80823 4.66645 7.22775 5.22111 6.75848 5.86368C6.67891 5.97208 6.69217 6.11953 6.7901 6.21425L7.40628 6.80408C7.11044 7.27671 6.89109 7.78452 6.75033 8.31771H5.87707C5.73833 8.31771 5.61897 8.41341 5.59552 8.54426C5.52615 8.92705 5.49044 9.31964 5.49044 9.71025C5.49044 9.79521 5.49248 9.87821 5.49554 9.96024H4.28565C4.12753 9.96024 4 10.0823 4 10.2337V20.4766C4 20.628 4.12752 20.75 4.28565 20.75H10.1985V22.4531H8.85805C8.69993 22.4531 8.5724 22.5752 8.5724 22.7266C8.5724 22.8779 8.69992 23 8.85805 23H16.1399C16.298 23 16.4256 22.8779 16.4256 22.7266C16.4256 22.5752 16.298 22.4531 16.1399 22.4531H14.7994V20.75H20.7123C20.8704 20.75 20.998 20.628 20.998 20.4766L21 10.2327C20.999 10.0813 20.8715 9.95924 20.7133 9.95924L20.713 9.95926ZM6.06367 9.70927C6.06367 9.42608 6.08408 9.14289 6.12386 8.8636H6.97874C7.11339 8.8636 7.23071 8.77278 7.25825 8.64681C7.39495 8.0267 7.64693 7.44372 8.00908 6.91346C8.08253 6.80507 8.06723 6.6625 7.97134 6.5707L7.36639 5.99162C7.72344 5.54046 8.14171 5.1391 8.61504 4.79636L9.21998 5.37544C9.31588 5.46723 9.46482 5.48188 9.57805 5.41157C10.132 5.06588 10.741 4.82369 11.3898 4.69284C11.5225 4.66648 11.6163 4.55417 11.6163 4.42528V3.605C12.1968 3.52786 12.8007 3.52786 13.3822 3.605V4.4243C13.3822 4.5532 13.4771 4.6655 13.6087 4.69187C14.2565 4.82272 14.8655 5.06393 15.4194 5.41059C15.5326 5.4809 15.6816 5.46626 15.7775 5.37544L16.3834 4.79636C16.8558 5.13815 17.274 5.53951 17.6321 5.99162L17.0271 6.56973C16.9313 6.66152 16.916 6.80409 16.9894 6.91249C17.3526 7.44567 17.6056 8.02866 17.7402 8.64584C17.7678 8.77278 17.8851 8.8636 18.0198 8.8636H18.8756C18.9154 9.14192 18.9358 9.42511 18.9358 9.70927C18.9358 9.79423 18.9338 9.87724 18.9307 9.95927H16.5528C16.5589 9.87528 16.5619 9.7913 16.5619 9.70927C16.5619 7.56579 14.7399 5.82065 12.4996 5.82065C10.2593 5.82065 8.43733 7.56474 8.43733 9.70927C8.43733 9.7913 8.44039 9.87528 8.44651 9.95927H6.06854C6.06446 9.87724 6.06367 9.79325 6.06367 9.70927ZM14.1851 9.95926C14.1872 9.87333 14.1892 9.79032 14.1892 9.70927C14.1892 9.67607 14.1882 9.64384 14.1882 9.61064H15.9888C15.9898 9.64384 15.9918 9.67607 15.9918 9.70927C15.9918 9.7913 15.9888 9.87528 15.9816 9.95926H14.1851ZM11.3858 9.95926C11.3827 9.87333 11.3817 9.79032 11.3817 9.70927C11.3817 9.67607 11.3827 9.64384 11.3827 9.61064H13.6158C13.6158 9.64384 13.6169 9.67607 13.6169 9.70927C13.6169 9.79032 13.6158 9.87333 13.6128 9.95926H11.3858ZM14.0574 8.16147C14.5237 8.10679 14.9868 8.02671 15.4459 7.92027C15.6744 8.26401 15.8396 8.64975 15.9243 9.06281H14.1666C14.1452 8.75129 14.1085 8.44859 14.0574 8.16147ZM13.5943 9.06379H11.4041C11.4255 8.75618 11.4612 8.47104 11.5091 8.21127C11.8519 8.23764 12.1947 8.25131 12.5354 8.25131C12.8547 8.25131 13.173 8.23959 13.4902 8.21615C13.5372 8.47495 13.5729 8.75815 13.5943 9.06379ZM13.9412 7.62341C13.8881 7.42225 13.8279 7.2328 13.7596 7.05703C13.678 6.84708 13.5872 6.66349 13.4892 6.50432C14.1003 6.67717 14.641 7.00626 15.0633 7.44277C14.6909 7.52089 14.3166 7.58142 13.9412 7.62341ZM13.3678 7.67517C12.7935 7.71325 12.214 7.71228 11.6326 7.67029C11.8652 6.83731 12.2161 6.36663 12.4997 6.36663C12.7843 6.36761 13.1363 6.83925 13.3678 7.67517ZM11.2398 7.05701C11.1725 7.23084 11.1123 7.41833 11.0603 7.61657C10.6879 7.5736 10.3156 7.51403 9.94116 7.43787C10.3625 7.00331 10.9021 6.67617 11.5101 6.5043C11.4122 6.66347 11.3214 6.84805 11.2398 7.05701ZM9.55556 7.91734C10.0187 8.01987 10.4819 8.09995 10.943 8.15463C10.892 8.44368 10.8542 8.74837 10.8328 9.06378H9.07506C9.16075 8.64874 9.32604 8.26205 9.55556 7.91734ZM9.01896 9.95927C9.01284 9.87529 9.00876 9.79131 9.00876 9.70928C9.00876 9.67608 9.0108 9.64385 9.01182 9.61065H10.8124C10.8124 9.64385 10.8113 9.67608 10.8113 9.70928C10.8113 9.79033 10.8124 9.87431 10.8154 9.95927H9.01896ZM13.8872 10.5061H13.8882H13.8892H16.2376H16.2386H16.2397H19.2012H19.2022H19.2032H20.4294L20.4274 18.9316H4.57226V10.5061H13.8872ZM14.2289 22.451H10.7707V20.7479H14.2289V22.451ZM4.57212 20.2011V19.4784H20.4273V20.2011H4.57212ZM7.52738 14.9122C7.41619 14.8058 7.41619 14.632 7.52738 14.5255L9.64521 12.4982C9.75641 12.3918 9.938 12.3918 10.0492 12.4982C10.1604 12.6047 10.1604 12.7785 10.0492 12.885L8.13337 14.7189L10.0492 16.5528C10.1604 16.6592 10.1604 16.8331 10.0492 16.9395C9.99309 16.9932 9.92066 17.0196 9.84721 17.0196C9.77376 17.0196 9.70133 16.9932 9.64522 16.9395L7.52738 14.9122ZM14.95 16.5528L16.8658 14.7189L14.95 12.885C14.8388 12.7785 14.8388 12.6047 14.95 12.4983C15.0612 12.3918 15.2428 12.3918 15.354 12.4983L17.4718 14.5255C17.583 14.632 17.583 14.8058 17.4718 14.9123L15.354 16.9395C15.2979 16.9933 15.2254 17.0196 15.152 17.0196C15.0785 17.0196 15.0061 16.9933 14.95 16.9395C14.8378 16.8331 14.8378 16.6593 14.95 16.5528ZM11.2113 16.8175L13.2648 12.3976C13.3291 12.2599 13.4974 12.1974 13.6423 12.2589C13.7861 12.3204 13.8514 12.4816 13.7871 12.6202L11.7336 17.0401C11.6867 17.1417 11.5816 17.2022 11.4724 17.2022C11.4337 17.2022 11.3939 17.1944 11.3561 17.1788C11.2123 17.1172 11.147 16.9551 11.2113 16.8175Z" fill="white"/>
</svg>
