<svg width="34" height="34" viewBox="0 0 34 34" fill="none" xmlns="http://www.w3.org/2000/svg">
<path fill-rule="evenodd" clip-rule="evenodd" d="M2 11.0138C2 11.0138 3.18136 10.8618 3.96893 11.575C4.45265 12.016 4.59572 12.7175 4.59572 12.7175L6.20425 19.1258L7.54163 13.8807C7.67175 13.3229 7.90612 12.6366 8.2781 12.1673C8.7516 11.5736 9.71359 11.5363 9.81578 11.5363C9.91797 11.5363 10.88 11.5736 11.3535 12.1673C11.7248 12.6339 11.9598 13.3229 12.0899 13.8807L13.4273 19.1258L15.0352 12.7175C15.0352 12.7175 15.1769 12.0153 15.6626 11.575C16.4502 10.8618 17.6309 11.0138 17.6309 11.0138L14.5514 22.99C14.5514 22.99 13.5363 23.0653 13.0281 22.7992C12.3604 22.4495 12.0429 22.1772 11.6382 20.5495L11.5967 20.3802C11.4495 19.7803 11.2233 18.8417 10.9951 17.8921L10.927 17.6066L10.8588 17.3219C10.5298 15.9514 10.2266 14.6893 10.1775 14.529C10.1285 14.3686 10.0781 14.0203 9.81646 14.0203C9.55484 14.0203 9.5017 14.379 9.45469 14.529C9.39951 14.7052 9.03638 16.2237 8.67053 17.749L8.6024 18.0352C8.41572 18.8184 8.22701 19.6017 8.03624 20.385L7.99537 20.5495C7.58659 22.1786 7.27115 22.4495 6.60349 22.7992C6.09524 23.0653 5.07944 22.99 5.07944 22.99L2 11.0138ZM20.5877 13.1425V13.569V20.6954C20.5816 22.1578 20.4303 22.482 19.7701 22.8192C19.2578 23.0805 18.4757 22.9817 18.4757 22.9817V14.9996C18.4757 14.5988 18.6119 14.3361 19.0997 14.1012C19.3927 13.9629 19.6659 13.8523 19.95 13.6927C20.2007 13.5603 20.4186 13.3723 20.5877 13.1425ZM21.4332 11.0539C21.4332 11.0539 23.0683 10.765 23.8824 11.528C24.4009 12.0167 24.9813 12.8951 24.9813 12.8951L26.412 15.0231C26.4802 15.1337 26.5715 15.2547 26.7166 15.2547C26.8617 15.2547 26.9523 15.1337 27.0211 15.0231L28.4518 12.8951C28.4518 12.8951 29.0323 12.0167 29.5514 11.528C30.3622 10.7678 32 11.0539 32 11.0539L28.1166 17.0206L31.9871 22.9692H31.9734C31.8126 22.9886 30.2702 23.1503 29.4997 22.4267C28.9805 21.9387 28.4491 21.1446 28.4491 21.1446L27.0184 19.0166C26.9503 18.9053 26.8583 18.7857 26.7139 18.7857C26.5694 18.7857 26.4788 18.9053 26.4093 19.0166L24.9786 21.1446C24.9786 21.1446 24.4758 21.9387 23.9567 22.4267C23.1453 23.1911 21.44 22.9672 21.44 22.9672L25.3138 17.0212L21.4332 11.0539ZM20.5713 11H20.5884C20.5884 11.8183 20.51 12.3035 20.0025 12.6816C19.7654 12.8577 19.506 13.0007 19.2312 13.1066C18.9527 13.2118 18.6963 13.3697 18.4757 13.5717C18.4757 12.0816 18.6998 11.5425 19.3 11.2219C19.6652 11.029 20.2586 11 20.4909 11H20.5713Z" fill="#0066FF"/>
</svg>
