<svg width="34" height="34" viewBox="0 0 34 34" fill="none" xmlns="http://www.w3.org/2000/svg">
<path d="M4.80606 8H29.4205C29.7911 7.99953 30.1581 8.07217 30.5006 8.21378C30.8431 8.35538 31.1543 8.56316 31.4163 8.82521C31.6784 9.08726 31.8861 9.39844 32.0277 9.74091C32.1693 10.0834 32.242 10.4504 32.2415 10.821V20.2145C32.242 20.5851 32.1693 20.9521 32.0277 21.2946C31.8861 21.6371 31.6784 21.9483 31.4163 22.2103C31.1543 22.4724 30.8431 22.6801 30.5006 22.8217C30.1581 22.9633 29.7911 23.036 29.4205 23.0355H20.5937L21.8073 26L16.4785 23.0331H4.82107C4.45047 23.0336 4.08342 22.9609 3.74094 22.8193C3.39847 22.6777 3.08729 22.47 2.82524 22.2079C2.56319 21.9459 2.35541 21.6347 2.21381 21.2922C2.0722 20.9497 1.99956 20.5827 2.00003 20.2121V10.821C1.99822 10.4513 2.06946 10.0848 2.20969 9.74266C2.34991 9.40051 2.55635 9.08944 2.81714 8.82731C3.07794 8.56518 3.38795 8.35715 3.72937 8.21518C4.07079 8.0732 4.4369 8.00008 4.80666 8H4.80606Z" fill="#0066FF"/>
<path d="M3.71996 10.5697C3.89163 10.3362 4.14972 10.2132 4.49425 10.1885C5.12088 10.1401 5.47741 10.4352 5.56384 11.0739C5.94518 13.6428 6.35893 15.8196 6.80509 17.6043L9.49708 12.4784C9.74317 12.0114 10.0505 11.7655 10.419 11.7407C10.9592 11.7041 11.2917 12.048 11.4274 12.7731C11.7347 14.4081 12.1278 15.797 12.5948 16.9746C12.9149 13.8535 13.4551 11.5999 14.2154 10.2138C14.3997 9.86983 14.6698 9.69757 15.0263 9.67356C15.3078 9.65028 15.587 9.73941 15.803 9.92145C15.913 10.0041 16.0039 10.1094 16.0697 10.2302C16.1355 10.3511 16.1745 10.4847 16.1841 10.6219C16.2015 10.826 16.1599 11.0308 16.0641 11.2119C15.5839 12.0972 15.1908 13.5846 14.8714 15.6494C14.5641 17.6535 14.4513 19.2147 14.5275 20.3311C14.5574 20.6101 14.5062 20.8919 14.3799 21.1426C14.2322 21.4133 14.0107 21.5627 13.728 21.5849C13.4087 21.6095 13.0768 21.4619 12.7575 21.1306C11.6123 19.9617 10.7067 18.2157 10.0409 15.8924C9.24059 17.4658 8.65057 18.6462 8.27083 19.4337C7.54516 20.8226 6.93054 21.5345 6.41435 21.5729C6.07943 21.5963 5.79732 21.3136 5.55123 20.7254C4.9246 19.1136 4.24856 16.0029 3.52309 11.3932C3.49674 11.2498 3.50065 11.1025 3.53455 10.9606C3.56845 10.8188 3.6316 10.6857 3.71996 10.5697ZM30.1368 12.5024C29.6939 11.7251 29.0426 11.2581 28.1675 11.0739C27.9505 11.0272 27.7293 11.0031 27.5073 11.0018C26.3272 11.0018 25.3687 11.6165 24.6184 12.8457C23.9793 13.8881 23.6465 15.0893 23.6581 16.312C23.6581 17.2587 23.8547 18.07 24.2481 18.7459C24.6904 19.5208 25.3423 19.9877 26.215 20.172C26.4333 20.2194 26.656 20.2439 26.8794 20.2452C28.0715 20.2452 29.03 19.6306 29.7677 18.4014C30.4059 17.3531 30.7385 16.1473 30.7281 14.9201C30.7389 13.9627 30.53 13.1626 30.1368 12.5024ZM28.5877 15.905C28.416 16.7159 28.1075 17.3186 27.6537 17.7243C27.2972 18.0436 26.9653 18.1787 26.658 18.1175C26.3627 18.0574 26.1178 17.7981 25.9329 17.3186C25.791 16.9624 25.7159 16.5831 25.7114 16.1998C25.7084 15.8985 25.7372 15.5977 25.7973 15.3024C25.9132 14.7757 26.1349 14.278 26.4491 13.8397C26.8548 13.2395 27.2846 12.9916 27.7276 13.0774C28.0223 13.1374 28.2678 13.3973 28.4526 13.8763C28.5945 14.2325 28.6696 14.6117 28.6741 14.9951C28.6778 15.3006 28.6488 15.6057 28.5877 15.905ZM22.4414 12.5024C21.9991 11.7275 21.3352 11.2605 20.4751 11.0763C20.257 11.0286 20.0345 11.0036 19.8113 11.0018C18.6312 11.0018 17.6721 11.6165 16.9224 12.8457C16.2833 13.8881 15.9505 15.0893 15.962 16.312C15.962 17.2587 16.1587 18.07 16.5521 18.7459C16.9944 19.5208 17.6457 19.9877 18.5184 20.172C18.7371 20.2195 18.9602 20.244 19.184 20.2452C20.3767 20.2452 21.3352 19.6306 22.0729 18.4014C22.7111 17.3531 23.0438 16.1473 23.0332 14.9201C23.0314 13.9627 22.8352 13.1626 22.4414 12.5024ZM20.8809 15.9074C20.7092 16.7183 20.4007 17.321 19.9469 17.7267C19.5904 18.046 19.2585 18.1811 18.9511 18.1199C18.6564 18.0598 18.4109 17.8005 18.2261 17.321C18.0842 16.9648 18.0091 16.5855 18.0046 16.2022C18.0016 15.9009 18.0304 15.6001 18.0904 15.3048C18.2066 14.7771 18.429 14.2786 18.7441 13.8397C19.1498 13.2395 19.5796 12.9916 20.0225 13.0774C20.3172 13.1374 20.5627 13.3973 20.7476 13.8763C20.8881 14.2327 20.9617 14.612 20.9649 14.9951C20.9745 15.3009 20.9455 15.6066 20.8785 15.905L20.8809 15.9074Z" fill="white"/>
</svg>
