<svg width="34" height="34" viewBox="0 0 34 34" fill="none" xmlns="http://www.w3.org/2000/svg">
<path d="M17 4C9.8208 4 4 9.8208 4 17C4 24.1792 9.8208 30 17 30C24.1792 30 30 24.1792 30 17C30 9.8208 24.1792 4 17 4ZM26.5067 11.8034C26.5532 12.1483 26.5786 12.5186 26.5786 12.9163C26.5786 14.0145 26.3734 15.2502 25.7555 16.7969L22.4463 26.3628C25.6667 24.486 27.8333 20.9948 27.8333 17C27.8333 15.1169 27.353 13.3459 26.5067 11.8034ZM17.1904 17.9479L13.9404 27.3932C14.9116 27.6789 15.9378 27.8354 17 27.8354C18.2611 27.8354 19.4714 27.6175 20.597 27.2218C20.5674 27.1753 20.542 27.1266 20.5187 27.0716L17.1904 17.9479ZM24.3125 16.4541C24.3125 15.1147 23.8322 14.188 23.4196 13.4665C22.8695 12.5736 22.3553 11.8182 22.3553 10.9253C22.3553 9.92871 23.1107 9.00195 24.175 9.00195C24.2236 9.00195 24.2681 9.0083 24.3146 9.01042C22.387 7.24365 19.8184 6.16667 17 6.16667C13.2147 6.16667 9.88639 8.10905 7.94824 11.0501C8.20215 11.0586 8.44124 11.0628 8.64648 11.0628C9.77848 11.0628 11.5347 10.9253 11.5347 10.9253C12.1187 10.8914 12.1864 11.7484 11.6045 11.8182C11.6045 11.8182 11.0184 11.8859 10.3646 11.9219L14.3086 23.6566L16.6805 16.5472L14.992 11.9219C14.408 11.888 13.8558 11.8182 13.8558 11.8182C13.2718 11.7843 13.3395 10.8914 13.9235 10.9253C13.9235 10.9253 15.7114 11.0628 16.7757 11.0628C17.9077 11.0628 19.6639 10.9253 19.6639 10.9253C20.2479 10.8914 20.3156 11.7484 19.7337 11.8182C19.7337 11.8182 19.1455 11.8859 18.4938 11.9219L22.4082 23.5656L23.5254 20.0236C24.0226 18.4769 24.3125 17.3809 24.3125 16.4541ZM6.16667 17C6.16667 21.2889 8.65918 24.9938 12.2731 26.75L7.104 12.5905C6.50309 13.9383 6.16667 15.4279 6.16667 17ZM17 4.78076C18.6504 4.78076 20.25 5.10449 21.7565 5.74137C22.4801 6.04818 23.1784 6.42692 23.8322 6.86702C24.4797 7.30501 25.089 7.80648 25.6413 8.35872C26.1935 8.91097 26.6971 9.52035 27.133 10.1678C27.5752 10.8216 27.9539 11.5199 28.2586 12.2435C28.8955 13.75 29.2192 15.3496 29.2192 17C29.2192 18.6504 28.8955 20.25 28.2586 21.7565C27.9518 22.4801 27.5731 23.1784 27.133 23.8322C26.695 24.4797 26.1935 25.089 25.6413 25.6413C25.089 26.1935 24.4797 26.6971 23.8322 27.133C23.1784 27.5752 22.4801 27.9539 21.7565 28.2586C20.25 28.8955 18.6504 29.2192 17 29.2192C15.3496 29.2192 13.75 28.8955 12.2435 28.2586C11.5199 27.9518 10.8216 27.5731 10.1678 27.133C9.52035 26.695 8.91097 26.1935 8.35872 25.6413C7.80648 25.089 7.3029 24.4797 6.86702 23.8322C6.4248 23.1784 6.04606 22.4801 5.74137 21.7565C5.10238 20.25 4.78076 18.6504 4.78076 17C4.78076 15.3496 5.10449 13.75 5.74137 12.2435C6.04818 11.5199 6.42692 10.8216 6.86702 10.1678C7.30501 9.52035 7.80648 8.91097 8.35872 8.35872C8.91097 7.80648 9.52035 7.3029 10.1678 6.86702C10.8216 6.4248 11.5199 6.04606 12.2435 5.74137C13.75 5.10238 15.3496 4.78076 17 4.78076Z" fill="#0066FF"/>
</svg>
