<svg width="34" height="34" viewBox="0 0 34 34" fill="none" xmlns="http://www.w3.org/2000/svg">
<path d="M9.17939 28.6084L8.00407 29.3097C7.79876 29.433 7.58037 29.4895 7.36749 29.4895C7.15048 29.4895 6.93966 29.431 6.75641 29.3256C6.57108 29.2222 6.41263 29.07 6.30171 28.884C6.19217 28.6986 6.1281 28.4837 6.1281 28.2453V22.7497C5.9662 22.6029 5.80774 22.4548 5.65549 22.3005C3.39578 20.0429 2 16.922 2 13.4773C2 10.0326 3.39647 6.91175 5.65549 4.65411C7.91313 2.39647 11.0319 1 14.4766 1C17.9234 1 21.0422 2.39647 23.2998 4.65411C24.0769 5.43123 24.7507 6.30824 25.3018 7.26517C25.5306 7.25759 25.749 7.3196 25.9267 7.44085C26.1258 7.57588 26.2726 7.78256 26.3311 8.04436C26.3332 8.05194 26.3332 8.06158 26.3352 8.07192C26.3408 8.10498 26.347 8.13805 26.3511 8.17319C26.4427 9.11083 26.595 10.2297 26.9036 11.241C27.2026 12.2234 27.6497 13.1039 28.329 13.6041C28.4069 13.6626 28.4365 13.6819 28.4641 13.7019C28.6514 13.8383 28.8354 13.9713 28.9897 14.1215C29.0324 14.0395 29.0855 13.963 29.1516 13.8989C29.3039 13.7446 29.5167 13.6509 29.751 13.6509H32.0865C32.3207 13.6509 32.5315 13.7446 32.6858 13.8989C32.8402 14.0532 32.9359 14.2661 32.9359 14.4983V22.7648C32.9359 22.9991 32.8402 23.2119 32.6858 23.3642C32.5315 23.5185 32.3207 23.6143 32.0865 23.6143H29.751C29.5167 23.6143 29.3039 23.5185 29.1516 23.3642C29.0889 23.3036 29.0366 23.2333 28.9973 23.1555L28.9876 23.1651C28.71 23.4427 28.3276 23.6143 27.906 23.6143H22.8286V28.2446C22.8286 28.483 22.7638 28.6979 22.655 28.8833C22.5433 29.0686 22.3856 29.2208 22.2003 29.3249C22.017 29.4303 21.8055 29.4888 21.5892 29.4888V29.4868C21.3742 29.4868 21.1558 29.4323 20.9526 29.309L19.7773 28.6077V30.7558C19.7773 30.9921 19.7125 31.2091 19.6037 31.3944C19.4921 31.5798 19.3343 31.732 19.149 31.836C18.9657 31.9414 18.7542 32 18.5379 32C18.325 32 18.1066 31.9435 17.9013 31.8202L14.8355 29.9883C14.7239 29.9222 14.6013 29.887 14.4801 29.887C14.3588 29.887 14.2375 29.9222 14.1266 29.9883L11.0609 31.8202C10.8556 31.9435 10.6372 32 10.4243 32C10.2073 32 9.99647 31.9414 9.81321 31.836C9.62789 31.7327 9.46943 31.5804 9.35851 31.3944C9.24897 31.2091 9.1849 30.9921 9.1849 30.7558V28.6084H9.17939ZM32.0851 14.2014H29.7496C29.6676 14.2014 29.5932 14.2344 29.5388 14.2896C29.4844 14.3426 29.4506 14.4184 29.4506 14.4983V22.7648C29.4506 22.8468 29.4837 22.9212 29.5388 22.9756C29.5932 23.0301 29.6676 23.0638 29.7496 23.0638H32.0851C32.1671 23.0638 32.2415 23.0308 32.2938 22.9756C32.3483 22.9212 32.382 22.8468 32.382 22.7648V14.4983C32.382 14.4184 32.349 14.3419 32.2938 14.2896C32.2415 14.2351 32.1671 14.2014 32.0851 14.2014ZM24.7342 7.3878C24.2243 6.53215 23.6112 5.74332 22.9099 5.04405C20.7521 2.8863 17.7697 1.55046 14.4752 1.55046C11.1828 1.55046 8.20041 2.8863 6.04267 5.04405C3.88493 7.20179 2.54908 10.1842 2.54908 13.4766C2.54908 16.7711 3.88493 19.7514 6.04267 21.9112C8.20041 24.069 11.1828 25.4028 14.4752 25.4028C16.963 25.4028 19.2716 24.6408 21.1813 23.3408C20.5255 22.9681 19.9784 22.2412 19.5568 21.347C18.0921 22.2943 16.3484 22.8427 14.4752 22.8427C11.8897 22.8427 9.54797 21.7941 7.85319 20.0987C6.15841 18.4053 5.10916 16.0642 5.10916 13.4766C5.10916 10.891 6.15772 8.54935 7.85319 6.85457C9.54797 5.15979 11.8897 4.11054 14.4752 4.11054C17.0629 4.11054 19.4046 5.1591 21.0993 6.85457C21.8627 7.61791 22.4958 8.51283 22.9602 9.50283C23.0897 8.55762 23.5568 7.76327 24.7342 7.3878ZM21.8048 23.5778C21.1703 24.0387 20.4903 24.441 19.7738 24.7786V27.9677L21.2309 28.8385C21.346 28.9067 21.4672 28.9384 21.5864 28.9384C21.7077 28.9384 21.8248 28.9053 21.9261 28.8488C22.0294 28.7903 22.1197 28.7041 22.1803 28.6008C22.2409 28.5009 22.276 28.3803 22.276 28.2453V23.615H22.1823C22.0528 23.6143 21.9281 23.6012 21.8048 23.5778ZM19.3343 20.8337C19.1373 20.3336 18.9747 19.7948 18.85 19.2458C18.6956 18.5603 18.5999 17.8589 18.5668 17.1989C18.5337 16.5327 18.5668 15.9044 18.6681 15.3746C18.8693 14.3336 19.3439 13.6406 20.1369 13.6502C20.6371 13.6557 20.965 13.6544 21.3418 13.6523C21.6505 13.6502 21.9784 13.6502 22.0549 13.6502H22.057C22.1603 13.6426 22.2581 13.6323 22.3539 13.6151C22.6467 13.5641 22.8809 13.4649 23.0332 13.3126C23.1717 13.1742 23.2461 12.9751 23.2323 12.7133C23.2281 12.6623 23.2226 12.6058 23.213 12.5452L23.182 12.375C23.1159 11.9961 23.047 11.6013 22.9967 11.2052C22.5923 9.68402 21.7917 8.32476 20.7101 7.24244C19.1145 5.64893 16.912 4.661 14.4766 4.661C12.0433 4.661 9.8387 5.64893 8.24519 7.24244C6.64962 8.83801 5.66376 11.0426 5.66376 13.4759C5.66376 15.9113 6.64962 18.1138 8.24519 19.7094C9.8387 21.305 12.0433 22.2908 14.4766 22.2908C16.2727 22.2922 17.942 21.7555 19.3343 20.8337ZM26.3766 11.4015C26.0542 10.3447 25.8964 9.19075 25.8006 8.22417C25.8006 8.21039 25.7986 8.19455 25.7944 8.18146C25.7924 8.17594 25.7924 8.16768 25.7903 8.16217C25.7648 8.04505 25.7007 7.95342 25.6146 7.89693C25.5264 7.8363 25.4135 7.80736 25.2901 7.81701L25.2839 7.81908C25.2646 7.82114 25.2412 7.82459 25.2116 7.83079V7.82872C23.0284 8.31098 23.4107 10.4963 23.7235 12.2813L23.7531 12.4529C23.7669 12.5307 23.7765 12.6092 23.7807 12.6871C23.8041 13.117 23.6711 13.4525 23.4211 13.7026C23.1847 13.941 22.8472 14.0891 22.4469 14.1593C22.3339 14.1786 22.2147 14.1924 22.0893 14.2007C22.0776 14.2007 22.0659 14.2027 22.0542 14.2027C21.5761 14.2027 21.4569 14.2027 21.3432 14.2027C20.9622 14.2048 20.6322 14.2069 20.1307 14.2007C19.6602 14.1952 19.357 14.7105 19.2089 15.48C19.1152 15.9685 19.0856 16.552 19.1152 17.1748C19.1462 17.8038 19.2385 18.4735 19.3867 19.1279C19.8475 21.1706 20.8375 23.0652 22.181 23.0652H27.9033C28.1726 23.0652 28.4172 22.9536 28.5943 22.7759C28.772 22.6002 28.8815 22.3542 28.8815 22.0849V15.1817C28.8815 14.6857 28.5281 14.4301 28.1396 14.1504C28.0769 14.1035 28.0149 14.0588 28.0011 14.0491C27.2123 13.4677 26.7066 12.4852 26.3766 11.4015ZM14.6048 16.6815L17.2213 18.0153C17.2234 18.0174 17.2268 18.0194 17.231 18.0208C17.3033 18.0539 17.3715 18.0635 17.4301 18.056C17.4693 18.0504 17.5079 18.0325 17.5396 18.0091C17.5727 17.9857 17.5982 17.9561 17.6175 17.9195C17.645 17.8631 17.6567 17.7907 17.645 17.7067V17.7025H17.643L17.2213 14.7443C17.2075 14.6506 17.2447 14.5624 17.3095 14.5017L19.43 12.3826C19.4907 12.322 19.5237 12.2579 19.5334 12.1952C19.5389 12.1539 19.5355 12.1132 19.5237 12.076C19.512 12.0388 19.4907 12.0037 19.4611 11.9747C19.4163 11.93 19.3515 11.8969 19.2675 11.8831H19.2654L16.3202 11.3692C16.2306 11.3554 16.1604 11.2989 16.1211 11.2224L14.7543 8.53901C14.7522 8.53281 14.7501 8.52937 14.7467 8.52317C14.717 8.46874 14.6785 8.42741 14.6351 8.39985C14.5882 8.37022 14.5338 8.35507 14.4752 8.35507C14.4187 8.35507 14.3636 8.37091 14.3168 8.39985C14.2699 8.43085 14.2272 8.47632 14.1955 8.53832H14.1976L12.8307 11.2217C12.788 11.3058 12.7074 11.3581 12.622 11.3698L9.68714 11.8817C9.68162 11.8838 9.67749 11.8838 9.67129 11.8838C9.59482 11.8996 9.53488 11.9306 9.49148 11.9734C9.46185 12.0023 9.4405 12.0381 9.42878 12.0746C9.41707 12.1118 9.41294 12.1525 9.41914 12.1938C9.42878 12.2565 9.46185 12.3206 9.52248 12.3812L11.6513 14.51C11.716 14.5727 11.7408 14.6602 11.7291 14.7422H11.7312L11.3096 17.7005C11.3075 17.706 11.3075 17.7122 11.3054 17.7177C11.2958 17.7955 11.3075 17.8624 11.3351 17.9168C11.3544 17.954 11.3798 17.9829 11.4129 18.0064C11.4439 18.0298 11.4832 18.0477 11.5225 18.0532C11.5852 18.0628 11.6575 18.0511 11.7312 18.0119L14.3519 16.676C14.4346 16.6388 14.5283 16.643 14.6048 16.6815ZM16.9712 18.5058L14.4752 17.2348L11.9813 18.5058C11.798 18.5995 11.61 18.625 11.4384 18.5995C11.3096 18.5782 11.1904 18.5293 11.0891 18.4549C10.9878 18.3825 10.9038 18.2847 10.8452 18.1676C10.7688 18.0174 10.7357 17.8396 10.7633 17.6419C10.7633 17.6364 10.7633 17.6323 10.7653 17.6261L11.1677 14.8021L9.13461 12.7711L9.13254 12.7691C8.98787 12.6244 8.90588 12.4529 8.87695 12.2806C8.85766 12.1518 8.8673 12.025 8.90657 11.9058C8.94584 11.7867 9.01198 11.6771 9.10361 11.5855C9.22279 11.4663 9.38469 11.3788 9.57828 11.343C9.58379 11.343 9.58999 11.3409 9.5962 11.3388L12.4022 10.8504L13.7071 8.28824H13.7091C13.787 8.13392 13.8965 8.0168 14.0233 7.93482C14.1583 7.8487 14.3126 7.80599 14.4766 7.80599H14.4787C14.6406 7.80599 14.797 7.8487 14.932 7.93482C15.0532 8.01129 15.1566 8.12014 15.2331 8.26482C15.2386 8.2724 15.2427 8.28066 15.2489 8.28824L16.5517 10.8504L19.3598 11.3388V11.3409C19.563 11.374 19.729 11.4622 19.8496 11.5848C19.9433 11.6764 20.0094 11.786 20.0487 11.9051C20.088 12.0243 20.0976 12.1511 20.0783 12.2799C20.0487 12.4515 19.9667 12.6237 19.8227 12.7684L19.8207 12.7705L17.7876 14.8014L18.19 17.6254C18.221 17.8265 18.1879 18.0119 18.1101 18.1662C18.0515 18.2833 17.9674 18.3811 17.8662 18.4535C17.7649 18.5279 17.6457 18.5768 17.5169 18.5982C17.3508 18.6236 17.169 18.6002 16.9912 18.5141C16.983 18.5113 16.9774 18.51 16.9712 18.5058ZM6.67787 23.2181V28.2446C6.67787 28.3797 6.713 28.5002 6.77363 28.6001C6.83426 28.7034 6.92382 28.7896 7.02578 28.8481C7.12912 28.9046 7.24624 28.9377 7.36749 28.9377C7.48668 28.9377 7.60793 28.9067 7.72298 28.8378L9.18008 27.967V24.7779C8.28102 24.357 7.44327 23.8313 6.67787 23.2181ZM9.73054 25.0204V30.7558C9.73054 30.8908 9.76567 31.0114 9.8263 31.1113C9.88693 31.2146 9.97649 31.2987 10.0784 31.3572C10.1818 31.4158 10.2989 31.4489 10.4202 31.4489C10.5393 31.4489 10.662 31.4179 10.7757 31.349L13.8414 29.5171C14.0405 29.3958 14.2596 29.3352 14.4759 29.3352C14.6943 29.3352 14.9113 29.3958 15.1125 29.5171L18.1783 31.349C18.2912 31.4172 18.4146 31.4489 18.5337 31.4489C18.655 31.4489 18.7721 31.4158 18.8734 31.3572C18.9767 31.2987 19.0649 31.2146 19.1276 31.1113C19.1882 31.0114 19.2234 30.8908 19.2234 30.7558V25.0204C17.7608 25.6218 16.1576 25.9539 14.4759 25.9539C12.7963 25.9539 11.1931 25.6218 9.73054 25.0204Z" fill="#0066FF" stroke="#0066FF" stroke-width="0.4"/>
</svg>
