<svg width="34" height="34" viewBox="0 0 34 34" fill="none" xmlns="http://www.w3.org/2000/svg">
<g clip-path="url(#clip0_4844_1276)">
<path d="M29.2862 1.12872C29.5672 1.35855 29.8264 1.6028 30.0831 1.85918C30.1325 1.90781 30.1819 1.95643 30.2328 2.00652C31.279 3.10397 31.5805 4.47974 31.5619 5.95043C31.527 7.12495 31.0497 8.21362 30.2823 9.09747C30.2316 9.16458 30.181 9.23169 30.1288 9.30083C29.8765 9.57652 29.5928 9.81336 29.2862 10.0272C29.2424 10.0272 29.1986 10.0272 29.1534 10.0272C29.1534 10.071 29.1534 10.1148 29.1534 10.16C29.1986 10.1662 29.2438 10.1725 29.2904 10.1789C30.691 10.5197 32.0756 11.9067 32.8019 13.097C32.8251 13.1358 32.8483 13.1746 32.8722 13.2147C32.8974 13.2567 32.9226 13.2986 32.9486 13.3419C33.6582 14.5455 34.0186 15.825 34.0257 17.2237C34.0263 17.2984 34.0269 17.3731 34.0275 17.4501C34.0285 17.6065 34.0291 17.763 34.0293 17.9194C34.0301 18.1588 34.0334 18.3981 34.0367 18.6375C34.0374 18.7902 34.0378 18.9428 34.0382 19.0955C34.0395 19.1668 34.0408 19.2381 34.0421 19.3116C34.0391 19.8055 34.0391 19.8055 33.841 20.0646C33.5461 20.275 33.3185 20.2634 32.9658 20.263C32.906 20.2632 32.8463 20.2634 32.7847 20.2636C32.5832 20.2642 32.3818 20.2643 32.1803 20.2644C32.0363 20.2647 31.8924 20.2651 31.7484 20.2654C31.3564 20.2663 30.9644 20.2667 30.5724 20.267C30.3277 20.2672 30.0829 20.2675 29.8382 20.2678C29.0729 20.2687 28.3076 20.2693 27.5423 20.2696C26.658 20.2699 25.7738 20.271 24.8895 20.273C24.2066 20.2744 23.5237 20.2751 22.8408 20.2752C22.4327 20.2752 22.0245 20.2756 21.6164 20.2768C21.2325 20.2779 20.8485 20.278 20.4646 20.2775C20.3236 20.2774 20.1827 20.2777 20.0417 20.2784C19.8493 20.2792 19.657 20.2788 19.4646 20.2781C19.4088 20.2787 19.3529 20.2792 19.2954 20.2797C18.9699 20.277 18.742 20.2388 18.462 20.0545C18.2733 19.7291 18.2338 19.4349 18.2387 19.0657C18.2385 18.9921 18.2385 18.9921 18.2384 18.9171C18.2385 18.7594 18.2401 18.6018 18.242 18.4441C18.2424 18.3904 18.2428 18.3367 18.2432 18.2813C18.2588 16.0417 18.6768 14.0089 20.1886 12.285C20.2318 12.2314 20.275 12.1778 20.3196 12.1226C20.9655 11.3484 21.8159 10.7699 22.7136 10.3252C22.9163 10.229 22.9163 10.229 23.1104 10.0936C23.0742 10.0669 23.038 10.0403 23.0007 10.0129C21.7307 9.05548 20.975 7.81328 20.7509 6.24122C20.5793 4.86472 20.9422 3.43349 21.7823 2.32403C23.6171 0.0799792 26.8343 -0.520946 29.2862 1.12872ZM23.1104 2.98809C22.44 3.85772 22.0856 4.88033 22.1808 5.97637C22.355 7.10269 22.8761 8.07857 23.7921 8.77529C24.7918 9.45223 25.8959 9.66603 27.0811 9.44999C27.2931 9.38945 27.4903 9.31793 27.6925 9.23028C27.7541 9.20366 27.8157 9.17703 27.8792 9.1496C28.9242 8.63751 29.5565 7.77433 29.9539 6.70321C30.2836 5.67605 30.0904 4.60471 29.6163 3.6613C29.4069 3.27067 29.1375 2.9631 28.8214 2.65606C28.7676 2.6002 28.7676 2.6002 28.7127 2.54322C28.0315 1.88951 27.0492 1.61131 26.1278 1.56866C24.9692 1.62486 23.8812 2.11923 23.1104 2.98809ZM21.8487 12.617C21.7921 12.6682 21.7356 12.7194 21.6773 12.7721C20.518 13.8726 19.873 15.3535 19.7237 16.9334C19.7237 17.547 19.7237 18.1606 19.7237 18.7928C23.9531 18.7928 28.1826 18.7928 32.5401 18.7928C32.5883 17.0793 32.5883 17.0793 32.2745 15.4725C32.2505 15.3964 32.2264 15.3203 32.2016 15.2419C31.6194 13.586 30.4317 12.3558 28.8878 11.5545C26.5505 10.472 23.7485 10.8772 21.8487 12.617Z" fill="#0066FF"/>
<path d="M11.3888 15.0574C12.4161 15.9775 13.1195 17.2303 13.228 18.6213C13.3115 20.2144 12.8723 21.5982 11.8292 22.8267C11.5464 23.1348 11.2248 23.3893 10.8912 23.6402C11.0777 23.7923 11.272 23.9016 11.4871 24.0086C13.324 24.9282 14.6257 26.5588 15.2948 28.4795C15.3101 28.5224 15.3254 28.5653 15.3412 28.6094C15.6613 29.5896 15.7066 30.6036 15.7021 31.6258C15.7015 31.8273 15.7035 32.0287 15.7056 32.2302C15.7057 32.3596 15.7056 32.489 15.7054 32.6185C15.7062 32.678 15.7069 32.7376 15.7077 32.799C15.7036 33.1634 15.6577 33.3835 15.4069 33.6675C15.151 33.8515 14.856 33.819 14.5544 33.8176C14.4645 33.818 14.4645 33.818 14.3728 33.8184C14.1716 33.8191 13.9704 33.8188 13.7692 33.8186C13.6251 33.8188 13.481 33.8192 13.3369 33.8196C12.9452 33.8205 12.5535 33.8205 12.1618 33.8203C11.835 33.8203 11.5082 33.8206 11.1815 33.8209C10.4107 33.8216 9.64 33.8217 8.86926 33.8213C8.07357 33.8209 7.27788 33.8217 6.48219 33.8231C5.79951 33.8243 5.11684 33.8247 4.43416 33.8245C4.02621 33.8243 3.61827 33.8245 3.21033 33.8254C2.82677 33.8263 2.44323 33.8261 2.05967 33.8253C1.91878 33.8251 1.77789 33.8253 1.637 33.8258C1.4449 33.8265 1.25284 33.826 1.06074 33.8252C1.00479 33.8257 0.94883 33.8261 0.89118 33.8266C0.584231 33.8238 0.381802 33.8013 0.133418 33.6011C-0.00879062 33.3878 -0.0163043 33.3308 -0.0176335 33.0852C-0.0182665 33.0209 -0.0188995 32.9565 -0.0195517 32.8902C-0.0194912 32.8205 -0.0194306 32.7508 -0.0193683 32.6789C-0.0196528 32.6066 -0.0199374 32.5342 -0.0202306 32.4596C-0.0206125 32.3058 -0.0206448 32.152 -0.0203572 31.9982C-0.02015 31.7664 -0.0216955 31.5346 -0.023389 31.3027C-0.0291648 29.2835 0.480126 27.4685 1.79357 25.898C1.83894 25.8418 1.88431 25.7857 1.93106 25.7278C2.68045 24.8429 3.71258 24.1415 4.78186 23.7066C4.61976 23.5377 4.44995 23.3842 4.27136 23.2334C3.42376 22.4914 2.92186 21.659 2.59045 20.5855C2.57478 20.5353 2.55912 20.4851 2.54298 20.4335C2.19393 19.1137 2.41397 17.6347 3.07189 16.4517C3.91357 15.0963 5.11378 14.2281 6.64694 13.8245C8.34829 13.4889 10.0617 13.9571 11.3888 15.0574ZM4.74787 16.5894C3.98838 17.5498 3.75049 18.5896 3.85217 19.7886C4.01804 20.6905 4.4749 21.4052 5.11389 22.0464C5.16782 22.1026 5.16782 22.1026 5.22283 22.16C5.88729 22.7943 6.86671 23.109 7.76599 23.1338C8.97364 23.1019 9.96244 22.6059 10.7999 21.7476C11.4262 20.9907 11.8131 19.9486 11.7729 18.9658C11.6589 17.8932 11.268 17.0233 10.4928 16.2691C10.4585 16.2326 10.4241 16.1961 10.3888 16.1586C9.66498 15.4518 8.64416 15.1817 7.6666 15.1866C6.51808 15.2151 5.50882 15.7338 4.74787 16.5894ZM3.18811 26.4956C3.13495 26.5481 3.08179 26.6006 3.02702 26.6546C1.50121 28.2437 1.39514 30.1758 1.39514 32.3394C5.62455 32.3394 9.85396 32.3394 14.2115 32.3394C14.2115 30.1762 14.0608 28.4213 12.6178 26.7613C12.5883 26.7223 12.5589 26.6834 12.5286 26.6432C11.6141 25.4584 10.0122 24.7658 8.56701 24.5698C8.31761 24.5515 8.06995 24.5476 7.81994 24.5491C7.7533 24.5495 7.68665 24.5498 7.61798 24.5502C5.89913 24.5781 4.3862 25.2837 3.18811 26.4956Z" fill="#0066FF"/>
<path d="M15.5437 2.61541C15.6429 2.71109 15.7411 2.80777 15.8385 2.90527C15.8908 2.95673 15.943 3.00819 15.9969 3.0612C16.1068 3.17002 16.2162 3.27928 16.3253 3.38894C16.4921 3.55598 16.661 3.72058 16.8302 3.88515C16.937 3.99141 17.0436 4.0978 17.15 4.20434C17.2258 4.27753 17.2258 4.27753 17.3031 4.35219C17.5725 4.62765 17.7391 4.84189 17.7486 5.23689C17.6861 5.70149 17.3168 6.01934 16.9993 6.3322C16.9548 6.37676 16.9103 6.42132 16.8644 6.46723C16.7707 6.56078 16.6768 6.65407 16.5826 6.74714C16.4389 6.8893 16.296 7.03233 16.1533 7.1755C16.0618 7.26661 15.9703 7.35766 15.8787 7.44865C15.8363 7.49119 15.7938 7.53374 15.75 7.57757C15.2394 8.08016 15.2394 8.08016 14.845 8.13035C14.5613 8.09551 14.4258 8.02136 14.21 7.83568C14.0877 7.63896 14.0774 7.5156 14.0731 7.28367C14.229 6.74229 14.7505 6.36442 15.1397 5.9763C14.8446 5.9713 14.5496 5.96772 14.2545 5.96536C14.1546 5.96437 14.0546 5.96302 13.9547 5.96127C12.5235 5.93691 11.2068 6.27348 10.1426 7.28782C9.27629 8.19536 8.83278 9.33447 8.79168 10.5812C8.74921 10.8589 8.63298 11.0352 8.41607 11.2099C8.18254 11.3108 8.02098 11.3158 7.76861 11.2888C7.53362 11.1791 7.44915 11.1084 7.30377 10.8904C7.17676 9.42086 7.58777 7.96044 8.51844 6.79895C8.72271 6.55812 8.94006 6.33252 9.16314 6.10911C9.21159 6.05989 9.26004 6.01067 9.30996 5.95996C10.5686 4.75977 12.273 4.41298 13.9485 4.39915C14.065 4.39728 14.1814 4.39529 14.2978 4.39319C14.5784 4.38836 14.8591 4.38502 15.1397 4.38255C15.1122 4.35578 15.0848 4.32901 15.0565 4.30142C14.9317 4.1794 14.8074 4.05686 14.6832 3.93431C14.6399 3.89219 14.5967 3.85008 14.5522 3.80668C14.4899 3.74505 14.4899 3.74505 14.4264 3.68217C14.3881 3.64461 14.3498 3.60706 14.3104 3.56836C14.1185 3.34766 14.0766 3.22267 14.0814 2.92576C14.1268 2.63889 14.2411 2.49984 14.4756 2.32396C14.8883 2.16106 15.2371 2.3388 15.5437 2.61541Z" fill="#0066FF"/>
<path d="M27.9563 22.0471C28.1572 22.1623 28.3161 22.3018 28.4211 22.5119C28.5419 24.1149 27.9595 25.6363 26.9202 26.8464C25.7588 28.1476 24.2294 28.7777 22.511 28.8869C22.1846 28.9025 21.8581 28.9139 21.5315 28.9243C21.4464 28.9271 21.3613 28.93 21.2737 28.9329C21.0663 28.9399 20.859 28.9467 20.6516 28.9533C20.7124 29.0125 20.7732 29.0718 20.8358 29.1328C20.9155 29.2113 20.9952 29.2898 21.075 29.3683C21.115 29.4073 21.1551 29.4462 21.1964 29.4864C21.2349 29.5245 21.2734 29.5626 21.3131 29.6018C21.3663 29.654 21.3663 29.654 21.4206 29.7072C21.5903 29.9041 21.6448 30.0507 21.6685 30.3105C21.6463 30.563 21.6018 30.6804 21.4485 30.8791C21.2449 31.0148 21.1735 31.0378 20.938 31.0493C20.8575 31.0555 20.8575 31.0555 20.7753 31.062C20.4635 30.9798 20.2818 30.7687 20.054 30.5471C20.0192 30.5133 19.9844 30.4796 19.9485 30.4448C19.6965 30.1998 19.4469 29.9524 19.1984 29.7038C19.0654 29.571 18.932 29.4387 18.7985 29.3065C18.7135 29.2217 18.6286 29.137 18.5437 29.0521C18.4841 28.9932 18.4841 28.9932 18.4232 28.9331C18.3864 28.896 18.3496 28.859 18.3116 28.8208C18.2793 28.7886 18.247 28.7564 18.2137 28.7232C18.0427 28.5194 17.9705 28.3437 17.9866 28.0773C18.0453 27.6647 18.3101 27.4416 18.6011 27.1645C18.6552 27.111 18.7093 27.0574 18.7651 27.0023C18.9376 26.8323 19.1118 26.6643 19.2861 26.4963C19.4032 26.3813 19.5201 26.2662 19.637 26.151C19.8504 25.9415 20.064 25.7323 20.2792 25.5246C20.3224 25.4829 20.3655 25.4412 20.41 25.3982C20.6071 25.2221 20.7805 25.2073 21.043 25.2125C21.3023 25.2534 21.4167 25.3698 21.5813 25.5666C21.6621 25.7739 21.6807 25.9441 21.6477 26.1642C21.4835 26.5145 21.1723 26.7754 20.9019 27.0444C20.8425 27.1036 20.7831 27.1628 20.7219 27.2238C20.6542 27.291 20.6542 27.291 20.5852 27.3596C20.8696 27.3646 21.154 27.3681 21.4384 27.3705C21.5347 27.3715 21.6309 27.3728 21.7272 27.3746C22.9998 27.3971 24.1439 27.1714 25.1672 26.3635C25.2193 26.3224 25.2713 26.2813 25.325 26.239C26.3221 25.4035 26.7218 24.2893 26.8938 23.0432C26.9863 22.4308 26.9863 22.4308 27.1594 22.2089C27.4129 22.0268 27.65 21.9948 27.9563 22.0471Z" fill="#0066FF"/>
</g>
<defs>
<clipPath id="clip0_4844_1276">
<rect width="34" height="34" fill="white"/>
</clipPath>
</defs>
</svg>
