<svg width="34" height="34" viewBox="0 0 34 34" fill="none" xmlns="http://www.w3.org/2000/svg">
<circle cx="16.9987" cy="8.49967" r="5.66667" stroke="#0066FF" stroke-width="1.5"/>
<path d="M25.5 12.7503C27.8472 12.7503 29.75 11.1647 29.75 9.20866C29.75 7.25265 27.8472 5.66699 25.5 5.66699" stroke="#0066FF" stroke-width="1.5" stroke-linecap="round"/>
<path d="M8.5 12.7503C6.15279 12.7503 4.25 11.1647 4.25 9.20866C4.25 7.25265 6.15279 5.66699 8.5 5.66699" stroke="#0066FF" stroke-width="1.5" stroke-linecap="round"/>
<ellipse cx="17" cy="24.0837" rx="8.5" ry="5.66667" stroke="#0066FF" stroke-width="1.5"/>
<path d="M28.332 26.9163C30.8172 26.3714 32.582 24.9912 32.582 23.3747C32.582 21.7582 30.8172 20.378 28.332 19.833" stroke="#0066FF" stroke-width="1.5" stroke-linecap="round"/>
<path d="M5.66797 26.9163C3.18279 26.3714 1.41797 24.9912 1.41797 23.3747C1.41797 21.7582 3.18279 20.378 5.66797 19.833" stroke="#0066FF" stroke-width="1.5" stroke-linecap="round"/>
</svg>
