<svg width="34" height="34" viewBox="0 0 34 34" fill="none" xmlns="http://www.w3.org/2000/svg">
<mask id="path-1-outside-1_4835_1306" maskUnits="userSpaceOnUse" x="0" y="5" width="34" height="23" fill="black">
<rect fill="white" y="5" width="34" height="23"/>
<path d="M32.8713 14.8864L28.0683 6.48591C27.9392 6.26095 27.7313 6.09907 27.4799 6.03323C27.2299 5.96601 26.9691 6.00168 26.7463 6.13199L24.2109 7.61071C23.9881 7.74102 23.8278 7.9509 23.7626 8.20466C23.696 8.45706 23.7313 8.72045 23.8604 8.94541L24.1729 9.48999C23.2789 10.1566 21.1539 9.82058 19.9434 9.42278C19.6961 9.34184 19.4774 9.36242 19.2749 9.39534L15.7139 9.9893C15.2547 10.0661 14.9041 10.2636 14.6351 10.5901L14.3049 10.9934C12.2941 10.9124 10.4897 9.86306 9.85665 9.45156L10.1447 8.94266C10.4123 8.47628 10.252 7.87821 9.79008 7.61207L7.25477 6.13335C7.03195 6.00304 6.77109 5.96874 6.52108 6.03459C6.27108 6.1018 6.06185 6.26229 5.93277 6.48727L1.1297 14.8794C0.862044 15.3458 1.02237 15.9438 1.48431 16.21L4.01961 17.6887C4.17315 17.7765 4.33619 17.819 4.49923 17.819C4.83346 17.819 5.15953 17.6434 5.33755 17.3307L5.43537 17.1688C5.75874 17.9836 6.12423 18.6009 6.73563 19.1496L6.64868 19.2374C6.3321 19.557 6.15411 19.985 6.15411 20.4417C6.15411 20.8985 6.32802 21.3265 6.64868 21.6461C7.17448 22.177 7.96386 22.2812 8.59293 21.9657C8.61739 22.3841 8.78722 22.7764 9.08343 23.0713C9.61876 23.6118 10.4258 23.7133 11.063 23.3731C11.0902 23.7696 11.2546 24.1564 11.5535 24.4582C11.8701 24.7778 12.294 24.9575 12.7464 24.9575C12.9869 24.9575 13.2233 24.9081 13.4353 24.8093C13.453 25.2236 13.616 25.631 13.9258 25.9465C14.256 26.2798 14.688 26.4458 15.1187 26.4458C15.5494 26.4458 15.9815 26.2812 16.3117 25.9465L17.0005 25.2593L19.5956 26.7723C19.8524 26.9232 20.1418 27 20.4339 27C20.5806 27 20.7301 26.9794 20.8755 26.9396C21.3102 26.8203 21.6757 26.5391 21.9012 26.1454C22.1064 25.7833 22.1689 25.38 22.0996 25C22.3917 25.0837 22.7042 25.0878 23.0072 25.0069C23.442 24.8875 23.8075 24.6063 24.033 24.2127C24.2382 23.8546 24.298 23.45 24.2341 23.0714C24.9651 23.2922 25.7816 22.9877 26.1784 22.2922C26.3835 21.9369 26.4433 21.5378 26.3794 21.1578C26.6824 21.2565 27.0085 21.2634 27.3251 21.1784C27.7599 21.059 28.1254 20.7778 28.3509 20.3841C28.5764 19.9904 28.6362 19.5309 28.518 19.092C28.4311 18.7655 28.2571 18.4815 28.0139 18.2634C28.23 17.9328 28.4039 17.5721 28.5628 17.1715L28.6566 17.3361C28.7857 17.5611 28.9935 17.723 29.2449 17.7888C29.3278 17.8094 29.412 17.8245 29.499 17.8245C29.6661 17.8245 29.8291 17.7792 29.9786 17.6942L32.5139 16.2154C32.9799 15.9507 33.1363 15.3529 32.8713 14.8864ZM4.77533 17.0044C4.68838 17.1553 4.4968 17.2074 4.34734 17.1196L1.81203 15.6409C1.66122 15.5531 1.60959 15.3611 1.69654 15.2102L6.49961 6.80962C6.54173 6.73555 6.60695 6.68342 6.69118 6.66147C6.77135 6.6409 6.8583 6.6505 6.9276 6.69302L9.4629 8.17174C9.61236 8.25953 9.66399 8.45294 9.57703 8.60384L4.77533 17.0044ZM8.57285 21.1801C8.1693 21.5875 7.51171 21.5875 7.1082 21.1801C6.91392 20.9839 6.80522 20.7205 6.80522 20.4421C6.80522 20.1609 6.91256 19.9016 7.1082 19.7041L9.27802 17.5134C9.47231 17.3172 9.73318 17.2075 10.009 17.2075C10.2875 17.2075 10.5443 17.3159 10.74 17.5134C10.9343 17.7095 11.043 17.9729 11.043 18.2514C11.043 18.5326 10.9356 18.7919 10.74 18.9894L8.57285 21.1801ZM11.0076 22.608C10.6041 23.0155 9.94646 23.0155 9.54296 22.608C9.34867 22.4119 9.23997 22.1485 9.23997 21.87C9.23997 21.5888 9.34731 21.3296 9.54296 21.132L12.2277 18.4215C12.6313 18.014 13.2889 18.014 13.6924 18.4215C14.0782 18.811 14.0918 19.4612 13.7236 19.8686L11.0076 22.608ZM13.4804 23.999C13.2861 24.1951 13.0252 24.3048 12.7494 24.3048C12.4709 24.3048 12.2141 24.1965 12.0184 23.999C11.6326 23.6094 11.619 22.9633 11.9872 22.5559L14.1923 20.3254C14.5959 19.9222 15.2494 19.9222 15.6529 20.3296C16.0564 20.7369 16.0564 21.3968 15.6529 21.8042L13.4804 23.999ZM15.8527 25.4887C15.4491 25.8961 14.7915 25.8961 14.388 25.4887C13.9845 25.0812 13.9845 24.4214 14.388 24.0141L16.1135 22.272C16.5171 21.8645 17.1747 21.8645 17.5741 22.272C17.9776 22.6794 17.9776 23.3433 17.5741 23.7507L15.8527 25.4887ZM27.7871 20.0593C27.6485 20.298 27.4257 20.4708 27.158 20.5435C26.8904 20.6176 26.6119 20.5792 26.3714 20.442L25.5575 19.9674C25.4013 19.8755 25.2029 19.929 25.1119 20.0867C25.0209 20.2445 25.0739 20.4448 25.2301 20.5367H25.2342C25.7288 20.8247 25.8945 21.4639 25.6092 21.9619C25.3239 22.4612 24.6907 22.6327 24.1975 22.3446L23.4149 21.8878H23.4108C23.2546 21.7959 23.0562 21.8494 22.9652 22.0071C22.8742 22.1649 22.9272 22.3651 23.0834 22.457H23.0875C23.582 22.7451 23.7478 23.3843 23.4625 23.8823C23.3239 24.121 23.101 24.2938 22.8334 24.3665C22.5657 24.4406 22.2872 24.4022 22.0467 24.265L21.275 23.8151C21.1187 23.7232 20.9204 23.7767 20.8294 23.9344C20.7383 24.0922 20.7913 24.2924 20.9476 24.3843C21.4421 24.6724 21.612 25.3116 21.3266 25.8096C21.188 26.0482 20.9652 26.2211 20.6975 26.2938C20.4299 26.3678 20.1514 26.3294 19.9109 26.1923L17.4653 24.767L18.0223 24.2046C18.6799 23.5407 18.6799 22.4597 18.0223 21.7958C17.6297 21.3994 17.0862 21.2376 16.5713 21.3185C16.6514 20.7986 16.4911 20.2512 16.0984 19.8534C15.699 19.4502 15.1419 19.291 14.6202 19.3788C14.6895 18.8699 14.5264 18.3363 14.1406 17.9467C13.824 17.6271 13.4001 17.4474 12.9477 17.4474C12.4952 17.4474 12.0713 17.623 11.7547 17.9467L11.6719 18.0304C11.627 17.6546 11.4599 17.3075 11.1922 17.0373C10.8757 16.7177 10.4518 16.538 9.99932 16.538C9.54687 16.538 9.12298 16.7136 8.8064 17.0373L7.18548 18.6738C6.53195 18.0977 6.19363 17.431 5.84581 16.4228L9.51567 10.007C10.1733 10.435 11.8281 11.3911 13.7807 11.601L12.0687 13.6901C11.922 13.8698 11.8704 14.1044 11.922 14.3472C11.9736 14.5749 12.1136 14.7587 12.3146 14.8698C13.0864 15.2882 14.9586 15.4981 16.589 13.3815L18.2588 13.3005L27.3961 18.6242C27.6325 18.7613 27.8037 18.9891 27.8757 19.2593C27.9613 19.535 27.926 19.8203 27.7874 20.059L27.7871 20.0593ZM27.4705 17.9071L18.5169 12.6877C18.4612 12.6562 18.4028 12.6425 18.3389 12.6452L16.4218 12.7371C16.324 12.7412 16.2343 12.7892 16.1746 12.8702C14.7873 14.7591 13.2534 14.6301 12.6365 14.2954C12.5985 14.2748 12.5808 14.2501 12.5699 14.2076C12.5563 14.1445 12.574 14.1239 12.5808 14.1157L15.1297 11.0005C15.2968 10.7975 15.5128 10.6809 15.8117 10.6315L19.3727 10.0376C19.5195 10.0129 19.6227 10.006 19.7314 10.0417C21.0004 10.46 23.2896 10.8702 24.4896 10.0526L28.1375 16.434C27.9392 17.0184 27.7382 17.4928 27.4705 17.9071ZM32.1905 15.6492L29.6552 17.1279C29.5818 17.1704 29.4989 17.18 29.4188 17.1595C29.3386 17.1389 29.2693 17.0854 29.2272 17.0113L24.4231 8.61079C24.381 8.53672 24.3714 8.45304 24.3918 8.37211C24.4122 8.29117 24.4652 8.22122 24.5386 8.1787L27.0739 6.69998C27.1228 6.67255 27.1744 6.65746 27.2301 6.65746C27.2573 6.65746 27.2858 6.66157 27.313 6.66843C27.3932 6.68901 27.4625 6.74251 27.5046 6.81658L32.3049 15.2171C32.3918 15.368 32.3399 15.5614 32.1905 15.6492Z"/>
</mask>
<path d="M32.8713 14.8864L28.0683 6.48591C27.9392 6.26095 27.7313 6.09907 27.4799 6.03323C27.2299 5.96601 26.9691 6.00168 26.7463 6.13199L24.2109 7.61071C23.9881 7.74102 23.8278 7.9509 23.7626 8.20466C23.696 8.45706 23.7313 8.72045 23.8604 8.94541L24.1729 9.48999C23.2789 10.1566 21.1539 9.82058 19.9434 9.42278C19.6961 9.34184 19.4774 9.36242 19.2749 9.39534L15.7139 9.9893C15.2547 10.0661 14.9041 10.2636 14.6351 10.5901L14.3049 10.9934C12.2941 10.9124 10.4897 9.86306 9.85665 9.45156L10.1447 8.94266C10.4123 8.47628 10.252 7.87821 9.79008 7.61207L7.25477 6.13335C7.03195 6.00304 6.77109 5.96874 6.52108 6.03459C6.27108 6.1018 6.06185 6.26229 5.93277 6.48727L1.1297 14.8794C0.862044 15.3458 1.02237 15.9438 1.48431 16.21L4.01961 17.6887C4.17315 17.7765 4.33619 17.819 4.49923 17.819C4.83346 17.819 5.15953 17.6434 5.33755 17.3307L5.43537 17.1688C5.75874 17.9836 6.12423 18.6009 6.73563 19.1496L6.64868 19.2374C6.3321 19.557 6.15411 19.985 6.15411 20.4417C6.15411 20.8985 6.32802 21.3265 6.64868 21.6461C7.17448 22.177 7.96386 22.2812 8.59293 21.9657C8.61739 22.3841 8.78722 22.7764 9.08343 23.0713C9.61876 23.6118 10.4258 23.7133 11.063 23.3731C11.0902 23.7696 11.2546 24.1564 11.5535 24.4582C11.8701 24.7778 12.294 24.9575 12.7464 24.9575C12.9869 24.9575 13.2233 24.9081 13.4353 24.8093C13.453 25.2236 13.616 25.631 13.9258 25.9465C14.256 26.2798 14.688 26.4458 15.1187 26.4458C15.5494 26.4458 15.9815 26.2812 16.3117 25.9465L17.0005 25.2593L19.5956 26.7723C19.8524 26.9232 20.1418 27 20.4339 27C20.5806 27 20.7301 26.9794 20.8755 26.9396C21.3102 26.8203 21.6757 26.5391 21.9012 26.1454C22.1064 25.7833 22.1689 25.38 22.0996 25C22.3917 25.0837 22.7042 25.0878 23.0072 25.0069C23.442 24.8875 23.8075 24.6063 24.033 24.2127C24.2382 23.8546 24.298 23.45 24.2341 23.0714C24.9651 23.2922 25.7816 22.9877 26.1784 22.2922C26.3835 21.9369 26.4433 21.5378 26.3794 21.1578C26.6824 21.2565 27.0085 21.2634 27.3251 21.1784C27.7599 21.059 28.1254 20.7778 28.3509 20.3841C28.5764 19.9904 28.6362 19.5309 28.518 19.092C28.4311 18.7655 28.2571 18.4815 28.0139 18.2634C28.23 17.9328 28.4039 17.5721 28.5628 17.1715L28.6566 17.3361C28.7857 17.5611 28.9935 17.723 29.2449 17.7888C29.3278 17.8094 29.412 17.8245 29.499 17.8245C29.6661 17.8245 29.8291 17.7792 29.9786 17.6942L32.5139 16.2154C32.9799 15.9507 33.1363 15.3529 32.8713 14.8864ZM4.77533 17.0044C4.68838 17.1553 4.4968 17.2074 4.34734 17.1196L1.81203 15.6409C1.66122 15.5531 1.60959 15.3611 1.69654 15.2102L6.49961 6.80962C6.54173 6.73555 6.60695 6.68342 6.69118 6.66147C6.77135 6.6409 6.8583 6.6505 6.9276 6.69302L9.4629 8.17174C9.61236 8.25953 9.66399 8.45294 9.57703 8.60384L4.77533 17.0044ZM8.57285 21.1801C8.1693 21.5875 7.51171 21.5875 7.1082 21.1801C6.91392 20.9839 6.80522 20.7205 6.80522 20.4421C6.80522 20.1609 6.91256 19.9016 7.1082 19.7041L9.27802 17.5134C9.47231 17.3172 9.73318 17.2075 10.009 17.2075C10.2875 17.2075 10.5443 17.3159 10.74 17.5134C10.9343 17.7095 11.043 17.9729 11.043 18.2514C11.043 18.5326 10.9356 18.7919 10.74 18.9894L8.57285 21.1801ZM11.0076 22.608C10.6041 23.0155 9.94646 23.0155 9.54296 22.608C9.34867 22.4119 9.23997 22.1485 9.23997 21.87C9.23997 21.5888 9.34731 21.3296 9.54296 21.132L12.2277 18.4215C12.6313 18.014 13.2889 18.014 13.6924 18.4215C14.0782 18.811 14.0918 19.4612 13.7236 19.8686L11.0076 22.608ZM13.4804 23.999C13.2861 24.1951 13.0252 24.3048 12.7494 24.3048C12.4709 24.3048 12.2141 24.1965 12.0184 23.999C11.6326 23.6094 11.619 22.9633 11.9872 22.5559L14.1923 20.3254C14.5959 19.9222 15.2494 19.9222 15.6529 20.3296C16.0564 20.7369 16.0564 21.3968 15.6529 21.8042L13.4804 23.999ZM15.8527 25.4887C15.4491 25.8961 14.7915 25.8961 14.388 25.4887C13.9845 25.0812 13.9845 24.4214 14.388 24.0141L16.1135 22.272C16.5171 21.8645 17.1747 21.8645 17.5741 22.272C17.9776 22.6794 17.9776 23.3433 17.5741 23.7507L15.8527 25.4887ZM27.7871 20.0593C27.6485 20.298 27.4257 20.4708 27.158 20.5435C26.8904 20.6176 26.6119 20.5792 26.3714 20.442L25.5575 19.9674C25.4013 19.8755 25.2029 19.929 25.1119 20.0867C25.0209 20.2445 25.0739 20.4448 25.2301 20.5367H25.2342C25.7288 20.8247 25.8945 21.4639 25.6092 21.9619C25.3239 22.4612 24.6907 22.6327 24.1975 22.3446L23.4149 21.8878H23.4108C23.2546 21.7959 23.0562 21.8494 22.9652 22.0071C22.8742 22.1649 22.9272 22.3651 23.0834 22.457H23.0875C23.582 22.7451 23.7478 23.3843 23.4625 23.8823C23.3239 24.121 23.101 24.2938 22.8334 24.3665C22.5657 24.4406 22.2872 24.4022 22.0467 24.265L21.275 23.8151C21.1187 23.7232 20.9204 23.7767 20.8294 23.9344C20.7383 24.0922 20.7913 24.2924 20.9476 24.3843C21.4421 24.6724 21.612 25.3116 21.3266 25.8096C21.188 26.0482 20.9652 26.2211 20.6975 26.2938C20.4299 26.3678 20.1514 26.3294 19.9109 26.1923L17.4653 24.767L18.0223 24.2046C18.6799 23.5407 18.6799 22.4597 18.0223 21.7958C17.6297 21.3994 17.0862 21.2376 16.5713 21.3185C16.6514 20.7986 16.4911 20.2512 16.0984 19.8534C15.699 19.4502 15.1419 19.291 14.6202 19.3788C14.6895 18.8699 14.5264 18.3363 14.1406 17.9467C13.824 17.6271 13.4001 17.4474 12.9477 17.4474C12.4952 17.4474 12.0713 17.623 11.7547 17.9467L11.6719 18.0304C11.627 17.6546 11.4599 17.3075 11.1922 17.0373C10.8757 16.7177 10.4518 16.538 9.99932 16.538C9.54687 16.538 9.12298 16.7136 8.8064 17.0373L7.18548 18.6738C6.53195 18.0977 6.19363 17.431 5.84581 16.4228L9.51567 10.007C10.1733 10.435 11.8281 11.3911 13.7807 11.601L12.0687 13.6901C11.922 13.8698 11.8704 14.1044 11.922 14.3472C11.9736 14.5749 12.1136 14.7587 12.3146 14.8698C13.0864 15.2882 14.9586 15.4981 16.589 13.3815L18.2588 13.3005L27.3961 18.6242C27.6325 18.7613 27.8037 18.9891 27.8757 19.2593C27.9613 19.535 27.926 19.8203 27.7874 20.059L27.7871 20.0593ZM27.4705 17.9071L18.5169 12.6877C18.4612 12.6562 18.4028 12.6425 18.3389 12.6452L16.4218 12.7371C16.324 12.7412 16.2343 12.7892 16.1746 12.8702C14.7873 14.7591 13.2534 14.6301 12.6365 14.2954C12.5985 14.2748 12.5808 14.2501 12.5699 14.2076C12.5563 14.1445 12.574 14.1239 12.5808 14.1157L15.1297 11.0005C15.2968 10.7975 15.5128 10.6809 15.8117 10.6315L19.3727 10.0376C19.5195 10.0129 19.6227 10.006 19.7314 10.0417C21.0004 10.46 23.2896 10.8702 24.4896 10.0526L28.1375 16.434C27.9392 17.0184 27.7382 17.4928 27.4705 17.9071ZM32.1905 15.6492L29.6552 17.1279C29.5818 17.1704 29.4989 17.18 29.4188 17.1595C29.3386 17.1389 29.2693 17.0854 29.2272 17.0113L24.4231 8.61079C24.381 8.53672 24.3714 8.45304 24.3918 8.37211C24.4122 8.29117 24.4652 8.22122 24.5386 8.1787L27.0739 6.69998C27.1228 6.67255 27.1744 6.65746 27.2301 6.65746C27.2573 6.65746 27.2858 6.66157 27.313 6.66843C27.3932 6.68901 27.4625 6.74251 27.5046 6.81658L32.3049 15.2171C32.3918 15.368 32.3399 15.5614 32.1905 15.6492Z" fill="#0066FF"/>
<path d="M32.8713 14.8864L28.0683 6.48591C27.9392 6.26095 27.7313 6.09907 27.4799 6.03323C27.2299 5.96601 26.9691 6.00168 26.7463 6.13199L24.2109 7.61071C23.9881 7.74102 23.8278 7.9509 23.7626 8.20466C23.696 8.45706 23.7313 8.72045 23.8604 8.94541L24.1729 9.48999C23.2789 10.1566 21.1539 9.82058 19.9434 9.42278C19.6961 9.34184 19.4774 9.36242 19.2749 9.39534L15.7139 9.9893C15.2547 10.0661 14.9041 10.2636 14.6351 10.5901L14.3049 10.9934C12.2941 10.9124 10.4897 9.86306 9.85665 9.45156L10.1447 8.94266C10.4123 8.47628 10.252 7.87821 9.79008 7.61207L7.25477 6.13335C7.03195 6.00304 6.77109 5.96874 6.52108 6.03459C6.27108 6.1018 6.06185 6.26229 5.93277 6.48727L1.1297 14.8794C0.862044 15.3458 1.02237 15.9438 1.48431 16.21L4.01961 17.6887C4.17315 17.7765 4.33619 17.819 4.49923 17.819C4.83346 17.819 5.15953 17.6434 5.33755 17.3307L5.43537 17.1688C5.75874 17.9836 6.12423 18.6009 6.73563 19.1496L6.64868 19.2374C6.3321 19.557 6.15411 19.985 6.15411 20.4417C6.15411 20.8985 6.32802 21.3265 6.64868 21.6461C7.17448 22.177 7.96386 22.2812 8.59293 21.9657C8.61739 22.3841 8.78722 22.7764 9.08343 23.0713C9.61876 23.6118 10.4258 23.7133 11.063 23.3731C11.0902 23.7696 11.2546 24.1564 11.5535 24.4582C11.8701 24.7778 12.294 24.9575 12.7464 24.9575C12.9869 24.9575 13.2233 24.9081 13.4353 24.8093C13.453 25.2236 13.616 25.631 13.9258 25.9465C14.256 26.2798 14.688 26.4458 15.1187 26.4458C15.5494 26.4458 15.9815 26.2812 16.3117 25.9465L17.0005 25.2593L19.5956 26.7723C19.8524 26.9232 20.1418 27 20.4339 27C20.5806 27 20.7301 26.9794 20.8755 26.9396C21.3102 26.8203 21.6757 26.5391 21.9012 26.1454C22.1064 25.7833 22.1689 25.38 22.0996 25C22.3917 25.0837 22.7042 25.0878 23.0072 25.0069C23.442 24.8875 23.8075 24.6063 24.033 24.2127C24.2382 23.8546 24.298 23.45 24.2341 23.0714C24.9651 23.2922 25.7816 22.9877 26.1784 22.2922C26.3835 21.9369 26.4433 21.5378 26.3794 21.1578C26.6824 21.2565 27.0085 21.2634 27.3251 21.1784C27.7599 21.059 28.1254 20.7778 28.3509 20.3841C28.5764 19.9904 28.6362 19.5309 28.518 19.092C28.4311 18.7655 28.2571 18.4815 28.0139 18.2634C28.23 17.9328 28.4039 17.5721 28.5628 17.1715L28.6566 17.3361C28.7857 17.5611 28.9935 17.723 29.2449 17.7888C29.3278 17.8094 29.412 17.8245 29.499 17.8245C29.6661 17.8245 29.8291 17.7792 29.9786 17.6942L32.5139 16.2154C32.9799 15.9507 33.1363 15.3529 32.8713 14.8864ZM4.77533 17.0044C4.68838 17.1553 4.4968 17.2074 4.34734 17.1196L1.81203 15.6409C1.66122 15.5531 1.60959 15.3611 1.69654 15.2102L6.49961 6.80962C6.54173 6.73555 6.60695 6.68342 6.69118 6.66147C6.77135 6.6409 6.8583 6.6505 6.9276 6.69302L9.4629 8.17174C9.61236 8.25953 9.66399 8.45294 9.57703 8.60384L4.77533 17.0044ZM8.57285 21.1801C8.1693 21.5875 7.51171 21.5875 7.1082 21.1801C6.91392 20.9839 6.80522 20.7205 6.80522 20.4421C6.80522 20.1609 6.91256 19.9016 7.1082 19.7041L9.27802 17.5134C9.47231 17.3172 9.73318 17.2075 10.009 17.2075C10.2875 17.2075 10.5443 17.3159 10.74 17.5134C10.9343 17.7095 11.043 17.9729 11.043 18.2514C11.043 18.5326 10.9356 18.7919 10.74 18.9894L8.57285 21.1801ZM11.0076 22.608C10.6041 23.0155 9.94646 23.0155 9.54296 22.608C9.34867 22.4119 9.23997 22.1485 9.23997 21.87C9.23997 21.5888 9.34731 21.3296 9.54296 21.132L12.2277 18.4215C12.6313 18.014 13.2889 18.014 13.6924 18.4215C14.0782 18.811 14.0918 19.4612 13.7236 19.8686L11.0076 22.608ZM13.4804 23.999C13.2861 24.1951 13.0252 24.3048 12.7494 24.3048C12.4709 24.3048 12.2141 24.1965 12.0184 23.999C11.6326 23.6094 11.619 22.9633 11.9872 22.5559L14.1923 20.3254C14.5959 19.9222 15.2494 19.9222 15.6529 20.3296C16.0564 20.7369 16.0564 21.3968 15.6529 21.8042L13.4804 23.999ZM15.8527 25.4887C15.4491 25.8961 14.7915 25.8961 14.388 25.4887C13.9845 25.0812 13.9845 24.4214 14.388 24.0141L16.1135 22.272C16.5171 21.8645 17.1747 21.8645 17.5741 22.272C17.9776 22.6794 17.9776 23.3433 17.5741 23.7507L15.8527 25.4887ZM27.7871 20.0593C27.6485 20.298 27.4257 20.4708 27.158 20.5435C26.8904 20.6176 26.6119 20.5792 26.3714 20.442L25.5575 19.9674C25.4013 19.8755 25.2029 19.929 25.1119 20.0867C25.0209 20.2445 25.0739 20.4448 25.2301 20.5367H25.2342C25.7288 20.8247 25.8945 21.4639 25.6092 21.9619C25.3239 22.4612 24.6907 22.6327 24.1975 22.3446L23.4149 21.8878H23.4108C23.2546 21.7959 23.0562 21.8494 22.9652 22.0071C22.8742 22.1649 22.9272 22.3651 23.0834 22.457H23.0875C23.582 22.7451 23.7478 23.3843 23.4625 23.8823C23.3239 24.121 23.101 24.2938 22.8334 24.3665C22.5657 24.4406 22.2872 24.4022 22.0467 24.265L21.275 23.8151C21.1187 23.7232 20.9204 23.7767 20.8294 23.9344C20.7383 24.0922 20.7913 24.2924 20.9476 24.3843C21.4421 24.6724 21.612 25.3116 21.3266 25.8096C21.188 26.0482 20.9652 26.2211 20.6975 26.2938C20.4299 26.3678 20.1514 26.3294 19.9109 26.1923L17.4653 24.767L18.0223 24.2046C18.6799 23.5407 18.6799 22.4597 18.0223 21.7958C17.6297 21.3994 17.0862 21.2376 16.5713 21.3185C16.6514 20.7986 16.4911 20.2512 16.0984 19.8534C15.699 19.4502 15.1419 19.291 14.6202 19.3788C14.6895 18.8699 14.5264 18.3363 14.1406 17.9467C13.824 17.6271 13.4001 17.4474 12.9477 17.4474C12.4952 17.4474 12.0713 17.623 11.7547 17.9467L11.6719 18.0304C11.627 17.6546 11.4599 17.3075 11.1922 17.0373C10.8757 16.7177 10.4518 16.538 9.99932 16.538C9.54687 16.538 9.12298 16.7136 8.8064 17.0373L7.18548 18.6738C6.53195 18.0977 6.19363 17.431 5.84581 16.4228L9.51567 10.007C10.1733 10.435 11.8281 11.3911 13.7807 11.601L12.0687 13.6901C11.922 13.8698 11.8704 14.1044 11.922 14.3472C11.9736 14.5749 12.1136 14.7587 12.3146 14.8698C13.0864 15.2882 14.9586 15.4981 16.589 13.3815L18.2588 13.3005L27.3961 18.6242C27.6325 18.7613 27.8037 18.9891 27.8757 19.2593C27.9613 19.535 27.926 19.8203 27.7874 20.059L27.7871 20.0593ZM27.4705 17.9071L18.5169 12.6877C18.4612 12.6562 18.4028 12.6425 18.3389 12.6452L16.4218 12.7371C16.324 12.7412 16.2343 12.7892 16.1746 12.8702C14.7873 14.7591 13.2534 14.6301 12.6365 14.2954C12.5985 14.2748 12.5808 14.2501 12.5699 14.2076C12.5563 14.1445 12.574 14.1239 12.5808 14.1157L15.1297 11.0005C15.2968 10.7975 15.5128 10.6809 15.8117 10.6315L19.3727 10.0376C19.5195 10.0129 19.6227 10.006 19.7314 10.0417C21.0004 10.46 23.2896 10.8702 24.4896 10.0526L28.1375 16.434C27.9392 17.0184 27.7382 17.4928 27.4705 17.9071ZM32.1905 15.6492L29.6552 17.1279C29.5818 17.1704 29.4989 17.18 29.4188 17.1595C29.3386 17.1389 29.2693 17.0854 29.2272 17.0113L24.4231 8.61079C24.381 8.53672 24.3714 8.45304 24.3918 8.37211C24.4122 8.29117 24.4652 8.22122 24.5386 8.1787L27.0739 6.69998C27.1228 6.67255 27.1744 6.65746 27.2301 6.65746C27.2573 6.65746 27.2858 6.66157 27.313 6.66843C27.3932 6.68901 27.4625 6.74251 27.5046 6.81658L32.3049 15.2171C32.3918 15.368 32.3399 15.5614 32.1905 15.6492Z" stroke="#0066FF" stroke-width="0.6" mask="url(#path-1-outside-1_4835_1306)"/>
</svg>
