<svg width="34" height="34" viewBox="0 0 34 34" fill="none" xmlns="http://www.w3.org/2000/svg">
<mask id="path-1-outside-1_4844_1285" maskUnits="userSpaceOnUse" x="1" y="1" width="32" height="32" fill="black">
<rect fill="white" x="1" y="1" width="32" height="32"/>
<path fill-rule="evenodd" clip-rule="evenodd" d="M23.6099 26.5333C23.5671 26.5025 23.5308 26.4636 23.5033 26.4189C23.4757 26.3743 23.4574 26.3247 23.4493 26.2731C23.4412 26.2214 23.4435 26.1688 23.4561 26.118C23.4687 26.0673 23.4914 26.0195 23.5228 25.9773C23.5542 25.9352 23.5937 25.8996 23.6391 25.8725C23.6845 25.8454 23.7349 25.8273 23.7874 25.8193C23.8399 25.8114 23.8934 25.8137 23.945 25.8261C23.9966 25.8385 24.0452 25.8608 24.0881 25.8917L25.4948 26.9067L28.1019 24.3423C28.1382 24.3002 28.1831 24.266 28.2336 24.2418C28.2841 24.2176 28.3392 24.204 28.3953 24.2018C28.4514 24.1996 28.5074 24.2088 28.5597 24.2289C28.6121 24.2491 28.6596 24.2796 28.6993 24.3187C28.739 24.3578 28.77 24.4045 28.7905 24.456C28.8109 24.5075 28.8203 24.5626 28.818 24.6178C28.8157 24.673 28.8018 24.7271 28.7772 24.7768C28.7525 24.8265 28.7177 24.8706 28.6749 24.9063L25.8228 27.7117C25.7546 27.7789 25.6641 27.8198 25.5678 27.8271C25.4715 27.8343 25.3758 27.8075 25.2979 27.7513L23.6099 26.5333ZM15.828 14.4117C15.5632 14.1514 15.2148 13.9895 14.8422 13.9536C14.4696 13.9176 14.0959 14.0099 13.7847 14.2146C13.4735 14.4193 13.2441 14.7238 13.1355 15.0762C13.027 15.4286 13.0461 15.8072 13.1895 16.1473C13.3329 16.4875 13.5918 16.7682 13.922 16.9417C14.2523 17.1151 14.6334 17.1706 15.0006 17.0986C15.3677 17.0266 15.6981 16.8316 15.9355 16.5469C16.1729 16.2621 16.3026 15.9052 16.3024 15.537C16.3026 15.3279 16.2608 15.1209 16.1794 14.9278C16.098 14.7347 15.9785 14.5593 15.828 14.4117ZM14.6839 13.148C15.2457 13.1479 15.7902 13.3394 16.2246 13.6899C16.659 14.0404 16.9563 14.5282 17.0661 15.0702C17.1758 15.6122 17.091 16.1748 16.8263 16.6623C16.5615 17.1497 16.1331 17.5317 15.6141 17.7433C15.0951 17.9549 14.5175 17.9829 13.9799 17.8226C13.4422 17.6623 12.9777 17.3236 12.6654 16.8642C12.3532 16.4047 12.2126 15.853 12.2675 15.3031C12.3225 14.7531 12.5696 14.2389 12.9668 13.848C13.192 13.6258 13.4597 13.4497 13.7543 13.3295C14.049 13.2094 14.3649 13.1477 14.6839 13.148ZM10.38 22.1837C11.5954 23.16 13.1164 23.6933 14.6856 23.6933C16.2548 23.6933 17.7758 23.16 18.9912 22.1837C18.6035 21.3836 17.9934 20.7078 17.2314 20.2348C16.4694 19.7617 15.5867 19.5106 14.6856 19.5106C13.7845 19.5106 12.9019 19.7617 12.1399 20.2348C11.3779 20.7078 10.7677 21.3836 10.38 22.1837ZM19.4961 12.2667C20.7531 13.503 21.4684 15.174 21.489 16.9224C21.5097 18.6707 20.834 20.3576 19.6066 21.6223C19.1314 20.744 18.4222 20.0094 17.5551 19.4971C16.6879 18.9848 15.6954 18.7142 14.6839 18.7142C13.6724 18.7142 12.6799 18.9848 11.8127 19.4971C10.9456 20.0094 10.2364 20.744 9.76122 21.6223C8.52377 20.348 7.84711 18.6451 7.87805 16.8832C7.90899 15.1212 8.64504 13.4423 9.9265 12.2108C11.2079 10.9793 12.9314 10.2944 14.723 10.3049C16.5145 10.3154 18.2296 11.0203 19.4961 12.2667ZM14.6839 9.50867C16.4461 9.50852 18.1539 10.1094 19.5162 11.2089C20.8785 12.3085 21.811 13.8386 22.1549 15.5386C22.4988 17.2386 22.2328 19.0033 21.4022 20.532C20.5716 22.0608 19.2277 23.2589 17.5997 23.9223C15.9716 24.5856 14.1601 24.6732 12.4737 24.1701C10.7873 23.667 9.3305 22.6043 8.35143 21.1631C7.37237 19.7219 6.93164 17.9914 7.10436 16.2664C7.27708 14.5414 8.05255 12.9287 9.29864 11.703C10.005 11.0063 10.8444 10.4537 11.7686 10.0771C12.6928 9.70056 13.6836 9.50737 14.6839 9.50867ZM25.8038 20.252C26.3049 18.7056 26.5588 17.092 26.5565 15.469V6.74267L14.6839 2.838L2.81062 6.74267V15.469C2.81538 18.9303 3.96742 22.2958 6.09208 25.055C8.27482 27.8854 11.2665 30.0108 14.6842 31.1593C15.78 30.7859 16.838 30.3131 17.8447 29.747C18.8013 29.2091 19.7065 28.5871 20.549 27.8887C20.2575 27.0428 20.1689 26.1421 20.2902 25.2569C20.4115 24.3718 20.7395 23.5263 21.2484 22.7866C21.7574 22.0469 22.4335 21.4331 23.2238 20.9933C24.0141 20.5535 24.8971 20.2995 25.8038 20.2513V20.252ZM20.8788 28.6557C21.2865 29.442 21.8717 30.1261 22.5897 30.6557C23.3077 31.1852 24.1393 31.5461 25.021 31.7107C25.9027 31.8753 26.8109 31.8392 27.6762 31.6053C28.5415 31.3713 29.3409 30.9457 30.0132 30.361L30.0322 30.3453C31.1935 29.3276 31.8973 27.8987 31.9896 26.3716C32.0819 24.8444 31.5551 23.3435 30.5246 22.1977L30.5086 22.179C29.5158 21.0805 28.1338 20.3966 26.6453 20.267C27.1242 18.7113 27.3676 17.0948 27.3678 15.4693V6.17133C23.1399 4.78111 18.9119 3.39067 14.6839 2L2 6.17133V15.469C2.00521 19.1026 3.21511 22.6353 5.44615 25.5313C7.75467 28.5268 10.9293 30.7664 14.5541 31.9567L14.6839 32L14.8137 31.9567C16.0053 31.5607 17.1551 31.0523 18.247 30.4383C19.1734 29.9176 20.0538 29.3213 20.8788 28.6557ZM21.3919 27.8413C21.3993 27.8568 21.4058 27.8727 21.4112 27.889C21.7137 28.6283 22.1917 29.2855 22.8054 29.8059C23.419 30.3262 24.1504 30.6944 24.9383 30.8797C25.7263 31.0651 26.5479 31.0621 27.3345 30.8711C28.121 30.6802 28.8497 30.3067 29.4594 29.782L29.4784 29.7663C30.4829 28.8926 31.0948 27.6632 31.1805 26.347C31.2663 25.0308 30.8188 23.7347 29.9359 22.742L29.92 22.7233C29.1307 21.8457 28.0527 21.2693 26.8747 21.095C25.6967 20.9206 24.494 21.1595 23.4771 21.7698C22.4602 22.38 21.694 23.3228 21.3128 24.4328C20.9315 25.5429 20.9595 26.7495 21.3919 27.8413Z"/>
</mask>
<path fill-rule="evenodd" clip-rule="evenodd" d="M23.6099 26.5333C23.5671 26.5025 23.5308 26.4636 23.5033 26.4189C23.4757 26.3743 23.4574 26.3247 23.4493 26.2731C23.4412 26.2214 23.4435 26.1688 23.4561 26.118C23.4687 26.0673 23.4914 26.0195 23.5228 25.9773C23.5542 25.9352 23.5937 25.8996 23.6391 25.8725C23.6845 25.8454 23.7349 25.8273 23.7874 25.8193C23.8399 25.8114 23.8934 25.8137 23.945 25.8261C23.9966 25.8385 24.0452 25.8608 24.0881 25.8917L25.4948 26.9067L28.1019 24.3423C28.1382 24.3002 28.1831 24.266 28.2336 24.2418C28.2841 24.2176 28.3392 24.204 28.3953 24.2018C28.4514 24.1996 28.5074 24.2088 28.5597 24.2289C28.6121 24.2491 28.6596 24.2796 28.6993 24.3187C28.739 24.3578 28.77 24.4045 28.7905 24.456C28.8109 24.5075 28.8203 24.5626 28.818 24.6178C28.8157 24.673 28.8018 24.7271 28.7772 24.7768C28.7525 24.8265 28.7177 24.8706 28.6749 24.9063L25.8228 27.7117C25.7546 27.7789 25.6641 27.8198 25.5678 27.8271C25.4715 27.8343 25.3758 27.8075 25.2979 27.7513L23.6099 26.5333ZM15.828 14.4117C15.5632 14.1514 15.2148 13.9895 14.8422 13.9536C14.4696 13.9176 14.0959 14.0099 13.7847 14.2146C13.4735 14.4193 13.2441 14.7238 13.1355 15.0762C13.027 15.4286 13.0461 15.8072 13.1895 16.1473C13.3329 16.4875 13.5918 16.7682 13.922 16.9417C14.2523 17.1151 14.6334 17.1706 15.0006 17.0986C15.3677 17.0266 15.6981 16.8316 15.9355 16.5469C16.1729 16.2621 16.3026 15.9052 16.3024 15.537C16.3026 15.3279 16.2608 15.1209 16.1794 14.9278C16.098 14.7347 15.9785 14.5593 15.828 14.4117ZM14.6839 13.148C15.2457 13.1479 15.7902 13.3394 16.2246 13.6899C16.659 14.0404 16.9563 14.5282 17.0661 15.0702C17.1758 15.6122 17.091 16.1748 16.8263 16.6623C16.5615 17.1497 16.1331 17.5317 15.6141 17.7433C15.0951 17.9549 14.5175 17.9829 13.9799 17.8226C13.4422 17.6623 12.9777 17.3236 12.6654 16.8642C12.3532 16.4047 12.2126 15.853 12.2675 15.3031C12.3225 14.7531 12.5696 14.2389 12.9668 13.848C13.192 13.6258 13.4597 13.4497 13.7543 13.3295C14.049 13.2094 14.3649 13.1477 14.6839 13.148ZM10.38 22.1837C11.5954 23.16 13.1164 23.6933 14.6856 23.6933C16.2548 23.6933 17.7758 23.16 18.9912 22.1837C18.6035 21.3836 17.9934 20.7078 17.2314 20.2348C16.4694 19.7617 15.5867 19.5106 14.6856 19.5106C13.7845 19.5106 12.9019 19.7617 12.1399 20.2348C11.3779 20.7078 10.7677 21.3836 10.38 22.1837ZM19.4961 12.2667C20.7531 13.503 21.4684 15.174 21.489 16.9224C21.5097 18.6707 20.834 20.3576 19.6066 21.6223C19.1314 20.744 18.4222 20.0094 17.5551 19.4971C16.6879 18.9848 15.6954 18.7142 14.6839 18.7142C13.6724 18.7142 12.6799 18.9848 11.8127 19.4971C10.9456 20.0094 10.2364 20.744 9.76122 21.6223C8.52377 20.348 7.84711 18.6451 7.87805 16.8832C7.90899 15.1212 8.64504 13.4423 9.9265 12.2108C11.2079 10.9793 12.9314 10.2944 14.723 10.3049C16.5145 10.3154 18.2296 11.0203 19.4961 12.2667ZM14.6839 9.50867C16.4461 9.50852 18.1539 10.1094 19.5162 11.2089C20.8785 12.3085 21.811 13.8386 22.1549 15.5386C22.4988 17.2386 22.2328 19.0033 21.4022 20.532C20.5716 22.0608 19.2277 23.2589 17.5997 23.9223C15.9716 24.5856 14.1601 24.6732 12.4737 24.1701C10.7873 23.667 9.3305 22.6043 8.35143 21.1631C7.37237 19.7219 6.93164 17.9914 7.10436 16.2664C7.27708 14.5414 8.05255 12.9287 9.29864 11.703C10.005 11.0063 10.8444 10.4537 11.7686 10.0771C12.6928 9.70056 13.6836 9.50737 14.6839 9.50867ZM25.8038 20.252C26.3049 18.7056 26.5588 17.092 26.5565 15.469V6.74267L14.6839 2.838L2.81062 6.74267V15.469C2.81538 18.9303 3.96742 22.2958 6.09208 25.055C8.27482 27.8854 11.2665 30.0108 14.6842 31.1593C15.78 30.7859 16.838 30.3131 17.8447 29.747C18.8013 29.2091 19.7065 28.5871 20.549 27.8887C20.2575 27.0428 20.1689 26.1421 20.2902 25.2569C20.4115 24.3718 20.7395 23.5263 21.2484 22.7866C21.7574 22.0469 22.4335 21.4331 23.2238 20.9933C24.0141 20.5535 24.8971 20.2995 25.8038 20.2513V20.252ZM20.8788 28.6557C21.2865 29.442 21.8717 30.1261 22.5897 30.6557C23.3077 31.1852 24.1393 31.5461 25.021 31.7107C25.9027 31.8753 26.8109 31.8392 27.6762 31.6053C28.5415 31.3713 29.3409 30.9457 30.0132 30.361L30.0322 30.3453C31.1935 29.3276 31.8973 27.8987 31.9896 26.3716C32.0819 24.8444 31.5551 23.3435 30.5246 22.1977L30.5086 22.179C29.5158 21.0805 28.1338 20.3966 26.6453 20.267C27.1242 18.7113 27.3676 17.0948 27.3678 15.4693V6.17133C23.1399 4.78111 18.9119 3.39067 14.6839 2L2 6.17133V15.469C2.00521 19.1026 3.21511 22.6353 5.44615 25.5313C7.75467 28.5268 10.9293 30.7664 14.5541 31.9567L14.6839 32L14.8137 31.9567C16.0053 31.5607 17.1551 31.0523 18.247 30.4383C19.1734 29.9176 20.0538 29.3213 20.8788 28.6557ZM21.3919 27.8413C21.3993 27.8568 21.4058 27.8727 21.4112 27.889C21.7137 28.6283 22.1917 29.2855 22.8054 29.8059C23.419 30.3262 24.1504 30.6944 24.9383 30.8797C25.7263 31.0651 26.5479 31.0621 27.3345 30.8711C28.121 30.6802 28.8497 30.3067 29.4594 29.782L29.4784 29.7663C30.4829 28.8926 31.0948 27.6632 31.1805 26.347C31.2663 25.0308 30.8188 23.7347 29.9359 22.742L29.92 22.7233C29.1307 21.8457 28.0527 21.2693 26.8747 21.095C25.6967 20.9206 24.494 21.1595 23.4771 21.7698C22.4602 22.38 21.694 23.3228 21.3128 24.4328C20.9315 25.5429 20.9595 26.7495 21.3919 27.8413Z" fill="#0066FF"/>
<path fill-rule="evenodd" clip-rule="evenodd" d="M23.6099 26.5333C23.5671 26.5025 23.5308 26.4636 23.5033 26.4189C23.4757 26.3743 23.4574 26.3247 23.4493 26.2731C23.4412 26.2214 23.4435 26.1688 23.4561 26.118C23.4687 26.0673 23.4914 26.0195 23.5228 25.9773C23.5542 25.9352 23.5937 25.8996 23.6391 25.8725C23.6845 25.8454 23.7349 25.8273 23.7874 25.8193C23.8399 25.8114 23.8934 25.8137 23.945 25.8261C23.9966 25.8385 24.0452 25.8608 24.0881 25.8917L25.4948 26.9067L28.1019 24.3423C28.1382 24.3002 28.1831 24.266 28.2336 24.2418C28.2841 24.2176 28.3392 24.204 28.3953 24.2018C28.4514 24.1996 28.5074 24.2088 28.5597 24.2289C28.6121 24.2491 28.6596 24.2796 28.6993 24.3187C28.739 24.3578 28.77 24.4045 28.7905 24.456C28.8109 24.5075 28.8203 24.5626 28.818 24.6178C28.8157 24.673 28.8018 24.7271 28.7772 24.7768C28.7525 24.8265 28.7177 24.8706 28.6749 24.9063L25.8228 27.7117C25.7546 27.7789 25.6641 27.8198 25.5678 27.8271C25.4715 27.8343 25.3758 27.8075 25.2979 27.7513L23.6099 26.5333ZM15.828 14.4117C15.5632 14.1514 15.2148 13.9895 14.8422 13.9536C14.4696 13.9176 14.0959 14.0099 13.7847 14.2146C13.4735 14.4193 13.2441 14.7238 13.1355 15.0762C13.027 15.4286 13.0461 15.8072 13.1895 16.1473C13.3329 16.4875 13.5918 16.7682 13.922 16.9417C14.2523 17.1151 14.6334 17.1706 15.0006 17.0986C15.3677 17.0266 15.6981 16.8316 15.9355 16.5469C16.1729 16.2621 16.3026 15.9052 16.3024 15.537C16.3026 15.3279 16.2608 15.1209 16.1794 14.9278C16.098 14.7347 15.9785 14.5593 15.828 14.4117ZM14.6839 13.148C15.2457 13.1479 15.7902 13.3394 16.2246 13.6899C16.659 14.0404 16.9563 14.5282 17.0661 15.0702C17.1758 15.6122 17.091 16.1748 16.8263 16.6623C16.5615 17.1497 16.1331 17.5317 15.6141 17.7433C15.0951 17.9549 14.5175 17.9829 13.9799 17.8226C13.4422 17.6623 12.9777 17.3236 12.6654 16.8642C12.3532 16.4047 12.2126 15.853 12.2675 15.3031C12.3225 14.7531 12.5696 14.2389 12.9668 13.848C13.192 13.6258 13.4597 13.4497 13.7543 13.3295C14.049 13.2094 14.3649 13.1477 14.6839 13.148ZM10.38 22.1837C11.5954 23.16 13.1164 23.6933 14.6856 23.6933C16.2548 23.6933 17.7758 23.16 18.9912 22.1837C18.6035 21.3836 17.9934 20.7078 17.2314 20.2348C16.4694 19.7617 15.5867 19.5106 14.6856 19.5106C13.7845 19.5106 12.9019 19.7617 12.1399 20.2348C11.3779 20.7078 10.7677 21.3836 10.38 22.1837ZM19.4961 12.2667C20.7531 13.503 21.4684 15.174 21.489 16.9224C21.5097 18.6707 20.834 20.3576 19.6066 21.6223C19.1314 20.744 18.4222 20.0094 17.5551 19.4971C16.6879 18.9848 15.6954 18.7142 14.6839 18.7142C13.6724 18.7142 12.6799 18.9848 11.8127 19.4971C10.9456 20.0094 10.2364 20.744 9.76122 21.6223C8.52377 20.348 7.84711 18.6451 7.87805 16.8832C7.90899 15.1212 8.64504 13.4423 9.9265 12.2108C11.2079 10.9793 12.9314 10.2944 14.723 10.3049C16.5145 10.3154 18.2296 11.0203 19.4961 12.2667ZM14.6839 9.50867C16.4461 9.50852 18.1539 10.1094 19.5162 11.2089C20.8785 12.3085 21.811 13.8386 22.1549 15.5386C22.4988 17.2386 22.2328 19.0033 21.4022 20.532C20.5716 22.0608 19.2277 23.2589 17.5997 23.9223C15.9716 24.5856 14.1601 24.6732 12.4737 24.1701C10.7873 23.667 9.3305 22.6043 8.35143 21.1631C7.37237 19.7219 6.93164 17.9914 7.10436 16.2664C7.27708 14.5414 8.05255 12.9287 9.29864 11.703C10.005 11.0063 10.8444 10.4537 11.7686 10.0771C12.6928 9.70056 13.6836 9.50737 14.6839 9.50867ZM25.8038 20.252C26.3049 18.7056 26.5588 17.092 26.5565 15.469V6.74267L14.6839 2.838L2.81062 6.74267V15.469C2.81538 18.9303 3.96742 22.2958 6.09208 25.055C8.27482 27.8854 11.2665 30.0108 14.6842 31.1593C15.78 30.7859 16.838 30.3131 17.8447 29.747C18.8013 29.2091 19.7065 28.5871 20.549 27.8887C20.2575 27.0428 20.1689 26.1421 20.2902 25.2569C20.4115 24.3718 20.7395 23.5263 21.2484 22.7866C21.7574 22.0469 22.4335 21.4331 23.2238 20.9933C24.0141 20.5535 24.8971 20.2995 25.8038 20.2513V20.252ZM20.8788 28.6557C21.2865 29.442 21.8717 30.1261 22.5897 30.6557C23.3077 31.1852 24.1393 31.5461 25.021 31.7107C25.9027 31.8753 26.8109 31.8392 27.6762 31.6053C28.5415 31.3713 29.3409 30.9457 30.0132 30.361L30.0322 30.3453C31.1935 29.3276 31.8973 27.8987 31.9896 26.3716C32.0819 24.8444 31.5551 23.3435 30.5246 22.1977L30.5086 22.179C29.5158 21.0805 28.1338 20.3966 26.6453 20.267C27.1242 18.7113 27.3676 17.0948 27.3678 15.4693V6.17133C23.1399 4.78111 18.9119 3.39067 14.6839 2L2 6.17133V15.469C2.00521 19.1026 3.21511 22.6353 5.44615 25.5313C7.75467 28.5268 10.9293 30.7664 14.5541 31.9567L14.6839 32L14.8137 31.9567C16.0053 31.5607 17.1551 31.0523 18.247 30.4383C19.1734 29.9176 20.0538 29.3213 20.8788 28.6557ZM21.3919 27.8413C21.3993 27.8568 21.4058 27.8727 21.4112 27.889C21.7137 28.6283 22.1917 29.2855 22.8054 29.8059C23.419 30.3262 24.1504 30.6944 24.9383 30.8797C25.7263 31.0651 26.5479 31.0621 27.3345 30.8711C28.121 30.6802 28.8497 30.3067 29.4594 29.782L29.4784 29.7663C30.4829 28.8926 31.0948 27.6632 31.1805 26.347C31.2663 25.0308 30.8188 23.7347 29.9359 22.742L29.92 22.7233C29.1307 21.8457 28.0527 21.2693 26.8747 21.095C25.6967 20.9206 24.494 21.1595 23.4771 21.7698C22.4602 22.38 21.694 23.3228 21.3128 24.4328C20.9315 25.5429 20.9595 26.7495 21.3919 27.8413Z" stroke="#0066FF" stroke-width="0.4" mask="url(#path-1-outside-1_4844_1285)"/>
</svg>
